%TF.GenerationSoftware,KiCad,Pcbnew,9.0.2-2.fc42*%
%TF.CreationDate,2025-07-04T09:41:20+12:00*%
%TF.ProjectId,smartclockpi,736d6172-7463-46c6-9f63-6b70692e6b69,rev?*%
%TF.SameCoordinates,Original*%
%TF.FileFunction,Soldermask,Top*%
%TF.FilePolarity,Negative*%
%FSLAX46Y46*%
G04 Gerber Fmt 4.6, Leading zero omitted, Abs format (unit mm)*
G04 Created by KiCad (PCBNEW 9.0.2-2.fc42) date 2025-07-04 09:41:20*
%MOMM*%
%LPD*%
G01*
G04 APERTURE LIST*
G04 Aperture macros list*
%AMRoundRect*
0 Rectangle with rounded corners*
0 $1 Rounding radius*
0 $2 $3 $4 $5 $6 $7 $8 $9 X,Y pos of 4 corners*
0 Add a 4 corners polygon primitive as box body*
4,1,4,$2,$3,$4,$5,$6,$7,$8,$9,$2,$3,0*
0 Add four circle primitives for the rounded corners*
1,1,$1+$1,$2,$3*
1,1,$1+$1,$4,$5*
1,1,$1+$1,$6,$7*
1,1,$1+$1,$8,$9*
0 Add four rect primitives between the rounded corners*
20,1,$1+$1,$2,$3,$4,$5,0*
20,1,$1+$1,$4,$5,$6,$7,0*
20,1,$1+$1,$6,$7,$8,$9,0*
20,1,$1+$1,$8,$9,$2,$3,0*%
G04 Aperture macros list end*
%ADD10C,2.200000*%
%ADD11R,1.700000X1.700000*%
%ADD12C,1.700000*%
%ADD13C,1.400000*%
%ADD14RoundRect,0.249999X-0.850001X-0.850001X0.850001X-0.850001X0.850001X0.850001X-0.850001X0.850001X0*%
%ADD15C,1.500000*%
%ADD16RoundRect,0.250000X-0.550000X-0.550000X0.550000X-0.550000X0.550000X0.550000X-0.550000X0.550000X0*%
%ADD17C,1.600000*%
%ADD18RoundRect,0.325000X0.325000X1.175000X-0.325000X1.175000X-0.325000X-1.175000X0.325000X-1.175000X0*%
%ADD19O,1.200000X2.900000*%
%ADD20RoundRect,0.100000X0.100000X0.575000X-0.100000X0.575000X-0.100000X-0.575000X0.100000X-0.575000X0*%
%ADD21O,0.900000X1.600000*%
%ADD22RoundRect,0.250000X0.550000X0.450000X-0.550000X0.450000X-0.550000X-0.450000X0.550000X-0.450000X0*%
%ADD23RoundRect,0.250000X0.700000X0.700000X-0.700000X0.700000X-0.700000X-0.700000X0.700000X-0.700000X0*%
%ADD24R,1.500000X1.500000*%
G04 APERTURE END LIST*
D10*
%TO.C,REF\u002A\u002A*%
X82000000Y-72500000D03*
%TD*%
%TO.C,REF\u002A\u002A*%
X81700000Y-129100000D03*
%TD*%
%TO.C,REF\u002A\u002A*%
X129900000Y-129200000D03*
%TD*%
%TO.C,REF\u002A\u002A*%
X52700000Y-119500000D03*
%TD*%
D11*
%TO.C,J3*%
X62500000Y-88710000D03*
D12*
X62500000Y-91250000D03*
X62500000Y-93790000D03*
X62500000Y-96330000D03*
X62500000Y-98870000D03*
X62500000Y-101410000D03*
X62500000Y-103950000D03*
X62500000Y-106490000D03*
X62500000Y-109030000D03*
X62500000Y-111570000D03*
X62500000Y-114110000D03*
X62500000Y-116650000D03*
X62500000Y-119190000D03*
X62500000Y-121730000D03*
%TD*%
D13*
%TO.C,R9*%
X77010000Y-121500000D03*
X82090000Y-121500000D03*
%TD*%
D11*
%TO.C,J2*%
X121082200Y-132035000D03*
D12*
X118542200Y-132035000D03*
X116002200Y-132035000D03*
X113462200Y-132035000D03*
X110922200Y-132035000D03*
X108382200Y-132035000D03*
%TD*%
D14*
%TO.C,D1*%
X73812400Y-90805000D03*
D10*
X83972400Y-90805000D03*
%TD*%
D15*
%TO.C,R1*%
X93500000Y-71900000D03*
X96900000Y-71900000D03*
%TD*%
D13*
%TO.C,R4*%
X77010000Y-105600000D03*
X82090000Y-105600000D03*
%TD*%
D11*
%TO.C,J9*%
X89535000Y-84886800D03*
D12*
X89535000Y-87426800D03*
%TD*%
D16*
%TO.C,U2*%
X91500000Y-102300000D03*
D17*
X91500000Y-104840000D03*
X91500000Y-107380000D03*
X91500000Y-109920000D03*
X91500000Y-112460000D03*
X91500000Y-115000000D03*
X91500000Y-117540000D03*
X91500000Y-120080000D03*
X99120000Y-120080000D03*
X99120000Y-117540000D03*
X99120000Y-115000000D03*
X99120000Y-112460000D03*
X99120000Y-109920000D03*
X99120000Y-107380000D03*
X99120000Y-104840000D03*
X99120000Y-102300000D03*
%TD*%
D18*
%TO.C,J6*%
X129600000Y-81700000D03*
X127100000Y-81700000D03*
X125100000Y-81700000D03*
X122600000Y-81700000D03*
D19*
X132500000Y-78000000D03*
X119700000Y-78000000D03*
%TD*%
D20*
%TO.C,J5*%
X109550000Y-73125000D03*
X108900000Y-73125000D03*
X108250000Y-73125000D03*
X107600000Y-73125000D03*
X106950000Y-73125000D03*
D21*
X111550000Y-70450000D03*
D22*
X111450000Y-72900000D03*
D23*
X109450000Y-70450000D03*
X107050000Y-70450000D03*
D22*
X105050000Y-72900000D03*
D21*
X104950000Y-70450000D03*
%TD*%
D13*
%TO.C,R6*%
X77010000Y-112050000D03*
X82090000Y-112050000D03*
%TD*%
%TO.C,R8*%
X77010000Y-118350000D03*
X82090000Y-118350000D03*
%TD*%
D10*
%TO.C,REF\u002A\u002A*%
X115700000Y-72500000D03*
%TD*%
%TO.C,REF\u002A\u002A*%
X43500000Y-73000000D03*
%TD*%
D13*
%TO.C,R5*%
X77010000Y-108900000D03*
X82090000Y-108900000D03*
%TD*%
D11*
%TO.C,J8*%
X129565000Y-90393200D03*
D12*
X129565000Y-92933200D03*
%TD*%
D13*
%TO.C,R3*%
X76920000Y-102100000D03*
X82000000Y-102100000D03*
%TD*%
%TO.C,R7*%
X77010000Y-115200000D03*
X82090000Y-115200000D03*
%TD*%
D24*
%TO.C,U3*%
X99750000Y-79880000D03*
D15*
X99750000Y-82420000D03*
X99750000Y-84960000D03*
X99750000Y-87500000D03*
%TD*%
D11*
%TO.C,J7*%
X121666000Y-90424000D03*
D12*
X121666000Y-92964000D03*
%TD*%
D13*
%TO.C,R2*%
X99800000Y-98240000D03*
X99800000Y-93160000D03*
%TD*%
%TO.C,R12*%
X110170000Y-83100000D03*
X115250000Y-83100000D03*
%TD*%
%TO.C,R13*%
X110170000Y-86250000D03*
X115250000Y-86250000D03*
%TD*%
D10*
%TO.C,REF\u002A\u002A*%
X130000000Y-102500000D03*
%TD*%
D11*
%TO.C,J1*%
X44475400Y-81762600D03*
D12*
X47015400Y-81762600D03*
X44475400Y-84302600D03*
X47015400Y-84302600D03*
X44475400Y-86842600D03*
X47015400Y-86842600D03*
X44475400Y-89382600D03*
X47015400Y-89382600D03*
X44475400Y-91922600D03*
X47015400Y-91922600D03*
X44475400Y-94462600D03*
X47015400Y-94462600D03*
X44475400Y-97002600D03*
X47015400Y-97002600D03*
X44475400Y-99542600D03*
X47015400Y-99542600D03*
X44475400Y-102082600D03*
X47015400Y-102082600D03*
X44475400Y-104622600D03*
X47015400Y-104622600D03*
X44475400Y-107162600D03*
X47015400Y-107162600D03*
X44475400Y-109702600D03*
X47015400Y-109702600D03*
X44475400Y-112242600D03*
X47015400Y-112242600D03*
X44475400Y-114782600D03*
X47015400Y-114782600D03*
X44475400Y-117322600D03*
X47015400Y-117322600D03*
X44475400Y-119862600D03*
X47015400Y-119862600D03*
X44475400Y-122402600D03*
X47015400Y-122402600D03*
X44475400Y-124942600D03*
X47015400Y-124942600D03*
X44475400Y-127482600D03*
X47015400Y-127482600D03*
X44475400Y-130022600D03*
X47015400Y-130022600D03*
%TD*%
M02*
