M48
; DRILL file {KiCad 9.0.2-2.fc42} date 2025-07-03T10:40:49+1200
; FORMAT={-:-/ absolute / metric / decimal}
; #@! TF.CreationDate,2025-07-03T10:40:49+12:00
; #@! TF.GenerationSoftware,Kicad,Pcbnew,9.0.2-2.fc42
; #@! TF.FileFunction,Plated,1,2,PTH
FMAT,2
METRIC
; #@! TA.AperFunction,Plated,PTH,ViaDrill
T1C0.300
; #@! TA.AperFunction,Plated,PTH,ComponentDrill
T2C0.500
; #@! TA.AperFunction,Plated,PTH,ComponentDrill
T3C0.600
; #@! TA.AperFunction,Plated,PTH,ComponentDrill
T4C0.700
; #@! TA.AperFunction,Plated,PTH,ComponentDrill
T5C0.800
; #@! TA.AperFunction,Plated,PTH,ComponentDrill
T6C1.000
; #@! TA.AperFunction,Plated,PTH,ComponentDrill
T7C1.100
%
G90
G05
T1
X48.92Y-108.839
X49.165Y-126.187
X49.454Y-103.022
X49.581Y-112.954
X49.606Y-121.031
X49.657Y-111.76
X49.683Y-132.276
X50.372Y-106.379
X51.791Y-124.866
X52.07Y-113.817
X52.451Y-125.603
X55.27Y-101.483
X55.27Y-133.096
X55.88Y-104.775
X100.221Y-121.768
X101.87Y-82.525
T4
X61.92Y-131.0
X67.0Y-131.0
X76.92Y-102.1
X77.01Y-105.6
X77.01Y-108.9
X77.01Y-112.05
X77.01Y-115.2
X77.01Y-118.35
X77.01Y-121.5
X82.0Y-102.1
X82.09Y-105.6
X82.09Y-108.9
X82.09Y-112.05
X82.09Y-115.2
X82.09Y-118.35
X82.09Y-121.5
X110.17Y-83.1
X110.17Y-86.25
X115.25Y-83.1
X115.25Y-86.25
T5
X54.0Y-129.5
X57.4Y-129.5
X91.5Y-102.3
X91.5Y-104.84
X91.5Y-107.38
X91.5Y-109.92
X91.5Y-112.46
X91.5Y-115.0
X91.5Y-117.54
X91.5Y-120.08
X99.12Y-102.3
X99.12Y-104.84
X99.12Y-107.38
X99.12Y-109.92
X99.12Y-112.46
X99.12Y-115.0
X99.12Y-117.54
X99.12Y-120.08
X99.75Y-79.88
X99.75Y-82.42
X99.75Y-84.96
X99.75Y-87.5
T6
X44.475Y-81.763
X44.475Y-84.303
X44.475Y-86.843
X44.475Y-89.383
X44.475Y-91.923
X44.475Y-94.463
X44.475Y-97.003
X44.475Y-99.543
X44.475Y-102.083
X44.475Y-104.623
X44.475Y-107.163
X44.475Y-109.703
X44.475Y-112.243
X44.475Y-114.783
X44.475Y-117.323
X44.475Y-119.863
X44.475Y-122.403
X44.475Y-124.943
X44.475Y-127.483
X44.475Y-130.023
X47.015Y-81.763
X47.015Y-84.303
X47.015Y-86.843
X47.015Y-89.383
X47.015Y-91.923
X47.015Y-94.463
X47.015Y-97.003
X47.015Y-99.543
X47.015Y-102.083
X47.015Y-104.623
X47.015Y-107.163
X47.015Y-109.703
X47.015Y-112.243
X47.015Y-114.783
X47.015Y-117.323
X47.015Y-119.863
X47.015Y-122.403
X47.015Y-124.943
X47.015Y-127.483
X47.015Y-130.023
X62.5Y-88.71
X62.5Y-91.25
X62.5Y-93.79
X62.5Y-96.33
X62.5Y-98.87
X62.5Y-101.41
X62.5Y-103.95
X62.5Y-106.49
X62.5Y-109.03
X62.5Y-111.57
X62.5Y-114.11
X62.5Y-116.65
X62.5Y-119.19
X62.5Y-121.73
X89.535Y-84.887
X89.535Y-87.427
X108.382Y-132.035
X110.922Y-132.035
X113.462Y-132.035
X116.002Y-132.035
X118.542Y-132.035
X121.082Y-132.035
X121.666Y-90.424
X121.666Y-92.964
X129.565Y-90.393
X129.565Y-92.933
T7
X73.812Y-90.805
X83.972Y-90.805
T2
G00X105.0Y-70.53
M15
G01X105.0Y-71.23
M16
G05
G00X111.6Y-70.53
M15
G01X111.6Y-71.23
M16
G05
T3
G00X119.711Y-79.355
M15
G01X119.711Y-77.655
M16
G05
G00X132.511Y-79.355
M15
G01X132.511Y-77.655
M16
G05
M30
