%TF.GenerationSoftware,KiCad,Pcbnew,9.0.2*%
%TF.CreationDate,2025-06-18T17:26:39+12:00*%
%TF.ProjectId,smartclockpi,736d6172-7463-46c6-9f63-6b70692e6b69,rev?*%
%TF.SameCoordinates,Original*%
%TF.FileFunction,Copper,L1,Top*%
%TF.FilePolarity,Positive*%
%FSLAX46Y46*%
G04 Gerber Fmt 4.6, Leading zero omitted, Abs format (unit mm)*
G04 Created by KiCad (PCBNEW 9.0.2) date 2025-06-18 17:26:39*
%MOMM*%
%LPD*%
G01*
G04 APERTURE LIST*
G04 Aperture macros list*
%AMRoundRect*
0 Rectangle with rounded corners*
0 $1 Rounding radius*
0 $2 $3 $4 $5 $6 $7 $8 $9 X,Y pos of 4 corners*
0 Add a 4 corners polygon primitive as box body*
4,1,4,$2,$3,$4,$5,$6,$7,$8,$9,$2,$3,0*
0 Add four circle primitives for the rounded corners*
1,1,$1+$1,$2,$3*
1,1,$1+$1,$4,$5*
1,1,$1+$1,$6,$7*
1,1,$1+$1,$8,$9*
0 Add four rect primitives between the rounded corners*
20,1,$1+$1,$2,$3,$4,$5,0*
20,1,$1+$1,$4,$5,$6,$7,0*
20,1,$1+$1,$6,$7,$8,$9,0*
20,1,$1+$1,$8,$9,$2,$3,0*%
G04 Aperture macros list end*
%TA.AperFunction,ComponentPad*%
%ADD10R,1.700000X1.700000*%
%TD*%
%TA.AperFunction,ComponentPad*%
%ADD11C,1.700000*%
%TD*%
%TA.AperFunction,ComponentPad*%
%ADD12C,1.400000*%
%TD*%
%TA.AperFunction,ComponentPad*%
%ADD13RoundRect,0.249999X-0.850001X-0.850001X0.850001X-0.850001X0.850001X0.850001X-0.850001X0.850001X0*%
%TD*%
%TA.AperFunction,ComponentPad*%
%ADD14C,2.200000*%
%TD*%
%TA.AperFunction,ComponentPad*%
%ADD15C,1.500000*%
%TD*%
%TA.AperFunction,ComponentPad*%
%ADD16RoundRect,0.250000X-0.550000X-0.550000X0.550000X-0.550000X0.550000X0.550000X-0.550000X0.550000X0*%
%TD*%
%TA.AperFunction,ComponentPad*%
%ADD17C,1.600000*%
%TD*%
%TA.AperFunction,SMDPad,CuDef*%
%ADD18RoundRect,0.325000X0.325000X1.175000X-0.325000X1.175000X-0.325000X-1.175000X0.325000X-1.175000X0*%
%TD*%
%TA.AperFunction,HeatsinkPad*%
%ADD19O,1.200000X2.900000*%
%TD*%
%TA.AperFunction,SMDPad,CuDef*%
%ADD20RoundRect,0.100000X0.100000X0.575000X-0.100000X0.575000X-0.100000X-0.575000X0.100000X-0.575000X0*%
%TD*%
%TA.AperFunction,HeatsinkPad*%
%ADD21O,0.900000X1.600000*%
%TD*%
%TA.AperFunction,SMDPad,CuDef*%
%ADD22RoundRect,0.250000X0.550000X0.450000X-0.550000X0.450000X-0.550000X-0.450000X0.550000X-0.450000X0*%
%TD*%
%TA.AperFunction,SMDPad,CuDef*%
%ADD23RoundRect,0.250000X0.700000X0.700000X-0.700000X0.700000X-0.700000X-0.700000X0.700000X-0.700000X0*%
%TD*%
%TA.AperFunction,ComponentPad*%
%ADD24R,1.500000X1.500000*%
%TD*%
%TA.AperFunction,ViaPad*%
%ADD25C,0.600000*%
%TD*%
%TA.AperFunction,Conductor*%
%ADD26C,0.200000*%
%TD*%
G04 APERTURE END LIST*
D10*
%TO.P,J3,1,VCC*%
%TO.N,+3.3V*%
X62500000Y-88710000D03*
D11*
%TO.P,J3,2,GND*%
%TO.N,GND*%
X62500000Y-91250000D03*
%TO.P,J3,3,CS*%
%TO.N,Net-(J1-~{CE0}{slash}GPIO8)*%
X62500000Y-93790000D03*
%TO.P,J3,4,RESET*%
%TO.N,Net-(J1-GPIO25)*%
X62500000Y-96330000D03*
%TO.P,J3,5,DC/RS*%
%TO.N,Net-(J1-GPIO24)*%
X62500000Y-98870000D03*
%TO.P,J3,6,MOSI*%
%TO.N,Net-(J1-MOSI0{slash}GPIO10)*%
X62500000Y-101410000D03*
%TO.P,J3,7,SCK*%
%TO.N,Net-(J1-SCLK0{slash}GPIO11)*%
X62500000Y-103950000D03*
%TO.P,J3,8,LED*%
%TO.N,Net-(J1-PWM1{slash}GPIO13)*%
X62500000Y-106490000D03*
%TO.P,J3,9,MISO*%
%TO.N,Net-(J1-MISO0{slash}GPIO9)*%
X62500000Y-109030000D03*
%TO.P,J3,10,T_CLK*%
%TO.N,Net-(J1-GCLK2{slash}GPIO6)*%
X62500000Y-111570000D03*
%TO.P,J3,11,T_CS*%
%TO.N,Net-(J1-GCLK1{slash}GPIO5)*%
X62500000Y-114110000D03*
%TO.P,J3,12,T_DIN*%
%TO.N,Net-(J1-PWM0{slash}GPIO12)*%
X62500000Y-116650000D03*
%TO.P,J3,13,T_DO*%
%TO.N,Net-(J1-GPIO23)*%
X62500000Y-119190000D03*
%TO.P,J3,14,T_IRQ*%
%TO.N,Net-(J1-GPIO16)*%
X62500000Y-121730000D03*
%TD*%
D12*
%TO.P,R9,1*%
%TO.N,GND*%
X77010000Y-121500000D03*
%TO.P,R9,2*%
%TO.N,Net-(U2-CH7)*%
X82090000Y-121500000D03*
%TD*%
D10*
%TO.P,J2,1,32K*%
%TO.N,Net-(J2-32K)*%
X121082200Y-132035000D03*
D11*
%TO.P,J2,2,SQW*%
%TO.N,Net-(J2-SQW)*%
X118542200Y-132035000D03*
%TO.P,J2,3,SCL*%
%TO.N,Net-(J1-SCL{slash}GPIO3)*%
X116002200Y-132035000D03*
%TO.P,J2,4,SDA*%
%TO.N,Net-(J1-SDA{slash}GPIO2)*%
X113462200Y-132035000D03*
%TO.P,J2,5,VCC*%
%TO.N,+3.3V*%
X110922200Y-132035000D03*
%TO.P,J2,6,GND*%
%TO.N,GND*%
X108382200Y-132035000D03*
%TD*%
D13*
%TO.P,D1,1,K*%
%TO.N,+5V*%
X73812400Y-90805000D03*
D14*
%TO.P,D1,2,A*%
%TO.N,Net-(D1-A)*%
X83972400Y-90805000D03*
%TD*%
D15*
%TO.P,R1,1*%
%TO.N,+3.3V*%
X54000000Y-129500000D03*
%TO.P,R1,2*%
%TO.N,Net-(U2-CH0)*%
X57400000Y-129500000D03*
%TD*%
D12*
%TO.P,R4,1*%
%TO.N,GND*%
X77010000Y-105600000D03*
%TO.P,R4,2*%
%TO.N,Net-(U2-CH2)*%
X82090000Y-105600000D03*
%TD*%
D10*
%TO.P,J9,1,Pin_1*%
%TO.N,Net-(D1-A)*%
X89535000Y-84886800D03*
D11*
%TO.P,J9,2,Pin_2*%
%TO.N,GND*%
X89535000Y-87426800D03*
%TD*%
D16*
%TO.P,U2,1,CH0*%
%TO.N,Net-(U2-CH0)*%
X91500000Y-102300000D03*
D17*
%TO.P,U2,2,CH1*%
%TO.N,Net-(U2-CH1)*%
X91500000Y-104840000D03*
%TO.P,U2,3,CH2*%
%TO.N,Net-(U2-CH2)*%
X91500000Y-107380000D03*
%TO.P,U2,4,CH3*%
%TO.N,Net-(U2-CH3)*%
X91500000Y-109920000D03*
%TO.P,U2,5,CH4*%
%TO.N,Net-(U2-CH4)*%
X91500000Y-112460000D03*
%TO.P,U2,6,CH5*%
%TO.N,Net-(U2-CH5)*%
X91500000Y-115000000D03*
%TO.P,U2,7,CH6*%
%TO.N,Net-(U2-CH6)*%
X91500000Y-117540000D03*
%TO.P,U2,8,CH7*%
%TO.N,Net-(U2-CH7)*%
X91500000Y-120080000D03*
%TO.P,U2,9,DGND*%
%TO.N,GND*%
X99120000Y-120080000D03*
%TO.P,U2,10,~{CS}/SHDN*%
%TO.N,Net-(J1-GCLK0{slash}GPIO4)*%
X99120000Y-117540000D03*
%TO.P,U2,11,Din*%
%TO.N,Net-(J1-MOSI0{slash}GPIO10)*%
X99120000Y-115000000D03*
%TO.P,U2,12,Dout*%
%TO.N,Net-(J1-MISO0{slash}GPIO9)*%
X99120000Y-112460000D03*
%TO.P,U2,13,CLK*%
%TO.N,Net-(J1-SCLK0{slash}GPIO11)*%
X99120000Y-109920000D03*
%TO.P,U2,14,AGND*%
%TO.N,GND*%
X99120000Y-107380000D03*
%TO.P,U2,15,Vref*%
%TO.N,+3.3V*%
X99120000Y-104840000D03*
%TO.P,U2,16,Vdd*%
X99120000Y-102300000D03*
%TD*%
D10*
%TO.P,J1,1,3V3*%
%TO.N,+3.3V*%
X47040000Y-81840000D03*
D11*
%TO.P,J1,2,5V*%
%TO.N,+5V*%
X44500000Y-81840000D03*
%TO.P,J1,3,SDA/GPIO2*%
%TO.N,Net-(J1-SDA{slash}GPIO2)*%
X47040000Y-84380000D03*
%TO.P,J1,4,5V*%
%TO.N,+5V*%
X44500000Y-84380000D03*
%TO.P,J1,5,SCL/GPIO3*%
%TO.N,Net-(J1-SCL{slash}GPIO3)*%
X47040000Y-86920000D03*
%TO.P,J1,6,GND*%
%TO.N,GND*%
X44500000Y-86920000D03*
%TO.P,J1,7,GCLK0/GPIO4*%
%TO.N,Net-(J1-GCLK0{slash}GPIO4)*%
X47040000Y-89460000D03*
%TO.P,J1,8,GPIO14/TXD*%
%TO.N,unconnected-(J1-GPIO14{slash}TXD-Pad8)*%
X44500000Y-89460000D03*
%TO.P,J1,9,GND*%
%TO.N,GND*%
X47040000Y-92000000D03*
%TO.P,J1,10,GPIO15/RXD*%
%TO.N,unconnected-(J1-GPIO15{slash}RXD-Pad10)*%
X44500000Y-92000000D03*
%TO.P,J1,11,GPIO17*%
%TO.N,unconnected-(J1-GPIO17-Pad11)*%
X47040000Y-94540000D03*
%TO.P,J1,12,GPIO18/PWM0*%
%TO.N,Net-(J1-GPIO18{slash}PWM0)*%
X44500000Y-94540000D03*
%TO.P,J1,13,GPIO27*%
%TO.N,unconnected-(J1-GPIO27-Pad13)*%
X47040000Y-97080000D03*
%TO.P,J1,14,GND*%
%TO.N,GND*%
X44500000Y-97080000D03*
%TO.P,J1,15,GPIO22*%
%TO.N,unconnected-(J1-GPIO22-Pad15)*%
X47040000Y-99620000D03*
%TO.P,J1,16,GPIO23*%
%TO.N,Net-(J1-GPIO23)*%
X44500000Y-99620000D03*
%TO.P,J1,17,3V3*%
%TO.N,+3.3V*%
X47040000Y-102160000D03*
%TO.P,J1,18,GPIO24*%
%TO.N,Net-(J1-GPIO24)*%
X44500000Y-102160000D03*
%TO.P,J1,19,MOSI0/GPIO10*%
%TO.N,Net-(J1-MOSI0{slash}GPIO10)*%
X47040000Y-104700000D03*
%TO.P,J1,20,GND*%
%TO.N,GND*%
X44500000Y-104700000D03*
%TO.P,J1,21,MISO0/GPIO9*%
%TO.N,Net-(J1-MISO0{slash}GPIO9)*%
X47040000Y-107240000D03*
%TO.P,J1,22,GPIO25*%
%TO.N,Net-(J1-GPIO25)*%
X44500000Y-107240000D03*
%TO.P,J1,23,SCLK0/GPIO11*%
%TO.N,Net-(J1-SCLK0{slash}GPIO11)*%
X47040000Y-109780000D03*
%TO.P,J1,24,~{CE0}/GPIO8*%
%TO.N,Net-(J1-~{CE0}{slash}GPIO8)*%
X44500000Y-109780000D03*
%TO.P,J1,25,GND*%
%TO.N,GND*%
X47040000Y-112320000D03*
%TO.P,J1,26,~{CE1}/GPIO7*%
%TO.N,Net-(J1-~{CE1}{slash}GPIO7)*%
X44500000Y-112320000D03*
%TO.P,J1,27,ID_SD/GPIO0*%
%TO.N,unconnected-(J1-ID_SD{slash}GPIO0-Pad27)*%
X47040000Y-114860000D03*
%TO.P,J1,28,ID_SC/GPIO1*%
%TO.N,unconnected-(J1-ID_SC{slash}GPIO1-Pad28)*%
X44500000Y-114860000D03*
%TO.P,J1,29,GCLK1/GPIO5*%
%TO.N,Net-(J1-GCLK1{slash}GPIO5)*%
X47040000Y-117400000D03*
%TO.P,J1,30,GND*%
%TO.N,GND*%
X44500000Y-117400000D03*
%TO.P,J1,31,GCLK2/GPIO6*%
%TO.N,Net-(J1-GCLK2{slash}GPIO6)*%
X47040000Y-119940000D03*
%TO.P,J1,32,PWM0/GPIO12*%
%TO.N,Net-(J1-PWM0{slash}GPIO12)*%
X44500000Y-119940000D03*
%TO.P,J1,33,PWM1/GPIO13*%
%TO.N,Net-(J1-PWM1{slash}GPIO13)*%
X47040000Y-122480000D03*
%TO.P,J1,34,GND*%
%TO.N,GND*%
X44500000Y-122480000D03*
%TO.P,J1,35,GPIO19/MISO1*%
%TO.N,Net-(J1-GPIO19{slash}MISO1)*%
X47040000Y-125020000D03*
%TO.P,J1,36,GPIO16*%
%TO.N,Net-(J1-GPIO16)*%
X44500000Y-125020000D03*
%TO.P,J1,37,GPIO26*%
%TO.N,unconnected-(J1-GPIO26-Pad37)*%
X47040000Y-127560000D03*
%TO.P,J1,38,GPIO20/MOSI1*%
%TO.N,unconnected-(J1-GPIO20{slash}MOSI1-Pad38)*%
X44500000Y-127560000D03*
%TO.P,J1,39,GND*%
%TO.N,GND*%
X47040000Y-130100000D03*
%TO.P,J1,40,GPIO21/SCLK1*%
%TO.N,Net-(J1-GPIO21{slash}SCLK1)*%
X44500000Y-130100000D03*
%TD*%
D10*
%TO.P,J4,1,SCK*%
%TO.N,unconnected-(J4-SCK-Pad1)*%
X70380000Y-83500000D03*
D11*
%TO.P,J4,2,BCK*%
%TO.N,Net-(J1-GPIO18{slash}PWM0)*%
X72920000Y-83500000D03*
%TO.P,J4,3,DIN*%
%TO.N,Net-(J1-GPIO21{slash}SCLK1)*%
X75460000Y-83500000D03*
%TO.P,J4,4,LCK*%
%TO.N,Net-(J1-GPIO19{slash}MISO1)*%
X78000000Y-83500000D03*
%TO.P,J4,5,GND*%
%TO.N,GND*%
X80540000Y-83500000D03*
%TO.P,J4,6,VIN*%
%TO.N,+5V*%
X83080000Y-83500000D03*
%TD*%
D18*
%TO.P,J6,1,VBUS*%
%TO.N,Net-(J6-VBUS)*%
X129611000Y-82205400D03*
%TO.P,J6,2,D-*%
%TO.N,unconnected-(J6-D--Pad2)*%
X127111000Y-82205400D03*
%TO.P,J6,3,D+*%
%TO.N,unconnected-(J6-D+-Pad3)*%
X125111000Y-82205400D03*
%TO.P,J6,4,GND*%
%TO.N,GND*%
X122611000Y-82205400D03*
D19*
%TO.P,J6,5,Shield*%
X132511000Y-78505400D03*
X119711000Y-78505400D03*
%TD*%
D20*
%TO.P,J5,1,VBUS*%
%TO.N,Net-(J5-VBUS)*%
X110392600Y-73554800D03*
%TO.P,J5,2,D-*%
%TO.N,unconnected-(J5-D--Pad2)*%
X109742600Y-73554800D03*
%TO.P,J5,3,D+*%
%TO.N,unconnected-(J5-D+-Pad3)*%
X109092600Y-73554800D03*
%TO.P,J5,4,ID*%
%TO.N,GND*%
X108442600Y-73554800D03*
%TO.P,J5,5,GND*%
X107792600Y-73554800D03*
D21*
%TO.P,J5,6,Shield*%
X112392600Y-70879800D03*
D22*
X112292600Y-73329800D03*
D23*
X110292600Y-70879800D03*
X107892600Y-70879800D03*
D22*
X105892600Y-73329800D03*
D21*
X105792600Y-70879800D03*
%TD*%
D12*
%TO.P,R6,1*%
%TO.N,GND*%
X77010000Y-112050000D03*
%TO.P,R6,2*%
%TO.N,Net-(U2-CH4)*%
X82090000Y-112050000D03*
%TD*%
%TO.P,R8,1*%
%TO.N,GND*%
X77010000Y-118350000D03*
%TO.P,R8,2*%
%TO.N,Net-(U2-CH6)*%
X82090000Y-118350000D03*
%TD*%
%TO.P,R5,1*%
%TO.N,GND*%
X77010000Y-108900000D03*
%TO.P,R5,2*%
%TO.N,Net-(U2-CH3)*%
X82090000Y-108900000D03*
%TD*%
D10*
%TO.P,J8,1,Pin_1*%
%TO.N,Net-(J6-VBUS)*%
X129565000Y-90393200D03*
D11*
%TO.P,J8,2,Pin_2*%
%TO.N,GND*%
X129565000Y-92933200D03*
%TD*%
D12*
%TO.P,R3,1*%
%TO.N,GND*%
X76920000Y-102100000D03*
%TO.P,R3,2*%
%TO.N,Net-(U2-CH1)*%
X82000000Y-102100000D03*
%TD*%
%TO.P,R7,1*%
%TO.N,GND*%
X77010000Y-115200000D03*
%TO.P,R7,2*%
%TO.N,Net-(U2-CH5)*%
X82090000Y-115200000D03*
%TD*%
D24*
%TO.P,U3,1,VDD*%
%TO.N,+3.3V*%
X99750000Y-79880000D03*
D15*
%TO.P,U3,2,DATA*%
%TO.N,Net-(J1-~{CE1}{slash}GPIO7)*%
X99750000Y-82420000D03*
%TO.P,U3,3,NC*%
%TO.N,unconnected-(U3-NC-Pad3)*%
X99750000Y-84960000D03*
%TO.P,U3,4,GND*%
%TO.N,GND*%
X99750000Y-87500000D03*
%TD*%
D10*
%TO.P,J7,1,Pin_1*%
%TO.N,Net-(J5-VBUS)*%
X121666000Y-90424000D03*
D11*
%TO.P,J7,2,Pin_2*%
%TO.N,GND*%
X121666000Y-92964000D03*
%TD*%
D12*
%TO.P,R2,1*%
%TO.N,Net-(U2-CH0)*%
X61920000Y-131000000D03*
%TO.P,R2,2*%
%TO.N,GND*%
X67000000Y-131000000D03*
%TD*%
%TO.P,R12,1*%
%TO.N,Net-(J2-32K)*%
X110170000Y-83100000D03*
%TO.P,R12,2*%
%TO.N,GND*%
X115250000Y-83100000D03*
%TD*%
%TO.P,R13,1*%
%TO.N,Net-(J2-SQW)*%
X110170000Y-86250000D03*
%TO.P,R13,2*%
%TO.N,GND*%
X115250000Y-86250000D03*
%TD*%
D25*
%TO.N,GND*%
X43998622Y-93253446D03*
%TO.N,Net-(J1-PWM0{slash}GPIO12)*%
X54600000Y-123000000D03*
%TO.N,+3.3V*%
X49500000Y-100250000D03*
X100221000Y-121767600D03*
%TO.N,Net-(J1-GPIO18{slash}PWM0)*%
X50750000Y-90000000D03*
%TO.N,Net-(J1-GCLK1{slash}GPIO5)*%
X49750000Y-112500000D03*
%TO.N,Net-(J1-GPIO23)*%
X52803265Y-114396735D03*
%TO.N,Net-(J1-GPIO21{slash}SCLK1)*%
X49460900Y-125250000D03*
%TO.N,Net-(J1-GPIO19{slash}MISO1)*%
X67250000Y-91471000D03*
X60329000Y-102561000D03*
X65750000Y-103750000D03*
%TO.N,Net-(J1-GCLK2{slash}GPIO6)*%
X52203265Y-113796735D03*
%TD*%
D26*
%TO.N,GND*%
X69955760Y-90870000D02*
X76849000Y-83976760D01*
X79389000Y-82349000D02*
X80540000Y-83500000D01*
X76849000Y-83976760D02*
X76849000Y-83023240D01*
X43349000Y-95929000D02*
X43349000Y-93903068D01*
X107792600Y-73554800D02*
X108442600Y-73554800D01*
X62500000Y-91250000D02*
X62880000Y-90870000D01*
X77523240Y-82349000D02*
X79389000Y-82349000D01*
X43349000Y-93903068D02*
X43998622Y-93253446D01*
X76849000Y-83023240D02*
X77523240Y-82349000D01*
X62880000Y-90870000D02*
X69955760Y-90870000D01*
X44500000Y-97080000D02*
X43349000Y-95929000D01*
%TO.N,Net-(J1-SCLK0{slash}GPIO11)*%
X93002000Y-103802000D02*
X93002000Y-101348740D01*
X92451260Y-100798000D02*
X65652000Y-100798000D01*
X65652000Y-100798000D02*
X62500000Y-103950000D01*
X99120000Y-109920000D02*
X93002000Y-103802000D01*
X93002000Y-101348740D02*
X92451260Y-100798000D01*
%TO.N,Net-(J1-GCLK0{slash}GPIO4)*%
X84258000Y-132402000D02*
X54848561Y-132402000D01*
X50461900Y-118551000D02*
X44023240Y-118551000D01*
X50461900Y-128015339D02*
X50461900Y-118551000D01*
X99120000Y-117540000D02*
X84258000Y-132402000D01*
X54848561Y-132402000D02*
X50461900Y-128015339D01*
X45889000Y-100096760D02*
X45889000Y-90611000D01*
X44976760Y-101009000D02*
X45889000Y-100096760D01*
X42547000Y-117074760D02*
X42547000Y-102485240D01*
X45889000Y-90611000D02*
X47040000Y-89460000D01*
X42547000Y-102485240D02*
X44023240Y-101009000D01*
X44023240Y-118551000D02*
X42547000Y-117074760D01*
X44023240Y-101009000D02*
X44976760Y-101009000D01*
%TO.N,Net-(J1-PWM0{slash}GPIO12)*%
X62500000Y-116650000D02*
X56150000Y-123000000D01*
X56150000Y-123000000D02*
X54600000Y-123000000D01*
%TO.N,+5V*%
X73660000Y-90830400D02*
X75749600Y-90830400D01*
X75749600Y-90830400D02*
X83080000Y-83500000D01*
%TO.N,+3.3V*%
X44023240Y-106089000D02*
X44976760Y-106089000D01*
X98019000Y-105941000D02*
X99120000Y-104840000D01*
X54000000Y-116442000D02*
X51029000Y-113471000D01*
X98250000Y-84535661D02*
X99314661Y-83471000D01*
X54000000Y-129500000D02*
X54000000Y-116442000D01*
X51190057Y-88710000D02*
X49500000Y-90400057D01*
X51190057Y-85990057D02*
X51190057Y-88710000D01*
X100185339Y-83471000D02*
X100801000Y-82855339D01*
X44023240Y-113471000D02*
X43349000Y-112796760D01*
X100221000Y-121895240D02*
X100221000Y-121767600D01*
X98663950Y-108481000D02*
X98019000Y-107836050D01*
X43349000Y-106763240D02*
X44023240Y-106089000D01*
X49500000Y-90400057D02*
X49500000Y-100250000D01*
X99120000Y-102300000D02*
X98250000Y-101430000D01*
X98250000Y-101430000D02*
X98250000Y-84535661D01*
X100221000Y-121767600D02*
X100221000Y-121691400D01*
X100221000Y-109125950D02*
X99576050Y-108481000D01*
X51029000Y-113471000D02*
X44023240Y-113471000D01*
X99750000Y-79880000D02*
X71330000Y-79880000D01*
X100801000Y-82855339D02*
X100801000Y-80931000D01*
X98019000Y-107836050D02*
X98019000Y-105941000D01*
X99314661Y-83471000D02*
X100185339Y-83471000D01*
X100801000Y-80931000D02*
X99750000Y-79880000D01*
X71330000Y-79880000D02*
X62500000Y-88710000D01*
X45889000Y-103311000D02*
X47040000Y-102160000D01*
X43349000Y-112796760D02*
X43349000Y-106763240D01*
X44976760Y-106089000D02*
X45889000Y-105176760D01*
X99576050Y-108481000D02*
X98663950Y-108481000D01*
X100221000Y-121691400D02*
X100221000Y-109125950D01*
X47040000Y-81840000D02*
X51190057Y-85990057D01*
X45889000Y-105176760D02*
X45889000Y-103311000D01*
X62500000Y-88710000D02*
X51190057Y-88710000D01*
X99120000Y-104840000D02*
X99120000Y-102300000D01*
%TO.N,Net-(J1-GPIO18{slash}PWM0)*%
X66420000Y-90000000D02*
X50750000Y-90000000D01*
X72920000Y-83500000D02*
X66420000Y-90000000D01*
X50750000Y-90000000D02*
X50667760Y-90000000D01*
%TO.N,Net-(J1-GCLK1{slash}GPIO5)*%
X63651000Y-111093240D02*
X62976760Y-110419000D01*
X62976760Y-110419000D02*
X51831000Y-110419000D01*
X51831000Y-110419000D02*
X49750000Y-112500000D01*
X62500000Y-114110000D02*
X63651000Y-112959000D01*
X63651000Y-112959000D02*
X63651000Y-111093240D01*
%TO.N,Net-(J1-MISO0{slash}GPIO9)*%
X92601000Y-101514840D02*
X92285160Y-101199000D01*
X88051000Y-101199000D02*
X81351000Y-107899000D01*
X63631000Y-107899000D02*
X62500000Y-109030000D01*
X47349000Y-107549000D02*
X47040000Y-107240000D01*
X99120000Y-112460000D02*
X92601000Y-105941000D01*
X92601000Y-105941000D02*
X92601000Y-101514840D01*
X60710000Y-107240000D02*
X47040000Y-107240000D01*
X92285160Y-101199000D02*
X88051000Y-101199000D01*
X81351000Y-107899000D02*
X63631000Y-107899000D01*
X62500000Y-109030000D02*
X60710000Y-107240000D01*
%TO.N,Net-(J1-SCL{slash}GPIO3)*%
X47749000Y-78829000D02*
X45750000Y-80828000D01*
X116002200Y-132035000D02*
X101269800Y-117302600D01*
X45750000Y-80828000D02*
X45750000Y-85630000D01*
X101269800Y-117302600D02*
X101269800Y-79297800D01*
X100801000Y-78829000D02*
X47749000Y-78829000D01*
X45750000Y-85630000D02*
X47040000Y-86920000D01*
X101269800Y-79297800D02*
X100801000Y-78829000D01*
%TO.N,Net-(J1-GPIO23)*%
X53905530Y-115499000D02*
X52803265Y-114396735D01*
X62500000Y-119190000D02*
X63651000Y-118039000D01*
X62976760Y-115499000D02*
X53905530Y-115499000D01*
X63651000Y-118039000D02*
X63651000Y-116173240D01*
X63651000Y-116173240D02*
X62976760Y-115499000D01*
%TO.N,Net-(J1-GPIO21{slash}SCLK1)*%
X49460900Y-127004860D02*
X47516760Y-128949000D01*
X47516760Y-128949000D02*
X45651000Y-128949000D01*
X45651000Y-128949000D02*
X44500000Y-130100000D01*
X49460900Y-125250000D02*
X49460900Y-127004860D01*
%TO.N,Net-(J1-GPIO19{slash}MISO1)*%
X78000000Y-83500000D02*
X70029000Y-91471000D01*
X62261240Y-105339000D02*
X60329000Y-103406760D01*
X65750000Y-103750000D02*
X64161000Y-105339000D01*
X64161000Y-105339000D02*
X62261240Y-105339000D01*
X60329000Y-103406760D02*
X60329000Y-102561000D01*
X70029000Y-91471000D02*
X67250000Y-91471000D01*
%TO.N,Net-(J1-GCLK2{slash}GPIO6)*%
X62500000Y-111570000D02*
X60273265Y-113796735D01*
X60273265Y-113796735D02*
X52203265Y-113796735D01*
%TO.N,Net-(J1-MOSI0{slash}GPIO10)*%
X45889000Y-101683240D02*
X46563240Y-101009000D01*
X46563240Y-101009000D02*
X47516760Y-101009000D01*
X52949000Y-116063900D02*
X44076140Y-116063900D01*
X82119000Y-132001000D02*
X55014661Y-132001000D01*
X42948000Y-114935760D02*
X42948000Y-104624240D01*
X48191000Y-101683240D02*
X48191000Y-103549000D01*
X47516760Y-101009000D02*
X48191000Y-101683240D01*
X55014661Y-132001000D02*
X52949000Y-129935339D01*
X42948000Y-104624240D02*
X44023240Y-103549000D01*
X44023240Y-103549000D02*
X44976760Y-103549000D01*
X45889000Y-102636760D02*
X45889000Y-101683240D01*
X99120000Y-115000000D02*
X82119000Y-132001000D01*
X48191000Y-103549000D02*
X47040000Y-104700000D01*
X52949000Y-129935339D02*
X52949000Y-116063900D01*
X44976760Y-103549000D02*
X45889000Y-102636760D01*
X44076140Y-116063900D02*
X42948000Y-114935760D01*
%TO.N,Net-(J1-SDA{slash}GPIO2)*%
X50060900Y-123230000D02*
X47921900Y-121091000D01*
X46801240Y-88071000D02*
X47516760Y-88071000D01*
X44023240Y-121091000D02*
X42146000Y-119213760D01*
X47921900Y-121091000D02*
X44023240Y-121091000D01*
X44976760Y-90849000D02*
X45889000Y-89936760D01*
X45889000Y-88983240D02*
X46801240Y-88071000D01*
X48191000Y-85531000D02*
X47040000Y-84380000D01*
X112311200Y-133186000D02*
X55065461Y-133186000D01*
X45889000Y-89936760D02*
X45889000Y-88983240D01*
X55065461Y-133186000D02*
X50060900Y-128181439D01*
X113462200Y-132035000D02*
X112311200Y-133186000D01*
X42146000Y-119213760D02*
X42146000Y-92726240D01*
X50060900Y-128181439D02*
X50060900Y-123230000D01*
X48191000Y-87396760D02*
X48191000Y-85531000D01*
X42146000Y-92726240D02*
X44023240Y-90849000D01*
X47516760Y-88071000D02*
X48191000Y-87396760D01*
X44023240Y-90849000D02*
X44976760Y-90849000D01*
%TO.N,Net-(U2-CH0)*%
X79794372Y-111000000D02*
X61920000Y-128874372D01*
X57400000Y-129500000D02*
X60420000Y-129500000D01*
X61920000Y-128874372D02*
X61920000Y-131000000D01*
X82800000Y-111000000D02*
X79794372Y-111000000D01*
X60420000Y-129500000D02*
X61920000Y-131000000D01*
X91500000Y-102300000D02*
X82800000Y-111000000D01*
%TO.N,Net-(U2-CH4)*%
X91500000Y-112460000D02*
X82500000Y-112460000D01*
X82500000Y-112460000D02*
X82090000Y-112050000D01*
%TO.N,Net-(U2-CH5)*%
X91500000Y-115000000D02*
X82290000Y-115000000D01*
X82290000Y-115000000D02*
X82090000Y-115200000D01*
%TO.N,Net-(U2-CH6)*%
X82900000Y-117540000D02*
X82090000Y-118350000D01*
X91500000Y-117540000D02*
X82900000Y-117540000D01*
%TO.N,Net-(U2-CH7)*%
X83510000Y-120080000D02*
X82090000Y-121500000D01*
X91500000Y-120080000D02*
X83510000Y-120080000D01*
%TO.N,Net-(J1-~{CE1}{slash}GPIO7)*%
X46563240Y-106089000D02*
X47411000Y-106089000D01*
X45651000Y-107001240D02*
X46563240Y-106089000D01*
X45651000Y-111169000D02*
X45651000Y-107001240D01*
X47411000Y-106089000D02*
X61429000Y-92071000D01*
X44500000Y-112320000D02*
X45651000Y-111169000D01*
X61759000Y-92401000D02*
X89769000Y-92401000D01*
X89769000Y-92401000D02*
X99750000Y-82420000D01*
X61429000Y-92071000D02*
X61759000Y-92401000D01*
%TO.N,Net-(J2-SQW)*%
X118542200Y-132035000D02*
X110170000Y-123662800D01*
X110170000Y-123662800D02*
X110170000Y-86250000D01*
%TO.N,Net-(J2-32K)*%
X121082200Y-94012200D02*
X110170000Y-83100000D01*
X121082200Y-132035000D02*
X121082200Y-94012200D01*
%TO.N,Net-(J5-VBUS)*%
X110392600Y-73554800D02*
X110392600Y-79658228D01*
X121158372Y-90424000D02*
X121666000Y-90424000D01*
X110392600Y-79658228D02*
X121158372Y-90424000D01*
%TO.N,Net-(J6-VBUS)*%
X129565000Y-90393200D02*
X129565000Y-82251400D01*
X129565000Y-82251400D02*
X129611000Y-82205400D01*
%TO.N,Net-(D1-A)*%
X89535000Y-85115400D02*
X89535000Y-84886800D01*
X83820000Y-90830400D02*
X89535000Y-85115400D01*
%TD*%
%TA.AperFunction,Conductor*%
%TO.N,GND*%
G36*
X105281366Y-69520185D02*
G01*
X105327121Y-69572989D01*
X105337065Y-69642147D01*
X105308040Y-69705703D01*
X105283218Y-69727602D01*
X105187010Y-69791886D01*
X105187006Y-69791889D01*
X105054689Y-69924206D01*
X105054686Y-69924210D01*
X104950724Y-70079799D01*
X104950719Y-70079808D01*
X104879108Y-70252694D01*
X104879106Y-70252702D01*
X104842600Y-70436228D01*
X104842600Y-70629800D01*
X105542600Y-70629800D01*
X105542600Y-71129800D01*
X104842600Y-71129800D01*
X104842600Y-71323371D01*
X104879106Y-71506897D01*
X104879108Y-71506905D01*
X104950719Y-71679791D01*
X104950724Y-71679800D01*
X105054686Y-71835389D01*
X105054689Y-71835393D01*
X105175204Y-71955908D01*
X105208689Y-72017231D01*
X105203705Y-72086923D01*
X105161833Y-72142856D01*
X105126527Y-72161295D01*
X105023480Y-72195441D01*
X105023475Y-72195443D01*
X104874254Y-72287484D01*
X104750284Y-72411454D01*
X104658243Y-72560675D01*
X104658241Y-72560680D01*
X104603094Y-72727102D01*
X104603093Y-72727109D01*
X104592600Y-72829813D01*
X104592600Y-73079800D01*
X105642600Y-73079800D01*
X105642600Y-72309800D01*
X105632623Y-72299823D01*
X105599561Y-72290115D01*
X105553806Y-72237311D01*
X105542600Y-72185800D01*
X105542600Y-71279528D01*
X105580660Y-71371414D01*
X105650986Y-71441740D01*
X105742872Y-71479800D01*
X105842328Y-71479800D01*
X105934214Y-71441740D01*
X106004540Y-71371414D01*
X106042600Y-71279528D01*
X106042600Y-71999800D01*
X106052576Y-72009776D01*
X106085639Y-72019485D01*
X106131394Y-72072289D01*
X106142600Y-72123800D01*
X106142600Y-74529799D01*
X106492572Y-74529799D01*
X106492586Y-74529798D01*
X106595297Y-74519305D01*
X106761719Y-74464158D01*
X106761724Y-74464156D01*
X106910944Y-74372115D01*
X106944186Y-74338874D01*
X107005508Y-74305388D01*
X107075200Y-74310372D01*
X107131134Y-74352242D01*
X107146429Y-74379102D01*
X107168499Y-74432386D01*
X107264675Y-74557724D01*
X107390014Y-74653900D01*
X107535966Y-74714355D01*
X107535972Y-74714357D01*
X107592598Y-74721811D01*
X107592600Y-74721810D01*
X107592600Y-72351162D01*
X107612285Y-72284123D01*
X107628919Y-72263481D01*
X107642600Y-72249800D01*
X107642600Y-71129800D01*
X106042600Y-71129800D01*
X106042600Y-70629800D01*
X112142600Y-70629800D01*
X112142600Y-71129800D01*
X108142600Y-71129800D01*
X108142600Y-72335800D01*
X108122915Y-72402839D01*
X108070111Y-72448594D01*
X108018600Y-72459800D01*
X107992600Y-72459800D01*
X107992600Y-74721810D01*
X107992601Y-74721811D01*
X108049222Y-74714358D01*
X108049231Y-74714355D01*
X108070147Y-74705692D01*
X108139617Y-74698223D01*
X108165053Y-74705692D01*
X108185968Y-74714355D01*
X108185977Y-74714358D01*
X108242598Y-74721811D01*
X108242600Y-74721810D01*
X108242600Y-74504102D01*
X108250034Y-74478782D01*
X108253774Y-74452661D01*
X108259723Y-74445786D01*
X108262285Y-74437063D01*
X108282225Y-74419784D01*
X108299496Y-74399828D01*
X108308219Y-74397260D01*
X108315089Y-74391308D01*
X108341206Y-74387552D01*
X108366523Y-74380102D01*
X108375247Y-74382657D01*
X108384247Y-74381364D01*
X108408251Y-74392326D01*
X108433575Y-74399745D01*
X108442535Y-74407983D01*
X108447803Y-74410389D01*
X108460262Y-74422841D01*
X108467424Y-74431096D01*
X108468064Y-74432641D01*
X108564318Y-74558082D01*
X108604041Y-74588562D01*
X108612262Y-74598038D01*
X108621785Y-74618856D01*
X108635288Y-74637348D01*
X108638392Y-74655161D01*
X108641327Y-74661576D01*
X108640508Y-74667296D01*
X108642600Y-74679299D01*
X108642600Y-74721810D01*
X108699231Y-74714355D01*
X108719487Y-74705965D01*
X108788956Y-74698493D01*
X108814398Y-74705963D01*
X108835838Y-74714844D01*
X108953239Y-74730300D01*
X109231960Y-74730299D01*
X109231961Y-74730299D01*
X109244194Y-74728688D01*
X109349362Y-74714844D01*
X109370145Y-74706234D01*
X109439614Y-74698765D01*
X109465053Y-74706234D01*
X109485838Y-74714844D01*
X109603239Y-74730300D01*
X109668100Y-74730299D01*
X109735138Y-74749983D01*
X109780894Y-74802786D01*
X109792100Y-74854299D01*
X109792100Y-79571558D01*
X109792099Y-79571576D01*
X109792099Y-79737282D01*
X109792098Y-79737282D01*
X109792099Y-79737285D01*
X109833023Y-79890013D01*
X109837804Y-79898293D01*
X109837806Y-79898302D01*
X109837809Y-79898301D01*
X109857219Y-79931921D01*
X109912079Y-80026942D01*
X109912081Y-80026945D01*
X110030949Y-80145813D01*
X110030955Y-80145818D01*
X114823488Y-84938352D01*
X114856973Y-84999675D01*
X114851989Y-85069367D01*
X114810117Y-85125300D01*
X114792103Y-85136517D01*
X114621063Y-85223668D01*
X114595670Y-85242116D01*
X114595669Y-85242116D01*
X115253554Y-85900000D01*
X115203922Y-85900000D01*
X115114905Y-85923852D01*
X115035095Y-85969930D01*
X114969930Y-86035095D01*
X114923852Y-86114905D01*
X114900000Y-86203922D01*
X114900000Y-86253553D01*
X114242116Y-85595669D01*
X114242116Y-85595670D01*
X114223669Y-85621060D01*
X114137914Y-85789363D01*
X114095159Y-85920949D01*
X114055721Y-85978625D01*
X113991363Y-86005823D01*
X113922516Y-85993908D01*
X113889547Y-85970312D01*
X111380066Y-83460831D01*
X111346581Y-83399508D01*
X111345274Y-83353752D01*
X111370500Y-83194486D01*
X111370500Y-83005513D01*
X111340940Y-82818881D01*
X111308743Y-82719792D01*
X111282547Y-82639168D01*
X111282545Y-82639165D01*
X111282545Y-82639163D01*
X111196893Y-82471063D01*
X111196760Y-82470801D01*
X111085690Y-82317927D01*
X110952073Y-82184310D01*
X110799199Y-82073240D01*
X110630836Y-81987454D01*
X110451118Y-81929059D01*
X110264486Y-81899500D01*
X110264481Y-81899500D01*
X110075519Y-81899500D01*
X110075514Y-81899500D01*
X109888881Y-81929059D01*
X109709163Y-81987454D01*
X109540800Y-82073240D01*
X109453579Y-82136610D01*
X109387927Y-82184310D01*
X109387925Y-82184312D01*
X109387924Y-82184312D01*
X109254312Y-82317924D01*
X109254312Y-82317925D01*
X109254310Y-82317927D01*
X109210967Y-82377583D01*
X109143240Y-82470800D01*
X109057454Y-82639163D01*
X108999059Y-82818881D01*
X108969500Y-83005513D01*
X108969500Y-83194486D01*
X108999059Y-83381118D01*
X109057454Y-83560836D01*
X109117791Y-83679252D01*
X109143240Y-83729199D01*
X109254310Y-83882073D01*
X109387927Y-84015690D01*
X109540801Y-84126760D01*
X109605709Y-84159832D01*
X109709163Y-84212545D01*
X109709165Y-84212545D01*
X109709168Y-84212547D01*
X109789920Y-84238785D01*
X109888881Y-84270940D01*
X110075514Y-84300500D01*
X110075519Y-84300500D01*
X110264486Y-84300500D01*
X110381017Y-84282042D01*
X110423753Y-84275274D01*
X110493045Y-84284228D01*
X110530831Y-84310066D01*
X120445381Y-94224616D01*
X120478866Y-94285939D01*
X120481700Y-94312297D01*
X120481700Y-130560500D01*
X120462015Y-130627539D01*
X120409211Y-130673294D01*
X120357701Y-130684500D01*
X120184330Y-130684500D01*
X120184323Y-130684501D01*
X120124716Y-130690908D01*
X119989871Y-130741202D01*
X119989864Y-130741206D01*
X119874655Y-130827452D01*
X119874652Y-130827455D01*
X119788406Y-130942664D01*
X119788403Y-130942669D01*
X119739389Y-131074083D01*
X119697517Y-131130016D01*
X119632053Y-131154433D01*
X119563780Y-131139581D01*
X119535526Y-131118430D01*
X119421986Y-131004890D01*
X119250020Y-130879951D01*
X119060614Y-130783444D01*
X119060613Y-130783443D01*
X119060612Y-130783443D01*
X118858443Y-130717754D01*
X118858441Y-130717753D01*
X118858440Y-130717753D01*
X118697157Y-130692208D01*
X118648487Y-130684500D01*
X118435913Y-130684500D01*
X118412249Y-130688248D01*
X118225957Y-130717753D01*
X118183673Y-130731492D01*
X118113832Y-130733486D01*
X118057676Y-130701241D01*
X110806819Y-123450383D01*
X110773334Y-123389060D01*
X110770500Y-123362702D01*
X110770500Y-87360791D01*
X110790185Y-87293752D01*
X110821612Y-87260475D01*
X110952073Y-87165690D01*
X111085690Y-87032073D01*
X111196760Y-86879199D01*
X111282547Y-86710832D01*
X111340940Y-86531118D01*
X111351427Y-86464905D01*
X111370500Y-86344486D01*
X111370500Y-86155513D01*
X111340940Y-85968881D01*
X111289047Y-85809174D01*
X111282547Y-85789168D01*
X111282545Y-85789165D01*
X111282545Y-85789163D01*
X111197035Y-85621341D01*
X111196760Y-85620801D01*
X111085690Y-85467927D01*
X110952073Y-85334310D01*
X110799199Y-85223240D01*
X110630836Y-85137454D01*
X110451118Y-85079059D01*
X110264486Y-85049500D01*
X110264481Y-85049500D01*
X110075519Y-85049500D01*
X110075514Y-85049500D01*
X109888881Y-85079059D01*
X109709163Y-85137454D01*
X109540800Y-85223240D01*
X109453579Y-85286610D01*
X109387927Y-85334310D01*
X109387925Y-85334312D01*
X109387924Y-85334312D01*
X109254312Y-85467924D01*
X109254312Y-85467925D01*
X109254310Y-85467927D01*
X109206610Y-85533579D01*
X109143240Y-85620800D01*
X109057454Y-85789163D01*
X108999059Y-85968881D01*
X108969500Y-86155513D01*
X108969500Y-86344486D01*
X108999059Y-86531118D01*
X109057454Y-86710836D01*
X109130489Y-86854174D01*
X109143240Y-86879199D01*
X109254310Y-87032073D01*
X109387927Y-87165690D01*
X109518386Y-87260474D01*
X109561051Y-87315803D01*
X109569500Y-87360791D01*
X109569500Y-123576130D01*
X109569499Y-123576148D01*
X109569499Y-123741854D01*
X109569498Y-123741854D01*
X109610423Y-123894585D01*
X109639358Y-123944700D01*
X109639359Y-123944704D01*
X109639360Y-123944704D01*
X109689479Y-124031514D01*
X109689481Y-124031517D01*
X109808349Y-124150385D01*
X109808355Y-124150390D01*
X116130783Y-130472819D01*
X116164268Y-130534142D01*
X116159284Y-130603834D01*
X116117412Y-130659767D01*
X116051948Y-130684184D01*
X116043102Y-130684500D01*
X115895913Y-130684500D01*
X115872249Y-130688248D01*
X115685957Y-130717753D01*
X115643673Y-130731492D01*
X115573832Y-130733486D01*
X115517676Y-130701241D01*
X101906619Y-117090184D01*
X101873134Y-117028861D01*
X101870300Y-117002503D01*
X101870300Y-79218743D01*
X101870299Y-79218740D01*
X101860063Y-79180537D01*
X101860063Y-79180536D01*
X101829377Y-79066015D01*
X101829375Y-79066011D01*
X101779427Y-78979499D01*
X101779426Y-78979498D01*
X101750321Y-78929086D01*
X101750320Y-78929084D01*
X101638516Y-78817280D01*
X101638515Y-78817279D01*
X101634185Y-78812949D01*
X101634174Y-78812939D01*
X101288590Y-78467355D01*
X101288588Y-78467352D01*
X101169717Y-78348481D01*
X101169716Y-78348480D01*
X101082904Y-78298360D01*
X101082904Y-78298359D01*
X101082900Y-78298358D01*
X101032785Y-78269423D01*
X100880057Y-78228499D01*
X100721943Y-78228499D01*
X100714347Y-78228499D01*
X100714331Y-78228500D01*
X47835669Y-78228500D01*
X47835653Y-78228499D01*
X47828057Y-78228499D01*
X47669943Y-78228499D01*
X47562587Y-78257265D01*
X47517210Y-78269424D01*
X47517209Y-78269425D01*
X47467096Y-78298359D01*
X47467095Y-78298360D01*
X47423689Y-78323420D01*
X47380285Y-78348479D01*
X47380282Y-78348481D01*
X45269481Y-80459282D01*
X45269477Y-80459287D01*
X45248336Y-80495907D01*
X45248334Y-80495911D01*
X45213625Y-80556026D01*
X45163057Y-80604241D01*
X45094450Y-80617462D01*
X45049946Y-80604510D01*
X45018415Y-80588444D01*
X45018409Y-80588442D01*
X44909296Y-80552989D01*
X44816243Y-80522754D01*
X44816241Y-80522753D01*
X44816240Y-80522753D01*
X44646764Y-80495911D01*
X44606287Y-80489500D01*
X44393713Y-80489500D01*
X44353236Y-80495911D01*
X44183760Y-80522753D01*
X43981585Y-80588444D01*
X43792179Y-80684951D01*
X43620213Y-80809890D01*
X43469890Y-80960213D01*
X43344951Y-81132179D01*
X43248444Y-81321585D01*
X43182753Y-81523760D01*
X43169830Y-81605354D01*
X43149500Y-81733713D01*
X43149500Y-81946287D01*
X43156020Y-81987453D01*
X43178149Y-82127173D01*
X43182754Y-82156243D01*
X43244069Y-82344951D01*
X43248444Y-82358414D01*
X43344951Y-82547820D01*
X43469890Y-82719786D01*
X43620213Y-82870109D01*
X43792182Y-82995050D01*
X43800946Y-82999516D01*
X43851742Y-83047491D01*
X43868536Y-83115312D01*
X43845998Y-83181447D01*
X43800946Y-83220484D01*
X43792182Y-83224949D01*
X43620213Y-83349890D01*
X43469890Y-83500213D01*
X43344951Y-83672179D01*
X43248444Y-83861585D01*
X43182753Y-84063760D01*
X43149500Y-84273713D01*
X43149500Y-84486286D01*
X43182753Y-84696239D01*
X43182753Y-84696241D01*
X43182754Y-84696243D01*
X43239271Y-84870185D01*
X43248444Y-84898414D01*
X43344951Y-85087820D01*
X43469890Y-85259786D01*
X43620213Y-85410109D01*
X43792179Y-85535048D01*
X43792181Y-85535049D01*
X43792184Y-85535051D01*
X43801493Y-85539794D01*
X43852290Y-85587766D01*
X43869087Y-85655587D01*
X43846552Y-85721722D01*
X43801505Y-85760760D01*
X43792446Y-85765376D01*
X43792440Y-85765380D01*
X43738282Y-85804727D01*
X43738282Y-85804728D01*
X44370591Y-86437037D01*
X44307007Y-86454075D01*
X44192993Y-86519901D01*
X44099901Y-86612993D01*
X44034075Y-86727007D01*
X44017037Y-86790591D01*
X43384728Y-86158282D01*
X43384727Y-86158282D01*
X43345380Y-86212439D01*
X43248904Y-86401782D01*
X43183242Y-86603869D01*
X43183242Y-86603872D01*
X43150000Y-86813753D01*
X43150000Y-87026246D01*
X43183242Y-87236127D01*
X43183242Y-87236130D01*
X43248904Y-87438217D01*
X43345375Y-87627550D01*
X43384728Y-87681716D01*
X44017037Y-87049408D01*
X44034075Y-87112993D01*
X44099901Y-87227007D01*
X44192993Y-87320099D01*
X44307007Y-87385925D01*
X44370590Y-87402962D01*
X43738282Y-88035269D01*
X43738282Y-88035270D01*
X43792452Y-88074626D01*
X43792451Y-88074626D01*
X43801495Y-88079234D01*
X43852292Y-88127208D01*
X43869087Y-88195029D01*
X43846550Y-88261164D01*
X43801499Y-88300202D01*
X43792182Y-88304949D01*
X43620213Y-88429890D01*
X43469890Y-88580213D01*
X43344951Y-88752179D01*
X43248444Y-88941585D01*
X43182753Y-89143760D01*
X43149500Y-89353713D01*
X43149500Y-89566286D01*
X43180553Y-89762350D01*
X43182754Y-89776243D01*
X43244460Y-89966155D01*
X43248444Y-89978414D01*
X43344951Y-90167820D01*
X43469890Y-90339786D01*
X43488873Y-90358769D01*
X43522358Y-90420092D01*
X43517374Y-90489784D01*
X43488873Y-90534131D01*
X41665481Y-92357522D01*
X41665479Y-92357525D01*
X41618153Y-92439498D01*
X41618152Y-92439499D01*
X41586423Y-92494454D01*
X41586423Y-92494455D01*
X41545499Y-92647183D01*
X41545499Y-92805297D01*
X41545499Y-92805299D01*
X41545500Y-92815293D01*
X41545500Y-119127090D01*
X41545499Y-119127108D01*
X41545499Y-119292814D01*
X41545498Y-119292814D01*
X41586424Y-119445549D01*
X41586425Y-119445550D01*
X41606026Y-119479499D01*
X41606027Y-119479500D01*
X41665477Y-119582472D01*
X41665481Y-119582477D01*
X41784349Y-119701345D01*
X41784355Y-119701350D01*
X43538379Y-121455374D01*
X43538389Y-121455385D01*
X43542719Y-121459715D01*
X43542720Y-121459716D01*
X43654524Y-121571520D01*
X43694294Y-121594481D01*
X43704214Y-121600208D01*
X43704213Y-121600208D01*
X43704216Y-121600209D01*
X43791449Y-121650574D01*
X43791450Y-121650574D01*
X43791455Y-121650577D01*
X43944182Y-121691500D01*
X43944183Y-121691500D01*
X44013692Y-121691500D01*
X44080731Y-121711185D01*
X44101373Y-121727819D01*
X44370591Y-121997037D01*
X44307007Y-122014075D01*
X44192993Y-122079901D01*
X44099901Y-122172993D01*
X44034075Y-122287007D01*
X44017037Y-122350591D01*
X43384728Y-121718282D01*
X43384727Y-121718282D01*
X43345380Y-121772439D01*
X43248904Y-121961782D01*
X43183242Y-122163869D01*
X43183242Y-122163872D01*
X43150000Y-122373753D01*
X43150000Y-122586246D01*
X43183242Y-122796127D01*
X43183242Y-122796130D01*
X43248904Y-122998217D01*
X43345375Y-123187550D01*
X43384728Y-123241716D01*
X44017037Y-122609408D01*
X44034075Y-122672993D01*
X44099901Y-122787007D01*
X44192993Y-122880099D01*
X44307007Y-122945925D01*
X44370590Y-122962962D01*
X43738282Y-123595269D01*
X43738282Y-123595270D01*
X43792452Y-123634626D01*
X43792451Y-123634626D01*
X43801495Y-123639234D01*
X43852292Y-123687208D01*
X43869087Y-123755029D01*
X43846550Y-123821164D01*
X43801499Y-123860202D01*
X43792182Y-123864949D01*
X43620213Y-123989890D01*
X43469890Y-124140213D01*
X43344951Y-124312179D01*
X43248444Y-124501585D01*
X43182753Y-124703760D01*
X43149500Y-124913713D01*
X43149500Y-125126286D01*
X43181581Y-125328842D01*
X43182754Y-125336243D01*
X43230601Y-125483501D01*
X43248444Y-125538414D01*
X43344951Y-125727820D01*
X43469890Y-125899786D01*
X43620213Y-126050109D01*
X43792182Y-126175050D01*
X43800946Y-126179516D01*
X43851742Y-126227491D01*
X43868536Y-126295312D01*
X43845998Y-126361447D01*
X43800946Y-126400484D01*
X43792182Y-126404949D01*
X43620213Y-126529890D01*
X43469890Y-126680213D01*
X43344951Y-126852179D01*
X43248444Y-127041585D01*
X43182753Y-127243760D01*
X43149500Y-127453713D01*
X43149500Y-127666287D01*
X43182754Y-127876243D01*
X43235239Y-128037775D01*
X43248444Y-128078414D01*
X43344951Y-128267820D01*
X43469890Y-128439786D01*
X43620213Y-128590109D01*
X43792182Y-128715050D01*
X43800946Y-128719516D01*
X43851742Y-128767491D01*
X43868536Y-128835312D01*
X43845998Y-128901447D01*
X43800946Y-128940484D01*
X43792182Y-128944949D01*
X43620213Y-129069890D01*
X43469890Y-129220213D01*
X43344951Y-129392179D01*
X43248444Y-129581585D01*
X43182753Y-129783760D01*
X43149500Y-129993713D01*
X43149500Y-130206286D01*
X43182735Y-130416127D01*
X43182754Y-130416243D01*
X43246363Y-130612011D01*
X43248444Y-130618414D01*
X43344951Y-130807820D01*
X43469890Y-130979786D01*
X43620213Y-131130109D01*
X43792179Y-131255048D01*
X43792181Y-131255049D01*
X43792184Y-131255051D01*
X43981588Y-131351557D01*
X44183757Y-131417246D01*
X44393713Y-131450500D01*
X44393714Y-131450500D01*
X44606286Y-131450500D01*
X44606287Y-131450500D01*
X44816243Y-131417246D01*
X45018412Y-131351557D01*
X45207816Y-131255051D01*
X45263073Y-131214905D01*
X45379786Y-131130109D01*
X45379788Y-131130106D01*
X45379792Y-131130104D01*
X45530104Y-130979792D01*
X45530106Y-130979788D01*
X45530109Y-130979786D01*
X45597515Y-130887007D01*
X45655051Y-130807816D01*
X45659793Y-130798508D01*
X45707763Y-130747711D01*
X45775583Y-130730911D01*
X45841719Y-130753445D01*
X45880763Y-130798500D01*
X45885373Y-130807547D01*
X45924728Y-130861716D01*
X46557036Y-130229407D01*
X46574075Y-130292993D01*
X46639901Y-130407007D01*
X46732993Y-130500099D01*
X46847007Y-130565925D01*
X46910590Y-130582962D01*
X46278282Y-131215269D01*
X46278282Y-131215270D01*
X46332449Y-131254624D01*
X46521782Y-131351095D01*
X46723870Y-131416757D01*
X46933754Y-131450000D01*
X47146246Y-131450000D01*
X47356127Y-131416757D01*
X47356130Y-131416757D01*
X47558217Y-131351095D01*
X47747554Y-131254622D01*
X47801716Y-131215270D01*
X47801717Y-131215270D01*
X47169408Y-130582962D01*
X47232993Y-130565925D01*
X47347007Y-130500099D01*
X47440099Y-130407007D01*
X47505925Y-130292993D01*
X47522962Y-130229409D01*
X48155270Y-130861717D01*
X48155270Y-130861716D01*
X48194622Y-130807554D01*
X48291095Y-130618217D01*
X48356757Y-130416130D01*
X48356757Y-130416127D01*
X48390000Y-130206246D01*
X48390000Y-129993753D01*
X48356757Y-129783872D01*
X48356757Y-129783869D01*
X48291095Y-129581782D01*
X48194620Y-129392442D01*
X48142381Y-129320540D01*
X48118901Y-129254734D01*
X48134727Y-129186680D01*
X48155011Y-129159982D01*
X49248719Y-128066274D01*
X49310041Y-128032791D01*
X49379733Y-128037775D01*
X49435666Y-128079647D01*
X49460083Y-128145111D01*
X49460399Y-128153957D01*
X49460399Y-128260493D01*
X49460398Y-128260493D01*
X49460399Y-128260496D01*
X49501323Y-128413224D01*
X49516662Y-128439792D01*
X49530258Y-128463339D01*
X49530259Y-128463343D01*
X49530260Y-128463343D01*
X49578080Y-128546172D01*
X49580379Y-128550153D01*
X49580381Y-128550156D01*
X49699249Y-128669024D01*
X49699255Y-128669029D01*
X54580600Y-133550374D01*
X54580610Y-133550385D01*
X54584940Y-133554715D01*
X54584941Y-133554716D01*
X54696745Y-133666520D01*
X54783556Y-133716639D01*
X54783558Y-133716641D01*
X54821612Y-133738611D01*
X54833676Y-133745577D01*
X54986404Y-133786501D01*
X54986407Y-133786501D01*
X55152114Y-133786501D01*
X55152130Y-133786500D01*
X112224531Y-133786500D01*
X112224547Y-133786501D01*
X112232143Y-133786501D01*
X112390254Y-133786501D01*
X112390257Y-133786501D01*
X112542985Y-133745577D01*
X112593104Y-133716639D01*
X112679916Y-133666520D01*
X112791720Y-133554716D01*
X112791720Y-133554714D01*
X112801928Y-133544507D01*
X112801930Y-133544504D01*
X112977678Y-133368755D01*
X113038999Y-133335272D01*
X113103673Y-133338506D01*
X113145957Y-133352246D01*
X113355913Y-133385500D01*
X113355914Y-133385500D01*
X113568486Y-133385500D01*
X113568487Y-133385500D01*
X113778443Y-133352246D01*
X113980612Y-133286557D01*
X114170016Y-133190051D01*
X114256338Y-133127335D01*
X114341986Y-133065109D01*
X114341988Y-133065106D01*
X114341992Y-133065104D01*
X114492304Y-132914792D01*
X114492306Y-132914788D01*
X114492309Y-132914786D01*
X114617248Y-132742820D01*
X114617247Y-132742820D01*
X114617251Y-132742816D01*
X114621714Y-132734054D01*
X114669688Y-132683259D01*
X114737508Y-132666463D01*
X114803644Y-132688999D01*
X114842686Y-132734056D01*
X114847151Y-132742820D01*
X114972090Y-132914786D01*
X115122413Y-133065109D01*
X115294379Y-133190048D01*
X115294381Y-133190049D01*
X115294384Y-133190051D01*
X115483788Y-133286557D01*
X115685957Y-133352246D01*
X115895913Y-133385500D01*
X115895914Y-133385500D01*
X116108486Y-133385500D01*
X116108487Y-133385500D01*
X116318443Y-133352246D01*
X116520612Y-133286557D01*
X116710016Y-133190051D01*
X116796338Y-133127335D01*
X116881986Y-133065109D01*
X116881988Y-133065106D01*
X116881992Y-133065104D01*
X117032304Y-132914792D01*
X117032306Y-132914788D01*
X117032309Y-132914786D01*
X117157248Y-132742820D01*
X117157247Y-132742820D01*
X117157251Y-132742816D01*
X117161714Y-132734054D01*
X117209688Y-132683259D01*
X117277508Y-132666463D01*
X117343644Y-132688999D01*
X117382686Y-132734056D01*
X117387151Y-132742820D01*
X117512090Y-132914786D01*
X117662413Y-133065109D01*
X117834379Y-133190048D01*
X117834381Y-133190049D01*
X117834384Y-133190051D01*
X118023788Y-133286557D01*
X118225957Y-133352246D01*
X118435913Y-133385500D01*
X118435914Y-133385500D01*
X118648486Y-133385500D01*
X118648487Y-133385500D01*
X118858443Y-133352246D01*
X119060612Y-133286557D01*
X119250016Y-133190051D01*
X119421992Y-133065104D01*
X119535529Y-132951566D01*
X119596848Y-132918084D01*
X119666540Y-132923068D01*
X119722474Y-132964939D01*
X119739389Y-132995917D01*
X119788402Y-133127328D01*
X119788406Y-133127335D01*
X119874652Y-133242544D01*
X119874655Y-133242547D01*
X119989864Y-133328793D01*
X119989871Y-133328797D01*
X120124717Y-133379091D01*
X120124716Y-133379091D01*
X120131644Y-133379835D01*
X120184327Y-133385500D01*
X121980072Y-133385499D01*
X122039683Y-133379091D01*
X122174531Y-133328796D01*
X122289746Y-133242546D01*
X122375996Y-133127331D01*
X122426291Y-132992483D01*
X122432700Y-132932873D01*
X122432699Y-131137128D01*
X122426291Y-131077517D01*
X122425010Y-131074083D01*
X122375997Y-130942671D01*
X122375993Y-130942664D01*
X122289747Y-130827455D01*
X122289744Y-130827452D01*
X122174535Y-130741206D01*
X122174528Y-130741202D01*
X122039682Y-130690908D01*
X122039683Y-130690908D01*
X121980083Y-130684501D01*
X121980081Y-130684500D01*
X121980073Y-130684500D01*
X121980065Y-130684500D01*
X121806700Y-130684500D01*
X121739661Y-130664815D01*
X121693906Y-130612011D01*
X121682700Y-130560500D01*
X121682700Y-94434088D01*
X121702385Y-94367049D01*
X121755189Y-94321294D01*
X121787302Y-94311615D01*
X121982127Y-94280757D01*
X121982130Y-94280757D01*
X122184217Y-94215095D01*
X122373554Y-94118622D01*
X122427716Y-94079270D01*
X122427717Y-94079270D01*
X121795408Y-93446962D01*
X121858993Y-93429925D01*
X121973007Y-93364099D01*
X122066099Y-93271007D01*
X122131925Y-93156993D01*
X122148962Y-93093409D01*
X122781270Y-93725717D01*
X122781270Y-93725716D01*
X122820622Y-93671554D01*
X122917095Y-93482217D01*
X122982757Y-93280130D01*
X122982757Y-93280127D01*
X123016000Y-93070246D01*
X123016000Y-92857756D01*
X123013422Y-92841481D01*
X123013422Y-92841479D01*
X122982757Y-92647872D01*
X122982757Y-92647869D01*
X122917095Y-92445782D01*
X122820624Y-92256449D01*
X122781270Y-92202282D01*
X122781269Y-92202282D01*
X122148962Y-92834590D01*
X122131925Y-92771007D01*
X122066099Y-92656993D01*
X121973007Y-92563901D01*
X121858993Y-92498075D01*
X121795409Y-92481037D01*
X122465627Y-91810818D01*
X122526950Y-91777333D01*
X122553307Y-91774499D01*
X122563872Y-91774499D01*
X122623483Y-91768091D01*
X122758331Y-91717796D01*
X122873546Y-91631546D01*
X122959796Y-91516331D01*
X123010091Y-91381483D01*
X123016500Y-91321873D01*
X123016499Y-89526128D01*
X123010091Y-89466517D01*
X122998757Y-89436130D01*
X122959797Y-89331671D01*
X122959793Y-89331664D01*
X122873547Y-89216455D01*
X122873544Y-89216452D01*
X122758335Y-89130206D01*
X122758328Y-89130202D01*
X122623482Y-89079908D01*
X122623483Y-89079908D01*
X122563883Y-89073501D01*
X122563881Y-89073500D01*
X122563873Y-89073500D01*
X122563864Y-89073500D01*
X120768129Y-89073500D01*
X120768123Y-89073501D01*
X120726869Y-89077936D01*
X120658110Y-89065529D01*
X120625935Y-89042327D01*
X115883716Y-84300108D01*
X115850231Y-84238785D01*
X115855215Y-84169093D01*
X115897087Y-84113160D01*
X115898511Y-84112109D01*
X115904328Y-84107882D01*
X115246446Y-83450000D01*
X115296078Y-83450000D01*
X115385095Y-83426148D01*
X115464905Y-83380070D01*
X115530070Y-83314905D01*
X115576148Y-83235095D01*
X115600000Y-83146078D01*
X115600000Y-83099999D01*
X115603554Y-83099999D01*
X115603554Y-83100000D01*
X116257882Y-83754328D01*
X116257883Y-83754328D01*
X116276331Y-83728937D01*
X116362085Y-83560637D01*
X116397337Y-83452141D01*
X121461000Y-83452141D01*
X121463732Y-83492434D01*
X121507041Y-83666580D01*
X121586768Y-83827335D01*
X121586770Y-83827338D01*
X121699196Y-83967202D01*
X121699197Y-83967203D01*
X121839061Y-84079629D01*
X121839064Y-84079631D01*
X121999819Y-84159358D01*
X122173965Y-84202667D01*
X122214258Y-84205400D01*
X122361000Y-84205400D01*
X122361000Y-82455400D01*
X121461000Y-82455400D01*
X121461000Y-83452141D01*
X116397337Y-83452141D01*
X116420451Y-83381002D01*
X116450000Y-83194447D01*
X116450000Y-83005552D01*
X116420451Y-82818997D01*
X116362085Y-82639362D01*
X116276332Y-82471063D01*
X116276326Y-82471054D01*
X116257883Y-82445670D01*
X116257882Y-82445669D01*
X115603554Y-83099999D01*
X115600000Y-83099999D01*
X115600000Y-83053922D01*
X115576148Y-82964905D01*
X115530070Y-82885095D01*
X115464905Y-82819930D01*
X115385095Y-82773852D01*
X115296078Y-82750000D01*
X115203922Y-82750000D01*
X115114905Y-82773852D01*
X115035095Y-82819930D01*
X114969930Y-82885095D01*
X114923852Y-82964905D01*
X114900000Y-83053922D01*
X114900000Y-83103553D01*
X114242116Y-82445669D01*
X114242114Y-82445670D01*
X114237890Y-82451485D01*
X114182561Y-82494152D01*
X114112947Y-82500132D01*
X114051152Y-82467526D01*
X114049890Y-82466282D01*
X113675724Y-82092116D01*
X114595669Y-82092116D01*
X115250000Y-82746446D01*
X115250001Y-82746446D01*
X115904328Y-82092116D01*
X115878933Y-82073666D01*
X115710637Y-81987914D01*
X115531002Y-81929548D01*
X115344447Y-81900000D01*
X115155553Y-81900000D01*
X114968997Y-81929548D01*
X114789362Y-81987914D01*
X114621060Y-82073669D01*
X114595670Y-82092116D01*
X114595669Y-82092116D01*
X113675724Y-82092116D01*
X112542266Y-80958658D01*
X121461000Y-80958658D01*
X121461000Y-81955400D01*
X122361000Y-81955400D01*
X122361000Y-80205400D01*
X122861000Y-80205400D01*
X122861000Y-84205400D01*
X123007742Y-84205400D01*
X123048034Y-84202667D01*
X123222180Y-84159358D01*
X123382935Y-84079631D01*
X123382938Y-84079629D01*
X123522802Y-83967203D01*
X123522803Y-83967202D01*
X123635229Y-83827338D01*
X123635231Y-83827335D01*
X123714958Y-83666579D01*
X123740407Y-83564250D01*
X123775689Y-83503943D01*
X123837975Y-83472284D01*
X123907489Y-83479325D01*
X123962161Y-83522831D01*
X123981077Y-83564250D01*
X124006567Y-83666750D01*
X124086346Y-83827609D01*
X124198659Y-83967332D01*
X124198841Y-83967559D01*
X124338790Y-84080053D01*
X124499651Y-84159833D01*
X124673900Y-84203166D01*
X124714216Y-84205900D01*
X124714218Y-84205900D01*
X125507782Y-84205900D01*
X125507784Y-84205900D01*
X125548100Y-84203166D01*
X125722349Y-84159833D01*
X125883210Y-84080053D01*
X126023159Y-83967559D01*
X126023162Y-83967554D01*
X126023319Y-83967399D01*
X126023440Y-83967332D01*
X126028399Y-83963347D01*
X126029112Y-83964235D01*
X126084642Y-83933914D01*
X126154334Y-83938898D01*
X126193183Y-83963866D01*
X126193601Y-83963347D01*
X126198486Y-83967273D01*
X126198681Y-83967399D01*
X126198840Y-83967558D01*
X126198841Y-83967559D01*
X126338790Y-84080053D01*
X126499651Y-84159833D01*
X126673900Y-84203166D01*
X126714216Y-84205900D01*
X126714218Y-84205900D01*
X127507782Y-84205900D01*
X127507784Y-84205900D01*
X127548100Y-84203166D01*
X127722349Y-84159833D01*
X127883210Y-84080053D01*
X128023159Y-83967559D01*
X128135653Y-83827610D01*
X128215433Y-83666749D01*
X128240665Y-83565285D01*
X128275947Y-83504979D01*
X128338233Y-83473320D01*
X128407747Y-83480361D01*
X128462419Y-83523866D01*
X128481335Y-83565286D01*
X128506567Y-83666750D01*
X128586346Y-83827609D01*
X128698840Y-83967558D01*
X128698841Y-83967559D01*
X128838790Y-84080053D01*
X128895594Y-84108225D01*
X128946907Y-84155646D01*
X128964500Y-84219313D01*
X128964500Y-88918700D01*
X128944815Y-88985739D01*
X128892011Y-89031494D01*
X128840501Y-89042700D01*
X128667130Y-89042700D01*
X128667123Y-89042701D01*
X128607516Y-89049108D01*
X128472671Y-89099402D01*
X128472664Y-89099406D01*
X128357455Y-89185652D01*
X128357452Y-89185655D01*
X128271206Y-89300864D01*
X128271202Y-89300871D01*
X128220908Y-89435717D01*
X128215466Y-89486342D01*
X128214501Y-89495323D01*
X128214500Y-89495335D01*
X128214500Y-91291070D01*
X128214501Y-91291076D01*
X128220908Y-91350683D01*
X128271202Y-91485528D01*
X128271206Y-91485535D01*
X128357452Y-91600744D01*
X128357455Y-91600747D01*
X128472664Y-91686993D01*
X128472671Y-91686997D01*
X128513658Y-91702284D01*
X128607517Y-91737291D01*
X128667127Y-91743700D01*
X128677685Y-91743699D01*
X128744723Y-91763379D01*
X128765372Y-91780018D01*
X129435591Y-92450237D01*
X129372007Y-92467275D01*
X129257993Y-92533101D01*
X129164901Y-92626193D01*
X129099075Y-92740207D01*
X129082037Y-92803791D01*
X128449728Y-92171482D01*
X128449727Y-92171482D01*
X128410380Y-92225639D01*
X128313904Y-92414982D01*
X128248242Y-92617069D01*
X128248242Y-92617072D01*
X128215000Y-92826953D01*
X128215000Y-93039446D01*
X128248242Y-93249327D01*
X128248242Y-93249330D01*
X128313904Y-93451417D01*
X128410375Y-93640750D01*
X128449728Y-93694916D01*
X129082037Y-93062608D01*
X129099075Y-93126193D01*
X129164901Y-93240207D01*
X129257993Y-93333299D01*
X129372007Y-93399125D01*
X129435590Y-93416162D01*
X128803282Y-94048469D01*
X128803282Y-94048470D01*
X128857449Y-94087824D01*
X129046782Y-94184295D01*
X129248870Y-94249957D01*
X129458754Y-94283200D01*
X129671246Y-94283200D01*
X129881127Y-94249957D01*
X129881130Y-94249957D01*
X130083217Y-94184295D01*
X130272554Y-94087822D01*
X130326716Y-94048470D01*
X130326717Y-94048470D01*
X129694408Y-93416162D01*
X129757993Y-93399125D01*
X129872007Y-93333299D01*
X129965099Y-93240207D01*
X130030925Y-93126193D01*
X130047962Y-93062609D01*
X130680270Y-93694917D01*
X130680270Y-93694916D01*
X130719622Y-93640754D01*
X130816095Y-93451417D01*
X130881757Y-93249330D01*
X130881757Y-93249327D01*
X130915000Y-93039446D01*
X130915000Y-92826953D01*
X130881757Y-92617072D01*
X130881757Y-92617069D01*
X130816095Y-92414982D01*
X130719624Y-92225649D01*
X130680270Y-92171482D01*
X130680269Y-92171482D01*
X130047962Y-92803790D01*
X130030925Y-92740207D01*
X129965099Y-92626193D01*
X129872007Y-92533101D01*
X129757993Y-92467275D01*
X129694409Y-92450237D01*
X130364627Y-91780018D01*
X130425950Y-91746533D01*
X130452307Y-91743699D01*
X130462872Y-91743699D01*
X130522483Y-91737291D01*
X130657331Y-91686996D01*
X130772546Y-91600746D01*
X130858796Y-91485531D01*
X130909091Y-91350683D01*
X130915500Y-91291073D01*
X130915499Y-89495328D01*
X130909091Y-89435717D01*
X130870284Y-89331671D01*
X130858797Y-89300871D01*
X130858793Y-89300864D01*
X130772547Y-89185655D01*
X130772544Y-89185652D01*
X130657335Y-89099406D01*
X130657328Y-89099402D01*
X130522482Y-89049108D01*
X130522483Y-89049108D01*
X130462883Y-89042701D01*
X130462881Y-89042700D01*
X130462873Y-89042700D01*
X130462865Y-89042700D01*
X130289500Y-89042700D01*
X130222461Y-89023015D01*
X130176706Y-88970211D01*
X130165500Y-88918700D01*
X130165500Y-84264941D01*
X130185185Y-84197902D01*
X130234405Y-84153853D01*
X130383210Y-84080053D01*
X130523159Y-83967559D01*
X130635653Y-83827610D01*
X130715433Y-83666749D01*
X130758766Y-83492500D01*
X130761500Y-83452184D01*
X130761500Y-80958616D01*
X130758766Y-80918300D01*
X130715433Y-80744051D01*
X130635653Y-80583190D01*
X130523159Y-80443241D01*
X130490528Y-80417011D01*
X130383209Y-80330746D01*
X130222350Y-80250967D01*
X130048102Y-80207634D01*
X130048103Y-80207634D01*
X130023910Y-80205993D01*
X130007784Y-80204900D01*
X129214216Y-80204900D01*
X129198089Y-80205993D01*
X129173897Y-80207634D01*
X128999649Y-80250967D01*
X128838790Y-80330746D01*
X128698841Y-80443240D01*
X128698840Y-80443241D01*
X128586346Y-80583190D01*
X128506567Y-80744049D01*
X128481335Y-80845513D01*
X128446053Y-80905820D01*
X128383767Y-80937479D01*
X128314253Y-80930438D01*
X128259581Y-80886933D01*
X128240665Y-80845513D01*
X128215433Y-80744051D01*
X128135653Y-80583190D01*
X128023159Y-80443241D01*
X127990528Y-80417011D01*
X127883209Y-80330746D01*
X127722350Y-80250967D01*
X127548102Y-80207634D01*
X127548103Y-80207634D01*
X127523910Y-80205993D01*
X127507784Y-80204900D01*
X126714216Y-80204900D01*
X126698089Y-80205993D01*
X126673897Y-80207634D01*
X126499649Y-80250967D01*
X126338790Y-80330746D01*
X126198841Y-80443240D01*
X126198681Y-80443401D01*
X126198559Y-80443467D01*
X126193601Y-80447453D01*
X126192887Y-80446564D01*
X126137358Y-80476886D01*
X126067666Y-80471902D01*
X126028816Y-80446933D01*
X126028399Y-80447453D01*
X126023513Y-80443526D01*
X126023319Y-80443401D01*
X126023158Y-80443240D01*
X125883209Y-80330746D01*
X125722350Y-80250967D01*
X125548102Y-80207634D01*
X125548103Y-80207634D01*
X125523910Y-80205993D01*
X125507784Y-80204900D01*
X124714216Y-80204900D01*
X124698089Y-80205993D01*
X124673897Y-80207634D01*
X124499649Y-80250967D01*
X124338790Y-80330746D01*
X124198841Y-80443240D01*
X124198840Y-80443241D01*
X124086346Y-80583190D01*
X124006567Y-80744049D01*
X123981077Y-80846549D01*
X123945794Y-80906856D01*
X123883509Y-80938515D01*
X123813995Y-80931474D01*
X123759323Y-80887968D01*
X123740407Y-80846549D01*
X123714958Y-80744220D01*
X123635231Y-80583464D01*
X123635229Y-80583461D01*
X123522803Y-80443597D01*
X123522802Y-80443596D01*
X123382938Y-80331170D01*
X123382935Y-80331168D01*
X123222180Y-80251441D01*
X123048034Y-80208132D01*
X123007742Y-80205400D01*
X122861000Y-80205400D01*
X122361000Y-80205400D01*
X122214258Y-80205400D01*
X122173965Y-80208132D01*
X121999819Y-80251441D01*
X121839064Y-80331168D01*
X121839061Y-80331170D01*
X121699197Y-80443596D01*
X121699196Y-80443597D01*
X121586770Y-80583461D01*
X121586768Y-80583464D01*
X121507041Y-80744219D01*
X121463732Y-80918365D01*
X121461000Y-80958658D01*
X112542266Y-80958658D01*
X111029419Y-79445811D01*
X110995934Y-79384488D01*
X110993100Y-79358130D01*
X110993100Y-79251848D01*
X118611000Y-79251848D01*
X119357448Y-78505400D01*
X119357448Y-78505399D01*
X118611000Y-77758951D01*
X118611000Y-79251848D01*
X110993100Y-79251848D01*
X110993100Y-77166430D01*
X118725583Y-77166430D01*
X118725583Y-77166432D01*
X119411000Y-77851848D01*
X119411000Y-79158951D01*
X118725583Y-79844366D01*
X118725583Y-79844368D01*
X118770195Y-79931924D01*
X118871967Y-80072002D01*
X118994397Y-80194432D01*
X119134475Y-80296204D01*
X119288742Y-80374808D01*
X119453415Y-80428314D01*
X119624429Y-80455400D01*
X119797571Y-80455400D01*
X119968584Y-80428314D01*
X120133257Y-80374808D01*
X120287524Y-80296204D01*
X120427602Y-80194432D01*
X120550032Y-80072002D01*
X120651805Y-79931921D01*
X120696415Y-79844367D01*
X120011000Y-79158952D01*
X120011000Y-78505399D01*
X120064552Y-78505399D01*
X120064552Y-78505400D01*
X120810999Y-79251848D01*
X131411000Y-79251848D01*
X132157448Y-78505400D01*
X132157448Y-78505399D01*
X131411000Y-77758951D01*
X131411000Y-79251848D01*
X120810999Y-79251848D01*
X120811000Y-79251847D01*
X120811000Y-77758952D01*
X120810999Y-77758951D01*
X120064552Y-78505399D01*
X120011000Y-78505399D01*
X120011000Y-77851848D01*
X120696416Y-77166431D01*
X120696415Y-77166430D01*
X131525583Y-77166430D01*
X131525583Y-77166432D01*
X132211000Y-77851848D01*
X132211000Y-79158951D01*
X131525583Y-79844366D01*
X131525583Y-79844368D01*
X131570195Y-79931924D01*
X131671967Y-80072002D01*
X131794397Y-80194432D01*
X131934475Y-80296204D01*
X132088742Y-80374808D01*
X132253415Y-80428314D01*
X132424429Y-80455400D01*
X132597571Y-80455400D01*
X132768584Y-80428314D01*
X132933257Y-80374808D01*
X133087524Y-80296204D01*
X133227602Y-80194432D01*
X133350032Y-80072002D01*
X133451804Y-79931923D01*
X133496415Y-79844367D01*
X132811000Y-79158952D01*
X132811000Y-78505399D01*
X132864552Y-78505399D01*
X132864552Y-78505400D01*
X133610999Y-79251848D01*
X133611000Y-79251847D01*
X133611000Y-77758952D01*
X133610999Y-77758951D01*
X132864552Y-78505399D01*
X132811000Y-78505399D01*
X132811000Y-77851848D01*
X133496416Y-77166431D01*
X133451804Y-77078875D01*
X133350032Y-76938797D01*
X133227602Y-76816367D01*
X133087524Y-76714595D01*
X132933257Y-76635991D01*
X132768584Y-76582485D01*
X132597571Y-76555400D01*
X132424429Y-76555400D01*
X132253415Y-76582485D01*
X132088742Y-76635991D01*
X131934475Y-76714595D01*
X131794397Y-76816367D01*
X131671967Y-76938797D01*
X131570194Y-77078878D01*
X131525583Y-77166430D01*
X120696415Y-77166430D01*
X120651805Y-77078877D01*
X120550032Y-76938797D01*
X120427602Y-76816367D01*
X120287524Y-76714595D01*
X120133257Y-76635991D01*
X119968584Y-76582485D01*
X119797571Y-76555400D01*
X119624429Y-76555400D01*
X119453415Y-76582485D01*
X119288742Y-76635991D01*
X119134475Y-76714595D01*
X118994397Y-76816367D01*
X118871967Y-76938797D01*
X118770194Y-77078878D01*
X118725583Y-77166430D01*
X110993100Y-77166430D01*
X110993100Y-74506057D01*
X111004566Y-74453978D01*
X111010344Y-74441491D01*
X111017136Y-74432641D01*
X111040124Y-74377141D01*
X111041181Y-74374859D01*
X111062603Y-74350386D01*
X111082995Y-74325082D01*
X111085477Y-74324255D01*
X111087202Y-74322286D01*
X111118442Y-74313283D01*
X111149289Y-74303017D01*
X111151825Y-74303664D01*
X111154339Y-74302940D01*
X111185484Y-74312255D01*
X111216988Y-74320296D01*
X111219879Y-74322542D01*
X111221279Y-74322961D01*
X111222997Y-74324964D01*
X111241396Y-74339257D01*
X111274254Y-74372115D01*
X111423475Y-74464156D01*
X111423480Y-74464158D01*
X111589902Y-74519305D01*
X111589909Y-74519306D01*
X111692619Y-74529799D01*
X112042599Y-74529799D01*
X112542600Y-74529799D01*
X112892572Y-74529799D01*
X112892586Y-74529798D01*
X112995297Y-74519305D01*
X113161719Y-74464158D01*
X113161724Y-74464156D01*
X113310945Y-74372115D01*
X113434915Y-74248145D01*
X113526956Y-74098924D01*
X113526958Y-74098919D01*
X113582105Y-73932497D01*
X113582106Y-73932490D01*
X113592599Y-73829786D01*
X113592600Y-73829773D01*
X113592600Y-73579800D01*
X112542600Y-73579800D01*
X112542600Y-74529799D01*
X112042599Y-74529799D01*
X112042600Y-74529798D01*
X112042600Y-72123800D01*
X112062285Y-72056761D01*
X112115089Y-72011006D01*
X112135927Y-72006472D01*
X112142600Y-71999800D01*
X112142600Y-71279528D01*
X112180660Y-71371414D01*
X112250986Y-71441740D01*
X112342872Y-71479800D01*
X112442328Y-71479800D01*
X112534214Y-71441740D01*
X112604540Y-71371414D01*
X112642600Y-71279528D01*
X112642600Y-72185800D01*
X112622915Y-72252839D01*
X112570111Y-72298594D01*
X112549272Y-72303127D01*
X112542600Y-72309800D01*
X112542600Y-73079800D01*
X113592599Y-73079800D01*
X113592599Y-72829828D01*
X113592598Y-72829813D01*
X113582105Y-72727102D01*
X113526958Y-72560680D01*
X113526956Y-72560675D01*
X113434915Y-72411454D01*
X113310945Y-72287484D01*
X113161724Y-72195443D01*
X113161719Y-72195441D01*
X113058672Y-72161295D01*
X113001227Y-72121522D01*
X112974404Y-72057007D01*
X112986719Y-71988231D01*
X113009995Y-71955907D01*
X113130514Y-71835388D01*
X113234475Y-71679800D01*
X113234480Y-71679791D01*
X113306091Y-71506905D01*
X113306093Y-71506897D01*
X113342599Y-71323371D01*
X113342600Y-71323369D01*
X113342600Y-71129800D01*
X112642600Y-71129800D01*
X112642600Y-70629800D01*
X113342600Y-70629800D01*
X113342600Y-70436230D01*
X113342599Y-70436228D01*
X113306093Y-70252702D01*
X113306091Y-70252694D01*
X113234480Y-70079808D01*
X113234475Y-70079799D01*
X113130513Y-69924210D01*
X113130510Y-69924206D01*
X112998193Y-69791889D01*
X112998189Y-69791886D01*
X112901982Y-69727602D01*
X112857177Y-69673990D01*
X112848470Y-69604665D01*
X112878625Y-69541637D01*
X112938068Y-69504918D01*
X112970873Y-69500500D01*
X133856300Y-69500500D01*
X133923339Y-69520185D01*
X133969094Y-69572989D01*
X133980300Y-69624500D01*
X133980300Y-135489300D01*
X133960615Y-135556339D01*
X133907811Y-135602094D01*
X133856300Y-135613300D01*
X40624500Y-135613300D01*
X40557461Y-135593615D01*
X40511706Y-135540811D01*
X40500500Y-135489300D01*
X40500500Y-73829786D01*
X104592601Y-73829786D01*
X104603094Y-73932497D01*
X104658241Y-74098919D01*
X104658243Y-74098924D01*
X104750284Y-74248145D01*
X104874254Y-74372115D01*
X105023475Y-74464156D01*
X105023480Y-74464158D01*
X105189902Y-74519305D01*
X105189909Y-74519306D01*
X105292619Y-74529799D01*
X105642599Y-74529799D01*
X105642600Y-74529798D01*
X105642600Y-73579800D01*
X104592601Y-73579800D01*
X104592601Y-73829786D01*
X40500500Y-73829786D01*
X40500500Y-69624500D01*
X40520185Y-69557461D01*
X40572989Y-69511706D01*
X40624500Y-69500500D01*
X105214327Y-69500500D01*
X105281366Y-69520185D01*
G37*
%TD.AperFunction*%
%TA.AperFunction,Conductor*%
G36*
X101026703Y-117909184D02*
G01*
X101033181Y-117915216D01*
X113590784Y-130472819D01*
X113624269Y-130534142D01*
X113619285Y-130603834D01*
X113577413Y-130659767D01*
X113511949Y-130684184D01*
X113503103Y-130684500D01*
X113355913Y-130684500D01*
X113307242Y-130692208D01*
X113145960Y-130717753D01*
X112943785Y-130783444D01*
X112754379Y-130879951D01*
X112582413Y-131004890D01*
X112432090Y-131155213D01*
X112307149Y-131327182D01*
X112302684Y-131335946D01*
X112254709Y-131386742D01*
X112186888Y-131403536D01*
X112120753Y-131380998D01*
X112081716Y-131335946D01*
X112077250Y-131327182D01*
X111952309Y-131155213D01*
X111801986Y-131004890D01*
X111630020Y-130879951D01*
X111440614Y-130783444D01*
X111440613Y-130783443D01*
X111440612Y-130783443D01*
X111238443Y-130717754D01*
X111238441Y-130717753D01*
X111238440Y-130717753D01*
X111077157Y-130692208D01*
X111028487Y-130684500D01*
X110815913Y-130684500D01*
X110767242Y-130692208D01*
X110605960Y-130717753D01*
X110403785Y-130783444D01*
X110214379Y-130879951D01*
X110042413Y-131004890D01*
X109892090Y-131155213D01*
X109767149Y-131327182D01*
X109762402Y-131336499D01*
X109714427Y-131387293D01*
X109646605Y-131404087D01*
X109580471Y-131381548D01*
X109541434Y-131336495D01*
X109536826Y-131327452D01*
X109497470Y-131273282D01*
X109497469Y-131273282D01*
X108865162Y-131905589D01*
X108848125Y-131842007D01*
X108782299Y-131727993D01*
X108689207Y-131634901D01*
X108575193Y-131569075D01*
X108511609Y-131552037D01*
X109143916Y-130919728D01*
X109089750Y-130880375D01*
X108900417Y-130783904D01*
X108698329Y-130718242D01*
X108488446Y-130685000D01*
X108275954Y-130685000D01*
X108066072Y-130718242D01*
X108066069Y-130718242D01*
X107863982Y-130783904D01*
X107674639Y-130880380D01*
X107620482Y-130919727D01*
X107620482Y-130919728D01*
X108252791Y-131552037D01*
X108189207Y-131569075D01*
X108075193Y-131634901D01*
X107982101Y-131727993D01*
X107916275Y-131842007D01*
X107899237Y-131905591D01*
X107266928Y-131273282D01*
X107266927Y-131273282D01*
X107227580Y-131327439D01*
X107131104Y-131516782D01*
X107065442Y-131718869D01*
X107065442Y-131718872D01*
X107032200Y-131928753D01*
X107032200Y-132141246D01*
X107065442Y-132351127D01*
X107065442Y-132351130D01*
X107088854Y-132423182D01*
X107090849Y-132493023D01*
X107054769Y-132552856D01*
X106992068Y-132583684D01*
X106970923Y-132585500D01*
X85223097Y-132585500D01*
X85156058Y-132565815D01*
X85110303Y-132513011D01*
X85100359Y-132443853D01*
X85129384Y-132380297D01*
X85135416Y-132373819D01*
X86629929Y-130879306D01*
X89364124Y-128145111D01*
X97608321Y-119900912D01*
X97669642Y-119867429D01*
X97739334Y-119872413D01*
X97795267Y-119914285D01*
X97819684Y-119979749D01*
X97820000Y-119988595D01*
X97820000Y-120182317D01*
X97852009Y-120384417D01*
X97915244Y-120579031D01*
X98008141Y-120761350D01*
X98008147Y-120761359D01*
X98040523Y-120805921D01*
X98040524Y-120805922D01*
X98720000Y-120126446D01*
X98720000Y-120132661D01*
X98747259Y-120234394D01*
X98799920Y-120325606D01*
X98874394Y-120400080D01*
X98965606Y-120452741D01*
X99067339Y-120480000D01*
X99073552Y-120480000D01*
X98394076Y-121159474D01*
X98438650Y-121191859D01*
X98620968Y-121284755D01*
X98815582Y-121347990D01*
X99017683Y-121380000D01*
X99222317Y-121380000D01*
X99316959Y-121365010D01*
X99386252Y-121373964D01*
X99439704Y-121418961D01*
X99460344Y-121485712D01*
X99452239Y-121528035D01*
X99453031Y-121528276D01*
X99451261Y-121534110D01*
X99420500Y-121688753D01*
X99420500Y-121846446D01*
X99451261Y-122001089D01*
X99451264Y-122001101D01*
X99511602Y-122146772D01*
X99511609Y-122146785D01*
X99599210Y-122277888D01*
X99599213Y-122277892D01*
X99710707Y-122389386D01*
X99710711Y-122389389D01*
X99841814Y-122476990D01*
X99841827Y-122476997D01*
X99987498Y-122537335D01*
X99987503Y-122537337D01*
X100142153Y-122568099D01*
X100142156Y-122568100D01*
X100142158Y-122568100D01*
X100299844Y-122568100D01*
X100299845Y-122568099D01*
X100454497Y-122537337D01*
X100600179Y-122476994D01*
X100731289Y-122389389D01*
X100842789Y-122277889D01*
X100930394Y-122146779D01*
X100990737Y-122001097D01*
X101021500Y-121846442D01*
X101021500Y-121688758D01*
X101021500Y-121688755D01*
X101021499Y-121688753D01*
X101010826Y-121635095D01*
X100990737Y-121534103D01*
X100958127Y-121455374D01*
X100930397Y-121388427D01*
X100930390Y-121388414D01*
X100842398Y-121256725D01*
X100821520Y-121190047D01*
X100821500Y-121187834D01*
X100821500Y-118002897D01*
X100841185Y-117935858D01*
X100893989Y-117890103D01*
X100963147Y-117880159D01*
X101026703Y-117909184D01*
G37*
%TD.AperFunction*%
%TA.AperFunction,Conductor*%
G36*
X75780329Y-108519185D02*
G01*
X75826084Y-108571989D01*
X75836028Y-108641147D01*
X75835763Y-108642899D01*
X75810000Y-108805553D01*
X75810000Y-108994447D01*
X75839548Y-109181002D01*
X75897914Y-109360637D01*
X75983666Y-109528933D01*
X76002116Y-109554328D01*
X76660000Y-108896444D01*
X76660000Y-108946078D01*
X76683852Y-109035095D01*
X76729930Y-109114905D01*
X76795095Y-109180070D01*
X76874905Y-109226148D01*
X76963922Y-109250000D01*
X77056078Y-109250000D01*
X77145095Y-109226148D01*
X77224905Y-109180070D01*
X77290070Y-109114905D01*
X77336148Y-109035095D01*
X77360000Y-108946078D01*
X77360000Y-108896446D01*
X78017882Y-109554328D01*
X78017883Y-109554328D01*
X78036331Y-109528937D01*
X78122085Y-109360637D01*
X78180451Y-109181002D01*
X78210000Y-108994447D01*
X78210000Y-108805553D01*
X78184237Y-108642899D01*
X78193191Y-108573605D01*
X78238187Y-108520153D01*
X78304939Y-108499513D01*
X78306710Y-108499500D01*
X80792783Y-108499500D01*
X80859822Y-108519185D01*
X80905577Y-108571989D01*
X80915521Y-108641147D01*
X80915256Y-108642898D01*
X80889500Y-108805513D01*
X80889500Y-108994486D01*
X80919059Y-109181118D01*
X80977454Y-109360836D01*
X81029897Y-109463760D01*
X81063240Y-109529199D01*
X81174310Y-109682073D01*
X81307927Y-109815690D01*
X81460801Y-109926760D01*
X81536923Y-109965546D01*
X81629163Y-110012545D01*
X81629165Y-110012545D01*
X81629168Y-110012547D01*
X81701444Y-110036031D01*
X81808881Y-110070940D01*
X81995514Y-110100500D01*
X81995519Y-110100500D01*
X82184486Y-110100500D01*
X82371118Y-110070940D01*
X82372623Y-110070451D01*
X82550832Y-110012547D01*
X82643077Y-109965545D01*
X82711745Y-109952649D01*
X82776486Y-109978925D01*
X82816744Y-110036031D01*
X82819736Y-110105836D01*
X82787053Y-110163711D01*
X82587584Y-110363181D01*
X82526261Y-110396666D01*
X82499903Y-110399500D01*
X79873429Y-110399500D01*
X79715314Y-110399500D01*
X79562587Y-110440423D01*
X79562586Y-110440423D01*
X79562584Y-110440424D01*
X79562581Y-110440425D01*
X79512468Y-110469359D01*
X79512467Y-110469360D01*
X79480500Y-110487816D01*
X79425657Y-110519479D01*
X79425654Y-110519481D01*
X79313850Y-110631286D01*
X78321647Y-111623487D01*
X78260324Y-111656972D01*
X78190632Y-111651988D01*
X78134699Y-111610116D01*
X78123481Y-111592101D01*
X78036329Y-111421059D01*
X78017883Y-111395670D01*
X78017882Y-111395669D01*
X77360000Y-112053553D01*
X77360000Y-112003922D01*
X77336148Y-111914905D01*
X77290070Y-111835095D01*
X77224905Y-111769930D01*
X77145095Y-111723852D01*
X77056078Y-111700000D01*
X76963922Y-111700000D01*
X76874905Y-111723852D01*
X76795095Y-111769930D01*
X76729930Y-111835095D01*
X76683852Y-111914905D01*
X76660000Y-112003922D01*
X76660000Y-112096078D01*
X76683852Y-112185095D01*
X76729930Y-112264905D01*
X76795095Y-112330070D01*
X76874905Y-112376148D01*
X76963922Y-112400000D01*
X77013553Y-112400000D01*
X76355669Y-113057882D01*
X76355670Y-113057883D01*
X76381059Y-113076329D01*
X76552101Y-113163481D01*
X76602897Y-113211456D01*
X76619692Y-113279277D01*
X76597154Y-113345412D01*
X76583487Y-113361647D01*
X61554493Y-128390642D01*
X61554486Y-128390649D01*
X61551286Y-128393850D01*
X61551284Y-128393852D01*
X61439480Y-128505656D01*
X61413789Y-128550155D01*
X61360423Y-128642587D01*
X61319499Y-128795315D01*
X61319499Y-128795317D01*
X61319499Y-128963425D01*
X61319500Y-128963431D01*
X61319500Y-129250903D01*
X61299815Y-129317942D01*
X61247011Y-129363697D01*
X61177853Y-129373641D01*
X61114297Y-129344616D01*
X61107819Y-129338584D01*
X60907590Y-129138355D01*
X60907588Y-129138352D01*
X60788717Y-129019481D01*
X60788716Y-129019480D01*
X60701904Y-128969360D01*
X60701904Y-128969359D01*
X60701900Y-128969358D01*
X60651785Y-128940423D01*
X60499057Y-128899499D01*
X60340943Y-128899499D01*
X60333347Y-128899499D01*
X60333331Y-128899500D01*
X58572596Y-128899500D01*
X58505557Y-128879815D01*
X58472278Y-128848386D01*
X58469523Y-128844594D01*
X58353828Y-128685354D01*
X58214646Y-128546172D01*
X58055405Y-128430476D01*
X58000499Y-128402500D01*
X57880029Y-128341117D01*
X57692826Y-128280290D01*
X57498422Y-128249500D01*
X57498417Y-128249500D01*
X57301583Y-128249500D01*
X57301578Y-128249500D01*
X57107173Y-128280290D01*
X56919970Y-128341117D01*
X56744594Y-128430476D01*
X56653741Y-128496485D01*
X56585354Y-128546172D01*
X56585352Y-128546174D01*
X56585351Y-128546174D01*
X56446174Y-128685351D01*
X56446174Y-128685352D01*
X56446172Y-128685354D01*
X56424596Y-128715051D01*
X56330476Y-128844594D01*
X56241117Y-129019970D01*
X56180290Y-129207173D01*
X56149500Y-129401577D01*
X56149500Y-129598422D01*
X56180290Y-129792826D01*
X56241117Y-129980029D01*
X56318523Y-130131946D01*
X56330476Y-130155405D01*
X56446172Y-130314646D01*
X56585354Y-130453828D01*
X56744595Y-130569524D01*
X56749553Y-130572050D01*
X56919970Y-130658882D01*
X56919972Y-130658882D01*
X56919975Y-130658884D01*
X57010348Y-130688248D01*
X57107173Y-130719709D01*
X57301578Y-130750500D01*
X57301583Y-130750500D01*
X57498422Y-130750500D01*
X57692826Y-130719709D01*
X57698846Y-130717753D01*
X57880025Y-130658884D01*
X58055405Y-130569524D01*
X58214646Y-130453828D01*
X58353828Y-130314646D01*
X58469524Y-130155405D01*
X58469524Y-130155403D01*
X58472278Y-130151614D01*
X58527608Y-130108949D01*
X58572596Y-130100500D01*
X60119903Y-130100500D01*
X60186942Y-130120185D01*
X60207584Y-130136819D01*
X60709933Y-130639168D01*
X60743418Y-130700491D01*
X60744725Y-130746247D01*
X60719500Y-130905513D01*
X60719500Y-131094486D01*
X60745256Y-131257102D01*
X60736301Y-131326395D01*
X60691305Y-131379847D01*
X60624554Y-131400487D01*
X60622783Y-131400500D01*
X55314759Y-131400500D01*
X55247720Y-131380815D01*
X55227078Y-131364181D01*
X54628368Y-130765471D01*
X54594883Y-130704148D01*
X54599867Y-130634456D01*
X54641739Y-130578523D01*
X54651280Y-130572050D01*
X54655386Y-130569533D01*
X54655405Y-130569524D01*
X54814646Y-130453828D01*
X54953828Y-130314646D01*
X55069524Y-130155405D01*
X55158884Y-129980025D01*
X55219709Y-129792826D01*
X55239288Y-129669208D01*
X55250500Y-129598422D01*
X55250500Y-129401577D01*
X55219709Y-129207173D01*
X55158882Y-129019970D01*
X55085566Y-128876080D01*
X55069524Y-128844595D01*
X54953828Y-128685354D01*
X54814646Y-128546172D01*
X54758881Y-128505656D01*
X54651614Y-128427721D01*
X54608949Y-128372390D01*
X54600500Y-128327403D01*
X54600500Y-123917847D01*
X54620185Y-123850808D01*
X54672989Y-123805053D01*
X54700309Y-123796230D01*
X54716291Y-123793050D01*
X54833497Y-123769737D01*
X54979179Y-123709394D01*
X54979185Y-123709390D01*
X55110875Y-123621398D01*
X55177553Y-123600520D01*
X55179766Y-123600500D01*
X56063331Y-123600500D01*
X56063347Y-123600501D01*
X56070943Y-123600501D01*
X56229054Y-123600501D01*
X56229057Y-123600501D01*
X56381785Y-123559577D01*
X56431904Y-123530639D01*
X56518716Y-123480520D01*
X56630520Y-123368716D01*
X56630520Y-123368714D01*
X56640728Y-123358507D01*
X56640730Y-123358504D01*
X60937819Y-119061415D01*
X60999142Y-119027930D01*
X61068834Y-119032914D01*
X61124767Y-119074786D01*
X61149184Y-119140250D01*
X61149500Y-119149096D01*
X61149500Y-119296287D01*
X61158067Y-119350377D01*
X61174770Y-119455839D01*
X61182754Y-119506243D01*
X61248068Y-119707259D01*
X61248444Y-119708414D01*
X61344951Y-119897820D01*
X61469890Y-120069786D01*
X61620213Y-120220109D01*
X61792182Y-120345050D01*
X61800946Y-120349516D01*
X61851742Y-120397491D01*
X61868536Y-120465312D01*
X61845998Y-120531447D01*
X61800946Y-120570484D01*
X61792182Y-120574949D01*
X61620213Y-120699890D01*
X61469890Y-120850213D01*
X61344951Y-121022179D01*
X61248444Y-121211585D01*
X61182753Y-121413760D01*
X61157766Y-121571521D01*
X61149500Y-121623713D01*
X61149500Y-121836287D01*
X61151109Y-121846444D01*
X61175603Y-122001097D01*
X61182754Y-122046243D01*
X61242546Y-122230264D01*
X61248444Y-122248414D01*
X61344951Y-122437820D01*
X61469890Y-122609786D01*
X61620213Y-122760109D01*
X61792179Y-122885048D01*
X61792181Y-122885049D01*
X61792184Y-122885051D01*
X61981588Y-122981557D01*
X62183757Y-123047246D01*
X62393713Y-123080500D01*
X62393714Y-123080500D01*
X62606286Y-123080500D01*
X62606287Y-123080500D01*
X62816243Y-123047246D01*
X63018412Y-122981557D01*
X63207816Y-122885051D01*
X63330051Y-122796243D01*
X63379786Y-122760109D01*
X63379788Y-122760106D01*
X63379792Y-122760104D01*
X63530104Y-122609792D01*
X63530106Y-122609788D01*
X63530109Y-122609786D01*
X63655048Y-122437820D01*
X63655047Y-122437820D01*
X63655051Y-122437816D01*
X63751557Y-122248412D01*
X63817246Y-122046243D01*
X63850500Y-121836287D01*
X63850500Y-121623713D01*
X63817246Y-121413757D01*
X63751557Y-121211588D01*
X63655051Y-121022184D01*
X63655049Y-121022181D01*
X63655048Y-121022179D01*
X63530109Y-120850213D01*
X63379786Y-120699890D01*
X63207820Y-120574951D01*
X63207115Y-120574591D01*
X63199054Y-120570485D01*
X63148259Y-120522512D01*
X63131463Y-120454692D01*
X63153999Y-120388556D01*
X63199054Y-120349515D01*
X63207816Y-120345051D01*
X63235793Y-120324725D01*
X63379786Y-120220109D01*
X63379788Y-120220106D01*
X63379792Y-120220104D01*
X63530104Y-120069792D01*
X63530106Y-120069788D01*
X63530109Y-120069786D01*
X63655048Y-119897820D01*
X63655047Y-119897820D01*
X63655051Y-119897816D01*
X63751557Y-119708412D01*
X63817246Y-119506243D01*
X63850500Y-119296287D01*
X63850500Y-119083713D01*
X63817246Y-118873757D01*
X63803506Y-118831473D01*
X63803072Y-118816262D01*
X63797754Y-118802003D01*
X63802095Y-118782047D01*
X63801512Y-118761635D01*
X63809599Y-118747548D01*
X63812606Y-118733730D01*
X63833754Y-118705479D01*
X64009506Y-118529728D01*
X64009511Y-118529724D01*
X64019714Y-118519520D01*
X64019716Y-118519520D01*
X64131520Y-118407716D01*
X64173401Y-118335176D01*
X64191765Y-118303369D01*
X64191766Y-118303366D01*
X64210576Y-118270787D01*
X64212261Y-118264500D01*
X64251501Y-118118057D01*
X64251501Y-117959942D01*
X64251501Y-117952347D01*
X64251500Y-117952329D01*
X64251500Y-116094185D01*
X64251500Y-116094183D01*
X64210577Y-115941456D01*
X64156170Y-115847219D01*
X64131524Y-115804530D01*
X64131521Y-115804526D01*
X64131520Y-115804524D01*
X64019716Y-115692720D01*
X64019715Y-115692719D01*
X64015385Y-115688389D01*
X64015374Y-115688379D01*
X63511126Y-115184131D01*
X63477641Y-115122808D01*
X63482625Y-115053116D01*
X63511126Y-115008769D01*
X63530104Y-114989792D01*
X63530106Y-114989788D01*
X63530109Y-114989786D01*
X63655048Y-114817820D01*
X63655047Y-114817820D01*
X63655051Y-114817816D01*
X63751557Y-114628412D01*
X63817246Y-114426243D01*
X63850500Y-114216287D01*
X63850500Y-114003713D01*
X63817246Y-113793757D01*
X63803506Y-113751473D01*
X63803072Y-113736262D01*
X63797754Y-113722003D01*
X63802095Y-113702047D01*
X63801512Y-113681635D01*
X63809599Y-113667548D01*
X63812606Y-113653730D01*
X63833754Y-113625479D01*
X64009506Y-113449728D01*
X64009511Y-113449724D01*
X64019714Y-113439520D01*
X64019716Y-113439520D01*
X64131520Y-113327716D01*
X64193167Y-113220940D01*
X64210577Y-113190785D01*
X64251501Y-113038057D01*
X64251501Y-112879942D01*
X64251501Y-112872347D01*
X64251500Y-112872329D01*
X64251500Y-111955552D01*
X75810000Y-111955552D01*
X75810000Y-112144447D01*
X75839548Y-112331002D01*
X75897914Y-112510637D01*
X75983666Y-112678933D01*
X76002116Y-112704328D01*
X76656446Y-112050000D01*
X76656446Y-112049999D01*
X76002116Y-111395669D01*
X76002116Y-111395670D01*
X75983669Y-111421060D01*
X75897914Y-111589362D01*
X75839548Y-111768997D01*
X75810000Y-111955552D01*
X64251500Y-111955552D01*
X64251500Y-111042116D01*
X76355669Y-111042116D01*
X77010000Y-111696446D01*
X77010001Y-111696446D01*
X77664328Y-111042116D01*
X77638933Y-111023666D01*
X77470637Y-110937914D01*
X77291002Y-110879548D01*
X77104447Y-110850000D01*
X76915553Y-110850000D01*
X76728997Y-110879548D01*
X76549362Y-110937914D01*
X76381060Y-111023669D01*
X76355670Y-111042116D01*
X76355669Y-111042116D01*
X64251500Y-111042116D01*
X64251500Y-111014185D01*
X64251500Y-111014183D01*
X64210577Y-110861456D01*
X64156170Y-110767219D01*
X64131524Y-110724530D01*
X64131521Y-110724526D01*
X64131520Y-110724524D01*
X64019716Y-110612720D01*
X64019715Y-110612719D01*
X64015385Y-110608389D01*
X64015374Y-110608379D01*
X63511126Y-110104131D01*
X63510668Y-110103293D01*
X63509837Y-110102823D01*
X63493964Y-110072702D01*
X63477641Y-110042808D01*
X63477709Y-110041854D01*
X63477264Y-110041010D01*
X63480194Y-110007100D01*
X63482625Y-109973116D01*
X63483225Y-109972036D01*
X63483280Y-109971400D01*
X63485279Y-109968338D01*
X63500651Y-109940677D01*
X63505498Y-109934397D01*
X63530104Y-109909792D01*
X63531492Y-109907882D01*
X76355669Y-109907882D01*
X76355670Y-109907883D01*
X76381059Y-109926329D01*
X76549362Y-110012085D01*
X76728997Y-110070451D01*
X76915553Y-110100000D01*
X77104447Y-110100000D01*
X77291002Y-110070451D01*
X77470637Y-110012085D01*
X77638937Y-109926331D01*
X77664328Y-109907883D01*
X77664328Y-109907882D01*
X77010001Y-109253554D01*
X77010000Y-109253554D01*
X76355669Y-109907882D01*
X63531492Y-109907882D01*
X63655051Y-109737816D01*
X63751557Y-109548412D01*
X63817246Y-109346243D01*
X63850500Y-109136287D01*
X63850500Y-108923713D01*
X63817246Y-108713757D01*
X63803507Y-108671476D01*
X63803072Y-108656263D01*
X63797753Y-108641998D01*
X63802094Y-108622045D01*
X63801511Y-108601637D01*
X63809601Y-108587547D01*
X63812609Y-108573725D01*
X63833754Y-108545480D01*
X63843422Y-108535812D01*
X63904745Y-108502332D01*
X63931097Y-108499500D01*
X75713290Y-108499500D01*
X75780329Y-108519185D01*
G37*
%TD.AperFunction*%
%TA.AperFunction,Conductor*%
G36*
X80870138Y-111620185D02*
G01*
X80915893Y-111672989D01*
X80925837Y-111742147D01*
X80921029Y-111762821D01*
X80919060Y-111768879D01*
X80919060Y-111768880D01*
X80889500Y-111955513D01*
X80889500Y-112144486D01*
X80919059Y-112331118D01*
X80977454Y-112510836D01*
X81036647Y-112627007D01*
X81063240Y-112679199D01*
X81174310Y-112832073D01*
X81307927Y-112965690D01*
X81460801Y-113076760D01*
X81540347Y-113117290D01*
X81629163Y-113162545D01*
X81629165Y-113162545D01*
X81629168Y-113162547D01*
X81724126Y-113193401D01*
X81808881Y-113220940D01*
X81995514Y-113250500D01*
X81995519Y-113250500D01*
X82184486Y-113250500D01*
X82371118Y-113220940D01*
X82371121Y-113220939D01*
X82550832Y-113162547D01*
X82719199Y-113076760D01*
X82719199Y-113076759D01*
X82723540Y-113074548D01*
X82724462Y-113076358D01*
X82780705Y-113060500D01*
X90270398Y-113060500D01*
X90337437Y-113080185D01*
X90380883Y-113128205D01*
X90387715Y-113141614D01*
X90508028Y-113307213D01*
X90652786Y-113451971D01*
X90807749Y-113564556D01*
X90818390Y-113572287D01*
X90909840Y-113618883D01*
X90911080Y-113619515D01*
X90961876Y-113667490D01*
X90978671Y-113735311D01*
X90956134Y-113801446D01*
X90911080Y-113840485D01*
X90818386Y-113887715D01*
X90652786Y-114008028D01*
X90508028Y-114152786D01*
X90387715Y-114318385D01*
X90380883Y-114331795D01*
X90332909Y-114382591D01*
X90270398Y-114399500D01*
X83038625Y-114399500D01*
X82971586Y-114379815D01*
X82950944Y-114363181D01*
X82872075Y-114284312D01*
X82872073Y-114284310D01*
X82719199Y-114173240D01*
X82679046Y-114152781D01*
X82550836Y-114087454D01*
X82371118Y-114029059D01*
X82184486Y-113999500D01*
X82184481Y-113999500D01*
X81995519Y-113999500D01*
X81995514Y-113999500D01*
X81808881Y-114029059D01*
X81629163Y-114087454D01*
X81460800Y-114173240D01*
X81401552Y-114216287D01*
X81307927Y-114284310D01*
X81307925Y-114284312D01*
X81307924Y-114284312D01*
X81174312Y-114417924D01*
X81174312Y-114417925D01*
X81174310Y-114417927D01*
X81130736Y-114477901D01*
X81063240Y-114570800D01*
X80977454Y-114739163D01*
X80919059Y-114918881D01*
X80889500Y-115105513D01*
X80889500Y-115294486D01*
X80919059Y-115481118D01*
X80977454Y-115660836D01*
X81051019Y-115805214D01*
X81063240Y-115829199D01*
X81174310Y-115982073D01*
X81307927Y-116115690D01*
X81460801Y-116226760D01*
X81535243Y-116264690D01*
X81629163Y-116312545D01*
X81629165Y-116312545D01*
X81629168Y-116312547D01*
X81718109Y-116341446D01*
X81808881Y-116370940D01*
X81995514Y-116400500D01*
X81995519Y-116400500D01*
X82184486Y-116400500D01*
X82371118Y-116370940D01*
X82395730Y-116362943D01*
X82550832Y-116312547D01*
X82719199Y-116226760D01*
X82872073Y-116115690D01*
X83005690Y-115982073D01*
X83116760Y-115829199D01*
X83198790Y-115668204D01*
X83246764Y-115617409D01*
X83309275Y-115600500D01*
X90270398Y-115600500D01*
X90337437Y-115620185D01*
X90380883Y-115668205D01*
X90387715Y-115681614D01*
X90508028Y-115847213D01*
X90652786Y-115991971D01*
X90800790Y-116099500D01*
X90818390Y-116112287D01*
X90909840Y-116158883D01*
X90911080Y-116159515D01*
X90961876Y-116207490D01*
X90978671Y-116275311D01*
X90956134Y-116341446D01*
X90911080Y-116380485D01*
X90818386Y-116427715D01*
X90652786Y-116548028D01*
X90508028Y-116692786D01*
X90387715Y-116858385D01*
X90380883Y-116871795D01*
X90332909Y-116922591D01*
X90270398Y-116939500D01*
X82986669Y-116939500D01*
X82986653Y-116939499D01*
X82979057Y-116939499D01*
X82820943Y-116939499D01*
X82721135Y-116966243D01*
X82668210Y-116980424D01*
X82668209Y-116980425D01*
X82625526Y-117005068D01*
X82625517Y-117005074D01*
X82618095Y-117009360D01*
X82531284Y-117059480D01*
X82445403Y-117145360D01*
X82439344Y-117150080D01*
X82413702Y-117160206D01*
X82389506Y-117173418D01*
X82379525Y-117173703D01*
X82374358Y-117175744D01*
X82365986Y-117174089D01*
X82343751Y-117174725D01*
X82184486Y-117149500D01*
X82184481Y-117149500D01*
X81995519Y-117149500D01*
X81995514Y-117149500D01*
X81808881Y-117179059D01*
X81629163Y-117237454D01*
X81460800Y-117323240D01*
X81408256Y-117361416D01*
X81307927Y-117434310D01*
X81307925Y-117434312D01*
X81307924Y-117434312D01*
X81174312Y-117567924D01*
X81174312Y-117567925D01*
X81174310Y-117567927D01*
X81126610Y-117633579D01*
X81063240Y-117720800D01*
X80977454Y-117889163D01*
X80919059Y-118068881D01*
X80889500Y-118255513D01*
X80889500Y-118444486D01*
X80919059Y-118631118D01*
X80977454Y-118810836D01*
X81036740Y-118927190D01*
X81063240Y-118979199D01*
X81174310Y-119132073D01*
X81307927Y-119265690D01*
X81460801Y-119376760D01*
X81529561Y-119411795D01*
X81629163Y-119462545D01*
X81629165Y-119462545D01*
X81629168Y-119462547D01*
X81681341Y-119479499D01*
X81808881Y-119520940D01*
X81995514Y-119550500D01*
X81995519Y-119550500D01*
X82184486Y-119550500D01*
X82371118Y-119520940D01*
X82416350Y-119506243D01*
X82550832Y-119462547D01*
X82719199Y-119376760D01*
X82872073Y-119265690D01*
X83005690Y-119132073D01*
X83116760Y-118979199D01*
X83202547Y-118810832D01*
X83260940Y-118631118D01*
X83271427Y-118564905D01*
X83290500Y-118444486D01*
X83290500Y-118264500D01*
X83310185Y-118197461D01*
X83362989Y-118151706D01*
X83414500Y-118140500D01*
X90270398Y-118140500D01*
X90337437Y-118160185D01*
X90380883Y-118208205D01*
X90387715Y-118221614D01*
X90508028Y-118387213D01*
X90652786Y-118531971D01*
X90789093Y-118631002D01*
X90818390Y-118652287D01*
X90909840Y-118698883D01*
X90911080Y-118699515D01*
X90961876Y-118747490D01*
X90978671Y-118815311D01*
X90956134Y-118881446D01*
X90911080Y-118920485D01*
X90818386Y-118967715D01*
X90652786Y-119088028D01*
X90508028Y-119232786D01*
X90387715Y-119398385D01*
X90380883Y-119411795D01*
X90332909Y-119462591D01*
X90270398Y-119479500D01*
X83589057Y-119479500D01*
X83430942Y-119479500D01*
X83278215Y-119520423D01*
X83278214Y-119520423D01*
X83278212Y-119520424D01*
X83278209Y-119520425D01*
X83228096Y-119549359D01*
X83228095Y-119549360D01*
X83184689Y-119574420D01*
X83141285Y-119599479D01*
X83141282Y-119599481D01*
X83029478Y-119711286D01*
X82450830Y-120289933D01*
X82389507Y-120323418D01*
X82343751Y-120324725D01*
X82184486Y-120299500D01*
X82184481Y-120299500D01*
X81995519Y-120299500D01*
X81995514Y-120299500D01*
X81808881Y-120329059D01*
X81629163Y-120387454D01*
X81460800Y-120473240D01*
X81392984Y-120522512D01*
X81307927Y-120584310D01*
X81307925Y-120584312D01*
X81307924Y-120584312D01*
X81174312Y-120717924D01*
X81174312Y-120717925D01*
X81174310Y-120717927D01*
X81126610Y-120783579D01*
X81063240Y-120870800D01*
X80977454Y-121039163D01*
X80919059Y-121218881D01*
X80889500Y-121405513D01*
X80889500Y-121594486D01*
X80919059Y-121781118D01*
X80977454Y-121960836D01*
X81038121Y-122079901D01*
X81063240Y-122129199D01*
X81174310Y-122282073D01*
X81307927Y-122415690D01*
X81460801Y-122526760D01*
X81540347Y-122567290D01*
X81629163Y-122612545D01*
X81629165Y-122612545D01*
X81629168Y-122612547D01*
X81725497Y-122643846D01*
X81808881Y-122670940D01*
X81995514Y-122700500D01*
X81995519Y-122700500D01*
X82184486Y-122700500D01*
X82371118Y-122670940D01*
X82372623Y-122670451D01*
X82550832Y-122612547D01*
X82719199Y-122526760D01*
X82872073Y-122415690D01*
X83005690Y-122282073D01*
X83116760Y-122129199D01*
X83202547Y-121960832D01*
X83260940Y-121781118D01*
X83275134Y-121691499D01*
X83290500Y-121594486D01*
X83290500Y-121405513D01*
X83265274Y-121246246D01*
X83274228Y-121176953D01*
X83300063Y-121139170D01*
X83722416Y-120716819D01*
X83783739Y-120683334D01*
X83810097Y-120680500D01*
X90270398Y-120680500D01*
X90337437Y-120700185D01*
X90380883Y-120748205D01*
X90387715Y-120761614D01*
X90508028Y-120927213D01*
X90652786Y-121071971D01*
X90760186Y-121150000D01*
X90818390Y-121192287D01*
X90934607Y-121251503D01*
X91000776Y-121285218D01*
X91000778Y-121285218D01*
X91000781Y-121285220D01*
X91105137Y-121319127D01*
X91195465Y-121348477D01*
X91296557Y-121364488D01*
X91397648Y-121380500D01*
X91397649Y-121380500D01*
X91590901Y-121380500D01*
X91657940Y-121400185D01*
X91703695Y-121452989D01*
X91713639Y-121522147D01*
X91684614Y-121585703D01*
X91678582Y-121592181D01*
X81906584Y-131364181D01*
X81845261Y-131397666D01*
X81818903Y-131400500D01*
X68296710Y-131400500D01*
X68229671Y-131380815D01*
X68183916Y-131328011D01*
X68173972Y-131258853D01*
X68174237Y-131257101D01*
X68200000Y-131094446D01*
X68200000Y-130905552D01*
X68170451Y-130718997D01*
X68112085Y-130539362D01*
X68026329Y-130371059D01*
X68007883Y-130345670D01*
X68007882Y-130345669D01*
X67350000Y-131003551D01*
X67350000Y-130953922D01*
X67326148Y-130864905D01*
X67280070Y-130785095D01*
X67214905Y-130719930D01*
X67135095Y-130673852D01*
X67046078Y-130650000D01*
X66953922Y-130650000D01*
X66864905Y-130673852D01*
X66785095Y-130719930D01*
X66719930Y-130785095D01*
X66673852Y-130864905D01*
X66650000Y-130953922D01*
X66650000Y-131003553D01*
X65992116Y-130345669D01*
X65992116Y-130345670D01*
X65973669Y-130371060D01*
X65887914Y-130539362D01*
X65829548Y-130718997D01*
X65800000Y-130905552D01*
X65800000Y-131094446D01*
X65825763Y-131257101D01*
X65816809Y-131326395D01*
X65771813Y-131379847D01*
X65705061Y-131400487D01*
X65703290Y-131400500D01*
X63217217Y-131400500D01*
X63150178Y-131380815D01*
X63104423Y-131328011D01*
X63094479Y-131258853D01*
X63094744Y-131257102D01*
X63120500Y-131094486D01*
X63120500Y-130905513D01*
X63090940Y-130718881D01*
X63042410Y-130569523D01*
X63032547Y-130539168D01*
X63032545Y-130539165D01*
X63032545Y-130539163D01*
X62969856Y-130416130D01*
X62946760Y-130370801D01*
X62835690Y-130217927D01*
X62702073Y-130084310D01*
X62575179Y-129992116D01*
X66345669Y-129992116D01*
X67000000Y-130646446D01*
X67000001Y-130646446D01*
X67654328Y-129992116D01*
X67628933Y-129973666D01*
X67460637Y-129887914D01*
X67281002Y-129829548D01*
X67094447Y-129800000D01*
X66905553Y-129800000D01*
X66718997Y-129829548D01*
X66539362Y-129887914D01*
X66371060Y-129973669D01*
X66345670Y-129992116D01*
X66345669Y-129992116D01*
X62575179Y-129992116D01*
X62569338Y-129987872D01*
X62567111Y-129986093D01*
X62548623Y-129959710D01*
X62528948Y-129934194D01*
X62528290Y-129930693D01*
X62527015Y-129928873D01*
X62526762Y-129922553D01*
X62520500Y-129889207D01*
X62520500Y-129174468D01*
X62540185Y-129107429D01*
X62556814Y-129086792D01*
X69135724Y-122507882D01*
X76355669Y-122507882D01*
X76355670Y-122507883D01*
X76381059Y-122526329D01*
X76549362Y-122612085D01*
X76728997Y-122670451D01*
X76915553Y-122700000D01*
X77104447Y-122700000D01*
X77291002Y-122670451D01*
X77470637Y-122612085D01*
X77638937Y-122526331D01*
X77664328Y-122507883D01*
X77664328Y-122507882D01*
X77010001Y-121853554D01*
X77010000Y-121853554D01*
X76355669Y-122507882D01*
X69135724Y-122507882D01*
X70238054Y-121405552D01*
X75810000Y-121405552D01*
X75810000Y-121594447D01*
X75839548Y-121781002D01*
X75897914Y-121960637D01*
X75983666Y-122128933D01*
X76002116Y-122154328D01*
X76656446Y-121500000D01*
X76656446Y-121499999D01*
X76610369Y-121453922D01*
X76660000Y-121453922D01*
X76660000Y-121546078D01*
X76683852Y-121635095D01*
X76729930Y-121714905D01*
X76795095Y-121780070D01*
X76874905Y-121826148D01*
X76963922Y-121850000D01*
X77056078Y-121850000D01*
X77145095Y-121826148D01*
X77224905Y-121780070D01*
X77290070Y-121714905D01*
X77336148Y-121635095D01*
X77360000Y-121546078D01*
X77360000Y-121499999D01*
X77363554Y-121499999D01*
X77363554Y-121500000D01*
X78017882Y-122154328D01*
X78017883Y-122154328D01*
X78036331Y-122128937D01*
X78122085Y-121960637D01*
X78180451Y-121781002D01*
X78210000Y-121594447D01*
X78210000Y-121405552D01*
X78180451Y-121218997D01*
X78122085Y-121039362D01*
X78036329Y-120871059D01*
X78017883Y-120845670D01*
X78017882Y-120845669D01*
X77363554Y-121499999D01*
X77360000Y-121499999D01*
X77360000Y-121453922D01*
X77336148Y-121364905D01*
X77290070Y-121285095D01*
X77224905Y-121219930D01*
X77145095Y-121173852D01*
X77056078Y-121150000D01*
X76963922Y-121150000D01*
X76874905Y-121173852D01*
X76795095Y-121219930D01*
X76729930Y-121285095D01*
X76683852Y-121364905D01*
X76660000Y-121453922D01*
X76610369Y-121453922D01*
X76002116Y-120845669D01*
X76002116Y-120845670D01*
X75983669Y-120871060D01*
X75897914Y-121039362D01*
X75839548Y-121218997D01*
X75810000Y-121405552D01*
X70238054Y-121405552D01*
X71151490Y-120492116D01*
X76355669Y-120492116D01*
X77010000Y-121146446D01*
X77010001Y-121146446D01*
X77664328Y-120492116D01*
X77638933Y-120473666D01*
X77470637Y-120387914D01*
X77291002Y-120329548D01*
X77104447Y-120300000D01*
X76915553Y-120300000D01*
X76728997Y-120329548D01*
X76549362Y-120387914D01*
X76381060Y-120473669D01*
X76355670Y-120492116D01*
X76355669Y-120492116D01*
X71151490Y-120492116D01*
X72285724Y-119357882D01*
X76355669Y-119357882D01*
X76355670Y-119357883D01*
X76381059Y-119376329D01*
X76549362Y-119462085D01*
X76728997Y-119520451D01*
X76915553Y-119550000D01*
X77104447Y-119550000D01*
X77291002Y-119520451D01*
X77470637Y-119462085D01*
X77638937Y-119376331D01*
X77664328Y-119357883D01*
X77664328Y-119357882D01*
X77010001Y-118703554D01*
X77010000Y-118703554D01*
X76355669Y-119357882D01*
X72285724Y-119357882D01*
X73388054Y-118255552D01*
X75810000Y-118255552D01*
X75810000Y-118444447D01*
X75839548Y-118631002D01*
X75897914Y-118810637D01*
X75983666Y-118978933D01*
X76002116Y-119004328D01*
X76656446Y-118350000D01*
X76656446Y-118349999D01*
X76610369Y-118303922D01*
X76660000Y-118303922D01*
X76660000Y-118396078D01*
X76683852Y-118485095D01*
X76729930Y-118564905D01*
X76795095Y-118630070D01*
X76874905Y-118676148D01*
X76963922Y-118700000D01*
X77056078Y-118700000D01*
X77145095Y-118676148D01*
X77224905Y-118630070D01*
X77290070Y-118564905D01*
X77336148Y-118485095D01*
X77360000Y-118396078D01*
X77360000Y-118349999D01*
X77363554Y-118349999D01*
X77363554Y-118350000D01*
X78017882Y-119004328D01*
X78017883Y-119004328D01*
X78036331Y-118978937D01*
X78122085Y-118810637D01*
X78180451Y-118631002D01*
X78210000Y-118444447D01*
X78210000Y-118255552D01*
X78180451Y-118068997D01*
X78122085Y-117889362D01*
X78036329Y-117721059D01*
X78017883Y-117695670D01*
X78017882Y-117695669D01*
X77363554Y-118349999D01*
X77360000Y-118349999D01*
X77360000Y-118303922D01*
X77336148Y-118214905D01*
X77290070Y-118135095D01*
X77224905Y-118069930D01*
X77145095Y-118023852D01*
X77056078Y-118000000D01*
X76963922Y-118000000D01*
X76874905Y-118023852D01*
X76795095Y-118069930D01*
X76729930Y-118135095D01*
X76683852Y-118214905D01*
X76660000Y-118303922D01*
X76610369Y-118303922D01*
X76002116Y-117695669D01*
X76002116Y-117695670D01*
X75983669Y-117721060D01*
X75897914Y-117889362D01*
X75839548Y-118068997D01*
X75810000Y-118255552D01*
X73388054Y-118255552D01*
X74301490Y-117342116D01*
X76355669Y-117342116D01*
X77010000Y-117996446D01*
X77010001Y-117996446D01*
X77664328Y-117342116D01*
X77638933Y-117323666D01*
X77470637Y-117237914D01*
X77291002Y-117179548D01*
X77104447Y-117150000D01*
X76915553Y-117150000D01*
X76728997Y-117179548D01*
X76549362Y-117237914D01*
X76381060Y-117323669D01*
X76355670Y-117342116D01*
X76355669Y-117342116D01*
X74301490Y-117342116D01*
X75435724Y-116207882D01*
X76355669Y-116207882D01*
X76355670Y-116207883D01*
X76381059Y-116226329D01*
X76549362Y-116312085D01*
X76728997Y-116370451D01*
X76915553Y-116400000D01*
X77104447Y-116400000D01*
X77291002Y-116370451D01*
X77470637Y-116312085D01*
X77638937Y-116226331D01*
X77664328Y-116207883D01*
X77664328Y-116207882D01*
X77010001Y-115553554D01*
X77010000Y-115553554D01*
X76355669Y-116207882D01*
X75435724Y-116207882D01*
X75809894Y-115833712D01*
X75871213Y-115800230D01*
X75940905Y-115805214D01*
X75996838Y-115847086D01*
X75997890Y-115848511D01*
X76002116Y-115854328D01*
X76660000Y-115196445D01*
X76660000Y-115246078D01*
X76683852Y-115335095D01*
X76729930Y-115414905D01*
X76795095Y-115480070D01*
X76874905Y-115526148D01*
X76963922Y-115550000D01*
X77056078Y-115550000D01*
X77145095Y-115526148D01*
X77224905Y-115480070D01*
X77290070Y-115414905D01*
X77336148Y-115335095D01*
X77360000Y-115246078D01*
X77360000Y-115199999D01*
X77363554Y-115199999D01*
X77363554Y-115200000D01*
X78017882Y-115854328D01*
X78017883Y-115854328D01*
X78036331Y-115828937D01*
X78122085Y-115660637D01*
X78180451Y-115481002D01*
X78210000Y-115294447D01*
X78210000Y-115105552D01*
X78180451Y-114918997D01*
X78122085Y-114739362D01*
X78036329Y-114571059D01*
X78017883Y-114545670D01*
X78017882Y-114545669D01*
X77363554Y-115199999D01*
X77360000Y-115199999D01*
X77360000Y-115153922D01*
X77336148Y-115064905D01*
X77290070Y-114985095D01*
X77224905Y-114919930D01*
X77145095Y-114873852D01*
X77056078Y-114850000D01*
X77006446Y-114850000D01*
X77664328Y-114192116D01*
X77658511Y-114187890D01*
X77615845Y-114132560D01*
X77609866Y-114062946D01*
X77642471Y-114001151D01*
X77643568Y-114000038D01*
X80006788Y-111636819D01*
X80068111Y-111603334D01*
X80094469Y-111600500D01*
X80803099Y-111600500D01*
X80870138Y-111620185D01*
G37*
%TD.AperFunction*%
%TA.AperFunction,Conductor*%
G36*
X45615270Y-123241717D02*
G01*
X45615270Y-123241716D01*
X45654622Y-123187555D01*
X45659232Y-123178507D01*
X45707205Y-123127709D01*
X45775025Y-123110912D01*
X45841161Y-123133447D01*
X45880204Y-123178504D01*
X45884949Y-123187817D01*
X46009890Y-123359786D01*
X46160213Y-123510109D01*
X46332182Y-123635050D01*
X46340946Y-123639516D01*
X46391742Y-123687491D01*
X46408536Y-123755312D01*
X46385998Y-123821447D01*
X46340946Y-123860484D01*
X46332182Y-123864949D01*
X46160213Y-123989890D01*
X46009890Y-124140213D01*
X45884949Y-124312182D01*
X45880484Y-124320946D01*
X45832509Y-124371742D01*
X45764688Y-124388536D01*
X45698553Y-124365998D01*
X45659516Y-124320946D01*
X45655050Y-124312182D01*
X45530109Y-124140213D01*
X45379786Y-123989890D01*
X45207817Y-123864949D01*
X45198504Y-123860204D01*
X45147707Y-123812230D01*
X45130912Y-123744409D01*
X45153449Y-123678274D01*
X45198507Y-123639232D01*
X45207555Y-123634622D01*
X45261716Y-123595270D01*
X45261717Y-123595270D01*
X44629408Y-122962962D01*
X44692993Y-122945925D01*
X44807007Y-122880099D01*
X44900099Y-122787007D01*
X44965925Y-122672993D01*
X44982962Y-122609408D01*
X45615270Y-123241717D01*
G37*
%TD.AperFunction*%
%TA.AperFunction,Conductor*%
G36*
X43352703Y-116190144D02*
G01*
X43359181Y-116196176D01*
X43591279Y-116428274D01*
X43591286Y-116428287D01*
X43591289Y-116428285D01*
X43595619Y-116432615D01*
X43595620Y-116432616D01*
X43707424Y-116544420D01*
X43713684Y-116548034D01*
X43753364Y-116570943D01*
X43753363Y-116570943D01*
X43753366Y-116570944D01*
X43844349Y-116623474D01*
X43844350Y-116623475D01*
X43844352Y-116623475D01*
X43844355Y-116623477D01*
X43997083Y-116664401D01*
X43997086Y-116664401D01*
X44066593Y-116664401D01*
X44133632Y-116684086D01*
X44154274Y-116700720D01*
X44370591Y-116917037D01*
X44307007Y-116934075D01*
X44192993Y-116999901D01*
X44099901Y-117092993D01*
X44034075Y-117207007D01*
X44017037Y-117270591D01*
X43416668Y-116670222D01*
X43305990Y-116702272D01*
X43276374Y-116702161D01*
X43246876Y-116704695D01*
X43241829Y-116702032D01*
X43236121Y-116702011D01*
X43211269Y-116685908D01*
X43185080Y-116672090D01*
X43182273Y-116667119D01*
X43177485Y-116664017D01*
X43165284Y-116637036D01*
X43150723Y-116611251D01*
X43149736Y-116602652D01*
X43148697Y-116600354D01*
X43149133Y-116597397D01*
X43147500Y-116583165D01*
X43147500Y-116283857D01*
X43167185Y-116216818D01*
X43219989Y-116171063D01*
X43289147Y-116161119D01*
X43352703Y-116190144D01*
G37*
%TD.AperFunction*%
%TA.AperFunction,Conductor*%
G36*
X60476942Y-107860185D02*
G01*
X60497584Y-107876819D01*
X61166241Y-108545476D01*
X61199726Y-108606799D01*
X61196492Y-108671473D01*
X61182753Y-108713757D01*
X61167872Y-108807715D01*
X61149500Y-108923713D01*
X61149500Y-109136287D01*
X61182754Y-109346243D01*
X61248443Y-109548412D01*
X61266413Y-109583681D01*
X61294195Y-109638205D01*
X61307091Y-109706874D01*
X61280815Y-109771615D01*
X61223709Y-109811872D01*
X61183710Y-109818500D01*
X51751940Y-109818500D01*
X51711019Y-109829464D01*
X51711019Y-109829465D01*
X51673751Y-109839451D01*
X51599214Y-109859423D01*
X51599209Y-109859426D01*
X51462290Y-109938475D01*
X51462282Y-109938481D01*
X49735339Y-111665425D01*
X49674016Y-111698910D01*
X49671850Y-111699361D01*
X49516508Y-111730261D01*
X49516498Y-111730264D01*
X49370827Y-111790602D01*
X49370814Y-111790609D01*
X49239711Y-111878210D01*
X49239707Y-111878213D01*
X49128213Y-111989707D01*
X49128210Y-111989711D01*
X49040609Y-112120814D01*
X49040602Y-112120827D01*
X48980264Y-112266498D01*
X48980261Y-112266510D01*
X48949500Y-112421153D01*
X48949500Y-112578846D01*
X48978037Y-112722309D01*
X48971810Y-112791900D01*
X48928947Y-112847078D01*
X48863057Y-112870322D01*
X48856420Y-112870500D01*
X48451277Y-112870500D01*
X48384238Y-112850815D01*
X48338483Y-112798011D01*
X48328539Y-112728853D01*
X48333346Y-112708182D01*
X48356757Y-112636130D01*
X48356757Y-112636127D01*
X48390000Y-112426246D01*
X48390000Y-112213753D01*
X48356757Y-112003872D01*
X48356757Y-112003869D01*
X48291095Y-111801782D01*
X48194624Y-111612449D01*
X48155270Y-111558282D01*
X48155269Y-111558282D01*
X47522962Y-112190589D01*
X47505925Y-112127007D01*
X47440099Y-112012993D01*
X47347007Y-111919901D01*
X47232993Y-111854075D01*
X47169407Y-111837036D01*
X47801716Y-111204728D01*
X47747547Y-111165373D01*
X47747547Y-111165372D01*
X47738500Y-111160763D01*
X47687706Y-111112788D01*
X47670912Y-111044966D01*
X47693451Y-110978832D01*
X47738508Y-110939793D01*
X47747816Y-110935051D01*
X47849121Y-110861449D01*
X47919786Y-110810109D01*
X47919788Y-110810106D01*
X47919792Y-110810104D01*
X48070104Y-110659792D01*
X48070106Y-110659788D01*
X48070109Y-110659786D01*
X48195048Y-110487820D01*
X48195047Y-110487820D01*
X48195051Y-110487816D01*
X48291557Y-110298412D01*
X48357246Y-110096243D01*
X48390500Y-109886287D01*
X48390500Y-109673713D01*
X48357246Y-109463757D01*
X48291557Y-109261588D01*
X48195051Y-109072184D01*
X48195049Y-109072181D01*
X48195048Y-109072179D01*
X48070109Y-108900213D01*
X47919786Y-108749890D01*
X47747820Y-108624951D01*
X47747115Y-108624591D01*
X47739054Y-108620485D01*
X47688259Y-108572512D01*
X47671463Y-108504692D01*
X47693999Y-108438556D01*
X47739054Y-108399515D01*
X47747816Y-108395051D01*
X47828500Y-108336431D01*
X47919786Y-108270109D01*
X47919788Y-108270106D01*
X47919792Y-108270104D01*
X48070104Y-108119792D01*
X48070106Y-108119788D01*
X48070109Y-108119786D01*
X48128661Y-108039193D01*
X48195051Y-107947816D01*
X48195349Y-107947230D01*
X48215235Y-107908205D01*
X48263209Y-107857409D01*
X48325719Y-107840500D01*
X60409903Y-107840500D01*
X60476942Y-107860185D01*
G37*
%TD.AperFunction*%
%TA.AperFunction,Conductor*%
G36*
X100606273Y-88512564D02*
G01*
X100654969Y-88562669D01*
X100669300Y-88620537D01*
X100669300Y-108425653D01*
X100649615Y-108492692D01*
X100596811Y-108538447D01*
X100527653Y-108548391D01*
X100464097Y-108519366D01*
X100457619Y-108513334D01*
X100211549Y-108267264D01*
X100178064Y-108205941D01*
X100183048Y-108136249D01*
X100198913Y-108106697D01*
X100231857Y-108061353D01*
X100324755Y-107879031D01*
X100387990Y-107684417D01*
X100420000Y-107482317D01*
X100420000Y-107277682D01*
X100387990Y-107075582D01*
X100324755Y-106880968D01*
X100231859Y-106698650D01*
X100199474Y-106654077D01*
X100199474Y-106654076D01*
X99520000Y-107333551D01*
X99520000Y-107327339D01*
X99492741Y-107225606D01*
X99440080Y-107134394D01*
X99365606Y-107059920D01*
X99274394Y-107007259D01*
X99172661Y-106980000D01*
X99166446Y-106980000D01*
X99845922Y-106300524D01*
X99845921Y-106300523D01*
X99801359Y-106268147D01*
X99801350Y-106268141D01*
X99708369Y-106220765D01*
X99657573Y-106172790D01*
X99640778Y-106104969D01*
X99663315Y-106038835D01*
X99708370Y-105999795D01*
X99750425Y-105978367D01*
X99801610Y-105952287D01*
X99875536Y-105898577D01*
X99967213Y-105831971D01*
X99967215Y-105831968D01*
X99967219Y-105831966D01*
X100111966Y-105687219D01*
X100111968Y-105687215D01*
X100111971Y-105687213D01*
X100175334Y-105600000D01*
X100232287Y-105521610D01*
X100325220Y-105339219D01*
X100388477Y-105144534D01*
X100420500Y-104942352D01*
X100420500Y-104737648D01*
X100416780Y-104714161D01*
X100388477Y-104535465D01*
X100325218Y-104340776D01*
X100253488Y-104200000D01*
X100232287Y-104158390D01*
X100224556Y-104147749D01*
X100111971Y-103992786D01*
X99967213Y-103848028D01*
X99801610Y-103727712D01*
X99788200Y-103720879D01*
X99777138Y-103710431D01*
X99763297Y-103704110D01*
X99752255Y-103686928D01*
X99737406Y-103672903D01*
X99733165Y-103657223D01*
X99725523Y-103645332D01*
X99720500Y-103610397D01*
X99720500Y-103529601D01*
X99740185Y-103462562D01*
X99788206Y-103419116D01*
X99801610Y-103412287D01*
X99967219Y-103291966D01*
X100111966Y-103147219D01*
X100111968Y-103147215D01*
X100111971Y-103147213D01*
X100189427Y-103040602D01*
X100232287Y-102981610D01*
X100325220Y-102799219D01*
X100388477Y-102604534D01*
X100420500Y-102402352D01*
X100420500Y-102197648D01*
X100397227Y-102050711D01*
X100388477Y-101995465D01*
X100341733Y-101851602D01*
X100325220Y-101800781D01*
X100325218Y-101800778D01*
X100325218Y-101800776D01*
X100254400Y-101661790D01*
X100232287Y-101618390D01*
X100203519Y-101578794D01*
X100111971Y-101452786D01*
X99967213Y-101308028D01*
X99801613Y-101187715D01*
X99801612Y-101187714D01*
X99801610Y-101187713D01*
X99744653Y-101158691D01*
X99619223Y-101094781D01*
X99424534Y-101031522D01*
X99246104Y-101003262D01*
X99222352Y-100999500D01*
X99017648Y-100999500D01*
X98999778Y-101002330D01*
X98993895Y-101003262D01*
X98924601Y-100994305D01*
X98871151Y-100949307D01*
X98850513Y-100882555D01*
X98850500Y-100880788D01*
X98850500Y-88634923D01*
X98870185Y-88567884D01*
X98922989Y-88522129D01*
X98992147Y-88512185D01*
X99047387Y-88534606D01*
X99094855Y-88569095D01*
X99270164Y-88658418D01*
X99457294Y-88719221D01*
X99651618Y-88750000D01*
X99848382Y-88750000D01*
X100042705Y-88719221D01*
X100229835Y-88658418D01*
X100405144Y-88569095D01*
X100472413Y-88520220D01*
X100538219Y-88496739D01*
X100606273Y-88512564D01*
G37*
%TD.AperFunction*%
%TA.AperFunction,Conductor*%
G36*
X75795330Y-101418185D02*
G01*
X75841085Y-101470989D01*
X75851029Y-101540147D01*
X75838775Y-101578796D01*
X75807915Y-101639360D01*
X75749548Y-101818997D01*
X75720000Y-102005552D01*
X75720000Y-102194447D01*
X75749548Y-102381002D01*
X75807914Y-102560637D01*
X75893666Y-102728933D01*
X75912116Y-102754328D01*
X76570000Y-102096444D01*
X76570000Y-102146078D01*
X76593852Y-102235095D01*
X76639930Y-102314905D01*
X76705095Y-102380070D01*
X76784905Y-102426148D01*
X76873922Y-102450000D01*
X76966078Y-102450000D01*
X77055095Y-102426148D01*
X77134905Y-102380070D01*
X77200070Y-102314905D01*
X77246148Y-102235095D01*
X77270000Y-102146078D01*
X77270000Y-102096446D01*
X77927882Y-102754328D01*
X77927883Y-102754328D01*
X77946331Y-102728937D01*
X78032085Y-102560637D01*
X78090451Y-102381002D01*
X78120000Y-102194447D01*
X78120000Y-102005552D01*
X78090451Y-101818997D01*
X78032084Y-101639360D01*
X78001225Y-101578796D01*
X77988328Y-101510127D01*
X78014604Y-101445386D01*
X78071710Y-101405129D01*
X78111709Y-101398500D01*
X80807729Y-101398500D01*
X80874768Y-101418185D01*
X80920523Y-101470989D01*
X80930467Y-101540147D01*
X80918214Y-101578794D01*
X80887455Y-101639160D01*
X80829059Y-101818881D01*
X80799500Y-102005513D01*
X80799500Y-102194486D01*
X80829059Y-102381118D01*
X80887454Y-102560836D01*
X80957569Y-102698443D01*
X80973240Y-102729199D01*
X81084310Y-102882073D01*
X81217927Y-103015690D01*
X81370801Y-103126760D01*
X81432162Y-103158025D01*
X81539163Y-103212545D01*
X81539165Y-103212545D01*
X81539168Y-103212547D01*
X81622757Y-103239707D01*
X81718881Y-103270940D01*
X81905514Y-103300500D01*
X81905519Y-103300500D01*
X82094486Y-103300500D01*
X82281118Y-103270940D01*
X82282623Y-103270451D01*
X82460832Y-103212547D01*
X82629199Y-103126760D01*
X82782073Y-103015690D01*
X82915690Y-102882073D01*
X83026760Y-102729199D01*
X83112547Y-102560832D01*
X83170940Y-102381118D01*
X83179432Y-102327503D01*
X83200500Y-102194486D01*
X83200500Y-102005513D01*
X83170940Y-101818881D01*
X83132310Y-101699992D01*
X83112547Y-101639168D01*
X83112545Y-101639165D01*
X83112544Y-101639160D01*
X83081786Y-101578794D01*
X83068890Y-101510125D01*
X83095167Y-101445385D01*
X83152273Y-101405128D01*
X83192271Y-101398500D01*
X86702903Y-101398500D01*
X86769942Y-101418185D01*
X86815697Y-101470989D01*
X86825641Y-101540147D01*
X86796616Y-101603703D01*
X86790584Y-101610181D01*
X83343161Y-105057602D01*
X83281838Y-105091087D01*
X83212146Y-105086103D01*
X83156213Y-105044231D01*
X83144995Y-105026216D01*
X83116760Y-104970801D01*
X83005690Y-104817927D01*
X82872073Y-104684310D01*
X82719199Y-104573240D01*
X82677482Y-104551984D01*
X82550836Y-104487454D01*
X82371118Y-104429059D01*
X82184486Y-104399500D01*
X82184481Y-104399500D01*
X81995519Y-104399500D01*
X81995514Y-104399500D01*
X81808881Y-104429059D01*
X81629163Y-104487454D01*
X81460800Y-104573240D01*
X81374004Y-104636302D01*
X81307927Y-104684310D01*
X81307925Y-104684312D01*
X81307924Y-104684312D01*
X81174312Y-104817924D01*
X81174312Y-104817925D01*
X81174310Y-104817927D01*
X81134315Y-104872975D01*
X81063240Y-104970800D01*
X80977454Y-105139163D01*
X80919059Y-105318881D01*
X80889500Y-105505513D01*
X80889500Y-105694486D01*
X80919059Y-105881118D01*
X80977454Y-106060836D01*
X81043132Y-106189735D01*
X81063240Y-106229199D01*
X81174310Y-106382073D01*
X81307927Y-106515690D01*
X81460801Y-106626760D01*
X81516216Y-106654995D01*
X81567012Y-106702969D01*
X81583807Y-106770790D01*
X81561270Y-106836925D01*
X81547602Y-106853161D01*
X81138584Y-107262181D01*
X81077261Y-107295666D01*
X81050903Y-107298500D01*
X63806100Y-107298500D01*
X63739061Y-107278815D01*
X63693306Y-107226011D01*
X63683362Y-107156853D01*
X63695615Y-107118205D01*
X63725312Y-107059920D01*
X63751557Y-107008412D01*
X63817246Y-106806243D01*
X63848664Y-106607882D01*
X76355669Y-106607882D01*
X76355670Y-106607883D01*
X76381059Y-106626329D01*
X76549362Y-106712085D01*
X76728997Y-106770451D01*
X76915553Y-106800000D01*
X77104447Y-106800000D01*
X77291002Y-106770451D01*
X77470637Y-106712085D01*
X77638937Y-106626331D01*
X77664328Y-106607883D01*
X77664328Y-106607882D01*
X77010001Y-105953554D01*
X77010000Y-105953554D01*
X76355669Y-106607882D01*
X63848664Y-106607882D01*
X63850500Y-106596287D01*
X63850500Y-106383713D01*
X63817246Y-106173757D01*
X63793870Y-106101816D01*
X63793067Y-106073698D01*
X63789064Y-106045853D01*
X63792083Y-106039241D01*
X63791876Y-106031977D01*
X63806402Y-106007887D01*
X63818089Y-105982297D01*
X63824202Y-105978367D01*
X63827956Y-105972144D01*
X63853202Y-105959731D01*
X63876867Y-105944523D01*
X63887137Y-105943046D01*
X63890657Y-105941316D01*
X63911802Y-105939500D01*
X64074331Y-105939500D01*
X64074347Y-105939501D01*
X64081943Y-105939501D01*
X64240054Y-105939501D01*
X64240057Y-105939501D01*
X64392785Y-105898577D01*
X64442904Y-105869639D01*
X64529716Y-105819520D01*
X64641520Y-105707716D01*
X64641520Y-105707714D01*
X64651728Y-105697507D01*
X64651729Y-105697504D01*
X64843681Y-105505552D01*
X75810000Y-105505552D01*
X75810000Y-105694447D01*
X75839548Y-105881002D01*
X75897914Y-106060637D01*
X75983666Y-106228933D01*
X76002116Y-106254328D01*
X76656446Y-105600000D01*
X76656446Y-105599999D01*
X76610369Y-105553922D01*
X76660000Y-105553922D01*
X76660000Y-105646078D01*
X76683852Y-105735095D01*
X76729930Y-105814905D01*
X76795095Y-105880070D01*
X76874905Y-105926148D01*
X76963922Y-105950000D01*
X77056078Y-105950000D01*
X77145095Y-105926148D01*
X77224905Y-105880070D01*
X77290070Y-105814905D01*
X77336148Y-105735095D01*
X77360000Y-105646078D01*
X77360000Y-105599999D01*
X77363554Y-105599999D01*
X77363554Y-105600000D01*
X78017882Y-106254328D01*
X78017883Y-106254328D01*
X78036331Y-106228937D01*
X78122085Y-106060637D01*
X78180451Y-105881002D01*
X78210000Y-105694447D01*
X78210000Y-105505552D01*
X78180451Y-105318997D01*
X78122085Y-105139362D01*
X78036329Y-104971059D01*
X78017883Y-104945670D01*
X78017882Y-104945669D01*
X77363554Y-105599999D01*
X77360000Y-105599999D01*
X77360000Y-105553922D01*
X77336148Y-105464905D01*
X77290070Y-105385095D01*
X77224905Y-105319930D01*
X77145095Y-105273852D01*
X77056078Y-105250000D01*
X76963922Y-105250000D01*
X76874905Y-105273852D01*
X76795095Y-105319930D01*
X76729930Y-105385095D01*
X76683852Y-105464905D01*
X76660000Y-105553922D01*
X76610369Y-105553922D01*
X76002116Y-104945669D01*
X76002116Y-104945670D01*
X75983669Y-104971060D01*
X75897914Y-105139362D01*
X75839548Y-105318997D01*
X75810000Y-105505552D01*
X64843681Y-105505552D01*
X65757118Y-104592116D01*
X76355669Y-104592116D01*
X77010000Y-105246446D01*
X77010001Y-105246446D01*
X77664328Y-104592116D01*
X77638933Y-104573666D01*
X77470637Y-104487914D01*
X77291002Y-104429548D01*
X77104447Y-104400000D01*
X76915553Y-104400000D01*
X76728997Y-104429548D01*
X76549362Y-104487914D01*
X76381060Y-104573669D01*
X76355670Y-104592116D01*
X76355669Y-104592116D01*
X65757118Y-104592116D01*
X65764662Y-104584572D01*
X65781171Y-104575558D01*
X65794691Y-104562471D01*
X65824343Y-104551984D01*
X65825983Y-104551089D01*
X65827955Y-104550676D01*
X65828832Y-104550500D01*
X65828842Y-104550500D01*
X65983497Y-104519737D01*
X66107403Y-104468414D01*
X66129172Y-104459397D01*
X66129172Y-104459396D01*
X66129179Y-104459394D01*
X66260289Y-104371789D01*
X66371789Y-104260289D01*
X66459394Y-104129179D01*
X66519737Y-103983497D01*
X66550500Y-103828842D01*
X66550500Y-103671158D01*
X66550500Y-103671155D01*
X66550499Y-103671153D01*
X66534650Y-103591476D01*
X66519737Y-103516503D01*
X66500451Y-103469942D01*
X66459397Y-103370827D01*
X66459390Y-103370814D01*
X66371789Y-103239711D01*
X66371786Y-103239707D01*
X66260292Y-103128213D01*
X66260288Y-103128210D01*
X66229865Y-103107882D01*
X76265669Y-103107882D01*
X76265670Y-103107883D01*
X76291059Y-103126329D01*
X76459362Y-103212085D01*
X76638997Y-103270451D01*
X76825553Y-103300000D01*
X77014447Y-103300000D01*
X77201002Y-103270451D01*
X77380637Y-103212085D01*
X77548937Y-103126331D01*
X77574328Y-103107883D01*
X77574328Y-103107882D01*
X76920001Y-102453554D01*
X76920000Y-102453554D01*
X76265669Y-103107882D01*
X66229865Y-103107882D01*
X66129185Y-103040609D01*
X66129172Y-103040602D01*
X65983501Y-102980264D01*
X65983489Y-102980261D01*
X65828845Y-102949500D01*
X65828842Y-102949500D01*
X65671158Y-102949500D01*
X65671155Y-102949500D01*
X65516510Y-102980261D01*
X65516498Y-102980264D01*
X65370827Y-103040602D01*
X65370814Y-103040609D01*
X65239711Y-103128210D01*
X65239707Y-103128213D01*
X65128213Y-103239707D01*
X65128210Y-103239711D01*
X65040609Y-103370814D01*
X65040602Y-103370827D01*
X64980264Y-103516498D01*
X64980261Y-103516508D01*
X64949361Y-103671850D01*
X64916976Y-103733761D01*
X64915425Y-103735339D01*
X63948584Y-104702181D01*
X63921656Y-104716884D01*
X63895838Y-104733477D01*
X63889637Y-104734368D01*
X63887261Y-104735666D01*
X63860903Y-104738500D01*
X63816290Y-104738500D01*
X63749251Y-104718815D01*
X63703496Y-104666011D01*
X63693552Y-104596853D01*
X63705805Y-104558205D01*
X63717391Y-104535466D01*
X63751557Y-104468412D01*
X63817246Y-104266243D01*
X63850500Y-104056287D01*
X63850500Y-103843713D01*
X63817246Y-103633757D01*
X63803506Y-103591473D01*
X63801512Y-103521635D01*
X63833755Y-103465478D01*
X65864416Y-101434819D01*
X65925739Y-101401334D01*
X65952097Y-101398500D01*
X75728291Y-101398500D01*
X75795330Y-101418185D01*
G37*
%TD.AperFunction*%
%TA.AperFunction,Conductor*%
G36*
X48595703Y-84245384D02*
G01*
X48602181Y-84251416D01*
X50553238Y-86202473D01*
X50586723Y-86263796D01*
X50589557Y-86290154D01*
X50589557Y-88409902D01*
X50569872Y-88476941D01*
X50553238Y-88497583D01*
X49019481Y-90031339D01*
X49019475Y-90031347D01*
X48981121Y-90097780D01*
X48981121Y-90097782D01*
X48940423Y-90168271D01*
X48926781Y-90219181D01*
X48899499Y-90321000D01*
X48899499Y-90321002D01*
X48899499Y-90489103D01*
X48899500Y-90489116D01*
X48899500Y-99670234D01*
X48879815Y-99737273D01*
X48878602Y-99739125D01*
X48790609Y-99870814D01*
X48790602Y-99870827D01*
X48730264Y-100016498D01*
X48730261Y-100016510D01*
X48699500Y-100171153D01*
X48699500Y-100328846D01*
X48730261Y-100483489D01*
X48730264Y-100483501D01*
X48790602Y-100629172D01*
X48790609Y-100629185D01*
X48878210Y-100760288D01*
X48878213Y-100760292D01*
X48989707Y-100871786D01*
X48989711Y-100871789D01*
X49120814Y-100959390D01*
X49120827Y-100959397D01*
X49266498Y-101019735D01*
X49266503Y-101019737D01*
X49421153Y-101050499D01*
X49421156Y-101050500D01*
X49421158Y-101050500D01*
X49578844Y-101050500D01*
X49578845Y-101050499D01*
X49733497Y-101019737D01*
X49879179Y-100959394D01*
X50010289Y-100871789D01*
X50121789Y-100760289D01*
X50209394Y-100629179D01*
X50269737Y-100483497D01*
X50300500Y-100328842D01*
X50300500Y-100171158D01*
X50300500Y-100171155D01*
X50300499Y-100171153D01*
X50271437Y-100025050D01*
X50269737Y-100016503D01*
X50269735Y-100016498D01*
X50209397Y-99870827D01*
X50209390Y-99870814D01*
X50121398Y-99739125D01*
X50100520Y-99672447D01*
X50100500Y-99670234D01*
X50100500Y-90760759D01*
X50120185Y-90693720D01*
X50172989Y-90647965D01*
X50242147Y-90638021D01*
X50293391Y-90657657D01*
X50370821Y-90709394D01*
X50370823Y-90709395D01*
X50370827Y-90709397D01*
X50449894Y-90742147D01*
X50516503Y-90769737D01*
X50671153Y-90800499D01*
X50671156Y-90800500D01*
X50671158Y-90800500D01*
X50828844Y-90800500D01*
X50828845Y-90800499D01*
X50983497Y-90769737D01*
X51129179Y-90709394D01*
X51187388Y-90670500D01*
X51260875Y-90621398D01*
X51327553Y-90600520D01*
X51329766Y-90600500D01*
X61120890Y-90600500D01*
X61187929Y-90620185D01*
X61233684Y-90672989D01*
X61243628Y-90742147D01*
X61238821Y-90762818D01*
X61183242Y-90933869D01*
X61183242Y-90933872D01*
X61150000Y-91143753D01*
X61150000Y-91356246D01*
X61163142Y-91439223D01*
X61154187Y-91508517D01*
X61109191Y-91561969D01*
X61102670Y-91566008D01*
X61060285Y-91590479D01*
X61060282Y-91590481D01*
X49003182Y-103647582D01*
X48983749Y-103658192D01*
X48967014Y-103672695D01*
X48953680Y-103674612D01*
X48941859Y-103681067D01*
X48919773Y-103679487D01*
X48897855Y-103682639D01*
X48885602Y-103677043D01*
X48872167Y-103676083D01*
X48854441Y-103662813D01*
X48834299Y-103653615D01*
X48827015Y-103642282D01*
X48816234Y-103634211D01*
X48808496Y-103613466D01*
X48796524Y-103594837D01*
X48793372Y-103572917D01*
X48791817Y-103568747D01*
X48791501Y-103559902D01*
X48791501Y-103516498D01*
X48791501Y-103469942D01*
X48791500Y-103469938D01*
X48791500Y-101604183D01*
X48750577Y-101451456D01*
X48731368Y-101418185D01*
X48671524Y-101314530D01*
X48671521Y-101314526D01*
X48671520Y-101314524D01*
X48559716Y-101202720D01*
X48559715Y-101202719D01*
X48555385Y-101198389D01*
X48555374Y-101198379D01*
X48051126Y-100694131D01*
X48017641Y-100632808D01*
X48022625Y-100563116D01*
X48051126Y-100518769D01*
X48070104Y-100499792D01*
X48070106Y-100499788D01*
X48070109Y-100499786D01*
X48194304Y-100328844D01*
X48195051Y-100327816D01*
X48291557Y-100138412D01*
X48357246Y-99936243D01*
X48390500Y-99726287D01*
X48390500Y-99513713D01*
X48357246Y-99303757D01*
X48291557Y-99101588D01*
X48195051Y-98912184D01*
X48195049Y-98912181D01*
X48195048Y-98912179D01*
X48070109Y-98740213D01*
X47919786Y-98589890D01*
X47747820Y-98464951D01*
X47747115Y-98464591D01*
X47739054Y-98460485D01*
X47688259Y-98412512D01*
X47671463Y-98344692D01*
X47693999Y-98278556D01*
X47739054Y-98239515D01*
X47747816Y-98235051D01*
X47848110Y-98162184D01*
X47919786Y-98110109D01*
X47919788Y-98110106D01*
X47919792Y-98110104D01*
X48070104Y-97959792D01*
X48070106Y-97959788D01*
X48070109Y-97959786D01*
X48195048Y-97787820D01*
X48195047Y-97787820D01*
X48195051Y-97787816D01*
X48291557Y-97598412D01*
X48357246Y-97396243D01*
X48390500Y-97186287D01*
X48390500Y-96973713D01*
X48357246Y-96763757D01*
X48291557Y-96561588D01*
X48195051Y-96372184D01*
X48195049Y-96372181D01*
X48195048Y-96372179D01*
X48070109Y-96200213D01*
X47919786Y-96049890D01*
X47747820Y-95924951D01*
X47747115Y-95924591D01*
X47739054Y-95920485D01*
X47688259Y-95872512D01*
X47671463Y-95804692D01*
X47693999Y-95738556D01*
X47739054Y-95699515D01*
X47747816Y-95695051D01*
X47848110Y-95622184D01*
X47919786Y-95570109D01*
X47919788Y-95570106D01*
X47919792Y-95570104D01*
X48070104Y-95419792D01*
X48070106Y-95419788D01*
X48070109Y-95419786D01*
X48195048Y-95247820D01*
X48195047Y-95247820D01*
X48195051Y-95247816D01*
X48291557Y-95058412D01*
X48357246Y-94856243D01*
X48390500Y-94646287D01*
X48390500Y-94433713D01*
X48357246Y-94223757D01*
X48291557Y-94021588D01*
X48195051Y-93832184D01*
X48195049Y-93832181D01*
X48195048Y-93832179D01*
X48070109Y-93660213D01*
X47919786Y-93509890D01*
X47747817Y-93384949D01*
X47738504Y-93380204D01*
X47687707Y-93332230D01*
X47670912Y-93264409D01*
X47693449Y-93198274D01*
X47738507Y-93159232D01*
X47747555Y-93154622D01*
X47801716Y-93115270D01*
X47801717Y-93115270D01*
X47169409Y-92482962D01*
X47232993Y-92465925D01*
X47347007Y-92400099D01*
X47440099Y-92307007D01*
X47505925Y-92192993D01*
X47522962Y-92129408D01*
X48155270Y-92761717D01*
X48155270Y-92761716D01*
X48194622Y-92707554D01*
X48291095Y-92518217D01*
X48356757Y-92316130D01*
X48356757Y-92316127D01*
X48390000Y-92106246D01*
X48390000Y-91893753D01*
X48356757Y-91683872D01*
X48356757Y-91683869D01*
X48291095Y-91481782D01*
X48194624Y-91292449D01*
X48155270Y-91238282D01*
X48155269Y-91238282D01*
X47522962Y-91870590D01*
X47505925Y-91807007D01*
X47440099Y-91692993D01*
X47347007Y-91599901D01*
X47232993Y-91534075D01*
X47169407Y-91517036D01*
X47801716Y-90884728D01*
X47747547Y-90845373D01*
X47747547Y-90845372D01*
X47738500Y-90840763D01*
X47687706Y-90792788D01*
X47670912Y-90724966D01*
X47693451Y-90658832D01*
X47738508Y-90619793D01*
X47747816Y-90615051D01*
X47875146Y-90522541D01*
X47919786Y-90490109D01*
X47919788Y-90490106D01*
X47919792Y-90490104D01*
X48070104Y-90339792D01*
X48070106Y-90339788D01*
X48070109Y-90339786D01*
X48195048Y-90167820D01*
X48195047Y-90167820D01*
X48195051Y-90167816D01*
X48291557Y-89978412D01*
X48357246Y-89776243D01*
X48390500Y-89566287D01*
X48390500Y-89353713D01*
X48357246Y-89143757D01*
X48291557Y-88941588D01*
X48195051Y-88752184D01*
X48195049Y-88752181D01*
X48195048Y-88752179D01*
X48070109Y-88580213D01*
X48051126Y-88561230D01*
X48017641Y-88499907D01*
X48022625Y-88430215D01*
X48051126Y-88385868D01*
X48294240Y-88142754D01*
X48549506Y-87887488D01*
X48549511Y-87887484D01*
X48559714Y-87877280D01*
X48559716Y-87877280D01*
X48671520Y-87765476D01*
X48750577Y-87628544D01*
X48791500Y-87475817D01*
X48791500Y-85620060D01*
X48791501Y-85620047D01*
X48791501Y-85451945D01*
X48791501Y-85451943D01*
X48750577Y-85299215D01*
X48721639Y-85249095D01*
X48671520Y-85162284D01*
X48559716Y-85050480D01*
X48559715Y-85050479D01*
X48555385Y-85046149D01*
X48555374Y-85046139D01*
X48373757Y-84864522D01*
X48340272Y-84803199D01*
X48343507Y-84738523D01*
X48357246Y-84696243D01*
X48390500Y-84486287D01*
X48390500Y-84339097D01*
X48410185Y-84272058D01*
X48462989Y-84226303D01*
X48532147Y-84216359D01*
X48595703Y-84245384D01*
G37*
%TD.AperFunction*%
%TA.AperFunction,Conductor*%
G36*
X43243457Y-92580531D02*
G01*
X43299390Y-92622403D01*
X43310608Y-92640418D01*
X43319053Y-92656993D01*
X43344951Y-92707819D01*
X43469890Y-92879786D01*
X43620213Y-93030109D01*
X43792182Y-93155050D01*
X43800946Y-93159516D01*
X43851742Y-93207491D01*
X43868536Y-93275312D01*
X43845998Y-93341447D01*
X43800946Y-93380484D01*
X43792182Y-93384949D01*
X43620213Y-93509890D01*
X43469890Y-93660213D01*
X43344951Y-93832179D01*
X43248444Y-94021585D01*
X43182753Y-94223760D01*
X43149500Y-94433713D01*
X43149500Y-94646287D01*
X43182754Y-94856243D01*
X43247234Y-95054692D01*
X43248444Y-95058414D01*
X43344951Y-95247820D01*
X43469890Y-95419786D01*
X43620213Y-95570109D01*
X43792179Y-95695048D01*
X43792181Y-95695049D01*
X43792184Y-95695051D01*
X43801493Y-95699794D01*
X43852290Y-95747766D01*
X43869087Y-95815587D01*
X43846552Y-95881722D01*
X43801505Y-95920760D01*
X43792446Y-95925376D01*
X43792440Y-95925380D01*
X43738282Y-95964727D01*
X43738282Y-95964728D01*
X44370591Y-96597037D01*
X44307007Y-96614075D01*
X44192993Y-96679901D01*
X44099901Y-96772993D01*
X44034075Y-96887007D01*
X44017037Y-96950591D01*
X43384728Y-96318282D01*
X43384727Y-96318282D01*
X43345380Y-96372439D01*
X43248904Y-96561782D01*
X43183242Y-96763869D01*
X43183242Y-96763872D01*
X43150000Y-96973753D01*
X43150000Y-97186246D01*
X43183242Y-97396127D01*
X43183242Y-97396130D01*
X43248904Y-97598217D01*
X43345375Y-97787550D01*
X43384728Y-97841716D01*
X44017037Y-97209408D01*
X44034075Y-97272993D01*
X44099901Y-97387007D01*
X44192993Y-97480099D01*
X44307007Y-97545925D01*
X44370589Y-97562962D01*
X43738282Y-98195269D01*
X43738282Y-98195270D01*
X43792452Y-98234626D01*
X43792451Y-98234626D01*
X43801495Y-98239234D01*
X43852292Y-98287208D01*
X43869087Y-98355029D01*
X43846550Y-98421164D01*
X43801499Y-98460202D01*
X43792182Y-98464949D01*
X43620213Y-98589890D01*
X43469890Y-98740213D01*
X43344951Y-98912179D01*
X43248444Y-99101585D01*
X43182753Y-99303760D01*
X43149500Y-99513713D01*
X43149500Y-99726287D01*
X43182754Y-99936243D01*
X43247234Y-100134692D01*
X43248444Y-100138414D01*
X43344951Y-100327820D01*
X43469890Y-100499786D01*
X43488873Y-100518769D01*
X43522358Y-100580092D01*
X43517374Y-100649784D01*
X43488873Y-100694131D01*
X42958181Y-101224823D01*
X42896858Y-101258308D01*
X42827166Y-101253324D01*
X42771233Y-101211452D01*
X42746816Y-101145988D01*
X42746500Y-101137142D01*
X42746500Y-93026336D01*
X42766185Y-92959297D01*
X42782815Y-92938659D01*
X43112442Y-92609031D01*
X43173765Y-92575547D01*
X43243457Y-92580531D01*
G37*
%TD.AperFunction*%
%TA.AperFunction,Conductor*%
G36*
X116257882Y-86904328D02*
G01*
X116257883Y-86904328D01*
X116276331Y-86878937D01*
X116363481Y-86707897D01*
X116411456Y-86657101D01*
X116479276Y-86640306D01*
X116545411Y-86662843D01*
X116561647Y-86676511D01*
X120279181Y-90394045D01*
X120312666Y-90455368D01*
X120315500Y-90481726D01*
X120315500Y-91321870D01*
X120315501Y-91321876D01*
X120321908Y-91381483D01*
X120372202Y-91516328D01*
X120372206Y-91516335D01*
X120458452Y-91631544D01*
X120458455Y-91631547D01*
X120573664Y-91717793D01*
X120573671Y-91717797D01*
X120584672Y-91721900D01*
X120708517Y-91768091D01*
X120768127Y-91774500D01*
X120778685Y-91774499D01*
X120845723Y-91794179D01*
X120866372Y-91810818D01*
X121536591Y-92481037D01*
X121473007Y-92498075D01*
X121358993Y-92563901D01*
X121265901Y-92656993D01*
X121200075Y-92771007D01*
X121183037Y-92834591D01*
X120550728Y-92202282D01*
X120550727Y-92202282D01*
X120511380Y-92256440D01*
X120511378Y-92256443D01*
X120475548Y-92326763D01*
X120427573Y-92377558D01*
X120359752Y-92394353D01*
X120293618Y-92371815D01*
X120277383Y-92358148D01*
X115529687Y-87610452D01*
X115496202Y-87549129D01*
X115501186Y-87479437D01*
X115543058Y-87423504D01*
X115579051Y-87404840D01*
X115710635Y-87362086D01*
X115878937Y-87276331D01*
X115904328Y-87257883D01*
X115904328Y-87257882D01*
X115246446Y-86600000D01*
X115296078Y-86600000D01*
X115385095Y-86576148D01*
X115464905Y-86530070D01*
X115530070Y-86464905D01*
X115576148Y-86385095D01*
X115600000Y-86296078D01*
X115600000Y-86246446D01*
X116257882Y-86904328D01*
G37*
%TD.AperFunction*%
%TA.AperFunction,Conductor*%
G36*
X74261444Y-84153999D02*
G01*
X74300484Y-84199054D01*
X74302579Y-84203165D01*
X74304951Y-84207820D01*
X74429890Y-84379786D01*
X74580213Y-84530109D01*
X74752179Y-84655048D01*
X74752181Y-84655049D01*
X74752184Y-84655051D01*
X74941588Y-84751557D01*
X75143757Y-84817246D01*
X75353713Y-84850500D01*
X75353714Y-84850500D01*
X75500902Y-84850500D01*
X75567941Y-84870185D01*
X75613696Y-84922989D01*
X75623640Y-84992147D01*
X75594615Y-85055703D01*
X75588583Y-85062181D01*
X69816584Y-90834181D01*
X69755261Y-90867666D01*
X69728903Y-90870500D01*
X67829766Y-90870500D01*
X67762727Y-90850815D01*
X67760875Y-90849602D01*
X67629185Y-90761609D01*
X67629172Y-90761602D01*
X67483501Y-90701264D01*
X67483489Y-90701261D01*
X67328845Y-90670500D01*
X67328842Y-90670500D01*
X67171158Y-90670500D01*
X67171155Y-90670500D01*
X67016510Y-90701261D01*
X67016498Y-90701264D01*
X66870827Y-90761602D01*
X66870814Y-90761609D01*
X66739711Y-90849210D01*
X66739707Y-90849213D01*
X66628213Y-90960707D01*
X66628210Y-90960711D01*
X66540609Y-91091814D01*
X66540602Y-91091827D01*
X66480264Y-91237498D01*
X66480261Y-91237510D01*
X66449500Y-91392153D01*
X66449500Y-91392158D01*
X66449500Y-91549842D01*
X66449500Y-91549844D01*
X66449499Y-91549844D01*
X66465752Y-91631546D01*
X66469442Y-91650099D01*
X66469882Y-91652308D01*
X66463655Y-91721900D01*
X66420792Y-91777077D01*
X66354903Y-91800322D01*
X66348265Y-91800500D01*
X63911277Y-91800500D01*
X63844238Y-91780815D01*
X63798483Y-91728011D01*
X63788539Y-91658853D01*
X63793346Y-91638182D01*
X63816757Y-91566130D01*
X63816757Y-91566127D01*
X63850000Y-91356246D01*
X63850000Y-91143753D01*
X63816757Y-90933872D01*
X63816757Y-90933869D01*
X63761179Y-90762818D01*
X63759184Y-90692977D01*
X63795264Y-90633144D01*
X63857965Y-90602316D01*
X63879110Y-90600500D01*
X66333331Y-90600500D01*
X66333347Y-90600501D01*
X66340943Y-90600501D01*
X66499054Y-90600501D01*
X66499057Y-90600501D01*
X66651785Y-90559577D01*
X66715933Y-90522541D01*
X66788716Y-90480520D01*
X66900520Y-90368716D01*
X66900520Y-90368714D01*
X66910724Y-90358511D01*
X66910728Y-90358506D01*
X72435478Y-84833755D01*
X72496799Y-84800272D01*
X72561473Y-84803506D01*
X72603757Y-84817246D01*
X72813713Y-84850500D01*
X72813714Y-84850500D01*
X73026286Y-84850500D01*
X73026287Y-84850500D01*
X73236243Y-84817246D01*
X73438412Y-84751557D01*
X73627816Y-84655051D01*
X73714138Y-84592335D01*
X73799786Y-84530109D01*
X73799788Y-84530106D01*
X73799792Y-84530104D01*
X73950104Y-84379792D01*
X73950106Y-84379788D01*
X73950109Y-84379786D01*
X74059086Y-84229789D01*
X74075051Y-84207816D01*
X74079514Y-84199054D01*
X74127488Y-84148259D01*
X74195308Y-84131463D01*
X74261444Y-84153999D01*
G37*
%TD.AperFunction*%
%TA.AperFunction,Conductor*%
G36*
X98384186Y-80483050D02*
G01*
X98393148Y-80481762D01*
X98417188Y-80492740D01*
X98442540Y-80500185D01*
X98448467Y-80507025D01*
X98456704Y-80510787D01*
X98470993Y-80533021D01*
X98488295Y-80552989D01*
X98490582Y-80563503D01*
X98494478Y-80569565D01*
X98499501Y-80604500D01*
X98499501Y-80677876D01*
X98505908Y-80737483D01*
X98556202Y-80872328D01*
X98556206Y-80872335D01*
X98642452Y-80987544D01*
X98642455Y-80987547D01*
X98757664Y-81073793D01*
X98757671Y-81073797D01*
X98892517Y-81124091D01*
X98892516Y-81124091D01*
X98899444Y-81124835D01*
X98952127Y-81130500D01*
X99015733Y-81130499D01*
X99082770Y-81150183D01*
X99128526Y-81202986D01*
X99138470Y-81272144D01*
X99109446Y-81335700D01*
X99088619Y-81354816D01*
X98935354Y-81466171D01*
X98796174Y-81605351D01*
X98796174Y-81605352D01*
X98796172Y-81605354D01*
X98746485Y-81673741D01*
X98680476Y-81764594D01*
X98591117Y-81939970D01*
X98530290Y-82127173D01*
X98499500Y-82321577D01*
X98499500Y-82518422D01*
X98531023Y-82717453D01*
X98522068Y-82786747D01*
X98496231Y-82824532D01*
X89556584Y-91764181D01*
X89495261Y-91797666D01*
X89468903Y-91800500D01*
X85463800Y-91800500D01*
X85396761Y-91780815D01*
X85351006Y-91728011D01*
X85341062Y-91658853D01*
X85353315Y-91620205D01*
X85363230Y-91600747D01*
X85455641Y-91419379D01*
X85533490Y-91179785D01*
X85572900Y-90930962D01*
X85572900Y-90679038D01*
X85533490Y-90430215D01*
X85455641Y-90190621D01*
X85447048Y-90173757D01*
X85434152Y-90105090D01*
X85460427Y-90040349D01*
X85469843Y-90029790D01*
X87983056Y-87516577D01*
X88044376Y-87483095D01*
X88114068Y-87488079D01*
X88170001Y-87529951D01*
X88193207Y-87584863D01*
X88218242Y-87742927D01*
X88218242Y-87742930D01*
X88283904Y-87945017D01*
X88380375Y-88134350D01*
X88419728Y-88188516D01*
X89052037Y-87556208D01*
X89069075Y-87619793D01*
X89134901Y-87733807D01*
X89227993Y-87826899D01*
X89342007Y-87892725D01*
X89405590Y-87909762D01*
X88773282Y-88542069D01*
X88773282Y-88542070D01*
X88827449Y-88581424D01*
X89016782Y-88677895D01*
X89218870Y-88743557D01*
X89428754Y-88776800D01*
X89641246Y-88776800D01*
X89851127Y-88743557D01*
X89851130Y-88743557D01*
X90053217Y-88677895D01*
X90242554Y-88581422D01*
X90296716Y-88542070D01*
X90296717Y-88542070D01*
X89664408Y-87909762D01*
X89727993Y-87892725D01*
X89842007Y-87826899D01*
X89935099Y-87733807D01*
X90000925Y-87619793D01*
X90017962Y-87556209D01*
X90650270Y-88188517D01*
X90650270Y-88188516D01*
X90689622Y-88134354D01*
X90786095Y-87945017D01*
X90851757Y-87742930D01*
X90851757Y-87742927D01*
X90885000Y-87533046D01*
X90885000Y-87320553D01*
X90851757Y-87110672D01*
X90851757Y-87110669D01*
X90786095Y-86908582D01*
X90689624Y-86719249D01*
X90650270Y-86665082D01*
X90650269Y-86665082D01*
X90017962Y-87297390D01*
X90000925Y-87233807D01*
X89935099Y-87119793D01*
X89842007Y-87026701D01*
X89727993Y-86960875D01*
X89664408Y-86943837D01*
X90334627Y-86273618D01*
X90395950Y-86240133D01*
X90422308Y-86237299D01*
X90432871Y-86237299D01*
X90432872Y-86237299D01*
X90492483Y-86230891D01*
X90627331Y-86180596D01*
X90742546Y-86094346D01*
X90828796Y-85979131D01*
X90879091Y-85844283D01*
X90885500Y-85784673D01*
X90885499Y-83988928D01*
X90879585Y-83933914D01*
X90879091Y-83929316D01*
X90828797Y-83794471D01*
X90828793Y-83794464D01*
X90742547Y-83679255D01*
X90742544Y-83679252D01*
X90627335Y-83593006D01*
X90627328Y-83593002D01*
X90492482Y-83542708D01*
X90492483Y-83542708D01*
X90432883Y-83536301D01*
X90432881Y-83536300D01*
X90432873Y-83536300D01*
X90432864Y-83536300D01*
X88637129Y-83536300D01*
X88637123Y-83536301D01*
X88577516Y-83542708D01*
X88442671Y-83593002D01*
X88442664Y-83593006D01*
X88327455Y-83679252D01*
X88327452Y-83679255D01*
X88241206Y-83794464D01*
X88241202Y-83794471D01*
X88190908Y-83929317D01*
X88184501Y-83988916D01*
X88184501Y-83988923D01*
X88184500Y-83988935D01*
X88184500Y-85565301D01*
X88164815Y-85632340D01*
X88148181Y-85652982D01*
X84559468Y-89241695D01*
X84498145Y-89275180D01*
X84433470Y-89271945D01*
X84347186Y-89243910D01*
X84347181Y-89243909D01*
X84164656Y-89215000D01*
X84098362Y-89204500D01*
X83846438Y-89204500D01*
X83780138Y-89215001D01*
X83597614Y-89243910D01*
X83358016Y-89321760D01*
X83133551Y-89436132D01*
X82929750Y-89584201D01*
X82929745Y-89584205D01*
X82751605Y-89762345D01*
X82751601Y-89762350D01*
X82603532Y-89966151D01*
X82489160Y-90190616D01*
X82411310Y-90430214D01*
X82376691Y-90648792D01*
X82371900Y-90679038D01*
X82371900Y-90930962D01*
X82372361Y-90933872D01*
X82411310Y-91179785D01*
X82489160Y-91419383D01*
X82538558Y-91516331D01*
X82581570Y-91600747D01*
X82591485Y-91620205D01*
X82604381Y-91688874D01*
X82578105Y-91753615D01*
X82520998Y-91793872D01*
X82481000Y-91800500D01*
X75536900Y-91800500D01*
X75528214Y-91797949D01*
X75519253Y-91799238D01*
X75495212Y-91788259D01*
X75469861Y-91780815D01*
X75463933Y-91773974D01*
X75455697Y-91770213D01*
X75441407Y-91747978D01*
X75424106Y-91728011D01*
X75421818Y-91717496D01*
X75417923Y-91711435D01*
X75412900Y-91676500D01*
X75412900Y-91554900D01*
X75432585Y-91487861D01*
X75485389Y-91442106D01*
X75536900Y-91430900D01*
X75662931Y-91430900D01*
X75662947Y-91430901D01*
X75670543Y-91430901D01*
X75828654Y-91430901D01*
X75828657Y-91430901D01*
X75981385Y-91389977D01*
X76041532Y-91355251D01*
X76118316Y-91310920D01*
X76230120Y-91199116D01*
X76230120Y-91199114D01*
X76240324Y-91188911D01*
X76240328Y-91188906D01*
X82595478Y-84833755D01*
X82656799Y-84800272D01*
X82721473Y-84803506D01*
X82763757Y-84817246D01*
X82973713Y-84850500D01*
X82973714Y-84850500D01*
X83186286Y-84850500D01*
X83186287Y-84850500D01*
X83396243Y-84817246D01*
X83598412Y-84751557D01*
X83787816Y-84655051D01*
X83874138Y-84592335D01*
X83959786Y-84530109D01*
X83959788Y-84530106D01*
X83959792Y-84530104D01*
X84110104Y-84379792D01*
X84110106Y-84379788D01*
X84110109Y-84379786D01*
X84219086Y-84229789D01*
X84235051Y-84207816D01*
X84331557Y-84018412D01*
X84397246Y-83816243D01*
X84430500Y-83606287D01*
X84430500Y-83393713D01*
X84397246Y-83183757D01*
X84331557Y-82981588D01*
X84235051Y-82792184D01*
X84235049Y-82792181D01*
X84235048Y-82792179D01*
X84110109Y-82620213D01*
X83959786Y-82469890D01*
X83787820Y-82344951D01*
X83598414Y-82248444D01*
X83598413Y-82248443D01*
X83598412Y-82248443D01*
X83396243Y-82182754D01*
X83396241Y-82182753D01*
X83396240Y-82182753D01*
X83228835Y-82156239D01*
X83186287Y-82149500D01*
X82973713Y-82149500D01*
X82931165Y-82156239D01*
X82763760Y-82182753D01*
X82561585Y-82248444D01*
X82372179Y-82344951D01*
X82200213Y-82469890D01*
X82049890Y-82620213D01*
X81924949Y-82792182D01*
X81920202Y-82801499D01*
X81872227Y-82852293D01*
X81804405Y-82869087D01*
X81738271Y-82846548D01*
X81699234Y-82801495D01*
X81694626Y-82792452D01*
X81655270Y-82738282D01*
X81655269Y-82738282D01*
X81022962Y-83370590D01*
X81005925Y-83307007D01*
X80940099Y-83192993D01*
X80847007Y-83099901D01*
X80732993Y-83034075D01*
X80669409Y-83017037D01*
X81301716Y-82384728D01*
X81247550Y-82345375D01*
X81058217Y-82248904D01*
X80856129Y-82183242D01*
X80646246Y-82150000D01*
X80433754Y-82150000D01*
X80223872Y-82183242D01*
X80223869Y-82183242D01*
X80021782Y-82248904D01*
X79832439Y-82345380D01*
X79778282Y-82384727D01*
X79778282Y-82384728D01*
X80410591Y-83017037D01*
X80347007Y-83034075D01*
X80232993Y-83099901D01*
X80139901Y-83192993D01*
X80074075Y-83307007D01*
X80057037Y-83370591D01*
X79424728Y-82738282D01*
X79424727Y-82738282D01*
X79385380Y-82792440D01*
X79385376Y-82792446D01*
X79380760Y-82801505D01*
X79332781Y-82852297D01*
X79264959Y-82869087D01*
X79198826Y-82846543D01*
X79159794Y-82801493D01*
X79155051Y-82792184D01*
X79155049Y-82792181D01*
X79155048Y-82792179D01*
X79030109Y-82620213D01*
X78879786Y-82469890D01*
X78707820Y-82344951D01*
X78518414Y-82248444D01*
X78518413Y-82248443D01*
X78518412Y-82248443D01*
X78316243Y-82182754D01*
X78316241Y-82182753D01*
X78316240Y-82182753D01*
X78148835Y-82156239D01*
X78106287Y-82149500D01*
X77893713Y-82149500D01*
X77851165Y-82156239D01*
X77683760Y-82182753D01*
X77481585Y-82248444D01*
X77292179Y-82344951D01*
X77120213Y-82469890D01*
X76969890Y-82620213D01*
X76844949Y-82792182D01*
X76840484Y-82800946D01*
X76792509Y-82851742D01*
X76724688Y-82868536D01*
X76658553Y-82845998D01*
X76619516Y-82800946D01*
X76615050Y-82792182D01*
X76490109Y-82620213D01*
X76339786Y-82469890D01*
X76167820Y-82344951D01*
X75978414Y-82248444D01*
X75978413Y-82248443D01*
X75978412Y-82248443D01*
X75776243Y-82182754D01*
X75776241Y-82182753D01*
X75776240Y-82182753D01*
X75608835Y-82156239D01*
X75566287Y-82149500D01*
X75353713Y-82149500D01*
X75311165Y-82156239D01*
X75143760Y-82182753D01*
X74941585Y-82248444D01*
X74752179Y-82344951D01*
X74580213Y-82469890D01*
X74429890Y-82620213D01*
X74304949Y-82792182D01*
X74300484Y-82800946D01*
X74252509Y-82851742D01*
X74184688Y-82868536D01*
X74118553Y-82845998D01*
X74079516Y-82800946D01*
X74075050Y-82792182D01*
X73950109Y-82620213D01*
X73799786Y-82469890D01*
X73627820Y-82344951D01*
X73438414Y-82248444D01*
X73438413Y-82248443D01*
X73438412Y-82248443D01*
X73236243Y-82182754D01*
X73236241Y-82182753D01*
X73236240Y-82182753D01*
X73068835Y-82156239D01*
X73026287Y-82149500D01*
X72813713Y-82149500D01*
X72771165Y-82156239D01*
X72603760Y-82182753D01*
X72401585Y-82248444D01*
X72212179Y-82344951D01*
X72040215Y-82469889D01*
X71926673Y-82583431D01*
X71865350Y-82616915D01*
X71795658Y-82611931D01*
X71739725Y-82570059D01*
X71722810Y-82539082D01*
X71673797Y-82407671D01*
X71673793Y-82407664D01*
X71587547Y-82292455D01*
X71587544Y-82292452D01*
X71472335Y-82206206D01*
X71472328Y-82206202D01*
X71337482Y-82155908D01*
X71337483Y-82155908D01*
X71277883Y-82149501D01*
X71277881Y-82149500D01*
X71277873Y-82149500D01*
X71277865Y-82149500D01*
X70209097Y-82149500D01*
X70142058Y-82129815D01*
X70096303Y-82077011D01*
X70086359Y-82007853D01*
X70115384Y-81944297D01*
X70121416Y-81937819D01*
X70787092Y-81272144D01*
X71542417Y-80516819D01*
X71603740Y-80483334D01*
X71630098Y-80480500D01*
X98375501Y-80480500D01*
X98384186Y-80483050D01*
G37*
%TD.AperFunction*%
%TA.AperFunction,Conductor*%
G36*
X80074075Y-83692993D02*
G01*
X80139901Y-83807007D01*
X80232993Y-83900099D01*
X80347007Y-83965925D01*
X80410590Y-83982962D01*
X79778282Y-84615269D01*
X79778282Y-84615270D01*
X79832449Y-84654624D01*
X80021782Y-84751095D01*
X80223870Y-84816757D01*
X80433754Y-84850000D01*
X80581401Y-84850000D01*
X80648440Y-84869685D01*
X80694195Y-84922489D01*
X80704139Y-84991647D01*
X80675114Y-85055203D01*
X80669082Y-85061681D01*
X75624581Y-90106183D01*
X75563258Y-90139668D01*
X75493566Y-90134684D01*
X75437633Y-90092812D01*
X75413216Y-90027348D01*
X75412900Y-90018502D01*
X75412900Y-89904995D01*
X75412899Y-89904982D01*
X75402399Y-89802203D01*
X75393797Y-89776243D01*
X75347214Y-89635665D01*
X75255112Y-89486344D01*
X75131056Y-89362288D01*
X75022657Y-89295427D01*
X74981737Y-89270187D01*
X74981732Y-89270185D01*
X74980263Y-89269698D01*
X74815198Y-89215001D01*
X74815196Y-89215000D01*
X74712417Y-89204500D01*
X74712410Y-89204500D01*
X73444097Y-89204500D01*
X73377058Y-89184815D01*
X73331303Y-89132011D01*
X73321359Y-89062853D01*
X73350384Y-88999297D01*
X73356416Y-88992819D01*
X74363735Y-87985500D01*
X77515478Y-84833755D01*
X77576799Y-84800272D01*
X77641473Y-84803506D01*
X77683757Y-84817246D01*
X77893713Y-84850500D01*
X77893714Y-84850500D01*
X78106286Y-84850500D01*
X78106287Y-84850500D01*
X78316243Y-84817246D01*
X78518412Y-84751557D01*
X78707816Y-84655051D01*
X78794138Y-84592335D01*
X78879786Y-84530109D01*
X78879788Y-84530106D01*
X78879792Y-84530104D01*
X79030104Y-84379792D01*
X79030106Y-84379788D01*
X79030109Y-84379786D01*
X79109189Y-84270940D01*
X79155051Y-84207816D01*
X79159793Y-84198508D01*
X79207763Y-84147711D01*
X79275583Y-84130911D01*
X79341719Y-84153445D01*
X79380763Y-84198500D01*
X79385373Y-84207547D01*
X79424728Y-84261716D01*
X80057037Y-83629408D01*
X80074075Y-83692993D01*
G37*
%TD.AperFunction*%
%TA.AperFunction,Conductor*%
G36*
X45615270Y-87681717D02*
G01*
X45615270Y-87681716D01*
X45654622Y-87627555D01*
X45659232Y-87618507D01*
X45707205Y-87567709D01*
X45775025Y-87550912D01*
X45841161Y-87573447D01*
X45880204Y-87618504D01*
X45884949Y-87627817D01*
X46009890Y-87799786D01*
X46028873Y-87818769D01*
X46062358Y-87880092D01*
X46057374Y-87949784D01*
X46028873Y-87994131D01*
X45574131Y-88448873D01*
X45512808Y-88482358D01*
X45443116Y-88477374D01*
X45398769Y-88448873D01*
X45379786Y-88429890D01*
X45207817Y-88304949D01*
X45198504Y-88300204D01*
X45147707Y-88252230D01*
X45130912Y-88184409D01*
X45153449Y-88118274D01*
X45198507Y-88079232D01*
X45207555Y-88074622D01*
X45261716Y-88035270D01*
X45261717Y-88035270D01*
X44629408Y-87402962D01*
X44692993Y-87385925D01*
X44807007Y-87320099D01*
X44900099Y-87227007D01*
X44965925Y-87112993D01*
X44982962Y-87049408D01*
X45615270Y-87681717D01*
G37*
%TD.AperFunction*%
%TD*%
M02*
