%TF.GenerationSoftware,KiCad,Pcbnew,9.0.2*%
%TF.CreationDate,2025-06-18T17:26:40+12:00*%
%TF.ProjectId,smartclockpi,736d6172-7463-46c6-9f63-6b70692e6b69,rev?*%
%TF.SameCoordinates,Original*%
%TF.FileFunction,Other,User*%
%FSLAX46Y46*%
G04 Gerber Fmt 4.6, Leading zero omitted, Abs format (unit mm)*
G04 Created by KiCad (PCBNEW 9.0.2) date 2025-06-18 17:26:40*
%MOMM*%
%LPD*%
G01*
G04 APERTURE LIST*
%ADD10C,0.050000*%
G04 APERTURE END LIST*
D10*
%TO.C,J3*%
X60700000Y-86910000D02*
X64250000Y-86910000D01*
X60700000Y-123510000D02*
X60700000Y-86910000D01*
X64250000Y-86910000D02*
X64250000Y-123510000D01*
X64250000Y-123510000D02*
X60700000Y-123510000D01*
%TO.C,R9*%
X75960000Y-120450000D02*
X83040000Y-120450000D01*
X83040000Y-122550000D01*
X75960000Y-122550000D01*
X75960000Y-120450000D01*
%TO.C,J2*%
X106632200Y-121485000D02*
X106632200Y-133785000D01*
X106632200Y-133785000D02*
X122882200Y-133785000D01*
X122882200Y-121485000D02*
X106632200Y-121485000D01*
X122882200Y-133785000D02*
X122882200Y-121485000D01*
%TO.C,D1*%
X72462400Y-89205000D02*
X85322400Y-89205000D01*
X85322400Y-92405000D01*
X72462400Y-92405000D01*
X72462400Y-89205000D01*
%TO.C,R1*%
X52870000Y-127150000D02*
X52870000Y-131850000D01*
X52870000Y-127150000D02*
X58530000Y-127150000D01*
X58530000Y-131850000D02*
X52870000Y-131850000D01*
X58530000Y-131850000D02*
X58530000Y-127150000D01*
%TO.C,R4*%
X75960000Y-104550000D02*
X83040000Y-104550000D01*
X83040000Y-106650000D01*
X75960000Y-106650000D01*
X75960000Y-104550000D01*
%TO.C,J9*%
X87735000Y-83086800D02*
X91285000Y-83086800D01*
X87735000Y-89186800D02*
X87735000Y-83086800D01*
X91285000Y-83086800D02*
X91285000Y-89186800D01*
X91285000Y-89186800D02*
X87735000Y-89186800D01*
%TO.C,U2*%
X89980000Y-100720000D02*
X100640000Y-100720000D01*
X100640000Y-121660000D01*
X89980000Y-121660000D01*
X89980000Y-100720000D01*
%TO.C,J1*%
X42700000Y-80040000D02*
X48800000Y-80040000D01*
X42700000Y-131840000D02*
X42700000Y-80040000D01*
X48800000Y-80040000D02*
X48800000Y-131840000D01*
X48800000Y-131840000D02*
X42700000Y-131840000D01*
%TO.C,J4*%
X68580000Y-81750000D02*
X84830000Y-81750000D01*
X68580000Y-85300000D02*
X68580000Y-81750000D01*
X84830000Y-81750000D02*
X84830000Y-85300000D01*
X84830000Y-85300000D02*
X68580000Y-85300000D01*
%TO.C,J6*%
X118361000Y-69525400D02*
X118361000Y-67725400D01*
X118611000Y-69525400D02*
X118361000Y-69525400D01*
X118611000Y-69525400D02*
X118611000Y-84205400D01*
X133611000Y-69525400D02*
X133611000Y-84205400D01*
X133611000Y-69525400D02*
X133861000Y-69525400D01*
X133611000Y-84205400D02*
X118611000Y-84205400D01*
X133861000Y-67725400D02*
X118361000Y-67725400D01*
X133861000Y-69525400D02*
X133861000Y-67725400D01*
%TO.C,J5*%
X104592600Y-67619800D02*
X104592600Y-74529800D01*
X104592600Y-67619800D02*
X113592600Y-67619800D01*
X104592600Y-74529800D02*
X107092600Y-74529800D01*
X107092600Y-74529800D02*
X107092600Y-74729800D01*
X111092600Y-74579800D02*
X111092600Y-74729800D01*
X111092600Y-74729800D02*
X107092600Y-74729800D01*
X113592600Y-74579800D02*
X111092600Y-74579800D01*
X113592600Y-74579800D02*
X113592600Y-67619800D01*
%TO.C,R6*%
X75960000Y-111000000D02*
X83040000Y-111000000D01*
X83040000Y-113100000D01*
X75960000Y-113100000D01*
X75960000Y-111000000D01*
%TO.C,R8*%
X75960000Y-117300000D02*
X83040000Y-117300000D01*
X83040000Y-119400000D01*
X75960000Y-119400000D01*
X75960000Y-117300000D01*
%TO.C,R5*%
X75960000Y-107850000D02*
X83040000Y-107850000D01*
X83040000Y-109950000D01*
X75960000Y-109950000D01*
X75960000Y-107850000D01*
%TO.C,J8*%
X127765000Y-88593200D02*
X131315000Y-88593200D01*
X127765000Y-94693200D02*
X127765000Y-88593200D01*
X131315000Y-88593200D02*
X131315000Y-94693200D01*
X131315000Y-94693200D02*
X127765000Y-94693200D01*
%TO.C,R3*%
X75970000Y-101050000D02*
X82950000Y-101050000D01*
X82950000Y-103150000D01*
X75970000Y-103150000D01*
X75970000Y-101050000D01*
%TO.C,R7*%
X75960000Y-114150000D02*
X83040000Y-114150000D01*
X83040000Y-116250000D01*
X75960000Y-116250000D01*
X75960000Y-114150000D01*
%TO.C,U3*%
X96750000Y-77440000D02*
X102750000Y-77440000D01*
X96750000Y-89940000D02*
X96750000Y-77440000D01*
X102750000Y-77440000D02*
X102750000Y-89940000D01*
X102750000Y-89940000D02*
X96750000Y-89940000D01*
%TO.C,J7*%
X119866000Y-88624000D02*
X123416000Y-88624000D01*
X119866000Y-94724000D02*
X119866000Y-88624000D01*
X123416000Y-88624000D02*
X123416000Y-94724000D01*
X123416000Y-94724000D02*
X119866000Y-94724000D01*
%TO.C,R2*%
X60970000Y-129950000D02*
X67950000Y-129950000D01*
X67950000Y-132050000D01*
X60970000Y-132050000D01*
X60970000Y-129950000D01*
%TO.C,R12*%
X109120000Y-82050000D02*
X116200000Y-82050000D01*
X116200000Y-84150000D01*
X109120000Y-84150000D01*
X109120000Y-82050000D01*
%TO.C,R13*%
X109120000Y-85200000D02*
X116200000Y-85200000D01*
X116200000Y-87300000D01*
X109120000Y-87300000D01*
X109120000Y-85200000D01*
%TD*%
M02*
