%TF.GenerationSoftware,KiCad,Pcbnew,9.0.2-2.fc42*%
%TF.CreationDate,2025-07-04T09:44:31+12:00*%
%TF.ProjectId,smartclockpi,736d6172-7463-46c6-9f63-6b70692e6b69,rev?*%
%TF.SameCoordinates,Original*%
%TF.FileFunction,Legend,Top*%
%TF.FilePolarity,Positive*%
%FSLAX46Y46*%
G04 Gerber Fmt 4.6, Leading zero omitted, Abs format (unit mm)*
G04 Created by KiCad (PCBNEW 9.0.2-2.fc42) date 2025-07-04 09:44:31*
%MOMM*%
%LPD*%
G01*
G04 APERTURE LIST*
%ADD10C,0.200000*%
%ADD11C,0.300000*%
%ADD12C,0.125000*%
%ADD13C,0.150000*%
%ADD14C,0.120000*%
G04 APERTURE END LIST*
D10*
X86141101Y-73367219D02*
X85807768Y-72891028D01*
X85569673Y-73367219D02*
X85569673Y-72367219D01*
X85569673Y-72367219D02*
X85950625Y-72367219D01*
X85950625Y-72367219D02*
X86045863Y-72414838D01*
X86045863Y-72414838D02*
X86093482Y-72462457D01*
X86093482Y-72462457D02*
X86141101Y-72557695D01*
X86141101Y-72557695D02*
X86141101Y-72700552D01*
X86141101Y-72700552D02*
X86093482Y-72795790D01*
X86093482Y-72795790D02*
X86045863Y-72843409D01*
X86045863Y-72843409D02*
X85950625Y-72891028D01*
X85950625Y-72891028D02*
X85569673Y-72891028D01*
X86950625Y-73319600D02*
X86855387Y-73367219D01*
X86855387Y-73367219D02*
X86664911Y-73367219D01*
X86664911Y-73367219D02*
X86569673Y-73319600D01*
X86569673Y-73319600D02*
X86522054Y-73224361D01*
X86522054Y-73224361D02*
X86522054Y-72843409D01*
X86522054Y-72843409D02*
X86569673Y-72748171D01*
X86569673Y-72748171D02*
X86664911Y-72700552D01*
X86664911Y-72700552D02*
X86855387Y-72700552D01*
X86855387Y-72700552D02*
X86950625Y-72748171D01*
X86950625Y-72748171D02*
X86998244Y-72843409D01*
X86998244Y-72843409D02*
X86998244Y-72938647D01*
X86998244Y-72938647D02*
X86522054Y-73033885D01*
X87331578Y-72700552D02*
X87569673Y-73367219D01*
X87569673Y-73367219D02*
X87807768Y-72700552D01*
X88188721Y-73271980D02*
X88236340Y-73319600D01*
X88236340Y-73319600D02*
X88188721Y-73367219D01*
X88188721Y-73367219D02*
X88141102Y-73319600D01*
X88141102Y-73319600D02*
X88188721Y-73271980D01*
X88188721Y-73271980D02*
X88188721Y-73367219D01*
X89950625Y-73367219D02*
X89379197Y-73367219D01*
X89664911Y-73367219D02*
X89664911Y-72367219D01*
X89664911Y-72367219D02*
X89569673Y-72510076D01*
X89569673Y-72510076D02*
X89474435Y-72605314D01*
X89474435Y-72605314D02*
X89379197Y-72652933D01*
X90379197Y-73271980D02*
X90426816Y-73319600D01*
X90426816Y-73319600D02*
X90379197Y-73367219D01*
X90379197Y-73367219D02*
X90331578Y-73319600D01*
X90331578Y-73319600D02*
X90379197Y-73271980D01*
X90379197Y-73271980D02*
X90379197Y-73367219D01*
X91283958Y-72367219D02*
X91093482Y-72367219D01*
X91093482Y-72367219D02*
X90998244Y-72414838D01*
X90998244Y-72414838D02*
X90950625Y-72462457D01*
X90950625Y-72462457D02*
X90855387Y-72605314D01*
X90855387Y-72605314D02*
X90807768Y-72795790D01*
X90807768Y-72795790D02*
X90807768Y-73176742D01*
X90807768Y-73176742D02*
X90855387Y-73271980D01*
X90855387Y-73271980D02*
X90903006Y-73319600D01*
X90903006Y-73319600D02*
X90998244Y-73367219D01*
X90998244Y-73367219D02*
X91188720Y-73367219D01*
X91188720Y-73367219D02*
X91283958Y-73319600D01*
X91283958Y-73319600D02*
X91331577Y-73271980D01*
X91331577Y-73271980D02*
X91379196Y-73176742D01*
X91379196Y-73176742D02*
X91379196Y-72938647D01*
X91379196Y-72938647D02*
X91331577Y-72843409D01*
X91331577Y-72843409D02*
X91283958Y-72795790D01*
X91283958Y-72795790D02*
X91188720Y-72748171D01*
X91188720Y-72748171D02*
X90998244Y-72748171D01*
X90998244Y-72748171D02*
X90903006Y-72795790D01*
X90903006Y-72795790D02*
X90855387Y-72843409D01*
X90855387Y-72843409D02*
X90807768Y-72938647D01*
D11*
X132126110Y-90308400D02*
X133268968Y-90308400D01*
X132697539Y-90879828D02*
X132697539Y-89736971D01*
X132202310Y-93432600D02*
X133345168Y-93432600D01*
X124303310Y-90288400D02*
X125446168Y-90288400D01*
X124874739Y-90859828D02*
X124874739Y-89716971D01*
D12*
X47805559Y-71009304D02*
X47757940Y-71056924D01*
X47757940Y-71056924D02*
X47615083Y-71104543D01*
X47615083Y-71104543D02*
X47519845Y-71104543D01*
X47519845Y-71104543D02*
X47376988Y-71056924D01*
X47376988Y-71056924D02*
X47281750Y-70961685D01*
X47281750Y-70961685D02*
X47234131Y-70866447D01*
X47234131Y-70866447D02*
X47186512Y-70675971D01*
X47186512Y-70675971D02*
X47186512Y-70533114D01*
X47186512Y-70533114D02*
X47234131Y-70342638D01*
X47234131Y-70342638D02*
X47281750Y-70247400D01*
X47281750Y-70247400D02*
X47376988Y-70152162D01*
X47376988Y-70152162D02*
X47519845Y-70104543D01*
X47519845Y-70104543D02*
X47615083Y-70104543D01*
X47615083Y-70104543D02*
X47757940Y-70152162D01*
X47757940Y-70152162D02*
X47805559Y-70199781D01*
X48376988Y-71104543D02*
X48281750Y-71056924D01*
X48281750Y-71056924D02*
X48234131Y-71009304D01*
X48234131Y-71009304D02*
X48186512Y-70914066D01*
X48186512Y-70914066D02*
X48186512Y-70628352D01*
X48186512Y-70628352D02*
X48234131Y-70533114D01*
X48234131Y-70533114D02*
X48281750Y-70485495D01*
X48281750Y-70485495D02*
X48376988Y-70437876D01*
X48376988Y-70437876D02*
X48519845Y-70437876D01*
X48519845Y-70437876D02*
X48615083Y-70485495D01*
X48615083Y-70485495D02*
X48662702Y-70533114D01*
X48662702Y-70533114D02*
X48710321Y-70628352D01*
X48710321Y-70628352D02*
X48710321Y-70914066D01*
X48710321Y-70914066D02*
X48662702Y-71009304D01*
X48662702Y-71009304D02*
X48615083Y-71056924D01*
X48615083Y-71056924D02*
X48519845Y-71104543D01*
X48519845Y-71104543D02*
X48376988Y-71104543D01*
X49138893Y-70437876D02*
X49138893Y-71437876D01*
X49138893Y-70485495D02*
X49234131Y-70437876D01*
X49234131Y-70437876D02*
X49424607Y-70437876D01*
X49424607Y-70437876D02*
X49519845Y-70485495D01*
X49519845Y-70485495D02*
X49567464Y-70533114D01*
X49567464Y-70533114D02*
X49615083Y-70628352D01*
X49615083Y-70628352D02*
X49615083Y-70914066D01*
X49615083Y-70914066D02*
X49567464Y-71009304D01*
X49567464Y-71009304D02*
X49519845Y-71056924D01*
X49519845Y-71056924D02*
X49424607Y-71104543D01*
X49424607Y-71104543D02*
X49234131Y-71104543D01*
X49234131Y-71104543D02*
X49138893Y-71056924D01*
X49948417Y-70437876D02*
X50186512Y-71104543D01*
X50424607Y-70437876D02*
X50186512Y-71104543D01*
X50186512Y-71104543D02*
X50091274Y-71342638D01*
X50091274Y-71342638D02*
X50043655Y-71390257D01*
X50043655Y-71390257D02*
X49948417Y-71437876D01*
X50948417Y-71104543D02*
X50853179Y-71056924D01*
X50853179Y-71056924D02*
X50805560Y-70961685D01*
X50805560Y-70961685D02*
X50805560Y-70104543D01*
X51710322Y-71056924D02*
X51615084Y-71104543D01*
X51615084Y-71104543D02*
X51424608Y-71104543D01*
X51424608Y-71104543D02*
X51329370Y-71056924D01*
X51329370Y-71056924D02*
X51281751Y-70961685D01*
X51281751Y-70961685D02*
X51281751Y-70580733D01*
X51281751Y-70580733D02*
X51329370Y-70485495D01*
X51329370Y-70485495D02*
X51424608Y-70437876D01*
X51424608Y-70437876D02*
X51615084Y-70437876D01*
X51615084Y-70437876D02*
X51710322Y-70485495D01*
X51710322Y-70485495D02*
X51757941Y-70580733D01*
X51757941Y-70580733D02*
X51757941Y-70675971D01*
X51757941Y-70675971D02*
X51281751Y-70771209D01*
X52043656Y-70437876D02*
X52424608Y-70437876D01*
X52186513Y-71104543D02*
X52186513Y-70247400D01*
X52186513Y-70247400D02*
X52234132Y-70152162D01*
X52234132Y-70152162D02*
X52329370Y-70104543D01*
X52329370Y-70104543D02*
X52424608Y-70104543D01*
X52615085Y-70437876D02*
X52996037Y-70437876D01*
X52757942Y-70104543D02*
X52757942Y-70961685D01*
X52757942Y-70961685D02*
X52805561Y-71056924D01*
X52805561Y-71056924D02*
X52900799Y-71104543D01*
X52900799Y-71104543D02*
X52996037Y-71104543D01*
X54043657Y-70199781D02*
X54091276Y-70152162D01*
X54091276Y-70152162D02*
X54186514Y-70104543D01*
X54186514Y-70104543D02*
X54424609Y-70104543D01*
X54424609Y-70104543D02*
X54519847Y-70152162D01*
X54519847Y-70152162D02*
X54567466Y-70199781D01*
X54567466Y-70199781D02*
X54615085Y-70295019D01*
X54615085Y-70295019D02*
X54615085Y-70390257D01*
X54615085Y-70390257D02*
X54567466Y-70533114D01*
X54567466Y-70533114D02*
X53996038Y-71104543D01*
X53996038Y-71104543D02*
X54615085Y-71104543D01*
X55234133Y-70104543D02*
X55329371Y-70104543D01*
X55329371Y-70104543D02*
X55424609Y-70152162D01*
X55424609Y-70152162D02*
X55472228Y-70199781D01*
X55472228Y-70199781D02*
X55519847Y-70295019D01*
X55519847Y-70295019D02*
X55567466Y-70485495D01*
X55567466Y-70485495D02*
X55567466Y-70723590D01*
X55567466Y-70723590D02*
X55519847Y-70914066D01*
X55519847Y-70914066D02*
X55472228Y-71009304D01*
X55472228Y-71009304D02*
X55424609Y-71056924D01*
X55424609Y-71056924D02*
X55329371Y-71104543D01*
X55329371Y-71104543D02*
X55234133Y-71104543D01*
X55234133Y-71104543D02*
X55138895Y-71056924D01*
X55138895Y-71056924D02*
X55091276Y-71009304D01*
X55091276Y-71009304D02*
X55043657Y-70914066D01*
X55043657Y-70914066D02*
X54996038Y-70723590D01*
X54996038Y-70723590D02*
X54996038Y-70485495D01*
X54996038Y-70485495D02*
X55043657Y-70295019D01*
X55043657Y-70295019D02*
X55091276Y-70199781D01*
X55091276Y-70199781D02*
X55138895Y-70152162D01*
X55138895Y-70152162D02*
X55234133Y-70104543D01*
X55948419Y-70199781D02*
X55996038Y-70152162D01*
X55996038Y-70152162D02*
X56091276Y-70104543D01*
X56091276Y-70104543D02*
X56329371Y-70104543D01*
X56329371Y-70104543D02*
X56424609Y-70152162D01*
X56424609Y-70152162D02*
X56472228Y-70199781D01*
X56472228Y-70199781D02*
X56519847Y-70295019D01*
X56519847Y-70295019D02*
X56519847Y-70390257D01*
X56519847Y-70390257D02*
X56472228Y-70533114D01*
X56472228Y-70533114D02*
X55900800Y-71104543D01*
X55900800Y-71104543D02*
X56519847Y-71104543D01*
X57424609Y-70104543D02*
X56948419Y-70104543D01*
X56948419Y-70104543D02*
X56900800Y-70580733D01*
X56900800Y-70580733D02*
X56948419Y-70533114D01*
X56948419Y-70533114D02*
X57043657Y-70485495D01*
X57043657Y-70485495D02*
X57281752Y-70485495D01*
X57281752Y-70485495D02*
X57376990Y-70533114D01*
X57376990Y-70533114D02*
X57424609Y-70580733D01*
X57424609Y-70580733D02*
X57472228Y-70675971D01*
X57472228Y-70675971D02*
X57472228Y-70914066D01*
X57472228Y-70914066D02*
X57424609Y-71009304D01*
X57424609Y-71009304D02*
X57376990Y-71056924D01*
X57376990Y-71056924D02*
X57281752Y-71104543D01*
X57281752Y-71104543D02*
X57043657Y-71104543D01*
X57043657Y-71104543D02*
X56948419Y-71056924D01*
X56948419Y-71056924D02*
X56900800Y-71009304D01*
X59234133Y-71104543D02*
X58900800Y-70628352D01*
X58662705Y-71104543D02*
X58662705Y-70104543D01*
X58662705Y-70104543D02*
X59043657Y-70104543D01*
X59043657Y-70104543D02*
X59138895Y-70152162D01*
X59138895Y-70152162D02*
X59186514Y-70199781D01*
X59186514Y-70199781D02*
X59234133Y-70295019D01*
X59234133Y-70295019D02*
X59234133Y-70437876D01*
X59234133Y-70437876D02*
X59186514Y-70533114D01*
X59186514Y-70533114D02*
X59138895Y-70580733D01*
X59138895Y-70580733D02*
X59043657Y-70628352D01*
X59043657Y-70628352D02*
X58662705Y-70628352D01*
X60091276Y-71104543D02*
X60091276Y-70580733D01*
X60091276Y-70580733D02*
X60043657Y-70485495D01*
X60043657Y-70485495D02*
X59948419Y-70437876D01*
X59948419Y-70437876D02*
X59757943Y-70437876D01*
X59757943Y-70437876D02*
X59662705Y-70485495D01*
X60091276Y-71056924D02*
X59996038Y-71104543D01*
X59996038Y-71104543D02*
X59757943Y-71104543D01*
X59757943Y-71104543D02*
X59662705Y-71056924D01*
X59662705Y-71056924D02*
X59615086Y-70961685D01*
X59615086Y-70961685D02*
X59615086Y-70866447D01*
X59615086Y-70866447D02*
X59662705Y-70771209D01*
X59662705Y-70771209D02*
X59757943Y-70723590D01*
X59757943Y-70723590D02*
X59996038Y-70723590D01*
X59996038Y-70723590D02*
X60091276Y-70675971D01*
X60472229Y-70437876D02*
X60710324Y-71104543D01*
X60948419Y-70437876D02*
X60710324Y-71104543D01*
X60710324Y-71104543D02*
X60615086Y-71342638D01*
X60615086Y-71342638D02*
X60567467Y-71390257D01*
X60567467Y-71390257D02*
X60472229Y-71437876D01*
X61329372Y-71104543D02*
X61329372Y-70437876D01*
X61329372Y-70533114D02*
X61376991Y-70485495D01*
X61376991Y-70485495D02*
X61472229Y-70437876D01*
X61472229Y-70437876D02*
X61615086Y-70437876D01*
X61615086Y-70437876D02*
X61710324Y-70485495D01*
X61710324Y-70485495D02*
X61757943Y-70580733D01*
X61757943Y-70580733D02*
X61757943Y-71104543D01*
X61757943Y-70580733D02*
X61805562Y-70485495D01*
X61805562Y-70485495D02*
X61900800Y-70437876D01*
X61900800Y-70437876D02*
X62043657Y-70437876D01*
X62043657Y-70437876D02*
X62138896Y-70485495D01*
X62138896Y-70485495D02*
X62186515Y-70580733D01*
X62186515Y-70580733D02*
X62186515Y-71104543D01*
X62805562Y-71104543D02*
X62710324Y-71056924D01*
X62710324Y-71056924D02*
X62662705Y-71009304D01*
X62662705Y-71009304D02*
X62615086Y-70914066D01*
X62615086Y-70914066D02*
X62615086Y-70628352D01*
X62615086Y-70628352D02*
X62662705Y-70533114D01*
X62662705Y-70533114D02*
X62710324Y-70485495D01*
X62710324Y-70485495D02*
X62805562Y-70437876D01*
X62805562Y-70437876D02*
X62948419Y-70437876D01*
X62948419Y-70437876D02*
X63043657Y-70485495D01*
X63043657Y-70485495D02*
X63091276Y-70533114D01*
X63091276Y-70533114D02*
X63138895Y-70628352D01*
X63138895Y-70628352D02*
X63138895Y-70914066D01*
X63138895Y-70914066D02*
X63091276Y-71009304D01*
X63091276Y-71009304D02*
X63043657Y-71056924D01*
X63043657Y-71056924D02*
X62948419Y-71104543D01*
X62948419Y-71104543D02*
X62805562Y-71104543D01*
X63567467Y-70437876D02*
X63567467Y-71104543D01*
X63567467Y-70533114D02*
X63615086Y-70485495D01*
X63615086Y-70485495D02*
X63710324Y-70437876D01*
X63710324Y-70437876D02*
X63853181Y-70437876D01*
X63853181Y-70437876D02*
X63948419Y-70485495D01*
X63948419Y-70485495D02*
X63996038Y-70580733D01*
X63996038Y-70580733D02*
X63996038Y-71104543D01*
X64329372Y-70437876D02*
X64710324Y-70437876D01*
X64472229Y-70104543D02*
X64472229Y-70961685D01*
X64472229Y-70961685D02*
X64519848Y-71056924D01*
X64519848Y-71056924D02*
X64615086Y-71104543D01*
X64615086Y-71104543D02*
X64710324Y-71104543D01*
X66472229Y-71199781D02*
X66376991Y-71152162D01*
X66376991Y-71152162D02*
X66281753Y-71056924D01*
X66281753Y-71056924D02*
X66138896Y-70914066D01*
X66138896Y-70914066D02*
X66043658Y-70866447D01*
X66043658Y-70866447D02*
X65948420Y-70866447D01*
X65996039Y-71104543D02*
X65900801Y-71056924D01*
X65900801Y-71056924D02*
X65805563Y-70961685D01*
X65805563Y-70961685D02*
X65757944Y-70771209D01*
X65757944Y-70771209D02*
X65757944Y-70437876D01*
X65757944Y-70437876D02*
X65805563Y-70247400D01*
X65805563Y-70247400D02*
X65900801Y-70152162D01*
X65900801Y-70152162D02*
X65996039Y-70104543D01*
X65996039Y-70104543D02*
X66186515Y-70104543D01*
X66186515Y-70104543D02*
X66281753Y-70152162D01*
X66281753Y-70152162D02*
X66376991Y-70247400D01*
X66376991Y-70247400D02*
X66424610Y-70437876D01*
X66424610Y-70437876D02*
X66424610Y-70771209D01*
X66424610Y-70771209D02*
X66376991Y-70961685D01*
X66376991Y-70961685D02*
X66281753Y-71056924D01*
X66281753Y-71056924D02*
X66186515Y-71104543D01*
X66186515Y-71104543D02*
X65996039Y-71104543D01*
X66853182Y-71104543D02*
X66853182Y-70437876D01*
X66853182Y-70104543D02*
X66805563Y-70152162D01*
X66805563Y-70152162D02*
X66853182Y-70199781D01*
X66853182Y-70199781D02*
X66900801Y-70152162D01*
X66900801Y-70152162D02*
X66853182Y-70104543D01*
X66853182Y-70104543D02*
X66853182Y-70199781D01*
X67329372Y-70437876D02*
X67329372Y-71104543D01*
X67329372Y-70533114D02*
X67376991Y-70485495D01*
X67376991Y-70485495D02*
X67472229Y-70437876D01*
X67472229Y-70437876D02*
X67615086Y-70437876D01*
X67615086Y-70437876D02*
X67710324Y-70485495D01*
X67710324Y-70485495D02*
X67757943Y-70580733D01*
X67757943Y-70580733D02*
X67757943Y-71104543D01*
X69281753Y-71485495D02*
X69234134Y-71437876D01*
X69234134Y-71437876D02*
X69138896Y-71295019D01*
X69138896Y-71295019D02*
X69091277Y-71199781D01*
X69091277Y-71199781D02*
X69043658Y-71056924D01*
X69043658Y-71056924D02*
X68996039Y-70818828D01*
X68996039Y-70818828D02*
X68996039Y-70628352D01*
X68996039Y-70628352D02*
X69043658Y-70390257D01*
X69043658Y-70390257D02*
X69091277Y-70247400D01*
X69091277Y-70247400D02*
X69138896Y-70152162D01*
X69138896Y-70152162D02*
X69234134Y-70009304D01*
X69234134Y-70009304D02*
X69281753Y-69961685D01*
X70329372Y-71199781D02*
X70234134Y-71152162D01*
X70234134Y-71152162D02*
X70138896Y-71056924D01*
X70138896Y-71056924D02*
X69996039Y-70914066D01*
X69996039Y-70914066D02*
X69900801Y-70866447D01*
X69900801Y-70866447D02*
X69805563Y-70866447D01*
X69853182Y-71104543D02*
X69757944Y-71056924D01*
X69757944Y-71056924D02*
X69662706Y-70961685D01*
X69662706Y-70961685D02*
X69615087Y-70771209D01*
X69615087Y-70771209D02*
X69615087Y-70437876D01*
X69615087Y-70437876D02*
X69662706Y-70247400D01*
X69662706Y-70247400D02*
X69757944Y-70152162D01*
X69757944Y-70152162D02*
X69853182Y-70104543D01*
X69853182Y-70104543D02*
X70043658Y-70104543D01*
X70043658Y-70104543D02*
X70138896Y-70152162D01*
X70138896Y-70152162D02*
X70234134Y-70247400D01*
X70234134Y-70247400D02*
X70281753Y-70437876D01*
X70281753Y-70437876D02*
X70281753Y-70771209D01*
X70281753Y-70771209D02*
X70234134Y-70961685D01*
X70234134Y-70961685D02*
X70138896Y-71056924D01*
X70138896Y-71056924D02*
X70043658Y-71104543D01*
X70043658Y-71104543D02*
X69853182Y-71104543D01*
X70710325Y-71104543D02*
X70710325Y-70437876D01*
X70710325Y-70104543D02*
X70662706Y-70152162D01*
X70662706Y-70152162D02*
X70710325Y-70199781D01*
X70710325Y-70199781D02*
X70757944Y-70152162D01*
X70757944Y-70152162D02*
X70710325Y-70104543D01*
X70710325Y-70104543D02*
X70710325Y-70199781D01*
X71186515Y-70437876D02*
X71186515Y-71104543D01*
X71186515Y-70533114D02*
X71234134Y-70485495D01*
X71234134Y-70485495D02*
X71329372Y-70437876D01*
X71329372Y-70437876D02*
X71472229Y-70437876D01*
X71472229Y-70437876D02*
X71567467Y-70485495D01*
X71567467Y-70485495D02*
X71615086Y-70580733D01*
X71615086Y-70580733D02*
X71615086Y-71104543D01*
X72662705Y-71009304D02*
X72615086Y-71056924D01*
X72615086Y-71056924D02*
X72472229Y-71104543D01*
X72472229Y-71104543D02*
X72376991Y-71104543D01*
X72376991Y-71104543D02*
X72234134Y-71056924D01*
X72234134Y-71056924D02*
X72138896Y-70961685D01*
X72138896Y-70961685D02*
X72091277Y-70866447D01*
X72091277Y-70866447D02*
X72043658Y-70675971D01*
X72043658Y-70675971D02*
X72043658Y-70533114D01*
X72043658Y-70533114D02*
X72091277Y-70342638D01*
X72091277Y-70342638D02*
X72138896Y-70247400D01*
X72138896Y-70247400D02*
X72234134Y-70152162D01*
X72234134Y-70152162D02*
X72376991Y-70104543D01*
X72376991Y-70104543D02*
X72472229Y-70104543D01*
X72472229Y-70104543D02*
X72615086Y-70152162D01*
X72615086Y-70152162D02*
X72662705Y-70199781D01*
X73519848Y-71104543D02*
X73519848Y-70580733D01*
X73519848Y-70580733D02*
X73472229Y-70485495D01*
X73472229Y-70485495D02*
X73376991Y-70437876D01*
X73376991Y-70437876D02*
X73186515Y-70437876D01*
X73186515Y-70437876D02*
X73091277Y-70485495D01*
X73519848Y-71056924D02*
X73424610Y-71104543D01*
X73424610Y-71104543D02*
X73186515Y-71104543D01*
X73186515Y-71104543D02*
X73091277Y-71056924D01*
X73091277Y-71056924D02*
X73043658Y-70961685D01*
X73043658Y-70961685D02*
X73043658Y-70866447D01*
X73043658Y-70866447D02*
X73091277Y-70771209D01*
X73091277Y-70771209D02*
X73186515Y-70723590D01*
X73186515Y-70723590D02*
X73424610Y-70723590D01*
X73424610Y-70723590D02*
X73519848Y-70675971D01*
X73996039Y-71104543D02*
X73996039Y-70437876D01*
X73996039Y-70104543D02*
X73948420Y-70152162D01*
X73948420Y-70152162D02*
X73996039Y-70199781D01*
X73996039Y-70199781D02*
X74043658Y-70152162D01*
X74043658Y-70152162D02*
X73996039Y-70104543D01*
X73996039Y-70104543D02*
X73996039Y-70199781D01*
X74376991Y-71485495D02*
X74424610Y-71437876D01*
X74424610Y-71437876D02*
X74519848Y-71295019D01*
X74519848Y-71295019D02*
X74567467Y-71199781D01*
X74567467Y-71199781D02*
X74615086Y-71056924D01*
X74615086Y-71056924D02*
X74662705Y-70818828D01*
X74662705Y-70818828D02*
X74662705Y-70628352D01*
X74662705Y-70628352D02*
X74615086Y-70390257D01*
X74615086Y-70390257D02*
X74567467Y-70247400D01*
X74567467Y-70247400D02*
X74519848Y-70152162D01*
X74519848Y-70152162D02*
X74424610Y-70009304D01*
X74424610Y-70009304D02*
X74376991Y-69961685D01*
X47186512Y-72666868D02*
X47329369Y-72714487D01*
X47329369Y-72714487D02*
X47567464Y-72714487D01*
X47567464Y-72714487D02*
X47662702Y-72666868D01*
X47662702Y-72666868D02*
X47710321Y-72619248D01*
X47710321Y-72619248D02*
X47757940Y-72524010D01*
X47757940Y-72524010D02*
X47757940Y-72428772D01*
X47757940Y-72428772D02*
X47710321Y-72333534D01*
X47710321Y-72333534D02*
X47662702Y-72285915D01*
X47662702Y-72285915D02*
X47567464Y-72238296D01*
X47567464Y-72238296D02*
X47376988Y-72190677D01*
X47376988Y-72190677D02*
X47281750Y-72143058D01*
X47281750Y-72143058D02*
X47234131Y-72095439D01*
X47234131Y-72095439D02*
X47186512Y-72000201D01*
X47186512Y-72000201D02*
X47186512Y-71904963D01*
X47186512Y-71904963D02*
X47234131Y-71809725D01*
X47234131Y-71809725D02*
X47281750Y-71762106D01*
X47281750Y-71762106D02*
X47376988Y-71714487D01*
X47376988Y-71714487D02*
X47615083Y-71714487D01*
X47615083Y-71714487D02*
X47757940Y-71762106D01*
X48329369Y-72714487D02*
X48234131Y-72666868D01*
X48234131Y-72666868D02*
X48186512Y-72619248D01*
X48186512Y-72619248D02*
X48138893Y-72524010D01*
X48138893Y-72524010D02*
X48138893Y-72238296D01*
X48138893Y-72238296D02*
X48186512Y-72143058D01*
X48186512Y-72143058D02*
X48234131Y-72095439D01*
X48234131Y-72095439D02*
X48329369Y-72047820D01*
X48329369Y-72047820D02*
X48472226Y-72047820D01*
X48472226Y-72047820D02*
X48567464Y-72095439D01*
X48567464Y-72095439D02*
X48615083Y-72143058D01*
X48615083Y-72143058D02*
X48662702Y-72238296D01*
X48662702Y-72238296D02*
X48662702Y-72524010D01*
X48662702Y-72524010D02*
X48615083Y-72619248D01*
X48615083Y-72619248D02*
X48567464Y-72666868D01*
X48567464Y-72666868D02*
X48472226Y-72714487D01*
X48472226Y-72714487D02*
X48329369Y-72714487D01*
X49091274Y-72714487D02*
X49091274Y-72047820D01*
X49091274Y-72143058D02*
X49138893Y-72095439D01*
X49138893Y-72095439D02*
X49234131Y-72047820D01*
X49234131Y-72047820D02*
X49376988Y-72047820D01*
X49376988Y-72047820D02*
X49472226Y-72095439D01*
X49472226Y-72095439D02*
X49519845Y-72190677D01*
X49519845Y-72190677D02*
X49519845Y-72714487D01*
X49519845Y-72190677D02*
X49567464Y-72095439D01*
X49567464Y-72095439D02*
X49662702Y-72047820D01*
X49662702Y-72047820D02*
X49805559Y-72047820D01*
X49805559Y-72047820D02*
X49900798Y-72095439D01*
X49900798Y-72095439D02*
X49948417Y-72190677D01*
X49948417Y-72190677D02*
X49948417Y-72714487D01*
X50805559Y-72666868D02*
X50710321Y-72714487D01*
X50710321Y-72714487D02*
X50519845Y-72714487D01*
X50519845Y-72714487D02*
X50424607Y-72666868D01*
X50424607Y-72666868D02*
X50376988Y-72571629D01*
X50376988Y-72571629D02*
X50376988Y-72190677D01*
X50376988Y-72190677D02*
X50424607Y-72095439D01*
X50424607Y-72095439D02*
X50519845Y-72047820D01*
X50519845Y-72047820D02*
X50710321Y-72047820D01*
X50710321Y-72047820D02*
X50805559Y-72095439D01*
X50805559Y-72095439D02*
X50853178Y-72190677D01*
X50853178Y-72190677D02*
X50853178Y-72285915D01*
X50853178Y-72285915D02*
X50376988Y-72381153D01*
X52043655Y-72714487D02*
X52043655Y-72047820D01*
X52043655Y-72238296D02*
X52091274Y-72143058D01*
X52091274Y-72143058D02*
X52138893Y-72095439D01*
X52138893Y-72095439D02*
X52234131Y-72047820D01*
X52234131Y-72047820D02*
X52329369Y-72047820D01*
X52662703Y-72714487D02*
X52662703Y-72047820D01*
X52662703Y-71714487D02*
X52615084Y-71762106D01*
X52615084Y-71762106D02*
X52662703Y-71809725D01*
X52662703Y-71809725D02*
X52710322Y-71762106D01*
X52710322Y-71762106D02*
X52662703Y-71714487D01*
X52662703Y-71714487D02*
X52662703Y-71809725D01*
X53567464Y-72047820D02*
X53567464Y-72857344D01*
X53567464Y-72857344D02*
X53519845Y-72952582D01*
X53519845Y-72952582D02*
X53472226Y-73000201D01*
X53472226Y-73000201D02*
X53376988Y-73047820D01*
X53376988Y-73047820D02*
X53234131Y-73047820D01*
X53234131Y-73047820D02*
X53138893Y-73000201D01*
X53567464Y-72666868D02*
X53472226Y-72714487D01*
X53472226Y-72714487D02*
X53281750Y-72714487D01*
X53281750Y-72714487D02*
X53186512Y-72666868D01*
X53186512Y-72666868D02*
X53138893Y-72619248D01*
X53138893Y-72619248D02*
X53091274Y-72524010D01*
X53091274Y-72524010D02*
X53091274Y-72238296D01*
X53091274Y-72238296D02*
X53138893Y-72143058D01*
X53138893Y-72143058D02*
X53186512Y-72095439D01*
X53186512Y-72095439D02*
X53281750Y-72047820D01*
X53281750Y-72047820D02*
X53472226Y-72047820D01*
X53472226Y-72047820D02*
X53567464Y-72095439D01*
X54043655Y-72714487D02*
X54043655Y-71714487D01*
X54472226Y-72714487D02*
X54472226Y-72190677D01*
X54472226Y-72190677D02*
X54424607Y-72095439D01*
X54424607Y-72095439D02*
X54329369Y-72047820D01*
X54329369Y-72047820D02*
X54186512Y-72047820D01*
X54186512Y-72047820D02*
X54091274Y-72095439D01*
X54091274Y-72095439D02*
X54043655Y-72143058D01*
X54805560Y-72047820D02*
X55186512Y-72047820D01*
X54948417Y-71714487D02*
X54948417Y-72571629D01*
X54948417Y-72571629D02*
X54996036Y-72666868D01*
X54996036Y-72666868D02*
X55091274Y-72714487D01*
X55091274Y-72714487D02*
X55186512Y-72714487D01*
X55472227Y-72666868D02*
X55567465Y-72714487D01*
X55567465Y-72714487D02*
X55757941Y-72714487D01*
X55757941Y-72714487D02*
X55853179Y-72666868D01*
X55853179Y-72666868D02*
X55900798Y-72571629D01*
X55900798Y-72571629D02*
X55900798Y-72524010D01*
X55900798Y-72524010D02*
X55853179Y-72428772D01*
X55853179Y-72428772D02*
X55757941Y-72381153D01*
X55757941Y-72381153D02*
X55615084Y-72381153D01*
X55615084Y-72381153D02*
X55519846Y-72333534D01*
X55519846Y-72333534D02*
X55472227Y-72238296D01*
X55472227Y-72238296D02*
X55472227Y-72190677D01*
X55472227Y-72190677D02*
X55519846Y-72095439D01*
X55519846Y-72095439D02*
X55615084Y-72047820D01*
X55615084Y-72047820D02*
X55757941Y-72047820D01*
X55757941Y-72047820D02*
X55853179Y-72095439D01*
X57091275Y-72714487D02*
X57091275Y-72047820D01*
X57091275Y-72238296D02*
X57138894Y-72143058D01*
X57138894Y-72143058D02*
X57186513Y-72095439D01*
X57186513Y-72095439D02*
X57281751Y-72047820D01*
X57281751Y-72047820D02*
X57376989Y-72047820D01*
X58091275Y-72666868D02*
X57996037Y-72714487D01*
X57996037Y-72714487D02*
X57805561Y-72714487D01*
X57805561Y-72714487D02*
X57710323Y-72666868D01*
X57710323Y-72666868D02*
X57662704Y-72571629D01*
X57662704Y-72571629D02*
X57662704Y-72190677D01*
X57662704Y-72190677D02*
X57710323Y-72095439D01*
X57710323Y-72095439D02*
X57805561Y-72047820D01*
X57805561Y-72047820D02*
X57996037Y-72047820D01*
X57996037Y-72047820D02*
X58091275Y-72095439D01*
X58091275Y-72095439D02*
X58138894Y-72190677D01*
X58138894Y-72190677D02*
X58138894Y-72285915D01*
X58138894Y-72285915D02*
X57662704Y-72381153D01*
X58519847Y-72666868D02*
X58615085Y-72714487D01*
X58615085Y-72714487D02*
X58805561Y-72714487D01*
X58805561Y-72714487D02*
X58900799Y-72666868D01*
X58900799Y-72666868D02*
X58948418Y-72571629D01*
X58948418Y-72571629D02*
X58948418Y-72524010D01*
X58948418Y-72524010D02*
X58900799Y-72428772D01*
X58900799Y-72428772D02*
X58805561Y-72381153D01*
X58805561Y-72381153D02*
X58662704Y-72381153D01*
X58662704Y-72381153D02*
X58567466Y-72333534D01*
X58567466Y-72333534D02*
X58519847Y-72238296D01*
X58519847Y-72238296D02*
X58519847Y-72190677D01*
X58519847Y-72190677D02*
X58567466Y-72095439D01*
X58567466Y-72095439D02*
X58662704Y-72047820D01*
X58662704Y-72047820D02*
X58805561Y-72047820D01*
X58805561Y-72047820D02*
X58900799Y-72095439D01*
X59757942Y-72666868D02*
X59662704Y-72714487D01*
X59662704Y-72714487D02*
X59472228Y-72714487D01*
X59472228Y-72714487D02*
X59376990Y-72666868D01*
X59376990Y-72666868D02*
X59329371Y-72571629D01*
X59329371Y-72571629D02*
X59329371Y-72190677D01*
X59329371Y-72190677D02*
X59376990Y-72095439D01*
X59376990Y-72095439D02*
X59472228Y-72047820D01*
X59472228Y-72047820D02*
X59662704Y-72047820D01*
X59662704Y-72047820D02*
X59757942Y-72095439D01*
X59757942Y-72095439D02*
X59805561Y-72190677D01*
X59805561Y-72190677D02*
X59805561Y-72285915D01*
X59805561Y-72285915D02*
X59329371Y-72381153D01*
X60234133Y-72714487D02*
X60234133Y-72047820D01*
X60234133Y-72238296D02*
X60281752Y-72143058D01*
X60281752Y-72143058D02*
X60329371Y-72095439D01*
X60329371Y-72095439D02*
X60424609Y-72047820D01*
X60424609Y-72047820D02*
X60519847Y-72047820D01*
X60757943Y-72047820D02*
X60996038Y-72714487D01*
X60996038Y-72714487D02*
X61234133Y-72047820D01*
X61996038Y-72666868D02*
X61900800Y-72714487D01*
X61900800Y-72714487D02*
X61710324Y-72714487D01*
X61710324Y-72714487D02*
X61615086Y-72666868D01*
X61615086Y-72666868D02*
X61567467Y-72571629D01*
X61567467Y-72571629D02*
X61567467Y-72190677D01*
X61567467Y-72190677D02*
X61615086Y-72095439D01*
X61615086Y-72095439D02*
X61710324Y-72047820D01*
X61710324Y-72047820D02*
X61900800Y-72047820D01*
X61900800Y-72047820D02*
X61996038Y-72095439D01*
X61996038Y-72095439D02*
X62043657Y-72190677D01*
X62043657Y-72190677D02*
X62043657Y-72285915D01*
X62043657Y-72285915D02*
X61567467Y-72381153D01*
X62900800Y-72714487D02*
X62900800Y-71714487D01*
X62900800Y-72666868D02*
X62805562Y-72714487D01*
X62805562Y-72714487D02*
X62615086Y-72714487D01*
X62615086Y-72714487D02*
X62519848Y-72666868D01*
X62519848Y-72666868D02*
X62472229Y-72619248D01*
X62472229Y-72619248D02*
X62424610Y-72524010D01*
X62424610Y-72524010D02*
X62424610Y-72238296D01*
X62424610Y-72238296D02*
X62472229Y-72143058D01*
X62472229Y-72143058D02*
X62519848Y-72095439D01*
X62519848Y-72095439D02*
X62615086Y-72047820D01*
X62615086Y-72047820D02*
X62805562Y-72047820D01*
X62805562Y-72047820D02*
X62900800Y-72095439D01*
X47710321Y-74324431D02*
X47234131Y-74324431D01*
X47234131Y-74324431D02*
X47234131Y-73324431D01*
X48043655Y-74324431D02*
X48043655Y-73657764D01*
X48043655Y-73324431D02*
X47996036Y-73372050D01*
X47996036Y-73372050D02*
X48043655Y-73419669D01*
X48043655Y-73419669D02*
X48091274Y-73372050D01*
X48091274Y-73372050D02*
X48043655Y-73324431D01*
X48043655Y-73324431D02*
X48043655Y-73419669D01*
X48948416Y-74276812D02*
X48853178Y-74324431D01*
X48853178Y-74324431D02*
X48662702Y-74324431D01*
X48662702Y-74324431D02*
X48567464Y-74276812D01*
X48567464Y-74276812D02*
X48519845Y-74229192D01*
X48519845Y-74229192D02*
X48472226Y-74133954D01*
X48472226Y-74133954D02*
X48472226Y-73848240D01*
X48472226Y-73848240D02*
X48519845Y-73753002D01*
X48519845Y-73753002D02*
X48567464Y-73705383D01*
X48567464Y-73705383D02*
X48662702Y-73657764D01*
X48662702Y-73657764D02*
X48853178Y-73657764D01*
X48853178Y-73657764D02*
X48948416Y-73705383D01*
X49757940Y-74276812D02*
X49662702Y-74324431D01*
X49662702Y-74324431D02*
X49472226Y-74324431D01*
X49472226Y-74324431D02*
X49376988Y-74276812D01*
X49376988Y-74276812D02*
X49329369Y-74181573D01*
X49329369Y-74181573D02*
X49329369Y-73800621D01*
X49329369Y-73800621D02*
X49376988Y-73705383D01*
X49376988Y-73705383D02*
X49472226Y-73657764D01*
X49472226Y-73657764D02*
X49662702Y-73657764D01*
X49662702Y-73657764D02*
X49757940Y-73705383D01*
X49757940Y-73705383D02*
X49805559Y-73800621D01*
X49805559Y-73800621D02*
X49805559Y-73895859D01*
X49805559Y-73895859D02*
X49329369Y-73991097D01*
X50234131Y-73657764D02*
X50234131Y-74324431D01*
X50234131Y-73753002D02*
X50281750Y-73705383D01*
X50281750Y-73705383D02*
X50376988Y-73657764D01*
X50376988Y-73657764D02*
X50519845Y-73657764D01*
X50519845Y-73657764D02*
X50615083Y-73705383D01*
X50615083Y-73705383D02*
X50662702Y-73800621D01*
X50662702Y-73800621D02*
X50662702Y-74324431D01*
X51091274Y-74276812D02*
X51186512Y-74324431D01*
X51186512Y-74324431D02*
X51376988Y-74324431D01*
X51376988Y-74324431D02*
X51472226Y-74276812D01*
X51472226Y-74276812D02*
X51519845Y-74181573D01*
X51519845Y-74181573D02*
X51519845Y-74133954D01*
X51519845Y-74133954D02*
X51472226Y-74038716D01*
X51472226Y-74038716D02*
X51376988Y-73991097D01*
X51376988Y-73991097D02*
X51234131Y-73991097D01*
X51234131Y-73991097D02*
X51138893Y-73943478D01*
X51138893Y-73943478D02*
X51091274Y-73848240D01*
X51091274Y-73848240D02*
X51091274Y-73800621D01*
X51091274Y-73800621D02*
X51138893Y-73705383D01*
X51138893Y-73705383D02*
X51234131Y-73657764D01*
X51234131Y-73657764D02*
X51376988Y-73657764D01*
X51376988Y-73657764D02*
X51472226Y-73705383D01*
X52329369Y-74276812D02*
X52234131Y-74324431D01*
X52234131Y-74324431D02*
X52043655Y-74324431D01*
X52043655Y-74324431D02*
X51948417Y-74276812D01*
X51948417Y-74276812D02*
X51900798Y-74181573D01*
X51900798Y-74181573D02*
X51900798Y-73800621D01*
X51900798Y-73800621D02*
X51948417Y-73705383D01*
X51948417Y-73705383D02*
X52043655Y-73657764D01*
X52043655Y-73657764D02*
X52234131Y-73657764D01*
X52234131Y-73657764D02*
X52329369Y-73705383D01*
X52329369Y-73705383D02*
X52376988Y-73800621D01*
X52376988Y-73800621D02*
X52376988Y-73895859D01*
X52376988Y-73895859D02*
X51900798Y-73991097D01*
X53234131Y-74324431D02*
X53234131Y-73324431D01*
X53234131Y-74276812D02*
X53138893Y-74324431D01*
X53138893Y-74324431D02*
X52948417Y-74324431D01*
X52948417Y-74324431D02*
X52853179Y-74276812D01*
X52853179Y-74276812D02*
X52805560Y-74229192D01*
X52805560Y-74229192D02*
X52757941Y-74133954D01*
X52757941Y-74133954D02*
X52757941Y-73848240D01*
X52757941Y-73848240D02*
X52805560Y-73753002D01*
X52805560Y-73753002D02*
X52853179Y-73705383D01*
X52853179Y-73705383D02*
X52948417Y-73657764D01*
X52948417Y-73657764D02*
X53138893Y-73657764D01*
X53138893Y-73657764D02*
X53234131Y-73705383D01*
X54900798Y-73657764D02*
X54900798Y-74324431D01*
X54472227Y-73657764D02*
X54472227Y-74181573D01*
X54472227Y-74181573D02*
X54519846Y-74276812D01*
X54519846Y-74276812D02*
X54615084Y-74324431D01*
X54615084Y-74324431D02*
X54757941Y-74324431D01*
X54757941Y-74324431D02*
X54853179Y-74276812D01*
X54853179Y-74276812D02*
X54900798Y-74229192D01*
X55376989Y-73657764D02*
X55376989Y-74324431D01*
X55376989Y-73753002D02*
X55424608Y-73705383D01*
X55424608Y-73705383D02*
X55519846Y-73657764D01*
X55519846Y-73657764D02*
X55662703Y-73657764D01*
X55662703Y-73657764D02*
X55757941Y-73705383D01*
X55757941Y-73705383D02*
X55805560Y-73800621D01*
X55805560Y-73800621D02*
X55805560Y-74324431D01*
X56710322Y-74324431D02*
X56710322Y-73324431D01*
X56710322Y-74276812D02*
X56615084Y-74324431D01*
X56615084Y-74324431D02*
X56424608Y-74324431D01*
X56424608Y-74324431D02*
X56329370Y-74276812D01*
X56329370Y-74276812D02*
X56281751Y-74229192D01*
X56281751Y-74229192D02*
X56234132Y-74133954D01*
X56234132Y-74133954D02*
X56234132Y-73848240D01*
X56234132Y-73848240D02*
X56281751Y-73753002D01*
X56281751Y-73753002D02*
X56329370Y-73705383D01*
X56329370Y-73705383D02*
X56424608Y-73657764D01*
X56424608Y-73657764D02*
X56615084Y-73657764D01*
X56615084Y-73657764D02*
X56710322Y-73705383D01*
X57567465Y-74276812D02*
X57472227Y-74324431D01*
X57472227Y-74324431D02*
X57281751Y-74324431D01*
X57281751Y-74324431D02*
X57186513Y-74276812D01*
X57186513Y-74276812D02*
X57138894Y-74181573D01*
X57138894Y-74181573D02*
X57138894Y-73800621D01*
X57138894Y-73800621D02*
X57186513Y-73705383D01*
X57186513Y-73705383D02*
X57281751Y-73657764D01*
X57281751Y-73657764D02*
X57472227Y-73657764D01*
X57472227Y-73657764D02*
X57567465Y-73705383D01*
X57567465Y-73705383D02*
X57615084Y-73800621D01*
X57615084Y-73800621D02*
X57615084Y-73895859D01*
X57615084Y-73895859D02*
X57138894Y-73991097D01*
X58043656Y-74324431D02*
X58043656Y-73657764D01*
X58043656Y-73848240D02*
X58091275Y-73753002D01*
X58091275Y-73753002D02*
X58138894Y-73705383D01*
X58138894Y-73705383D02*
X58234132Y-73657764D01*
X58234132Y-73657764D02*
X58329370Y-73657764D01*
X59281752Y-73657764D02*
X59662704Y-73657764D01*
X59424609Y-73324431D02*
X59424609Y-74181573D01*
X59424609Y-74181573D02*
X59472228Y-74276812D01*
X59472228Y-74276812D02*
X59567466Y-74324431D01*
X59567466Y-74324431D02*
X59662704Y-74324431D01*
X59996038Y-74324431D02*
X59996038Y-73324431D01*
X60424609Y-74324431D02*
X60424609Y-73800621D01*
X60424609Y-73800621D02*
X60376990Y-73705383D01*
X60376990Y-73705383D02*
X60281752Y-73657764D01*
X60281752Y-73657764D02*
X60138895Y-73657764D01*
X60138895Y-73657764D02*
X60043657Y-73705383D01*
X60043657Y-73705383D02*
X59996038Y-73753002D01*
X61281752Y-74276812D02*
X61186514Y-74324431D01*
X61186514Y-74324431D02*
X60996038Y-74324431D01*
X60996038Y-74324431D02*
X60900800Y-74276812D01*
X60900800Y-74276812D02*
X60853181Y-74181573D01*
X60853181Y-74181573D02*
X60853181Y-73800621D01*
X60853181Y-73800621D02*
X60900800Y-73705383D01*
X60900800Y-73705383D02*
X60996038Y-73657764D01*
X60996038Y-73657764D02*
X61186514Y-73657764D01*
X61186514Y-73657764D02*
X61281752Y-73705383D01*
X61281752Y-73705383D02*
X61329371Y-73800621D01*
X61329371Y-73800621D02*
X61329371Y-73895859D01*
X61329371Y-73895859D02*
X60853181Y-73991097D01*
X63043657Y-73372050D02*
X62948419Y-73324431D01*
X62948419Y-73324431D02*
X62805562Y-73324431D01*
X62805562Y-73324431D02*
X62662705Y-73372050D01*
X62662705Y-73372050D02*
X62567467Y-73467288D01*
X62567467Y-73467288D02*
X62519848Y-73562526D01*
X62519848Y-73562526D02*
X62472229Y-73753002D01*
X62472229Y-73753002D02*
X62472229Y-73895859D01*
X62472229Y-73895859D02*
X62519848Y-74086335D01*
X62519848Y-74086335D02*
X62567467Y-74181573D01*
X62567467Y-74181573D02*
X62662705Y-74276812D01*
X62662705Y-74276812D02*
X62805562Y-74324431D01*
X62805562Y-74324431D02*
X62900800Y-74324431D01*
X62900800Y-74324431D02*
X63043657Y-74276812D01*
X63043657Y-74276812D02*
X63091276Y-74229192D01*
X63091276Y-74229192D02*
X63091276Y-73895859D01*
X63091276Y-73895859D02*
X62900800Y-73895859D01*
X63519848Y-74324431D02*
X63519848Y-73324431D01*
X63519848Y-73324431D02*
X63900800Y-73324431D01*
X63900800Y-73324431D02*
X63996038Y-73372050D01*
X63996038Y-73372050D02*
X64043657Y-73419669D01*
X64043657Y-73419669D02*
X64091276Y-73514907D01*
X64091276Y-73514907D02*
X64091276Y-73657764D01*
X64091276Y-73657764D02*
X64043657Y-73753002D01*
X64043657Y-73753002D02*
X63996038Y-73800621D01*
X63996038Y-73800621D02*
X63900800Y-73848240D01*
X63900800Y-73848240D02*
X63519848Y-73848240D01*
X64996038Y-74324431D02*
X64519848Y-74324431D01*
X64519848Y-74324431D02*
X64519848Y-73324431D01*
X65234134Y-73657764D02*
X65472229Y-74324431D01*
X65472229Y-74324431D02*
X65710324Y-73657764D01*
X65996039Y-73324431D02*
X66615086Y-73324431D01*
X66615086Y-73324431D02*
X66281753Y-73705383D01*
X66281753Y-73705383D02*
X66424610Y-73705383D01*
X66424610Y-73705383D02*
X66519848Y-73753002D01*
X66519848Y-73753002D02*
X66567467Y-73800621D01*
X66567467Y-73800621D02*
X66615086Y-73895859D01*
X66615086Y-73895859D02*
X66615086Y-74133954D01*
X66615086Y-74133954D02*
X66567467Y-74229192D01*
X66567467Y-74229192D02*
X66519848Y-74276812D01*
X66519848Y-74276812D02*
X66424610Y-74324431D01*
X66424610Y-74324431D02*
X66138896Y-74324431D01*
X66138896Y-74324431D02*
X66043658Y-74276812D01*
X66043658Y-74276812D02*
X65996039Y-74229192D01*
X68281753Y-74324431D02*
X67805563Y-74324431D01*
X67805563Y-74324431D02*
X67805563Y-73324431D01*
X68615087Y-74324431D02*
X68615087Y-73657764D01*
X68615087Y-73324431D02*
X68567468Y-73372050D01*
X68567468Y-73372050D02*
X68615087Y-73419669D01*
X68615087Y-73419669D02*
X68662706Y-73372050D01*
X68662706Y-73372050D02*
X68615087Y-73324431D01*
X68615087Y-73324431D02*
X68615087Y-73419669D01*
X69519848Y-74276812D02*
X69424610Y-74324431D01*
X69424610Y-74324431D02*
X69234134Y-74324431D01*
X69234134Y-74324431D02*
X69138896Y-74276812D01*
X69138896Y-74276812D02*
X69091277Y-74229192D01*
X69091277Y-74229192D02*
X69043658Y-74133954D01*
X69043658Y-74133954D02*
X69043658Y-73848240D01*
X69043658Y-73848240D02*
X69091277Y-73753002D01*
X69091277Y-73753002D02*
X69138896Y-73705383D01*
X69138896Y-73705383D02*
X69234134Y-73657764D01*
X69234134Y-73657764D02*
X69424610Y-73657764D01*
X69424610Y-73657764D02*
X69519848Y-73705383D01*
X70329372Y-74276812D02*
X70234134Y-74324431D01*
X70234134Y-74324431D02*
X70043658Y-74324431D01*
X70043658Y-74324431D02*
X69948420Y-74276812D01*
X69948420Y-74276812D02*
X69900801Y-74181573D01*
X69900801Y-74181573D02*
X69900801Y-73800621D01*
X69900801Y-73800621D02*
X69948420Y-73705383D01*
X69948420Y-73705383D02*
X70043658Y-73657764D01*
X70043658Y-73657764D02*
X70234134Y-73657764D01*
X70234134Y-73657764D02*
X70329372Y-73705383D01*
X70329372Y-73705383D02*
X70376991Y-73800621D01*
X70376991Y-73800621D02*
X70376991Y-73895859D01*
X70376991Y-73895859D02*
X69900801Y-73991097D01*
X70805563Y-73657764D02*
X70805563Y-74324431D01*
X70805563Y-73753002D02*
X70853182Y-73705383D01*
X70853182Y-73705383D02*
X70948420Y-73657764D01*
X70948420Y-73657764D02*
X71091277Y-73657764D01*
X71091277Y-73657764D02*
X71186515Y-73705383D01*
X71186515Y-73705383D02*
X71234134Y-73800621D01*
X71234134Y-73800621D02*
X71234134Y-74324431D01*
X71662706Y-74276812D02*
X71757944Y-74324431D01*
X71757944Y-74324431D02*
X71948420Y-74324431D01*
X71948420Y-74324431D02*
X72043658Y-74276812D01*
X72043658Y-74276812D02*
X72091277Y-74181573D01*
X72091277Y-74181573D02*
X72091277Y-74133954D01*
X72091277Y-74133954D02*
X72043658Y-74038716D01*
X72043658Y-74038716D02*
X71948420Y-73991097D01*
X71948420Y-73991097D02*
X71805563Y-73991097D01*
X71805563Y-73991097D02*
X71710325Y-73943478D01*
X71710325Y-73943478D02*
X71662706Y-73848240D01*
X71662706Y-73848240D02*
X71662706Y-73800621D01*
X71662706Y-73800621D02*
X71710325Y-73705383D01*
X71710325Y-73705383D02*
X71805563Y-73657764D01*
X71805563Y-73657764D02*
X71948420Y-73657764D01*
X71948420Y-73657764D02*
X72043658Y-73705383D01*
X72900801Y-74276812D02*
X72805563Y-74324431D01*
X72805563Y-74324431D02*
X72615087Y-74324431D01*
X72615087Y-74324431D02*
X72519849Y-74276812D01*
X72519849Y-74276812D02*
X72472230Y-74181573D01*
X72472230Y-74181573D02*
X72472230Y-73800621D01*
X72472230Y-73800621D02*
X72519849Y-73705383D01*
X72519849Y-73705383D02*
X72615087Y-73657764D01*
X72615087Y-73657764D02*
X72805563Y-73657764D01*
X72805563Y-73657764D02*
X72900801Y-73705383D01*
X72900801Y-73705383D02*
X72948420Y-73800621D01*
X72948420Y-73800621D02*
X72948420Y-73895859D01*
X72948420Y-73895859D02*
X72472230Y-73991097D01*
X47662702Y-76877652D02*
X47662702Y-77687176D01*
X47662702Y-77687176D02*
X47615083Y-77782414D01*
X47615083Y-77782414D02*
X47567464Y-77830033D01*
X47567464Y-77830033D02*
X47472226Y-77877652D01*
X47472226Y-77877652D02*
X47329369Y-77877652D01*
X47329369Y-77877652D02*
X47234131Y-77830033D01*
X47662702Y-77496700D02*
X47567464Y-77544319D01*
X47567464Y-77544319D02*
X47376988Y-77544319D01*
X47376988Y-77544319D02*
X47281750Y-77496700D01*
X47281750Y-77496700D02*
X47234131Y-77449080D01*
X47234131Y-77449080D02*
X47186512Y-77353842D01*
X47186512Y-77353842D02*
X47186512Y-77068128D01*
X47186512Y-77068128D02*
X47234131Y-76972890D01*
X47234131Y-76972890D02*
X47281750Y-76925271D01*
X47281750Y-76925271D02*
X47376988Y-76877652D01*
X47376988Y-76877652D02*
X47567464Y-76877652D01*
X47567464Y-76877652D02*
X47662702Y-76925271D01*
X48138893Y-77544319D02*
X48138893Y-76877652D01*
X48138893Y-76544319D02*
X48091274Y-76591938D01*
X48091274Y-76591938D02*
X48138893Y-76639557D01*
X48138893Y-76639557D02*
X48186512Y-76591938D01*
X48186512Y-76591938D02*
X48138893Y-76544319D01*
X48138893Y-76544319D02*
X48138893Y-76639557D01*
X48472226Y-76877652D02*
X48853178Y-76877652D01*
X48615083Y-76544319D02*
X48615083Y-77401461D01*
X48615083Y-77401461D02*
X48662702Y-77496700D01*
X48662702Y-77496700D02*
X48757940Y-77544319D01*
X48757940Y-77544319D02*
X48853178Y-77544319D01*
X49186512Y-77544319D02*
X49186512Y-76544319D01*
X49615083Y-77544319D02*
X49615083Y-77020509D01*
X49615083Y-77020509D02*
X49567464Y-76925271D01*
X49567464Y-76925271D02*
X49472226Y-76877652D01*
X49472226Y-76877652D02*
X49329369Y-76877652D01*
X49329369Y-76877652D02*
X49234131Y-76925271D01*
X49234131Y-76925271D02*
X49186512Y-76972890D01*
X50519845Y-76877652D02*
X50519845Y-77544319D01*
X50091274Y-76877652D02*
X50091274Y-77401461D01*
X50091274Y-77401461D02*
X50138893Y-77496700D01*
X50138893Y-77496700D02*
X50234131Y-77544319D01*
X50234131Y-77544319D02*
X50376988Y-77544319D01*
X50376988Y-77544319D02*
X50472226Y-77496700D01*
X50472226Y-77496700D02*
X50519845Y-77449080D01*
X50996036Y-77544319D02*
X50996036Y-76544319D01*
X50996036Y-76925271D02*
X51091274Y-76877652D01*
X51091274Y-76877652D02*
X51281750Y-76877652D01*
X51281750Y-76877652D02*
X51376988Y-76925271D01*
X51376988Y-76925271D02*
X51424607Y-76972890D01*
X51424607Y-76972890D02*
X51472226Y-77068128D01*
X51472226Y-77068128D02*
X51472226Y-77353842D01*
X51472226Y-77353842D02*
X51424607Y-77449080D01*
X51424607Y-77449080D02*
X51376988Y-77496700D01*
X51376988Y-77496700D02*
X51281750Y-77544319D01*
X51281750Y-77544319D02*
X51091274Y-77544319D01*
X51091274Y-77544319D02*
X50996036Y-77496700D01*
X51900798Y-77449080D02*
X51948417Y-77496700D01*
X51948417Y-77496700D02*
X51900798Y-77544319D01*
X51900798Y-77544319D02*
X51853179Y-77496700D01*
X51853179Y-77496700D02*
X51900798Y-77449080D01*
X51900798Y-77449080D02*
X51900798Y-77544319D01*
X52805559Y-77496700D02*
X52710321Y-77544319D01*
X52710321Y-77544319D02*
X52519845Y-77544319D01*
X52519845Y-77544319D02*
X52424607Y-77496700D01*
X52424607Y-77496700D02*
X52376988Y-77449080D01*
X52376988Y-77449080D02*
X52329369Y-77353842D01*
X52329369Y-77353842D02*
X52329369Y-77068128D01*
X52329369Y-77068128D02*
X52376988Y-76972890D01*
X52376988Y-76972890D02*
X52424607Y-76925271D01*
X52424607Y-76925271D02*
X52519845Y-76877652D01*
X52519845Y-76877652D02*
X52710321Y-76877652D01*
X52710321Y-76877652D02*
X52805559Y-76925271D01*
X53376988Y-77544319D02*
X53281750Y-77496700D01*
X53281750Y-77496700D02*
X53234131Y-77449080D01*
X53234131Y-77449080D02*
X53186512Y-77353842D01*
X53186512Y-77353842D02*
X53186512Y-77068128D01*
X53186512Y-77068128D02*
X53234131Y-76972890D01*
X53234131Y-76972890D02*
X53281750Y-76925271D01*
X53281750Y-76925271D02*
X53376988Y-76877652D01*
X53376988Y-76877652D02*
X53519845Y-76877652D01*
X53519845Y-76877652D02*
X53615083Y-76925271D01*
X53615083Y-76925271D02*
X53662702Y-76972890D01*
X53662702Y-76972890D02*
X53710321Y-77068128D01*
X53710321Y-77068128D02*
X53710321Y-77353842D01*
X53710321Y-77353842D02*
X53662702Y-77449080D01*
X53662702Y-77449080D02*
X53615083Y-77496700D01*
X53615083Y-77496700D02*
X53519845Y-77544319D01*
X53519845Y-77544319D02*
X53376988Y-77544319D01*
X54138893Y-77544319D02*
X54138893Y-76877652D01*
X54138893Y-76972890D02*
X54186512Y-76925271D01*
X54186512Y-76925271D02*
X54281750Y-76877652D01*
X54281750Y-76877652D02*
X54424607Y-76877652D01*
X54424607Y-76877652D02*
X54519845Y-76925271D01*
X54519845Y-76925271D02*
X54567464Y-77020509D01*
X54567464Y-77020509D02*
X54567464Y-77544319D01*
X54567464Y-77020509D02*
X54615083Y-76925271D01*
X54615083Y-76925271D02*
X54710321Y-76877652D01*
X54710321Y-76877652D02*
X54853178Y-76877652D01*
X54853178Y-76877652D02*
X54948417Y-76925271D01*
X54948417Y-76925271D02*
X54996036Y-77020509D01*
X54996036Y-77020509D02*
X54996036Y-77544319D01*
X56186511Y-76496700D02*
X55329369Y-77782414D01*
X57186511Y-77639557D02*
X57091273Y-77591938D01*
X57091273Y-77591938D02*
X56996035Y-77496700D01*
X56996035Y-77496700D02*
X56853178Y-77353842D01*
X56853178Y-77353842D02*
X56757940Y-77306223D01*
X56757940Y-77306223D02*
X56662702Y-77306223D01*
X56710321Y-77544319D02*
X56615083Y-77496700D01*
X56615083Y-77496700D02*
X56519845Y-77401461D01*
X56519845Y-77401461D02*
X56472226Y-77210985D01*
X56472226Y-77210985D02*
X56472226Y-76877652D01*
X56472226Y-76877652D02*
X56519845Y-76687176D01*
X56519845Y-76687176D02*
X56615083Y-76591938D01*
X56615083Y-76591938D02*
X56710321Y-76544319D01*
X56710321Y-76544319D02*
X56900797Y-76544319D01*
X56900797Y-76544319D02*
X56996035Y-76591938D01*
X56996035Y-76591938D02*
X57091273Y-76687176D01*
X57091273Y-76687176D02*
X57138892Y-76877652D01*
X57138892Y-76877652D02*
X57138892Y-77210985D01*
X57138892Y-77210985D02*
X57091273Y-77401461D01*
X57091273Y-77401461D02*
X56996035Y-77496700D01*
X56996035Y-77496700D02*
X56900797Y-77544319D01*
X56900797Y-77544319D02*
X56710321Y-77544319D01*
X57567464Y-77544319D02*
X57567464Y-76877652D01*
X57567464Y-76544319D02*
X57519845Y-76591938D01*
X57519845Y-76591938D02*
X57567464Y-76639557D01*
X57567464Y-76639557D02*
X57615083Y-76591938D01*
X57615083Y-76591938D02*
X57567464Y-76544319D01*
X57567464Y-76544319D02*
X57567464Y-76639557D01*
X58043654Y-76877652D02*
X58043654Y-77544319D01*
X58043654Y-76972890D02*
X58091273Y-76925271D01*
X58091273Y-76925271D02*
X58186511Y-76877652D01*
X58186511Y-76877652D02*
X58329368Y-76877652D01*
X58329368Y-76877652D02*
X58424606Y-76925271D01*
X58424606Y-76925271D02*
X58472225Y-77020509D01*
X58472225Y-77020509D02*
X58472225Y-77544319D01*
X59519844Y-77449080D02*
X59472225Y-77496700D01*
X59472225Y-77496700D02*
X59329368Y-77544319D01*
X59329368Y-77544319D02*
X59234130Y-77544319D01*
X59234130Y-77544319D02*
X59091273Y-77496700D01*
X59091273Y-77496700D02*
X58996035Y-77401461D01*
X58996035Y-77401461D02*
X58948416Y-77306223D01*
X58948416Y-77306223D02*
X58900797Y-77115747D01*
X58900797Y-77115747D02*
X58900797Y-76972890D01*
X58900797Y-76972890D02*
X58948416Y-76782414D01*
X58948416Y-76782414D02*
X58996035Y-76687176D01*
X58996035Y-76687176D02*
X59091273Y-76591938D01*
X59091273Y-76591938D02*
X59234130Y-76544319D01*
X59234130Y-76544319D02*
X59329368Y-76544319D01*
X59329368Y-76544319D02*
X59472225Y-76591938D01*
X59472225Y-76591938D02*
X59519844Y-76639557D01*
X60376987Y-77544319D02*
X60376987Y-77020509D01*
X60376987Y-77020509D02*
X60329368Y-76925271D01*
X60329368Y-76925271D02*
X60234130Y-76877652D01*
X60234130Y-76877652D02*
X60043654Y-76877652D01*
X60043654Y-76877652D02*
X59948416Y-76925271D01*
X60376987Y-77496700D02*
X60281749Y-77544319D01*
X60281749Y-77544319D02*
X60043654Y-77544319D01*
X60043654Y-77544319D02*
X59948416Y-77496700D01*
X59948416Y-77496700D02*
X59900797Y-77401461D01*
X59900797Y-77401461D02*
X59900797Y-77306223D01*
X59900797Y-77306223D02*
X59948416Y-77210985D01*
X59948416Y-77210985D02*
X60043654Y-77163366D01*
X60043654Y-77163366D02*
X60281749Y-77163366D01*
X60281749Y-77163366D02*
X60376987Y-77115747D01*
X60853178Y-77544319D02*
X60853178Y-76877652D01*
X60853178Y-76544319D02*
X60805559Y-76591938D01*
X60805559Y-76591938D02*
X60853178Y-76639557D01*
X60853178Y-76639557D02*
X60900797Y-76591938D01*
X60900797Y-76591938D02*
X60853178Y-76544319D01*
X60853178Y-76544319D02*
X60853178Y-76639557D01*
X61329368Y-77163366D02*
X62091273Y-77163366D01*
X62567463Y-77544319D02*
X62567463Y-76877652D01*
X62567463Y-77068128D02*
X62615082Y-76972890D01*
X62615082Y-76972890D02*
X62662701Y-76925271D01*
X62662701Y-76925271D02*
X62757939Y-76877652D01*
X62757939Y-76877652D02*
X62853177Y-76877652D01*
X63615082Y-76877652D02*
X63615082Y-77544319D01*
X63186511Y-76877652D02*
X63186511Y-77401461D01*
X63186511Y-77401461D02*
X63234130Y-77496700D01*
X63234130Y-77496700D02*
X63329368Y-77544319D01*
X63329368Y-77544319D02*
X63472225Y-77544319D01*
X63472225Y-77544319D02*
X63567463Y-77496700D01*
X63567463Y-77496700D02*
X63615082Y-77449080D01*
X64091273Y-77544319D02*
X64091273Y-76877652D01*
X64091273Y-76544319D02*
X64043654Y-76591938D01*
X64043654Y-76591938D02*
X64091273Y-76639557D01*
X64091273Y-76639557D02*
X64138892Y-76591938D01*
X64138892Y-76591938D02*
X64091273Y-76544319D01*
X64091273Y-76544319D02*
X64091273Y-76639557D01*
X65281748Y-76496700D02*
X64424606Y-77782414D01*
X65567463Y-77496700D02*
X65710320Y-77544319D01*
X65710320Y-77544319D02*
X65948415Y-77544319D01*
X65948415Y-77544319D02*
X66043653Y-77496700D01*
X66043653Y-77496700D02*
X66091272Y-77449080D01*
X66091272Y-77449080D02*
X66138891Y-77353842D01*
X66138891Y-77353842D02*
X66138891Y-77258604D01*
X66138891Y-77258604D02*
X66091272Y-77163366D01*
X66091272Y-77163366D02*
X66043653Y-77115747D01*
X66043653Y-77115747D02*
X65948415Y-77068128D01*
X65948415Y-77068128D02*
X65757939Y-77020509D01*
X65757939Y-77020509D02*
X65662701Y-76972890D01*
X65662701Y-76972890D02*
X65615082Y-76925271D01*
X65615082Y-76925271D02*
X65567463Y-76830033D01*
X65567463Y-76830033D02*
X65567463Y-76734795D01*
X65567463Y-76734795D02*
X65615082Y-76639557D01*
X65615082Y-76639557D02*
X65662701Y-76591938D01*
X65662701Y-76591938D02*
X65757939Y-76544319D01*
X65757939Y-76544319D02*
X65996034Y-76544319D01*
X65996034Y-76544319D02*
X66138891Y-76591938D01*
X66567463Y-77544319D02*
X66567463Y-76877652D01*
X66567463Y-76972890D02*
X66615082Y-76925271D01*
X66615082Y-76925271D02*
X66710320Y-76877652D01*
X66710320Y-76877652D02*
X66853177Y-76877652D01*
X66853177Y-76877652D02*
X66948415Y-76925271D01*
X66948415Y-76925271D02*
X66996034Y-77020509D01*
X66996034Y-77020509D02*
X66996034Y-77544319D01*
X66996034Y-77020509D02*
X67043653Y-76925271D01*
X67043653Y-76925271D02*
X67138891Y-76877652D01*
X67138891Y-76877652D02*
X67281748Y-76877652D01*
X67281748Y-76877652D02*
X67376987Y-76925271D01*
X67376987Y-76925271D02*
X67424606Y-77020509D01*
X67424606Y-77020509D02*
X67424606Y-77544319D01*
X68329367Y-77544319D02*
X68329367Y-77020509D01*
X68329367Y-77020509D02*
X68281748Y-76925271D01*
X68281748Y-76925271D02*
X68186510Y-76877652D01*
X68186510Y-76877652D02*
X67996034Y-76877652D01*
X67996034Y-76877652D02*
X67900796Y-76925271D01*
X68329367Y-77496700D02*
X68234129Y-77544319D01*
X68234129Y-77544319D02*
X67996034Y-77544319D01*
X67996034Y-77544319D02*
X67900796Y-77496700D01*
X67900796Y-77496700D02*
X67853177Y-77401461D01*
X67853177Y-77401461D02*
X67853177Y-77306223D01*
X67853177Y-77306223D02*
X67900796Y-77210985D01*
X67900796Y-77210985D02*
X67996034Y-77163366D01*
X67996034Y-77163366D02*
X68234129Y-77163366D01*
X68234129Y-77163366D02*
X68329367Y-77115747D01*
X68805558Y-77544319D02*
X68805558Y-76877652D01*
X68805558Y-77068128D02*
X68853177Y-76972890D01*
X68853177Y-76972890D02*
X68900796Y-76925271D01*
X68900796Y-76925271D02*
X68996034Y-76877652D01*
X68996034Y-76877652D02*
X69091272Y-76877652D01*
X69281749Y-76877652D02*
X69662701Y-76877652D01*
X69424606Y-76544319D02*
X69424606Y-77401461D01*
X69424606Y-77401461D02*
X69472225Y-77496700D01*
X69472225Y-77496700D02*
X69567463Y-77544319D01*
X69567463Y-77544319D02*
X69662701Y-77544319D01*
X70567463Y-77449080D02*
X70519844Y-77496700D01*
X70519844Y-77496700D02*
X70376987Y-77544319D01*
X70376987Y-77544319D02*
X70281749Y-77544319D01*
X70281749Y-77544319D02*
X70138892Y-77496700D01*
X70138892Y-77496700D02*
X70043654Y-77401461D01*
X70043654Y-77401461D02*
X69996035Y-77306223D01*
X69996035Y-77306223D02*
X69948416Y-77115747D01*
X69948416Y-77115747D02*
X69948416Y-76972890D01*
X69948416Y-76972890D02*
X69996035Y-76782414D01*
X69996035Y-76782414D02*
X70043654Y-76687176D01*
X70043654Y-76687176D02*
X70138892Y-76591938D01*
X70138892Y-76591938D02*
X70281749Y-76544319D01*
X70281749Y-76544319D02*
X70376987Y-76544319D01*
X70376987Y-76544319D02*
X70519844Y-76591938D01*
X70519844Y-76591938D02*
X70567463Y-76639557D01*
X71138892Y-77544319D02*
X71043654Y-77496700D01*
X71043654Y-77496700D02*
X70996035Y-77401461D01*
X70996035Y-77401461D02*
X70996035Y-76544319D01*
X71662702Y-77544319D02*
X71567464Y-77496700D01*
X71567464Y-77496700D02*
X71519845Y-77449080D01*
X71519845Y-77449080D02*
X71472226Y-77353842D01*
X71472226Y-77353842D02*
X71472226Y-77068128D01*
X71472226Y-77068128D02*
X71519845Y-76972890D01*
X71519845Y-76972890D02*
X71567464Y-76925271D01*
X71567464Y-76925271D02*
X71662702Y-76877652D01*
X71662702Y-76877652D02*
X71805559Y-76877652D01*
X71805559Y-76877652D02*
X71900797Y-76925271D01*
X71900797Y-76925271D02*
X71948416Y-76972890D01*
X71948416Y-76972890D02*
X71996035Y-77068128D01*
X71996035Y-77068128D02*
X71996035Y-77353842D01*
X71996035Y-77353842D02*
X71948416Y-77449080D01*
X71948416Y-77449080D02*
X71900797Y-77496700D01*
X71900797Y-77496700D02*
X71805559Y-77544319D01*
X71805559Y-77544319D02*
X71662702Y-77544319D01*
X72853178Y-77496700D02*
X72757940Y-77544319D01*
X72757940Y-77544319D02*
X72567464Y-77544319D01*
X72567464Y-77544319D02*
X72472226Y-77496700D01*
X72472226Y-77496700D02*
X72424607Y-77449080D01*
X72424607Y-77449080D02*
X72376988Y-77353842D01*
X72376988Y-77353842D02*
X72376988Y-77068128D01*
X72376988Y-77068128D02*
X72424607Y-76972890D01*
X72424607Y-76972890D02*
X72472226Y-76925271D01*
X72472226Y-76925271D02*
X72567464Y-76877652D01*
X72567464Y-76877652D02*
X72757940Y-76877652D01*
X72757940Y-76877652D02*
X72853178Y-76925271D01*
X73281750Y-77544319D02*
X73281750Y-76544319D01*
X73376988Y-77163366D02*
X73662702Y-77544319D01*
X73662702Y-76877652D02*
X73281750Y-77258604D01*
X74091274Y-77544319D02*
X74091274Y-76544319D01*
X74091274Y-76544319D02*
X74472226Y-76544319D01*
X74472226Y-76544319D02*
X74567464Y-76591938D01*
X74567464Y-76591938D02*
X74615083Y-76639557D01*
X74615083Y-76639557D02*
X74662702Y-76734795D01*
X74662702Y-76734795D02*
X74662702Y-76877652D01*
X74662702Y-76877652D02*
X74615083Y-76972890D01*
X74615083Y-76972890D02*
X74567464Y-77020509D01*
X74567464Y-77020509D02*
X74472226Y-77068128D01*
X74472226Y-77068128D02*
X74091274Y-77068128D01*
X75091274Y-77544319D02*
X75091274Y-76877652D01*
X75091274Y-76544319D02*
X75043655Y-76591938D01*
X75043655Y-76591938D02*
X75091274Y-76639557D01*
X75091274Y-76639557D02*
X75138893Y-76591938D01*
X75138893Y-76591938D02*
X75091274Y-76544319D01*
X75091274Y-76544319D02*
X75091274Y-76639557D01*
D11*
X124379510Y-93412600D02*
X125522368Y-93412600D01*
D13*
X95083333Y-70564819D02*
X94750000Y-70088628D01*
X94511905Y-70564819D02*
X94511905Y-69564819D01*
X94511905Y-69564819D02*
X94892857Y-69564819D01*
X94892857Y-69564819D02*
X94988095Y-69612438D01*
X94988095Y-69612438D02*
X95035714Y-69660057D01*
X95035714Y-69660057D02*
X95083333Y-69755295D01*
X95083333Y-69755295D02*
X95083333Y-69898152D01*
X95083333Y-69898152D02*
X95035714Y-69993390D01*
X95035714Y-69993390D02*
X94988095Y-70041009D01*
X94988095Y-70041009D02*
X94892857Y-70088628D01*
X94892857Y-70088628D02*
X94511905Y-70088628D01*
X96035714Y-70564819D02*
X95464286Y-70564819D01*
X95750000Y-70564819D02*
X95750000Y-69564819D01*
X95750000Y-69564819D02*
X95654762Y-69707676D01*
X95654762Y-69707676D02*
X95559524Y-69802914D01*
X95559524Y-69802914D02*
X95464286Y-69850533D01*
X62166666Y-85394819D02*
X62166666Y-86109104D01*
X62166666Y-86109104D02*
X62119047Y-86251961D01*
X62119047Y-86251961D02*
X62023809Y-86347200D01*
X62023809Y-86347200D02*
X61880952Y-86394819D01*
X61880952Y-86394819D02*
X61785714Y-86394819D01*
X62547619Y-85394819D02*
X63166666Y-85394819D01*
X63166666Y-85394819D02*
X62833333Y-85775771D01*
X62833333Y-85775771D02*
X62976190Y-85775771D01*
X62976190Y-85775771D02*
X63071428Y-85823390D01*
X63071428Y-85823390D02*
X63119047Y-85871009D01*
X63119047Y-85871009D02*
X63166666Y-85966247D01*
X63166666Y-85966247D02*
X63166666Y-86204342D01*
X63166666Y-86204342D02*
X63119047Y-86299580D01*
X63119047Y-86299580D02*
X63071428Y-86347200D01*
X63071428Y-86347200D02*
X62976190Y-86394819D01*
X62976190Y-86394819D02*
X62690476Y-86394819D01*
X62690476Y-86394819D02*
X62595238Y-86347200D01*
X62595238Y-86347200D02*
X62547619Y-86299580D01*
X123307019Y-127988333D02*
X124021304Y-127988333D01*
X124021304Y-127988333D02*
X124164161Y-128035952D01*
X124164161Y-128035952D02*
X124259400Y-128131190D01*
X124259400Y-128131190D02*
X124307019Y-128274047D01*
X124307019Y-128274047D02*
X124307019Y-128369285D01*
X123402257Y-127559761D02*
X123354638Y-127512142D01*
X123354638Y-127512142D02*
X123307019Y-127416904D01*
X123307019Y-127416904D02*
X123307019Y-127178809D01*
X123307019Y-127178809D02*
X123354638Y-127083571D01*
X123354638Y-127083571D02*
X123402257Y-127035952D01*
X123402257Y-127035952D02*
X123497495Y-126988333D01*
X123497495Y-126988333D02*
X123592733Y-126988333D01*
X123592733Y-126988333D02*
X123735590Y-127035952D01*
X123735590Y-127035952D02*
X124307019Y-127607380D01*
X124307019Y-127607380D02*
X124307019Y-126988333D01*
X78154305Y-88789819D02*
X78154305Y-87789819D01*
X78154305Y-87789819D02*
X78392400Y-87789819D01*
X78392400Y-87789819D02*
X78535257Y-87837438D01*
X78535257Y-87837438D02*
X78630495Y-87932676D01*
X78630495Y-87932676D02*
X78678114Y-88027914D01*
X78678114Y-88027914D02*
X78725733Y-88218390D01*
X78725733Y-88218390D02*
X78725733Y-88361247D01*
X78725733Y-88361247D02*
X78678114Y-88551723D01*
X78678114Y-88551723D02*
X78630495Y-88646961D01*
X78630495Y-88646961D02*
X78535257Y-88742200D01*
X78535257Y-88742200D02*
X78392400Y-88789819D01*
X78392400Y-88789819D02*
X78154305Y-88789819D01*
X79678114Y-88789819D02*
X79106686Y-88789819D01*
X79392400Y-88789819D02*
X79392400Y-87789819D01*
X79392400Y-87789819D02*
X79297162Y-87932676D01*
X79297162Y-87932676D02*
X79201924Y-88027914D01*
X79201924Y-88027914D02*
X79106686Y-88075533D01*
X73550495Y-89159819D02*
X73550495Y-88159819D01*
X74121923Y-89159819D02*
X73693352Y-88588390D01*
X74121923Y-88159819D02*
X73550495Y-88731247D01*
X89201666Y-81571619D02*
X89201666Y-82285904D01*
X89201666Y-82285904D02*
X89154047Y-82428761D01*
X89154047Y-82428761D02*
X89058809Y-82524000D01*
X89058809Y-82524000D02*
X88915952Y-82571619D01*
X88915952Y-82571619D02*
X88820714Y-82571619D01*
X89725476Y-82571619D02*
X89915952Y-82571619D01*
X89915952Y-82571619D02*
X90011190Y-82524000D01*
X90011190Y-82524000D02*
X90058809Y-82476380D01*
X90058809Y-82476380D02*
X90154047Y-82333523D01*
X90154047Y-82333523D02*
X90201666Y-82143047D01*
X90201666Y-82143047D02*
X90201666Y-81762095D01*
X90201666Y-81762095D02*
X90154047Y-81666857D01*
X90154047Y-81666857D02*
X90106428Y-81619238D01*
X90106428Y-81619238D02*
X90011190Y-81571619D01*
X90011190Y-81571619D02*
X89820714Y-81571619D01*
X89820714Y-81571619D02*
X89725476Y-81619238D01*
X89725476Y-81619238D02*
X89677857Y-81666857D01*
X89677857Y-81666857D02*
X89630238Y-81762095D01*
X89630238Y-81762095D02*
X89630238Y-82000190D01*
X89630238Y-82000190D02*
X89677857Y-82095428D01*
X89677857Y-82095428D02*
X89725476Y-82143047D01*
X89725476Y-82143047D02*
X89820714Y-82190666D01*
X89820714Y-82190666D02*
X90011190Y-82190666D01*
X90011190Y-82190666D02*
X90106428Y-82143047D01*
X90106428Y-82143047D02*
X90154047Y-82095428D01*
X90154047Y-82095428D02*
X90201666Y-82000190D01*
X94548095Y-99424819D02*
X94548095Y-100234342D01*
X94548095Y-100234342D02*
X94595714Y-100329580D01*
X94595714Y-100329580D02*
X94643333Y-100377200D01*
X94643333Y-100377200D02*
X94738571Y-100424819D01*
X94738571Y-100424819D02*
X94929047Y-100424819D01*
X94929047Y-100424819D02*
X95024285Y-100377200D01*
X95024285Y-100377200D02*
X95071904Y-100329580D01*
X95071904Y-100329580D02*
X95119523Y-100234342D01*
X95119523Y-100234342D02*
X95119523Y-99424819D01*
X95548095Y-99520057D02*
X95595714Y-99472438D01*
X95595714Y-99472438D02*
X95690952Y-99424819D01*
X95690952Y-99424819D02*
X95929047Y-99424819D01*
X95929047Y-99424819D02*
X96024285Y-99472438D01*
X96024285Y-99472438D02*
X96071904Y-99520057D01*
X96071904Y-99520057D02*
X96119523Y-99615295D01*
X96119523Y-99615295D02*
X96119523Y-99710533D01*
X96119523Y-99710533D02*
X96071904Y-99853390D01*
X96071904Y-99853390D02*
X95500476Y-100424819D01*
X95500476Y-100424819D02*
X96119523Y-100424819D01*
X45412066Y-78837419D02*
X45412066Y-79551704D01*
X45412066Y-79551704D02*
X45364447Y-79694561D01*
X45364447Y-79694561D02*
X45269209Y-79789800D01*
X45269209Y-79789800D02*
X45126352Y-79837419D01*
X45126352Y-79837419D02*
X45031114Y-79837419D01*
X46412066Y-79837419D02*
X45840638Y-79837419D01*
X46126352Y-79837419D02*
X46126352Y-78837419D01*
X46126352Y-78837419D02*
X46031114Y-78980276D01*
X46031114Y-78980276D02*
X45935876Y-79075514D01*
X45935876Y-79075514D02*
X45840638Y-79123133D01*
X125766666Y-83904819D02*
X125766666Y-84619104D01*
X125766666Y-84619104D02*
X125719047Y-84761961D01*
X125719047Y-84761961D02*
X125623809Y-84857200D01*
X125623809Y-84857200D02*
X125480952Y-84904819D01*
X125480952Y-84904819D02*
X125385714Y-84904819D01*
X126671428Y-83904819D02*
X126480952Y-83904819D01*
X126480952Y-83904819D02*
X126385714Y-83952438D01*
X126385714Y-83952438D02*
X126338095Y-84000057D01*
X126338095Y-84000057D02*
X126242857Y-84142914D01*
X126242857Y-84142914D02*
X126195238Y-84333390D01*
X126195238Y-84333390D02*
X126195238Y-84714342D01*
X126195238Y-84714342D02*
X126242857Y-84809580D01*
X126242857Y-84809580D02*
X126290476Y-84857200D01*
X126290476Y-84857200D02*
X126385714Y-84904819D01*
X126385714Y-84904819D02*
X126576190Y-84904819D01*
X126576190Y-84904819D02*
X126671428Y-84857200D01*
X126671428Y-84857200D02*
X126719047Y-84809580D01*
X126719047Y-84809580D02*
X126766666Y-84714342D01*
X126766666Y-84714342D02*
X126766666Y-84476247D01*
X126766666Y-84476247D02*
X126719047Y-84381009D01*
X126719047Y-84381009D02*
X126671428Y-84333390D01*
X126671428Y-84333390D02*
X126576190Y-84285771D01*
X126576190Y-84285771D02*
X126385714Y-84285771D01*
X126385714Y-84285771D02*
X126290476Y-84333390D01*
X126290476Y-84333390D02*
X126242857Y-84381009D01*
X126242857Y-84381009D02*
X126195238Y-84476247D01*
X107916666Y-74404819D02*
X107916666Y-75119104D01*
X107916666Y-75119104D02*
X107869047Y-75261961D01*
X107869047Y-75261961D02*
X107773809Y-75357200D01*
X107773809Y-75357200D02*
X107630952Y-75404819D01*
X107630952Y-75404819D02*
X107535714Y-75404819D01*
X108869047Y-74404819D02*
X108392857Y-74404819D01*
X108392857Y-74404819D02*
X108345238Y-74881009D01*
X108345238Y-74881009D02*
X108392857Y-74833390D01*
X108392857Y-74833390D02*
X108488095Y-74785771D01*
X108488095Y-74785771D02*
X108726190Y-74785771D01*
X108726190Y-74785771D02*
X108821428Y-74833390D01*
X108821428Y-74833390D02*
X108869047Y-74881009D01*
X108869047Y-74881009D02*
X108916666Y-74976247D01*
X108916666Y-74976247D02*
X108916666Y-75214342D01*
X108916666Y-75214342D02*
X108869047Y-75309580D01*
X108869047Y-75309580D02*
X108821428Y-75357200D01*
X108821428Y-75357200D02*
X108726190Y-75404819D01*
X108726190Y-75404819D02*
X108488095Y-75404819D01*
X108488095Y-75404819D02*
X108392857Y-75357200D01*
X108392857Y-75357200D02*
X108345238Y-75309580D01*
X129231666Y-87078019D02*
X129231666Y-87792304D01*
X129231666Y-87792304D02*
X129184047Y-87935161D01*
X129184047Y-87935161D02*
X129088809Y-88030400D01*
X129088809Y-88030400D02*
X128945952Y-88078019D01*
X128945952Y-88078019D02*
X128850714Y-88078019D01*
X129850714Y-87506590D02*
X129755476Y-87458971D01*
X129755476Y-87458971D02*
X129707857Y-87411352D01*
X129707857Y-87411352D02*
X129660238Y-87316114D01*
X129660238Y-87316114D02*
X129660238Y-87268495D01*
X129660238Y-87268495D02*
X129707857Y-87173257D01*
X129707857Y-87173257D02*
X129755476Y-87125638D01*
X129755476Y-87125638D02*
X129850714Y-87078019D01*
X129850714Y-87078019D02*
X130041190Y-87078019D01*
X130041190Y-87078019D02*
X130136428Y-87125638D01*
X130136428Y-87125638D02*
X130184047Y-87173257D01*
X130184047Y-87173257D02*
X130231666Y-87268495D01*
X130231666Y-87268495D02*
X130231666Y-87316114D01*
X130231666Y-87316114D02*
X130184047Y-87411352D01*
X130184047Y-87411352D02*
X130136428Y-87458971D01*
X130136428Y-87458971D02*
X130041190Y-87506590D01*
X130041190Y-87506590D02*
X129850714Y-87506590D01*
X129850714Y-87506590D02*
X129755476Y-87554209D01*
X129755476Y-87554209D02*
X129707857Y-87601828D01*
X129707857Y-87601828D02*
X129660238Y-87697066D01*
X129660238Y-87697066D02*
X129660238Y-87887542D01*
X129660238Y-87887542D02*
X129707857Y-87982780D01*
X129707857Y-87982780D02*
X129755476Y-88030400D01*
X129755476Y-88030400D02*
X129850714Y-88078019D01*
X129850714Y-88078019D02*
X130041190Y-88078019D01*
X130041190Y-88078019D02*
X130136428Y-88030400D01*
X130136428Y-88030400D02*
X130184047Y-87982780D01*
X130184047Y-87982780D02*
X130231666Y-87887542D01*
X130231666Y-87887542D02*
X130231666Y-87697066D01*
X130231666Y-87697066D02*
X130184047Y-87601828D01*
X130184047Y-87601828D02*
X130136428Y-87554209D01*
X130136428Y-87554209D02*
X130041190Y-87506590D01*
X98938095Y-76354819D02*
X98938095Y-77164342D01*
X98938095Y-77164342D02*
X98985714Y-77259580D01*
X98985714Y-77259580D02*
X99033333Y-77307200D01*
X99033333Y-77307200D02*
X99128571Y-77354819D01*
X99128571Y-77354819D02*
X99319047Y-77354819D01*
X99319047Y-77354819D02*
X99414285Y-77307200D01*
X99414285Y-77307200D02*
X99461904Y-77259580D01*
X99461904Y-77259580D02*
X99509523Y-77164342D01*
X99509523Y-77164342D02*
X99509523Y-76354819D01*
X99890476Y-76354819D02*
X100509523Y-76354819D01*
X100509523Y-76354819D02*
X100176190Y-76735771D01*
X100176190Y-76735771D02*
X100319047Y-76735771D01*
X100319047Y-76735771D02*
X100414285Y-76783390D01*
X100414285Y-76783390D02*
X100461904Y-76831009D01*
X100461904Y-76831009D02*
X100509523Y-76926247D01*
X100509523Y-76926247D02*
X100509523Y-77164342D01*
X100509523Y-77164342D02*
X100461904Y-77259580D01*
X100461904Y-77259580D02*
X100414285Y-77307200D01*
X100414285Y-77307200D02*
X100319047Y-77354819D01*
X100319047Y-77354819D02*
X100033333Y-77354819D01*
X100033333Y-77354819D02*
X99938095Y-77307200D01*
X99938095Y-77307200D02*
X99890476Y-77259580D01*
X121332666Y-87108819D02*
X121332666Y-87823104D01*
X121332666Y-87823104D02*
X121285047Y-87965961D01*
X121285047Y-87965961D02*
X121189809Y-88061200D01*
X121189809Y-88061200D02*
X121046952Y-88108819D01*
X121046952Y-88108819D02*
X120951714Y-88108819D01*
X121713619Y-87108819D02*
X122380285Y-87108819D01*
X122380285Y-87108819D02*
X121951714Y-88108819D01*
D14*
%TO.C,R1*%
X92450000Y-71100000D02*
X92450000Y-71600000D01*
X92450000Y-71600000D02*
X92650000Y-71600000D01*
X92860000Y-71100000D02*
X92450000Y-71100000D01*
X93350000Y-70880000D02*
X93350000Y-71010000D01*
X93350000Y-70880000D02*
X93600000Y-70880000D01*
X93600000Y-70880000D02*
X93600000Y-71010000D01*
X94350000Y-71600000D02*
X96100000Y-71600000D01*
X96360000Y-71100000D02*
X94140000Y-71100000D01*
X96900000Y-70880000D02*
X96900000Y-71010000D01*
X96900000Y-70880000D02*
X97150000Y-70880000D01*
X97150000Y-70880000D02*
X97150000Y-71010000D01*
X97850000Y-71600000D02*
X98050000Y-71600000D01*
X98050000Y-71100000D02*
X97640000Y-71100000D01*
X98050000Y-71600000D02*
X98050000Y-71100000D01*
%TO.C,J3*%
X61170000Y-89980000D02*
X61170000Y-123060000D01*
X61170000Y-89980000D02*
X63830000Y-89980000D01*
X61170000Y-123060000D02*
X63830000Y-123060000D01*
X62500000Y-87380000D02*
X63830000Y-87380000D01*
X63830000Y-87380000D02*
X63830000Y-88710000D01*
X63830000Y-89980000D02*
X63830000Y-123060000D01*
%TO.C,R9*%
X77630000Y-120580000D02*
X81470000Y-120580000D01*
X77630000Y-122420000D02*
X81470000Y-122420000D01*
%TO.C,J2*%
X107052200Y-121945000D02*
X107052200Y-130575000D01*
X108022200Y-130575000D02*
X108022200Y-130985000D01*
X108742200Y-130575000D02*
X108742200Y-130985000D01*
X109652200Y-121945000D02*
X109652200Y-130575000D01*
X110562200Y-130575000D02*
X110562200Y-130985000D01*
X111282200Y-130575000D02*
X111282200Y-130985000D01*
X112192200Y-121945000D02*
X112192200Y-130575000D01*
X113102200Y-130575000D02*
X113102200Y-130985000D01*
X113822200Y-130575000D02*
X113822200Y-130985000D01*
X114732200Y-121945000D02*
X114732200Y-130575000D01*
X115642200Y-130575000D02*
X115642200Y-130985000D01*
X116362200Y-130575000D02*
X116362200Y-130985000D01*
X117272200Y-121945000D02*
X117272200Y-130575000D01*
X118182200Y-130575000D02*
X118182200Y-130985000D01*
X118902200Y-130575000D02*
X118902200Y-130985000D01*
X119812200Y-121945000D02*
X119812200Y-130575000D01*
X119930300Y-121945000D02*
X119930300Y-130575000D01*
X120048395Y-121945000D02*
X120048395Y-130575000D01*
X120166490Y-121945000D02*
X120166490Y-130575000D01*
X120284585Y-121945000D02*
X120284585Y-130575000D01*
X120402680Y-121945000D02*
X120402680Y-130575000D01*
X120520775Y-121945000D02*
X120520775Y-130575000D01*
X120638870Y-121945000D02*
X120638870Y-130575000D01*
X120722200Y-130575000D02*
X120722200Y-130925000D01*
X120756965Y-121945000D02*
X120756965Y-130575000D01*
X120875060Y-121945000D02*
X120875060Y-130575000D01*
X120993155Y-121945000D02*
X120993155Y-130575000D01*
X121111250Y-121945000D02*
X121111250Y-130575000D01*
X121229345Y-121945000D02*
X121229345Y-130575000D01*
X121347440Y-121945000D02*
X121347440Y-130575000D01*
X121442200Y-130575000D02*
X121442200Y-130925000D01*
X121465535Y-121945000D02*
X121465535Y-130575000D01*
X121583630Y-121945000D02*
X121583630Y-130575000D01*
X121701725Y-121945000D02*
X121701725Y-130575000D01*
X121819820Y-121945000D02*
X121819820Y-130575000D01*
X121937915Y-121945000D02*
X121937915Y-130575000D01*
X122056010Y-121945000D02*
X122056010Y-130575000D01*
X122174105Y-121945000D02*
X122174105Y-130575000D01*
X122292200Y-121945000D02*
X122292200Y-130575000D01*
X122412200Y-121945000D02*
X107052200Y-121945000D01*
X122412200Y-121945000D02*
X122412200Y-130575000D01*
X122412200Y-130575000D02*
X107052200Y-130575000D01*
X122412200Y-132035000D02*
X122412200Y-133145000D01*
X122412200Y-133145000D02*
X121082200Y-133145000D01*
%TO.C,D1*%
X75152400Y-90805000D02*
X76172400Y-90805000D01*
X76952400Y-89335000D02*
X76952400Y-92275000D01*
X77072400Y-89335000D02*
X77072400Y-92275000D01*
X77192400Y-89335000D02*
X77192400Y-92275000D01*
X82632400Y-90805000D02*
X81612400Y-90805000D01*
X76172400Y-89335000D02*
X81612400Y-89335000D01*
X81612400Y-92275000D01*
X76172400Y-92275000D01*
X76172400Y-89335000D01*
%TO.C,R4*%
X77630000Y-104680000D02*
X81470000Y-104680000D01*
X77630000Y-106520000D02*
X81470000Y-106520000D01*
%TO.C,J9*%
X88205000Y-86156800D02*
X88205000Y-88756800D01*
X88205000Y-86156800D02*
X90865000Y-86156800D01*
X88205000Y-88756800D02*
X90865000Y-88756800D01*
X89535000Y-83556800D02*
X90865000Y-83556800D01*
X90865000Y-83556800D02*
X90865000Y-84886800D01*
X90865000Y-86156800D02*
X90865000Y-88756800D01*
%TO.C,U2*%
X92660000Y-100970000D02*
X92660000Y-121410000D01*
X92660000Y-121410000D02*
X97960000Y-121410000D01*
X94310000Y-100970000D02*
X92660000Y-100970000D01*
X97960000Y-100970000D02*
X96310000Y-100970000D01*
X97960000Y-121410000D02*
X97960000Y-100970000D01*
X90170000Y-100910000D02*
X100450000Y-100910000D01*
X100450000Y-121470000D01*
X90170000Y-121470000D01*
X90170000Y-100910000D01*
X96310000Y-100970000D02*
G75*
G02*
X94310000Y-100970000I-1000000J0D01*
G01*
%TO.C,J1*%
X43095400Y-80382600D02*
X44475400Y-80382600D01*
X43095400Y-81762600D02*
X43095400Y-80382600D01*
X43095400Y-83032600D02*
X43095400Y-131402600D01*
X43095400Y-83032600D02*
X45745400Y-83032600D01*
X43095400Y-131402600D02*
X48395400Y-131402600D01*
X45745400Y-80382600D02*
X48395400Y-80382600D01*
X45745400Y-83032600D02*
X45745400Y-80382600D01*
X48395400Y-80382600D02*
X48395400Y-131402600D01*
%TO.C,J6*%
X119520000Y-76290000D02*
X119520000Y-69200000D01*
X119520000Y-81360000D02*
X119520000Y-79710000D01*
X121690000Y-81360000D02*
X119520000Y-81360000D01*
X130510000Y-81360000D02*
X130510000Y-83200000D01*
X130510000Y-81360000D02*
X132680000Y-81360000D01*
X132680000Y-76290000D02*
X132680000Y-69200000D01*
X132680000Y-81360000D02*
X132680000Y-79710000D01*
%TO.C,J5*%
X103990000Y-73860000D02*
X103990000Y-69500000D01*
X106490000Y-73860000D02*
X103990000Y-73860000D01*
X109350000Y-74060000D02*
X110010000Y-74060000D01*
X110010000Y-73860000D02*
X110010000Y-74060000D01*
X112510000Y-73860000D02*
X110010000Y-73860000D01*
X112510000Y-73860000D02*
X112510000Y-69500000D01*
%TO.C,R6*%
X77630000Y-111130000D02*
X81470000Y-111130000D01*
X77630000Y-112970000D02*
X81470000Y-112970000D01*
%TO.C,R8*%
X77630000Y-117430000D02*
X81470000Y-117430000D01*
X77630000Y-119270000D02*
X81470000Y-119270000D01*
%TO.C,R5*%
X77630000Y-107980000D02*
X81470000Y-107980000D01*
X77630000Y-109820000D02*
X81470000Y-109820000D01*
%TO.C,J8*%
X128235000Y-91663200D02*
X128235000Y-94263200D01*
X128235000Y-91663200D02*
X130895000Y-91663200D01*
X128235000Y-94263200D02*
X130895000Y-94263200D01*
X129565000Y-89063200D02*
X130895000Y-89063200D01*
X130895000Y-89063200D02*
X130895000Y-90393200D01*
X130895000Y-91663200D02*
X130895000Y-94263200D01*
%TO.C,R3*%
X77540000Y-101180000D02*
X81380000Y-101180000D01*
X77540000Y-103020000D02*
X81380000Y-103020000D01*
%TO.C,R7*%
X77630000Y-114280000D02*
X81470000Y-114280000D01*
X77630000Y-116120000D02*
X81470000Y-116120000D01*
%TO.C,U3*%
X96590000Y-77280000D02*
X96590000Y-79280000D01*
X96590000Y-77280000D02*
X98200000Y-77280000D01*
X96870000Y-89820000D02*
X96870000Y-77570000D01*
X96880000Y-77560000D02*
X102620000Y-77560000D01*
X102630000Y-77560000D02*
X102630000Y-89820000D01*
X102630000Y-89820000D02*
X96870000Y-89820000D01*
%TO.C,J7*%
X120336000Y-91694000D02*
X120336000Y-94294000D01*
X120336000Y-91694000D02*
X122996000Y-91694000D01*
X120336000Y-94294000D02*
X122996000Y-94294000D01*
X121666000Y-89094000D02*
X122996000Y-89094000D01*
X122996000Y-89094000D02*
X122996000Y-90424000D01*
X122996000Y-91694000D02*
X122996000Y-94294000D01*
%TO.C,R2*%
X98880000Y-97620000D02*
X98880000Y-93780000D01*
X100720000Y-97620000D02*
X100720000Y-93780000D01*
%TO.C,R12*%
X110790000Y-82180000D02*
X114630000Y-82180000D01*
X110790000Y-84020000D02*
X114630000Y-84020000D01*
%TO.C,R13*%
X110790000Y-85330000D02*
X114630000Y-85330000D01*
X110790000Y-87170000D02*
X114630000Y-87170000D01*
%TD*%
M02*
