%TF.GenerationSoftware,KiCad,Pcbnew,9.0.2*%
%TF.CreationDate,2025-06-18T17:26:40+12:00*%
%TF.ProjectId,smartclockpi,736d6172-7463-46c6-9f63-6b70692e6b69,rev?*%
%TF.SameCoordinates,Original*%
%TF.FileFunction,OtherDrawing,Comment*%
%FSLAX46Y46*%
G04 Gerber Fmt 4.6, Leading zero omitted, Abs format (unit mm)*
G04 Created by KiCad (PCBNEW 9.0.2) date 2025-06-18 17:26:40*
%MOMM*%
%LPD*%
G01*
G04 APERTURE LIST*
%ADD10C,0.100000*%
%ADD11C,0.075000*%
%ADD12C,0.050000*%
G04 APERTURE END LIST*
D10*
X124396714Y-70211509D02*
X124396714Y-69711509D01*
X124396714Y-69711509D02*
X124587190Y-69711509D01*
X124587190Y-69711509D02*
X124634809Y-69735319D01*
X124634809Y-69735319D02*
X124658619Y-69759128D01*
X124658619Y-69759128D02*
X124682428Y-69806747D01*
X124682428Y-69806747D02*
X124682428Y-69878176D01*
X124682428Y-69878176D02*
X124658619Y-69925795D01*
X124658619Y-69925795D02*
X124634809Y-69949604D01*
X124634809Y-69949604D02*
X124587190Y-69973414D01*
X124587190Y-69973414D02*
X124396714Y-69973414D01*
X125182428Y-70163890D02*
X125158619Y-70187700D01*
X125158619Y-70187700D02*
X125087190Y-70211509D01*
X125087190Y-70211509D02*
X125039571Y-70211509D01*
X125039571Y-70211509D02*
X124968143Y-70187700D01*
X124968143Y-70187700D02*
X124920524Y-70140080D01*
X124920524Y-70140080D02*
X124896714Y-70092461D01*
X124896714Y-70092461D02*
X124872905Y-69997223D01*
X124872905Y-69997223D02*
X124872905Y-69925795D01*
X124872905Y-69925795D02*
X124896714Y-69830557D01*
X124896714Y-69830557D02*
X124920524Y-69782938D01*
X124920524Y-69782938D02*
X124968143Y-69735319D01*
X124968143Y-69735319D02*
X125039571Y-69711509D01*
X125039571Y-69711509D02*
X125087190Y-69711509D01*
X125087190Y-69711509D02*
X125158619Y-69735319D01*
X125158619Y-69735319D02*
X125182428Y-69759128D01*
X125563381Y-69949604D02*
X125634809Y-69973414D01*
X125634809Y-69973414D02*
X125658619Y-69997223D01*
X125658619Y-69997223D02*
X125682428Y-70044842D01*
X125682428Y-70044842D02*
X125682428Y-70116271D01*
X125682428Y-70116271D02*
X125658619Y-70163890D01*
X125658619Y-70163890D02*
X125634809Y-70187700D01*
X125634809Y-70187700D02*
X125587190Y-70211509D01*
X125587190Y-70211509D02*
X125396714Y-70211509D01*
X125396714Y-70211509D02*
X125396714Y-69711509D01*
X125396714Y-69711509D02*
X125563381Y-69711509D01*
X125563381Y-69711509D02*
X125611000Y-69735319D01*
X125611000Y-69735319D02*
X125634809Y-69759128D01*
X125634809Y-69759128D02*
X125658619Y-69806747D01*
X125658619Y-69806747D02*
X125658619Y-69854366D01*
X125658619Y-69854366D02*
X125634809Y-69901985D01*
X125634809Y-69901985D02*
X125611000Y-69925795D01*
X125611000Y-69925795D02*
X125563381Y-69949604D01*
X125563381Y-69949604D02*
X125396714Y-69949604D01*
X126277666Y-69949604D02*
X126444333Y-69949604D01*
X126515761Y-70211509D02*
X126277666Y-70211509D01*
X126277666Y-70211509D02*
X126277666Y-69711509D01*
X126277666Y-69711509D02*
X126515761Y-69711509D01*
X126944333Y-70211509D02*
X126944333Y-69711509D01*
X126944333Y-70187700D02*
X126896714Y-70211509D01*
X126896714Y-70211509D02*
X126801476Y-70211509D01*
X126801476Y-70211509D02*
X126753857Y-70187700D01*
X126753857Y-70187700D02*
X126730047Y-70163890D01*
X126730047Y-70163890D02*
X126706238Y-70116271D01*
X126706238Y-70116271D02*
X126706238Y-69973414D01*
X126706238Y-69973414D02*
X126730047Y-69925795D01*
X126730047Y-69925795D02*
X126753857Y-69901985D01*
X126753857Y-69901985D02*
X126801476Y-69878176D01*
X126801476Y-69878176D02*
X126896714Y-69878176D01*
X126896714Y-69878176D02*
X126944333Y-69901985D01*
X127396714Y-69878176D02*
X127396714Y-70282938D01*
X127396714Y-70282938D02*
X127372904Y-70330557D01*
X127372904Y-70330557D02*
X127349095Y-70354366D01*
X127349095Y-70354366D02*
X127301476Y-70378176D01*
X127301476Y-70378176D02*
X127230047Y-70378176D01*
X127230047Y-70378176D02*
X127182428Y-70354366D01*
X127396714Y-70187700D02*
X127349095Y-70211509D01*
X127349095Y-70211509D02*
X127253857Y-70211509D01*
X127253857Y-70211509D02*
X127206238Y-70187700D01*
X127206238Y-70187700D02*
X127182428Y-70163890D01*
X127182428Y-70163890D02*
X127158619Y-70116271D01*
X127158619Y-70116271D02*
X127158619Y-69973414D01*
X127158619Y-69973414D02*
X127182428Y-69925795D01*
X127182428Y-69925795D02*
X127206238Y-69901985D01*
X127206238Y-69901985D02*
X127253857Y-69878176D01*
X127253857Y-69878176D02*
X127349095Y-69878176D01*
X127349095Y-69878176D02*
X127396714Y-69901985D01*
X127825285Y-70187700D02*
X127777666Y-70211509D01*
X127777666Y-70211509D02*
X127682428Y-70211509D01*
X127682428Y-70211509D02*
X127634809Y-70187700D01*
X127634809Y-70187700D02*
X127611000Y-70140080D01*
X127611000Y-70140080D02*
X127611000Y-69949604D01*
X127611000Y-69949604D02*
X127634809Y-69901985D01*
X127634809Y-69901985D02*
X127682428Y-69878176D01*
X127682428Y-69878176D02*
X127777666Y-69878176D01*
X127777666Y-69878176D02*
X127825285Y-69901985D01*
X127825285Y-69901985D02*
X127849095Y-69949604D01*
X127849095Y-69949604D02*
X127849095Y-69997223D01*
X127849095Y-69997223D02*
X127611000Y-70044842D01*
D11*
X107390219Y-70307209D02*
X107390219Y-69807209D01*
X107390219Y-69807209D02*
X107580695Y-69807209D01*
X107580695Y-69807209D02*
X107628314Y-69831019D01*
X107628314Y-69831019D02*
X107652124Y-69854828D01*
X107652124Y-69854828D02*
X107675933Y-69902447D01*
X107675933Y-69902447D02*
X107675933Y-69973876D01*
X107675933Y-69973876D02*
X107652124Y-70021495D01*
X107652124Y-70021495D02*
X107628314Y-70045304D01*
X107628314Y-70045304D02*
X107580695Y-70069114D01*
X107580695Y-70069114D02*
X107390219Y-70069114D01*
X108175933Y-70259590D02*
X108152124Y-70283400D01*
X108152124Y-70283400D02*
X108080695Y-70307209D01*
X108080695Y-70307209D02*
X108033076Y-70307209D01*
X108033076Y-70307209D02*
X107961648Y-70283400D01*
X107961648Y-70283400D02*
X107914029Y-70235780D01*
X107914029Y-70235780D02*
X107890219Y-70188161D01*
X107890219Y-70188161D02*
X107866410Y-70092923D01*
X107866410Y-70092923D02*
X107866410Y-70021495D01*
X107866410Y-70021495D02*
X107890219Y-69926257D01*
X107890219Y-69926257D02*
X107914029Y-69878638D01*
X107914029Y-69878638D02*
X107961648Y-69831019D01*
X107961648Y-69831019D02*
X108033076Y-69807209D01*
X108033076Y-69807209D02*
X108080695Y-69807209D01*
X108080695Y-69807209D02*
X108152124Y-69831019D01*
X108152124Y-69831019D02*
X108175933Y-69854828D01*
X108556886Y-70045304D02*
X108628314Y-70069114D01*
X108628314Y-70069114D02*
X108652124Y-70092923D01*
X108652124Y-70092923D02*
X108675933Y-70140542D01*
X108675933Y-70140542D02*
X108675933Y-70211971D01*
X108675933Y-70211971D02*
X108652124Y-70259590D01*
X108652124Y-70259590D02*
X108628314Y-70283400D01*
X108628314Y-70283400D02*
X108580695Y-70307209D01*
X108580695Y-70307209D02*
X108390219Y-70307209D01*
X108390219Y-70307209D02*
X108390219Y-69807209D01*
X108390219Y-69807209D02*
X108556886Y-69807209D01*
X108556886Y-69807209D02*
X108604505Y-69831019D01*
X108604505Y-69831019D02*
X108628314Y-69854828D01*
X108628314Y-69854828D02*
X108652124Y-69902447D01*
X108652124Y-69902447D02*
X108652124Y-69950066D01*
X108652124Y-69950066D02*
X108628314Y-69997685D01*
X108628314Y-69997685D02*
X108604505Y-70021495D01*
X108604505Y-70021495D02*
X108556886Y-70045304D01*
X108556886Y-70045304D02*
X108390219Y-70045304D01*
X109461647Y-70283400D02*
X109414028Y-70307209D01*
X109414028Y-70307209D02*
X109318790Y-70307209D01*
X109318790Y-70307209D02*
X109271171Y-70283400D01*
X109271171Y-70283400D02*
X109247362Y-70235780D01*
X109247362Y-70235780D02*
X109247362Y-70045304D01*
X109247362Y-70045304D02*
X109271171Y-69997685D01*
X109271171Y-69997685D02*
X109318790Y-69973876D01*
X109318790Y-69973876D02*
X109414028Y-69973876D01*
X109414028Y-69973876D02*
X109461647Y-69997685D01*
X109461647Y-69997685D02*
X109485457Y-70045304D01*
X109485457Y-70045304D02*
X109485457Y-70092923D01*
X109485457Y-70092923D02*
X109247362Y-70140542D01*
X109914028Y-70307209D02*
X109914028Y-69807209D01*
X109914028Y-70283400D02*
X109866409Y-70307209D01*
X109866409Y-70307209D02*
X109771171Y-70307209D01*
X109771171Y-70307209D02*
X109723552Y-70283400D01*
X109723552Y-70283400D02*
X109699742Y-70259590D01*
X109699742Y-70259590D02*
X109675933Y-70211971D01*
X109675933Y-70211971D02*
X109675933Y-70069114D01*
X109675933Y-70069114D02*
X109699742Y-70021495D01*
X109699742Y-70021495D02*
X109723552Y-69997685D01*
X109723552Y-69997685D02*
X109771171Y-69973876D01*
X109771171Y-69973876D02*
X109866409Y-69973876D01*
X109866409Y-69973876D02*
X109914028Y-69997685D01*
X110366409Y-69973876D02*
X110366409Y-70378638D01*
X110366409Y-70378638D02*
X110342599Y-70426257D01*
X110342599Y-70426257D02*
X110318790Y-70450066D01*
X110318790Y-70450066D02*
X110271171Y-70473876D01*
X110271171Y-70473876D02*
X110199742Y-70473876D01*
X110199742Y-70473876D02*
X110152123Y-70450066D01*
X110366409Y-70283400D02*
X110318790Y-70307209D01*
X110318790Y-70307209D02*
X110223552Y-70307209D01*
X110223552Y-70307209D02*
X110175933Y-70283400D01*
X110175933Y-70283400D02*
X110152123Y-70259590D01*
X110152123Y-70259590D02*
X110128314Y-70211971D01*
X110128314Y-70211971D02*
X110128314Y-70069114D01*
X110128314Y-70069114D02*
X110152123Y-70021495D01*
X110152123Y-70021495D02*
X110175933Y-69997685D01*
X110175933Y-69997685D02*
X110223552Y-69973876D01*
X110223552Y-69973876D02*
X110318790Y-69973876D01*
X110318790Y-69973876D02*
X110366409Y-69997685D01*
X110794980Y-70283400D02*
X110747361Y-70307209D01*
X110747361Y-70307209D02*
X110652123Y-70307209D01*
X110652123Y-70307209D02*
X110604504Y-70283400D01*
X110604504Y-70283400D02*
X110580695Y-70235780D01*
X110580695Y-70235780D02*
X110580695Y-70045304D01*
X110580695Y-70045304D02*
X110604504Y-69997685D01*
X110604504Y-69997685D02*
X110652123Y-69973876D01*
X110652123Y-69973876D02*
X110747361Y-69973876D01*
X110747361Y-69973876D02*
X110794980Y-69997685D01*
X110794980Y-69997685D02*
X110818790Y-70045304D01*
X110818790Y-70045304D02*
X110818790Y-70092923D01*
X110818790Y-70092923D02*
X110580695Y-70140542D01*
D12*
%TO.C,J6*%
X131111000Y-69505400D02*
X121111000Y-69505400D01*
D10*
%TO.C,J5*%
X113092600Y-69429800D02*
X105092600Y-69429800D01*
%TD*%
M02*
