%TF.GenerationSoftware,KiCad,Pcbnew,9.0.2-2.fc42*%
%TF.CreationDate,2025-07-03T10:40:53+12:00*%
%TF.ProjectId,smartclockpi,736d6172-7463-46c6-9f63-6b70692e6b69,rev?*%
%TF.SameCoordinates,Original*%
%TF.FileFunction,Copper,L1,Top*%
%TF.FilePolarity,Positive*%
%FSLAX46Y46*%
G04 Gerber Fmt 4.6, Leading zero omitted, Abs format (unit mm)*
G04 Created by KiCad (PCBNEW 9.0.2-2.fc42) date 2025-07-03 10:40:53*
%MOMM*%
%LPD*%
G01*
G04 APERTURE LIST*
G04 Aperture macros list*
%AMRoundRect*
0 Rectangle with rounded corners*
0 $1 Rounding radius*
0 $2 $3 $4 $5 $6 $7 $8 $9 X,Y pos of 4 corners*
0 Add a 4 corners polygon primitive as box body*
4,1,4,$2,$3,$4,$5,$6,$7,$8,$9,$2,$3,0*
0 Add four circle primitives for the rounded corners*
1,1,$1+$1,$2,$3*
1,1,$1+$1,$4,$5*
1,1,$1+$1,$6,$7*
1,1,$1+$1,$8,$9*
0 Add four rect primitives between the rounded corners*
20,1,$1+$1,$2,$3,$4,$5,0*
20,1,$1+$1,$4,$5,$6,$7,0*
20,1,$1+$1,$6,$7,$8,$9,0*
20,1,$1+$1,$8,$9,$2,$3,0*%
G04 Aperture macros list end*
%TA.AperFunction,ComponentPad*%
%ADD10R,1.700000X1.700000*%
%TD*%
%TA.AperFunction,ComponentPad*%
%ADD11C,1.700000*%
%TD*%
%TA.AperFunction,ComponentPad*%
%ADD12C,1.400000*%
%TD*%
%TA.AperFunction,ComponentPad*%
%ADD13RoundRect,0.249999X-0.850001X-0.850001X0.850001X-0.850001X0.850001X0.850001X-0.850001X0.850001X0*%
%TD*%
%TA.AperFunction,ComponentPad*%
%ADD14C,2.200000*%
%TD*%
%TA.AperFunction,ComponentPad*%
%ADD15C,1.500000*%
%TD*%
%TA.AperFunction,ComponentPad*%
%ADD16RoundRect,0.250000X-0.550000X-0.550000X0.550000X-0.550000X0.550000X0.550000X-0.550000X0.550000X0*%
%TD*%
%TA.AperFunction,ComponentPad*%
%ADD17C,1.600000*%
%TD*%
%TA.AperFunction,SMDPad,CuDef*%
%ADD18RoundRect,0.325000X0.325000X1.175000X-0.325000X1.175000X-0.325000X-1.175000X0.325000X-1.175000X0*%
%TD*%
%TA.AperFunction,HeatsinkPad*%
%ADD19O,1.200000X2.900000*%
%TD*%
%TA.AperFunction,SMDPad,CuDef*%
%ADD20RoundRect,0.100000X0.100000X0.575000X-0.100000X0.575000X-0.100000X-0.575000X0.100000X-0.575000X0*%
%TD*%
%TA.AperFunction,HeatsinkPad*%
%ADD21O,0.900000X1.600000*%
%TD*%
%TA.AperFunction,SMDPad,CuDef*%
%ADD22RoundRect,0.250000X0.550000X0.450000X-0.550000X0.450000X-0.550000X-0.450000X0.550000X-0.450000X0*%
%TD*%
%TA.AperFunction,SMDPad,CuDef*%
%ADD23RoundRect,0.250000X0.700000X0.700000X-0.700000X0.700000X-0.700000X-0.700000X0.700000X-0.700000X0*%
%TD*%
%TA.AperFunction,ComponentPad*%
%ADD24R,1.500000X1.500000*%
%TD*%
%TA.AperFunction,ViaPad*%
%ADD25C,0.600000*%
%TD*%
%TA.AperFunction,Conductor*%
%ADD26C,0.200000*%
%TD*%
G04 APERTURE END LIST*
D10*
%TO.P,J3,1,VCC*%
%TO.N,+3.3V*%
X62500000Y-88710000D03*
D11*
%TO.P,J3,2,GND*%
%TO.N,GND*%
X62500000Y-91250000D03*
%TO.P,J3,3,CS*%
%TO.N,Net-(J1-~{CE0}{slash}GPIO8)*%
X62500000Y-93790000D03*
%TO.P,J3,4,RESET*%
%TO.N,Net-(J1-GPIO25)*%
X62500000Y-96330000D03*
%TO.P,J3,5,DC/RS*%
%TO.N,Net-(J1-GPIO24)*%
X62500000Y-98870000D03*
%TO.P,J3,6,MOSI*%
%TO.N,Net-(J1-MOSI0{slash}GPIO10)*%
X62500000Y-101410000D03*
%TO.P,J3,7,SCK*%
%TO.N,Net-(J1-SCLK0{slash}GPIO11)*%
X62500000Y-103950000D03*
%TO.P,J3,8,LED*%
%TO.N,Net-(J1-PWM1{slash}GPIO13)*%
X62500000Y-106490000D03*
%TO.P,J3,9,MISO*%
%TO.N,Net-(J1-MISO0{slash}GPIO9)*%
X62500000Y-109030000D03*
%TO.P,J3,10,T_CLK*%
%TO.N,Net-(J1-GPIO21{slash}SCLK1)*%
X62500000Y-111570000D03*
%TO.P,J3,11,T_CS*%
%TO.N,Net-(J1-GPIO20{slash}MOSI1)*%
X62500000Y-114110000D03*
%TO.P,J3,12,T_DIN*%
%TO.N,Net-(J1-GPIO19{slash}MISO1)*%
X62500000Y-116650000D03*
%TO.P,J3,13,T_DO*%
%TO.N,Net-(J1-GPIO17)*%
X62500000Y-119190000D03*
%TO.P,J3,14,T_IRQ*%
%TO.N,Net-(J1-PWM0{slash}GPIO12)*%
X62500000Y-121730000D03*
%TD*%
D12*
%TO.P,R9,1*%
%TO.N,GND*%
X77010000Y-121500000D03*
%TO.P,R9,2*%
%TO.N,Net-(U2-CH7)*%
X82090000Y-121500000D03*
%TD*%
D10*
%TO.P,J2,1,32K*%
%TO.N,Net-(J2-32K)*%
X121082200Y-132035000D03*
D11*
%TO.P,J2,2,SQW*%
%TO.N,Net-(J2-SQW)*%
X118542200Y-132035000D03*
%TO.P,J2,3,SCL*%
%TO.N,Net-(J1-SCL{slash}GPIO3)*%
X116002200Y-132035000D03*
%TO.P,J2,4,SDA*%
%TO.N,Net-(J1-SDA{slash}GPIO2)*%
X113462200Y-132035000D03*
%TO.P,J2,5,VCC*%
%TO.N,+3.3V*%
X110922200Y-132035000D03*
%TO.P,J2,6,GND*%
%TO.N,GND*%
X108382200Y-132035000D03*
%TD*%
D13*
%TO.P,D1,1,K*%
%TO.N,+5V*%
X73812400Y-90805000D03*
D14*
%TO.P,D1,2,A*%
%TO.N,Net-(D1-A)*%
X83972400Y-90805000D03*
%TD*%
D15*
%TO.P,R1,1*%
%TO.N,+3.3V*%
X54000000Y-129500000D03*
%TO.P,R1,2*%
%TO.N,Net-(U2-CH0)*%
X57400000Y-129500000D03*
%TD*%
D12*
%TO.P,R4,1*%
%TO.N,GND*%
X77010000Y-105600000D03*
%TO.P,R4,2*%
%TO.N,Net-(U2-CH2)*%
X82090000Y-105600000D03*
%TD*%
D10*
%TO.P,J9,1,Pin_1*%
%TO.N,Net-(D1-A)*%
X89535000Y-84886800D03*
D11*
%TO.P,J9,2,Pin_2*%
%TO.N,GND*%
X89535000Y-87426800D03*
%TD*%
D16*
%TO.P,U2,1,CH0*%
%TO.N,Net-(U2-CH0)*%
X91500000Y-102300000D03*
D17*
%TO.P,U2,2,CH1*%
%TO.N,Net-(U2-CH1)*%
X91500000Y-104840000D03*
%TO.P,U2,3,CH2*%
%TO.N,Net-(U2-CH2)*%
X91500000Y-107380000D03*
%TO.P,U2,4,CH3*%
%TO.N,Net-(U2-CH3)*%
X91500000Y-109920000D03*
%TO.P,U2,5,CH4*%
%TO.N,Net-(U2-CH4)*%
X91500000Y-112460000D03*
%TO.P,U2,6,CH5*%
%TO.N,Net-(U2-CH5)*%
X91500000Y-115000000D03*
%TO.P,U2,7,CH6*%
%TO.N,Net-(U2-CH6)*%
X91500000Y-117540000D03*
%TO.P,U2,8,CH7*%
%TO.N,Net-(U2-CH7)*%
X91500000Y-120080000D03*
%TO.P,U2,9,DGND*%
%TO.N,GND*%
X99120000Y-120080000D03*
%TO.P,U2,10,~{CS}/SHDN*%
%TO.N,Net-(J1-~{CE1}{slash}GPIO7)*%
X99120000Y-117540000D03*
%TO.P,U2,11,Din*%
%TO.N,Net-(J1-MOSI0{slash}GPIO10)*%
X99120000Y-115000000D03*
%TO.P,U2,12,Dout*%
%TO.N,Net-(J1-MISO0{slash}GPIO9)*%
X99120000Y-112460000D03*
%TO.P,U2,13,CLK*%
%TO.N,Net-(J1-SCLK0{slash}GPIO11)*%
X99120000Y-109920000D03*
%TO.P,U2,14,AGND*%
%TO.N,GND*%
X99120000Y-107380000D03*
%TO.P,U2,15,Vref*%
%TO.N,+3.3V*%
X99120000Y-104840000D03*
%TO.P,U2,16,Vdd*%
X99120000Y-102300000D03*
%TD*%
D10*
%TO.P,J1,1,3V3*%
%TO.N,+3.3V*%
X44475400Y-81762600D03*
D11*
%TO.P,J1,2,5V*%
%TO.N,+5V*%
X47015400Y-81762600D03*
%TO.P,J1,3,SDA/GPIO2*%
%TO.N,Net-(J1-SDA{slash}GPIO2)*%
X44475400Y-84302600D03*
%TO.P,J1,4,5V*%
%TO.N,+5V*%
X47015400Y-84302600D03*
%TO.P,J1,5,SCL/GPIO3*%
%TO.N,Net-(J1-SCL{slash}GPIO3)*%
X44475400Y-86842600D03*
%TO.P,J1,6,GND*%
%TO.N,GND*%
X47015400Y-86842600D03*
%TO.P,J1,7,GCLK0/GPIO4*%
%TO.N,Net-(J1-GCLK0{slash}GPIO4)*%
X44475400Y-89382600D03*
%TO.P,J1,8,GPIO14/TXD*%
%TO.N,unconnected-(J1-GPIO14{slash}TXD-Pad8)*%
X47015400Y-89382600D03*
%TO.P,J1,9,GND*%
%TO.N,GND*%
X44475400Y-91922600D03*
%TO.P,J1,10,GPIO15/RXD*%
%TO.N,unconnected-(J1-GPIO15{slash}RXD-Pad10)*%
X47015400Y-91922600D03*
%TO.P,J1,11,GPIO17*%
%TO.N,Net-(J1-GPIO17)*%
X44475400Y-94462600D03*
%TO.P,J1,12,GPIO18/PWM0*%
%TO.N,unconnected-(J1-GPIO18{slash}PWM0-Pad12)*%
X47015400Y-94462600D03*
%TO.P,J1,13,GPIO27*%
%TO.N,unconnected-(J1-GPIO27-Pad13)*%
X44475400Y-97002600D03*
%TO.P,J1,14,GND*%
%TO.N,GND*%
X47015400Y-97002600D03*
%TO.P,J1,15,GPIO22*%
%TO.N,unconnected-(J1-GPIO22-Pad15)*%
X44475400Y-99542600D03*
%TO.P,J1,16,GPIO23*%
%TO.N,unconnected-(J1-GPIO23-Pad16)*%
X47015400Y-99542600D03*
%TO.P,J1,17,3V3*%
%TO.N,+3.3V*%
X44475400Y-102082600D03*
%TO.P,J1,18,GPIO24*%
%TO.N,Net-(J1-GPIO24)*%
X47015400Y-102082600D03*
%TO.P,J1,19,MOSI0/GPIO10*%
%TO.N,Net-(J1-MOSI0{slash}GPIO10)*%
X44475400Y-104622600D03*
%TO.P,J1,20,GND*%
%TO.N,GND*%
X47015400Y-104622600D03*
%TO.P,J1,21,MISO0/GPIO9*%
%TO.N,Net-(J1-MISO0{slash}GPIO9)*%
X44475400Y-107162600D03*
%TO.P,J1,22,GPIO25*%
%TO.N,Net-(J1-GPIO25)*%
X47015400Y-107162600D03*
%TO.P,J1,23,SCLK0/GPIO11*%
%TO.N,Net-(J1-SCLK0{slash}GPIO11)*%
X44475400Y-109702600D03*
%TO.P,J1,24,~{CE0}/GPIO8*%
%TO.N,Net-(J1-~{CE0}{slash}GPIO8)*%
X47015400Y-109702600D03*
%TO.P,J1,25,GND*%
%TO.N,GND*%
X44475400Y-112242600D03*
%TO.P,J1,26,~{CE1}/GPIO7*%
%TO.N,Net-(J1-~{CE1}{slash}GPIO7)*%
X47015400Y-112242600D03*
%TO.P,J1,27,ID_SD/GPIO0*%
%TO.N,unconnected-(J1-ID_SD{slash}GPIO0-Pad27)*%
X44475400Y-114782600D03*
%TO.P,J1,28,ID_SC/GPIO1*%
%TO.N,unconnected-(J1-ID_SC{slash}GPIO1-Pad28)*%
X47015400Y-114782600D03*
%TO.P,J1,29,GCLK1/GPIO5*%
%TO.N,unconnected-(J1-GCLK1{slash}GPIO5-Pad29)*%
X44475400Y-117322600D03*
%TO.P,J1,30,GND*%
%TO.N,GND*%
X47015400Y-117322600D03*
%TO.P,J1,31,GCLK2/GPIO6*%
%TO.N,unconnected-(J1-GCLK2{slash}GPIO6-Pad31)*%
X44475400Y-119862600D03*
%TO.P,J1,32,PWM0/GPIO12*%
%TO.N,Net-(J1-PWM0{slash}GPIO12)*%
X47015400Y-119862600D03*
%TO.P,J1,33,PWM1/GPIO13*%
%TO.N,Net-(J1-PWM1{slash}GPIO13)*%
X44475400Y-122402600D03*
%TO.P,J1,34,GND*%
%TO.N,GND*%
X47015400Y-122402600D03*
%TO.P,J1,35,GPIO19/MISO1*%
%TO.N,Net-(J1-GPIO19{slash}MISO1)*%
X44475400Y-124942600D03*
%TO.P,J1,36,GPIO16*%
%TO.N,unconnected-(J1-GPIO16-Pad36)*%
X47015400Y-124942600D03*
%TO.P,J1,37,GPIO26*%
%TO.N,unconnected-(J1-GPIO26-Pad37)*%
X44475400Y-127482600D03*
%TO.P,J1,38,GPIO20/MOSI1*%
%TO.N,Net-(J1-GPIO20{slash}MOSI1)*%
X47015400Y-127482600D03*
%TO.P,J1,39,GND*%
%TO.N,GND*%
X44475400Y-130022600D03*
%TO.P,J1,40,GPIO21/SCLK1*%
%TO.N,Net-(J1-GPIO21{slash}SCLK1)*%
X47015400Y-130022600D03*
%TD*%
D18*
%TO.P,J6,1,VBUS*%
%TO.N,Net-(J6-VBUS)*%
X129611000Y-82205400D03*
%TO.P,J6,2,D-*%
%TO.N,unconnected-(J6-D--Pad2)*%
X127111000Y-82205400D03*
%TO.P,J6,3,D+*%
%TO.N,unconnected-(J6-D+-Pad3)*%
X125111000Y-82205400D03*
%TO.P,J6,4,GND*%
%TO.N,GND*%
X122611000Y-82205400D03*
D19*
%TO.P,J6,5,Shield*%
X132511000Y-78505400D03*
X119711000Y-78505400D03*
%TD*%
D20*
%TO.P,J5,1,VBUS*%
%TO.N,Net-(J5-VBUS)*%
X109600000Y-73554800D03*
%TO.P,J5,2,D-*%
%TO.N,unconnected-(J5-D--Pad2)*%
X108950000Y-73554800D03*
%TO.P,J5,3,D+*%
%TO.N,unconnected-(J5-D+-Pad3)*%
X108300000Y-73554800D03*
%TO.P,J5,4,ID*%
%TO.N,GND*%
X107650000Y-73554800D03*
%TO.P,J5,5,GND*%
X107000000Y-73554800D03*
D21*
%TO.P,J5,6,Shield*%
X111600000Y-70879800D03*
D22*
X111500000Y-73329800D03*
D23*
X109500000Y-70879800D03*
X107100000Y-70879800D03*
D22*
X105100000Y-73329800D03*
D21*
X105000000Y-70879800D03*
%TD*%
D12*
%TO.P,R6,1*%
%TO.N,GND*%
X77010000Y-112050000D03*
%TO.P,R6,2*%
%TO.N,Net-(U2-CH4)*%
X82090000Y-112050000D03*
%TD*%
%TO.P,R8,1*%
%TO.N,GND*%
X77010000Y-118350000D03*
%TO.P,R8,2*%
%TO.N,Net-(U2-CH6)*%
X82090000Y-118350000D03*
%TD*%
%TO.P,R5,1*%
%TO.N,GND*%
X77010000Y-108900000D03*
%TO.P,R5,2*%
%TO.N,Net-(U2-CH3)*%
X82090000Y-108900000D03*
%TD*%
D10*
%TO.P,J8,1,Pin_1*%
%TO.N,Net-(J6-VBUS)*%
X129565000Y-90393200D03*
D11*
%TO.P,J8,2,Pin_2*%
%TO.N,GND*%
X129565000Y-92933200D03*
%TD*%
D12*
%TO.P,R3,1*%
%TO.N,GND*%
X76920000Y-102100000D03*
%TO.P,R3,2*%
%TO.N,Net-(U2-CH1)*%
X82000000Y-102100000D03*
%TD*%
%TO.P,R7,1*%
%TO.N,GND*%
X77010000Y-115200000D03*
%TO.P,R7,2*%
%TO.N,Net-(U2-CH5)*%
X82090000Y-115200000D03*
%TD*%
D24*
%TO.P,U3,1,VDD*%
%TO.N,+3.3V*%
X99750000Y-79880000D03*
D15*
%TO.P,U3,2,DATA*%
%TO.N,Net-(J1-GCLK0{slash}GPIO4)*%
X99750000Y-82420000D03*
%TO.P,U3,3,NC*%
%TO.N,unconnected-(U3-NC-Pad3)*%
X99750000Y-84960000D03*
%TO.P,U3,4,GND*%
%TO.N,GND*%
X99750000Y-87500000D03*
%TD*%
D10*
%TO.P,J7,1,Pin_1*%
%TO.N,Net-(J5-VBUS)*%
X121666000Y-90424000D03*
D11*
%TO.P,J7,2,Pin_2*%
%TO.N,GND*%
X121666000Y-92964000D03*
%TD*%
D12*
%TO.P,R2,1*%
%TO.N,Net-(U2-CH0)*%
X61920000Y-131000000D03*
%TO.P,R2,2*%
%TO.N,GND*%
X67000000Y-131000000D03*
%TD*%
%TO.P,R12,1*%
%TO.N,Net-(J2-32K)*%
X110170000Y-83100000D03*
%TO.P,R12,2*%
%TO.N,GND*%
X115250000Y-83100000D03*
%TD*%
%TO.P,R13,1*%
%TO.N,Net-(J2-SQW)*%
X110170000Y-86250000D03*
%TO.P,R13,2*%
%TO.N,GND*%
X115250000Y-86250000D03*
%TD*%
D25*
%TO.N,Net-(J1-SCLK0{slash}GPIO11)*%
X49657000Y-111760000D03*
%TO.N,Net-(J1-GCLK0{slash}GPIO4)*%
X101869800Y-82524600D03*
%TO.N,Net-(J1-PWM0{slash}GPIO12)*%
X49606200Y-121031000D03*
X52451000Y-125603000D03*
%TO.N,+3.3V*%
X49683400Y-132276000D03*
X100221000Y-121767600D03*
%TO.N,Net-(J1-MISO0{slash}GPIO9)*%
X48920400Y-108839000D03*
X55880000Y-104775000D03*
%TO.N,Net-(J1-GPIO19{slash}MISO1)*%
X51790600Y-124866400D03*
X49164800Y-126187200D03*
%TO.N,Net-(J1-PWM1{slash}GPIO13)*%
X49580800Y-112953800D03*
%TO.N,Net-(J1-SDA{slash}GPIO2)*%
X55270400Y-101482600D03*
X55270400Y-133096000D03*
%TO.N,Net-(J1-GPIO17)*%
X52070000Y-113817400D03*
X50372293Y-106379293D03*
X49453800Y-103022400D03*
%TD*%
D26*
%TO.N,GND*%
X45770800Y-116078000D02*
X45770800Y-113538000D01*
X47015400Y-117322600D02*
X45770800Y-116078000D01*
X47015400Y-122402600D02*
X50283400Y-125670600D01*
X62500000Y-91250000D02*
X62880000Y-90870000D01*
X45770800Y-113538000D02*
X44475400Y-112242600D01*
X50283400Y-132608343D02*
X49931343Y-132960400D01*
X107000000Y-73554800D02*
X107650000Y-73554800D01*
X50283400Y-125670600D02*
X50283400Y-132608343D01*
X47413200Y-132960400D02*
X44475400Y-130022600D01*
X49931343Y-132960400D02*
X47413200Y-132960400D01*
%TO.N,Net-(J1-SCLK0{slash}GPIO11)*%
X54690000Y-111760000D02*
X49657000Y-111760000D01*
X65652000Y-100798000D02*
X62500000Y-103950000D01*
X99120000Y-109920000D02*
X97618000Y-108418000D01*
X97618000Y-105964740D02*
X92451260Y-100798000D01*
X92451260Y-100798000D02*
X65652000Y-100798000D01*
X97618000Y-108418000D02*
X97618000Y-105964740D01*
X62500000Y-103950000D02*
X54690000Y-111760000D01*
%TO.N,Net-(J1-GCLK0{slash}GPIO4)*%
X73761600Y-78428000D02*
X100967100Y-78428000D01*
X42923400Y-80445500D02*
X44940900Y-78428000D01*
X100967100Y-78428000D02*
X101869800Y-79330700D01*
X42923400Y-87830600D02*
X42923400Y-80445500D01*
X44475400Y-89382600D02*
X42923400Y-87830600D01*
X101869800Y-79330700D02*
X101869800Y-82524600D01*
X44940900Y-78428000D02*
X73761600Y-78428000D01*
%TO.N,Net-(J1-PWM0{slash}GPIO12)*%
X49606200Y-121031000D02*
X49479200Y-120904000D01*
X49479200Y-120904000D02*
X48056800Y-120904000D01*
X48056800Y-120904000D02*
X47015400Y-119862600D01*
X60045600Y-120294400D02*
X54737000Y-125603000D01*
X54737000Y-125603000D02*
X52451000Y-125603000D01*
X62500000Y-121730000D02*
X61064400Y-120294400D01*
X61064400Y-120294400D02*
X60045600Y-120294400D01*
%TO.N,+5V*%
X47015400Y-81762600D02*
X47015400Y-84302600D01*
X52573800Y-89861000D02*
X72868400Y-89861000D01*
X72868400Y-89861000D02*
X73812400Y-90805000D01*
X47015400Y-84302600D02*
X52573800Y-89861000D01*
%TO.N,Net-(J1-GPIO24)*%
X59287400Y-102082600D02*
X47015400Y-102082600D01*
X62500000Y-98870000D02*
X59287400Y-102082600D01*
%TO.N,+3.3V*%
X98019000Y-105941000D02*
X99120000Y-104840000D01*
X45626400Y-122879360D02*
X45626400Y-116845840D01*
X98250000Y-84535661D02*
X99314661Y-83471000D01*
X44236640Y-116171600D02*
X43324400Y-115259360D01*
X45626400Y-80611600D02*
X54401600Y-80611600D01*
X100185339Y-83471000D02*
X100801000Y-82855339D01*
X100221000Y-121895240D02*
X100221000Y-121767600D01*
X43324400Y-115259360D02*
X43324400Y-103233600D01*
X98663950Y-108481000D02*
X98019000Y-107836050D01*
X49765800Y-132276000D02*
X49765800Y-125852457D01*
X47704943Y-123791600D02*
X46538640Y-123791600D01*
X99120000Y-102300000D02*
X98250000Y-101430000D01*
X98250000Y-101430000D02*
X98250000Y-84535661D01*
X44952160Y-116171600D02*
X44236640Y-116171600D01*
X46538640Y-123791600D02*
X45626400Y-122879360D01*
X100221000Y-121767600D02*
X100221000Y-121691400D01*
X100221000Y-109125950D02*
X99576050Y-108481000D01*
X99750000Y-79880000D02*
X71330000Y-79880000D01*
X100801000Y-82855339D02*
X100801000Y-80931000D01*
X98019000Y-107836050D02*
X98019000Y-105941000D01*
X99314661Y-83471000D02*
X100185339Y-83471000D01*
X100801000Y-80931000D02*
X99750000Y-79880000D01*
X71330000Y-79880000D02*
X62500000Y-88710000D01*
X44475400Y-81762600D02*
X45626400Y-80611600D01*
X99576050Y-108481000D02*
X98663950Y-108481000D01*
X100221000Y-121691400D02*
X100221000Y-109125950D01*
X49765800Y-125852457D02*
X47704943Y-123791600D01*
X99120000Y-104840000D02*
X99120000Y-102300000D01*
X43324400Y-103233600D02*
X44475400Y-102082600D01*
X54401600Y-80611600D02*
X62500000Y-88710000D01*
X45626400Y-116845840D02*
X44952160Y-116171600D01*
%TO.N,Net-(J1-~{CE0}{slash}GPIO8)*%
X62976760Y-100021000D02*
X62023240Y-100021000D01*
X63651000Y-99346760D02*
X62976760Y-100021000D01*
X62500000Y-93790000D02*
X63651000Y-94941000D01*
X62500000Y-93790000D02*
X62500000Y-94218000D01*
X62023240Y-100021000D02*
X52341640Y-109702600D01*
X63651000Y-94941000D02*
X63651000Y-99346760D01*
X52341640Y-109702600D02*
X47015400Y-109702600D01*
%TO.N,Net-(J1-MISO0{slash}GPIO9)*%
X92601000Y-101514840D02*
X92601000Y-105941000D01*
X49047400Y-108712000D02*
X48920400Y-108839000D01*
X81467800Y-107782200D02*
X88051000Y-101199000D01*
X92601000Y-105941000D02*
X99120000Y-112460000D01*
X63747800Y-107782200D02*
X81467800Y-107782200D01*
X55829200Y-104775000D02*
X51892200Y-108712000D01*
X92285160Y-101199000D02*
X92601000Y-101514840D01*
X88051000Y-101199000D02*
X92285160Y-101199000D01*
X62500000Y-109030000D02*
X63747800Y-107782200D01*
X51892200Y-108712000D02*
X49047400Y-108712000D01*
X55880000Y-104775000D02*
X55829200Y-104775000D01*
%TO.N,Net-(J1-SCL{slash}GPIO3)*%
X116002200Y-132035000D02*
X101269800Y-117302600D01*
X101269800Y-117302600D02*
X101269800Y-79297800D01*
X45107000Y-78829000D02*
X100801000Y-78829000D01*
X43324400Y-80611600D02*
X45107000Y-78829000D01*
X101269800Y-79297800D02*
X100801000Y-78829000D01*
X44475400Y-86842600D02*
X43324400Y-85691600D01*
X43324400Y-85691600D02*
X43324400Y-80611600D01*
%TO.N,Net-(J1-GPIO19{slash}MISO1)*%
X45720000Y-126187200D02*
X44475400Y-124942600D01*
X54283600Y-124866400D02*
X62500000Y-116650000D01*
X49164800Y-126187200D02*
X45720000Y-126187200D01*
X51790600Y-124866400D02*
X54283600Y-124866400D01*
%TO.N,Net-(J1-PWM1{slash}GPIO13)*%
X56036200Y-112953800D02*
X49580800Y-112953800D01*
X62500000Y-106490000D02*
X56036200Y-112953800D01*
%TO.N,Net-(J1-MOSI0{slash}GPIO10)*%
X48166400Y-111395000D02*
X47625000Y-110853600D01*
X82119000Y-132001000D02*
X55014661Y-132001000D01*
X45626400Y-105773600D02*
X44475400Y-104622600D01*
X55014661Y-132001000D02*
X51181000Y-128167339D01*
X99120000Y-115000000D02*
X82119000Y-132001000D01*
X62500000Y-101410000D02*
X53056400Y-110853600D01*
X48166400Y-112389343D02*
X48166400Y-111395000D01*
X45626400Y-109941360D02*
X45626400Y-105773600D01*
X46538640Y-110853600D02*
X45626400Y-109941360D01*
X51181000Y-128167339D02*
X51181000Y-115403943D01*
X51181000Y-115403943D02*
X48166400Y-112389343D01*
X47625000Y-110853600D02*
X46538640Y-110853600D01*
X53056400Y-110853600D02*
X47625000Y-110853600D01*
%TO.N,Net-(J1-SDA{slash}GPIO2)*%
X44475400Y-84302600D02*
X45864400Y-85691600D01*
X45864400Y-85691600D02*
X47837300Y-85691600D01*
X52407700Y-90262000D02*
X55270400Y-93124700D01*
X47837300Y-85691600D02*
X52407700Y-90262000D01*
X55270400Y-93124700D02*
X55270400Y-101482600D01*
X112311200Y-133186000D02*
X55065461Y-133186000D01*
X113462200Y-132035000D02*
X112311200Y-133186000D01*
%TO.N,Net-(U2-CH0)*%
X79794372Y-111000000D02*
X61920000Y-128874372D01*
X57400000Y-129500000D02*
X60420000Y-129500000D01*
X61920000Y-128874372D02*
X61920000Y-131000000D01*
X82800000Y-111000000D02*
X79794372Y-111000000D01*
X60420000Y-129500000D02*
X61920000Y-131000000D01*
X91500000Y-102300000D02*
X82800000Y-111000000D01*
%TO.N,Net-(U2-CH4)*%
X91500000Y-112460000D02*
X82500000Y-112460000D01*
X82500000Y-112460000D02*
X82090000Y-112050000D01*
%TO.N,Net-(U2-CH5)*%
X91500000Y-115000000D02*
X82290000Y-115000000D01*
X82290000Y-115000000D02*
X82090000Y-115200000D01*
%TO.N,Net-(U2-CH6)*%
X82900000Y-117540000D02*
X82090000Y-118350000D01*
X91500000Y-117540000D02*
X82900000Y-117540000D01*
%TO.N,Net-(U2-CH7)*%
X83510000Y-120080000D02*
X82090000Y-121500000D01*
X91500000Y-120080000D02*
X83510000Y-120080000D01*
%TO.N,Net-(J1-~{CE1}{slash}GPIO7)*%
X99120000Y-117540000D02*
X84258000Y-132402000D01*
X50780000Y-116007200D02*
X47015400Y-112242600D01*
X50780000Y-128333439D02*
X50780000Y-116007200D01*
X84258000Y-132402000D02*
X54848561Y-132402000D01*
X54848561Y-132402000D02*
X50780000Y-128333439D01*
%TO.N,Net-(J2-SQW)*%
X118542200Y-132035000D02*
X110170000Y-123662800D01*
X110170000Y-123662800D02*
X110170000Y-86250000D01*
%TO.N,Net-(J2-32K)*%
X121082200Y-94012200D02*
X110170000Y-83100000D01*
X121082200Y-132035000D02*
X121082200Y-94012200D01*
%TO.N,Net-(J5-VBUS)*%
X109600000Y-78865628D02*
X109600000Y-73554800D01*
X121666000Y-90424000D02*
X121158372Y-90424000D01*
X121158372Y-90424000D02*
X109600000Y-78865628D01*
%TO.N,Net-(J6-VBUS)*%
X129565000Y-90393200D02*
X129565000Y-82251400D01*
X129565000Y-82251400D02*
X129611000Y-82205400D01*
%TO.N,Net-(D1-A)*%
X89535000Y-85115400D02*
X89535000Y-84886800D01*
X83820000Y-90830400D02*
X89535000Y-85115400D01*
%TO.N,Net-(J1-GPIO17)*%
X62738760Y-115261000D02*
X53513600Y-115261000D01*
X49453800Y-105460800D02*
X49453800Y-103022400D01*
X53513600Y-115261000D02*
X52070000Y-113817400D01*
X63651000Y-116173240D02*
X62738760Y-115261000D01*
X62500000Y-119190000D02*
X63651000Y-118039000D01*
X63651000Y-118039000D02*
X63651000Y-116173240D01*
X50372293Y-106379293D02*
X49453800Y-105460800D01*
%TD*%
%TA.AperFunction,Conductor*%
%TO.N,GND*%
G36*
X104454215Y-69510039D02*
G01*
X104486893Y-69519004D01*
X104487662Y-69519861D01*
X104488766Y-69520185D01*
X104510923Y-69545756D01*
X104533584Y-69570983D01*
X104533768Y-69572120D01*
X104534521Y-69572989D01*
X104539341Y-69606511D01*
X104544760Y-69639953D01*
X104544301Y-69641007D01*
X104544465Y-69642147D01*
X104530391Y-69672964D01*
X104516875Y-69704017D01*
X104515747Y-69705029D01*
X104515440Y-69705703D01*
X104490618Y-69727602D01*
X104394410Y-69791886D01*
X104394406Y-69791889D01*
X104262089Y-69924206D01*
X104262086Y-69924210D01*
X104158124Y-70079799D01*
X104158119Y-70079808D01*
X104086508Y-70252694D01*
X104086506Y-70252702D01*
X104050000Y-70436228D01*
X104050000Y-70629800D01*
X104750000Y-70629800D01*
X104750000Y-71129800D01*
X104050000Y-71129800D01*
X104050000Y-71323371D01*
X104086506Y-71506897D01*
X104086508Y-71506905D01*
X104158119Y-71679791D01*
X104158124Y-71679800D01*
X104262086Y-71835389D01*
X104262089Y-71835393D01*
X104382604Y-71955908D01*
X104416089Y-72017231D01*
X104411105Y-72086923D01*
X104369233Y-72142856D01*
X104333927Y-72161295D01*
X104230880Y-72195441D01*
X104230875Y-72195443D01*
X104081654Y-72287484D01*
X103957684Y-72411454D01*
X103865643Y-72560675D01*
X103865641Y-72560680D01*
X103810494Y-72727102D01*
X103810493Y-72727109D01*
X103800000Y-72829813D01*
X103800000Y-73079800D01*
X104850000Y-73079800D01*
X104850000Y-72309800D01*
X104840023Y-72299823D01*
X104806961Y-72290115D01*
X104761206Y-72237311D01*
X104750000Y-72185800D01*
X104750000Y-71279528D01*
X104788060Y-71371414D01*
X104858386Y-71441740D01*
X104950272Y-71479800D01*
X105049728Y-71479800D01*
X105141614Y-71441740D01*
X105211940Y-71371414D01*
X105250000Y-71279528D01*
X105250000Y-71999800D01*
X105259976Y-72009776D01*
X105293039Y-72019485D01*
X105338794Y-72072289D01*
X105350000Y-72123800D01*
X105350000Y-74529799D01*
X105699972Y-74529799D01*
X105699986Y-74529798D01*
X105802697Y-74519305D01*
X105969119Y-74464158D01*
X105969124Y-74464156D01*
X106118344Y-74372115D01*
X106151586Y-74338874D01*
X106212908Y-74305388D01*
X106282600Y-74310372D01*
X106338534Y-74352242D01*
X106353829Y-74379102D01*
X106375899Y-74432386D01*
X106472075Y-74557724D01*
X106597414Y-74653900D01*
X106743366Y-74714355D01*
X106743372Y-74714357D01*
X106799998Y-74721811D01*
X106800000Y-74721810D01*
X106800000Y-72351162D01*
X106819685Y-72284123D01*
X106836319Y-72263481D01*
X106850000Y-72249800D01*
X106850000Y-71129800D01*
X105250000Y-71129800D01*
X105250000Y-70629800D01*
X111350000Y-70629800D01*
X111350000Y-71129800D01*
X107350000Y-71129800D01*
X107350000Y-72335800D01*
X107330315Y-72402839D01*
X107277511Y-72448594D01*
X107226000Y-72459800D01*
X107200000Y-72459800D01*
X107200000Y-74721810D01*
X107200001Y-74721811D01*
X107256622Y-74714358D01*
X107256631Y-74714355D01*
X107277547Y-74705692D01*
X107347017Y-74698223D01*
X107372453Y-74705692D01*
X107393368Y-74714355D01*
X107393377Y-74714358D01*
X107449998Y-74721811D01*
X107450000Y-74721810D01*
X107450000Y-74504102D01*
X107457434Y-74478782D01*
X107461174Y-74452661D01*
X107467123Y-74445786D01*
X107469685Y-74437063D01*
X107489625Y-74419784D01*
X107506896Y-74399828D01*
X107515619Y-74397260D01*
X107522489Y-74391308D01*
X107548606Y-74387552D01*
X107573923Y-74380102D01*
X107582647Y-74382657D01*
X107591647Y-74381364D01*
X107615651Y-74392326D01*
X107640975Y-74399745D01*
X107649935Y-74407983D01*
X107655203Y-74410389D01*
X107667662Y-74422841D01*
X107674824Y-74431096D01*
X107675464Y-74432641D01*
X107771718Y-74558082D01*
X107811441Y-74588562D01*
X107819662Y-74598038D01*
X107829185Y-74618856D01*
X107842688Y-74637348D01*
X107845792Y-74655161D01*
X107848727Y-74661576D01*
X107847908Y-74667296D01*
X107850000Y-74679299D01*
X107850000Y-74721810D01*
X107906631Y-74714355D01*
X107926887Y-74705965D01*
X107996356Y-74698493D01*
X108021798Y-74705963D01*
X108043238Y-74714844D01*
X108160639Y-74730300D01*
X108439360Y-74730299D01*
X108439361Y-74730299D01*
X108451594Y-74728688D01*
X108556762Y-74714844D01*
X108577545Y-74706234D01*
X108647014Y-74698765D01*
X108672453Y-74706234D01*
X108693238Y-74714844D01*
X108810639Y-74730300D01*
X108875500Y-74730299D01*
X108942538Y-74749983D01*
X108988294Y-74802786D01*
X108999500Y-74854299D01*
X108999500Y-78778958D01*
X108999499Y-78778976D01*
X108999499Y-78944682D01*
X108999498Y-78944682D01*
X108999499Y-78944685D01*
X109040423Y-79097413D01*
X109040424Y-79097414D01*
X109041292Y-79098918D01*
X109041290Y-79098918D01*
X109041298Y-79098928D01*
X109119477Y-79234340D01*
X109119481Y-79234345D01*
X109238349Y-79353213D01*
X109238355Y-79353218D01*
X114823489Y-84938352D01*
X114856974Y-84999675D01*
X114851990Y-85069367D01*
X114810118Y-85125300D01*
X114792104Y-85136517D01*
X114621063Y-85223668D01*
X114595670Y-85242116D01*
X114595669Y-85242116D01*
X115253554Y-85900000D01*
X115203922Y-85900000D01*
X115114905Y-85923852D01*
X115035095Y-85969930D01*
X114969930Y-86035095D01*
X114923852Y-86114905D01*
X114900000Y-86203922D01*
X114900000Y-86253553D01*
X114242116Y-85595669D01*
X114242116Y-85595670D01*
X114223669Y-85621060D01*
X114137914Y-85789363D01*
X114095159Y-85920949D01*
X114055721Y-85978625D01*
X113991363Y-86005823D01*
X113922516Y-85993908D01*
X113889547Y-85970312D01*
X111380066Y-83460831D01*
X111346581Y-83399508D01*
X111345274Y-83353752D01*
X111350489Y-83320830D01*
X111352319Y-83309273D01*
X111370500Y-83194486D01*
X111370500Y-83005513D01*
X111340940Y-82818881D01*
X111283846Y-82643166D01*
X111282547Y-82639168D01*
X111282545Y-82639165D01*
X111282545Y-82639163D01*
X111196893Y-82471063D01*
X111196760Y-82470801D01*
X111085690Y-82317927D01*
X110952073Y-82184310D01*
X110799199Y-82073240D01*
X110630836Y-81987454D01*
X110451118Y-81929059D01*
X110264486Y-81899500D01*
X110264481Y-81899500D01*
X110075519Y-81899500D01*
X110075514Y-81899500D01*
X109888881Y-81929059D01*
X109709163Y-81987454D01*
X109540800Y-82073240D01*
X109453579Y-82136610D01*
X109387927Y-82184310D01*
X109387925Y-82184312D01*
X109387924Y-82184312D01*
X109254312Y-82317924D01*
X109254312Y-82317925D01*
X109254310Y-82317927D01*
X109251654Y-82321583D01*
X109143240Y-82470800D01*
X109057454Y-82639163D01*
X108999059Y-82818881D01*
X108969500Y-83005513D01*
X108969500Y-83194486D01*
X108999059Y-83381118D01*
X109057454Y-83560836D01*
X109117791Y-83679252D01*
X109143240Y-83729199D01*
X109254310Y-83882073D01*
X109387927Y-84015690D01*
X109540801Y-84126760D01*
X109605709Y-84159832D01*
X109709163Y-84212545D01*
X109709165Y-84212545D01*
X109709168Y-84212547D01*
X109789920Y-84238785D01*
X109888881Y-84270940D01*
X110075514Y-84300500D01*
X110075519Y-84300500D01*
X110264486Y-84300500D01*
X110381017Y-84282042D01*
X110423753Y-84275274D01*
X110493045Y-84284228D01*
X110530831Y-84310066D01*
X120445381Y-94224616D01*
X120478866Y-94285939D01*
X120481700Y-94312297D01*
X120481700Y-130560500D01*
X120462015Y-130627539D01*
X120409211Y-130673294D01*
X120357701Y-130684500D01*
X120184330Y-130684500D01*
X120184323Y-130684501D01*
X120124716Y-130690908D01*
X119989871Y-130741202D01*
X119989864Y-130741206D01*
X119874655Y-130827452D01*
X119874652Y-130827455D01*
X119788406Y-130942664D01*
X119788403Y-130942669D01*
X119739389Y-131074083D01*
X119697517Y-131130016D01*
X119632053Y-131154433D01*
X119563780Y-131139581D01*
X119535526Y-131118430D01*
X119421986Y-131004890D01*
X119250020Y-130879951D01*
X119060614Y-130783444D01*
X119060613Y-130783443D01*
X119060612Y-130783443D01*
X118858443Y-130717754D01*
X118858441Y-130717753D01*
X118858440Y-130717753D01*
X118697157Y-130692208D01*
X118648487Y-130684500D01*
X118435913Y-130684500D01*
X118412249Y-130688248D01*
X118225957Y-130717753D01*
X118183673Y-130731492D01*
X118113832Y-130733486D01*
X118057676Y-130701241D01*
X114433164Y-127076729D01*
X110806819Y-123450383D01*
X110773334Y-123389060D01*
X110770500Y-123362702D01*
X110770500Y-87360791D01*
X110790185Y-87293752D01*
X110821612Y-87260475D01*
X110952073Y-87165690D01*
X111085690Y-87032073D01*
X111196760Y-86879199D01*
X111282547Y-86710832D01*
X111340940Y-86531118D01*
X111354342Y-86446501D01*
X111370500Y-86344486D01*
X111370500Y-86155513D01*
X111340940Y-85968881D01*
X111282545Y-85789163D01*
X111202639Y-85632340D01*
X111196760Y-85620801D01*
X111085690Y-85467927D01*
X110952073Y-85334310D01*
X110799199Y-85223240D01*
X110630836Y-85137454D01*
X110451118Y-85079059D01*
X110264486Y-85049500D01*
X110264481Y-85049500D01*
X110075519Y-85049500D01*
X110075514Y-85049500D01*
X109888881Y-85079059D01*
X109709163Y-85137454D01*
X109540800Y-85223240D01*
X109453579Y-85286610D01*
X109387927Y-85334310D01*
X109387925Y-85334312D01*
X109387924Y-85334312D01*
X109254312Y-85467924D01*
X109254312Y-85467925D01*
X109254310Y-85467927D01*
X109206610Y-85533579D01*
X109143240Y-85620800D01*
X109057454Y-85789163D01*
X108999059Y-85968881D01*
X108969500Y-86155513D01*
X108969500Y-86344486D01*
X108999059Y-86531118D01*
X109057454Y-86710836D01*
X109124591Y-86842599D01*
X109143240Y-86879199D01*
X109254310Y-87032073D01*
X109387927Y-87165690D01*
X109518386Y-87260474D01*
X109561051Y-87315803D01*
X109569500Y-87360791D01*
X109569500Y-123576130D01*
X109569499Y-123576148D01*
X109569499Y-123741854D01*
X109569498Y-123741854D01*
X109610424Y-123894587D01*
X109620763Y-123912494D01*
X109620764Y-123912496D01*
X109689477Y-124031512D01*
X109689481Y-124031517D01*
X109808349Y-124150385D01*
X109808355Y-124150390D01*
X116130783Y-130472819D01*
X116164268Y-130534142D01*
X116159284Y-130603834D01*
X116117412Y-130659767D01*
X116051948Y-130684184D01*
X116043102Y-130684500D01*
X115895913Y-130684500D01*
X115872249Y-130688248D01*
X115685957Y-130717753D01*
X115643673Y-130731492D01*
X115573832Y-130733486D01*
X115517676Y-130701241D01*
X101906619Y-117090184D01*
X101873134Y-117028861D01*
X101870300Y-117002503D01*
X101870300Y-83442447D01*
X101889985Y-83375408D01*
X101942789Y-83329653D01*
X101970109Y-83320830D01*
X101999895Y-83314905D01*
X102103297Y-83294337D01*
X102248979Y-83233994D01*
X102380089Y-83146389D01*
X102491589Y-83034889D01*
X102579194Y-82903779D01*
X102639537Y-82758097D01*
X102670300Y-82603442D01*
X102670300Y-82445758D01*
X102670300Y-82445755D01*
X102670299Y-82445753D01*
X102645600Y-82321583D01*
X102639537Y-82291103D01*
X102595303Y-82184312D01*
X102579197Y-82145427D01*
X102579190Y-82145414D01*
X102491198Y-82013725D01*
X102470320Y-81947047D01*
X102470300Y-81944834D01*
X102470300Y-79419760D01*
X102470301Y-79419747D01*
X102470301Y-79251644D01*
X102465666Y-79234345D01*
X102429377Y-79098916D01*
X102428509Y-79097413D01*
X102350324Y-78961990D01*
X102350318Y-78961982D01*
X101454690Y-78066355D01*
X101454688Y-78066352D01*
X101335817Y-77947481D01*
X101335816Y-77947480D01*
X101249004Y-77897360D01*
X101249004Y-77897359D01*
X101249000Y-77897358D01*
X101198885Y-77868423D01*
X101046157Y-77827499D01*
X100888043Y-77827499D01*
X100880447Y-77827499D01*
X100880431Y-77827500D01*
X45027569Y-77827500D01*
X45027553Y-77827499D01*
X45019957Y-77827499D01*
X44861843Y-77827499D01*
X44754487Y-77856265D01*
X44709110Y-77868424D01*
X44709109Y-77868425D01*
X44658996Y-77897359D01*
X44658995Y-77897360D01*
X44615589Y-77922420D01*
X44572185Y-77947479D01*
X44572182Y-77947481D01*
X42442881Y-80076782D01*
X42442881Y-80076783D01*
X42442880Y-80076784D01*
X42411533Y-80131080D01*
X42392761Y-80163594D01*
X42392759Y-80163596D01*
X42363825Y-80213709D01*
X42363824Y-80213710D01*
X42354113Y-80249952D01*
X42322899Y-80366443D01*
X42322899Y-80524557D01*
X42322899Y-80524559D01*
X42322900Y-80534553D01*
X42322900Y-87743930D01*
X42322899Y-87743948D01*
X42322899Y-87909654D01*
X42322898Y-87909654D01*
X42358134Y-88041156D01*
X42363823Y-88062385D01*
X42382167Y-88094157D01*
X42442879Y-88199314D01*
X42442881Y-88199317D01*
X42561749Y-88318185D01*
X42561755Y-88318190D01*
X43141641Y-88898076D01*
X43175126Y-88959399D01*
X43171892Y-89024073D01*
X43158153Y-89066357D01*
X43125871Y-89270185D01*
X43124900Y-89276313D01*
X43124900Y-89488887D01*
X43130799Y-89526129D01*
X43158153Y-89698839D01*
X43223844Y-89901014D01*
X43320351Y-90090420D01*
X43445290Y-90262386D01*
X43595613Y-90412709D01*
X43767579Y-90537648D01*
X43767581Y-90537649D01*
X43767584Y-90537651D01*
X43776893Y-90542394D01*
X43827690Y-90590366D01*
X43844487Y-90658187D01*
X43821952Y-90724322D01*
X43776905Y-90763360D01*
X43767846Y-90767976D01*
X43767840Y-90767980D01*
X43713682Y-90807327D01*
X43713682Y-90807328D01*
X44345991Y-91439637D01*
X44282407Y-91456675D01*
X44168393Y-91522501D01*
X44075301Y-91615593D01*
X44009475Y-91729607D01*
X43992437Y-91793191D01*
X43360128Y-91160882D01*
X43360127Y-91160882D01*
X43320780Y-91215039D01*
X43224304Y-91404382D01*
X43158642Y-91606469D01*
X43158642Y-91606472D01*
X43125400Y-91816353D01*
X43125400Y-92028846D01*
X43158642Y-92238727D01*
X43158642Y-92238730D01*
X43224304Y-92440817D01*
X43320775Y-92630150D01*
X43360128Y-92684316D01*
X43992437Y-92052008D01*
X44009475Y-92115593D01*
X44075301Y-92229607D01*
X44168393Y-92322699D01*
X44282407Y-92388525D01*
X44345990Y-92405562D01*
X43713682Y-93037869D01*
X43713682Y-93037870D01*
X43767852Y-93077226D01*
X43767851Y-93077226D01*
X43776895Y-93081834D01*
X43827692Y-93129808D01*
X43844487Y-93197629D01*
X43821950Y-93263764D01*
X43776899Y-93302802D01*
X43767582Y-93307549D01*
X43595613Y-93432490D01*
X43445290Y-93582813D01*
X43320351Y-93754779D01*
X43223844Y-93944185D01*
X43158153Y-94146360D01*
X43124900Y-94356313D01*
X43124900Y-94568887D01*
X43158154Y-94778843D01*
X43213609Y-94949516D01*
X43223844Y-94981014D01*
X43320351Y-95170420D01*
X43445290Y-95342386D01*
X43595613Y-95492709D01*
X43767582Y-95617650D01*
X43776346Y-95622116D01*
X43827142Y-95670091D01*
X43843936Y-95737912D01*
X43821398Y-95804047D01*
X43776346Y-95843084D01*
X43767582Y-95847549D01*
X43595613Y-95972490D01*
X43445290Y-96122813D01*
X43320351Y-96294779D01*
X43223844Y-96484185D01*
X43158153Y-96686360D01*
X43124900Y-96896313D01*
X43124900Y-97108886D01*
X43158135Y-97318727D01*
X43158154Y-97318843D01*
X43213609Y-97489516D01*
X43223844Y-97521014D01*
X43320351Y-97710420D01*
X43445290Y-97882386D01*
X43595613Y-98032709D01*
X43767582Y-98157650D01*
X43776346Y-98162116D01*
X43827142Y-98210091D01*
X43843936Y-98277912D01*
X43821398Y-98344047D01*
X43776346Y-98383084D01*
X43767582Y-98387549D01*
X43595613Y-98512490D01*
X43445290Y-98662813D01*
X43320351Y-98834779D01*
X43223844Y-99024185D01*
X43158153Y-99226360D01*
X43124900Y-99436313D01*
X43124900Y-99648886D01*
X43158153Y-99858839D01*
X43223844Y-100061014D01*
X43320351Y-100250420D01*
X43445290Y-100422386D01*
X43595613Y-100572709D01*
X43767582Y-100697650D01*
X43776346Y-100702116D01*
X43827142Y-100750091D01*
X43843936Y-100817912D01*
X43821398Y-100884047D01*
X43776346Y-100923084D01*
X43767582Y-100927549D01*
X43595613Y-101052490D01*
X43445290Y-101202813D01*
X43320351Y-101374779D01*
X43223844Y-101564185D01*
X43158153Y-101766360D01*
X43124900Y-101976313D01*
X43124900Y-102188886D01*
X43158154Y-102398844D01*
X43158154Y-102398847D01*
X43171891Y-102441123D01*
X43173886Y-102510964D01*
X43141641Y-102567122D01*
X42958497Y-102750266D01*
X42958489Y-102750274D01*
X42955686Y-102753078D01*
X42955684Y-102753080D01*
X42843880Y-102864884D01*
X42823601Y-102900009D01*
X42817455Y-102910652D01*
X42817453Y-102910656D01*
X42764824Y-103001813D01*
X42764823Y-103001815D01*
X42723899Y-103154543D01*
X42723899Y-103154545D01*
X42723899Y-103322646D01*
X42723900Y-103322659D01*
X42723900Y-115172690D01*
X42723899Y-115172708D01*
X42723899Y-115338414D01*
X42723898Y-115338414D01*
X42764823Y-115491145D01*
X42793758Y-115541260D01*
X42793759Y-115541264D01*
X42793760Y-115541264D01*
X42843879Y-115628074D01*
X42843881Y-115628077D01*
X42962749Y-115746945D01*
X42962755Y-115746950D01*
X43464272Y-116248467D01*
X43497757Y-116309790D01*
X43492773Y-116379482D01*
X43464276Y-116423825D01*
X43445299Y-116442802D01*
X43445292Y-116442811D01*
X43320351Y-116614779D01*
X43223844Y-116804185D01*
X43158153Y-117006360D01*
X43124900Y-117216313D01*
X43124900Y-117428886D01*
X43158135Y-117638727D01*
X43158154Y-117638843D01*
X43193765Y-117748443D01*
X43223844Y-117841014D01*
X43320351Y-118030420D01*
X43445290Y-118202386D01*
X43595613Y-118352709D01*
X43767582Y-118477650D01*
X43776346Y-118482116D01*
X43827142Y-118530091D01*
X43843936Y-118597912D01*
X43821398Y-118664047D01*
X43776346Y-118703084D01*
X43767582Y-118707549D01*
X43595613Y-118832490D01*
X43445290Y-118982813D01*
X43320351Y-119154779D01*
X43223844Y-119344185D01*
X43158153Y-119546360D01*
X43132032Y-119711284D01*
X43124900Y-119756313D01*
X43124900Y-119968887D01*
X43128364Y-119990758D01*
X43155185Y-120160102D01*
X43158154Y-120178843D01*
X43207121Y-120329548D01*
X43223844Y-120381014D01*
X43320351Y-120570420D01*
X43445290Y-120742386D01*
X43595613Y-120892709D01*
X43767582Y-121017650D01*
X43776346Y-121022116D01*
X43827142Y-121070091D01*
X43843936Y-121137912D01*
X43821398Y-121204047D01*
X43776346Y-121243084D01*
X43767582Y-121247549D01*
X43595613Y-121372490D01*
X43445290Y-121522813D01*
X43320351Y-121694779D01*
X43223844Y-121884185D01*
X43158153Y-122086360D01*
X43124900Y-122296313D01*
X43124900Y-122508886D01*
X43158135Y-122718727D01*
X43158154Y-122718843D01*
X43171562Y-122760109D01*
X43223844Y-122921014D01*
X43320351Y-123110420D01*
X43445290Y-123282386D01*
X43595613Y-123432709D01*
X43767582Y-123557650D01*
X43776346Y-123562116D01*
X43827142Y-123610091D01*
X43843936Y-123677912D01*
X43821398Y-123744047D01*
X43776346Y-123783084D01*
X43767582Y-123787549D01*
X43595613Y-123912490D01*
X43445290Y-124062813D01*
X43320351Y-124234779D01*
X43223844Y-124424185D01*
X43158153Y-124626360D01*
X43124900Y-124836313D01*
X43124900Y-125048886D01*
X43155216Y-125240298D01*
X43158154Y-125258843D01*
X43160531Y-125266160D01*
X43223844Y-125461014D01*
X43320351Y-125650420D01*
X43445290Y-125822386D01*
X43595613Y-125972709D01*
X43767582Y-126097650D01*
X43776346Y-126102116D01*
X43827142Y-126150091D01*
X43843936Y-126217912D01*
X43821398Y-126284047D01*
X43776346Y-126323084D01*
X43767582Y-126327549D01*
X43595613Y-126452490D01*
X43445290Y-126602813D01*
X43320351Y-126774779D01*
X43223844Y-126964185D01*
X43158153Y-127166360D01*
X43124900Y-127376313D01*
X43124900Y-127588886D01*
X43157098Y-127792179D01*
X43158154Y-127798843D01*
X43180378Y-127867242D01*
X43223844Y-128001014D01*
X43320351Y-128190420D01*
X43445290Y-128362386D01*
X43595613Y-128512709D01*
X43767579Y-128637648D01*
X43767581Y-128637649D01*
X43767584Y-128637651D01*
X43776893Y-128642394D01*
X43827690Y-128690366D01*
X43844487Y-128758187D01*
X43821952Y-128824322D01*
X43776905Y-128863360D01*
X43767846Y-128867976D01*
X43767840Y-128867980D01*
X43713682Y-128907327D01*
X43713682Y-128907328D01*
X44345991Y-129539637D01*
X44282407Y-129556675D01*
X44168393Y-129622501D01*
X44075301Y-129715593D01*
X44009475Y-129829607D01*
X43992437Y-129893191D01*
X43360128Y-129260882D01*
X43360127Y-129260882D01*
X43320780Y-129315039D01*
X43224304Y-129504382D01*
X43158642Y-129706469D01*
X43158642Y-129706472D01*
X43125400Y-129916353D01*
X43125400Y-130128846D01*
X43158642Y-130338727D01*
X43158642Y-130338730D01*
X43224304Y-130540817D01*
X43320775Y-130730150D01*
X43360128Y-130784316D01*
X43992437Y-130152008D01*
X44009475Y-130215593D01*
X44075301Y-130329607D01*
X44168393Y-130422699D01*
X44282407Y-130488525D01*
X44345990Y-130505562D01*
X43713682Y-131137869D01*
X43713682Y-131137870D01*
X43767849Y-131177224D01*
X43957182Y-131273695D01*
X44159270Y-131339357D01*
X44369154Y-131372600D01*
X44581646Y-131372600D01*
X44791527Y-131339357D01*
X44791530Y-131339357D01*
X44993617Y-131273695D01*
X45182954Y-131177222D01*
X45237116Y-131137870D01*
X45237117Y-131137870D01*
X44604808Y-130505562D01*
X44668393Y-130488525D01*
X44782407Y-130422699D01*
X44875499Y-130329607D01*
X44941325Y-130215593D01*
X44958362Y-130152008D01*
X45590670Y-130784317D01*
X45590670Y-130784316D01*
X45630022Y-130730155D01*
X45634632Y-130721107D01*
X45682605Y-130670309D01*
X45750425Y-130653512D01*
X45816561Y-130676047D01*
X45855604Y-130721104D01*
X45860349Y-130730417D01*
X45985290Y-130902386D01*
X46135613Y-131052709D01*
X46307579Y-131177648D01*
X46307581Y-131177649D01*
X46307584Y-131177651D01*
X46496988Y-131274157D01*
X46699157Y-131339846D01*
X46909113Y-131373100D01*
X46909114Y-131373100D01*
X47121686Y-131373100D01*
X47121687Y-131373100D01*
X47331643Y-131339846D01*
X47533812Y-131274157D01*
X47723216Y-131177651D01*
X47745189Y-131161686D01*
X47895186Y-131052709D01*
X47895188Y-131052706D01*
X47895192Y-131052704D01*
X48045504Y-130902392D01*
X48045506Y-130902388D01*
X48045509Y-130902386D01*
X48162615Y-130741202D01*
X48170451Y-130730416D01*
X48266957Y-130541012D01*
X48332646Y-130338843D01*
X48365900Y-130128887D01*
X48365900Y-129916313D01*
X48332646Y-129706357D01*
X48266957Y-129504188D01*
X48170451Y-129314784D01*
X48170449Y-129314781D01*
X48170448Y-129314779D01*
X48045509Y-129142813D01*
X47895186Y-128992490D01*
X47723220Y-128867551D01*
X47715000Y-128863363D01*
X47714454Y-128863085D01*
X47663659Y-128815112D01*
X47646863Y-128747292D01*
X47669399Y-128681156D01*
X47714454Y-128642115D01*
X47723216Y-128637651D01*
X47822904Y-128565224D01*
X47895186Y-128512709D01*
X47895188Y-128512706D01*
X47895192Y-128512704D01*
X48045504Y-128362392D01*
X48045506Y-128362388D01*
X48045509Y-128362386D01*
X48170448Y-128190420D01*
X48170447Y-128190420D01*
X48170451Y-128190416D01*
X48266957Y-128001012D01*
X48332646Y-127798843D01*
X48365900Y-127588887D01*
X48365900Y-127376313D01*
X48332646Y-127166357D01*
X48266957Y-126964188D01*
X48266955Y-126964185D01*
X48266954Y-126964180D01*
X48265090Y-126959679D01*
X48266024Y-126959291D01*
X48261977Y-126931146D01*
X48256003Y-126899310D01*
X48257034Y-126896769D01*
X48256644Y-126894053D01*
X48270103Y-126864580D01*
X48282287Y-126834573D01*
X48284529Y-126832992D01*
X48285669Y-126830497D01*
X48312923Y-126812981D01*
X48339399Y-126794323D01*
X48342845Y-126793752D01*
X48344447Y-126792723D01*
X48379382Y-126787700D01*
X48585034Y-126787700D01*
X48652073Y-126807385D01*
X48653925Y-126808598D01*
X48785614Y-126896590D01*
X48785627Y-126896597D01*
X48931298Y-126956935D01*
X48931303Y-126956937D01*
X49025445Y-126975663D01*
X49065491Y-126983629D01*
X49127402Y-127016014D01*
X49161976Y-127076729D01*
X49165300Y-127105246D01*
X49165300Y-131610659D01*
X49145615Y-131677698D01*
X49128981Y-131698340D01*
X49061613Y-131765707D01*
X49061610Y-131765711D01*
X48974009Y-131896814D01*
X48974002Y-131896827D01*
X48913664Y-132042498D01*
X48913661Y-132042510D01*
X48882900Y-132197153D01*
X48882900Y-132354846D01*
X48913661Y-132509489D01*
X48913664Y-132509501D01*
X48974002Y-132655172D01*
X48974009Y-132655185D01*
X49061610Y-132786288D01*
X49061613Y-132786292D01*
X49173107Y-132897786D01*
X49173111Y-132897789D01*
X49304214Y-132985390D01*
X49304227Y-132985397D01*
X49449898Y-133045735D01*
X49449903Y-133045737D01*
X49604553Y-133076499D01*
X49604556Y-133076500D01*
X49604558Y-133076500D01*
X49762244Y-133076500D01*
X49762245Y-133076499D01*
X49916897Y-133045737D01*
X50062579Y-132985394D01*
X50193689Y-132897789D01*
X50305189Y-132786289D01*
X50392794Y-132655179D01*
X50453137Y-132509497D01*
X50483900Y-132354842D01*
X50483900Y-132197158D01*
X50483900Y-132197155D01*
X50483899Y-132197153D01*
X50453137Y-132042503D01*
X50392794Y-131896821D01*
X50387195Y-131888441D01*
X50366320Y-131821763D01*
X50366300Y-131819554D01*
X50366300Y-129068336D01*
X50385985Y-129001297D01*
X50438789Y-128955542D01*
X50507947Y-128945598D01*
X50571503Y-128974623D01*
X50577981Y-128980655D01*
X54368039Y-132770713D01*
X54368041Y-132770716D01*
X54447023Y-132849698D01*
X54452782Y-132860245D01*
X54480506Y-132911018D01*
X54480957Y-132961569D01*
X54469900Y-133017155D01*
X54469900Y-133072186D01*
X54465675Y-133104277D01*
X54464961Y-133106938D01*
X54464961Y-133106943D01*
X54464961Y-133265057D01*
X54497234Y-133385499D01*
X54505884Y-133417783D01*
X54505887Y-133417790D01*
X54584936Y-133554709D01*
X54584939Y-133554713D01*
X54584941Y-133554716D01*
X54696745Y-133666520D01*
X54711228Y-133674881D01*
X54736907Y-133694585D01*
X54758961Y-133716639D01*
X54760112Y-133717790D01*
X54891214Y-133805390D01*
X54891227Y-133805397D01*
X55036898Y-133865735D01*
X55036903Y-133865737D01*
X55191553Y-133896499D01*
X55191556Y-133896500D01*
X55191558Y-133896500D01*
X55349244Y-133896500D01*
X55349245Y-133896499D01*
X55503897Y-133865737D01*
X55649579Y-133805394D01*
X55649588Y-133805387D01*
X55654953Y-133802521D01*
X55655985Y-133804452D01*
X55713263Y-133786520D01*
X55715471Y-133786500D01*
X112224531Y-133786500D01*
X112224547Y-133786501D01*
X112232143Y-133786501D01*
X112390254Y-133786501D01*
X112390257Y-133786501D01*
X112542985Y-133745577D01*
X112593104Y-133716639D01*
X112679916Y-133666520D01*
X112791720Y-133554716D01*
X112791720Y-133554714D01*
X112801928Y-133544507D01*
X112801930Y-133544504D01*
X112977678Y-133368755D01*
X113038999Y-133335272D01*
X113103673Y-133338506D01*
X113145957Y-133352246D01*
X113355913Y-133385500D01*
X113355914Y-133385500D01*
X113568486Y-133385500D01*
X113568487Y-133385500D01*
X113778443Y-133352246D01*
X113980612Y-133286557D01*
X114170016Y-133190051D01*
X114256338Y-133127335D01*
X114341986Y-133065109D01*
X114341988Y-133065106D01*
X114341992Y-133065104D01*
X114492304Y-132914792D01*
X114492306Y-132914788D01*
X114492309Y-132914786D01*
X114617248Y-132742820D01*
X114617247Y-132742820D01*
X114617251Y-132742816D01*
X114621714Y-132734054D01*
X114669688Y-132683259D01*
X114737508Y-132666463D01*
X114803644Y-132688999D01*
X114842686Y-132734056D01*
X114847151Y-132742820D01*
X114972090Y-132914786D01*
X115122413Y-133065109D01*
X115294379Y-133190048D01*
X115294381Y-133190049D01*
X115294384Y-133190051D01*
X115483788Y-133286557D01*
X115685957Y-133352246D01*
X115895913Y-133385500D01*
X115895914Y-133385500D01*
X116108486Y-133385500D01*
X116108487Y-133385500D01*
X116318443Y-133352246D01*
X116520612Y-133286557D01*
X116710016Y-133190051D01*
X116796338Y-133127335D01*
X116881986Y-133065109D01*
X116881988Y-133065106D01*
X116881992Y-133065104D01*
X117032304Y-132914792D01*
X117032306Y-132914788D01*
X117032309Y-132914786D01*
X117157248Y-132742820D01*
X117157247Y-132742820D01*
X117157251Y-132742816D01*
X117161714Y-132734054D01*
X117209688Y-132683259D01*
X117277508Y-132666463D01*
X117343644Y-132688999D01*
X117382686Y-132734056D01*
X117387151Y-132742820D01*
X117512090Y-132914786D01*
X117662413Y-133065109D01*
X117834379Y-133190048D01*
X117834381Y-133190049D01*
X117834384Y-133190051D01*
X118023788Y-133286557D01*
X118225957Y-133352246D01*
X118435913Y-133385500D01*
X118435914Y-133385500D01*
X118648486Y-133385500D01*
X118648487Y-133385500D01*
X118858443Y-133352246D01*
X119060612Y-133286557D01*
X119250016Y-133190051D01*
X119406308Y-133076499D01*
X119421984Y-133065110D01*
X119421984Y-133065109D01*
X119421992Y-133065104D01*
X119535529Y-132951566D01*
X119596848Y-132918084D01*
X119666540Y-132923068D01*
X119722474Y-132964939D01*
X119739389Y-132995917D01*
X119788402Y-133127328D01*
X119788406Y-133127335D01*
X119874652Y-133242544D01*
X119874655Y-133242547D01*
X119989864Y-133328793D01*
X119989871Y-133328797D01*
X120124717Y-133379091D01*
X120124716Y-133379091D01*
X120131644Y-133379835D01*
X120184327Y-133385500D01*
X121980072Y-133385499D01*
X122039683Y-133379091D01*
X122174531Y-133328796D01*
X122289746Y-133242546D01*
X122375996Y-133127331D01*
X122426291Y-132992483D01*
X122432700Y-132932873D01*
X122432699Y-131393713D01*
X128649500Y-131393713D01*
X128649500Y-131606287D01*
X128654032Y-131634901D01*
X128674666Y-131765181D01*
X128682754Y-131816243D01*
X128708937Y-131896827D01*
X128748444Y-132018414D01*
X128844951Y-132207820D01*
X128969890Y-132379786D01*
X129120213Y-132530109D01*
X129292179Y-132655048D01*
X129292181Y-132655049D01*
X129292184Y-132655051D01*
X129481588Y-132751557D01*
X129683757Y-132817246D01*
X129893713Y-132850500D01*
X129893714Y-132850500D01*
X130106286Y-132850500D01*
X130106287Y-132850500D01*
X130316243Y-132817246D01*
X130518412Y-132751557D01*
X130707816Y-132655051D01*
X130729789Y-132639086D01*
X130879786Y-132530109D01*
X130879788Y-132530106D01*
X130879792Y-132530104D01*
X131030104Y-132379792D01*
X131030106Y-132379788D01*
X131030109Y-132379786D01*
X131155048Y-132207820D01*
X131155047Y-132207820D01*
X131155051Y-132207816D01*
X131251557Y-132018412D01*
X131317246Y-131816243D01*
X131350500Y-131606287D01*
X131350500Y-131393713D01*
X131317246Y-131183757D01*
X131251557Y-130981588D01*
X131155051Y-130792184D01*
X131155049Y-130792181D01*
X131155048Y-130792179D01*
X131030109Y-130620213D01*
X130879786Y-130469890D01*
X130707820Y-130344951D01*
X130518414Y-130248444D01*
X130518413Y-130248443D01*
X130518412Y-130248443D01*
X130316243Y-130182754D01*
X130316241Y-130182753D01*
X130316240Y-130182753D01*
X130143569Y-130155405D01*
X130106287Y-130149500D01*
X129893713Y-130149500D01*
X129856431Y-130155405D01*
X129683760Y-130182753D01*
X129481585Y-130248444D01*
X129292179Y-130344951D01*
X129120213Y-130469890D01*
X128969890Y-130620213D01*
X128844951Y-130792179D01*
X128748444Y-130981585D01*
X128682753Y-131183760D01*
X128654177Y-131364181D01*
X128649500Y-131393713D01*
X122432699Y-131393713D01*
X122432699Y-131137128D01*
X122426291Y-131077517D01*
X122425010Y-131074083D01*
X122375997Y-130942671D01*
X122375993Y-130942664D01*
X122289747Y-130827455D01*
X122289744Y-130827452D01*
X122174535Y-130741206D01*
X122174528Y-130741202D01*
X122039682Y-130690908D01*
X122039683Y-130690908D01*
X121980083Y-130684501D01*
X121980081Y-130684500D01*
X121980073Y-130684500D01*
X121980065Y-130684500D01*
X121806700Y-130684500D01*
X121739661Y-130664815D01*
X121693906Y-130612011D01*
X121682700Y-130560500D01*
X121682700Y-102393713D01*
X128649500Y-102393713D01*
X128649500Y-102606287D01*
X128653224Y-102629798D01*
X128680057Y-102799219D01*
X128682754Y-102816243D01*
X128743050Y-103001815D01*
X128748444Y-103018414D01*
X128844951Y-103207820D01*
X128969890Y-103379786D01*
X129120213Y-103530109D01*
X129292179Y-103655048D01*
X129292181Y-103655049D01*
X129292184Y-103655051D01*
X129481588Y-103751557D01*
X129683757Y-103817246D01*
X129893713Y-103850500D01*
X129893714Y-103850500D01*
X130106286Y-103850500D01*
X130106287Y-103850500D01*
X130316243Y-103817246D01*
X130518412Y-103751557D01*
X130707816Y-103655051D01*
X130744776Y-103628198D01*
X130879786Y-103530109D01*
X130879788Y-103530106D01*
X130879792Y-103530104D01*
X131030104Y-103379792D01*
X131030106Y-103379788D01*
X131030109Y-103379786D01*
X131155048Y-103207820D01*
X131155047Y-103207820D01*
X131155051Y-103207816D01*
X131251557Y-103018412D01*
X131317246Y-102816243D01*
X131350500Y-102606287D01*
X131350500Y-102393713D01*
X131317246Y-102183757D01*
X131251557Y-101981588D01*
X131155051Y-101792184D01*
X131155049Y-101792181D01*
X131155048Y-101792179D01*
X131030109Y-101620213D01*
X130879786Y-101469890D01*
X130707820Y-101344951D01*
X130518414Y-101248444D01*
X130518413Y-101248443D01*
X130518412Y-101248443D01*
X130316243Y-101182754D01*
X130316241Y-101182753D01*
X130316240Y-101182753D01*
X130154957Y-101157208D01*
X130106287Y-101149500D01*
X129893713Y-101149500D01*
X129845042Y-101157208D01*
X129683760Y-101182753D01*
X129481585Y-101248444D01*
X129292179Y-101344951D01*
X129120213Y-101469890D01*
X128969890Y-101620213D01*
X128844951Y-101792179D01*
X128748444Y-101981585D01*
X128682753Y-102183760D01*
X128661982Y-102314905D01*
X128649500Y-102393713D01*
X121682700Y-102393713D01*
X121682700Y-94434088D01*
X121702385Y-94367049D01*
X121755189Y-94321294D01*
X121787302Y-94311615D01*
X121982127Y-94280757D01*
X121982130Y-94280757D01*
X122184217Y-94215095D01*
X122373554Y-94118622D01*
X122427716Y-94079270D01*
X122427717Y-94079270D01*
X121795408Y-93446962D01*
X121858993Y-93429925D01*
X121973007Y-93364099D01*
X122066099Y-93271007D01*
X122131925Y-93156993D01*
X122148962Y-93093409D01*
X122781270Y-93725717D01*
X122781270Y-93725716D01*
X122820622Y-93671554D01*
X122917095Y-93482217D01*
X122982757Y-93280130D01*
X122982757Y-93280127D01*
X123016000Y-93070246D01*
X123016000Y-92857756D01*
X123013422Y-92841481D01*
X123013422Y-92841479D01*
X122982757Y-92647872D01*
X122982757Y-92647869D01*
X122917095Y-92445782D01*
X122820624Y-92256449D01*
X122781270Y-92202282D01*
X122781269Y-92202282D01*
X122148962Y-92834590D01*
X122131925Y-92771007D01*
X122066099Y-92656993D01*
X121973007Y-92563901D01*
X121858993Y-92498075D01*
X121795409Y-92481037D01*
X122465627Y-91810818D01*
X122526950Y-91777333D01*
X122553307Y-91774499D01*
X122563872Y-91774499D01*
X122623483Y-91768091D01*
X122758331Y-91717796D01*
X122873546Y-91631546D01*
X122959796Y-91516331D01*
X123010091Y-91381483D01*
X123016500Y-91321873D01*
X123016499Y-89526128D01*
X123010091Y-89466517D01*
X122998757Y-89436130D01*
X122959797Y-89331671D01*
X122959793Y-89331664D01*
X122873547Y-89216455D01*
X122873544Y-89216452D01*
X122758335Y-89130206D01*
X122758328Y-89130202D01*
X122623482Y-89079908D01*
X122623483Y-89079908D01*
X122563883Y-89073501D01*
X122563881Y-89073500D01*
X122563873Y-89073500D01*
X122563864Y-89073500D01*
X120768129Y-89073500D01*
X120768123Y-89073501D01*
X120726868Y-89077936D01*
X120658108Y-89065529D01*
X120625934Y-89042327D01*
X115883715Y-84300108D01*
X115850230Y-84238785D01*
X115855214Y-84169093D01*
X115897086Y-84113160D01*
X115898511Y-84112109D01*
X115904328Y-84107882D01*
X115246446Y-83450000D01*
X115296078Y-83450000D01*
X115385095Y-83426148D01*
X115464905Y-83380070D01*
X115530070Y-83314905D01*
X115576148Y-83235095D01*
X115600000Y-83146078D01*
X115600000Y-83099999D01*
X115603554Y-83099999D01*
X115603554Y-83100000D01*
X116257882Y-83754328D01*
X116257883Y-83754328D01*
X116276331Y-83728937D01*
X116362085Y-83560637D01*
X116397337Y-83452141D01*
X121461000Y-83452141D01*
X121463732Y-83492434D01*
X121507041Y-83666580D01*
X121586768Y-83827335D01*
X121586770Y-83827338D01*
X121699196Y-83967202D01*
X121699197Y-83967203D01*
X121839061Y-84079629D01*
X121839064Y-84079631D01*
X121999819Y-84159358D01*
X122173965Y-84202667D01*
X122214258Y-84205400D01*
X122361000Y-84205400D01*
X122361000Y-82455400D01*
X121461000Y-82455400D01*
X121461000Y-83452141D01*
X116397337Y-83452141D01*
X116420451Y-83381002D01*
X116450000Y-83194447D01*
X116450000Y-83005552D01*
X116420451Y-82818997D01*
X116362085Y-82639362D01*
X116276332Y-82471063D01*
X116276326Y-82471054D01*
X116257883Y-82445670D01*
X116257882Y-82445669D01*
X115603554Y-83099999D01*
X115600000Y-83099999D01*
X115600000Y-83053922D01*
X115576148Y-82964905D01*
X115530070Y-82885095D01*
X115464905Y-82819930D01*
X115385095Y-82773852D01*
X115296078Y-82750000D01*
X115203922Y-82750000D01*
X115114905Y-82773852D01*
X115035095Y-82819930D01*
X114969930Y-82885095D01*
X114923852Y-82964905D01*
X114900000Y-83053922D01*
X114900000Y-83103553D01*
X114242116Y-82445669D01*
X114242115Y-82445670D01*
X114237891Y-82451485D01*
X114182562Y-82494152D01*
X114112948Y-82500133D01*
X114051153Y-82467528D01*
X114049890Y-82466283D01*
X113675723Y-82092116D01*
X114595669Y-82092116D01*
X115250000Y-82746446D01*
X115250001Y-82746446D01*
X115904328Y-82092116D01*
X115878933Y-82073666D01*
X115710637Y-81987914D01*
X115531002Y-81929548D01*
X115344447Y-81900000D01*
X115155553Y-81900000D01*
X114968997Y-81929548D01*
X114789362Y-81987914D01*
X114621060Y-82073669D01*
X114595670Y-82092116D01*
X114595669Y-82092116D01*
X113675723Y-82092116D01*
X112542265Y-80958658D01*
X121461000Y-80958658D01*
X121461000Y-81955400D01*
X122361000Y-81955400D01*
X122361000Y-80205400D01*
X122861000Y-80205400D01*
X122861000Y-84205400D01*
X123007742Y-84205400D01*
X123048034Y-84202667D01*
X123222180Y-84159358D01*
X123382935Y-84079631D01*
X123382938Y-84079629D01*
X123522802Y-83967203D01*
X123522803Y-83967202D01*
X123635229Y-83827338D01*
X123635231Y-83827335D01*
X123714958Y-83666579D01*
X123740407Y-83564250D01*
X123775689Y-83503943D01*
X123837975Y-83472284D01*
X123907489Y-83479325D01*
X123962161Y-83522831D01*
X123981077Y-83564250D01*
X124006567Y-83666750D01*
X124086346Y-83827609D01*
X124198659Y-83967332D01*
X124198841Y-83967559D01*
X124338790Y-84080053D01*
X124499651Y-84159833D01*
X124673900Y-84203166D01*
X124714216Y-84205900D01*
X124714218Y-84205900D01*
X125507782Y-84205900D01*
X125507784Y-84205900D01*
X125548100Y-84203166D01*
X125722349Y-84159833D01*
X125883210Y-84080053D01*
X126023159Y-83967559D01*
X126023162Y-83967554D01*
X126023319Y-83967399D01*
X126023440Y-83967332D01*
X126028399Y-83963347D01*
X126029112Y-83964235D01*
X126084642Y-83933914D01*
X126154334Y-83938898D01*
X126193183Y-83963866D01*
X126193601Y-83963347D01*
X126198486Y-83967273D01*
X126198681Y-83967399D01*
X126198840Y-83967558D01*
X126198841Y-83967559D01*
X126338790Y-84080053D01*
X126499651Y-84159833D01*
X126673900Y-84203166D01*
X126714216Y-84205900D01*
X126714218Y-84205900D01*
X127507782Y-84205900D01*
X127507784Y-84205900D01*
X127548100Y-84203166D01*
X127722349Y-84159833D01*
X127883210Y-84080053D01*
X128023159Y-83967559D01*
X128135653Y-83827610D01*
X128215433Y-83666749D01*
X128240665Y-83565285D01*
X128275947Y-83504979D01*
X128338233Y-83473320D01*
X128407747Y-83480361D01*
X128462419Y-83523866D01*
X128481334Y-83565284D01*
X128490849Y-83603546D01*
X128506567Y-83666750D01*
X128586346Y-83827609D01*
X128698840Y-83967558D01*
X128698841Y-83967559D01*
X128838790Y-84080053D01*
X128895594Y-84108225D01*
X128946907Y-84155646D01*
X128964500Y-84219313D01*
X128964500Y-88918700D01*
X128944815Y-88985739D01*
X128892011Y-89031494D01*
X128840501Y-89042700D01*
X128667130Y-89042700D01*
X128667123Y-89042701D01*
X128607516Y-89049108D01*
X128472671Y-89099402D01*
X128472664Y-89099406D01*
X128357455Y-89185652D01*
X128357452Y-89185655D01*
X128271206Y-89300864D01*
X128271202Y-89300871D01*
X128220908Y-89435717D01*
X128215192Y-89488887D01*
X128214501Y-89495323D01*
X128214500Y-89495335D01*
X128214500Y-91291070D01*
X128214501Y-91291076D01*
X128220908Y-91350683D01*
X128271202Y-91485528D01*
X128271206Y-91485535D01*
X128357452Y-91600744D01*
X128357455Y-91600747D01*
X128472664Y-91686993D01*
X128472671Y-91686997D01*
X128517618Y-91703761D01*
X128607517Y-91737291D01*
X128667127Y-91743700D01*
X128677685Y-91743699D01*
X128744723Y-91763379D01*
X128765372Y-91780018D01*
X129435591Y-92450237D01*
X129372007Y-92467275D01*
X129257993Y-92533101D01*
X129164901Y-92626193D01*
X129099075Y-92740207D01*
X129082037Y-92803791D01*
X128449728Y-92171482D01*
X128449727Y-92171482D01*
X128410380Y-92225639D01*
X128313904Y-92414982D01*
X128248242Y-92617069D01*
X128248242Y-92617072D01*
X128215000Y-92826953D01*
X128215000Y-93039446D01*
X128248242Y-93249327D01*
X128248242Y-93249330D01*
X128313904Y-93451417D01*
X128410375Y-93640750D01*
X128449728Y-93694916D01*
X129082037Y-93062608D01*
X129099075Y-93126193D01*
X129164901Y-93240207D01*
X129257993Y-93333299D01*
X129372007Y-93399125D01*
X129435590Y-93416162D01*
X128803282Y-94048469D01*
X128803282Y-94048470D01*
X128857449Y-94087824D01*
X129046782Y-94184295D01*
X129248870Y-94249957D01*
X129458754Y-94283200D01*
X129671246Y-94283200D01*
X129881127Y-94249957D01*
X129881130Y-94249957D01*
X130083217Y-94184295D01*
X130272554Y-94087822D01*
X130326716Y-94048470D01*
X130326717Y-94048470D01*
X129694408Y-93416162D01*
X129757993Y-93399125D01*
X129872007Y-93333299D01*
X129965099Y-93240207D01*
X130030925Y-93126193D01*
X130047962Y-93062609D01*
X130680270Y-93694917D01*
X130680270Y-93694916D01*
X130719622Y-93640754D01*
X130816095Y-93451417D01*
X130881757Y-93249330D01*
X130881757Y-93249327D01*
X130915000Y-93039446D01*
X130915000Y-92826953D01*
X130881757Y-92617072D01*
X130881757Y-92617069D01*
X130816095Y-92414982D01*
X130719624Y-92225649D01*
X130680270Y-92171482D01*
X130680269Y-92171482D01*
X130047962Y-92803790D01*
X130030925Y-92740207D01*
X129965099Y-92626193D01*
X129872007Y-92533101D01*
X129757993Y-92467275D01*
X129694409Y-92450237D01*
X130364627Y-91780018D01*
X130425950Y-91746533D01*
X130452307Y-91743699D01*
X130462872Y-91743699D01*
X130522483Y-91737291D01*
X130657331Y-91686996D01*
X130772546Y-91600746D01*
X130858796Y-91485531D01*
X130909091Y-91350683D01*
X130915500Y-91291073D01*
X130915499Y-89495328D01*
X130909091Y-89435717D01*
X130870284Y-89331671D01*
X130858797Y-89300871D01*
X130858793Y-89300864D01*
X130772547Y-89185655D01*
X130772544Y-89185652D01*
X130657335Y-89099406D01*
X130657328Y-89099402D01*
X130522482Y-89049108D01*
X130522483Y-89049108D01*
X130462883Y-89042701D01*
X130462881Y-89042700D01*
X130462873Y-89042700D01*
X130462865Y-89042700D01*
X130289500Y-89042700D01*
X130222461Y-89023015D01*
X130176706Y-88970211D01*
X130165500Y-88918700D01*
X130165500Y-84264941D01*
X130185185Y-84197902D01*
X130234405Y-84153853D01*
X130383210Y-84080053D01*
X130523159Y-83967559D01*
X130635653Y-83827610D01*
X130715433Y-83666749D01*
X130758766Y-83492500D01*
X130761500Y-83452184D01*
X130761500Y-80958616D01*
X130758766Y-80918300D01*
X130715433Y-80744051D01*
X130635653Y-80583190D01*
X130523159Y-80443241D01*
X130438025Y-80374808D01*
X130383209Y-80330746D01*
X130222350Y-80250967D01*
X130048102Y-80207634D01*
X130048103Y-80207634D01*
X130023910Y-80205993D01*
X130007784Y-80204900D01*
X129214216Y-80204900D01*
X129198089Y-80205993D01*
X129173897Y-80207634D01*
X128999649Y-80250967D01*
X128838790Y-80330746D01*
X128698841Y-80443240D01*
X128698840Y-80443241D01*
X128586346Y-80583190D01*
X128506567Y-80744049D01*
X128481335Y-80845513D01*
X128446053Y-80905820D01*
X128383767Y-80937479D01*
X128314253Y-80930438D01*
X128259581Y-80886933D01*
X128240665Y-80845513D01*
X128215475Y-80744220D01*
X128215433Y-80744051D01*
X128135653Y-80583190D01*
X128023159Y-80443241D01*
X127938025Y-80374808D01*
X127883209Y-80330746D01*
X127722350Y-80250967D01*
X127548102Y-80207634D01*
X127548103Y-80207634D01*
X127523910Y-80205993D01*
X127507784Y-80204900D01*
X126714216Y-80204900D01*
X126698089Y-80205993D01*
X126673897Y-80207634D01*
X126499649Y-80250967D01*
X126338790Y-80330746D01*
X126198841Y-80443240D01*
X126198681Y-80443401D01*
X126198559Y-80443467D01*
X126193601Y-80447453D01*
X126192887Y-80446564D01*
X126137358Y-80476886D01*
X126067666Y-80471902D01*
X126028816Y-80446933D01*
X126028399Y-80447453D01*
X126023513Y-80443526D01*
X126023319Y-80443401D01*
X126023158Y-80443240D01*
X125883209Y-80330746D01*
X125722350Y-80250967D01*
X125548102Y-80207634D01*
X125548103Y-80207634D01*
X125523910Y-80205993D01*
X125507784Y-80204900D01*
X124714216Y-80204900D01*
X124698089Y-80205993D01*
X124673897Y-80207634D01*
X124499649Y-80250967D01*
X124338790Y-80330746D01*
X124198841Y-80443240D01*
X124198840Y-80443241D01*
X124086346Y-80583190D01*
X124006567Y-80744049D01*
X123981077Y-80846549D01*
X123945794Y-80906856D01*
X123883509Y-80938515D01*
X123813995Y-80931474D01*
X123759323Y-80887968D01*
X123740407Y-80846549D01*
X123714958Y-80744220D01*
X123635231Y-80583464D01*
X123635229Y-80583461D01*
X123522803Y-80443597D01*
X123522802Y-80443596D01*
X123382938Y-80331170D01*
X123382935Y-80331168D01*
X123222180Y-80251441D01*
X123048034Y-80208132D01*
X123007742Y-80205400D01*
X122861000Y-80205400D01*
X122361000Y-80205400D01*
X122214258Y-80205400D01*
X122173965Y-80208132D01*
X121999819Y-80251441D01*
X121839064Y-80331168D01*
X121839061Y-80331170D01*
X121699197Y-80443596D01*
X121699196Y-80443597D01*
X121586770Y-80583461D01*
X121586768Y-80583464D01*
X121507041Y-80744219D01*
X121463732Y-80918365D01*
X121461000Y-80958658D01*
X112542265Y-80958658D01*
X110835455Y-79251848D01*
X118611000Y-79251848D01*
X119357448Y-78505400D01*
X119357448Y-78505399D01*
X118611000Y-77758951D01*
X118611000Y-79251848D01*
X110835455Y-79251848D01*
X110236819Y-78653212D01*
X110203334Y-78591889D01*
X110200500Y-78565531D01*
X110200500Y-77166430D01*
X118725583Y-77166430D01*
X118725583Y-77166432D01*
X119411000Y-77851848D01*
X119411000Y-79158951D01*
X118725583Y-79844366D01*
X118725583Y-79844368D01*
X118770195Y-79931924D01*
X118871967Y-80072002D01*
X118994397Y-80194432D01*
X119134475Y-80296204D01*
X119288742Y-80374808D01*
X119453415Y-80428314D01*
X119624429Y-80455400D01*
X119797571Y-80455400D01*
X119968584Y-80428314D01*
X120133257Y-80374808D01*
X120287524Y-80296204D01*
X120427602Y-80194432D01*
X120550032Y-80072002D01*
X120651805Y-79931921D01*
X120696415Y-79844367D01*
X120011000Y-79158952D01*
X120011000Y-78505399D01*
X120064552Y-78505399D01*
X120064552Y-78505400D01*
X120810999Y-79251848D01*
X131411000Y-79251848D01*
X132157448Y-78505400D01*
X132157448Y-78505399D01*
X131411000Y-77758951D01*
X131411000Y-79251848D01*
X120810999Y-79251848D01*
X120811000Y-79251847D01*
X120811000Y-77758952D01*
X120810999Y-77758951D01*
X120064552Y-78505399D01*
X120011000Y-78505399D01*
X120011000Y-77851848D01*
X120696416Y-77166431D01*
X120696415Y-77166430D01*
X131525583Y-77166430D01*
X131525583Y-77166432D01*
X132211000Y-77851848D01*
X132211000Y-79158951D01*
X131525583Y-79844366D01*
X131525583Y-79844368D01*
X131570195Y-79931924D01*
X131671967Y-80072002D01*
X131794397Y-80194432D01*
X131934475Y-80296204D01*
X132088742Y-80374808D01*
X132253415Y-80428314D01*
X132424429Y-80455400D01*
X132597571Y-80455400D01*
X132768584Y-80428314D01*
X132933257Y-80374808D01*
X133087524Y-80296204D01*
X133227602Y-80194432D01*
X133350032Y-80072002D01*
X133451804Y-79931923D01*
X133496415Y-79844367D01*
X132811000Y-79158952D01*
X132811000Y-78505399D01*
X132864552Y-78505399D01*
X132864552Y-78505400D01*
X133610999Y-79251848D01*
X133611000Y-79251847D01*
X133611000Y-77758952D01*
X133610999Y-77758951D01*
X132864552Y-78505399D01*
X132811000Y-78505399D01*
X132811000Y-77851848D01*
X133496416Y-77166431D01*
X133451804Y-77078875D01*
X133350032Y-76938797D01*
X133227602Y-76816367D01*
X133087524Y-76714595D01*
X132933257Y-76635991D01*
X132768584Y-76582485D01*
X132597571Y-76555400D01*
X132424429Y-76555400D01*
X132253415Y-76582485D01*
X132088742Y-76635991D01*
X131934475Y-76714595D01*
X131794397Y-76816367D01*
X131671967Y-76938797D01*
X131570194Y-77078878D01*
X131525583Y-77166430D01*
X120696415Y-77166430D01*
X120651805Y-77078877D01*
X120550032Y-76938797D01*
X120427602Y-76816367D01*
X120287524Y-76714595D01*
X120133257Y-76635991D01*
X119968584Y-76582485D01*
X119797571Y-76555400D01*
X119624429Y-76555400D01*
X119453415Y-76582485D01*
X119288742Y-76635991D01*
X119134475Y-76714595D01*
X118994397Y-76816367D01*
X118871967Y-76938797D01*
X118770194Y-77078878D01*
X118725583Y-77166430D01*
X110200500Y-77166430D01*
X110200500Y-74506057D01*
X110211966Y-74453978D01*
X110217744Y-74441491D01*
X110224536Y-74432641D01*
X110247524Y-74377141D01*
X110248581Y-74374859D01*
X110270003Y-74350386D01*
X110290395Y-74325082D01*
X110292877Y-74324255D01*
X110294602Y-74322286D01*
X110325842Y-74313283D01*
X110356689Y-74303017D01*
X110359225Y-74303664D01*
X110361739Y-74302940D01*
X110392884Y-74312255D01*
X110424388Y-74320296D01*
X110427279Y-74322542D01*
X110428679Y-74322961D01*
X110430397Y-74324964D01*
X110448796Y-74339257D01*
X110481654Y-74372115D01*
X110630875Y-74464156D01*
X110630880Y-74464158D01*
X110797302Y-74519305D01*
X110797309Y-74519306D01*
X110900019Y-74529799D01*
X111249999Y-74529799D01*
X111750000Y-74529799D01*
X112099972Y-74529799D01*
X112099986Y-74529798D01*
X112202697Y-74519305D01*
X112369119Y-74464158D01*
X112369124Y-74464156D01*
X112518345Y-74372115D01*
X112642315Y-74248145D01*
X112734356Y-74098924D01*
X112734358Y-74098919D01*
X112789505Y-73932497D01*
X112789506Y-73932490D01*
X112799999Y-73829786D01*
X112800000Y-73829773D01*
X112800000Y-73579800D01*
X111750000Y-73579800D01*
X111750000Y-74529799D01*
X111249999Y-74529799D01*
X111250000Y-74529798D01*
X111250000Y-72123800D01*
X111269685Y-72056761D01*
X111322489Y-72011006D01*
X111343327Y-72006472D01*
X111350000Y-71999800D01*
X111350000Y-71279528D01*
X111388060Y-71371414D01*
X111458386Y-71441740D01*
X111550272Y-71479800D01*
X111649728Y-71479800D01*
X111741614Y-71441740D01*
X111811940Y-71371414D01*
X111850000Y-71279528D01*
X111850000Y-72185800D01*
X111830315Y-72252839D01*
X111777511Y-72298594D01*
X111756672Y-72303127D01*
X111750000Y-72309800D01*
X111750000Y-73079800D01*
X112799999Y-73079800D01*
X112799999Y-72829828D01*
X112799998Y-72829813D01*
X112789505Y-72727102D01*
X112734358Y-72560680D01*
X112734356Y-72560675D01*
X112668520Y-72453938D01*
X112668519Y-72453935D01*
X112642319Y-72411459D01*
X112642316Y-72411455D01*
X112624574Y-72393713D01*
X114349500Y-72393713D01*
X114349500Y-72606287D01*
X114382754Y-72816243D01*
X114423108Y-72940440D01*
X114448444Y-73018414D01*
X114544951Y-73207820D01*
X114669890Y-73379786D01*
X114820213Y-73530109D01*
X114992179Y-73655048D01*
X114992181Y-73655049D01*
X114992184Y-73655051D01*
X115181588Y-73751557D01*
X115383757Y-73817246D01*
X115593713Y-73850500D01*
X115593714Y-73850500D01*
X115806286Y-73850500D01*
X115806287Y-73850500D01*
X116016243Y-73817246D01*
X116218412Y-73751557D01*
X116407816Y-73655051D01*
X116511391Y-73579800D01*
X116579786Y-73530109D01*
X116579788Y-73530106D01*
X116579792Y-73530104D01*
X116730104Y-73379792D01*
X116730106Y-73379788D01*
X116730109Y-73379786D01*
X116855048Y-73207820D01*
X116855047Y-73207820D01*
X116855051Y-73207816D01*
X116951557Y-73018412D01*
X117017246Y-72816243D01*
X117050500Y-72606287D01*
X117050500Y-72393713D01*
X117017246Y-72183757D01*
X116951557Y-71981588D01*
X116855051Y-71792184D01*
X116855049Y-71792181D01*
X116855048Y-71792179D01*
X116730109Y-71620213D01*
X116579786Y-71469890D01*
X116407820Y-71344951D01*
X116218414Y-71248444D01*
X116218413Y-71248443D01*
X116218412Y-71248443D01*
X116016243Y-71182754D01*
X116016241Y-71182753D01*
X116016240Y-71182753D01*
X115854957Y-71157208D01*
X115806287Y-71149500D01*
X115593713Y-71149500D01*
X115554202Y-71155757D01*
X115383759Y-71182753D01*
X115383760Y-71182753D01*
X115181585Y-71248444D01*
X114992179Y-71344951D01*
X114820213Y-71469890D01*
X114669890Y-71620213D01*
X114544951Y-71792179D01*
X114448444Y-71981585D01*
X114382753Y-72183760D01*
X114356239Y-72351162D01*
X114349500Y-72393713D01*
X112624574Y-72393713D01*
X112518345Y-72287484D01*
X112369124Y-72195443D01*
X112369119Y-72195441D01*
X112266072Y-72161295D01*
X112208627Y-72121522D01*
X112181804Y-72057007D01*
X112194119Y-71988231D01*
X112217395Y-71955907D01*
X112337914Y-71835388D01*
X112441875Y-71679800D01*
X112441880Y-71679791D01*
X112513491Y-71506905D01*
X112513493Y-71506897D01*
X112549999Y-71323371D01*
X112550000Y-71323369D01*
X112550000Y-71129800D01*
X111850000Y-71129800D01*
X111850000Y-70629800D01*
X112550000Y-70629800D01*
X112550000Y-70436230D01*
X112549999Y-70436228D01*
X112513493Y-70252702D01*
X112513491Y-70252694D01*
X112441880Y-70079808D01*
X112441875Y-70079799D01*
X112337913Y-69924210D01*
X112337910Y-69924206D01*
X112205593Y-69791889D01*
X112205589Y-69791886D01*
X112109382Y-69727602D01*
X112064577Y-69673990D01*
X112055870Y-69604665D01*
X112086025Y-69541637D01*
X112145468Y-69504918D01*
X112178273Y-69500500D01*
X133856300Y-69500500D01*
X133923339Y-69520185D01*
X133969094Y-69572989D01*
X133980300Y-69624500D01*
X133980300Y-135489300D01*
X133960615Y-135556339D01*
X133907811Y-135602094D01*
X133856300Y-135613300D01*
X40624500Y-135613300D01*
X40557461Y-135593615D01*
X40511706Y-135540811D01*
X40500500Y-135489300D01*
X40500500Y-72893713D01*
X42149500Y-72893713D01*
X42149500Y-73106287D01*
X42182754Y-73316243D01*
X42223211Y-73440757D01*
X42248444Y-73518414D01*
X42344951Y-73707820D01*
X42469890Y-73879786D01*
X42620213Y-74030109D01*
X42792179Y-74155048D01*
X42792181Y-74155049D01*
X42792184Y-74155051D01*
X42981588Y-74251557D01*
X43183757Y-74317246D01*
X43393713Y-74350500D01*
X43393714Y-74350500D01*
X43606286Y-74350500D01*
X43606287Y-74350500D01*
X43816243Y-74317246D01*
X44018412Y-74251557D01*
X44207816Y-74155051D01*
X44285076Y-74098919D01*
X44379786Y-74030109D01*
X44379788Y-74030106D01*
X44379792Y-74030104D01*
X44530104Y-73879792D01*
X44530106Y-73879788D01*
X44530109Y-73879786D01*
X44655048Y-73707820D01*
X44655047Y-73707820D01*
X44655051Y-73707816D01*
X44751557Y-73518412D01*
X44817246Y-73316243D01*
X44850500Y-73106287D01*
X44850500Y-72893713D01*
X44817246Y-72683757D01*
X44751557Y-72481588D01*
X44706783Y-72393713D01*
X80649500Y-72393713D01*
X80649500Y-72606287D01*
X80682754Y-72816243D01*
X80723108Y-72940440D01*
X80748444Y-73018414D01*
X80844951Y-73207820D01*
X80969890Y-73379786D01*
X81120213Y-73530109D01*
X81292179Y-73655048D01*
X81292181Y-73655049D01*
X81292184Y-73655051D01*
X81481588Y-73751557D01*
X81683757Y-73817246D01*
X81893713Y-73850500D01*
X81893714Y-73850500D01*
X82106286Y-73850500D01*
X82106287Y-73850500D01*
X82237069Y-73829786D01*
X103800001Y-73829786D01*
X103810494Y-73932497D01*
X103865641Y-74098919D01*
X103865643Y-74098924D01*
X103957684Y-74248145D01*
X104081654Y-74372115D01*
X104230875Y-74464156D01*
X104230880Y-74464158D01*
X104397302Y-74519305D01*
X104397309Y-74519306D01*
X104500019Y-74529799D01*
X104849999Y-74529799D01*
X104850000Y-74529798D01*
X104850000Y-73579800D01*
X103800001Y-73579800D01*
X103800001Y-73829786D01*
X82237069Y-73829786D01*
X82316243Y-73817246D01*
X82518412Y-73751557D01*
X82707816Y-73655051D01*
X82811391Y-73579800D01*
X82879786Y-73530109D01*
X82879788Y-73530106D01*
X82879792Y-73530104D01*
X83030104Y-73379792D01*
X83030106Y-73379788D01*
X83030109Y-73379786D01*
X83155048Y-73207820D01*
X83155047Y-73207820D01*
X83155051Y-73207816D01*
X83251557Y-73018412D01*
X83317246Y-72816243D01*
X83350500Y-72606287D01*
X83350500Y-72393713D01*
X83317246Y-72183757D01*
X83251557Y-71981588D01*
X83155051Y-71792184D01*
X83155049Y-71792181D01*
X83155048Y-71792179D01*
X83030109Y-71620213D01*
X82879786Y-71469890D01*
X82707820Y-71344951D01*
X82518414Y-71248444D01*
X82518413Y-71248443D01*
X82518412Y-71248443D01*
X82316243Y-71182754D01*
X82316241Y-71182753D01*
X82316240Y-71182753D01*
X82154957Y-71157208D01*
X82106287Y-71149500D01*
X81893713Y-71149500D01*
X81854202Y-71155757D01*
X81683759Y-71182753D01*
X81683760Y-71182753D01*
X81481585Y-71248444D01*
X81292179Y-71344951D01*
X81120213Y-71469890D01*
X80969890Y-71620213D01*
X80844951Y-71792179D01*
X80748444Y-71981585D01*
X80682753Y-72183760D01*
X80656239Y-72351162D01*
X80649500Y-72393713D01*
X44706783Y-72393713D01*
X44655051Y-72292184D01*
X44634197Y-72263481D01*
X44530109Y-72120213D01*
X44379786Y-71969890D01*
X44207820Y-71844951D01*
X44018414Y-71748444D01*
X44018413Y-71748443D01*
X44018412Y-71748443D01*
X43816243Y-71682754D01*
X43816241Y-71682753D01*
X43816240Y-71682753D01*
X43654957Y-71657208D01*
X43606287Y-71649500D01*
X43393713Y-71649500D01*
X43345042Y-71657208D01*
X43183760Y-71682753D01*
X42981585Y-71748444D01*
X42792179Y-71844951D01*
X42620213Y-71969890D01*
X42469890Y-72120213D01*
X42344951Y-72292179D01*
X42248444Y-72481585D01*
X42182753Y-72683760D01*
X42163192Y-72807266D01*
X42149500Y-72893713D01*
X40500500Y-72893713D01*
X40500500Y-69624500D01*
X40520185Y-69557461D01*
X40572989Y-69511706D01*
X40624500Y-69500500D01*
X104421727Y-69500500D01*
X104454215Y-69510039D01*
G37*
%TD.AperFunction*%
%TA.AperFunction,Conductor*%
G36*
X101026703Y-117909184D02*
G01*
X101033181Y-117915216D01*
X113590784Y-130472819D01*
X113624269Y-130534142D01*
X113619285Y-130603834D01*
X113577413Y-130659767D01*
X113511949Y-130684184D01*
X113503103Y-130684500D01*
X113355913Y-130684500D01*
X113307242Y-130692208D01*
X113145960Y-130717753D01*
X112943785Y-130783444D01*
X112754379Y-130879951D01*
X112582413Y-131004890D01*
X112432090Y-131155213D01*
X112307149Y-131327182D01*
X112302684Y-131335946D01*
X112254709Y-131386742D01*
X112186888Y-131403536D01*
X112120753Y-131380998D01*
X112081716Y-131335946D01*
X112077250Y-131327182D01*
X111952309Y-131155213D01*
X111801986Y-131004890D01*
X111630020Y-130879951D01*
X111440614Y-130783444D01*
X111440613Y-130783443D01*
X111440612Y-130783443D01*
X111238443Y-130717754D01*
X111238441Y-130717753D01*
X111238440Y-130717753D01*
X111077157Y-130692208D01*
X111028487Y-130684500D01*
X110815913Y-130684500D01*
X110767242Y-130692208D01*
X110605960Y-130717753D01*
X110403785Y-130783444D01*
X110214379Y-130879951D01*
X110042413Y-131004890D01*
X109892090Y-131155213D01*
X109767149Y-131327182D01*
X109762402Y-131336499D01*
X109714427Y-131387293D01*
X109646605Y-131404087D01*
X109580471Y-131381548D01*
X109541434Y-131336495D01*
X109536826Y-131327452D01*
X109497470Y-131273282D01*
X109497469Y-131273282D01*
X108865162Y-131905589D01*
X108848125Y-131842007D01*
X108782299Y-131727993D01*
X108689207Y-131634901D01*
X108575193Y-131569075D01*
X108511609Y-131552037D01*
X109143916Y-130919728D01*
X109089750Y-130880375D01*
X108900417Y-130783904D01*
X108698329Y-130718242D01*
X108488446Y-130685000D01*
X108275954Y-130685000D01*
X108066072Y-130718242D01*
X108066069Y-130718242D01*
X107863982Y-130783904D01*
X107674639Y-130880380D01*
X107620482Y-130919727D01*
X107620482Y-130919728D01*
X108252791Y-131552037D01*
X108189207Y-131569075D01*
X108075193Y-131634901D01*
X107982101Y-131727993D01*
X107916275Y-131842007D01*
X107899237Y-131905591D01*
X107266928Y-131273282D01*
X107266927Y-131273282D01*
X107227580Y-131327439D01*
X107131104Y-131516782D01*
X107065442Y-131718869D01*
X107065442Y-131718872D01*
X107032200Y-131928753D01*
X107032200Y-132141246D01*
X107065442Y-132351127D01*
X107065442Y-132351130D01*
X107088854Y-132423182D01*
X107090849Y-132493023D01*
X107054769Y-132552856D01*
X106992068Y-132583684D01*
X106970923Y-132585500D01*
X85223097Y-132585500D01*
X85156058Y-132565815D01*
X85110303Y-132513011D01*
X85100359Y-132443853D01*
X85129384Y-132380297D01*
X85135416Y-132373819D01*
X86629929Y-130879306D01*
X89372636Y-128136599D01*
X97608321Y-119900912D01*
X97669642Y-119867429D01*
X97739334Y-119872413D01*
X97795267Y-119914285D01*
X97819684Y-119979749D01*
X97820000Y-119988595D01*
X97820000Y-120182317D01*
X97852009Y-120384417D01*
X97915244Y-120579031D01*
X98008141Y-120761350D01*
X98008147Y-120761359D01*
X98040523Y-120805921D01*
X98040524Y-120805922D01*
X98720000Y-120126446D01*
X98720000Y-120132661D01*
X98747259Y-120234394D01*
X98799920Y-120325606D01*
X98874394Y-120400080D01*
X98965606Y-120452741D01*
X99067339Y-120480000D01*
X99073552Y-120480000D01*
X98394076Y-121159474D01*
X98438650Y-121191859D01*
X98620968Y-121284755D01*
X98815582Y-121347990D01*
X99017683Y-121380000D01*
X99222317Y-121380000D01*
X99316959Y-121365010D01*
X99386252Y-121373964D01*
X99439704Y-121418961D01*
X99460344Y-121485712D01*
X99452239Y-121528035D01*
X99453031Y-121528276D01*
X99451261Y-121534110D01*
X99420500Y-121688753D01*
X99420500Y-121846446D01*
X99451261Y-122001089D01*
X99451264Y-122001101D01*
X99511602Y-122146772D01*
X99511609Y-122146785D01*
X99599210Y-122277888D01*
X99599213Y-122277892D01*
X99710707Y-122389386D01*
X99710711Y-122389389D01*
X99841814Y-122476990D01*
X99841827Y-122476997D01*
X99987498Y-122537335D01*
X99987503Y-122537337D01*
X100142153Y-122568099D01*
X100142156Y-122568100D01*
X100142158Y-122568100D01*
X100299844Y-122568100D01*
X100299845Y-122568099D01*
X100454497Y-122537337D01*
X100600179Y-122476994D01*
X100731289Y-122389389D01*
X100842789Y-122277889D01*
X100930394Y-122146779D01*
X100990737Y-122001097D01*
X101021500Y-121846442D01*
X101021500Y-121688758D01*
X101021500Y-121688755D01*
X101021499Y-121688753D01*
X101010826Y-121635095D01*
X100990737Y-121534103D01*
X100986061Y-121522813D01*
X100930397Y-121388427D01*
X100930390Y-121388414D01*
X100842398Y-121256725D01*
X100821520Y-121190047D01*
X100821500Y-121187834D01*
X100821500Y-118002897D01*
X100841185Y-117935858D01*
X100893989Y-117890103D01*
X100963147Y-117880159D01*
X101026703Y-117909184D01*
G37*
%TD.AperFunction*%
%TA.AperFunction,Conductor*%
G36*
X75812694Y-108402385D02*
G01*
X75858449Y-108455189D01*
X75868393Y-108524347D01*
X75863586Y-108545019D01*
X75839547Y-108619000D01*
X75810000Y-108805552D01*
X75810000Y-108994447D01*
X75839548Y-109181002D01*
X75897914Y-109360637D01*
X75983666Y-109528933D01*
X76002116Y-109554328D01*
X76660000Y-108896444D01*
X76660000Y-108946078D01*
X76683852Y-109035095D01*
X76729930Y-109114905D01*
X76795095Y-109180070D01*
X76874905Y-109226148D01*
X76963922Y-109250000D01*
X77056078Y-109250000D01*
X77145095Y-109226148D01*
X77224905Y-109180070D01*
X77290070Y-109114905D01*
X77336148Y-109035095D01*
X77360000Y-108946078D01*
X77360000Y-108896446D01*
X78017882Y-109554328D01*
X78017883Y-109554328D01*
X78036331Y-109528937D01*
X78122085Y-109360637D01*
X78180451Y-109181002D01*
X78210000Y-108994447D01*
X78210000Y-108805552D01*
X78180452Y-108619000D01*
X78156414Y-108545019D01*
X78154419Y-108475178D01*
X78190499Y-108415345D01*
X78253200Y-108384516D01*
X78274345Y-108382700D01*
X80825129Y-108382700D01*
X80892168Y-108402385D01*
X80937923Y-108455189D01*
X80947867Y-108524347D01*
X80943060Y-108545015D01*
X80942238Y-108547549D01*
X80919059Y-108618881D01*
X80889500Y-108805513D01*
X80889500Y-108994486D01*
X80919059Y-109181118D01*
X80977454Y-109360836D01*
X81035704Y-109475157D01*
X81063240Y-109529199D01*
X81174310Y-109682073D01*
X81307927Y-109815690D01*
X81460801Y-109926760D01*
X81536923Y-109965546D01*
X81629163Y-110012545D01*
X81629165Y-110012545D01*
X81629168Y-110012547D01*
X81701444Y-110036031D01*
X81808881Y-110070940D01*
X81995514Y-110100500D01*
X81995519Y-110100500D01*
X82184486Y-110100500D01*
X82371118Y-110070940D01*
X82404452Y-110060109D01*
X82550832Y-110012547D01*
X82643077Y-109965545D01*
X82711745Y-109952649D01*
X82776486Y-109978925D01*
X82816744Y-110036031D01*
X82819736Y-110105836D01*
X82787053Y-110163711D01*
X82587584Y-110363181D01*
X82526261Y-110396666D01*
X82499903Y-110399500D01*
X79873429Y-110399500D01*
X79715314Y-110399500D01*
X79562587Y-110440423D01*
X79562586Y-110440423D01*
X79562584Y-110440424D01*
X79562581Y-110440425D01*
X79512468Y-110469359D01*
X79512467Y-110469360D01*
X79469061Y-110494420D01*
X79425657Y-110519479D01*
X79425654Y-110519481D01*
X79313850Y-110631286D01*
X78321647Y-111623487D01*
X78260324Y-111656972D01*
X78190632Y-111651988D01*
X78134699Y-111610116D01*
X78123481Y-111592101D01*
X78036329Y-111421059D01*
X78017883Y-111395670D01*
X78017882Y-111395669D01*
X77360000Y-112053553D01*
X77360000Y-112003922D01*
X77336148Y-111914905D01*
X77290070Y-111835095D01*
X77224905Y-111769930D01*
X77145095Y-111723852D01*
X77056078Y-111700000D01*
X76963922Y-111700000D01*
X76874905Y-111723852D01*
X76795095Y-111769930D01*
X76729930Y-111835095D01*
X76683852Y-111914905D01*
X76660000Y-112003922D01*
X76660000Y-112096078D01*
X76683852Y-112185095D01*
X76729930Y-112264905D01*
X76795095Y-112330070D01*
X76874905Y-112376148D01*
X76963922Y-112400000D01*
X77013553Y-112400000D01*
X76355669Y-113057882D01*
X76355670Y-113057883D01*
X76381059Y-113076329D01*
X76552101Y-113163481D01*
X76602897Y-113211456D01*
X76619692Y-113279277D01*
X76597154Y-113345412D01*
X76583487Y-113361647D01*
X61551286Y-128393850D01*
X61439481Y-128505654D01*
X61439479Y-128505656D01*
X61416088Y-128546172D01*
X61405089Y-128565224D01*
X61381382Y-128606286D01*
X61360536Y-128642392D01*
X61360423Y-128642587D01*
X61319499Y-128795315D01*
X61319499Y-128795317D01*
X61319499Y-128963425D01*
X61319500Y-128963431D01*
X61319500Y-129250903D01*
X61299815Y-129317942D01*
X61247011Y-129363697D01*
X61177853Y-129373641D01*
X61114297Y-129344616D01*
X61107819Y-129338584D01*
X60907590Y-129138355D01*
X60907588Y-129138352D01*
X60788717Y-129019481D01*
X60788716Y-129019480D01*
X60701904Y-128969360D01*
X60701904Y-128969359D01*
X60701900Y-128969358D01*
X60651785Y-128940423D01*
X60499057Y-128899499D01*
X60340943Y-128899499D01*
X60333347Y-128899499D01*
X60333331Y-128899500D01*
X58572596Y-128899500D01*
X58505557Y-128879815D01*
X58472278Y-128848386D01*
X58461172Y-128833100D01*
X58353828Y-128685354D01*
X58214646Y-128546172D01*
X58055405Y-128430476D01*
X57880029Y-128341117D01*
X57692826Y-128280290D01*
X57498422Y-128249500D01*
X57498417Y-128249500D01*
X57301583Y-128249500D01*
X57301578Y-128249500D01*
X57107173Y-128280290D01*
X56919970Y-128341117D01*
X56744594Y-128430476D01*
X56653741Y-128496485D01*
X56585354Y-128546172D01*
X56585352Y-128546174D01*
X56585351Y-128546174D01*
X56446174Y-128685351D01*
X56446174Y-128685352D01*
X56446172Y-128685354D01*
X56401171Y-128747292D01*
X56330476Y-128844594D01*
X56241117Y-129019970D01*
X56180290Y-129207173D01*
X56149500Y-129401577D01*
X56149500Y-129598422D01*
X56180290Y-129792826D01*
X56241117Y-129980029D01*
X56316964Y-130128886D01*
X56330476Y-130155405D01*
X56446172Y-130314646D01*
X56585354Y-130453828D01*
X56744595Y-130569524D01*
X56762259Y-130578524D01*
X56919970Y-130658882D01*
X56919972Y-130658882D01*
X56919975Y-130658884D01*
X57010348Y-130688248D01*
X57107173Y-130719709D01*
X57301578Y-130750500D01*
X57301583Y-130750500D01*
X57498422Y-130750500D01*
X57692826Y-130719709D01*
X57749664Y-130701241D01*
X57880025Y-130658884D01*
X58055405Y-130569524D01*
X58214646Y-130453828D01*
X58353828Y-130314646D01*
X58469524Y-130155405D01*
X58469524Y-130155403D01*
X58472278Y-130151614D01*
X58527608Y-130108949D01*
X58572596Y-130100500D01*
X60119903Y-130100500D01*
X60186942Y-130120185D01*
X60207584Y-130136819D01*
X60709933Y-130639168D01*
X60743418Y-130700491D01*
X60744725Y-130746247D01*
X60719500Y-130905513D01*
X60719500Y-131094486D01*
X60745256Y-131257102D01*
X60736301Y-131326395D01*
X60691305Y-131379847D01*
X60624554Y-131400487D01*
X60622783Y-131400500D01*
X55314758Y-131400500D01*
X55247719Y-131380815D01*
X55227077Y-131364181D01*
X54628368Y-130765472D01*
X54594883Y-130704149D01*
X54599867Y-130634457D01*
X54641739Y-130578524D01*
X54651271Y-130572057D01*
X54655401Y-130569526D01*
X54655400Y-130569526D01*
X54655405Y-130569524D01*
X54814646Y-130453828D01*
X54953828Y-130314646D01*
X55069524Y-130155405D01*
X55158884Y-129980025D01*
X55219709Y-129792826D01*
X55226246Y-129751555D01*
X55250500Y-129598422D01*
X55250500Y-129401577D01*
X55219709Y-129207173D01*
X55180593Y-129086787D01*
X55158884Y-129019975D01*
X55158882Y-129019972D01*
X55158882Y-129019970D01*
X55101487Y-128907327D01*
X55069524Y-128844595D01*
X54953828Y-128685354D01*
X54814646Y-128546172D01*
X54655405Y-128430476D01*
X54480029Y-128341117D01*
X54292826Y-128280290D01*
X54098422Y-128249500D01*
X54098417Y-128249500D01*
X53901583Y-128249500D01*
X53901578Y-128249500D01*
X53707173Y-128280290D01*
X53519970Y-128341117D01*
X53344594Y-128430476D01*
X53253741Y-128496485D01*
X53185354Y-128546172D01*
X53185352Y-128546174D01*
X53185351Y-128546174D01*
X53046174Y-128685351D01*
X53046174Y-128685352D01*
X53046172Y-128685354D01*
X53042531Y-128690366D01*
X52930469Y-128844603D01*
X52927933Y-128848743D01*
X52876120Y-128895617D01*
X52807190Y-128907037D01*
X52743028Y-128879378D01*
X52734527Y-128871631D01*
X51817819Y-127954923D01*
X51784334Y-127893600D01*
X51781500Y-127867242D01*
X51781500Y-126350395D01*
X51801185Y-126283356D01*
X51853989Y-126237601D01*
X51923147Y-126227657D01*
X51974390Y-126247292D01*
X52071821Y-126312394D01*
X52071823Y-126312395D01*
X52071827Y-126312397D01*
X52163564Y-126350395D01*
X52217503Y-126372737D01*
X52372153Y-126403499D01*
X52372156Y-126403500D01*
X52372158Y-126403500D01*
X52529844Y-126403500D01*
X52529845Y-126403499D01*
X52684497Y-126372737D01*
X52830179Y-126312394D01*
X52830185Y-126312390D01*
X52961875Y-126224398D01*
X53028553Y-126203520D01*
X53030766Y-126203500D01*
X54650331Y-126203500D01*
X54650347Y-126203501D01*
X54657943Y-126203501D01*
X54816054Y-126203501D01*
X54816057Y-126203501D01*
X54968785Y-126162577D01*
X55037107Y-126123131D01*
X55105716Y-126083520D01*
X55217520Y-125971716D01*
X55217520Y-125971714D01*
X55227724Y-125961511D01*
X55227727Y-125961506D01*
X60258016Y-120931219D01*
X60319339Y-120897734D01*
X60345697Y-120894900D01*
X60764303Y-120894900D01*
X60831342Y-120914585D01*
X60851984Y-120931219D01*
X61166241Y-121245476D01*
X61199726Y-121306799D01*
X61196492Y-121371473D01*
X61182753Y-121413757D01*
X61155520Y-121585703D01*
X61149500Y-121623713D01*
X61149500Y-121836287D01*
X61151109Y-121846444D01*
X61175603Y-122001097D01*
X61182754Y-122046243D01*
X61235834Y-122209607D01*
X61248444Y-122248414D01*
X61344951Y-122437820D01*
X61469890Y-122609786D01*
X61620213Y-122760109D01*
X61792179Y-122885048D01*
X61792181Y-122885049D01*
X61792184Y-122885051D01*
X61981588Y-122981557D01*
X62183757Y-123047246D01*
X62393713Y-123080500D01*
X62393714Y-123080500D01*
X62606286Y-123080500D01*
X62606287Y-123080500D01*
X62816243Y-123047246D01*
X63018412Y-122981557D01*
X63207816Y-122885051D01*
X63321165Y-122802699D01*
X63379786Y-122760109D01*
X63379788Y-122760106D01*
X63379792Y-122760104D01*
X63530104Y-122609792D01*
X63530106Y-122609788D01*
X63530109Y-122609786D01*
X63655048Y-122437820D01*
X63655047Y-122437820D01*
X63655051Y-122437816D01*
X63751557Y-122248412D01*
X63817246Y-122046243D01*
X63850500Y-121836287D01*
X63850500Y-121623713D01*
X63817246Y-121413757D01*
X63751557Y-121211588D01*
X63655051Y-121022184D01*
X63655049Y-121022181D01*
X63655048Y-121022179D01*
X63530109Y-120850213D01*
X63379786Y-120699890D01*
X63207820Y-120574951D01*
X63207115Y-120574591D01*
X63199054Y-120570485D01*
X63148259Y-120522512D01*
X63131463Y-120454692D01*
X63153999Y-120388556D01*
X63199054Y-120349515D01*
X63207816Y-120345051D01*
X63236660Y-120324095D01*
X63379786Y-120220109D01*
X63379788Y-120220106D01*
X63379792Y-120220104D01*
X63530104Y-120069792D01*
X63530106Y-120069788D01*
X63530109Y-120069786D01*
X63655048Y-119897820D01*
X63655047Y-119897820D01*
X63655051Y-119897816D01*
X63751557Y-119708412D01*
X63817246Y-119506243D01*
X63850500Y-119296287D01*
X63850500Y-119083713D01*
X63817246Y-118873757D01*
X63803506Y-118831473D01*
X63803072Y-118816262D01*
X63797754Y-118802003D01*
X63802095Y-118782047D01*
X63801512Y-118761635D01*
X63809599Y-118747548D01*
X63812606Y-118733730D01*
X63833754Y-118705479D01*
X64009506Y-118529728D01*
X64009511Y-118529724D01*
X64019714Y-118519520D01*
X64019716Y-118519520D01*
X64131520Y-118407716D01*
X64202571Y-118284651D01*
X64210577Y-118270785D01*
X64251501Y-118118057D01*
X64251501Y-117959942D01*
X64251501Y-117952347D01*
X64251500Y-117952329D01*
X64251500Y-116094185D01*
X64251499Y-116094181D01*
X64229538Y-116012218D01*
X64210577Y-115941455D01*
X64206266Y-115933989D01*
X64202206Y-115926957D01*
X64170974Y-115872861D01*
X64131520Y-115804524D01*
X64019716Y-115692720D01*
X64019715Y-115692719D01*
X64015385Y-115688389D01*
X64015374Y-115688379D01*
X63511126Y-115184131D01*
X63477641Y-115122808D01*
X63482625Y-115053116D01*
X63511126Y-115008769D01*
X63530104Y-114989792D01*
X63530106Y-114989788D01*
X63530109Y-114989786D01*
X63655048Y-114817820D01*
X63655047Y-114817820D01*
X63655051Y-114817816D01*
X63751557Y-114628412D01*
X63817246Y-114426243D01*
X63850500Y-114216287D01*
X63850500Y-114003713D01*
X63817246Y-113793757D01*
X63751557Y-113591588D01*
X63655051Y-113402184D01*
X63655049Y-113402181D01*
X63655048Y-113402179D01*
X63530109Y-113230213D01*
X63379786Y-113079890D01*
X63207820Y-112954951D01*
X63207115Y-112954591D01*
X63199054Y-112950485D01*
X63148259Y-112902512D01*
X63131463Y-112834692D01*
X63153999Y-112768556D01*
X63199054Y-112729515D01*
X63207816Y-112725051D01*
X63236339Y-112704328D01*
X63379786Y-112600109D01*
X63379788Y-112600106D01*
X63379792Y-112600104D01*
X63530104Y-112449792D01*
X63530106Y-112449788D01*
X63530109Y-112449786D01*
X63655048Y-112277820D01*
X63655047Y-112277820D01*
X63655051Y-112277816D01*
X63751557Y-112088412D01*
X63794726Y-111955552D01*
X75810000Y-111955552D01*
X75810000Y-112144447D01*
X75839548Y-112331002D01*
X75897914Y-112510637D01*
X75983666Y-112678933D01*
X76002116Y-112704328D01*
X76656446Y-112050000D01*
X76656446Y-112049999D01*
X76002116Y-111395669D01*
X76002116Y-111395670D01*
X75983669Y-111421060D01*
X75897914Y-111589362D01*
X75839548Y-111768997D01*
X75810000Y-111955552D01*
X63794726Y-111955552D01*
X63817246Y-111886243D01*
X63850500Y-111676287D01*
X63850500Y-111463713D01*
X63817246Y-111253757D01*
X63751557Y-111051588D01*
X63751555Y-111051585D01*
X63751555Y-111051583D01*
X63746731Y-111042116D01*
X76355669Y-111042116D01*
X77010000Y-111696446D01*
X77010001Y-111696446D01*
X77664328Y-111042116D01*
X77638933Y-111023666D01*
X77470637Y-110937914D01*
X77291002Y-110879548D01*
X77104447Y-110850000D01*
X76915553Y-110850000D01*
X76728997Y-110879548D01*
X76549362Y-110937914D01*
X76381060Y-111023669D01*
X76355670Y-111042116D01*
X76355669Y-111042116D01*
X63746731Y-111042116D01*
X63655048Y-110862179D01*
X63530109Y-110690213D01*
X63379786Y-110539890D01*
X63207820Y-110414951D01*
X63207115Y-110414591D01*
X63199054Y-110410485D01*
X63148259Y-110362512D01*
X63131463Y-110294692D01*
X63153999Y-110228556D01*
X63199054Y-110189515D01*
X63207816Y-110185051D01*
X63237188Y-110163711D01*
X63379786Y-110060109D01*
X63379788Y-110060106D01*
X63379792Y-110060104D01*
X63530104Y-109909792D01*
X63531491Y-109907882D01*
X76355669Y-109907882D01*
X76355670Y-109907883D01*
X76381059Y-109926329D01*
X76549362Y-110012085D01*
X76728997Y-110070451D01*
X76915553Y-110100000D01*
X77104447Y-110100000D01*
X77291002Y-110070451D01*
X77470637Y-110012085D01*
X77638937Y-109926331D01*
X77664328Y-109907883D01*
X77664328Y-109907882D01*
X77010001Y-109253554D01*
X77010000Y-109253554D01*
X76355669Y-109907882D01*
X63531491Y-109907882D01*
X63536017Y-109901652D01*
X63618782Y-109787738D01*
X63655048Y-109737820D01*
X63655051Y-109737816D01*
X63751557Y-109548412D01*
X63817246Y-109346243D01*
X63850500Y-109136287D01*
X63850500Y-108923713D01*
X63817246Y-108713757D01*
X63803507Y-108671476D01*
X63803072Y-108656264D01*
X63797754Y-108642003D01*
X63802094Y-108622050D01*
X63801511Y-108601637D01*
X63809600Y-108587547D01*
X63812607Y-108573730D01*
X63833758Y-108545476D01*
X63834216Y-108545019D01*
X63886951Y-108492284D01*
X63960219Y-108419018D01*
X64021542Y-108385533D01*
X64047899Y-108382700D01*
X75745655Y-108382700D01*
X75812694Y-108402385D01*
G37*
%TD.AperFunction*%
%TA.AperFunction,Conductor*%
G36*
X80870138Y-111620185D02*
G01*
X80915893Y-111672989D01*
X80925837Y-111742147D01*
X80921029Y-111762821D01*
X80919060Y-111768879D01*
X80919060Y-111768880D01*
X80889500Y-111955513D01*
X80889500Y-112144486D01*
X80919059Y-112331118D01*
X80977454Y-112510836D01*
X81044642Y-112642699D01*
X81063240Y-112679199D01*
X81174310Y-112832073D01*
X81307927Y-112965690D01*
X81460801Y-113076760D01*
X81540347Y-113117290D01*
X81629163Y-113162545D01*
X81629165Y-113162545D01*
X81629168Y-113162547D01*
X81725497Y-113193846D01*
X81808881Y-113220940D01*
X81995514Y-113250500D01*
X81995519Y-113250500D01*
X82184486Y-113250500D01*
X82371118Y-113220940D01*
X82550832Y-113162547D01*
X82719199Y-113076760D01*
X82719199Y-113076759D01*
X82723540Y-113074548D01*
X82724462Y-113076358D01*
X82780705Y-113060500D01*
X90270398Y-113060500D01*
X90337437Y-113080185D01*
X90380883Y-113128205D01*
X90387715Y-113141614D01*
X90508028Y-113307213D01*
X90652786Y-113451971D01*
X90793633Y-113554300D01*
X90818390Y-113572287D01*
X90909840Y-113618883D01*
X90911080Y-113619515D01*
X90961876Y-113667490D01*
X90978671Y-113735311D01*
X90956134Y-113801446D01*
X90911080Y-113840485D01*
X90818386Y-113887715D01*
X90652786Y-114008028D01*
X90508028Y-114152786D01*
X90387715Y-114318385D01*
X90380883Y-114331795D01*
X90332909Y-114382591D01*
X90270398Y-114399500D01*
X83038625Y-114399500D01*
X82971586Y-114379815D01*
X82950944Y-114363181D01*
X82872075Y-114284312D01*
X82872073Y-114284310D01*
X82719199Y-114173240D01*
X82679046Y-114152781D01*
X82550836Y-114087454D01*
X82371118Y-114029059D01*
X82184486Y-113999500D01*
X82184481Y-113999500D01*
X81995519Y-113999500D01*
X81995514Y-113999500D01*
X81808881Y-114029059D01*
X81629163Y-114087454D01*
X81460800Y-114173240D01*
X81401552Y-114216287D01*
X81307927Y-114284310D01*
X81307925Y-114284312D01*
X81307924Y-114284312D01*
X81174312Y-114417924D01*
X81174312Y-114417925D01*
X81174310Y-114417927D01*
X81126610Y-114483579D01*
X81063240Y-114570800D01*
X80977454Y-114739163D01*
X80919059Y-114918881D01*
X80889500Y-115105513D01*
X80889500Y-115294486D01*
X80919059Y-115481118D01*
X80977454Y-115660836D01*
X81051019Y-115805214D01*
X81063240Y-115829199D01*
X81174310Y-115982073D01*
X81307927Y-116115690D01*
X81460801Y-116226760D01*
X81535243Y-116264690D01*
X81629163Y-116312545D01*
X81629165Y-116312545D01*
X81629168Y-116312547D01*
X81701807Y-116336149D01*
X81808881Y-116370940D01*
X81995514Y-116400500D01*
X81995519Y-116400500D01*
X82184486Y-116400500D01*
X82371118Y-116370940D01*
X82388414Y-116365320D01*
X82550832Y-116312547D01*
X82719199Y-116226760D01*
X82872073Y-116115690D01*
X83005690Y-115982073D01*
X83116760Y-115829199D01*
X83198790Y-115668204D01*
X83246764Y-115617409D01*
X83309275Y-115600500D01*
X90270398Y-115600500D01*
X90337437Y-115620185D01*
X90380883Y-115668205D01*
X90387715Y-115681614D01*
X90508028Y-115847213D01*
X90652786Y-115991971D01*
X90801266Y-116099846D01*
X90818390Y-116112287D01*
X90909840Y-116158883D01*
X90911080Y-116159515D01*
X90961876Y-116207490D01*
X90978671Y-116275311D01*
X90956134Y-116341446D01*
X90911080Y-116380485D01*
X90818386Y-116427715D01*
X90652786Y-116548028D01*
X90508028Y-116692786D01*
X90387715Y-116858385D01*
X90380883Y-116871795D01*
X90332909Y-116922591D01*
X90270398Y-116939500D01*
X82986669Y-116939500D01*
X82986653Y-116939499D01*
X82979057Y-116939499D01*
X82820943Y-116939499D01*
X82721135Y-116966243D01*
X82668210Y-116980424D01*
X82668209Y-116980425D01*
X82625526Y-117005068D01*
X82625517Y-117005074D01*
X82618095Y-117009360D01*
X82531284Y-117059480D01*
X82445403Y-117145360D01*
X82439344Y-117150080D01*
X82413702Y-117160206D01*
X82389506Y-117173418D01*
X82379525Y-117173703D01*
X82374358Y-117175744D01*
X82365986Y-117174089D01*
X82343751Y-117174725D01*
X82184486Y-117149500D01*
X82184481Y-117149500D01*
X81995519Y-117149500D01*
X81995514Y-117149500D01*
X81808881Y-117179059D01*
X81629163Y-117237454D01*
X81460800Y-117323240D01*
X81408256Y-117361416D01*
X81307927Y-117434310D01*
X81307925Y-117434312D01*
X81307924Y-117434312D01*
X81174312Y-117567924D01*
X81174312Y-117567925D01*
X81174310Y-117567927D01*
X81129497Y-117629607D01*
X81063240Y-117720800D01*
X80977454Y-117889163D01*
X80919059Y-118068881D01*
X80889500Y-118255513D01*
X80889500Y-118444486D01*
X80919059Y-118631118D01*
X80977454Y-118810836D01*
X81057388Y-118967713D01*
X81063240Y-118979199D01*
X81174310Y-119132073D01*
X81307927Y-119265690D01*
X81460801Y-119376760D01*
X81529561Y-119411795D01*
X81629163Y-119462545D01*
X81629165Y-119462545D01*
X81629168Y-119462547D01*
X81681344Y-119479500D01*
X81808881Y-119520940D01*
X81995514Y-119550500D01*
X81995519Y-119550500D01*
X82184486Y-119550500D01*
X82371118Y-119520940D01*
X82416350Y-119506243D01*
X82550832Y-119462547D01*
X82719199Y-119376760D01*
X82872073Y-119265690D01*
X83005690Y-119132073D01*
X83116760Y-118979199D01*
X83202547Y-118810832D01*
X83260940Y-118631118D01*
X83274524Y-118545354D01*
X83290500Y-118444486D01*
X83290500Y-118264500D01*
X83310185Y-118197461D01*
X83362989Y-118151706D01*
X83414500Y-118140500D01*
X90270398Y-118140500D01*
X90337437Y-118160185D01*
X90380883Y-118208205D01*
X90387715Y-118221614D01*
X90508028Y-118387213D01*
X90652786Y-118531971D01*
X90789093Y-118631002D01*
X90818390Y-118652287D01*
X90909840Y-118698883D01*
X90911080Y-118699515D01*
X90961876Y-118747490D01*
X90978671Y-118815311D01*
X90956134Y-118881446D01*
X90911080Y-118920485D01*
X90818386Y-118967715D01*
X90652786Y-119088028D01*
X90508028Y-119232786D01*
X90387715Y-119398385D01*
X90380883Y-119411795D01*
X90332909Y-119462591D01*
X90270398Y-119479500D01*
X83589057Y-119479500D01*
X83430942Y-119479500D01*
X83278215Y-119520423D01*
X83278214Y-119520423D01*
X83278212Y-119520424D01*
X83278209Y-119520425D01*
X83228096Y-119549359D01*
X83228095Y-119549360D01*
X83184689Y-119574420D01*
X83141285Y-119599479D01*
X83141282Y-119599481D01*
X83029478Y-119711286D01*
X82450830Y-120289933D01*
X82389507Y-120323418D01*
X82343751Y-120324725D01*
X82184486Y-120299500D01*
X82184481Y-120299500D01*
X81995519Y-120299500D01*
X81995514Y-120299500D01*
X81808881Y-120329059D01*
X81629163Y-120387454D01*
X81460800Y-120473240D01*
X81392984Y-120522512D01*
X81307927Y-120584310D01*
X81307925Y-120584312D01*
X81307924Y-120584312D01*
X81174312Y-120717924D01*
X81174312Y-120717925D01*
X81174310Y-120717927D01*
X81126610Y-120783579D01*
X81063240Y-120870800D01*
X80977454Y-121039163D01*
X80919059Y-121218881D01*
X80889500Y-121405513D01*
X80889500Y-121594486D01*
X80919059Y-121781118D01*
X80977454Y-121960836D01*
X81046117Y-122095593D01*
X81063240Y-122129199D01*
X81174310Y-122282073D01*
X81307927Y-122415690D01*
X81460801Y-122526760D01*
X81481556Y-122537335D01*
X81629163Y-122612545D01*
X81629165Y-122612545D01*
X81629168Y-122612547D01*
X81684806Y-122630625D01*
X81808881Y-122670940D01*
X81995514Y-122700500D01*
X81995519Y-122700500D01*
X82184486Y-122700500D01*
X82371118Y-122670940D01*
X82372623Y-122670451D01*
X82550832Y-122612547D01*
X82719199Y-122526760D01*
X82872073Y-122415690D01*
X83005690Y-122282073D01*
X83116760Y-122129199D01*
X83202547Y-121960832D01*
X83260940Y-121781118D01*
X83261106Y-121780070D01*
X83290500Y-121594486D01*
X83290500Y-121405513D01*
X83265274Y-121246246D01*
X83274228Y-121176953D01*
X83300063Y-121139170D01*
X83722416Y-120716819D01*
X83783739Y-120683334D01*
X83810097Y-120680500D01*
X90270398Y-120680500D01*
X90337437Y-120700185D01*
X90380883Y-120748205D01*
X90387715Y-120761614D01*
X90508028Y-120927213D01*
X90652786Y-121071971D01*
X90793016Y-121173852D01*
X90818390Y-121192287D01*
X90926848Y-121247549D01*
X91000776Y-121285218D01*
X91000778Y-121285218D01*
X91000781Y-121285220D01*
X91105137Y-121319127D01*
X91195465Y-121348477D01*
X91296557Y-121364488D01*
X91397648Y-121380500D01*
X91397649Y-121380500D01*
X91590901Y-121380500D01*
X91657940Y-121400185D01*
X91703695Y-121452989D01*
X91713639Y-121522147D01*
X91684614Y-121585703D01*
X91678582Y-121592181D01*
X81906584Y-131364181D01*
X81845261Y-131397666D01*
X81818903Y-131400500D01*
X68296710Y-131400500D01*
X68229671Y-131380815D01*
X68183916Y-131328011D01*
X68173972Y-131258853D01*
X68174237Y-131257101D01*
X68200000Y-131094446D01*
X68200000Y-130905552D01*
X68170451Y-130718997D01*
X68112085Y-130539362D01*
X68026329Y-130371059D01*
X68007883Y-130345670D01*
X68007882Y-130345669D01*
X67350000Y-131003551D01*
X67350000Y-130953922D01*
X67326148Y-130864905D01*
X67280070Y-130785095D01*
X67214905Y-130719930D01*
X67135095Y-130673852D01*
X67046078Y-130650000D01*
X66953922Y-130650000D01*
X66864905Y-130673852D01*
X66785095Y-130719930D01*
X66719930Y-130785095D01*
X66673852Y-130864905D01*
X66650000Y-130953922D01*
X66650000Y-131003553D01*
X65992116Y-130345669D01*
X65992116Y-130345670D01*
X65973669Y-130371060D01*
X65887914Y-130539362D01*
X65829548Y-130718997D01*
X65800000Y-130905552D01*
X65800000Y-131094446D01*
X65825763Y-131257101D01*
X65816809Y-131326395D01*
X65771813Y-131379847D01*
X65705061Y-131400487D01*
X65703290Y-131400500D01*
X63217217Y-131400500D01*
X63150178Y-131380815D01*
X63104423Y-131328011D01*
X63094479Y-131258853D01*
X63094744Y-131257102D01*
X63120500Y-131094486D01*
X63120500Y-130905513D01*
X63090940Y-130718881D01*
X63053558Y-130603834D01*
X63032547Y-130539168D01*
X63032545Y-130539165D01*
X63032545Y-130539163D01*
X62949487Y-130376154D01*
X62946760Y-130370801D01*
X62835690Y-130217927D01*
X62702073Y-130084310D01*
X62575179Y-129992116D01*
X66345669Y-129992116D01*
X67000000Y-130646446D01*
X67000001Y-130646446D01*
X67654328Y-129992116D01*
X67628933Y-129973666D01*
X67460637Y-129887914D01*
X67281002Y-129829548D01*
X67094447Y-129800000D01*
X66905553Y-129800000D01*
X66718997Y-129829548D01*
X66539362Y-129887914D01*
X66371060Y-129973669D01*
X66345670Y-129992116D01*
X66345669Y-129992116D01*
X62575179Y-129992116D01*
X62569338Y-129987872D01*
X62567111Y-129986093D01*
X62548623Y-129959710D01*
X62528948Y-129934194D01*
X62528290Y-129930693D01*
X62527015Y-129928873D01*
X62526762Y-129922553D01*
X62520500Y-129889207D01*
X62520500Y-129174468D01*
X62540185Y-129107429D01*
X62556814Y-129086792D01*
X63249893Y-128393713D01*
X79649500Y-128393713D01*
X79649500Y-128606287D01*
X79655175Y-128642116D01*
X79682618Y-128815388D01*
X79682754Y-128816243D01*
X79740022Y-128992496D01*
X79748444Y-129018414D01*
X79844951Y-129207820D01*
X79969890Y-129379786D01*
X80120213Y-129530109D01*
X80292179Y-129655048D01*
X80292181Y-129655049D01*
X80292184Y-129655051D01*
X80481588Y-129751557D01*
X80683757Y-129817246D01*
X80893713Y-129850500D01*
X80893714Y-129850500D01*
X81106286Y-129850500D01*
X81106287Y-129850500D01*
X81316243Y-129817246D01*
X81518412Y-129751557D01*
X81707816Y-129655051D01*
X81785767Y-129598417D01*
X81879786Y-129530109D01*
X81879788Y-129530106D01*
X81879792Y-129530104D01*
X82030104Y-129379792D01*
X82030106Y-129379788D01*
X82030109Y-129379786D01*
X82155048Y-129207820D01*
X82155047Y-129207820D01*
X82155051Y-129207816D01*
X82251557Y-129018412D01*
X82317246Y-128816243D01*
X82350500Y-128606287D01*
X82350500Y-128393713D01*
X82317246Y-128183757D01*
X82251557Y-127981588D01*
X82155051Y-127792184D01*
X82155049Y-127792181D01*
X82155048Y-127792179D01*
X82030109Y-127620213D01*
X81879786Y-127469890D01*
X81707820Y-127344951D01*
X81518414Y-127248444D01*
X81518413Y-127248443D01*
X81518412Y-127248443D01*
X81316243Y-127182754D01*
X81316241Y-127182753D01*
X81316240Y-127182753D01*
X81154957Y-127157208D01*
X81106287Y-127149500D01*
X80893713Y-127149500D01*
X80845042Y-127157208D01*
X80683760Y-127182753D01*
X80481585Y-127248444D01*
X80292179Y-127344951D01*
X80120213Y-127469890D01*
X79969890Y-127620213D01*
X79844951Y-127792179D01*
X79748444Y-127981585D01*
X79682753Y-128183760D01*
X79657830Y-128341117D01*
X79649500Y-128393713D01*
X63249893Y-128393713D01*
X69135724Y-122507882D01*
X76355669Y-122507882D01*
X76355670Y-122507883D01*
X76381059Y-122526329D01*
X76549362Y-122612085D01*
X76728997Y-122670451D01*
X76915553Y-122700000D01*
X77104447Y-122700000D01*
X77291002Y-122670451D01*
X77470637Y-122612085D01*
X77638937Y-122526331D01*
X77664328Y-122507883D01*
X77664328Y-122507882D01*
X77010001Y-121853554D01*
X77010000Y-121853554D01*
X76355669Y-122507882D01*
X69135724Y-122507882D01*
X70238054Y-121405552D01*
X75810000Y-121405552D01*
X75810000Y-121594447D01*
X75839548Y-121781002D01*
X75897914Y-121960637D01*
X75983666Y-122128933D01*
X76002116Y-122154328D01*
X76656446Y-121500000D01*
X76656446Y-121499999D01*
X76610369Y-121453922D01*
X76660000Y-121453922D01*
X76660000Y-121546078D01*
X76683852Y-121635095D01*
X76729930Y-121714905D01*
X76795095Y-121780070D01*
X76874905Y-121826148D01*
X76963922Y-121850000D01*
X77056078Y-121850000D01*
X77145095Y-121826148D01*
X77224905Y-121780070D01*
X77290070Y-121714905D01*
X77336148Y-121635095D01*
X77360000Y-121546078D01*
X77360000Y-121499999D01*
X77363554Y-121499999D01*
X77363554Y-121500000D01*
X78017882Y-122154328D01*
X78017883Y-122154328D01*
X78036331Y-122128937D01*
X78122085Y-121960637D01*
X78180451Y-121781002D01*
X78210000Y-121594447D01*
X78210000Y-121405552D01*
X78180451Y-121218997D01*
X78122085Y-121039362D01*
X78036329Y-120871059D01*
X78017883Y-120845670D01*
X78017882Y-120845669D01*
X77363554Y-121499999D01*
X77360000Y-121499999D01*
X77360000Y-121453922D01*
X77336148Y-121364905D01*
X77290070Y-121285095D01*
X77224905Y-121219930D01*
X77145095Y-121173852D01*
X77056078Y-121150000D01*
X76963922Y-121150000D01*
X76874905Y-121173852D01*
X76795095Y-121219930D01*
X76729930Y-121285095D01*
X76683852Y-121364905D01*
X76660000Y-121453922D01*
X76610369Y-121453922D01*
X76002116Y-120845669D01*
X76002116Y-120845670D01*
X75983669Y-120871060D01*
X75897914Y-121039362D01*
X75839548Y-121218997D01*
X75810000Y-121405552D01*
X70238054Y-121405552D01*
X71151490Y-120492116D01*
X76355669Y-120492116D01*
X77010000Y-121146446D01*
X77010001Y-121146446D01*
X77664328Y-120492116D01*
X77638933Y-120473666D01*
X77470637Y-120387914D01*
X77291002Y-120329548D01*
X77104447Y-120300000D01*
X76915553Y-120300000D01*
X76728997Y-120329548D01*
X76549362Y-120387914D01*
X76381060Y-120473669D01*
X76355670Y-120492116D01*
X76355669Y-120492116D01*
X71151490Y-120492116D01*
X72285724Y-119357882D01*
X76355669Y-119357882D01*
X76355670Y-119357883D01*
X76381059Y-119376329D01*
X76549362Y-119462085D01*
X76728997Y-119520451D01*
X76915553Y-119550000D01*
X77104447Y-119550000D01*
X77291002Y-119520451D01*
X77470637Y-119462085D01*
X77638937Y-119376331D01*
X77664328Y-119357883D01*
X77664328Y-119357882D01*
X77010001Y-118703554D01*
X77010000Y-118703554D01*
X76355669Y-119357882D01*
X72285724Y-119357882D01*
X73388054Y-118255552D01*
X75810000Y-118255552D01*
X75810000Y-118444447D01*
X75839548Y-118631002D01*
X75897914Y-118810637D01*
X75983666Y-118978933D01*
X76002116Y-119004328D01*
X76656446Y-118350000D01*
X76656446Y-118349999D01*
X76610369Y-118303922D01*
X76660000Y-118303922D01*
X76660000Y-118396078D01*
X76683852Y-118485095D01*
X76729930Y-118564905D01*
X76795095Y-118630070D01*
X76874905Y-118676148D01*
X76963922Y-118700000D01*
X77056078Y-118700000D01*
X77145095Y-118676148D01*
X77224905Y-118630070D01*
X77290070Y-118564905D01*
X77336148Y-118485095D01*
X77360000Y-118396078D01*
X77360000Y-118349999D01*
X77363554Y-118349999D01*
X77363554Y-118350000D01*
X78017882Y-119004328D01*
X78017883Y-119004328D01*
X78036331Y-118978937D01*
X78122085Y-118810637D01*
X78180451Y-118631002D01*
X78210000Y-118444447D01*
X78210000Y-118255552D01*
X78180451Y-118068997D01*
X78122085Y-117889362D01*
X78036329Y-117721059D01*
X78017883Y-117695670D01*
X78017882Y-117695669D01*
X77363554Y-118349999D01*
X77360000Y-118349999D01*
X77360000Y-118303922D01*
X77336148Y-118214905D01*
X77290070Y-118135095D01*
X77224905Y-118069930D01*
X77145095Y-118023852D01*
X77056078Y-118000000D01*
X76963922Y-118000000D01*
X76874905Y-118023852D01*
X76795095Y-118069930D01*
X76729930Y-118135095D01*
X76683852Y-118214905D01*
X76660000Y-118303922D01*
X76610369Y-118303922D01*
X76002116Y-117695669D01*
X76002116Y-117695670D01*
X75983669Y-117721060D01*
X75897914Y-117889362D01*
X75839548Y-118068997D01*
X75810000Y-118255552D01*
X73388054Y-118255552D01*
X74301490Y-117342116D01*
X76355669Y-117342116D01*
X77010000Y-117996446D01*
X77010001Y-117996446D01*
X77664328Y-117342116D01*
X77638933Y-117323666D01*
X77470637Y-117237914D01*
X77291002Y-117179548D01*
X77104447Y-117150000D01*
X76915553Y-117150000D01*
X76728997Y-117179548D01*
X76549362Y-117237914D01*
X76381060Y-117323669D01*
X76355670Y-117342116D01*
X76355669Y-117342116D01*
X74301490Y-117342116D01*
X75435724Y-116207882D01*
X76355669Y-116207882D01*
X76355670Y-116207883D01*
X76381059Y-116226329D01*
X76549362Y-116312085D01*
X76728997Y-116370451D01*
X76915553Y-116400000D01*
X77104447Y-116400000D01*
X77291002Y-116370451D01*
X77470637Y-116312085D01*
X77638937Y-116226331D01*
X77664328Y-116207883D01*
X77664328Y-116207882D01*
X77010001Y-115553554D01*
X77010000Y-115553554D01*
X76355669Y-116207882D01*
X75435724Y-116207882D01*
X75809894Y-115833712D01*
X75871213Y-115800230D01*
X75940905Y-115805214D01*
X75996838Y-115847086D01*
X75997890Y-115848511D01*
X76002116Y-115854328D01*
X76660000Y-115196445D01*
X76660000Y-115246078D01*
X76683852Y-115335095D01*
X76729930Y-115414905D01*
X76795095Y-115480070D01*
X76874905Y-115526148D01*
X76963922Y-115550000D01*
X77056078Y-115550000D01*
X77145095Y-115526148D01*
X77224905Y-115480070D01*
X77290070Y-115414905D01*
X77336148Y-115335095D01*
X77360000Y-115246078D01*
X77360000Y-115199999D01*
X77363554Y-115199999D01*
X77363554Y-115200000D01*
X78017882Y-115854328D01*
X78017883Y-115854328D01*
X78036331Y-115828937D01*
X78122085Y-115660637D01*
X78180451Y-115481002D01*
X78210000Y-115294447D01*
X78210000Y-115105552D01*
X78180451Y-114918997D01*
X78122085Y-114739362D01*
X78036329Y-114571059D01*
X78017883Y-114545670D01*
X78017882Y-114545669D01*
X77363554Y-115199999D01*
X77360000Y-115199999D01*
X77360000Y-115153922D01*
X77336148Y-115064905D01*
X77290070Y-114985095D01*
X77224905Y-114919930D01*
X77145095Y-114873852D01*
X77056078Y-114850000D01*
X77006446Y-114850000D01*
X77664328Y-114192116D01*
X77658511Y-114187890D01*
X77615845Y-114132560D01*
X77609866Y-114062946D01*
X77642471Y-114001151D01*
X77643568Y-114000038D01*
X80006788Y-111636819D01*
X80068111Y-111603334D01*
X80094469Y-111600500D01*
X80803099Y-111600500D01*
X80870138Y-111620185D01*
G37*
%TD.AperFunction*%
%TA.AperFunction,Conductor*%
G36*
X45816844Y-128136599D02*
G01*
X45855886Y-128181656D01*
X45860351Y-128190420D01*
X45985290Y-128362386D01*
X46135613Y-128512709D01*
X46307582Y-128637650D01*
X46316346Y-128642116D01*
X46367142Y-128690091D01*
X46383936Y-128757912D01*
X46361398Y-128824047D01*
X46316346Y-128863084D01*
X46307582Y-128867549D01*
X46135613Y-128992490D01*
X45985290Y-129142813D01*
X45860349Y-129314782D01*
X45855602Y-129324099D01*
X45807627Y-129374893D01*
X45739805Y-129391687D01*
X45673671Y-129369148D01*
X45634634Y-129324095D01*
X45630026Y-129315052D01*
X45590670Y-129260882D01*
X45590669Y-129260882D01*
X44958362Y-129893190D01*
X44941325Y-129829607D01*
X44875499Y-129715593D01*
X44782407Y-129622501D01*
X44668393Y-129556675D01*
X44604809Y-129539637D01*
X45237116Y-128907328D01*
X45182947Y-128867973D01*
X45182947Y-128867972D01*
X45173900Y-128863363D01*
X45123106Y-128815388D01*
X45106312Y-128747566D01*
X45128851Y-128681432D01*
X45173908Y-128642393D01*
X45183216Y-128637651D01*
X45282905Y-128565223D01*
X45355186Y-128512709D01*
X45355188Y-128512706D01*
X45355192Y-128512704D01*
X45505504Y-128362392D01*
X45505506Y-128362388D01*
X45505509Y-128362386D01*
X45630448Y-128190420D01*
X45630447Y-128190420D01*
X45630451Y-128190416D01*
X45634914Y-128181654D01*
X45682888Y-128130859D01*
X45750708Y-128114063D01*
X45816844Y-128136599D01*
G37*
%TD.AperFunction*%
%TA.AperFunction,Conductor*%
G36*
X48571103Y-114647984D02*
G01*
X48577581Y-114654016D01*
X50143181Y-116219616D01*
X50176666Y-116280939D01*
X50179500Y-116307297D01*
X50179500Y-120219325D01*
X50159815Y-120286364D01*
X50107011Y-120332119D01*
X50037853Y-120342063D01*
X49990959Y-120324095D01*
X49990754Y-120324479D01*
X49987697Y-120322845D01*
X49986611Y-120322429D01*
X49985381Y-120321607D01*
X49985372Y-120321602D01*
X49839701Y-120261264D01*
X49839689Y-120261261D01*
X49685045Y-120230500D01*
X49685042Y-120230500D01*
X49527358Y-120230500D01*
X49527355Y-120230500D01*
X49372711Y-120261260D01*
X49372701Y-120261263D01*
X49293521Y-120294061D01*
X49246069Y-120303500D01*
X48458087Y-120303500D01*
X48391048Y-120283815D01*
X48345293Y-120231011D01*
X48335349Y-120161853D01*
X48335614Y-120160102D01*
X48336415Y-120155048D01*
X48365900Y-119968887D01*
X48365900Y-119756313D01*
X48332646Y-119546357D01*
X48266957Y-119344188D01*
X48170451Y-119154784D01*
X48170449Y-119154781D01*
X48170448Y-119154779D01*
X48045509Y-118982813D01*
X47895186Y-118832490D01*
X47723217Y-118707549D01*
X47713904Y-118702804D01*
X47663107Y-118654830D01*
X47646312Y-118587009D01*
X47668849Y-118520874D01*
X47713907Y-118481832D01*
X47722955Y-118477222D01*
X47777116Y-118437870D01*
X47777117Y-118437870D01*
X47144808Y-117805562D01*
X47208393Y-117788525D01*
X47322407Y-117722699D01*
X47415499Y-117629607D01*
X47481325Y-117515593D01*
X47498362Y-117452008D01*
X48130670Y-118084317D01*
X48130670Y-118084316D01*
X48170022Y-118030154D01*
X48266495Y-117840817D01*
X48332157Y-117638730D01*
X48332157Y-117638727D01*
X48365400Y-117428846D01*
X48365400Y-117216353D01*
X48332157Y-117006472D01*
X48332157Y-117006469D01*
X48266495Y-116804382D01*
X48170024Y-116615049D01*
X48130670Y-116560882D01*
X48130669Y-116560882D01*
X47498362Y-117193190D01*
X47481325Y-117129607D01*
X47415499Y-117015593D01*
X47322407Y-116922501D01*
X47208393Y-116856675D01*
X47144809Y-116839637D01*
X47777116Y-116207328D01*
X47722947Y-116167973D01*
X47722947Y-116167972D01*
X47713900Y-116163363D01*
X47663106Y-116115388D01*
X47646312Y-116047566D01*
X47668851Y-115981432D01*
X47713908Y-115942393D01*
X47723216Y-115937651D01*
X47812391Y-115872862D01*
X47895186Y-115812709D01*
X47895188Y-115812706D01*
X47895192Y-115812704D01*
X48045504Y-115662392D01*
X48045506Y-115662388D01*
X48045509Y-115662386D01*
X48170448Y-115490420D01*
X48170447Y-115490420D01*
X48170451Y-115490416D01*
X48266957Y-115301012D01*
X48332646Y-115098843D01*
X48365900Y-114888887D01*
X48365900Y-114741697D01*
X48385585Y-114674658D01*
X48438389Y-114628903D01*
X48507547Y-114618959D01*
X48571103Y-114647984D01*
G37*
%TD.AperFunction*%
%TA.AperFunction,Conductor*%
G36*
X45816844Y-115436599D02*
G01*
X45855886Y-115481656D01*
X45860351Y-115490420D01*
X45985290Y-115662386D01*
X46135613Y-115812709D01*
X46307579Y-115937648D01*
X46307581Y-115937649D01*
X46307584Y-115937651D01*
X46316893Y-115942394D01*
X46367690Y-115990366D01*
X46384487Y-116058187D01*
X46361952Y-116124322D01*
X46316905Y-116163360D01*
X46307846Y-116167976D01*
X46307840Y-116167980D01*
X46253682Y-116207327D01*
X46253682Y-116207328D01*
X46885991Y-116839637D01*
X46822407Y-116856675D01*
X46708393Y-116922501D01*
X46615301Y-117015593D01*
X46549475Y-117129607D01*
X46532437Y-117193191D01*
X46263219Y-116923973D01*
X46229734Y-116862650D01*
X46226900Y-116836292D01*
X46226900Y-116766785D01*
X46226900Y-116766783D01*
X46185977Y-116614056D01*
X46145365Y-116543713D01*
X46106924Y-116477130D01*
X46106921Y-116477126D01*
X46106920Y-116477124D01*
X45995116Y-116365320D01*
X45995115Y-116365319D01*
X45990785Y-116360989D01*
X45990774Y-116360979D01*
X45486526Y-115856731D01*
X45453041Y-115795408D01*
X45458025Y-115725716D01*
X45486526Y-115681369D01*
X45505504Y-115662392D01*
X45505506Y-115662388D01*
X45505509Y-115662386D01*
X45630448Y-115490420D01*
X45630447Y-115490420D01*
X45630451Y-115490416D01*
X45634914Y-115481654D01*
X45682888Y-115430859D01*
X45750708Y-115414063D01*
X45816844Y-115436599D01*
G37*
%TD.AperFunction*%
%TA.AperFunction,Conductor*%
G36*
X45590670Y-113004317D02*
G01*
X45590670Y-113004316D01*
X45630022Y-112950155D01*
X45634632Y-112941107D01*
X45682605Y-112890309D01*
X45750425Y-112873512D01*
X45816561Y-112896047D01*
X45855604Y-112941104D01*
X45860349Y-112950417D01*
X45985290Y-113122386D01*
X46135613Y-113272709D01*
X46307582Y-113397650D01*
X46316346Y-113402116D01*
X46367142Y-113450091D01*
X46383936Y-113517912D01*
X46361398Y-113584047D01*
X46316346Y-113623084D01*
X46307582Y-113627549D01*
X46135613Y-113752490D01*
X45985290Y-113902813D01*
X45860349Y-114074782D01*
X45855884Y-114083546D01*
X45807909Y-114134342D01*
X45740088Y-114151136D01*
X45673953Y-114128598D01*
X45634916Y-114083546D01*
X45630450Y-114074782D01*
X45505509Y-113902813D01*
X45355186Y-113752490D01*
X45183217Y-113627549D01*
X45173904Y-113622804D01*
X45123107Y-113574830D01*
X45106312Y-113507009D01*
X45128849Y-113440874D01*
X45173907Y-113401832D01*
X45182955Y-113397222D01*
X45237116Y-113357870D01*
X45237117Y-113357870D01*
X44604809Y-112725562D01*
X44668393Y-112708525D01*
X44782407Y-112642699D01*
X44875499Y-112549607D01*
X44941325Y-112435593D01*
X44958362Y-112372008D01*
X45590670Y-113004317D01*
G37*
%TD.AperFunction*%
%TA.AperFunction,Conductor*%
G36*
X45505181Y-110685224D02*
G01*
X45549531Y-110713726D01*
X46004273Y-111168468D01*
X46037758Y-111229791D01*
X46032774Y-111299483D01*
X46004275Y-111343828D01*
X45985290Y-111362813D01*
X45860349Y-111534782D01*
X45855602Y-111544099D01*
X45807627Y-111594893D01*
X45739805Y-111611687D01*
X45673671Y-111589148D01*
X45634634Y-111544095D01*
X45630026Y-111535052D01*
X45590670Y-111480882D01*
X45590669Y-111480882D01*
X44958362Y-112113190D01*
X44941325Y-112049607D01*
X44875499Y-111935593D01*
X44782407Y-111842501D01*
X44668393Y-111776675D01*
X44604807Y-111759636D01*
X45237116Y-111127328D01*
X45182947Y-111087973D01*
X45182947Y-111087972D01*
X45173900Y-111083363D01*
X45123106Y-111035388D01*
X45106312Y-110967566D01*
X45128851Y-110901432D01*
X45173908Y-110862393D01*
X45183216Y-110857651D01*
X45307686Y-110767219D01*
X45355186Y-110732709D01*
X45355188Y-110732706D01*
X45355192Y-110732704D01*
X45374168Y-110713727D01*
X45435489Y-110680241D01*
X45505181Y-110685224D01*
G37*
%TD.AperFunction*%
%TA.AperFunction,Conductor*%
G36*
X48621053Y-102702785D02*
G01*
X48666808Y-102755589D01*
X48676752Y-102824747D01*
X48675631Y-102831292D01*
X48653300Y-102943555D01*
X48653300Y-103101246D01*
X48684061Y-103255889D01*
X48684064Y-103255901D01*
X48744402Y-103401572D01*
X48744409Y-103401585D01*
X48832402Y-103533274D01*
X48853280Y-103599951D01*
X48853300Y-103602165D01*
X48853300Y-105374130D01*
X48853299Y-105374148D01*
X48853299Y-105539854D01*
X48853298Y-105539854D01*
X48894224Y-105692589D01*
X48894225Y-105692590D01*
X48921886Y-105740499D01*
X48921887Y-105740500D01*
X48968291Y-105820874D01*
X48973279Y-105829514D01*
X48973281Y-105829517D01*
X49092149Y-105948385D01*
X49092155Y-105948390D01*
X49537718Y-106393953D01*
X49571203Y-106455276D01*
X49571654Y-106457442D01*
X49602554Y-106612784D01*
X49602557Y-106612794D01*
X49662895Y-106758465D01*
X49662902Y-106758478D01*
X49750503Y-106889581D01*
X49750506Y-106889585D01*
X49862000Y-107001079D01*
X49862004Y-107001082D01*
X49993107Y-107088683D01*
X49993120Y-107088690D01*
X50103461Y-107134394D01*
X50138796Y-107149030D01*
X50275906Y-107176303D01*
X50293446Y-107179792D01*
X50293449Y-107179793D01*
X50293451Y-107179793D01*
X50451137Y-107179793D01*
X50451138Y-107179792D01*
X50605790Y-107149030D01*
X50751472Y-107088687D01*
X50882582Y-107001082D01*
X50994082Y-106889582D01*
X51081687Y-106758472D01*
X51142030Y-106612790D01*
X51172793Y-106458135D01*
X51172793Y-106300451D01*
X51172793Y-106300448D01*
X51172792Y-106300446D01*
X51165709Y-106264837D01*
X51142030Y-106145796D01*
X51125119Y-106104969D01*
X51081690Y-106000120D01*
X51081683Y-106000107D01*
X50994082Y-105869004D01*
X50994079Y-105869000D01*
X50882585Y-105757506D01*
X50882581Y-105757503D01*
X50751478Y-105669902D01*
X50751465Y-105669895D01*
X50605794Y-105609557D01*
X50605784Y-105609554D01*
X50450442Y-105578654D01*
X50388531Y-105546269D01*
X50386953Y-105544718D01*
X50090619Y-105248384D01*
X50057134Y-105187061D01*
X50054300Y-105160703D01*
X50054300Y-103602165D01*
X50073985Y-103535126D01*
X50075198Y-103533274D01*
X50163190Y-103401585D01*
X50163190Y-103401584D01*
X50163194Y-103401579D01*
X50223537Y-103255897D01*
X50254300Y-103101242D01*
X50254300Y-102943558D01*
X50254300Y-102943555D01*
X50231969Y-102831292D01*
X50238196Y-102761700D01*
X50281059Y-102706523D01*
X50346949Y-102683278D01*
X50353586Y-102683100D01*
X58212543Y-102683100D01*
X58279582Y-102702785D01*
X58325337Y-102755589D01*
X58335281Y-102824747D01*
X58306256Y-102888303D01*
X58300224Y-102894781D01*
X56780263Y-104414740D01*
X56718940Y-104448225D01*
X56649248Y-104443241D01*
X56593315Y-104401369D01*
X56589480Y-104395949D01*
X56501792Y-104264715D01*
X56501786Y-104264707D01*
X56390292Y-104153213D01*
X56390288Y-104153210D01*
X56259185Y-104065609D01*
X56259172Y-104065602D01*
X56113501Y-104005264D01*
X56113489Y-104005261D01*
X55958845Y-103974500D01*
X55958842Y-103974500D01*
X55801158Y-103974500D01*
X55801155Y-103974500D01*
X55646510Y-104005261D01*
X55646498Y-104005264D01*
X55500827Y-104065602D01*
X55500814Y-104065609D01*
X55369711Y-104153210D01*
X55369707Y-104153213D01*
X55258213Y-104264707D01*
X55258210Y-104264711D01*
X55170609Y-104395814D01*
X55170602Y-104395827D01*
X55110264Y-104541498D01*
X55110261Y-104541508D01*
X55091976Y-104633433D01*
X55059591Y-104695344D01*
X55058040Y-104696922D01*
X51679784Y-108075181D01*
X51618461Y-108108666D01*
X51592103Y-108111500D01*
X49280531Y-108111500D01*
X49233079Y-108102061D01*
X49153898Y-108069263D01*
X49153888Y-108069260D01*
X48999245Y-108038500D01*
X48999242Y-108038500D01*
X48841558Y-108038500D01*
X48841555Y-108038500D01*
X48686910Y-108069261D01*
X48686898Y-108069264D01*
X48541227Y-108129602D01*
X48541214Y-108129609D01*
X48410111Y-108217210D01*
X48410107Y-108217213D01*
X48298613Y-108328707D01*
X48298610Y-108328711D01*
X48211009Y-108459814D01*
X48211002Y-108459827D01*
X48150664Y-108605498D01*
X48150662Y-108605505D01*
X48142420Y-108646939D01*
X48110034Y-108708849D01*
X48049317Y-108743422D01*
X47979548Y-108739681D01*
X47933122Y-108710426D01*
X47895186Y-108672490D01*
X47723220Y-108547551D01*
X47722515Y-108547191D01*
X47714454Y-108543085D01*
X47663659Y-108495112D01*
X47646863Y-108427292D01*
X47669399Y-108361156D01*
X47714454Y-108322115D01*
X47723216Y-108317651D01*
X47787700Y-108270801D01*
X47895186Y-108192709D01*
X47895188Y-108192706D01*
X47895192Y-108192704D01*
X48045504Y-108042392D01*
X48045506Y-108042388D01*
X48045509Y-108042386D01*
X48170448Y-107870420D01*
X48170447Y-107870420D01*
X48170451Y-107870416D01*
X48266957Y-107681012D01*
X48332646Y-107478843D01*
X48365900Y-107268887D01*
X48365900Y-107056313D01*
X48332646Y-106846357D01*
X48266957Y-106644188D01*
X48170451Y-106454784D01*
X48170449Y-106454781D01*
X48170448Y-106454779D01*
X48045509Y-106282813D01*
X47895186Y-106132490D01*
X47723217Y-106007549D01*
X47713904Y-106002804D01*
X47663107Y-105954830D01*
X47646312Y-105887009D01*
X47668849Y-105820874D01*
X47713907Y-105781832D01*
X47722955Y-105777222D01*
X47777116Y-105737870D01*
X47777117Y-105737870D01*
X47144808Y-105105562D01*
X47208393Y-105088525D01*
X47322407Y-105022699D01*
X47415499Y-104929607D01*
X47481325Y-104815593D01*
X47498362Y-104752008D01*
X48130670Y-105384317D01*
X48130670Y-105384316D01*
X48170022Y-105330154D01*
X48266495Y-105140817D01*
X48332157Y-104938730D01*
X48332157Y-104938727D01*
X48365400Y-104728846D01*
X48365400Y-104516353D01*
X48332157Y-104306472D01*
X48332157Y-104306469D01*
X48266495Y-104104382D01*
X48170024Y-103915049D01*
X48130670Y-103860882D01*
X48130669Y-103860882D01*
X47498362Y-104493190D01*
X47481325Y-104429607D01*
X47415499Y-104315593D01*
X47322407Y-104222501D01*
X47208393Y-104156675D01*
X47144809Y-104139637D01*
X47777116Y-103507328D01*
X47722947Y-103467973D01*
X47722947Y-103467972D01*
X47713900Y-103463363D01*
X47663106Y-103415388D01*
X47646312Y-103347566D01*
X47668851Y-103281432D01*
X47713908Y-103242393D01*
X47723216Y-103237651D01*
X47802407Y-103180115D01*
X47895186Y-103112709D01*
X47895188Y-103112706D01*
X47895192Y-103112704D01*
X48045504Y-102962392D01*
X48045506Y-102962388D01*
X48045509Y-102962386D01*
X48145508Y-102824747D01*
X48170451Y-102790416D01*
X48171222Y-102788903D01*
X48190635Y-102750805D01*
X48238609Y-102700009D01*
X48301119Y-102683100D01*
X48554014Y-102683100D01*
X48621053Y-102702785D01*
G37*
%TD.AperFunction*%
%TA.AperFunction,Conductor*%
G36*
X100606273Y-88512564D02*
G01*
X100654969Y-88562669D01*
X100669300Y-88620537D01*
X100669300Y-108425653D01*
X100649615Y-108492692D01*
X100596811Y-108538447D01*
X100527653Y-108548391D01*
X100464097Y-108519366D01*
X100457619Y-108513334D01*
X100211549Y-108267264D01*
X100178064Y-108205941D01*
X100183048Y-108136249D01*
X100198913Y-108106697D01*
X100231857Y-108061353D01*
X100324755Y-107879031D01*
X100387990Y-107684417D01*
X100420000Y-107482317D01*
X100420000Y-107277682D01*
X100387990Y-107075582D01*
X100324755Y-106880968D01*
X100231859Y-106698650D01*
X100199474Y-106654077D01*
X100199474Y-106654076D01*
X99520000Y-107333551D01*
X99520000Y-107327339D01*
X99492741Y-107225606D01*
X99440080Y-107134394D01*
X99365606Y-107059920D01*
X99274394Y-107007259D01*
X99172661Y-106980000D01*
X99166446Y-106980000D01*
X99845922Y-106300524D01*
X99845921Y-106300523D01*
X99801359Y-106268147D01*
X99801350Y-106268141D01*
X99708369Y-106220765D01*
X99657573Y-106172790D01*
X99640778Y-106104969D01*
X99663315Y-106038835D01*
X99708370Y-105999795D01*
X99708920Y-105999515D01*
X99801610Y-105952287D01*
X99899567Y-105881118D01*
X99967213Y-105831971D01*
X99967215Y-105831968D01*
X99967219Y-105831966D01*
X100111966Y-105687219D01*
X100111968Y-105687215D01*
X100111971Y-105687213D01*
X100175334Y-105600000D01*
X100232287Y-105521610D01*
X100325220Y-105339219D01*
X100388477Y-105144534D01*
X100420500Y-104942352D01*
X100420500Y-104737648D01*
X100412052Y-104684310D01*
X100388477Y-104535465D01*
X100343145Y-104395949D01*
X100325220Y-104340781D01*
X100325218Y-104340778D01*
X100325218Y-104340776D01*
X100264953Y-104222501D01*
X100232287Y-104158390D01*
X100206284Y-104122600D01*
X100111971Y-103992786D01*
X99967213Y-103848028D01*
X99801610Y-103727712D01*
X99788200Y-103720879D01*
X99777138Y-103710431D01*
X99763297Y-103704110D01*
X99752255Y-103686928D01*
X99737406Y-103672903D01*
X99733165Y-103657223D01*
X99725523Y-103645332D01*
X99720500Y-103610397D01*
X99720500Y-103529601D01*
X99740185Y-103462562D01*
X99788206Y-103419116D01*
X99801610Y-103412287D01*
X99967219Y-103291966D01*
X100111966Y-103147219D01*
X100111968Y-103147215D01*
X100111971Y-103147213D01*
X100164732Y-103074590D01*
X100232287Y-102981610D01*
X100325220Y-102799219D01*
X100388477Y-102604534D01*
X100420500Y-102402352D01*
X100420500Y-102197648D01*
X100390922Y-102010903D01*
X100388477Y-101995465D01*
X100338220Y-101840791D01*
X100325220Y-101800781D01*
X100325218Y-101800778D01*
X100325218Y-101800776D01*
X100254400Y-101661790D01*
X100232287Y-101618390D01*
X100203519Y-101578794D01*
X100111971Y-101452786D01*
X99967213Y-101308028D01*
X99801613Y-101187715D01*
X99801612Y-101187714D01*
X99801610Y-101187713D01*
X99726613Y-101149500D01*
X99619223Y-101094781D01*
X99424534Y-101031522D01*
X99246104Y-101003262D01*
X99222352Y-100999500D01*
X99017648Y-100999500D01*
X98999778Y-101002330D01*
X98993895Y-101003262D01*
X98924601Y-100994305D01*
X98871151Y-100949307D01*
X98850513Y-100882555D01*
X98850500Y-100880788D01*
X98850500Y-88634923D01*
X98870185Y-88567884D01*
X98922989Y-88522129D01*
X98992147Y-88512185D01*
X99047387Y-88534606D01*
X99094855Y-88569095D01*
X99270164Y-88658418D01*
X99457294Y-88719221D01*
X99651618Y-88750000D01*
X99848382Y-88750000D01*
X100042705Y-88719221D01*
X100229835Y-88658418D01*
X100405144Y-88569095D01*
X100472413Y-88520220D01*
X100538219Y-88496739D01*
X100606273Y-88512564D01*
G37*
%TD.AperFunction*%
%TA.AperFunction,Conductor*%
G36*
X75795330Y-101418185D02*
G01*
X75841085Y-101470989D01*
X75851029Y-101540147D01*
X75838775Y-101578796D01*
X75807915Y-101639360D01*
X75749548Y-101818997D01*
X75720000Y-102005552D01*
X75720000Y-102194447D01*
X75749548Y-102381002D01*
X75807914Y-102560637D01*
X75893666Y-102728933D01*
X75912116Y-102754328D01*
X76570000Y-102096444D01*
X76570000Y-102146078D01*
X76593852Y-102235095D01*
X76639930Y-102314905D01*
X76705095Y-102380070D01*
X76784905Y-102426148D01*
X76873922Y-102450000D01*
X76966078Y-102450000D01*
X77055095Y-102426148D01*
X77134905Y-102380070D01*
X77200070Y-102314905D01*
X77246148Y-102235095D01*
X77270000Y-102146078D01*
X77270000Y-102096446D01*
X77927882Y-102754328D01*
X77927883Y-102754328D01*
X77946331Y-102728937D01*
X78032085Y-102560637D01*
X78090451Y-102381002D01*
X78120000Y-102194447D01*
X78120000Y-102005552D01*
X78090451Y-101818997D01*
X78032084Y-101639360D01*
X78001225Y-101578796D01*
X77988328Y-101510127D01*
X78014604Y-101445386D01*
X78071710Y-101405129D01*
X78111709Y-101398500D01*
X80807729Y-101398500D01*
X80874768Y-101418185D01*
X80920523Y-101470989D01*
X80930467Y-101540147D01*
X80918214Y-101578794D01*
X80887455Y-101639160D01*
X80829059Y-101818881D01*
X80799500Y-102005513D01*
X80799500Y-102194486D01*
X80829059Y-102381118D01*
X80887454Y-102560836D01*
X80949751Y-102683100D01*
X80973240Y-102729199D01*
X81084310Y-102882073D01*
X81217927Y-103015690D01*
X81370801Y-103126760D01*
X81450347Y-103167290D01*
X81539163Y-103212545D01*
X81539165Y-103212545D01*
X81539168Y-103212547D01*
X81616424Y-103237649D01*
X81718881Y-103270940D01*
X81905514Y-103300500D01*
X81905519Y-103300500D01*
X82094486Y-103300500D01*
X82281118Y-103270940D01*
X82282623Y-103270451D01*
X82460832Y-103212547D01*
X82629199Y-103126760D01*
X82782073Y-103015690D01*
X82915690Y-102882073D01*
X83026760Y-102729199D01*
X83112547Y-102560832D01*
X83170940Y-102381118D01*
X83181427Y-102314905D01*
X83200500Y-102194486D01*
X83200500Y-102005513D01*
X83170940Y-101818881D01*
X83132310Y-101699992D01*
X83112547Y-101639168D01*
X83112545Y-101639165D01*
X83112544Y-101639160D01*
X83081786Y-101578794D01*
X83068890Y-101510125D01*
X83095167Y-101445385D01*
X83152273Y-101405128D01*
X83192271Y-101398500D01*
X86702902Y-101398500D01*
X86769941Y-101418185D01*
X86815696Y-101470989D01*
X86825640Y-101540147D01*
X86796615Y-101603703D01*
X86790583Y-101610181D01*
X83343161Y-105057602D01*
X83281838Y-105091087D01*
X83212146Y-105086103D01*
X83156213Y-105044231D01*
X83144995Y-105026216D01*
X83143203Y-105022699D01*
X83116760Y-104970801D01*
X83005690Y-104817927D01*
X82872073Y-104684310D01*
X82719199Y-104573240D01*
X82686883Y-104556774D01*
X82550836Y-104487454D01*
X82371118Y-104429059D01*
X82184486Y-104399500D01*
X82184481Y-104399500D01*
X81995519Y-104399500D01*
X81995514Y-104399500D01*
X81808881Y-104429059D01*
X81629163Y-104487454D01*
X81460800Y-104573240D01*
X81392864Y-104622599D01*
X81307927Y-104684310D01*
X81307925Y-104684312D01*
X81307924Y-104684312D01*
X81174312Y-104817924D01*
X81174312Y-104817925D01*
X81174310Y-104817927D01*
X81165694Y-104829786D01*
X81063240Y-104970800D01*
X80977454Y-105139163D01*
X80919059Y-105318881D01*
X80889500Y-105505513D01*
X80889500Y-105694486D01*
X80919059Y-105881118D01*
X80977454Y-106060836D01*
X81043132Y-106189735D01*
X81063240Y-106229199D01*
X81174310Y-106382073D01*
X81307927Y-106515690D01*
X81460801Y-106626760D01*
X81516216Y-106654995D01*
X81567012Y-106702969D01*
X81583807Y-106770790D01*
X81561270Y-106836925D01*
X81547603Y-106853161D01*
X81255382Y-107145382D01*
X81194062Y-107178866D01*
X81167703Y-107181700D01*
X63865358Y-107181700D01*
X63798319Y-107162015D01*
X63752564Y-107109211D01*
X63742620Y-107040053D01*
X63750794Y-107010254D01*
X63751556Y-107008413D01*
X63751557Y-107008412D01*
X63817246Y-106806243D01*
X63848664Y-106607882D01*
X76355669Y-106607882D01*
X76355670Y-106607883D01*
X76381059Y-106626329D01*
X76549362Y-106712085D01*
X76728997Y-106770451D01*
X76915553Y-106800000D01*
X77104447Y-106800000D01*
X77291002Y-106770451D01*
X77470637Y-106712085D01*
X77638937Y-106626331D01*
X77664328Y-106607883D01*
X77664328Y-106607882D01*
X77010001Y-105953554D01*
X77010000Y-105953554D01*
X76355669Y-106607882D01*
X63848664Y-106607882D01*
X63850500Y-106596287D01*
X63850500Y-106383713D01*
X63817246Y-106173757D01*
X63751557Y-105971588D01*
X63655051Y-105782184D01*
X63655049Y-105782181D01*
X63655048Y-105782179D01*
X63530109Y-105610213D01*
X63425448Y-105505552D01*
X75810000Y-105505552D01*
X75810000Y-105694447D01*
X75839548Y-105881002D01*
X75897914Y-106060637D01*
X75983666Y-106228933D01*
X76002116Y-106254328D01*
X76656446Y-105600000D01*
X76656446Y-105599999D01*
X76610369Y-105553922D01*
X76660000Y-105553922D01*
X76660000Y-105646078D01*
X76683852Y-105735095D01*
X76729930Y-105814905D01*
X76795095Y-105880070D01*
X76874905Y-105926148D01*
X76963922Y-105950000D01*
X77056078Y-105950000D01*
X77145095Y-105926148D01*
X77224905Y-105880070D01*
X77290070Y-105814905D01*
X77336148Y-105735095D01*
X77360000Y-105646078D01*
X77360000Y-105599999D01*
X77363554Y-105599999D01*
X77363554Y-105600000D01*
X78017882Y-106254328D01*
X78017883Y-106254328D01*
X78036331Y-106228937D01*
X78122085Y-106060637D01*
X78180451Y-105881002D01*
X78210000Y-105694447D01*
X78210000Y-105505552D01*
X78180451Y-105318997D01*
X78122085Y-105139362D01*
X78036329Y-104971059D01*
X78017883Y-104945670D01*
X78017882Y-104945669D01*
X77363554Y-105599999D01*
X77360000Y-105599999D01*
X77360000Y-105553922D01*
X77336148Y-105464905D01*
X77290070Y-105385095D01*
X77224905Y-105319930D01*
X77145095Y-105273852D01*
X77056078Y-105250000D01*
X76963922Y-105250000D01*
X76874905Y-105273852D01*
X76795095Y-105319930D01*
X76729930Y-105385095D01*
X76683852Y-105464905D01*
X76660000Y-105553922D01*
X76610369Y-105553922D01*
X76002116Y-104945669D01*
X76002116Y-104945670D01*
X75983669Y-104971060D01*
X75897914Y-105139362D01*
X75839548Y-105318997D01*
X75810000Y-105505552D01*
X63425448Y-105505552D01*
X63379786Y-105459890D01*
X63207820Y-105334951D01*
X63207115Y-105334591D01*
X63199054Y-105330485D01*
X63148259Y-105282512D01*
X63131463Y-105214692D01*
X63153999Y-105148556D01*
X63199054Y-105109515D01*
X63207816Y-105105051D01*
X63242475Y-105079870D01*
X63379786Y-104980109D01*
X63379788Y-104980106D01*
X63379792Y-104980104D01*
X63530104Y-104829792D01*
X63530106Y-104829788D01*
X63530109Y-104829786D01*
X63588733Y-104749096D01*
X63655051Y-104657816D01*
X63688527Y-104592116D01*
X76355669Y-104592116D01*
X77010000Y-105246446D01*
X77010001Y-105246446D01*
X77664328Y-104592116D01*
X77638933Y-104573666D01*
X77470637Y-104487914D01*
X77291002Y-104429548D01*
X77104447Y-104400000D01*
X76915553Y-104400000D01*
X76728997Y-104429548D01*
X76549362Y-104487914D01*
X76381060Y-104573669D01*
X76355670Y-104592116D01*
X76355669Y-104592116D01*
X63688527Y-104592116D01*
X63697928Y-104573666D01*
X63717392Y-104535465D01*
X63751557Y-104468412D01*
X63817246Y-104266243D01*
X63850500Y-104056287D01*
X63850500Y-103843713D01*
X63817246Y-103633757D01*
X63803506Y-103591473D01*
X63801512Y-103521635D01*
X63833755Y-103465478D01*
X64191351Y-103107882D01*
X76265669Y-103107882D01*
X76265670Y-103107883D01*
X76291059Y-103126329D01*
X76459362Y-103212085D01*
X76638997Y-103270451D01*
X76825553Y-103300000D01*
X77014447Y-103300000D01*
X77201002Y-103270451D01*
X77380637Y-103212085D01*
X77548937Y-103126331D01*
X77574328Y-103107883D01*
X77574328Y-103107882D01*
X76920001Y-102453554D01*
X76920000Y-102453554D01*
X76265669Y-103107882D01*
X64191351Y-103107882D01*
X65864416Y-101434819D01*
X65925739Y-101401334D01*
X65952097Y-101398500D01*
X75728291Y-101398500D01*
X75795330Y-101418185D01*
G37*
%TD.AperFunction*%
%TA.AperFunction,Conductor*%
G36*
X98384186Y-80483050D02*
G01*
X98393148Y-80481762D01*
X98417188Y-80492740D01*
X98442540Y-80500185D01*
X98448467Y-80507025D01*
X98456704Y-80510787D01*
X98470993Y-80533021D01*
X98488295Y-80552989D01*
X98490582Y-80563503D01*
X98494478Y-80569565D01*
X98499501Y-80604500D01*
X98499501Y-80677876D01*
X98505908Y-80737483D01*
X98556202Y-80872328D01*
X98556206Y-80872335D01*
X98642452Y-80987544D01*
X98642455Y-80987547D01*
X98757664Y-81073793D01*
X98757671Y-81073797D01*
X98892517Y-81124091D01*
X98892516Y-81124091D01*
X98899444Y-81124835D01*
X98952127Y-81130500D01*
X99015733Y-81130499D01*
X99082770Y-81150183D01*
X99128526Y-81202986D01*
X99138470Y-81272144D01*
X99109446Y-81335700D01*
X99088619Y-81354816D01*
X98935354Y-81466171D01*
X98796174Y-81605351D01*
X98796174Y-81605352D01*
X98796172Y-81605354D01*
X98759148Y-81656313D01*
X98680476Y-81764594D01*
X98591117Y-81939970D01*
X98530290Y-82127173D01*
X98499500Y-82321577D01*
X98499500Y-82518422D01*
X98530290Y-82712826D01*
X98591117Y-82900029D01*
X98644884Y-83005552D01*
X98670790Y-83056396D01*
X98680477Y-83075406D01*
X98680484Y-83075417D01*
X98694199Y-83094294D01*
X98717680Y-83160100D01*
X98701855Y-83228154D01*
X98681563Y-83254861D01*
X97881286Y-84055139D01*
X97769481Y-84166943D01*
X97769479Y-84166946D01*
X97722097Y-84249016D01*
X97722096Y-84249017D01*
X97690423Y-84303875D01*
X97690423Y-84303876D01*
X97649499Y-84456604D01*
X97649499Y-84456606D01*
X97649499Y-84624707D01*
X97649500Y-84624720D01*
X97649500Y-101343330D01*
X97649499Y-101343348D01*
X97649499Y-101509054D01*
X97649498Y-101509054D01*
X97690424Y-101661789D01*
X97690425Y-101661790D01*
X97709033Y-101694020D01*
X97709037Y-101694026D01*
X97712482Y-101699992D01*
X97769480Y-101798716D01*
X97832544Y-101861780D01*
X97838096Y-101869321D01*
X97846971Y-101893707D01*
X97859406Y-101916480D01*
X97858905Y-101926498D01*
X97861991Y-101934977D01*
X97857483Y-101954928D01*
X97856173Y-101981149D01*
X97851523Y-101995460D01*
X97851523Y-101995462D01*
X97819500Y-102197648D01*
X97819500Y-102402351D01*
X97851522Y-102604534D01*
X97914781Y-102799223D01*
X97963471Y-102894781D01*
X98003296Y-102972942D01*
X98007715Y-102981613D01*
X98128028Y-103147213D01*
X98128034Y-103147219D01*
X98272781Y-103291966D01*
X98438390Y-103412287D01*
X98451793Y-103419116D01*
X98462856Y-103429564D01*
X98476703Y-103435888D01*
X98487744Y-103453068D01*
X98502589Y-103467088D01*
X98506830Y-103482768D01*
X98514477Y-103494666D01*
X98519500Y-103529601D01*
X98519500Y-103610397D01*
X98499815Y-103677436D01*
X98451800Y-103720879D01*
X98438389Y-103727712D01*
X98272786Y-103848028D01*
X98128028Y-103992786D01*
X98007715Y-104158386D01*
X97914781Y-104340776D01*
X97851522Y-104535465D01*
X97827296Y-104688426D01*
X97819500Y-104737648D01*
X97819500Y-104942352D01*
X97825480Y-104980109D01*
X97830306Y-105010577D01*
X97821351Y-105079870D01*
X97776355Y-105133322D01*
X97709604Y-105153962D01*
X97642290Y-105135237D01*
X97620152Y-105117656D01*
X92938850Y-100436355D01*
X92938848Y-100436352D01*
X92819977Y-100317481D01*
X92819976Y-100317480D01*
X92733164Y-100267360D01*
X92733164Y-100267359D01*
X92733160Y-100267358D01*
X92683045Y-100238423D01*
X92530317Y-100197499D01*
X92372203Y-100197499D01*
X92364607Y-100197499D01*
X92364591Y-100197500D01*
X65731057Y-100197500D01*
X65572943Y-100197500D01*
X65420215Y-100238423D01*
X65420214Y-100238423D01*
X65420212Y-100238424D01*
X65420209Y-100238425D01*
X65370096Y-100267359D01*
X65370095Y-100267360D01*
X65326689Y-100292420D01*
X65283285Y-100317479D01*
X65283282Y-100317481D01*
X64062181Y-101538583D01*
X64000858Y-101572068D01*
X63931166Y-101567084D01*
X63875233Y-101525212D01*
X63850816Y-101459748D01*
X63850500Y-101450902D01*
X63850500Y-101303713D01*
X63841851Y-101249108D01*
X63817246Y-101093757D01*
X63751557Y-100891588D01*
X63655051Y-100702184D01*
X63655049Y-100702181D01*
X63655048Y-100702179D01*
X63530109Y-100530213D01*
X63511126Y-100511230D01*
X63477641Y-100449907D01*
X63482625Y-100380215D01*
X63511126Y-100335868D01*
X63672931Y-100174063D01*
X64009506Y-99837488D01*
X64009511Y-99837484D01*
X64019714Y-99827280D01*
X64019716Y-99827280D01*
X64131520Y-99715476D01*
X64210577Y-99578544D01*
X64251500Y-99425817D01*
X64251500Y-95030060D01*
X64251501Y-95030047D01*
X64251501Y-94861945D01*
X64251501Y-94861943D01*
X64210577Y-94709215D01*
X64181639Y-94659095D01*
X64131520Y-94572284D01*
X64019716Y-94460480D01*
X64019715Y-94460479D01*
X64015385Y-94456149D01*
X64015374Y-94456139D01*
X63833757Y-94274522D01*
X63800272Y-94213199D01*
X63803507Y-94148523D01*
X63817246Y-94106243D01*
X63850500Y-93896287D01*
X63850500Y-93683713D01*
X63817246Y-93473757D01*
X63751557Y-93271588D01*
X63655051Y-93082184D01*
X63655049Y-93082181D01*
X63655048Y-93082179D01*
X63530109Y-92910213D01*
X63379786Y-92759890D01*
X63207817Y-92634949D01*
X63198504Y-92630204D01*
X63147707Y-92582230D01*
X63130912Y-92514409D01*
X63153449Y-92448274D01*
X63198507Y-92409232D01*
X63207555Y-92404622D01*
X63261716Y-92365270D01*
X63261717Y-92365270D01*
X62629408Y-91732962D01*
X62692993Y-91715925D01*
X62807007Y-91650099D01*
X62900099Y-91557007D01*
X62965925Y-91442993D01*
X62982962Y-91379409D01*
X63615270Y-92011717D01*
X63615270Y-92011716D01*
X63654622Y-91957554D01*
X63751095Y-91768217D01*
X63816757Y-91566130D01*
X63816757Y-91566127D01*
X63850000Y-91356246D01*
X63850000Y-91143753D01*
X63816757Y-90933872D01*
X63816757Y-90933869D01*
X63751095Y-90731782D01*
X63705244Y-90641795D01*
X63692348Y-90573126D01*
X63718624Y-90508386D01*
X63775730Y-90468128D01*
X63815729Y-90461500D01*
X72087900Y-90461500D01*
X72154939Y-90481185D01*
X72200694Y-90533989D01*
X72211900Y-90585500D01*
X72211900Y-91705017D01*
X72222400Y-91807796D01*
X72238630Y-91856774D01*
X72277586Y-91974335D01*
X72369688Y-92123656D01*
X72493744Y-92247712D01*
X72643065Y-92339814D01*
X72809602Y-92394999D01*
X72912390Y-92405500D01*
X72912395Y-92405500D01*
X74712405Y-92405500D01*
X74712410Y-92405500D01*
X74815198Y-92394999D01*
X74981735Y-92339814D01*
X75131056Y-92247712D01*
X75255112Y-92123656D01*
X75347214Y-91974335D01*
X75402399Y-91807798D01*
X75412900Y-91705010D01*
X75412900Y-90679038D01*
X82371900Y-90679038D01*
X82371900Y-90930962D01*
X82372361Y-90933872D01*
X82411310Y-91179785D01*
X82489160Y-91419383D01*
X82522867Y-91485535D01*
X82597263Y-91631546D01*
X82603532Y-91643848D01*
X82751601Y-91847649D01*
X82751605Y-91847654D01*
X82929745Y-92025794D01*
X82929750Y-92025798D01*
X83107517Y-92154952D01*
X83133555Y-92173870D01*
X83260844Y-92238727D01*
X83358016Y-92288239D01*
X83358018Y-92288239D01*
X83358021Y-92288241D01*
X83597615Y-92366090D01*
X83846438Y-92405500D01*
X83846439Y-92405500D01*
X84098361Y-92405500D01*
X84098362Y-92405500D01*
X84347185Y-92366090D01*
X84586779Y-92288241D01*
X84811245Y-92173870D01*
X85015056Y-92025793D01*
X85193193Y-91847656D01*
X85341270Y-91643845D01*
X85455641Y-91419379D01*
X85533490Y-91179785D01*
X85572900Y-90930962D01*
X85572900Y-90679038D01*
X85533490Y-90430215D01*
X85455641Y-90190621D01*
X85447048Y-90173757D01*
X85434152Y-90105090D01*
X85460427Y-90040349D01*
X85469843Y-90029790D01*
X87983056Y-87516577D01*
X88044376Y-87483095D01*
X88114068Y-87488079D01*
X88170001Y-87529951D01*
X88193207Y-87584863D01*
X88218242Y-87742927D01*
X88218242Y-87742930D01*
X88283904Y-87945017D01*
X88380375Y-88134350D01*
X88419728Y-88188516D01*
X89052037Y-87556208D01*
X89069075Y-87619793D01*
X89134901Y-87733807D01*
X89227993Y-87826899D01*
X89342007Y-87892725D01*
X89405590Y-87909762D01*
X88773282Y-88542069D01*
X88773282Y-88542070D01*
X88827449Y-88581424D01*
X89016782Y-88677895D01*
X89218870Y-88743557D01*
X89428754Y-88776800D01*
X89641246Y-88776800D01*
X89851127Y-88743557D01*
X89851130Y-88743557D01*
X90053217Y-88677895D01*
X90242554Y-88581422D01*
X90296716Y-88542070D01*
X90296717Y-88542070D01*
X89664408Y-87909762D01*
X89727993Y-87892725D01*
X89842007Y-87826899D01*
X89935099Y-87733807D01*
X90000925Y-87619793D01*
X90017962Y-87556209D01*
X90650270Y-88188517D01*
X90650270Y-88188516D01*
X90689622Y-88134354D01*
X90786095Y-87945017D01*
X90851757Y-87742930D01*
X90851757Y-87742927D01*
X90885000Y-87533046D01*
X90885000Y-87320553D01*
X90851757Y-87110672D01*
X90851757Y-87110669D01*
X90786095Y-86908582D01*
X90689624Y-86719249D01*
X90650270Y-86665082D01*
X90650269Y-86665082D01*
X90017962Y-87297390D01*
X90000925Y-87233807D01*
X89935099Y-87119793D01*
X89842007Y-87026701D01*
X89727993Y-86960875D01*
X89664408Y-86943837D01*
X90334627Y-86273618D01*
X90395950Y-86240133D01*
X90422308Y-86237299D01*
X90432871Y-86237299D01*
X90432872Y-86237299D01*
X90492483Y-86230891D01*
X90627331Y-86180596D01*
X90742546Y-86094346D01*
X90828796Y-85979131D01*
X90879091Y-85844283D01*
X90885500Y-85784673D01*
X90885499Y-83988928D01*
X90879091Y-83929317D01*
X90844388Y-83836274D01*
X90828797Y-83794471D01*
X90828793Y-83794464D01*
X90742547Y-83679255D01*
X90742544Y-83679252D01*
X90627335Y-83593006D01*
X90627328Y-83593002D01*
X90492482Y-83542708D01*
X90492483Y-83542708D01*
X90432883Y-83536301D01*
X90432881Y-83536300D01*
X90432873Y-83536300D01*
X90432864Y-83536300D01*
X88637129Y-83536300D01*
X88637123Y-83536301D01*
X88577516Y-83542708D01*
X88442671Y-83593002D01*
X88442664Y-83593006D01*
X88327455Y-83679252D01*
X88327452Y-83679255D01*
X88241206Y-83794464D01*
X88241202Y-83794471D01*
X88190908Y-83929317D01*
X88186797Y-83967558D01*
X88184501Y-83988923D01*
X88184500Y-83988935D01*
X88184500Y-85565301D01*
X88164815Y-85632340D01*
X88148181Y-85652982D01*
X84559468Y-89241695D01*
X84498145Y-89275180D01*
X84433470Y-89271945D01*
X84347186Y-89243910D01*
X84347181Y-89243909D01*
X84164656Y-89215000D01*
X84098362Y-89204500D01*
X83846438Y-89204500D01*
X83780138Y-89215001D01*
X83597614Y-89243910D01*
X83358016Y-89321760D01*
X83133551Y-89436132D01*
X82929750Y-89584201D01*
X82929745Y-89584205D01*
X82751605Y-89762345D01*
X82751601Y-89762350D01*
X82603532Y-89966151D01*
X82489160Y-90190616D01*
X82411310Y-90430214D01*
X82377799Y-90641795D01*
X82371900Y-90679038D01*
X75412900Y-90679038D01*
X75412900Y-89904990D01*
X75402399Y-89802202D01*
X75347214Y-89635665D01*
X75255112Y-89486344D01*
X75131056Y-89362288D01*
X75022657Y-89295427D01*
X74981737Y-89270187D01*
X74981732Y-89270185D01*
X74980263Y-89269698D01*
X74815198Y-89215001D01*
X74815196Y-89215000D01*
X74712417Y-89204500D01*
X74712410Y-89204500D01*
X72912390Y-89204500D01*
X72912382Y-89204500D01*
X72809608Y-89215000D01*
X72809604Y-89215000D01*
X72809602Y-89215001D01*
X72809600Y-89215001D01*
X72809598Y-89215002D01*
X72691288Y-89254206D01*
X72652285Y-89260500D01*
X63974500Y-89260500D01*
X63907461Y-89240815D01*
X63861706Y-89188011D01*
X63850500Y-89136500D01*
X63850499Y-88260096D01*
X63870183Y-88193057D01*
X63886813Y-88172420D01*
X71542417Y-80516819D01*
X71603740Y-80483334D01*
X71630098Y-80480500D01*
X98375501Y-80480500D01*
X98384186Y-80483050D01*
G37*
%TD.AperFunction*%
%TA.AperFunction,Conductor*%
G36*
X45816844Y-102736599D02*
G01*
X45855886Y-102781656D01*
X45860351Y-102790420D01*
X45985290Y-102962386D01*
X46135613Y-103112709D01*
X46307579Y-103237648D01*
X46307581Y-103237649D01*
X46307584Y-103237651D01*
X46316893Y-103242394D01*
X46367690Y-103290366D01*
X46384487Y-103358187D01*
X46361952Y-103424322D01*
X46316905Y-103463360D01*
X46307846Y-103467976D01*
X46307840Y-103467980D01*
X46253682Y-103507327D01*
X46253682Y-103507328D01*
X46885991Y-104139637D01*
X46822407Y-104156675D01*
X46708393Y-104222501D01*
X46615301Y-104315593D01*
X46549475Y-104429607D01*
X46532437Y-104493191D01*
X45900128Y-103860882D01*
X45900127Y-103860882D01*
X45860780Y-103915040D01*
X45860776Y-103915046D01*
X45856160Y-103924105D01*
X45808181Y-103974897D01*
X45740359Y-103991687D01*
X45674226Y-103969143D01*
X45635194Y-103924093D01*
X45630451Y-103914784D01*
X45630449Y-103914781D01*
X45630448Y-103914779D01*
X45505509Y-103742813D01*
X45355186Y-103592490D01*
X45183220Y-103467551D01*
X45182311Y-103467088D01*
X45174454Y-103463085D01*
X45123659Y-103415112D01*
X45106863Y-103347292D01*
X45129399Y-103281156D01*
X45174454Y-103242115D01*
X45183216Y-103237651D01*
X45224281Y-103207816D01*
X45355186Y-103112709D01*
X45355188Y-103112706D01*
X45355192Y-103112704D01*
X45505504Y-102962392D01*
X45505506Y-102962388D01*
X45505509Y-102962386D01*
X45630448Y-102790420D01*
X45630447Y-102790420D01*
X45630451Y-102790416D01*
X45634914Y-102781654D01*
X45682888Y-102730859D01*
X45750708Y-102714063D01*
X45816844Y-102736599D01*
G37*
%TD.AperFunction*%
%TA.AperFunction,Conductor*%
G36*
X48130670Y-87604317D02*
G01*
X48130670Y-87604316D01*
X48170022Y-87550154D01*
X48266496Y-87360815D01*
X48299801Y-87258312D01*
X48339238Y-87200636D01*
X48403596Y-87173437D01*
X48472443Y-87185351D01*
X48505412Y-87208947D01*
X50282203Y-88985739D01*
X52046049Y-90749585D01*
X52046055Y-90749590D01*
X54633581Y-93337116D01*
X54667066Y-93398439D01*
X54669900Y-93424797D01*
X54669900Y-100902834D01*
X54650215Y-100969873D01*
X54649002Y-100971725D01*
X54561009Y-101103414D01*
X54561002Y-101103427D01*
X54500664Y-101249098D01*
X54500661Y-101249108D01*
X54474169Y-101382292D01*
X54441784Y-101444203D01*
X54381068Y-101478777D01*
X54352552Y-101482100D01*
X48301119Y-101482100D01*
X48234080Y-101462415D01*
X48190635Y-101414395D01*
X48170452Y-101374785D01*
X48170451Y-101374784D01*
X48045509Y-101202813D01*
X47895186Y-101052490D01*
X47723220Y-100927551D01*
X47722515Y-100927191D01*
X47714454Y-100923085D01*
X47663659Y-100875112D01*
X47646863Y-100807292D01*
X47669399Y-100741156D01*
X47714454Y-100702115D01*
X47723216Y-100697651D01*
X47745189Y-100681686D01*
X47895186Y-100572709D01*
X47895188Y-100572706D01*
X47895192Y-100572704D01*
X48045504Y-100422392D01*
X48045506Y-100422388D01*
X48045509Y-100422386D01*
X48170448Y-100250420D01*
X48170447Y-100250420D01*
X48170451Y-100250416D01*
X48266957Y-100061012D01*
X48332646Y-99858843D01*
X48365900Y-99648887D01*
X48365900Y-99436313D01*
X48332646Y-99226357D01*
X48266957Y-99024188D01*
X48170451Y-98834784D01*
X48170449Y-98834781D01*
X48170448Y-98834779D01*
X48045509Y-98662813D01*
X47895186Y-98512490D01*
X47723217Y-98387549D01*
X47713904Y-98382804D01*
X47663107Y-98334830D01*
X47646312Y-98267009D01*
X47668849Y-98200874D01*
X47713907Y-98161832D01*
X47722955Y-98157222D01*
X47777116Y-98117870D01*
X47777117Y-98117870D01*
X47144808Y-97485562D01*
X47208393Y-97468525D01*
X47322407Y-97402699D01*
X47415499Y-97309607D01*
X47481325Y-97195593D01*
X47498362Y-97132008D01*
X48130670Y-97764317D01*
X48130670Y-97764316D01*
X48170022Y-97710154D01*
X48266495Y-97520817D01*
X48332157Y-97318730D01*
X48332157Y-97318727D01*
X48365400Y-97108846D01*
X48365400Y-96896353D01*
X48332157Y-96686472D01*
X48332157Y-96686469D01*
X48266495Y-96484382D01*
X48170024Y-96295049D01*
X48130670Y-96240882D01*
X48130669Y-96240882D01*
X47498362Y-96873190D01*
X47481325Y-96809607D01*
X47415499Y-96695593D01*
X47322407Y-96602501D01*
X47208393Y-96536675D01*
X47144809Y-96519637D01*
X47777116Y-95887328D01*
X47722947Y-95847973D01*
X47722947Y-95847972D01*
X47713900Y-95843363D01*
X47663106Y-95795388D01*
X47646312Y-95727566D01*
X47668851Y-95661432D01*
X47713908Y-95622393D01*
X47723216Y-95617651D01*
X47802407Y-95560115D01*
X47895186Y-95492709D01*
X47895188Y-95492706D01*
X47895192Y-95492704D01*
X48045504Y-95342392D01*
X48045506Y-95342388D01*
X48045509Y-95342386D01*
X48170448Y-95170420D01*
X48170447Y-95170420D01*
X48170451Y-95170416D01*
X48266957Y-94981012D01*
X48332646Y-94778843D01*
X48365900Y-94568887D01*
X48365900Y-94356313D01*
X48332646Y-94146357D01*
X48266957Y-93944188D01*
X48170451Y-93754784D01*
X48170449Y-93754781D01*
X48170448Y-93754779D01*
X48045509Y-93582813D01*
X47895186Y-93432490D01*
X47723220Y-93307551D01*
X47722515Y-93307191D01*
X47714454Y-93303085D01*
X47663659Y-93255112D01*
X47646863Y-93187292D01*
X47669399Y-93121156D01*
X47714454Y-93082115D01*
X47723216Y-93077651D01*
X47831435Y-92999026D01*
X47895186Y-92952709D01*
X47895188Y-92952706D01*
X47895192Y-92952704D01*
X48045504Y-92802392D01*
X48045506Y-92802388D01*
X48045509Y-92802386D01*
X48170448Y-92630420D01*
X48170450Y-92630417D01*
X48170451Y-92630416D01*
X48266957Y-92441012D01*
X48332646Y-92238843D01*
X48365900Y-92028887D01*
X48365900Y-91816313D01*
X48332646Y-91606357D01*
X48266957Y-91404188D01*
X48170451Y-91214784D01*
X48170449Y-91214781D01*
X48170448Y-91214779D01*
X48045509Y-91042813D01*
X47895186Y-90892490D01*
X47723220Y-90767551D01*
X47715000Y-90763363D01*
X47714454Y-90763085D01*
X47663659Y-90715112D01*
X47646863Y-90647292D01*
X47669399Y-90581156D01*
X47714454Y-90542115D01*
X47723216Y-90537651D01*
X47763496Y-90508386D01*
X47895186Y-90412709D01*
X47895188Y-90412706D01*
X47895192Y-90412704D01*
X48045504Y-90262392D01*
X48045506Y-90262388D01*
X48045509Y-90262386D01*
X48159790Y-90105090D01*
X48170451Y-90090416D01*
X48266957Y-89901012D01*
X48332646Y-89698843D01*
X48365900Y-89488887D01*
X48365900Y-89276313D01*
X48332646Y-89066357D01*
X48266957Y-88864188D01*
X48170451Y-88674784D01*
X48170449Y-88674781D01*
X48170448Y-88674779D01*
X48045509Y-88502813D01*
X47895186Y-88352490D01*
X47723217Y-88227549D01*
X47713904Y-88222804D01*
X47663107Y-88174830D01*
X47646312Y-88107009D01*
X47668849Y-88040874D01*
X47713907Y-88001832D01*
X47722955Y-87997222D01*
X47777116Y-87957870D01*
X47777117Y-87957870D01*
X47144808Y-87325562D01*
X47208393Y-87308525D01*
X47322407Y-87242699D01*
X47415499Y-87149607D01*
X47481325Y-87035593D01*
X47498362Y-86972009D01*
X48130670Y-87604317D01*
G37*
%TD.AperFunction*%
%TA.AperFunction,Conductor*%
G36*
X61251310Y-90481185D02*
G01*
X61297065Y-90533989D01*
X61307009Y-90603147D01*
X61294756Y-90641795D01*
X61248904Y-90731782D01*
X61183242Y-90933869D01*
X61183242Y-90933872D01*
X61150000Y-91143753D01*
X61150000Y-91356246D01*
X61183242Y-91566127D01*
X61183242Y-91566130D01*
X61248904Y-91768217D01*
X61345375Y-91957550D01*
X61384728Y-92011716D01*
X62017036Y-91379407D01*
X62034075Y-91442993D01*
X62099901Y-91557007D01*
X62192993Y-91650099D01*
X62307007Y-91715925D01*
X62370590Y-91732962D01*
X61738282Y-92365269D01*
X61738282Y-92365270D01*
X61792452Y-92404626D01*
X61792451Y-92404626D01*
X61801495Y-92409234D01*
X61852292Y-92457208D01*
X61869087Y-92525029D01*
X61846550Y-92591164D01*
X61801499Y-92630202D01*
X61792182Y-92634949D01*
X61620213Y-92759890D01*
X61469890Y-92910213D01*
X61344951Y-93082179D01*
X61248444Y-93271585D01*
X61248443Y-93271587D01*
X61248443Y-93271588D01*
X61245668Y-93280130D01*
X61182753Y-93473760D01*
X61165482Y-93582808D01*
X61149500Y-93683713D01*
X61149500Y-93896287D01*
X61157086Y-93944185D01*
X61182753Y-94106239D01*
X61182753Y-94106241D01*
X61182754Y-94106243D01*
X61239457Y-94280757D01*
X61248444Y-94308414D01*
X61344951Y-94497820D01*
X61469890Y-94669786D01*
X61620213Y-94820109D01*
X61792182Y-94945050D01*
X61800946Y-94949516D01*
X61851742Y-94997491D01*
X61868536Y-95065312D01*
X61845998Y-95131447D01*
X61800946Y-95170484D01*
X61792182Y-95174949D01*
X61620213Y-95299890D01*
X61469890Y-95450213D01*
X61344951Y-95622179D01*
X61248444Y-95811585D01*
X61182753Y-96013760D01*
X61165482Y-96122808D01*
X61149500Y-96223713D01*
X61149500Y-96436287D01*
X61182754Y-96646243D01*
X61235834Y-96809607D01*
X61248444Y-96848414D01*
X61344951Y-97037820D01*
X61469890Y-97209786D01*
X61620213Y-97360109D01*
X61792182Y-97485050D01*
X61800946Y-97489516D01*
X61851742Y-97537491D01*
X61868536Y-97605312D01*
X61845998Y-97671447D01*
X61800946Y-97710484D01*
X61792182Y-97714949D01*
X61620213Y-97839890D01*
X61469890Y-97990213D01*
X61344951Y-98162179D01*
X61248444Y-98351585D01*
X61182753Y-98553760D01*
X61149500Y-98763713D01*
X61149500Y-98976286D01*
X61182754Y-99186244D01*
X61182754Y-99186247D01*
X61196491Y-99228523D01*
X61198486Y-99298364D01*
X61166241Y-99354522D01*
X59074984Y-101445781D01*
X59013661Y-101479266D01*
X58987303Y-101482100D01*
X56188248Y-101482100D01*
X56121209Y-101462415D01*
X56075454Y-101409611D01*
X56066631Y-101382292D01*
X56040138Y-101249108D01*
X56040137Y-101249107D01*
X56040137Y-101249103D01*
X56020961Y-101202808D01*
X55979797Y-101103427D01*
X55979790Y-101103414D01*
X55891798Y-100971725D01*
X55870920Y-100905047D01*
X55870900Y-100902834D01*
X55870900Y-93045645D01*
X55870900Y-93045643D01*
X55838065Y-92923100D01*
X55829977Y-92892915D01*
X55801039Y-92842795D01*
X55750920Y-92755984D01*
X55639116Y-92644180D01*
X55639115Y-92644179D01*
X55634785Y-92639849D01*
X55634774Y-92639839D01*
X53668116Y-90673181D01*
X53634631Y-90611858D01*
X53639615Y-90542166D01*
X53681487Y-90486233D01*
X53746951Y-90461816D01*
X53755797Y-90461500D01*
X61184271Y-90461500D01*
X61251310Y-90481185D01*
G37*
%TD.AperFunction*%
%TA.AperFunction,Conductor*%
G36*
X46549475Y-97195593D02*
G01*
X46615301Y-97309607D01*
X46708393Y-97402699D01*
X46822407Y-97468525D01*
X46885990Y-97485562D01*
X46253682Y-98117869D01*
X46253682Y-98117870D01*
X46307852Y-98157226D01*
X46307851Y-98157226D01*
X46316895Y-98161834D01*
X46367692Y-98209808D01*
X46384487Y-98277629D01*
X46361950Y-98343764D01*
X46316899Y-98382802D01*
X46307582Y-98387549D01*
X46135613Y-98512490D01*
X45985290Y-98662813D01*
X45860349Y-98834782D01*
X45855884Y-98843546D01*
X45807909Y-98894342D01*
X45740088Y-98911136D01*
X45673953Y-98888598D01*
X45634916Y-98843546D01*
X45630450Y-98834782D01*
X45505509Y-98662813D01*
X45355186Y-98512490D01*
X45183220Y-98387551D01*
X45182515Y-98387191D01*
X45174454Y-98383085D01*
X45123659Y-98335112D01*
X45106863Y-98267292D01*
X45129399Y-98201156D01*
X45174454Y-98162115D01*
X45183216Y-98157651D01*
X45237972Y-98117869D01*
X45355186Y-98032709D01*
X45355188Y-98032706D01*
X45355192Y-98032704D01*
X45505504Y-97882392D01*
X45505506Y-97882388D01*
X45505509Y-97882386D01*
X45591290Y-97764317D01*
X45630451Y-97710416D01*
X45635193Y-97701108D01*
X45683163Y-97650311D01*
X45750983Y-97633511D01*
X45817119Y-97656045D01*
X45856163Y-97701100D01*
X45860773Y-97710147D01*
X45900128Y-97764316D01*
X46532437Y-97132008D01*
X46549475Y-97195593D01*
G37*
%TD.AperFunction*%
%TA.AperFunction,Conductor*%
G36*
X45816844Y-95116599D02*
G01*
X45855886Y-95161656D01*
X45860351Y-95170420D01*
X45985290Y-95342386D01*
X46135613Y-95492709D01*
X46307579Y-95617648D01*
X46307581Y-95617649D01*
X46307584Y-95617651D01*
X46316893Y-95622394D01*
X46367690Y-95670366D01*
X46384487Y-95738187D01*
X46361952Y-95804322D01*
X46316905Y-95843360D01*
X46307846Y-95847976D01*
X46307840Y-95847980D01*
X46253682Y-95887327D01*
X46253682Y-95887328D01*
X46885991Y-96519637D01*
X46822407Y-96536675D01*
X46708393Y-96602501D01*
X46615301Y-96695593D01*
X46549475Y-96809607D01*
X46532437Y-96873191D01*
X45900128Y-96240882D01*
X45900127Y-96240882D01*
X45860780Y-96295040D01*
X45860776Y-96295046D01*
X45856160Y-96304105D01*
X45808181Y-96354897D01*
X45740359Y-96371687D01*
X45674226Y-96349143D01*
X45635194Y-96304093D01*
X45630451Y-96294784D01*
X45630449Y-96294781D01*
X45630448Y-96294779D01*
X45505509Y-96122813D01*
X45355186Y-95972490D01*
X45183220Y-95847551D01*
X45175000Y-95843363D01*
X45174454Y-95843085D01*
X45123659Y-95795112D01*
X45106863Y-95727292D01*
X45129399Y-95661156D01*
X45174454Y-95622115D01*
X45183216Y-95617651D01*
X45205189Y-95601686D01*
X45355186Y-95492709D01*
X45355188Y-95492706D01*
X45355192Y-95492704D01*
X45505504Y-95342392D01*
X45505506Y-95342388D01*
X45505509Y-95342386D01*
X45630448Y-95170420D01*
X45630447Y-95170420D01*
X45630451Y-95170416D01*
X45634914Y-95161654D01*
X45682888Y-95110859D01*
X45750708Y-95094063D01*
X45816844Y-95116599D01*
G37*
%TD.AperFunction*%
%TA.AperFunction,Conductor*%
G36*
X45590670Y-92684317D02*
G01*
X45590670Y-92684316D01*
X45630022Y-92630155D01*
X45634632Y-92621107D01*
X45682605Y-92570309D01*
X45750425Y-92553512D01*
X45816561Y-92576047D01*
X45855604Y-92621104D01*
X45860349Y-92630417D01*
X45985290Y-92802386D01*
X46135613Y-92952709D01*
X46307582Y-93077650D01*
X46316346Y-93082116D01*
X46367142Y-93130091D01*
X46383936Y-93197912D01*
X46361398Y-93264047D01*
X46316346Y-93303084D01*
X46307582Y-93307549D01*
X46135613Y-93432490D01*
X45985290Y-93582813D01*
X45860349Y-93754782D01*
X45855884Y-93763546D01*
X45807909Y-93814342D01*
X45740088Y-93831136D01*
X45673953Y-93808598D01*
X45634916Y-93763546D01*
X45630450Y-93754782D01*
X45505509Y-93582813D01*
X45355186Y-93432490D01*
X45183217Y-93307549D01*
X45173904Y-93302804D01*
X45123107Y-93254830D01*
X45106312Y-93187009D01*
X45128849Y-93120874D01*
X45173907Y-93081832D01*
X45182955Y-93077222D01*
X45237116Y-93037870D01*
X45237117Y-93037870D01*
X44604808Y-92405562D01*
X44668393Y-92388525D01*
X44782407Y-92322699D01*
X44875499Y-92229607D01*
X44941325Y-92115593D01*
X44958362Y-92052008D01*
X45590670Y-92684317D01*
G37*
%TD.AperFunction*%
%TA.AperFunction,Conductor*%
G36*
X116257882Y-86904328D02*
G01*
X116257883Y-86904328D01*
X116276331Y-86878937D01*
X116363481Y-86707896D01*
X116411455Y-86657100D01*
X116479276Y-86640305D01*
X116545411Y-86662842D01*
X116561647Y-86676510D01*
X120279181Y-90394044D01*
X120312666Y-90455367D01*
X120315500Y-90481725D01*
X120315500Y-91321870D01*
X120315501Y-91321876D01*
X120321908Y-91381483D01*
X120372202Y-91516328D01*
X120372206Y-91516335D01*
X120458452Y-91631544D01*
X120458455Y-91631547D01*
X120573664Y-91717793D01*
X120573671Y-91717797D01*
X120605336Y-91729607D01*
X120708517Y-91768091D01*
X120768127Y-91774500D01*
X120778685Y-91774499D01*
X120845723Y-91794179D01*
X120866372Y-91810818D01*
X121536591Y-92481037D01*
X121473007Y-92498075D01*
X121358993Y-92563901D01*
X121265901Y-92656993D01*
X121200075Y-92771007D01*
X121183037Y-92834591D01*
X120550728Y-92202282D01*
X120550727Y-92202282D01*
X120511380Y-92256440D01*
X120511378Y-92256443D01*
X120475548Y-92326763D01*
X120427573Y-92377558D01*
X120359752Y-92394353D01*
X120293618Y-92371815D01*
X120277383Y-92358148D01*
X115529687Y-87610452D01*
X115496202Y-87549129D01*
X115501186Y-87479437D01*
X115543058Y-87423504D01*
X115579051Y-87404840D01*
X115710635Y-87362086D01*
X115878937Y-87276331D01*
X115904328Y-87257883D01*
X115904328Y-87257882D01*
X115246446Y-86600000D01*
X115296078Y-86600000D01*
X115385095Y-86576148D01*
X115464905Y-86530070D01*
X115530070Y-86464905D01*
X115576148Y-86385095D01*
X115600000Y-86296078D01*
X115600000Y-86246446D01*
X116257882Y-86904328D01*
G37*
%TD.AperFunction*%
%TA.AperFunction,Conductor*%
G36*
X45816844Y-90036599D02*
G01*
X45855886Y-90081656D01*
X45860351Y-90090420D01*
X45985290Y-90262386D01*
X46135613Y-90412709D01*
X46307582Y-90537650D01*
X46316346Y-90542116D01*
X46367142Y-90590091D01*
X46383936Y-90657912D01*
X46361398Y-90724047D01*
X46316346Y-90763084D01*
X46307582Y-90767549D01*
X46135613Y-90892490D01*
X45985290Y-91042813D01*
X45860349Y-91214782D01*
X45855602Y-91224099D01*
X45807627Y-91274893D01*
X45739805Y-91291687D01*
X45673671Y-91269148D01*
X45634634Y-91224095D01*
X45630026Y-91215052D01*
X45590670Y-91160882D01*
X45590669Y-91160882D01*
X44958362Y-91793190D01*
X44941325Y-91729607D01*
X44875499Y-91615593D01*
X44782407Y-91522501D01*
X44668393Y-91456675D01*
X44604809Y-91439637D01*
X45237116Y-90807328D01*
X45182947Y-90767973D01*
X45182947Y-90767972D01*
X45173900Y-90763363D01*
X45123106Y-90715388D01*
X45106312Y-90647566D01*
X45128851Y-90581432D01*
X45173908Y-90542393D01*
X45183216Y-90537651D01*
X45296471Y-90455367D01*
X45355186Y-90412709D01*
X45355188Y-90412706D01*
X45355192Y-90412704D01*
X45505504Y-90262392D01*
X45505506Y-90262388D01*
X45505509Y-90262386D01*
X45619790Y-90105090D01*
X45630451Y-90090416D01*
X45634914Y-90081654D01*
X45682888Y-90030859D01*
X45750708Y-90014063D01*
X45816844Y-90036599D01*
G37*
%TD.AperFunction*%
%TA.AperFunction,Conductor*%
G36*
X46549475Y-87035593D02*
G01*
X46615301Y-87149607D01*
X46708393Y-87242699D01*
X46822407Y-87308525D01*
X46885990Y-87325562D01*
X46253682Y-87957869D01*
X46253682Y-87957870D01*
X46307852Y-87997226D01*
X46307851Y-87997226D01*
X46316895Y-88001834D01*
X46367692Y-88049808D01*
X46384487Y-88117629D01*
X46361950Y-88183764D01*
X46316899Y-88222802D01*
X46307582Y-88227549D01*
X46135613Y-88352490D01*
X45985290Y-88502813D01*
X45860349Y-88674782D01*
X45855884Y-88683546D01*
X45807909Y-88734342D01*
X45740088Y-88751136D01*
X45673953Y-88728598D01*
X45634916Y-88683546D01*
X45630450Y-88674782D01*
X45505509Y-88502813D01*
X45355186Y-88352490D01*
X45183220Y-88227551D01*
X45182515Y-88227191D01*
X45174454Y-88223085D01*
X45123659Y-88175112D01*
X45106863Y-88107292D01*
X45129399Y-88041156D01*
X45174454Y-88002115D01*
X45183216Y-87997651D01*
X45280735Y-87926800D01*
X45355186Y-87872709D01*
X45355188Y-87872706D01*
X45355192Y-87872704D01*
X45505504Y-87722392D01*
X45505506Y-87722388D01*
X45505509Y-87722386D01*
X45580046Y-87619793D01*
X45630451Y-87550416D01*
X45635193Y-87541108D01*
X45683163Y-87490311D01*
X45750983Y-87473511D01*
X45817119Y-87496045D01*
X45856163Y-87541100D01*
X45860773Y-87550147D01*
X45900128Y-87604316D01*
X46532436Y-86972007D01*
X46549475Y-87035593D01*
G37*
%TD.AperFunction*%
%TD*%
M02*
