%TF.GenerationSoftware,KiCad,Pcbnew,9.0.2-2.fc42*%
%TF.CreationDate,2025-07-03T11:17:00+12:00*%
%TF.ProjectId,smartclockpi,736d6172-7463-46c6-9f63-6b70692e6b69,rev?*%
%TF.SameCoordinates,Original*%
%TF.FileFunction,Copper,L2,Bot*%
%TF.FilePolarity,Positive*%
%FSLAX46Y46*%
G04 Gerber Fmt 4.6, Leading zero omitted, Abs format (unit mm)*
G04 Created by KiCad (PCBNEW 9.0.2-2.fc42) date 2025-07-03 11:17:00*
%MOMM*%
%LPD*%
G01*
G04 APERTURE LIST*
G04 Aperture macros list*
%AMRoundRect*
0 Rectangle with rounded corners*
0 $1 Rounding radius*
0 $2 $3 $4 $5 $6 $7 $8 $9 X,Y pos of 4 corners*
0 Add a 4 corners polygon primitive as box body*
4,1,4,$2,$3,$4,$5,$6,$7,$8,$9,$2,$3,0*
0 Add four circle primitives for the rounded corners*
1,1,$1+$1,$2,$3*
1,1,$1+$1,$4,$5*
1,1,$1+$1,$6,$7*
1,1,$1+$1,$8,$9*
0 Add four rect primitives between the rounded corners*
20,1,$1+$1,$2,$3,$4,$5,0*
20,1,$1+$1,$4,$5,$6,$7,0*
20,1,$1+$1,$6,$7,$8,$9,0*
20,1,$1+$1,$8,$9,$2,$3,0*%
G04 Aperture macros list end*
%TA.AperFunction,ComponentPad*%
%ADD10R,1.700000X1.700000*%
%TD*%
%TA.AperFunction,ComponentPad*%
%ADD11C,1.700000*%
%TD*%
%TA.AperFunction,ComponentPad*%
%ADD12C,1.400000*%
%TD*%
%TA.AperFunction,ComponentPad*%
%ADD13RoundRect,0.249999X-0.850001X-0.850001X0.850001X-0.850001X0.850001X0.850001X-0.850001X0.850001X0*%
%TD*%
%TA.AperFunction,ComponentPad*%
%ADD14C,2.200000*%
%TD*%
%TA.AperFunction,ComponentPad*%
%ADD15C,1.500000*%
%TD*%
%TA.AperFunction,ComponentPad*%
%ADD16RoundRect,0.250000X-0.550000X-0.550000X0.550000X-0.550000X0.550000X0.550000X-0.550000X0.550000X0*%
%TD*%
%TA.AperFunction,ComponentPad*%
%ADD17C,1.600000*%
%TD*%
%TA.AperFunction,HeatsinkPad*%
%ADD18O,1.200000X2.900000*%
%TD*%
%TA.AperFunction,HeatsinkPad*%
%ADD19O,0.900000X1.600000*%
%TD*%
%TA.AperFunction,ComponentPad*%
%ADD20R,1.500000X1.500000*%
%TD*%
%TA.AperFunction,ViaPad*%
%ADD21C,0.600000*%
%TD*%
%TA.AperFunction,Conductor*%
%ADD22C,0.200000*%
%TD*%
G04 APERTURE END LIST*
D10*
%TO.P,J3,1,VCC*%
%TO.N,+3.3V*%
X62500000Y-88710000D03*
D11*
%TO.P,J3,2,GND*%
%TO.N,GND*%
X62500000Y-91250000D03*
%TO.P,J3,3,CS*%
%TO.N,Net-(J1-~{CE0}{slash}GPIO8)*%
X62500000Y-93790000D03*
%TO.P,J3,4,RESET*%
%TO.N,Net-(J1-GPIO25)*%
X62500000Y-96330000D03*
%TO.P,J3,5,DC/RS*%
%TO.N,Net-(J1-GPIO24)*%
X62500000Y-98870000D03*
%TO.P,J3,6,MOSI*%
%TO.N,Net-(J1-MOSI0{slash}GPIO10)*%
X62500000Y-101410000D03*
%TO.P,J3,7,SCK*%
%TO.N,Net-(J1-SCLK0{slash}GPIO11)*%
X62500000Y-103950000D03*
%TO.P,J3,8,LED*%
%TO.N,Net-(J1-PWM1{slash}GPIO13)*%
X62500000Y-106490000D03*
%TO.P,J3,9,MISO*%
%TO.N,Net-(J1-MISO0{slash}GPIO9)*%
X62500000Y-109030000D03*
%TO.P,J3,10,T_CLK*%
%TO.N,Net-(J1-GPIO21{slash}SCLK1)*%
X62500000Y-111570000D03*
%TO.P,J3,11,T_CS*%
%TO.N,Net-(J1-GPIO20{slash}MOSI1)*%
X62500000Y-114110000D03*
%TO.P,J3,12,T_DIN*%
%TO.N,Net-(J1-GPIO19{slash}MISO1)*%
X62500000Y-116650000D03*
%TO.P,J3,13,T_DO*%
%TO.N,Net-(J1-GPIO17)*%
X62500000Y-119190000D03*
%TO.P,J3,14,T_IRQ*%
%TO.N,Net-(J1-PWM0{slash}GPIO12)*%
X62500000Y-121730000D03*
%TD*%
D12*
%TO.P,R9,1*%
%TO.N,GND*%
X77010000Y-121500000D03*
%TO.P,R9,2*%
%TO.N,Net-(U2-CH7)*%
X82090000Y-121500000D03*
%TD*%
D10*
%TO.P,J2,1,32K*%
%TO.N,Net-(J2-32K)*%
X121082200Y-132035000D03*
D11*
%TO.P,J2,2,SQW*%
%TO.N,Net-(J2-SQW)*%
X118542200Y-132035000D03*
%TO.P,J2,3,SCL*%
%TO.N,Net-(J1-SCL{slash}GPIO3)*%
X116002200Y-132035000D03*
%TO.P,J2,4,SDA*%
%TO.N,Net-(J1-SDA{slash}GPIO2)*%
X113462200Y-132035000D03*
%TO.P,J2,5,VCC*%
%TO.N,+3.3V*%
X110922200Y-132035000D03*
%TO.P,J2,6,GND*%
%TO.N,GND*%
X108382200Y-132035000D03*
%TD*%
D13*
%TO.P,D1,1,K*%
%TO.N,+5V*%
X73812400Y-90805000D03*
D14*
%TO.P,D1,2,A*%
%TO.N,Net-(D1-A)*%
X83972400Y-90805000D03*
%TD*%
D15*
%TO.P,R1,1*%
%TO.N,+3.3V*%
X54000000Y-129500000D03*
%TO.P,R1,2*%
%TO.N,Net-(U2-CH0)*%
X57400000Y-129500000D03*
%TD*%
D12*
%TO.P,R4,1*%
%TO.N,GND*%
X77010000Y-105600000D03*
%TO.P,R4,2*%
%TO.N,Net-(U2-CH2)*%
X82090000Y-105600000D03*
%TD*%
D10*
%TO.P,J9,1,Pin_1*%
%TO.N,Net-(D1-A)*%
X89535000Y-84886800D03*
D11*
%TO.P,J9,2,Pin_2*%
%TO.N,GND*%
X89535000Y-87426800D03*
%TD*%
D16*
%TO.P,U2,1,CH0*%
%TO.N,Net-(U2-CH0)*%
X91500000Y-102300000D03*
D17*
%TO.P,U2,2,CH1*%
%TO.N,Net-(U2-CH1)*%
X91500000Y-104840000D03*
%TO.P,U2,3,CH2*%
%TO.N,Net-(U2-CH2)*%
X91500000Y-107380000D03*
%TO.P,U2,4,CH3*%
%TO.N,Net-(U2-CH3)*%
X91500000Y-109920000D03*
%TO.P,U2,5,CH4*%
%TO.N,Net-(U2-CH4)*%
X91500000Y-112460000D03*
%TO.P,U2,6,CH5*%
%TO.N,Net-(U2-CH5)*%
X91500000Y-115000000D03*
%TO.P,U2,7,CH6*%
%TO.N,Net-(U2-CH6)*%
X91500000Y-117540000D03*
%TO.P,U2,8,CH7*%
%TO.N,Net-(U2-CH7)*%
X91500000Y-120080000D03*
%TO.P,U2,9,DGND*%
%TO.N,GND*%
X99120000Y-120080000D03*
%TO.P,U2,10,~{CS}/SHDN*%
%TO.N,Net-(J1-~{CE1}{slash}GPIO7)*%
X99120000Y-117540000D03*
%TO.P,U2,11,Din*%
%TO.N,Net-(J1-MOSI0{slash}GPIO10)*%
X99120000Y-115000000D03*
%TO.P,U2,12,Dout*%
%TO.N,Net-(J1-MISO0{slash}GPIO9)*%
X99120000Y-112460000D03*
%TO.P,U2,13,CLK*%
%TO.N,Net-(J1-SCLK0{slash}GPIO11)*%
X99120000Y-109920000D03*
%TO.P,U2,14,AGND*%
%TO.N,GND*%
X99120000Y-107380000D03*
%TO.P,U2,15,Vref*%
%TO.N,+3.3V*%
X99120000Y-104840000D03*
%TO.P,U2,16,Vdd*%
X99120000Y-102300000D03*
%TD*%
D10*
%TO.P,J1,1,3V3*%
%TO.N,+3.3V*%
X44475400Y-81762600D03*
D11*
%TO.P,J1,2,5V*%
%TO.N,+5V*%
X47015400Y-81762600D03*
%TO.P,J1,3,SDA/GPIO2*%
%TO.N,Net-(J1-SDA{slash}GPIO2)*%
X44475400Y-84302600D03*
%TO.P,J1,4,5V*%
%TO.N,+5V*%
X47015400Y-84302600D03*
%TO.P,J1,5,SCL/GPIO3*%
%TO.N,Net-(J1-SCL{slash}GPIO3)*%
X44475400Y-86842600D03*
%TO.P,J1,6,GND*%
%TO.N,GND*%
X47015400Y-86842600D03*
%TO.P,J1,7,GCLK0/GPIO4*%
%TO.N,Net-(J1-GCLK0{slash}GPIO4)*%
X44475400Y-89382600D03*
%TO.P,J1,8,GPIO14/TXD*%
%TO.N,unconnected-(J1-GPIO14{slash}TXD-Pad8)*%
X47015400Y-89382600D03*
%TO.P,J1,9,GND*%
%TO.N,GND*%
X44475400Y-91922600D03*
%TO.P,J1,10,GPIO15/RXD*%
%TO.N,unconnected-(J1-GPIO15{slash}RXD-Pad10)*%
X47015400Y-91922600D03*
%TO.P,J1,11,GPIO17*%
%TO.N,Net-(J1-GPIO17)*%
X44475400Y-94462600D03*
%TO.P,J1,12,GPIO18/PWM0*%
%TO.N,unconnected-(J1-GPIO18{slash}PWM0-Pad12)*%
X47015400Y-94462600D03*
%TO.P,J1,13,GPIO27*%
%TO.N,unconnected-(J1-GPIO27-Pad13)*%
X44475400Y-97002600D03*
%TO.P,J1,14,GND*%
%TO.N,GND*%
X47015400Y-97002600D03*
%TO.P,J1,15,GPIO22*%
%TO.N,unconnected-(J1-GPIO22-Pad15)*%
X44475400Y-99542600D03*
%TO.P,J1,16,GPIO23*%
%TO.N,unconnected-(J1-GPIO23-Pad16)*%
X47015400Y-99542600D03*
%TO.P,J1,17,3V3*%
%TO.N,+3.3V*%
X44475400Y-102082600D03*
%TO.P,J1,18,GPIO24*%
%TO.N,Net-(J1-GPIO24)*%
X47015400Y-102082600D03*
%TO.P,J1,19,MOSI0/GPIO10*%
%TO.N,Net-(J1-MOSI0{slash}GPIO10)*%
X44475400Y-104622600D03*
%TO.P,J1,20,GND*%
%TO.N,GND*%
X47015400Y-104622600D03*
%TO.P,J1,21,MISO0/GPIO9*%
%TO.N,Net-(J1-MISO0{slash}GPIO9)*%
X44475400Y-107162600D03*
%TO.P,J1,22,GPIO25*%
%TO.N,Net-(J1-GPIO25)*%
X47015400Y-107162600D03*
%TO.P,J1,23,SCLK0/GPIO11*%
%TO.N,Net-(J1-SCLK0{slash}GPIO11)*%
X44475400Y-109702600D03*
%TO.P,J1,24,~{CE0}/GPIO8*%
%TO.N,Net-(J1-~{CE0}{slash}GPIO8)*%
X47015400Y-109702600D03*
%TO.P,J1,25,GND*%
%TO.N,GND*%
X44475400Y-112242600D03*
%TO.P,J1,26,~{CE1}/GPIO7*%
%TO.N,Net-(J1-~{CE1}{slash}GPIO7)*%
X47015400Y-112242600D03*
%TO.P,J1,27,ID_SD/GPIO0*%
%TO.N,unconnected-(J1-ID_SD{slash}GPIO0-Pad27)*%
X44475400Y-114782600D03*
%TO.P,J1,28,ID_SC/GPIO1*%
%TO.N,unconnected-(J1-ID_SC{slash}GPIO1-Pad28)*%
X47015400Y-114782600D03*
%TO.P,J1,29,GCLK1/GPIO5*%
%TO.N,unconnected-(J1-GCLK1{slash}GPIO5-Pad29)*%
X44475400Y-117322600D03*
%TO.P,J1,30,GND*%
%TO.N,GND*%
X47015400Y-117322600D03*
%TO.P,J1,31,GCLK2/GPIO6*%
%TO.N,unconnected-(J1-GCLK2{slash}GPIO6-Pad31)*%
X44475400Y-119862600D03*
%TO.P,J1,32,PWM0/GPIO12*%
%TO.N,Net-(J1-PWM0{slash}GPIO12)*%
X47015400Y-119862600D03*
%TO.P,J1,33,PWM1/GPIO13*%
%TO.N,Net-(J1-PWM1{slash}GPIO13)*%
X44475400Y-122402600D03*
%TO.P,J1,34,GND*%
%TO.N,GND*%
X47015400Y-122402600D03*
%TO.P,J1,35,GPIO19/MISO1*%
%TO.N,Net-(J1-GPIO19{slash}MISO1)*%
X44475400Y-124942600D03*
%TO.P,J1,36,GPIO16*%
%TO.N,unconnected-(J1-GPIO16-Pad36)*%
X47015400Y-124942600D03*
%TO.P,J1,37,GPIO26*%
%TO.N,unconnected-(J1-GPIO26-Pad37)*%
X44475400Y-127482600D03*
%TO.P,J1,38,GPIO20/MOSI1*%
%TO.N,Net-(J1-GPIO20{slash}MOSI1)*%
X47015400Y-127482600D03*
%TO.P,J1,39,GND*%
%TO.N,GND*%
X44475400Y-130022600D03*
%TO.P,J1,40,GPIO21/SCLK1*%
%TO.N,Net-(J1-GPIO21{slash}SCLK1)*%
X47015400Y-130022600D03*
%TD*%
D18*
%TO.P,J6,5,Shield*%
%TO.N,GND*%
X132511000Y-78505400D03*
X119711000Y-78505400D03*
%TD*%
D19*
%TO.P,J5,6,Shield*%
%TO.N,GND*%
X111600000Y-70879800D03*
X105000000Y-70879800D03*
%TD*%
D12*
%TO.P,R6,1*%
%TO.N,GND*%
X77010000Y-112050000D03*
%TO.P,R6,2*%
%TO.N,Net-(U2-CH4)*%
X82090000Y-112050000D03*
%TD*%
%TO.P,R8,1*%
%TO.N,GND*%
X77010000Y-118350000D03*
%TO.P,R8,2*%
%TO.N,Net-(U2-CH6)*%
X82090000Y-118350000D03*
%TD*%
%TO.P,R5,1*%
%TO.N,GND*%
X77010000Y-108900000D03*
%TO.P,R5,2*%
%TO.N,Net-(U2-CH3)*%
X82090000Y-108900000D03*
%TD*%
D10*
%TO.P,J8,1,Pin_1*%
%TO.N,Net-(J6-VBUS)*%
X129565000Y-90393200D03*
D11*
%TO.P,J8,2,Pin_2*%
%TO.N,GND*%
X129565000Y-92933200D03*
%TD*%
D12*
%TO.P,R3,1*%
%TO.N,GND*%
X76920000Y-102100000D03*
%TO.P,R3,2*%
%TO.N,Net-(U2-CH1)*%
X82000000Y-102100000D03*
%TD*%
%TO.P,R7,1*%
%TO.N,GND*%
X77010000Y-115200000D03*
%TO.P,R7,2*%
%TO.N,Net-(U2-CH5)*%
X82090000Y-115200000D03*
%TD*%
D20*
%TO.P,U3,1,VDD*%
%TO.N,+3.3V*%
X99750000Y-79880000D03*
D15*
%TO.P,U3,2,DATA*%
%TO.N,Net-(J1-GCLK0{slash}GPIO4)*%
X99750000Y-82420000D03*
%TO.P,U3,3,NC*%
%TO.N,unconnected-(U3-NC-Pad3)*%
X99750000Y-84960000D03*
%TO.P,U3,4,GND*%
%TO.N,GND*%
X99750000Y-87500000D03*
%TD*%
D10*
%TO.P,J7,1,Pin_1*%
%TO.N,Net-(J5-VBUS)*%
X121666000Y-90424000D03*
D11*
%TO.P,J7,2,Pin_2*%
%TO.N,GND*%
X121666000Y-92964000D03*
%TD*%
D12*
%TO.P,R2,1*%
%TO.N,Net-(U2-CH0)*%
X61920000Y-131000000D03*
%TO.P,R2,2*%
%TO.N,GND*%
X67000000Y-131000000D03*
%TD*%
%TO.P,R12,1*%
%TO.N,Net-(J2-32K)*%
X110170000Y-83100000D03*
%TO.P,R12,2*%
%TO.N,GND*%
X115250000Y-83100000D03*
%TD*%
%TO.P,R13,1*%
%TO.N,Net-(J2-SQW)*%
X110170000Y-86250000D03*
%TO.P,R13,2*%
%TO.N,GND*%
X115250000Y-86250000D03*
%TD*%
D21*
%TO.N,Net-(J1-SCLK0{slash}GPIO11)*%
X49657000Y-111760000D03*
%TO.N,Net-(J1-GCLK0{slash}GPIO4)*%
X101869800Y-82524600D03*
%TO.N,Net-(J1-PWM0{slash}GPIO12)*%
X49606200Y-121031000D03*
X52451000Y-125603000D03*
%TO.N,+3.3V*%
X49683400Y-132276000D03*
X100221000Y-121767600D03*
%TO.N,Net-(J1-MISO0{slash}GPIO9)*%
X48920400Y-108839000D03*
X55880000Y-104775000D03*
%TO.N,Net-(J1-GPIO19{slash}MISO1)*%
X51790600Y-124866400D03*
X49164800Y-126187200D03*
%TO.N,Net-(J1-PWM1{slash}GPIO13)*%
X49580800Y-112953800D03*
%TO.N,Net-(J1-SDA{slash}GPIO2)*%
X55270400Y-101482600D03*
X55270400Y-133096000D03*
%TO.N,Net-(J1-GPIO17)*%
X52070000Y-113817400D03*
X50372293Y-106379293D03*
X49453800Y-103022400D03*
%TD*%
D22*
%TO.N,GND*%
X94535735Y-87535735D02*
X94571470Y-87500000D01*
%TO.N,Net-(J1-SCLK0{slash}GPIO11)*%
X48953800Y-111056800D02*
X45829600Y-111056800D01*
X45829600Y-111056800D02*
X44475400Y-109702600D01*
X49657000Y-111760000D02*
X48953800Y-111056800D01*
%TO.N,Net-(J1-GCLK0{slash}GPIO4)*%
X101869800Y-82524600D02*
X101765200Y-82420000D01*
X101765200Y-82420000D02*
X99750000Y-82420000D01*
%TO.N,Net-(J1-PWM0{slash}GPIO12)*%
X52451000Y-123875800D02*
X49606200Y-121031000D01*
X52451000Y-125603000D02*
X52451000Y-123875800D01*
%TO.N,+3.3V*%
X52541800Y-129500000D02*
X49765800Y-132276000D01*
X43230800Y-83007200D02*
X43230800Y-100838000D01*
X44475400Y-81762600D02*
X43230800Y-83007200D01*
X49765800Y-132276000D02*
X49683400Y-132276000D01*
X110922200Y-132035000D02*
X100578600Y-121691400D01*
X43230800Y-100838000D02*
X44475400Y-102082600D01*
X100578600Y-121691400D02*
X100221000Y-121691400D01*
X52541800Y-129500000D02*
X54000000Y-129500000D01*
%TO.N,Net-(J1-~{CE0}{slash}GPIO8)*%
X62500000Y-93790000D02*
X62210000Y-93790000D01*
%TO.N,Net-(J1-MISO0{slash}GPIO9)*%
X58245000Y-104775000D02*
X55880000Y-104775000D01*
X48920400Y-108839000D02*
X48633000Y-108551600D01*
X48633000Y-108551600D02*
X45864400Y-108551600D01*
X62500000Y-109030000D02*
X58245000Y-104775000D01*
X45864400Y-108551600D02*
X44475400Y-107162600D01*
%TO.N,Net-(J1-GPIO21{slash}SCLK1)*%
X50181800Y-113202743D02*
X49981800Y-113402743D01*
X48564800Y-107338257D02*
X48564800Y-108150600D01*
X48564800Y-120508060D02*
X48564800Y-128473200D01*
X48886500Y-108238000D02*
X49169343Y-108238000D01*
X62976760Y-107879000D02*
X62018857Y-107879000D01*
X55021457Y-100881600D02*
X48564800Y-107338257D01*
X49521400Y-109087943D02*
X49169343Y-109440000D01*
X55871400Y-101731543D02*
X55871400Y-101233657D01*
X49169343Y-109440000D02*
X48671457Y-109440000D01*
X63651000Y-108553240D02*
X62976760Y-107879000D01*
X50258000Y-112008943D02*
X49905943Y-112361000D01*
X50258000Y-111511057D02*
X50258000Y-112008943D01*
X55871400Y-101233657D02*
X55519343Y-100881600D01*
X49521400Y-108590057D02*
X49521400Y-109087943D01*
X49981800Y-113402743D02*
X49981800Y-119091060D01*
X48564800Y-108150600D02*
X48799100Y-108150600D01*
X49837943Y-112361000D02*
X50181800Y-112704857D01*
X55519343Y-100881600D02*
X55021457Y-100881600D01*
X48564800Y-109333343D02*
X48564800Y-110655800D01*
X48671457Y-109440000D02*
X48564800Y-109333343D01*
X63651000Y-110419000D02*
X63651000Y-108553240D01*
X49981800Y-119091060D02*
X48564800Y-120508060D01*
X48799100Y-108150600D02*
X48886500Y-108238000D01*
X49169343Y-108238000D02*
X49521400Y-108590057D01*
X50181800Y-112704857D02*
X50181800Y-113202743D01*
X48564800Y-128473200D02*
X47015400Y-130022600D01*
X49119900Y-110655800D02*
X49623100Y-111159000D01*
X62018857Y-107879000D02*
X55871400Y-101731543D01*
X49905943Y-111159000D02*
X50258000Y-111511057D01*
X49623100Y-111159000D02*
X49905943Y-111159000D01*
X62500000Y-111570000D02*
X63651000Y-110419000D01*
X49905943Y-112361000D02*
X49837943Y-112361000D01*
X48564800Y-110655800D02*
X49119900Y-110655800D01*
%TO.N,Net-(J1-GPIO19{slash}MISO1)*%
X50596800Y-124841000D02*
X51562000Y-124841000D01*
X49164800Y-126187200D02*
X49250600Y-126187200D01*
X51562000Y-124841000D02*
X51587400Y-124866400D01*
X49250600Y-126187200D02*
X50596800Y-124841000D01*
X51587400Y-124866400D02*
X51790600Y-124866400D01*
%TO.N,Net-(J1-PWM1{slash}GPIO13)*%
X49580800Y-112953800D02*
X49580800Y-118924960D01*
X45626400Y-121251600D02*
X44475400Y-122402600D01*
X49580800Y-118924960D02*
X47254160Y-121251600D01*
X47254160Y-121251600D02*
X45626400Y-121251600D01*
%TO.N,Net-(J1-GPIO25)*%
X57848000Y-96330000D02*
X62500000Y-96330000D01*
X47015400Y-107162600D02*
X57848000Y-96330000D01*
%TO.N,Net-(J1-SDA{slash}GPIO2)*%
X55219600Y-133146800D02*
X55270400Y-133096000D01*
X55270400Y-101482600D02*
X55270400Y-133096000D01*
%TO.N,Net-(U2-CH1)*%
X91500000Y-104840000D02*
X84740000Y-104840000D01*
X84740000Y-104840000D02*
X82000000Y-102100000D01*
%TO.N,Net-(U2-CH2)*%
X91500000Y-107380000D02*
X83870000Y-107380000D01*
X83870000Y-107380000D02*
X82090000Y-105600000D01*
%TO.N,Net-(U2-CH3)*%
X91500000Y-109920000D02*
X83110000Y-109920000D01*
X83110000Y-109920000D02*
X82090000Y-108900000D01*
%TO.N,Net-(J1-GPIO20{slash}MOSI1)*%
X55871400Y-133344943D02*
X55519343Y-133697000D01*
X45864400Y-128633600D02*
X47015400Y-127482600D01*
X45864400Y-130499360D02*
X45864400Y-128633600D01*
X55871400Y-120738600D02*
X55871400Y-133344943D01*
X49062040Y-133697000D02*
X45864400Y-130499360D01*
X62500000Y-114110000D02*
X55871400Y-120738600D01*
X55519343Y-133697000D02*
X49062040Y-133697000D01*
%TO.N,Net-(J1-GPIO17)*%
X52070000Y-108077000D02*
X50372293Y-106379293D01*
X47328200Y-95613600D02*
X45626400Y-95613600D01*
X49453800Y-103022400D02*
X49453800Y-97739200D01*
X49453800Y-97739200D02*
X47328200Y-95613600D01*
X45626400Y-95613600D02*
X44475400Y-94462600D01*
X52070000Y-113817400D02*
X52070000Y-108077000D01*
%TD*%
%TA.AperFunction,Conductor*%
%TO.N,GND*%
G36*
X46549475Y-122595593D02*
G01*
X46615301Y-122709607D01*
X46708393Y-122802699D01*
X46822407Y-122868525D01*
X46885989Y-122885562D01*
X46253682Y-123517869D01*
X46253682Y-123517870D01*
X46307852Y-123557226D01*
X46307851Y-123557226D01*
X46316895Y-123561834D01*
X46367692Y-123609808D01*
X46384487Y-123677629D01*
X46361950Y-123743764D01*
X46316899Y-123782802D01*
X46307582Y-123787549D01*
X46135613Y-123912490D01*
X45985290Y-124062813D01*
X45860349Y-124234782D01*
X45855884Y-124243546D01*
X45807909Y-124294342D01*
X45740088Y-124311136D01*
X45673953Y-124288598D01*
X45634916Y-124243546D01*
X45630450Y-124234782D01*
X45505509Y-124062813D01*
X45355186Y-123912490D01*
X45183220Y-123787551D01*
X45182515Y-123787191D01*
X45174454Y-123783085D01*
X45123659Y-123735112D01*
X45106863Y-123667292D01*
X45129399Y-123601156D01*
X45174454Y-123562115D01*
X45183216Y-123557651D01*
X45252819Y-123507082D01*
X45355186Y-123432709D01*
X45355188Y-123432706D01*
X45355192Y-123432704D01*
X45505504Y-123282392D01*
X45505506Y-123282388D01*
X45505509Y-123282386D01*
X45572915Y-123189607D01*
X45630451Y-123110416D01*
X45635193Y-123101108D01*
X45683163Y-123050311D01*
X45750983Y-123033511D01*
X45817119Y-123056045D01*
X45856163Y-123101100D01*
X45860773Y-123110147D01*
X45900128Y-123164316D01*
X46532436Y-122532007D01*
X46549475Y-122595593D01*
G37*
%TD.AperFunction*%
%TA.AperFunction,Conductor*%
G36*
X48720742Y-111676985D02*
G01*
X48741384Y-111693619D01*
X48822425Y-111774660D01*
X48855910Y-111835983D01*
X48856361Y-111838149D01*
X48887261Y-111993491D01*
X48887264Y-111993501D01*
X48947602Y-112139172D01*
X48947609Y-112139185D01*
X49017534Y-112243835D01*
X49038412Y-112310513D01*
X49019927Y-112377893D01*
X49002114Y-112400406D01*
X48959014Y-112443506D01*
X48959010Y-112443511D01*
X48871409Y-112574614D01*
X48871402Y-112574627D01*
X48811064Y-112720298D01*
X48811061Y-112720310D01*
X48780300Y-112874953D01*
X48780300Y-113032646D01*
X48811061Y-113187289D01*
X48811064Y-113187301D01*
X48871402Y-113332972D01*
X48871409Y-113332985D01*
X48959402Y-113464674D01*
X48980280Y-113531351D01*
X48980300Y-113533565D01*
X48980300Y-118624862D01*
X48960615Y-118691901D01*
X48943981Y-118712543D01*
X48402957Y-119253566D01*
X48341634Y-119287051D01*
X48271942Y-119282067D01*
X48216009Y-119240195D01*
X48204791Y-119222180D01*
X48200797Y-119214342D01*
X48170451Y-119154784D01*
X48135216Y-119106287D01*
X48045509Y-118982813D01*
X47895186Y-118832490D01*
X47723217Y-118707549D01*
X47713904Y-118702804D01*
X47663107Y-118654830D01*
X47646312Y-118587009D01*
X47668849Y-118520874D01*
X47713907Y-118481832D01*
X47722955Y-118477222D01*
X47777116Y-118437870D01*
X47777117Y-118437870D01*
X47144808Y-117805562D01*
X47208393Y-117788525D01*
X47322407Y-117722699D01*
X47415499Y-117629607D01*
X47481325Y-117515593D01*
X47498362Y-117452008D01*
X48130670Y-118084317D01*
X48130670Y-118084316D01*
X48170022Y-118030154D01*
X48266495Y-117840817D01*
X48332157Y-117638730D01*
X48332157Y-117638727D01*
X48365400Y-117428846D01*
X48365400Y-117216353D01*
X48332157Y-117006472D01*
X48332157Y-117006469D01*
X48266495Y-116804382D01*
X48170024Y-116615049D01*
X48130670Y-116560882D01*
X48130669Y-116560882D01*
X47498362Y-117193190D01*
X47481325Y-117129607D01*
X47415499Y-117015593D01*
X47322407Y-116922501D01*
X47208393Y-116856675D01*
X47144809Y-116839637D01*
X47777116Y-116207328D01*
X47722947Y-116167973D01*
X47722947Y-116167972D01*
X47713900Y-116163363D01*
X47663106Y-116115388D01*
X47646312Y-116047566D01*
X47668851Y-115981432D01*
X47713908Y-115942393D01*
X47723216Y-115937651D01*
X47847686Y-115847219D01*
X47895186Y-115812709D01*
X47895188Y-115812706D01*
X47895192Y-115812704D01*
X48045504Y-115662392D01*
X48045506Y-115662388D01*
X48045509Y-115662386D01*
X48170448Y-115490420D01*
X48170447Y-115490420D01*
X48170451Y-115490416D01*
X48266957Y-115301012D01*
X48332646Y-115098843D01*
X48365900Y-114888887D01*
X48365900Y-114676313D01*
X48332646Y-114466357D01*
X48266957Y-114264188D01*
X48170451Y-114074784D01*
X48170449Y-114074781D01*
X48170448Y-114074779D01*
X48045509Y-113902813D01*
X47895186Y-113752490D01*
X47723220Y-113627551D01*
X47722515Y-113627191D01*
X47714454Y-113623085D01*
X47663659Y-113575112D01*
X47646863Y-113507292D01*
X47669399Y-113441156D01*
X47714454Y-113402115D01*
X47723216Y-113397651D01*
X47847686Y-113307219D01*
X47895186Y-113272709D01*
X47895188Y-113272706D01*
X47895192Y-113272704D01*
X48045504Y-113122392D01*
X48045506Y-113122388D01*
X48045509Y-113122386D01*
X48170448Y-112950420D01*
X48170450Y-112950417D01*
X48170451Y-112950416D01*
X48266957Y-112761012D01*
X48332646Y-112558843D01*
X48365900Y-112348887D01*
X48365900Y-112136313D01*
X48332646Y-111926357D01*
X48297963Y-111819617D01*
X48297160Y-111791498D01*
X48293157Y-111763653D01*
X48296176Y-111757041D01*
X48295969Y-111749777D01*
X48310495Y-111725687D01*
X48322182Y-111700097D01*
X48328295Y-111696167D01*
X48332049Y-111689944D01*
X48357295Y-111677531D01*
X48380960Y-111662323D01*
X48391230Y-111660846D01*
X48394750Y-111659116D01*
X48415895Y-111657300D01*
X48653703Y-111657300D01*
X48720742Y-111676985D01*
G37*
%TD.AperFunction*%
%TA.AperFunction,Conductor*%
G36*
X46549475Y-117515593D02*
G01*
X46615301Y-117629607D01*
X46708393Y-117722699D01*
X46822407Y-117788525D01*
X46885990Y-117805562D01*
X46253682Y-118437869D01*
X46253682Y-118437870D01*
X46307852Y-118477226D01*
X46307851Y-118477226D01*
X46316895Y-118481834D01*
X46367692Y-118529808D01*
X46384487Y-118597629D01*
X46361950Y-118663764D01*
X46316899Y-118702802D01*
X46307582Y-118707549D01*
X46135613Y-118832490D01*
X45985290Y-118982813D01*
X45860349Y-119154782D01*
X45855884Y-119163546D01*
X45807909Y-119214342D01*
X45740088Y-119231136D01*
X45673953Y-119208598D01*
X45634916Y-119163546D01*
X45630450Y-119154782D01*
X45505509Y-118982813D01*
X45355186Y-118832490D01*
X45183220Y-118707551D01*
X45175375Y-118703554D01*
X45174454Y-118703085D01*
X45123659Y-118655112D01*
X45106863Y-118587292D01*
X45129399Y-118521156D01*
X45174454Y-118482115D01*
X45183216Y-118477651D01*
X45237972Y-118437869D01*
X45355186Y-118352709D01*
X45355188Y-118352706D01*
X45355192Y-118352704D01*
X45505504Y-118202392D01*
X45505506Y-118202388D01*
X45505509Y-118202386D01*
X45591290Y-118084317D01*
X45630451Y-118030416D01*
X45635193Y-118021108D01*
X45683163Y-117970311D01*
X45750983Y-117953511D01*
X45817119Y-117976045D01*
X45856163Y-118021100D01*
X45860773Y-118030147D01*
X45900128Y-118084316D01*
X46532437Y-117452008D01*
X46549475Y-117515593D01*
G37*
%TD.AperFunction*%
%TA.AperFunction,Conductor*%
G36*
X45816844Y-115436599D02*
G01*
X45855886Y-115481656D01*
X45860351Y-115490420D01*
X45985290Y-115662386D01*
X46135613Y-115812709D01*
X46307579Y-115937648D01*
X46307581Y-115937649D01*
X46307584Y-115937651D01*
X46316893Y-115942394D01*
X46367690Y-115990366D01*
X46384487Y-116058187D01*
X46361952Y-116124322D01*
X46316905Y-116163360D01*
X46307846Y-116167976D01*
X46307840Y-116167980D01*
X46253682Y-116207327D01*
X46253682Y-116207328D01*
X46885991Y-116839637D01*
X46822407Y-116856675D01*
X46708393Y-116922501D01*
X46615301Y-117015593D01*
X46549475Y-117129607D01*
X46532437Y-117193191D01*
X45900128Y-116560882D01*
X45900127Y-116560882D01*
X45860780Y-116615040D01*
X45860776Y-116615046D01*
X45856160Y-116624105D01*
X45808181Y-116674897D01*
X45740359Y-116691687D01*
X45674226Y-116669143D01*
X45635194Y-116624093D01*
X45630451Y-116614784D01*
X45630449Y-116614781D01*
X45630448Y-116614779D01*
X45505509Y-116442813D01*
X45355186Y-116292490D01*
X45183220Y-116167551D01*
X45175000Y-116163363D01*
X45174454Y-116163085D01*
X45123659Y-116115112D01*
X45106863Y-116047292D01*
X45129399Y-115981156D01*
X45174454Y-115942115D01*
X45183216Y-115937651D01*
X45205189Y-115921686D01*
X45355186Y-115812709D01*
X45355188Y-115812706D01*
X45355192Y-115812704D01*
X45505504Y-115662392D01*
X45505506Y-115662388D01*
X45505509Y-115662386D01*
X45630448Y-115490420D01*
X45630447Y-115490420D01*
X45630451Y-115490416D01*
X45634914Y-115481654D01*
X45682888Y-115430859D01*
X45750708Y-115414063D01*
X45816844Y-115436599D01*
G37*
%TD.AperFunction*%
%TA.AperFunction,Conductor*%
G36*
X45590670Y-113004317D02*
G01*
X45590670Y-113004316D01*
X45630022Y-112950155D01*
X45634632Y-112941107D01*
X45682605Y-112890309D01*
X45750425Y-112873512D01*
X45816561Y-112896047D01*
X45855604Y-112941104D01*
X45860349Y-112950417D01*
X45985290Y-113122386D01*
X46135613Y-113272709D01*
X46307582Y-113397650D01*
X46316346Y-113402116D01*
X46367142Y-113450091D01*
X46383936Y-113517912D01*
X46361398Y-113584047D01*
X46316346Y-113623084D01*
X46307582Y-113627549D01*
X46135613Y-113752490D01*
X45985290Y-113902813D01*
X45860349Y-114074782D01*
X45855884Y-114083546D01*
X45807909Y-114134342D01*
X45740088Y-114151136D01*
X45673953Y-114128598D01*
X45634916Y-114083546D01*
X45630450Y-114074782D01*
X45505509Y-113902813D01*
X45355186Y-113752490D01*
X45183217Y-113627549D01*
X45173904Y-113622804D01*
X45123107Y-113574830D01*
X45106312Y-113507009D01*
X45128849Y-113440874D01*
X45173907Y-113401832D01*
X45182955Y-113397222D01*
X45237116Y-113357870D01*
X45237117Y-113357870D01*
X44604808Y-112725562D01*
X44668393Y-112708525D01*
X44782407Y-112642699D01*
X44875499Y-112549607D01*
X44941325Y-112435593D01*
X44958362Y-112372008D01*
X45590670Y-113004317D01*
G37*
%TD.AperFunction*%
%TA.AperFunction,Conductor*%
G36*
X46549475Y-104815593D02*
G01*
X46615301Y-104929607D01*
X46708393Y-105022699D01*
X46822407Y-105088525D01*
X46885990Y-105105562D01*
X46253682Y-105737869D01*
X46253682Y-105737870D01*
X46307852Y-105777226D01*
X46307851Y-105777226D01*
X46316895Y-105781834D01*
X46367692Y-105829808D01*
X46384487Y-105897629D01*
X46361950Y-105963764D01*
X46316899Y-106002802D01*
X46307582Y-106007549D01*
X46135613Y-106132490D01*
X45985290Y-106282813D01*
X45860349Y-106454782D01*
X45855884Y-106463546D01*
X45807909Y-106514342D01*
X45740088Y-106531136D01*
X45673953Y-106508598D01*
X45634916Y-106463546D01*
X45630450Y-106454782D01*
X45505509Y-106282813D01*
X45355186Y-106132490D01*
X45183220Y-106007551D01*
X45182515Y-106007191D01*
X45174454Y-106003085D01*
X45123659Y-105955112D01*
X45106863Y-105887292D01*
X45129399Y-105821156D01*
X45174454Y-105782115D01*
X45183216Y-105777651D01*
X45297684Y-105694486D01*
X45355186Y-105652709D01*
X45355188Y-105652706D01*
X45355192Y-105652704D01*
X45505504Y-105502392D01*
X45505506Y-105502388D01*
X45505509Y-105502386D01*
X45580205Y-105399574D01*
X45630451Y-105330416D01*
X45635193Y-105321108D01*
X45683163Y-105270311D01*
X45750983Y-105253511D01*
X45817119Y-105276045D01*
X45856163Y-105321100D01*
X45860773Y-105330147D01*
X45900128Y-105384316D01*
X46532437Y-104752008D01*
X46549475Y-104815593D01*
G37*
%TD.AperFunction*%
%TA.AperFunction,Conductor*%
G36*
X48130670Y-97764317D02*
G01*
X48130670Y-97764316D01*
X48170022Y-97710154D01*
X48229411Y-97593598D01*
X48277385Y-97542802D01*
X48345206Y-97526007D01*
X48411341Y-97548544D01*
X48427577Y-97562212D01*
X48816981Y-97951616D01*
X48850466Y-98012939D01*
X48853300Y-98039297D01*
X48853300Y-102442634D01*
X48833615Y-102509673D01*
X48832402Y-102511525D01*
X48744409Y-102643214D01*
X48744402Y-102643227D01*
X48684064Y-102788898D01*
X48684061Y-102788910D01*
X48653300Y-102943553D01*
X48653300Y-103101246D01*
X48684061Y-103255889D01*
X48684064Y-103255901D01*
X48744402Y-103401572D01*
X48744409Y-103401585D01*
X48832010Y-103532688D01*
X48832013Y-103532692D01*
X48943507Y-103644186D01*
X48943511Y-103644189D01*
X49074614Y-103731790D01*
X49074627Y-103731797D01*
X49220298Y-103792135D01*
X49220303Y-103792137D01*
X49256617Y-103799360D01*
X49318526Y-103831744D01*
X49353101Y-103892459D01*
X49349362Y-103962228D01*
X49320106Y-104008658D01*
X48577081Y-104751683D01*
X48515758Y-104785168D01*
X48446066Y-104780184D01*
X48390133Y-104738312D01*
X48365716Y-104672848D01*
X48365400Y-104664002D01*
X48365400Y-104516353D01*
X48332157Y-104306472D01*
X48332157Y-104306469D01*
X48266495Y-104104382D01*
X48170024Y-103915049D01*
X48130670Y-103860882D01*
X48130669Y-103860882D01*
X47498362Y-104493190D01*
X47481325Y-104429607D01*
X47415499Y-104315593D01*
X47322407Y-104222501D01*
X47208393Y-104156675D01*
X47144809Y-104139637D01*
X47777116Y-103507328D01*
X47722947Y-103467973D01*
X47722947Y-103467972D01*
X47713900Y-103463363D01*
X47663106Y-103415388D01*
X47646312Y-103347566D01*
X47668851Y-103281432D01*
X47713908Y-103242393D01*
X47723216Y-103237651D01*
X47847686Y-103147219D01*
X47895186Y-103112709D01*
X47895188Y-103112706D01*
X47895192Y-103112704D01*
X48045504Y-102962392D01*
X48045506Y-102962388D01*
X48045509Y-102962386D01*
X48170448Y-102790420D01*
X48170447Y-102790420D01*
X48170451Y-102790416D01*
X48266957Y-102601012D01*
X48332646Y-102398843D01*
X48365900Y-102188887D01*
X48365900Y-101976313D01*
X48332646Y-101766357D01*
X48266957Y-101564188D01*
X48170451Y-101374784D01*
X48170449Y-101374781D01*
X48170448Y-101374779D01*
X48045509Y-101202813D01*
X47895186Y-101052490D01*
X47723220Y-100927551D01*
X47722515Y-100927191D01*
X47714454Y-100923085D01*
X47663659Y-100875112D01*
X47646863Y-100807292D01*
X47669399Y-100741156D01*
X47714454Y-100702115D01*
X47723216Y-100697651D01*
X47745189Y-100681686D01*
X47895186Y-100572709D01*
X47895188Y-100572706D01*
X47895192Y-100572704D01*
X48045504Y-100422392D01*
X48045506Y-100422388D01*
X48045509Y-100422386D01*
X48154486Y-100272389D01*
X48170451Y-100250416D01*
X48266957Y-100061012D01*
X48332646Y-99858843D01*
X48365900Y-99648887D01*
X48365900Y-99436313D01*
X48332646Y-99226357D01*
X48266957Y-99024188D01*
X48170451Y-98834784D01*
X48170449Y-98834781D01*
X48170448Y-98834779D01*
X48045509Y-98662813D01*
X47895186Y-98512490D01*
X47723217Y-98387549D01*
X47713904Y-98382804D01*
X47663107Y-98334830D01*
X47646312Y-98267009D01*
X47668849Y-98200874D01*
X47713907Y-98161832D01*
X47722955Y-98157222D01*
X47777116Y-98117870D01*
X47777117Y-98117870D01*
X47144808Y-97485562D01*
X47208393Y-97468525D01*
X47322407Y-97402699D01*
X47415499Y-97309607D01*
X47481325Y-97195593D01*
X47498362Y-97132009D01*
X48130670Y-97764317D01*
G37*
%TD.AperFunction*%
%TA.AperFunction,Conductor*%
G36*
X45816844Y-102736599D02*
G01*
X45855886Y-102781656D01*
X45860351Y-102790420D01*
X45985290Y-102962386D01*
X46135613Y-103112709D01*
X46307579Y-103237648D01*
X46307581Y-103237649D01*
X46307584Y-103237651D01*
X46316893Y-103242394D01*
X46367690Y-103290366D01*
X46384487Y-103358187D01*
X46361952Y-103424322D01*
X46316905Y-103463360D01*
X46307846Y-103467976D01*
X46307840Y-103467980D01*
X46253682Y-103507327D01*
X46253682Y-103507328D01*
X46885991Y-104139637D01*
X46822407Y-104156675D01*
X46708393Y-104222501D01*
X46615301Y-104315593D01*
X46549475Y-104429607D01*
X46532437Y-104493191D01*
X45900128Y-103860882D01*
X45900127Y-103860882D01*
X45860780Y-103915040D01*
X45860776Y-103915046D01*
X45856160Y-103924105D01*
X45808181Y-103974897D01*
X45740359Y-103991687D01*
X45674226Y-103969143D01*
X45635194Y-103924093D01*
X45630451Y-103914784D01*
X45630449Y-103914781D01*
X45630448Y-103914779D01*
X45505509Y-103742813D01*
X45355186Y-103592490D01*
X45183220Y-103467551D01*
X45175000Y-103463363D01*
X45174454Y-103463085D01*
X45123659Y-103415112D01*
X45106863Y-103347292D01*
X45129399Y-103281156D01*
X45174454Y-103242115D01*
X45183216Y-103237651D01*
X45224281Y-103207816D01*
X45355186Y-103112709D01*
X45355188Y-103112706D01*
X45355192Y-103112704D01*
X45505504Y-102962392D01*
X45505506Y-102962388D01*
X45505509Y-102962386D01*
X45630448Y-102790420D01*
X45630447Y-102790420D01*
X45630451Y-102790416D01*
X45634914Y-102781654D01*
X45682888Y-102730859D01*
X45750708Y-102714063D01*
X45816844Y-102736599D01*
G37*
%TD.AperFunction*%
%TA.AperFunction,Conductor*%
G36*
X46549475Y-97195593D02*
G01*
X46615301Y-97309607D01*
X46708393Y-97402699D01*
X46822407Y-97468525D01*
X46885990Y-97485562D01*
X46253682Y-98117869D01*
X46253682Y-98117870D01*
X46307852Y-98157226D01*
X46307851Y-98157226D01*
X46316895Y-98161834D01*
X46367692Y-98209808D01*
X46384487Y-98277629D01*
X46361950Y-98343764D01*
X46316899Y-98382802D01*
X46307582Y-98387549D01*
X46135613Y-98512490D01*
X45985290Y-98662813D01*
X45860349Y-98834782D01*
X45855884Y-98843546D01*
X45807909Y-98894342D01*
X45740088Y-98911136D01*
X45673953Y-98888598D01*
X45634916Y-98843546D01*
X45630450Y-98834782D01*
X45505509Y-98662813D01*
X45355186Y-98512490D01*
X45183220Y-98387551D01*
X45182515Y-98387191D01*
X45174454Y-98383085D01*
X45123659Y-98335112D01*
X45106863Y-98267292D01*
X45129399Y-98201156D01*
X45174454Y-98162115D01*
X45183216Y-98157651D01*
X45237972Y-98117869D01*
X45355186Y-98032709D01*
X45355188Y-98032706D01*
X45355192Y-98032704D01*
X45505504Y-97882392D01*
X45505506Y-97882388D01*
X45505509Y-97882386D01*
X45591290Y-97764317D01*
X45630451Y-97710416D01*
X45635193Y-97701108D01*
X45683163Y-97650311D01*
X45750983Y-97633511D01*
X45817119Y-97656045D01*
X45856163Y-97701100D01*
X45860773Y-97710147D01*
X45900128Y-97764316D01*
X46532436Y-97132007D01*
X46549475Y-97195593D01*
G37*
%TD.AperFunction*%
%TA.AperFunction,Conductor*%
G36*
X45590670Y-92684317D02*
G01*
X45590670Y-92684316D01*
X45630022Y-92630155D01*
X45634632Y-92621107D01*
X45682605Y-92570309D01*
X45750425Y-92553512D01*
X45816561Y-92576047D01*
X45855604Y-92621104D01*
X45860349Y-92630417D01*
X45985290Y-92802386D01*
X46135613Y-92952709D01*
X46307582Y-93077650D01*
X46316346Y-93082116D01*
X46367142Y-93130091D01*
X46383936Y-93197912D01*
X46361398Y-93264047D01*
X46316346Y-93303084D01*
X46307582Y-93307549D01*
X46135613Y-93432490D01*
X45985290Y-93582813D01*
X45860349Y-93754782D01*
X45855884Y-93763546D01*
X45807909Y-93814342D01*
X45740088Y-93831136D01*
X45673953Y-93808598D01*
X45634916Y-93763546D01*
X45630450Y-93754782D01*
X45505509Y-93582813D01*
X45355186Y-93432490D01*
X45183217Y-93307549D01*
X45173904Y-93302804D01*
X45123107Y-93254830D01*
X45106312Y-93187009D01*
X45128849Y-93120874D01*
X45173907Y-93081832D01*
X45182955Y-93077222D01*
X45237116Y-93037870D01*
X45237117Y-93037870D01*
X44604809Y-92405562D01*
X44668393Y-92388525D01*
X44782407Y-92322699D01*
X44875499Y-92229607D01*
X44941325Y-92115593D01*
X44958362Y-92052008D01*
X45590670Y-92684317D01*
G37*
%TD.AperFunction*%
%TA.AperFunction,Conductor*%
G36*
X45816844Y-90036599D02*
G01*
X45855886Y-90081656D01*
X45860351Y-90090420D01*
X45985290Y-90262386D01*
X46135613Y-90412709D01*
X46307582Y-90537650D01*
X46316346Y-90542116D01*
X46367142Y-90590091D01*
X46383936Y-90657912D01*
X46361398Y-90724047D01*
X46316346Y-90763084D01*
X46307582Y-90767549D01*
X46135613Y-90892490D01*
X45985290Y-91042813D01*
X45860349Y-91214782D01*
X45855602Y-91224099D01*
X45807627Y-91274893D01*
X45739805Y-91291687D01*
X45673671Y-91269148D01*
X45634634Y-91224095D01*
X45630026Y-91215052D01*
X45590670Y-91160882D01*
X45590669Y-91160882D01*
X44958362Y-91793190D01*
X44941325Y-91729607D01*
X44875499Y-91615593D01*
X44782407Y-91522501D01*
X44668393Y-91456675D01*
X44604807Y-91439636D01*
X45237116Y-90807328D01*
X45182947Y-90767973D01*
X45182947Y-90767972D01*
X45173900Y-90763363D01*
X45123106Y-90715388D01*
X45106312Y-90647566D01*
X45128851Y-90581432D01*
X45173908Y-90542393D01*
X45183216Y-90537651D01*
X45262407Y-90480115D01*
X45355186Y-90412709D01*
X45355188Y-90412706D01*
X45355192Y-90412704D01*
X45505504Y-90262392D01*
X45505506Y-90262388D01*
X45505509Y-90262386D01*
X45630448Y-90090420D01*
X45630447Y-90090420D01*
X45630451Y-90090416D01*
X45634914Y-90081654D01*
X45682888Y-90030859D01*
X45750708Y-90014063D01*
X45816844Y-90036599D01*
G37*
%TD.AperFunction*%
%TA.AperFunction,Conductor*%
G36*
X46549475Y-87035593D02*
G01*
X46615301Y-87149607D01*
X46708393Y-87242699D01*
X46822407Y-87308525D01*
X46885990Y-87325562D01*
X46253682Y-87957869D01*
X46253682Y-87957870D01*
X46307852Y-87997226D01*
X46307851Y-87997226D01*
X46316895Y-88001834D01*
X46367692Y-88049808D01*
X46384487Y-88117629D01*
X46361950Y-88183764D01*
X46316899Y-88222802D01*
X46307582Y-88227549D01*
X46135613Y-88352490D01*
X45985290Y-88502813D01*
X45860349Y-88674782D01*
X45855884Y-88683546D01*
X45807909Y-88734342D01*
X45740088Y-88751136D01*
X45673953Y-88728598D01*
X45634916Y-88683546D01*
X45630450Y-88674782D01*
X45505509Y-88502813D01*
X45355186Y-88352490D01*
X45183220Y-88227551D01*
X45182515Y-88227191D01*
X45174454Y-88223085D01*
X45123659Y-88175112D01*
X45106863Y-88107292D01*
X45129399Y-88041156D01*
X45174454Y-88002115D01*
X45183216Y-87997651D01*
X45280735Y-87926800D01*
X45355186Y-87872709D01*
X45355188Y-87872706D01*
X45355192Y-87872704D01*
X45505504Y-87722392D01*
X45505506Y-87722388D01*
X45505509Y-87722386D01*
X45591290Y-87604317D01*
X45630451Y-87550416D01*
X45635193Y-87541108D01*
X45683163Y-87490311D01*
X45750983Y-87473511D01*
X45817119Y-87496045D01*
X45856163Y-87541100D01*
X45860773Y-87550147D01*
X45900128Y-87604316D01*
X46532437Y-86972008D01*
X46549475Y-87035593D01*
G37*
%TD.AperFunction*%
%TA.AperFunction,Conductor*%
G36*
X45816844Y-84956599D02*
G01*
X45855886Y-85001656D01*
X45860351Y-85010420D01*
X45985290Y-85182386D01*
X46135613Y-85332709D01*
X46307579Y-85457648D01*
X46307581Y-85457649D01*
X46307584Y-85457651D01*
X46316893Y-85462394D01*
X46367690Y-85510366D01*
X46384487Y-85578187D01*
X46361952Y-85644322D01*
X46316905Y-85683360D01*
X46307846Y-85687976D01*
X46307840Y-85687980D01*
X46253682Y-85727327D01*
X46253682Y-85727328D01*
X46885991Y-86359637D01*
X46822407Y-86376675D01*
X46708393Y-86442501D01*
X46615301Y-86535593D01*
X46549475Y-86649607D01*
X46532437Y-86713191D01*
X45900128Y-86080882D01*
X45900127Y-86080882D01*
X45860780Y-86135040D01*
X45860776Y-86135046D01*
X45856160Y-86144105D01*
X45808181Y-86194897D01*
X45740359Y-86211687D01*
X45674226Y-86189143D01*
X45635194Y-86144093D01*
X45630451Y-86134784D01*
X45630449Y-86134781D01*
X45630448Y-86134779D01*
X45505509Y-85962813D01*
X45355186Y-85812490D01*
X45183220Y-85687551D01*
X45175000Y-85683363D01*
X45174454Y-85683085D01*
X45123659Y-85635112D01*
X45106863Y-85567292D01*
X45129399Y-85501156D01*
X45174454Y-85462115D01*
X45183216Y-85457651D01*
X45207476Y-85440025D01*
X45355186Y-85332709D01*
X45355188Y-85332706D01*
X45355192Y-85332704D01*
X45505504Y-85182392D01*
X45505506Y-85182388D01*
X45505509Y-85182386D01*
X45630448Y-85010420D01*
X45630447Y-85010420D01*
X45630451Y-85010416D01*
X45634914Y-85001654D01*
X45682888Y-84950859D01*
X45750708Y-84934063D01*
X45816844Y-84956599D01*
G37*
%TD.AperFunction*%
%TA.AperFunction,Conductor*%
G36*
X104488766Y-69520185D02*
G01*
X104534521Y-69572989D01*
X104544465Y-69642147D01*
X104515440Y-69705703D01*
X104490618Y-69727602D01*
X104394410Y-69791886D01*
X104394406Y-69791889D01*
X104262089Y-69924206D01*
X104262086Y-69924210D01*
X104158124Y-70079799D01*
X104158119Y-70079808D01*
X104086508Y-70252694D01*
X104086506Y-70252702D01*
X104050000Y-70436228D01*
X104050000Y-70629800D01*
X104750000Y-70629800D01*
X104750000Y-71129800D01*
X104050000Y-71129800D01*
X104050000Y-71323371D01*
X104086506Y-71506897D01*
X104086508Y-71506905D01*
X104158119Y-71679791D01*
X104158124Y-71679800D01*
X104262086Y-71835389D01*
X104262089Y-71835393D01*
X104394406Y-71967710D01*
X104394410Y-71967713D01*
X104549999Y-72071675D01*
X104550012Y-72071682D01*
X104722889Y-72143289D01*
X104722896Y-72143291D01*
X104750000Y-72148682D01*
X104750000Y-71279528D01*
X104788060Y-71371414D01*
X104858386Y-71441740D01*
X104950272Y-71479800D01*
X105049728Y-71479800D01*
X105141614Y-71441740D01*
X105211940Y-71371414D01*
X105250000Y-71279528D01*
X105250000Y-72148681D01*
X105277103Y-72143291D01*
X105277110Y-72143289D01*
X105449987Y-72071682D01*
X105450000Y-72071675D01*
X105605589Y-71967713D01*
X105605593Y-71967710D01*
X105737910Y-71835393D01*
X105737913Y-71835389D01*
X105841875Y-71679800D01*
X105841880Y-71679791D01*
X105913491Y-71506905D01*
X105913493Y-71506897D01*
X105949999Y-71323371D01*
X105950000Y-71323369D01*
X105950000Y-71129800D01*
X105250000Y-71129800D01*
X105250000Y-70629800D01*
X105950000Y-70629800D01*
X105950000Y-70436230D01*
X105949999Y-70436228D01*
X105913493Y-70252702D01*
X105913491Y-70252694D01*
X105841880Y-70079808D01*
X105841875Y-70079799D01*
X105737913Y-69924210D01*
X105737910Y-69924206D01*
X105605593Y-69791889D01*
X105605589Y-69791886D01*
X105509382Y-69727602D01*
X105464577Y-69673990D01*
X105455870Y-69604665D01*
X105486025Y-69541637D01*
X105545468Y-69504918D01*
X105578273Y-69500500D01*
X111021727Y-69500500D01*
X111088766Y-69520185D01*
X111134521Y-69572989D01*
X111144465Y-69642147D01*
X111115440Y-69705703D01*
X111090618Y-69727602D01*
X110994410Y-69791886D01*
X110994406Y-69791889D01*
X110862089Y-69924206D01*
X110862086Y-69924210D01*
X110758124Y-70079799D01*
X110758119Y-70079808D01*
X110686508Y-70252694D01*
X110686506Y-70252702D01*
X110650000Y-70436228D01*
X110650000Y-70629800D01*
X111350000Y-70629800D01*
X111350000Y-71129800D01*
X110650000Y-71129800D01*
X110650000Y-71323371D01*
X110686506Y-71506897D01*
X110686508Y-71506905D01*
X110758119Y-71679791D01*
X110758124Y-71679800D01*
X110862086Y-71835389D01*
X110862089Y-71835393D01*
X110994406Y-71967710D01*
X110994410Y-71967713D01*
X111149999Y-72071675D01*
X111150012Y-72071682D01*
X111322889Y-72143289D01*
X111322896Y-72143291D01*
X111350000Y-72148682D01*
X111350000Y-71279528D01*
X111388060Y-71371414D01*
X111458386Y-71441740D01*
X111550272Y-71479800D01*
X111649728Y-71479800D01*
X111741614Y-71441740D01*
X111811940Y-71371414D01*
X111850000Y-71279528D01*
X111850000Y-72148681D01*
X111877103Y-72143291D01*
X111877110Y-72143289D01*
X112049987Y-72071682D01*
X112050000Y-72071675D01*
X112205589Y-71967713D01*
X112205593Y-71967710D01*
X112337910Y-71835393D01*
X112337913Y-71835389D01*
X112441875Y-71679800D01*
X112441880Y-71679791D01*
X112513491Y-71506905D01*
X112513493Y-71506897D01*
X112549999Y-71323371D01*
X112550000Y-71323369D01*
X112550000Y-71129800D01*
X111850000Y-71129800D01*
X111850000Y-70629800D01*
X112550000Y-70629800D01*
X112550000Y-70436230D01*
X112549999Y-70436228D01*
X112513493Y-70252702D01*
X112513491Y-70252694D01*
X112441880Y-70079808D01*
X112441875Y-70079799D01*
X112337913Y-69924210D01*
X112337910Y-69924206D01*
X112205593Y-69791889D01*
X112205589Y-69791886D01*
X112109382Y-69727602D01*
X112064577Y-69673990D01*
X112055870Y-69604665D01*
X112086025Y-69541637D01*
X112145468Y-69504918D01*
X112178273Y-69500500D01*
X133856300Y-69500500D01*
X133923339Y-69520185D01*
X133969094Y-69572989D01*
X133980300Y-69624500D01*
X133980300Y-135489300D01*
X133960615Y-135556339D01*
X133907811Y-135602094D01*
X133856300Y-135613300D01*
X40624500Y-135613300D01*
X40557461Y-135593615D01*
X40511706Y-135540811D01*
X40500500Y-135489300D01*
X40500500Y-100917054D01*
X42630298Y-100917054D01*
X42630299Y-100917057D01*
X42671223Y-101069785D01*
X42685063Y-101093757D01*
X42685653Y-101094778D01*
X42685654Y-101094780D01*
X42750277Y-101206712D01*
X42750281Y-101206717D01*
X42869149Y-101325585D01*
X42869155Y-101325590D01*
X43141641Y-101598076D01*
X43175126Y-101659399D01*
X43171892Y-101724073D01*
X43158153Y-101766357D01*
X43124900Y-101976313D01*
X43124900Y-102188886D01*
X43155346Y-102381118D01*
X43158154Y-102398843D01*
X43213609Y-102569516D01*
X43223844Y-102601014D01*
X43320351Y-102790420D01*
X43445290Y-102962386D01*
X43595613Y-103112709D01*
X43767582Y-103237650D01*
X43776346Y-103242116D01*
X43827142Y-103290091D01*
X43843936Y-103357912D01*
X43821398Y-103424047D01*
X43776346Y-103463084D01*
X43767582Y-103467549D01*
X43595613Y-103592490D01*
X43445290Y-103742813D01*
X43320351Y-103914779D01*
X43223844Y-104104185D01*
X43158153Y-104306360D01*
X43129471Y-104487453D01*
X43124900Y-104516313D01*
X43124900Y-104728887D01*
X43158154Y-104938843D01*
X43223242Y-105139163D01*
X43223844Y-105141014D01*
X43320351Y-105330420D01*
X43445290Y-105502386D01*
X43595613Y-105652709D01*
X43767582Y-105777650D01*
X43776346Y-105782116D01*
X43827142Y-105830091D01*
X43843936Y-105897912D01*
X43821398Y-105964047D01*
X43776346Y-106003084D01*
X43767582Y-106007549D01*
X43595613Y-106132490D01*
X43445290Y-106282813D01*
X43320351Y-106454779D01*
X43223844Y-106644185D01*
X43158153Y-106846360D01*
X43124900Y-107056313D01*
X43124900Y-107268886D01*
X43150911Y-107433116D01*
X43158154Y-107478843D01*
X43206776Y-107628486D01*
X43223844Y-107681014D01*
X43320351Y-107870420D01*
X43445290Y-108042386D01*
X43595613Y-108192709D01*
X43767582Y-108317650D01*
X43776346Y-108322116D01*
X43827142Y-108370091D01*
X43843936Y-108437912D01*
X43821398Y-108504047D01*
X43776346Y-108543084D01*
X43767582Y-108547549D01*
X43595613Y-108672490D01*
X43445290Y-108822813D01*
X43320351Y-108994779D01*
X43223844Y-109184185D01*
X43158153Y-109386360D01*
X43131550Y-109554328D01*
X43124900Y-109596313D01*
X43124900Y-109808887D01*
X43126288Y-109817648D01*
X43157156Y-110012547D01*
X43158154Y-110018843D01*
X43213609Y-110189516D01*
X43223844Y-110221014D01*
X43320351Y-110410420D01*
X43445290Y-110582386D01*
X43595613Y-110732709D01*
X43767579Y-110857648D01*
X43767581Y-110857649D01*
X43767584Y-110857651D01*
X43776893Y-110862394D01*
X43827690Y-110910366D01*
X43844487Y-110978187D01*
X43821952Y-111044322D01*
X43776905Y-111083360D01*
X43767846Y-111087976D01*
X43767840Y-111087980D01*
X43713682Y-111127327D01*
X43713682Y-111127328D01*
X44345991Y-111759637D01*
X44282407Y-111776675D01*
X44168393Y-111842501D01*
X44075301Y-111935593D01*
X44009475Y-112049607D01*
X43992437Y-112113191D01*
X43360128Y-111480882D01*
X43360127Y-111480882D01*
X43320780Y-111535039D01*
X43224304Y-111724382D01*
X43158642Y-111926469D01*
X43158642Y-111926472D01*
X43125400Y-112136353D01*
X43125400Y-112348846D01*
X43158642Y-112558727D01*
X43158642Y-112558730D01*
X43224304Y-112760817D01*
X43320775Y-112950150D01*
X43360128Y-113004316D01*
X43992437Y-112372008D01*
X44009475Y-112435593D01*
X44075301Y-112549607D01*
X44168393Y-112642699D01*
X44282407Y-112708525D01*
X44345990Y-112725562D01*
X43713682Y-113357869D01*
X43713682Y-113357870D01*
X43767852Y-113397226D01*
X43767851Y-113397226D01*
X43776895Y-113401834D01*
X43827692Y-113449808D01*
X43844487Y-113517629D01*
X43821950Y-113583764D01*
X43776899Y-113622802D01*
X43767582Y-113627549D01*
X43595613Y-113752490D01*
X43445290Y-113902813D01*
X43320351Y-114074779D01*
X43223844Y-114264185D01*
X43158153Y-114466360D01*
X43124900Y-114676313D01*
X43124900Y-114888886D01*
X43152778Y-115064905D01*
X43158154Y-115098843D01*
X43176050Y-115153922D01*
X43223844Y-115301014D01*
X43320351Y-115490420D01*
X43445290Y-115662386D01*
X43595613Y-115812709D01*
X43767582Y-115937650D01*
X43776346Y-115942116D01*
X43827142Y-115990091D01*
X43843936Y-116057912D01*
X43821398Y-116124047D01*
X43776346Y-116163084D01*
X43767582Y-116167549D01*
X43595613Y-116292490D01*
X43445290Y-116442813D01*
X43320351Y-116614779D01*
X43223844Y-116804185D01*
X43158153Y-117006360D01*
X43124900Y-117216313D01*
X43124900Y-117428886D01*
X43158135Y-117638727D01*
X43158154Y-117638843D01*
X43213609Y-117809516D01*
X43223844Y-117841014D01*
X43320351Y-118030420D01*
X43445290Y-118202386D01*
X43595613Y-118352709D01*
X43767582Y-118477650D01*
X43776346Y-118482116D01*
X43827142Y-118530091D01*
X43843936Y-118597912D01*
X43821398Y-118664047D01*
X43776346Y-118703084D01*
X43767582Y-118707549D01*
X43595613Y-118832490D01*
X43445290Y-118982813D01*
X43320351Y-119154779D01*
X43223844Y-119344185D01*
X43158153Y-119546360D01*
X43124900Y-119756313D01*
X43124900Y-119968886D01*
X43154385Y-120155051D01*
X43158154Y-120178843D01*
X43219334Y-120367136D01*
X43223844Y-120381014D01*
X43320351Y-120570420D01*
X43445290Y-120742386D01*
X43595613Y-120892709D01*
X43767582Y-121017650D01*
X43776346Y-121022116D01*
X43827142Y-121070091D01*
X43843936Y-121137912D01*
X43821398Y-121204047D01*
X43776346Y-121243084D01*
X43767582Y-121247549D01*
X43595613Y-121372490D01*
X43445290Y-121522813D01*
X43320351Y-121694779D01*
X43223844Y-121884185D01*
X43158153Y-122086360D01*
X43124900Y-122296313D01*
X43124900Y-122508886D01*
X43155248Y-122700500D01*
X43158154Y-122718843D01*
X43171562Y-122760109D01*
X43223844Y-122921014D01*
X43320351Y-123110420D01*
X43445290Y-123282386D01*
X43595613Y-123432709D01*
X43767582Y-123557650D01*
X43776346Y-123562116D01*
X43827142Y-123610091D01*
X43843936Y-123677912D01*
X43821398Y-123744047D01*
X43776346Y-123783084D01*
X43767582Y-123787549D01*
X43595613Y-123912490D01*
X43445290Y-124062813D01*
X43320351Y-124234779D01*
X43223844Y-124424185D01*
X43158153Y-124626360D01*
X43124900Y-124836313D01*
X43124900Y-125048886D01*
X43150668Y-125211583D01*
X43158154Y-125258843D01*
X43199697Y-125386700D01*
X43223844Y-125461014D01*
X43320351Y-125650420D01*
X43445290Y-125822386D01*
X43595613Y-125972709D01*
X43767582Y-126097650D01*
X43776346Y-126102116D01*
X43827142Y-126150091D01*
X43843936Y-126217912D01*
X43821398Y-126284047D01*
X43776346Y-126323084D01*
X43767582Y-126327549D01*
X43595613Y-126452490D01*
X43445290Y-126602813D01*
X43320351Y-126774779D01*
X43223844Y-126964185D01*
X43158153Y-127166360D01*
X43124900Y-127376313D01*
X43124900Y-127588886D01*
X43158153Y-127798839D01*
X43223844Y-128001014D01*
X43320351Y-128190420D01*
X43445290Y-128362386D01*
X43595613Y-128512709D01*
X43767579Y-128637648D01*
X43767581Y-128637649D01*
X43767584Y-128637651D01*
X43776893Y-128642394D01*
X43827690Y-128690366D01*
X43844487Y-128758187D01*
X43821952Y-128824322D01*
X43776905Y-128863360D01*
X43767846Y-128867976D01*
X43767840Y-128867980D01*
X43713682Y-128907327D01*
X43713682Y-128907328D01*
X44345991Y-129539637D01*
X44282407Y-129556675D01*
X44168393Y-129622501D01*
X44075301Y-129715593D01*
X44009475Y-129829607D01*
X43992437Y-129893191D01*
X43360128Y-129260882D01*
X43360127Y-129260882D01*
X43320780Y-129315039D01*
X43224304Y-129504382D01*
X43158642Y-129706469D01*
X43158642Y-129706472D01*
X43125400Y-129916353D01*
X43125400Y-130128846D01*
X43158642Y-130338727D01*
X43158642Y-130338730D01*
X43224304Y-130540817D01*
X43320775Y-130730150D01*
X43360128Y-130784316D01*
X43992437Y-130152008D01*
X44009475Y-130215593D01*
X44075301Y-130329607D01*
X44168393Y-130422699D01*
X44282407Y-130488525D01*
X44345990Y-130505562D01*
X43713682Y-131137869D01*
X43713682Y-131137870D01*
X43767849Y-131177224D01*
X43957182Y-131273695D01*
X44159270Y-131339357D01*
X44369154Y-131372600D01*
X44581646Y-131372600D01*
X44791527Y-131339357D01*
X44791530Y-131339357D01*
X44993617Y-131273695D01*
X45182954Y-131177222D01*
X45237116Y-131137870D01*
X45237117Y-131137870D01*
X44604808Y-130505562D01*
X44668393Y-130488525D01*
X44782407Y-130422699D01*
X44875499Y-130329607D01*
X44941325Y-130215593D01*
X44958362Y-130152008D01*
X45227580Y-130421226D01*
X45261065Y-130482549D01*
X45263899Y-130508907D01*
X45263899Y-130578414D01*
X45263898Y-130578414D01*
X45283080Y-130650000D01*
X45304823Y-130731145D01*
X45318580Y-130754973D01*
X45333758Y-130781260D01*
X45333759Y-130781264D01*
X45333760Y-130781264D01*
X45383879Y-130868074D01*
X45383881Y-130868077D01*
X45502749Y-130986945D01*
X45502755Y-130986950D01*
X48577179Y-134061374D01*
X48577189Y-134061385D01*
X48581519Y-134065715D01*
X48581520Y-134065716D01*
X48693324Y-134177520D01*
X48780135Y-134227639D01*
X48780137Y-134227641D01*
X48818191Y-134249611D01*
X48830255Y-134256577D01*
X48982983Y-134297501D01*
X48982986Y-134297501D01*
X49148693Y-134297501D01*
X49148709Y-134297500D01*
X55432674Y-134297500D01*
X55432690Y-134297501D01*
X55440286Y-134297501D01*
X55598397Y-134297501D01*
X55598400Y-134297501D01*
X55751128Y-134256577D01*
X55801247Y-134227639D01*
X55888059Y-134177520D01*
X55999863Y-134065716D01*
X55999864Y-134065714D01*
X56351920Y-133713659D01*
X56430977Y-133576728D01*
X56471901Y-133424000D01*
X56471901Y-133265885D01*
X56471901Y-133258290D01*
X56471900Y-133258272D01*
X56471900Y-130905513D01*
X60719500Y-130905513D01*
X60719500Y-131094486D01*
X60749059Y-131281118D01*
X60807454Y-131460836D01*
X60845243Y-131535000D01*
X60893240Y-131629199D01*
X61004310Y-131782073D01*
X61137927Y-131915690D01*
X61290801Y-132026760D01*
X61370347Y-132067290D01*
X61459163Y-132112545D01*
X61459165Y-132112545D01*
X61459168Y-132112547D01*
X61547494Y-132141246D01*
X61638881Y-132170940D01*
X61825514Y-132200500D01*
X61825519Y-132200500D01*
X62014486Y-132200500D01*
X62201118Y-132170940D01*
X62202623Y-132170451D01*
X62380832Y-132112547D01*
X62549199Y-132026760D01*
X62575182Y-132007882D01*
X66345669Y-132007882D01*
X66345670Y-132007883D01*
X66371059Y-132026329D01*
X66539362Y-132112085D01*
X66718997Y-132170451D01*
X66905553Y-132200000D01*
X67094447Y-132200000D01*
X67281002Y-132170451D01*
X67460637Y-132112085D01*
X67628937Y-132026331D01*
X67654328Y-132007883D01*
X67654328Y-132007882D01*
X67000001Y-131353554D01*
X67000000Y-131353554D01*
X66345669Y-132007882D01*
X62575182Y-132007882D01*
X62702073Y-131915690D01*
X62835690Y-131782073D01*
X62946760Y-131629199D01*
X63032547Y-131460832D01*
X63090940Y-131281118D01*
X63091253Y-131279142D01*
X63120500Y-131094486D01*
X63120500Y-130905552D01*
X65800000Y-130905552D01*
X65800000Y-131094447D01*
X65829548Y-131281002D01*
X65887914Y-131460637D01*
X65973666Y-131628933D01*
X65992116Y-131654328D01*
X66646446Y-131000000D01*
X66646446Y-130999999D01*
X66600369Y-130953922D01*
X66650000Y-130953922D01*
X66650000Y-131046078D01*
X66673852Y-131135095D01*
X66719930Y-131214905D01*
X66785095Y-131280070D01*
X66864905Y-131326148D01*
X66953922Y-131350000D01*
X67046078Y-131350000D01*
X67135095Y-131326148D01*
X67214905Y-131280070D01*
X67280070Y-131214905D01*
X67326148Y-131135095D01*
X67350000Y-131046078D01*
X67350000Y-130999999D01*
X67353554Y-130999999D01*
X67353554Y-131000000D01*
X68007882Y-131654328D01*
X68007883Y-131654328D01*
X68026331Y-131628937D01*
X68112085Y-131460637D01*
X68170451Y-131281002D01*
X68200000Y-131094447D01*
X68200000Y-130905552D01*
X68170451Y-130718997D01*
X68112085Y-130539362D01*
X68026329Y-130371059D01*
X68007883Y-130345670D01*
X68007882Y-130345669D01*
X67353554Y-130999999D01*
X67350000Y-130999999D01*
X67350000Y-130953922D01*
X67326148Y-130864905D01*
X67280070Y-130785095D01*
X67214905Y-130719930D01*
X67135095Y-130673852D01*
X67046078Y-130650000D01*
X66953922Y-130650000D01*
X66864905Y-130673852D01*
X66785095Y-130719930D01*
X66719930Y-130785095D01*
X66673852Y-130864905D01*
X66650000Y-130953922D01*
X66600369Y-130953922D01*
X65992116Y-130345669D01*
X65992116Y-130345670D01*
X65973669Y-130371060D01*
X65887914Y-130539362D01*
X65829548Y-130718997D01*
X65800000Y-130905552D01*
X63120500Y-130905552D01*
X63120500Y-130905513D01*
X63090940Y-130718881D01*
X63038988Y-130558992D01*
X63032547Y-130539168D01*
X63032545Y-130539165D01*
X63032545Y-130539163D01*
X62949487Y-130376154D01*
X62946760Y-130370801D01*
X62835690Y-130217927D01*
X62702073Y-130084310D01*
X62575179Y-129992116D01*
X66345669Y-129992116D01*
X67000000Y-130646446D01*
X67000001Y-130646446D01*
X67654328Y-129992116D01*
X67628933Y-129973666D01*
X67460637Y-129887914D01*
X67281002Y-129829548D01*
X67094447Y-129800000D01*
X66905553Y-129800000D01*
X66718997Y-129829548D01*
X66539362Y-129887914D01*
X66371060Y-129973669D01*
X66345670Y-129992116D01*
X66345669Y-129992116D01*
X62575179Y-129992116D01*
X62549199Y-129973240D01*
X62516883Y-129956774D01*
X62380836Y-129887454D01*
X62201118Y-129829059D01*
X62014486Y-129799500D01*
X62014481Y-129799500D01*
X61825519Y-129799500D01*
X61825514Y-129799500D01*
X61638881Y-129829059D01*
X61459163Y-129887454D01*
X61290800Y-129973240D01*
X61222863Y-130022600D01*
X61137927Y-130084310D01*
X61137925Y-130084312D01*
X61137924Y-130084312D01*
X61004312Y-130217924D01*
X61004312Y-130217925D01*
X61004310Y-130217927D01*
X60982139Y-130248443D01*
X60893240Y-130370800D01*
X60807454Y-130539163D01*
X60749059Y-130718881D01*
X60719500Y-130905513D01*
X56471900Y-130905513D01*
X56471900Y-130614762D01*
X56491585Y-130547723D01*
X56544389Y-130501968D01*
X56613547Y-130492024D01*
X56668784Y-130514443D01*
X56705352Y-130541012D01*
X56744593Y-130569523D01*
X56919970Y-130658882D01*
X56919972Y-130658882D01*
X56919975Y-130658884D01*
X57018534Y-130690908D01*
X57107173Y-130719709D01*
X57301578Y-130750500D01*
X57301583Y-130750500D01*
X57498422Y-130750500D01*
X57692826Y-130719709D01*
X57749664Y-130701241D01*
X57880025Y-130658884D01*
X58055405Y-130569524D01*
X58214646Y-130453828D01*
X58353828Y-130314646D01*
X58469524Y-130155405D01*
X58558884Y-129980025D01*
X58619709Y-129792826D01*
X58626246Y-129751555D01*
X58650500Y-129598422D01*
X58650500Y-129401577D01*
X58619709Y-129207173D01*
X58558882Y-129019970D01*
X58473157Y-128851726D01*
X58469524Y-128844595D01*
X58353828Y-128685354D01*
X58214646Y-128546172D01*
X58055405Y-128430476D01*
X57983254Y-128393713D01*
X79649500Y-128393713D01*
X79649500Y-128606287D01*
X79682754Y-128816243D01*
X79732505Y-128969361D01*
X79748444Y-129018414D01*
X79844951Y-129207820D01*
X79969890Y-129379786D01*
X80120213Y-129530109D01*
X80292179Y-129655048D01*
X80292181Y-129655049D01*
X80292184Y-129655051D01*
X80481588Y-129751557D01*
X80683757Y-129817246D01*
X80893713Y-129850500D01*
X80893714Y-129850500D01*
X81106286Y-129850500D01*
X81106287Y-129850500D01*
X81316243Y-129817246D01*
X81518412Y-129751557D01*
X81707816Y-129655051D01*
X81791523Y-129594235D01*
X81879786Y-129530109D01*
X81879788Y-129530106D01*
X81879792Y-129530104D01*
X82030104Y-129379792D01*
X82030106Y-129379788D01*
X82030109Y-129379786D01*
X82155048Y-129207820D01*
X82155047Y-129207820D01*
X82155051Y-129207816D01*
X82251557Y-129018412D01*
X82317246Y-128816243D01*
X82350500Y-128606287D01*
X82350500Y-128393713D01*
X82317246Y-128183757D01*
X82251557Y-127981588D01*
X82155051Y-127792184D01*
X82155049Y-127792181D01*
X82155048Y-127792179D01*
X82030109Y-127620213D01*
X81879786Y-127469890D01*
X81707820Y-127344951D01*
X81518414Y-127248444D01*
X81518413Y-127248443D01*
X81518412Y-127248443D01*
X81316243Y-127182754D01*
X81316241Y-127182753D01*
X81316240Y-127182753D01*
X81154957Y-127157208D01*
X81106287Y-127149500D01*
X80893713Y-127149500D01*
X80845042Y-127157208D01*
X80683760Y-127182753D01*
X80481585Y-127248444D01*
X80292179Y-127344951D01*
X80120213Y-127469890D01*
X79969890Y-127620213D01*
X79844951Y-127792179D01*
X79748444Y-127981585D01*
X79682753Y-128183760D01*
X79656692Y-128348306D01*
X79649500Y-128393713D01*
X57983254Y-128393713D01*
X57880029Y-128341117D01*
X57692826Y-128280290D01*
X57498422Y-128249500D01*
X57498417Y-128249500D01*
X57301583Y-128249500D01*
X57301578Y-128249500D01*
X57107173Y-128280290D01*
X56919970Y-128341117D01*
X56744594Y-128430476D01*
X56668786Y-128485555D01*
X56602980Y-128509035D01*
X56534926Y-128493210D01*
X56486231Y-128443104D01*
X56471900Y-128385237D01*
X56471900Y-121038696D01*
X56491585Y-120971657D01*
X56508214Y-120951020D01*
X60937819Y-116521414D01*
X60999142Y-116487930D01*
X61068834Y-116492914D01*
X61124767Y-116534786D01*
X61149184Y-116600250D01*
X61149500Y-116609096D01*
X61149500Y-116756287D01*
X61182754Y-116966243D01*
X61235834Y-117129607D01*
X61248444Y-117168414D01*
X61344951Y-117357820D01*
X61469890Y-117529786D01*
X61620213Y-117680109D01*
X61792182Y-117805050D01*
X61800946Y-117809516D01*
X61851742Y-117857491D01*
X61868536Y-117925312D01*
X61845998Y-117991447D01*
X61800946Y-118030484D01*
X61792182Y-118034949D01*
X61620213Y-118159890D01*
X61469890Y-118310213D01*
X61344951Y-118482179D01*
X61248444Y-118671585D01*
X61182753Y-118873760D01*
X61160858Y-119012002D01*
X61149500Y-119083713D01*
X61149500Y-119296287D01*
X61182754Y-119506243D01*
X61248249Y-119707816D01*
X61248444Y-119708414D01*
X61344951Y-119897820D01*
X61469890Y-120069786D01*
X61620213Y-120220109D01*
X61792182Y-120345050D01*
X61800946Y-120349516D01*
X61851742Y-120397491D01*
X61868536Y-120465312D01*
X61845998Y-120531447D01*
X61800946Y-120570484D01*
X61792182Y-120574949D01*
X61620213Y-120699890D01*
X61469890Y-120850213D01*
X61344951Y-121022179D01*
X61248444Y-121211585D01*
X61182753Y-121413760D01*
X61169094Y-121500000D01*
X61149500Y-121623713D01*
X61149500Y-121836287D01*
X61151109Y-121846446D01*
X61175603Y-122001097D01*
X61182754Y-122046243D01*
X61235834Y-122209607D01*
X61248444Y-122248414D01*
X61344951Y-122437820D01*
X61469890Y-122609786D01*
X61620213Y-122760109D01*
X61792179Y-122885048D01*
X61792181Y-122885049D01*
X61792184Y-122885051D01*
X61981588Y-122981557D01*
X62183757Y-123047246D01*
X62393713Y-123080500D01*
X62393714Y-123080500D01*
X62606286Y-123080500D01*
X62606287Y-123080500D01*
X62816243Y-123047246D01*
X63018412Y-122981557D01*
X63207816Y-122885051D01*
X63321165Y-122802699D01*
X63379786Y-122760109D01*
X63379788Y-122760106D01*
X63379792Y-122760104D01*
X63530104Y-122609792D01*
X63530106Y-122609788D01*
X63530109Y-122609786D01*
X63590431Y-122526759D01*
X63604146Y-122507882D01*
X76355669Y-122507882D01*
X76355670Y-122507883D01*
X76381059Y-122526329D01*
X76549362Y-122612085D01*
X76728997Y-122670451D01*
X76915553Y-122700000D01*
X77104447Y-122700000D01*
X77291002Y-122670451D01*
X77470637Y-122612085D01*
X77638937Y-122526331D01*
X77664328Y-122507883D01*
X77664328Y-122507882D01*
X77010001Y-121853554D01*
X77010000Y-121853554D01*
X76355669Y-122507882D01*
X63604146Y-122507882D01*
X63655051Y-122437816D01*
X63751557Y-122248412D01*
X63817246Y-122046243D01*
X63850500Y-121836287D01*
X63850500Y-121623713D01*
X63817246Y-121413757D01*
X63814580Y-121405552D01*
X75810000Y-121405552D01*
X75810000Y-121594447D01*
X75839548Y-121781002D01*
X75897914Y-121960637D01*
X75983666Y-122128933D01*
X76002116Y-122154328D01*
X76656446Y-121500000D01*
X76656446Y-121499999D01*
X76610369Y-121453922D01*
X76660000Y-121453922D01*
X76660000Y-121546078D01*
X76683852Y-121635095D01*
X76729930Y-121714905D01*
X76795095Y-121780070D01*
X76874905Y-121826148D01*
X76963922Y-121850000D01*
X77056078Y-121850000D01*
X77145095Y-121826148D01*
X77224905Y-121780070D01*
X77290070Y-121714905D01*
X77336148Y-121635095D01*
X77360000Y-121546078D01*
X77360000Y-121499999D01*
X77363554Y-121499999D01*
X77363554Y-121500000D01*
X78017882Y-122154328D01*
X78017883Y-122154328D01*
X78036331Y-122128937D01*
X78122085Y-121960637D01*
X78180451Y-121781002D01*
X78210000Y-121594447D01*
X78210000Y-121405552D01*
X78209994Y-121405513D01*
X80889500Y-121405513D01*
X80889500Y-121594486D01*
X80919059Y-121781118D01*
X80977454Y-121960836D01*
X81046117Y-122095593D01*
X81063240Y-122129199D01*
X81174310Y-122282073D01*
X81307927Y-122415690D01*
X81460801Y-122526760D01*
X81527098Y-122560540D01*
X81629163Y-122612545D01*
X81629165Y-122612545D01*
X81629168Y-122612547D01*
X81725497Y-122643846D01*
X81808881Y-122670940D01*
X81995514Y-122700500D01*
X81995519Y-122700500D01*
X82184486Y-122700500D01*
X82371118Y-122670940D01*
X82372623Y-122670451D01*
X82550832Y-122612547D01*
X82719199Y-122526760D01*
X82872073Y-122415690D01*
X83005690Y-122282073D01*
X83116760Y-122129199D01*
X83202547Y-121960832D01*
X83260940Y-121781118D01*
X83267390Y-121740394D01*
X83290500Y-121594486D01*
X83290500Y-121405513D01*
X83260940Y-121218881D01*
X83232653Y-121131823D01*
X83202547Y-121039168D01*
X83202545Y-121039165D01*
X83202545Y-121039163D01*
X83145503Y-120927213D01*
X83116760Y-120870801D01*
X83005690Y-120717927D01*
X82872073Y-120584310D01*
X82719199Y-120473240D01*
X82550836Y-120387454D01*
X82371118Y-120329059D01*
X82184486Y-120299500D01*
X82184481Y-120299500D01*
X81995519Y-120299500D01*
X81995514Y-120299500D01*
X81808881Y-120329059D01*
X81629163Y-120387454D01*
X81460800Y-120473240D01*
X81395463Y-120520711D01*
X81307927Y-120584310D01*
X81307925Y-120584312D01*
X81307924Y-120584312D01*
X81174312Y-120717924D01*
X81174312Y-120717925D01*
X81174310Y-120717927D01*
X81156535Y-120742392D01*
X81063240Y-120870800D01*
X80977454Y-121039163D01*
X80919059Y-121218881D01*
X80889500Y-121405513D01*
X78209994Y-121405513D01*
X78180451Y-121218997D01*
X78122085Y-121039362D01*
X78036329Y-120871059D01*
X78017883Y-120845670D01*
X78017882Y-120845669D01*
X77363554Y-121499999D01*
X77360000Y-121499999D01*
X77360000Y-121453922D01*
X77336148Y-121364905D01*
X77290070Y-121285095D01*
X77224905Y-121219930D01*
X77145095Y-121173852D01*
X77056078Y-121150000D01*
X76963922Y-121150000D01*
X76874905Y-121173852D01*
X76795095Y-121219930D01*
X76729930Y-121285095D01*
X76683852Y-121364905D01*
X76660000Y-121453922D01*
X76610369Y-121453922D01*
X76002116Y-120845669D01*
X76002116Y-120845670D01*
X75983669Y-120871060D01*
X75897914Y-121039362D01*
X75839548Y-121218997D01*
X75810000Y-121405552D01*
X63814580Y-121405552D01*
X63751557Y-121211588D01*
X63655051Y-121022184D01*
X63655049Y-121022181D01*
X63655048Y-121022179D01*
X63530109Y-120850213D01*
X63379792Y-120699896D01*
X63313612Y-120651814D01*
X63207816Y-120574949D01*
X63191579Y-120566676D01*
X63184689Y-120561898D01*
X63167806Y-120540973D01*
X63148259Y-120522512D01*
X63146198Y-120514190D01*
X63140816Y-120507520D01*
X63139151Y-120492116D01*
X76355669Y-120492116D01*
X77010000Y-121146446D01*
X77010001Y-121146446D01*
X77664328Y-120492116D01*
X77638933Y-120473666D01*
X77470637Y-120387914D01*
X77291002Y-120329548D01*
X77104447Y-120300000D01*
X76915553Y-120300000D01*
X76728997Y-120329548D01*
X76549362Y-120387914D01*
X76381060Y-120473669D01*
X76355670Y-120492116D01*
X76355669Y-120492116D01*
X63139151Y-120492116D01*
X63137926Y-120480788D01*
X63131463Y-120454692D01*
X63134227Y-120446578D01*
X63133306Y-120438055D01*
X63145327Y-120414003D01*
X63153999Y-120388556D01*
X63161139Y-120382368D01*
X63164544Y-120375558D01*
X63178718Y-120367136D01*
X63199054Y-120349515D01*
X63207816Y-120345051D01*
X63270512Y-120299500D01*
X63379786Y-120220109D01*
X63379788Y-120220106D01*
X63379792Y-120220104D01*
X63530104Y-120069792D01*
X63530106Y-120069788D01*
X63530109Y-120069786D01*
X63655048Y-119897820D01*
X63655047Y-119897820D01*
X63655051Y-119897816D01*
X63751557Y-119708412D01*
X63817246Y-119506243D01*
X63840744Y-119357882D01*
X76355669Y-119357882D01*
X76355670Y-119357883D01*
X76381059Y-119376329D01*
X76549362Y-119462085D01*
X76728997Y-119520451D01*
X76915553Y-119550000D01*
X77104447Y-119550000D01*
X77291002Y-119520451D01*
X77470637Y-119462085D01*
X77638937Y-119376331D01*
X77664328Y-119357883D01*
X77664328Y-119357882D01*
X77010001Y-118703554D01*
X77010000Y-118703554D01*
X76355669Y-119357882D01*
X63840744Y-119357882D01*
X63850500Y-119296287D01*
X63850500Y-119083713D01*
X63817246Y-118873757D01*
X63751557Y-118671588D01*
X63655051Y-118482184D01*
X63622855Y-118437870D01*
X63539813Y-118323571D01*
X63539812Y-118323570D01*
X63530105Y-118310209D01*
X63475448Y-118255552D01*
X75810000Y-118255552D01*
X75810000Y-118444447D01*
X75839548Y-118631002D01*
X75897914Y-118810637D01*
X75983666Y-118978933D01*
X76002116Y-119004328D01*
X76656446Y-118350000D01*
X76656446Y-118349999D01*
X76610369Y-118303922D01*
X76660000Y-118303922D01*
X76660000Y-118396078D01*
X76683852Y-118485095D01*
X76729930Y-118564905D01*
X76795095Y-118630070D01*
X76874905Y-118676148D01*
X76963922Y-118700000D01*
X77056078Y-118700000D01*
X77145095Y-118676148D01*
X77224905Y-118630070D01*
X77290070Y-118564905D01*
X77336148Y-118485095D01*
X77360000Y-118396078D01*
X77360000Y-118349999D01*
X77363554Y-118349999D01*
X77363554Y-118350000D01*
X78017882Y-119004328D01*
X78017883Y-119004328D01*
X78036331Y-118978937D01*
X78122085Y-118810637D01*
X78180451Y-118631002D01*
X78210000Y-118444447D01*
X78210000Y-118255552D01*
X78209994Y-118255513D01*
X80889500Y-118255513D01*
X80889500Y-118444486D01*
X80919059Y-118631118D01*
X80977454Y-118810836D01*
X81033466Y-118920765D01*
X81063240Y-118979199D01*
X81174310Y-119132073D01*
X81307927Y-119265690D01*
X81460801Y-119376760D01*
X81503751Y-119398644D01*
X81629163Y-119462545D01*
X81629165Y-119462545D01*
X81629168Y-119462547D01*
X81725497Y-119493846D01*
X81808881Y-119520940D01*
X81995514Y-119550500D01*
X81995519Y-119550500D01*
X82184486Y-119550500D01*
X82371118Y-119520940D01*
X82416350Y-119506243D01*
X82550832Y-119462547D01*
X82719199Y-119376760D01*
X82872073Y-119265690D01*
X83005690Y-119132073D01*
X83116760Y-118979199D01*
X83202547Y-118810832D01*
X83260940Y-118631118D01*
X83274524Y-118545354D01*
X83290500Y-118444486D01*
X83290500Y-118255513D01*
X83260940Y-118068881D01*
X83233846Y-117985497D01*
X83202547Y-117889168D01*
X83202545Y-117889165D01*
X83202545Y-117889163D01*
X83151267Y-117788525D01*
X83116760Y-117720801D01*
X83005690Y-117567927D01*
X82872073Y-117434310D01*
X82719199Y-117323240D01*
X82717941Y-117322599D01*
X82550836Y-117237454D01*
X82371118Y-117179059D01*
X82184486Y-117149500D01*
X82184481Y-117149500D01*
X81995519Y-117149500D01*
X81995514Y-117149500D01*
X81808881Y-117179059D01*
X81629163Y-117237454D01*
X81460800Y-117323240D01*
X81373579Y-117386610D01*
X81307927Y-117434310D01*
X81307925Y-117434312D01*
X81307924Y-117434312D01*
X81174312Y-117567924D01*
X81174312Y-117567925D01*
X81174310Y-117567927D01*
X81129497Y-117629607D01*
X81063240Y-117720800D01*
X80977454Y-117889163D01*
X80919059Y-118068881D01*
X80889500Y-118255513D01*
X78209994Y-118255513D01*
X78180451Y-118068997D01*
X78122085Y-117889362D01*
X78036329Y-117721059D01*
X78017883Y-117695670D01*
X78017882Y-117695669D01*
X77363554Y-118349999D01*
X77360000Y-118349999D01*
X77360000Y-118303922D01*
X77336148Y-118214905D01*
X77290070Y-118135095D01*
X77224905Y-118069930D01*
X77145095Y-118023852D01*
X77056078Y-118000000D01*
X76963922Y-118000000D01*
X76874905Y-118023852D01*
X76795095Y-118069930D01*
X76729930Y-118135095D01*
X76683852Y-118214905D01*
X76660000Y-118303922D01*
X76610369Y-118303922D01*
X76002116Y-117695669D01*
X76002116Y-117695670D01*
X75983669Y-117721060D01*
X75897914Y-117889362D01*
X75839548Y-118068997D01*
X75810000Y-118255552D01*
X63475448Y-118255552D01*
X63379786Y-118159890D01*
X63207820Y-118034951D01*
X63207115Y-118034591D01*
X63199054Y-118030485D01*
X63148259Y-117982512D01*
X63131463Y-117914692D01*
X63153999Y-117848556D01*
X63199054Y-117809515D01*
X63207816Y-117805051D01*
X63230562Y-117788525D01*
X63379786Y-117680109D01*
X63379788Y-117680106D01*
X63379792Y-117680104D01*
X63530104Y-117529792D01*
X63530106Y-117529788D01*
X63530109Y-117529786D01*
X63655048Y-117357820D01*
X63655047Y-117357820D01*
X63655051Y-117357816D01*
X63663051Y-117342116D01*
X76355669Y-117342116D01*
X77010000Y-117996446D01*
X77010001Y-117996446D01*
X77664328Y-117342116D01*
X77638933Y-117323666D01*
X77470637Y-117237914D01*
X77291002Y-117179548D01*
X77104447Y-117150000D01*
X76915553Y-117150000D01*
X76728997Y-117179548D01*
X76549362Y-117237914D01*
X76381060Y-117323669D01*
X76355670Y-117342116D01*
X76355669Y-117342116D01*
X63663051Y-117342116D01*
X63751557Y-117168412D01*
X63817246Y-116966243D01*
X63850500Y-116756287D01*
X63850500Y-116543713D01*
X63817246Y-116333757D01*
X63776347Y-116207882D01*
X76355669Y-116207882D01*
X76355670Y-116207883D01*
X76381059Y-116226329D01*
X76549362Y-116312085D01*
X76728997Y-116370451D01*
X76915553Y-116400000D01*
X77104447Y-116400000D01*
X77291002Y-116370451D01*
X77470637Y-116312085D01*
X77638937Y-116226331D01*
X77664328Y-116207883D01*
X77664328Y-116207882D01*
X77010001Y-115553554D01*
X77010000Y-115553554D01*
X76355669Y-116207882D01*
X63776347Y-116207882D01*
X63751557Y-116131588D01*
X63655051Y-115942184D01*
X63655049Y-115942181D01*
X63655048Y-115942179D01*
X63530109Y-115770213D01*
X63379786Y-115619890D01*
X63207820Y-115494951D01*
X63207115Y-115494591D01*
X63199054Y-115490485D01*
X63148259Y-115442512D01*
X63131463Y-115374692D01*
X63153999Y-115308556D01*
X63199054Y-115269515D01*
X63207816Y-115265051D01*
X63297353Y-115199999D01*
X63379786Y-115140109D01*
X63379788Y-115140106D01*
X63379792Y-115140104D01*
X63414344Y-115105552D01*
X75810000Y-115105552D01*
X75810000Y-115294447D01*
X75839548Y-115481002D01*
X75897914Y-115660637D01*
X75983666Y-115828933D01*
X76002116Y-115854328D01*
X76656446Y-115200000D01*
X76656446Y-115199999D01*
X76610369Y-115153922D01*
X76660000Y-115153922D01*
X76660000Y-115246078D01*
X76683852Y-115335095D01*
X76729930Y-115414905D01*
X76795095Y-115480070D01*
X76874905Y-115526148D01*
X76963922Y-115550000D01*
X77056078Y-115550000D01*
X77145095Y-115526148D01*
X77224905Y-115480070D01*
X77290070Y-115414905D01*
X77336148Y-115335095D01*
X77360000Y-115246078D01*
X77360000Y-115199999D01*
X77363554Y-115199999D01*
X77363554Y-115200000D01*
X78017882Y-115854328D01*
X78017883Y-115854328D01*
X78036331Y-115828937D01*
X78122085Y-115660637D01*
X78180451Y-115481002D01*
X78210000Y-115294447D01*
X78210000Y-115105552D01*
X78209994Y-115105513D01*
X80889500Y-115105513D01*
X80889500Y-115294486D01*
X80919059Y-115481118D01*
X80977454Y-115660836D01*
X81033185Y-115770213D01*
X81063240Y-115829199D01*
X81174310Y-115982073D01*
X81307927Y-116115690D01*
X81460801Y-116226760D01*
X81504279Y-116248913D01*
X81629163Y-116312545D01*
X81629165Y-116312545D01*
X81629168Y-116312547D01*
X81697594Y-116334780D01*
X81808881Y-116370940D01*
X81995514Y-116400500D01*
X81995519Y-116400500D01*
X82184486Y-116400500D01*
X82371118Y-116370940D01*
X82372623Y-116370451D01*
X82550832Y-116312547D01*
X82719199Y-116226760D01*
X82872073Y-116115690D01*
X83005690Y-115982073D01*
X83116760Y-115829199D01*
X83202547Y-115660832D01*
X83260940Y-115481118D01*
X83271427Y-115414905D01*
X83290500Y-115294486D01*
X83290500Y-115105513D01*
X83260940Y-114918881D01*
X83202545Y-114739163D01*
X83140758Y-114617900D01*
X83116760Y-114570801D01*
X83005690Y-114417927D01*
X82872073Y-114284310D01*
X82719199Y-114173240D01*
X82679046Y-114152781D01*
X82550836Y-114087454D01*
X82371118Y-114029059D01*
X82184486Y-113999500D01*
X82184481Y-113999500D01*
X81995519Y-113999500D01*
X81995514Y-113999500D01*
X81808881Y-114029059D01*
X81629163Y-114087454D01*
X81460800Y-114173240D01*
X81396473Y-114219977D01*
X81307927Y-114284310D01*
X81307925Y-114284312D01*
X81307924Y-114284312D01*
X81174312Y-114417924D01*
X81174312Y-114417925D01*
X81174310Y-114417927D01*
X81139121Y-114466360D01*
X81063240Y-114570800D01*
X80977454Y-114739163D01*
X80919059Y-114918881D01*
X80889500Y-115105513D01*
X78209994Y-115105513D01*
X78180451Y-114918997D01*
X78122085Y-114739362D01*
X78036329Y-114571059D01*
X78017883Y-114545670D01*
X78017882Y-114545669D01*
X77363554Y-115199999D01*
X77360000Y-115199999D01*
X77360000Y-115153922D01*
X77336148Y-115064905D01*
X77290070Y-114985095D01*
X77224905Y-114919930D01*
X77145095Y-114873852D01*
X77056078Y-114850000D01*
X76963922Y-114850000D01*
X76874905Y-114873852D01*
X76795095Y-114919930D01*
X76729930Y-114985095D01*
X76683852Y-115064905D01*
X76660000Y-115153922D01*
X76610369Y-115153922D01*
X76002116Y-114545669D01*
X76002116Y-114545670D01*
X75983669Y-114571060D01*
X75897914Y-114739362D01*
X75839548Y-114918997D01*
X75810000Y-115105552D01*
X63414344Y-115105552D01*
X63530104Y-114989792D01*
X63530106Y-114989788D01*
X63530109Y-114989786D01*
X63655048Y-114817820D01*
X63655047Y-114817820D01*
X63655051Y-114817816D01*
X63751557Y-114628412D01*
X63817246Y-114426243D01*
X63850500Y-114216287D01*
X63850500Y-114192116D01*
X76355669Y-114192116D01*
X77010000Y-114846446D01*
X77010001Y-114846446D01*
X77664328Y-114192116D01*
X77638933Y-114173666D01*
X77470637Y-114087914D01*
X77291002Y-114029548D01*
X77104447Y-114000000D01*
X76915553Y-114000000D01*
X76728997Y-114029548D01*
X76549362Y-114087914D01*
X76381060Y-114173669D01*
X76355670Y-114192116D01*
X76355669Y-114192116D01*
X63850500Y-114192116D01*
X63850500Y-114003713D01*
X63817246Y-113793757D01*
X63751557Y-113591588D01*
X63655051Y-113402184D01*
X63655049Y-113402181D01*
X63655048Y-113402179D01*
X63530109Y-113230213D01*
X63379786Y-113079890D01*
X63349494Y-113057882D01*
X76355669Y-113057882D01*
X76355670Y-113057883D01*
X76381059Y-113076329D01*
X76549362Y-113162085D01*
X76728997Y-113220451D01*
X76915553Y-113250000D01*
X77104447Y-113250000D01*
X77291002Y-113220451D01*
X77470637Y-113162085D01*
X77638937Y-113076331D01*
X77664328Y-113057883D01*
X77664328Y-113057882D01*
X77010001Y-112403554D01*
X77010000Y-112403554D01*
X76355669Y-113057882D01*
X63349494Y-113057882D01*
X63207820Y-112954951D01*
X63207115Y-112954591D01*
X63199054Y-112950485D01*
X63148259Y-112902512D01*
X63131463Y-112834692D01*
X63153999Y-112768556D01*
X63199054Y-112729515D01*
X63207816Y-112725051D01*
X63236339Y-112704328D01*
X63379786Y-112600109D01*
X63379788Y-112600106D01*
X63379792Y-112600104D01*
X63530104Y-112449792D01*
X63530106Y-112449788D01*
X63530109Y-112449786D01*
X63655048Y-112277820D01*
X63655047Y-112277820D01*
X63655051Y-112277816D01*
X63751557Y-112088412D01*
X63794726Y-111955552D01*
X75810000Y-111955552D01*
X75810000Y-112144447D01*
X75839548Y-112331002D01*
X75897914Y-112510637D01*
X75983666Y-112678933D01*
X76002116Y-112704328D01*
X76656446Y-112050000D01*
X76656446Y-112049999D01*
X76610369Y-112003922D01*
X76660000Y-112003922D01*
X76660000Y-112096078D01*
X76683852Y-112185095D01*
X76729930Y-112264905D01*
X76795095Y-112330070D01*
X76874905Y-112376148D01*
X76963922Y-112400000D01*
X77056078Y-112400000D01*
X77145095Y-112376148D01*
X77224905Y-112330070D01*
X77290070Y-112264905D01*
X77336148Y-112185095D01*
X77360000Y-112096078D01*
X77360000Y-112049999D01*
X77363554Y-112049999D01*
X77363554Y-112050000D01*
X78017882Y-112704328D01*
X78017883Y-112704328D01*
X78036331Y-112678937D01*
X78122085Y-112510637D01*
X78180451Y-112331002D01*
X78210000Y-112144447D01*
X78210000Y-111955552D01*
X78209994Y-111955513D01*
X80889500Y-111955513D01*
X80889500Y-112144486D01*
X80919059Y-112331118D01*
X80977454Y-112510836D01*
X81036030Y-112625796D01*
X81063240Y-112679199D01*
X81174310Y-112832073D01*
X81307927Y-112965690D01*
X81460801Y-113076760D01*
X81537955Y-113116072D01*
X81629163Y-113162545D01*
X81629165Y-113162545D01*
X81629168Y-113162547D01*
X81725497Y-113193846D01*
X81808881Y-113220940D01*
X81995514Y-113250500D01*
X81995519Y-113250500D01*
X82184486Y-113250500D01*
X82371118Y-113220940D01*
X82372623Y-113220451D01*
X82550832Y-113162547D01*
X82719199Y-113076760D01*
X82872073Y-112965690D01*
X83005690Y-112832073D01*
X83116760Y-112679199D01*
X83202547Y-112510832D01*
X83260940Y-112331118D01*
X83262475Y-112321427D01*
X83290500Y-112144486D01*
X83290500Y-111955513D01*
X83260940Y-111768881D01*
X83224685Y-111657301D01*
X83202547Y-111589168D01*
X83202545Y-111589165D01*
X83202545Y-111589163D01*
X83140823Y-111468028D01*
X83116760Y-111420801D01*
X83005690Y-111267927D01*
X82872073Y-111134310D01*
X82719199Y-111023240D01*
X82712538Y-111019846D01*
X82550836Y-110937454D01*
X82371118Y-110879059D01*
X82184486Y-110849500D01*
X82184481Y-110849500D01*
X81995519Y-110849500D01*
X81995514Y-110849500D01*
X81808881Y-110879059D01*
X81629163Y-110937454D01*
X81460800Y-111023240D01*
X81419702Y-111053100D01*
X81307927Y-111134310D01*
X81307925Y-111134312D01*
X81307924Y-111134312D01*
X81174312Y-111267924D01*
X81174312Y-111267925D01*
X81174310Y-111267927D01*
X81150655Y-111300485D01*
X81063240Y-111420800D01*
X80977454Y-111589163D01*
X80919059Y-111768881D01*
X80889500Y-111955513D01*
X78209994Y-111955513D01*
X78180451Y-111768997D01*
X78122085Y-111589362D01*
X78036329Y-111421059D01*
X78017883Y-111395670D01*
X78017882Y-111395669D01*
X77363554Y-112049999D01*
X77360000Y-112049999D01*
X77360000Y-112003922D01*
X77336148Y-111914905D01*
X77290070Y-111835095D01*
X77224905Y-111769930D01*
X77145095Y-111723852D01*
X77056078Y-111700000D01*
X76963922Y-111700000D01*
X76874905Y-111723852D01*
X76795095Y-111769930D01*
X76729930Y-111835095D01*
X76683852Y-111914905D01*
X76660000Y-112003922D01*
X76610369Y-112003922D01*
X76002116Y-111395669D01*
X76002116Y-111395670D01*
X75983669Y-111421060D01*
X75897914Y-111589362D01*
X75839548Y-111768997D01*
X75810000Y-111955552D01*
X63794726Y-111955552D01*
X63817246Y-111886243D01*
X63850500Y-111676287D01*
X63850500Y-111463713D01*
X63817246Y-111253757D01*
X63803506Y-111211473D01*
X63803072Y-111196262D01*
X63797754Y-111182003D01*
X63802095Y-111162047D01*
X63801512Y-111141635D01*
X63809599Y-111127548D01*
X63812606Y-111113730D01*
X63833754Y-111085479D01*
X63877117Y-111042116D01*
X76355669Y-111042116D01*
X77010000Y-111696446D01*
X77010001Y-111696446D01*
X77664328Y-111042116D01*
X77638933Y-111023666D01*
X77470637Y-110937914D01*
X77291002Y-110879548D01*
X77104447Y-110850000D01*
X76915553Y-110850000D01*
X76728997Y-110879548D01*
X76549362Y-110937914D01*
X76381060Y-111023669D01*
X76355670Y-111042116D01*
X76355669Y-111042116D01*
X63877117Y-111042116D01*
X64009506Y-110909728D01*
X64009511Y-110909724D01*
X64019714Y-110899520D01*
X64019716Y-110899520D01*
X64131520Y-110787716D01*
X64163281Y-110732704D01*
X64191765Y-110683369D01*
X64191766Y-110683366D01*
X64194587Y-110678481D01*
X64210577Y-110650785D01*
X64251501Y-110498057D01*
X64251501Y-110339942D01*
X64251501Y-110332347D01*
X64251500Y-110332329D01*
X64251500Y-109907882D01*
X76355669Y-109907882D01*
X76355670Y-109907883D01*
X76381059Y-109926329D01*
X76549362Y-110012085D01*
X76728997Y-110070451D01*
X76915553Y-110100000D01*
X77104447Y-110100000D01*
X77291002Y-110070451D01*
X77470637Y-110012085D01*
X77638937Y-109926331D01*
X77664328Y-109907883D01*
X77664328Y-109907882D01*
X77010001Y-109253554D01*
X77010000Y-109253554D01*
X76355669Y-109907882D01*
X64251500Y-109907882D01*
X64251500Y-108805552D01*
X75810000Y-108805552D01*
X75810000Y-108994447D01*
X75839548Y-109181002D01*
X75897914Y-109360637D01*
X75983666Y-109528933D01*
X76002116Y-109554328D01*
X76656446Y-108900000D01*
X76656446Y-108899999D01*
X76610369Y-108853922D01*
X76660000Y-108853922D01*
X76660000Y-108946078D01*
X76683852Y-109035095D01*
X76729930Y-109114905D01*
X76795095Y-109180070D01*
X76874905Y-109226148D01*
X76963922Y-109250000D01*
X77056078Y-109250000D01*
X77145095Y-109226148D01*
X77224905Y-109180070D01*
X77290070Y-109114905D01*
X77336148Y-109035095D01*
X77360000Y-108946078D01*
X77360000Y-108899999D01*
X77363554Y-108899999D01*
X77363554Y-108900000D01*
X78017882Y-109554328D01*
X78017883Y-109554328D01*
X78036331Y-109528937D01*
X78122085Y-109360637D01*
X78180451Y-109181002D01*
X78210000Y-108994447D01*
X78210000Y-108805552D01*
X78180451Y-108618997D01*
X78122085Y-108439362D01*
X78036329Y-108271059D01*
X78017883Y-108245670D01*
X78017882Y-108245669D01*
X77363554Y-108899999D01*
X77360000Y-108899999D01*
X77360000Y-108853922D01*
X77336148Y-108764905D01*
X77290070Y-108685095D01*
X77224905Y-108619930D01*
X77145095Y-108573852D01*
X77056078Y-108550000D01*
X76963922Y-108550000D01*
X76874905Y-108573852D01*
X76795095Y-108619930D01*
X76729930Y-108685095D01*
X76683852Y-108764905D01*
X76660000Y-108853922D01*
X76610369Y-108853922D01*
X76002116Y-108245669D01*
X76002116Y-108245670D01*
X75983669Y-108271060D01*
X75897914Y-108439362D01*
X75839548Y-108618997D01*
X75810000Y-108805552D01*
X64251500Y-108805552D01*
X64251500Y-108474183D01*
X64250454Y-108470280D01*
X64250453Y-108470276D01*
X64245206Y-108450697D01*
X64235416Y-108414157D01*
X64210577Y-108321456D01*
X64181331Y-108270800D01*
X64131524Y-108184530D01*
X64131521Y-108184526D01*
X64131520Y-108184524D01*
X64019716Y-108072720D01*
X64019715Y-108072719D01*
X64015385Y-108068389D01*
X64015374Y-108068379D01*
X63839111Y-107892116D01*
X76355669Y-107892116D01*
X77010000Y-108546446D01*
X77010001Y-108546446D01*
X77664328Y-107892116D01*
X77638933Y-107873666D01*
X77470637Y-107787914D01*
X77291002Y-107729548D01*
X77104447Y-107700000D01*
X76915553Y-107700000D01*
X76728997Y-107729548D01*
X76549362Y-107787914D01*
X76381060Y-107873669D01*
X76355670Y-107892116D01*
X76355669Y-107892116D01*
X63839111Y-107892116D01*
X63511126Y-107564131D01*
X63477641Y-107502808D01*
X63482625Y-107433116D01*
X63511126Y-107388769D01*
X63530104Y-107369792D01*
X63530106Y-107369788D01*
X63530109Y-107369786D01*
X63655048Y-107197820D01*
X63655047Y-107197820D01*
X63655051Y-107197816D01*
X63751557Y-107008412D01*
X63817246Y-106806243D01*
X63848664Y-106607882D01*
X76355669Y-106607882D01*
X76355670Y-106607883D01*
X76381059Y-106626329D01*
X76549362Y-106712085D01*
X76728997Y-106770451D01*
X76915553Y-106800000D01*
X77104447Y-106800000D01*
X77291002Y-106770451D01*
X77470637Y-106712085D01*
X77638937Y-106626331D01*
X77664328Y-106607883D01*
X77664328Y-106607882D01*
X77010001Y-105953554D01*
X77010000Y-105953554D01*
X76355669Y-106607882D01*
X63848664Y-106607882D01*
X63850500Y-106596287D01*
X63850500Y-106383713D01*
X63817246Y-106173757D01*
X63751557Y-105971588D01*
X63655051Y-105782184D01*
X63655049Y-105782181D01*
X63655048Y-105782179D01*
X63530109Y-105610213D01*
X63425448Y-105505552D01*
X75810000Y-105505552D01*
X75810000Y-105694447D01*
X75839548Y-105881002D01*
X75897914Y-106060637D01*
X75983666Y-106228933D01*
X76002116Y-106254328D01*
X76656446Y-105600000D01*
X76656446Y-105599999D01*
X76610369Y-105553922D01*
X76660000Y-105553922D01*
X76660000Y-105646078D01*
X76683852Y-105735095D01*
X76729930Y-105814905D01*
X76795095Y-105880070D01*
X76874905Y-105926148D01*
X76963922Y-105950000D01*
X77056078Y-105950000D01*
X77145095Y-105926148D01*
X77224905Y-105880070D01*
X77290070Y-105814905D01*
X77336148Y-105735095D01*
X77360000Y-105646078D01*
X77360000Y-105599999D01*
X77363554Y-105599999D01*
X77363554Y-105600000D01*
X78017882Y-106254328D01*
X78017883Y-106254328D01*
X78036331Y-106228937D01*
X78122085Y-106060637D01*
X78180451Y-105881002D01*
X78210000Y-105694447D01*
X78210000Y-105505552D01*
X78180451Y-105318997D01*
X78122085Y-105139362D01*
X78036329Y-104971059D01*
X78017883Y-104945670D01*
X78017882Y-104945669D01*
X77363554Y-105599999D01*
X77360000Y-105599999D01*
X77360000Y-105553922D01*
X77336148Y-105464905D01*
X77290070Y-105385095D01*
X77224905Y-105319930D01*
X77145095Y-105273852D01*
X77056078Y-105250000D01*
X76963922Y-105250000D01*
X76874905Y-105273852D01*
X76795095Y-105319930D01*
X76729930Y-105385095D01*
X76683852Y-105464905D01*
X76660000Y-105553922D01*
X76610369Y-105553922D01*
X76002116Y-104945669D01*
X76002116Y-104945670D01*
X75983669Y-104971060D01*
X75897914Y-105139362D01*
X75839548Y-105318997D01*
X75810000Y-105505552D01*
X63425448Y-105505552D01*
X63379786Y-105459890D01*
X63207820Y-105334951D01*
X63207115Y-105334591D01*
X63199054Y-105330485D01*
X63148259Y-105282512D01*
X63131463Y-105214692D01*
X63153999Y-105148556D01*
X63199054Y-105109515D01*
X63207816Y-105105051D01*
X63321165Y-105022699D01*
X63379786Y-104980109D01*
X63379788Y-104980106D01*
X63379792Y-104980104D01*
X63530104Y-104829792D01*
X63530106Y-104829788D01*
X63530109Y-104829786D01*
X63603416Y-104728886D01*
X63655051Y-104657816D01*
X63688527Y-104592116D01*
X76355669Y-104592116D01*
X77010000Y-105246446D01*
X77010001Y-105246446D01*
X77664328Y-104592116D01*
X77638933Y-104573666D01*
X77470637Y-104487914D01*
X77291002Y-104429548D01*
X77104447Y-104400000D01*
X76915553Y-104400000D01*
X76728997Y-104429548D01*
X76549362Y-104487914D01*
X76381060Y-104573669D01*
X76355670Y-104592116D01*
X76355669Y-104592116D01*
X63688527Y-104592116D01*
X63697928Y-104573666D01*
X63717392Y-104535465D01*
X63751557Y-104468412D01*
X63817246Y-104266243D01*
X63850500Y-104056287D01*
X63850500Y-103843713D01*
X63817246Y-103633757D01*
X63751557Y-103431588D01*
X63655051Y-103242184D01*
X63602121Y-103169331D01*
X63576094Y-103133508D01*
X63576093Y-103133505D01*
X63557477Y-103107882D01*
X76265669Y-103107882D01*
X76265670Y-103107883D01*
X76291059Y-103126329D01*
X76459362Y-103212085D01*
X76638997Y-103270451D01*
X76825553Y-103300000D01*
X77014447Y-103300000D01*
X77201002Y-103270451D01*
X77380637Y-103212085D01*
X77548937Y-103126331D01*
X77574328Y-103107883D01*
X77574328Y-103107882D01*
X76920001Y-102453554D01*
X76920000Y-102453554D01*
X76265669Y-103107882D01*
X63557477Y-103107882D01*
X63530109Y-103070214D01*
X63530105Y-103070209D01*
X63379786Y-102919890D01*
X63207820Y-102794951D01*
X63207115Y-102794591D01*
X63199054Y-102790485D01*
X63148259Y-102742512D01*
X63131463Y-102674692D01*
X63153999Y-102608556D01*
X63199054Y-102569515D01*
X63207816Y-102565051D01*
X63284038Y-102509673D01*
X63379786Y-102440109D01*
X63379788Y-102440106D01*
X63379792Y-102440104D01*
X63530104Y-102289792D01*
X63530106Y-102289788D01*
X63530109Y-102289786D01*
X63655048Y-102117820D01*
X63655047Y-102117820D01*
X63655051Y-102117816D01*
X63712252Y-102005552D01*
X75720000Y-102005552D01*
X75720000Y-102194447D01*
X75749548Y-102381002D01*
X75807914Y-102560637D01*
X75893666Y-102728933D01*
X75912116Y-102754328D01*
X76566446Y-102100000D01*
X76566446Y-102099999D01*
X76520369Y-102053922D01*
X76570000Y-102053922D01*
X76570000Y-102146078D01*
X76593852Y-102235095D01*
X76639930Y-102314905D01*
X76705095Y-102380070D01*
X76784905Y-102426148D01*
X76873922Y-102450000D01*
X76966078Y-102450000D01*
X77055095Y-102426148D01*
X77134905Y-102380070D01*
X77200070Y-102314905D01*
X77246148Y-102235095D01*
X77270000Y-102146078D01*
X77270000Y-102099999D01*
X77273554Y-102099999D01*
X77273554Y-102100000D01*
X77927882Y-102754328D01*
X77927883Y-102754328D01*
X77946331Y-102728937D01*
X78032085Y-102560637D01*
X78090451Y-102381002D01*
X78120000Y-102194447D01*
X78120000Y-102005552D01*
X78119994Y-102005513D01*
X80799500Y-102005513D01*
X80799500Y-102194486D01*
X80829059Y-102381118D01*
X80887454Y-102560836D01*
X80957569Y-102698443D01*
X80973240Y-102729199D01*
X81084310Y-102882073D01*
X81217927Y-103015690D01*
X81370801Y-103126760D01*
X81450347Y-103167290D01*
X81539163Y-103212545D01*
X81539165Y-103212545D01*
X81539168Y-103212547D01*
X81616424Y-103237649D01*
X81718881Y-103270940D01*
X81905514Y-103300500D01*
X81905519Y-103300500D01*
X82094486Y-103300500D01*
X82216616Y-103281156D01*
X82253753Y-103275274D01*
X82323045Y-103284228D01*
X82360831Y-103310066D01*
X84255139Y-105204374D01*
X84255149Y-105204385D01*
X84259479Y-105208715D01*
X84259480Y-105208716D01*
X84371284Y-105320520D01*
X84453895Y-105368215D01*
X84453896Y-105368216D01*
X84508209Y-105399574D01*
X84508210Y-105399574D01*
X84508215Y-105399577D01*
X84660943Y-105440500D01*
X84819057Y-105440500D01*
X90270398Y-105440500D01*
X90337437Y-105460185D01*
X90380883Y-105508205D01*
X90387715Y-105521614D01*
X90508028Y-105687213D01*
X90652786Y-105831971D01*
X90782412Y-105926148D01*
X90818390Y-105952287D01*
X90904843Y-105996337D01*
X90911080Y-105999515D01*
X90961876Y-106047490D01*
X90978671Y-106115311D01*
X90956134Y-106181446D01*
X90911080Y-106220485D01*
X90818386Y-106267715D01*
X90652786Y-106388028D01*
X90508028Y-106532786D01*
X90387715Y-106698385D01*
X90380883Y-106711795D01*
X90332909Y-106762591D01*
X90270398Y-106779500D01*
X84170097Y-106779500D01*
X84103058Y-106759815D01*
X84082416Y-106743181D01*
X83300066Y-105960831D01*
X83266581Y-105899508D01*
X83265274Y-105853752D01*
X83269067Y-105829808D01*
X83272042Y-105811017D01*
X83290500Y-105694486D01*
X83290500Y-105505513D01*
X83260940Y-105318881D01*
X83223734Y-105204374D01*
X83202547Y-105139168D01*
X83202545Y-105139165D01*
X83202545Y-105139163D01*
X83143203Y-105022699D01*
X83116760Y-104970801D01*
X83005690Y-104817927D01*
X82872073Y-104684310D01*
X82719199Y-104573240D01*
X82686883Y-104556774D01*
X82550836Y-104487454D01*
X82371118Y-104429059D01*
X82184486Y-104399500D01*
X82184481Y-104399500D01*
X81995519Y-104399500D01*
X81995514Y-104399500D01*
X81808881Y-104429059D01*
X81629163Y-104487454D01*
X81460800Y-104573240D01*
X81392863Y-104622600D01*
X81307927Y-104684310D01*
X81307925Y-104684312D01*
X81307924Y-104684312D01*
X81174312Y-104817924D01*
X81174312Y-104817925D01*
X81174310Y-104817927D01*
X81165694Y-104829786D01*
X81063240Y-104970800D01*
X80977454Y-105139163D01*
X80919059Y-105318881D01*
X80889500Y-105505513D01*
X80889500Y-105694486D01*
X80919059Y-105881118D01*
X80977454Y-106060836D01*
X81039051Y-106181725D01*
X81063240Y-106229199D01*
X81174310Y-106382073D01*
X81307927Y-106515690D01*
X81460801Y-106626760D01*
X81514412Y-106654076D01*
X81629163Y-106712545D01*
X81629165Y-106712545D01*
X81629168Y-106712547D01*
X81688447Y-106731808D01*
X81808881Y-106770940D01*
X81995514Y-106800500D01*
X81995519Y-106800500D01*
X82184486Y-106800500D01*
X82301017Y-106782042D01*
X82343753Y-106775274D01*
X82413045Y-106784228D01*
X82450831Y-106810066D01*
X83385139Y-107744374D01*
X83385149Y-107744385D01*
X83389479Y-107748715D01*
X83389480Y-107748716D01*
X83501284Y-107860520D01*
X83588095Y-107910639D01*
X83588097Y-107910641D01*
X83626151Y-107932611D01*
X83638215Y-107939577D01*
X83790943Y-107980500D01*
X83949057Y-107980500D01*
X90270398Y-107980500D01*
X90337437Y-108000185D01*
X90380883Y-108048205D01*
X90387715Y-108061614D01*
X90508028Y-108227213D01*
X90652786Y-108371971D01*
X90788105Y-108470284D01*
X90818390Y-108492287D01*
X90909840Y-108538883D01*
X90911080Y-108539515D01*
X90961876Y-108587490D01*
X90978671Y-108655311D01*
X90956134Y-108721446D01*
X90911080Y-108760485D01*
X90818386Y-108807715D01*
X90652786Y-108928028D01*
X90508028Y-109072786D01*
X90387715Y-109238385D01*
X90380883Y-109251795D01*
X90332909Y-109302591D01*
X90270398Y-109319500D01*
X83410097Y-109319500D01*
X83380656Y-109310855D01*
X83350670Y-109304332D01*
X83345654Y-109300577D01*
X83343058Y-109299815D01*
X83322416Y-109283181D01*
X83300066Y-109260831D01*
X83266581Y-109199508D01*
X83265274Y-109153752D01*
X83268041Y-109136286D01*
X83278099Y-109072781D01*
X83290500Y-108994486D01*
X83290500Y-108805513D01*
X83260940Y-108618881D01*
X83225887Y-108511000D01*
X83202547Y-108439168D01*
X83202545Y-108439165D01*
X83202545Y-108439163D01*
X83140631Y-108317651D01*
X83116760Y-108270801D01*
X83005690Y-108117927D01*
X82872073Y-107984310D01*
X82719199Y-107873240D01*
X82664193Y-107845213D01*
X82550836Y-107787454D01*
X82371118Y-107729059D01*
X82184486Y-107699500D01*
X82184481Y-107699500D01*
X81995519Y-107699500D01*
X81995514Y-107699500D01*
X81808881Y-107729059D01*
X81629163Y-107787454D01*
X81460800Y-107873240D01*
X81409326Y-107910639D01*
X81307927Y-107984310D01*
X81307925Y-107984312D01*
X81307924Y-107984312D01*
X81174312Y-108117924D01*
X81174312Y-108117925D01*
X81174310Y-108117927D01*
X81126610Y-108183579D01*
X81063240Y-108270800D01*
X80977454Y-108439163D01*
X80919059Y-108618881D01*
X80889500Y-108805513D01*
X80889500Y-108994486D01*
X80919059Y-109181118D01*
X80977454Y-109360836D01*
X81007998Y-109420781D01*
X81063240Y-109529199D01*
X81174310Y-109682073D01*
X81307927Y-109815690D01*
X81460801Y-109926760D01*
X81531730Y-109962900D01*
X81629163Y-110012545D01*
X81629165Y-110012545D01*
X81629168Y-110012547D01*
X81715201Y-110040501D01*
X81808881Y-110070940D01*
X81995514Y-110100500D01*
X81995519Y-110100500D01*
X82184486Y-110100500D01*
X82301017Y-110082042D01*
X82343753Y-110075274D01*
X82349177Y-110075975D01*
X82354304Y-110074063D01*
X82383454Y-110080404D01*
X82413045Y-110084228D01*
X82418650Y-110088060D01*
X82422577Y-110088915D01*
X82450831Y-110110066D01*
X82625139Y-110284374D01*
X82625149Y-110284385D01*
X82629479Y-110288715D01*
X82629480Y-110288716D01*
X82741284Y-110400520D01*
X82828095Y-110450639D01*
X82828097Y-110450641D01*
X82866151Y-110472611D01*
X82878215Y-110479577D01*
X83030943Y-110520501D01*
X83030946Y-110520501D01*
X83196653Y-110520501D01*
X83196669Y-110520500D01*
X90270398Y-110520500D01*
X90337437Y-110540185D01*
X90380883Y-110588205D01*
X90387715Y-110601614D01*
X90508028Y-110767213D01*
X90652786Y-110911971D01*
X90801266Y-111019846D01*
X90818390Y-111032287D01*
X90909840Y-111078883D01*
X90911080Y-111079515D01*
X90961876Y-111127490D01*
X90978671Y-111195311D01*
X90956134Y-111261446D01*
X90911080Y-111300485D01*
X90818386Y-111347715D01*
X90652786Y-111468028D01*
X90508028Y-111612786D01*
X90387715Y-111778386D01*
X90294781Y-111960776D01*
X90231522Y-112155465D01*
X90199500Y-112357648D01*
X90199500Y-112562351D01*
X90231522Y-112764534D01*
X90294781Y-112959223D01*
X90387715Y-113141613D01*
X90508028Y-113307213D01*
X90652786Y-113451971D01*
X90765093Y-113533565D01*
X90818390Y-113572287D01*
X90902531Y-113615159D01*
X90911080Y-113619515D01*
X90961876Y-113667490D01*
X90978671Y-113735311D01*
X90956134Y-113801446D01*
X90911080Y-113840485D01*
X90818386Y-113887715D01*
X90652786Y-114008028D01*
X90508028Y-114152786D01*
X90387715Y-114318386D01*
X90294781Y-114500776D01*
X90231522Y-114695465D01*
X90199500Y-114897648D01*
X90199500Y-115102351D01*
X90231522Y-115304534D01*
X90294781Y-115499223D01*
X90387715Y-115681613D01*
X90508028Y-115847213D01*
X90652786Y-115991971D01*
X90801266Y-116099846D01*
X90818390Y-116112287D01*
X90909840Y-116158883D01*
X90911080Y-116159515D01*
X90961876Y-116207490D01*
X90978671Y-116275311D01*
X90956134Y-116341446D01*
X90911080Y-116380485D01*
X90818386Y-116427715D01*
X90652786Y-116548028D01*
X90508028Y-116692786D01*
X90387715Y-116858386D01*
X90294781Y-117040776D01*
X90231522Y-117235465D01*
X90199500Y-117437648D01*
X90199500Y-117642351D01*
X90231522Y-117844534D01*
X90294781Y-118039223D01*
X90387715Y-118221613D01*
X90508028Y-118387213D01*
X90652786Y-118531971D01*
X90789093Y-118631002D01*
X90818390Y-118652287D01*
X90896137Y-118691901D01*
X90911080Y-118699515D01*
X90961876Y-118747490D01*
X90978671Y-118815311D01*
X90956134Y-118881446D01*
X90911080Y-118920485D01*
X90818386Y-118967715D01*
X90652786Y-119088028D01*
X90508028Y-119232786D01*
X90387715Y-119398386D01*
X90294781Y-119580776D01*
X90231522Y-119775465D01*
X90199500Y-119977648D01*
X90199500Y-120182351D01*
X90231522Y-120384534D01*
X90294781Y-120579223D01*
X90356265Y-120699890D01*
X90387585Y-120761359D01*
X90387715Y-120761613D01*
X90508028Y-120927213D01*
X90652786Y-121071971D01*
X90773226Y-121159474D01*
X90818390Y-121192287D01*
X90918085Y-121243084D01*
X91000776Y-121285218D01*
X91000778Y-121285218D01*
X91000781Y-121285220D01*
X91105137Y-121319127D01*
X91195465Y-121348477D01*
X91296557Y-121364488D01*
X91397648Y-121380500D01*
X91397649Y-121380500D01*
X91602351Y-121380500D01*
X91602352Y-121380500D01*
X91804534Y-121348477D01*
X91999219Y-121285220D01*
X92181610Y-121192287D01*
X92321160Y-121090899D01*
X92347213Y-121071971D01*
X92347215Y-121071968D01*
X92347219Y-121071966D01*
X92491966Y-120927219D01*
X92491968Y-120927215D01*
X92491971Y-120927213D01*
X92551215Y-120845669D01*
X92612287Y-120761610D01*
X92705220Y-120579219D01*
X92768477Y-120384534D01*
X92800500Y-120182352D01*
X92800500Y-119977648D01*
X92785000Y-119879786D01*
X92768477Y-119775465D01*
X92732523Y-119664812D01*
X92705220Y-119580781D01*
X92705218Y-119580778D01*
X92705218Y-119580776D01*
X92667239Y-119506239D01*
X92612287Y-119398390D01*
X92582857Y-119357883D01*
X92491971Y-119232786D01*
X92347213Y-119088028D01*
X92181614Y-118967715D01*
X92175006Y-118964348D01*
X92088917Y-118920483D01*
X92038123Y-118872511D01*
X92021328Y-118804690D01*
X92043865Y-118738555D01*
X92088917Y-118699516D01*
X92181610Y-118652287D01*
X92238378Y-118611043D01*
X92347213Y-118531971D01*
X92347215Y-118531968D01*
X92347219Y-118531966D01*
X92491966Y-118387219D01*
X92491968Y-118387215D01*
X92491971Y-118387213D01*
X92561016Y-118292179D01*
X92612287Y-118221610D01*
X92705220Y-118039219D01*
X92768477Y-117844534D01*
X92800500Y-117642352D01*
X92800500Y-117437648D01*
X92768477Y-117235466D01*
X92746690Y-117168414D01*
X92705218Y-117040776D01*
X92644953Y-116922501D01*
X92612287Y-116858390D01*
X92586284Y-116822600D01*
X92491971Y-116692786D01*
X92347213Y-116548028D01*
X92181614Y-116427715D01*
X92175006Y-116424348D01*
X92088917Y-116380483D01*
X92038123Y-116332511D01*
X92021328Y-116264690D01*
X92043865Y-116198555D01*
X92088917Y-116159516D01*
X92181610Y-116112287D01*
X92256073Y-116058187D01*
X92347213Y-115991971D01*
X92347215Y-115991968D01*
X92347219Y-115991966D01*
X92491966Y-115847219D01*
X92491968Y-115847215D01*
X92491971Y-115847213D01*
X92547917Y-115770208D01*
X92612287Y-115681610D01*
X92705220Y-115499219D01*
X92768477Y-115304534D01*
X92800500Y-115102352D01*
X92800500Y-114897648D01*
X92768477Y-114695466D01*
X92746690Y-114628414D01*
X92727971Y-114570801D01*
X92705220Y-114500781D01*
X92705218Y-114500778D01*
X92705218Y-114500776D01*
X92663002Y-114417924D01*
X92612287Y-114318390D01*
X92587527Y-114284310D01*
X92491971Y-114152786D01*
X92347213Y-114008028D01*
X92181614Y-113887715D01*
X92175006Y-113884348D01*
X92088917Y-113840483D01*
X92038123Y-113792511D01*
X92021328Y-113724690D01*
X92043865Y-113658555D01*
X92088917Y-113619516D01*
X92181610Y-113572287D01*
X92238378Y-113531043D01*
X92347213Y-113451971D01*
X92347215Y-113451968D01*
X92347219Y-113451966D01*
X92491966Y-113307219D01*
X92491968Y-113307215D01*
X92491971Y-113307213D01*
X92555006Y-113220451D01*
X92612287Y-113141610D01*
X92705220Y-112959219D01*
X92768477Y-112764534D01*
X92800500Y-112562352D01*
X92800500Y-112357648D01*
X92787856Y-112277816D01*
X92768477Y-112155465D01*
X92705218Y-111960776D01*
X92644953Y-111842501D01*
X92612287Y-111778390D01*
X92586284Y-111742600D01*
X92491971Y-111612786D01*
X92347213Y-111468028D01*
X92181614Y-111347715D01*
X92175006Y-111344348D01*
X92088917Y-111300483D01*
X92038123Y-111252511D01*
X92021328Y-111184690D01*
X92043865Y-111118555D01*
X92088917Y-111079516D01*
X92181610Y-111032287D01*
X92289148Y-110954157D01*
X92347213Y-110911971D01*
X92347215Y-110911968D01*
X92347219Y-110911966D01*
X92491966Y-110767219D01*
X92491968Y-110767215D01*
X92491971Y-110767213D01*
X92576558Y-110650787D01*
X92612287Y-110601610D01*
X92705220Y-110419219D01*
X92768477Y-110224534D01*
X92800500Y-110022352D01*
X92800500Y-109817648D01*
X92768477Y-109615466D01*
X92746690Y-109548414D01*
X92705218Y-109420776D01*
X92653731Y-109319728D01*
X92612287Y-109238390D01*
X92584038Y-109199508D01*
X92491971Y-109072786D01*
X92347213Y-108928028D01*
X92181614Y-108807715D01*
X92175006Y-108804348D01*
X92088917Y-108760483D01*
X92038123Y-108712511D01*
X92021328Y-108644690D01*
X92043865Y-108578555D01*
X92088917Y-108539516D01*
X92181610Y-108492287D01*
X92254730Y-108439163D01*
X92347213Y-108371971D01*
X92347215Y-108371968D01*
X92347219Y-108371966D01*
X92491966Y-108227219D01*
X92491968Y-108227215D01*
X92491971Y-108227213D01*
X92544732Y-108154590D01*
X92612287Y-108061610D01*
X92705220Y-107879219D01*
X92768477Y-107684534D01*
X92768476Y-107684534D01*
X92768478Y-107684531D01*
X92800500Y-107482351D01*
X92800500Y-107277648D01*
X92768477Y-107075465D01*
X92737458Y-106980000D01*
X92705220Y-106880781D01*
X92705218Y-106880778D01*
X92705218Y-106880776D01*
X92664060Y-106800000D01*
X92612287Y-106698390D01*
X92580092Y-106654077D01*
X92491971Y-106532786D01*
X92347213Y-106388028D01*
X92181614Y-106267715D01*
X92155340Y-106254328D01*
X92088917Y-106220483D01*
X92038123Y-106172511D01*
X92021328Y-106104690D01*
X92043865Y-106038555D01*
X92088917Y-105999516D01*
X92181610Y-105952287D01*
X92217588Y-105926148D01*
X92347213Y-105831971D01*
X92347215Y-105831968D01*
X92347219Y-105831966D01*
X92491966Y-105687219D01*
X92491968Y-105687215D01*
X92491971Y-105687213D01*
X92555334Y-105600000D01*
X92612287Y-105521610D01*
X92705220Y-105339219D01*
X92768477Y-105144534D01*
X92800500Y-104942352D01*
X92800500Y-104737648D01*
X92777450Y-104592116D01*
X92768477Y-104535465D01*
X92705218Y-104340776D01*
X92667239Y-104266239D01*
X92612287Y-104158390D01*
X92586284Y-104122600D01*
X92491971Y-103992786D01*
X92347219Y-103848034D01*
X92341272Y-103843713D01*
X92253547Y-103779978D01*
X92210882Y-103724649D01*
X92204903Y-103655036D01*
X92237508Y-103593240D01*
X92287426Y-103561955D01*
X92369334Y-103534814D01*
X92518656Y-103442712D01*
X92642712Y-103318656D01*
X92734814Y-103169334D01*
X92789999Y-103002797D01*
X92800500Y-102900009D01*
X92800499Y-102197648D01*
X97819500Y-102197648D01*
X97819500Y-102402351D01*
X97851522Y-102604534D01*
X97914781Y-102799223D01*
X98007715Y-102981613D01*
X98128028Y-103147213D01*
X98272786Y-103291971D01*
X98393664Y-103379792D01*
X98438390Y-103412287D01*
X98529840Y-103458883D01*
X98531080Y-103459515D01*
X98581876Y-103507490D01*
X98598671Y-103575311D01*
X98576134Y-103641446D01*
X98531080Y-103680485D01*
X98438386Y-103727715D01*
X98272786Y-103848028D01*
X98128028Y-103992786D01*
X98007715Y-104158386D01*
X97914781Y-104340776D01*
X97851522Y-104535465D01*
X97827296Y-104688426D01*
X97819500Y-104737648D01*
X97819500Y-104942352D01*
X97820026Y-104945670D01*
X97851522Y-105144534D01*
X97914781Y-105339223D01*
X97966385Y-105440499D01*
X97999514Y-105505519D01*
X98007715Y-105521613D01*
X98128028Y-105687213D01*
X98272786Y-105831971D01*
X98438385Y-105952284D01*
X98438387Y-105952285D01*
X98438390Y-105952287D01*
X98524843Y-105996337D01*
X98531630Y-105999795D01*
X98582426Y-106047770D01*
X98599221Y-106115591D01*
X98576684Y-106181725D01*
X98531630Y-106220765D01*
X98438644Y-106268143D01*
X98394077Y-106300523D01*
X98394077Y-106300524D01*
X99073554Y-106980000D01*
X99067339Y-106980000D01*
X98965606Y-107007259D01*
X98874394Y-107059920D01*
X98799920Y-107134394D01*
X98747259Y-107225606D01*
X98720000Y-107327339D01*
X98720000Y-107333553D01*
X98040524Y-106654077D01*
X98040523Y-106654077D01*
X98008143Y-106698644D01*
X97915244Y-106880968D01*
X97852009Y-107075582D01*
X97820000Y-107277682D01*
X97820000Y-107482317D01*
X97852009Y-107684417D01*
X97915244Y-107879031D01*
X98008141Y-108061350D01*
X98008147Y-108061359D01*
X98040523Y-108105921D01*
X98040524Y-108105922D01*
X98720000Y-107426446D01*
X98720000Y-107432661D01*
X98747259Y-107534394D01*
X98799920Y-107625606D01*
X98874394Y-107700080D01*
X98965606Y-107752741D01*
X99067339Y-107780000D01*
X99073553Y-107780000D01*
X98394076Y-108459474D01*
X98438652Y-108491861D01*
X98531628Y-108539234D01*
X98582425Y-108587208D01*
X98599220Y-108655029D01*
X98576683Y-108721164D01*
X98531630Y-108760203D01*
X98438388Y-108807713D01*
X98272786Y-108928028D01*
X98128028Y-109072786D01*
X98007715Y-109238386D01*
X97914781Y-109420776D01*
X97851522Y-109615465D01*
X97819500Y-109817648D01*
X97819500Y-110022351D01*
X97851522Y-110224534D01*
X97914781Y-110419223D01*
X98007715Y-110601613D01*
X98128028Y-110767213D01*
X98272786Y-110911971D01*
X98421266Y-111019846D01*
X98438390Y-111032287D01*
X98529840Y-111078883D01*
X98531080Y-111079515D01*
X98581876Y-111127490D01*
X98598671Y-111195311D01*
X98576134Y-111261446D01*
X98531080Y-111300485D01*
X98438386Y-111347715D01*
X98272786Y-111468028D01*
X98128028Y-111612786D01*
X98007715Y-111778386D01*
X97914781Y-111960776D01*
X97851522Y-112155465D01*
X97819500Y-112357648D01*
X97819500Y-112562351D01*
X97851522Y-112764534D01*
X97914781Y-112959223D01*
X98007715Y-113141613D01*
X98128028Y-113307213D01*
X98272786Y-113451971D01*
X98385093Y-113533565D01*
X98438390Y-113572287D01*
X98522531Y-113615159D01*
X98531080Y-113619515D01*
X98581876Y-113667490D01*
X98598671Y-113735311D01*
X98576134Y-113801446D01*
X98531080Y-113840485D01*
X98438386Y-113887715D01*
X98272786Y-114008028D01*
X98128028Y-114152786D01*
X98007715Y-114318386D01*
X97914781Y-114500776D01*
X97851522Y-114695465D01*
X97819500Y-114897648D01*
X97819500Y-115102351D01*
X97851522Y-115304534D01*
X97914781Y-115499223D01*
X98007715Y-115681613D01*
X98128028Y-115847213D01*
X98272786Y-115991971D01*
X98421266Y-116099846D01*
X98438390Y-116112287D01*
X98529840Y-116158883D01*
X98531080Y-116159515D01*
X98581876Y-116207490D01*
X98598671Y-116275311D01*
X98576134Y-116341446D01*
X98531080Y-116380485D01*
X98438386Y-116427715D01*
X98272786Y-116548028D01*
X98128028Y-116692786D01*
X98007715Y-116858386D01*
X97914781Y-117040776D01*
X97851522Y-117235465D01*
X97819500Y-117437648D01*
X97819500Y-117642351D01*
X97851522Y-117844534D01*
X97914781Y-118039223D01*
X98007715Y-118221613D01*
X98128028Y-118387213D01*
X98272786Y-118531971D01*
X98438385Y-118652284D01*
X98438387Y-118652285D01*
X98438390Y-118652287D01*
X98516137Y-118691901D01*
X98531630Y-118699795D01*
X98582426Y-118747770D01*
X98599221Y-118815591D01*
X98576684Y-118881725D01*
X98531630Y-118920765D01*
X98438644Y-118968143D01*
X98394077Y-119000523D01*
X98394077Y-119000524D01*
X99073554Y-119680000D01*
X99067339Y-119680000D01*
X98965606Y-119707259D01*
X98874394Y-119759920D01*
X98799920Y-119834394D01*
X98747259Y-119925606D01*
X98720000Y-120027339D01*
X98720000Y-120033553D01*
X98040524Y-119354077D01*
X98040523Y-119354077D01*
X98008143Y-119398644D01*
X97915244Y-119580968D01*
X97852009Y-119775582D01*
X97820000Y-119977682D01*
X97820000Y-120182317D01*
X97852009Y-120384417D01*
X97915244Y-120579031D01*
X98008141Y-120761350D01*
X98008147Y-120761359D01*
X98040523Y-120805921D01*
X98040524Y-120805922D01*
X98720000Y-120126446D01*
X98720000Y-120132661D01*
X98747259Y-120234394D01*
X98799920Y-120325606D01*
X98874394Y-120400080D01*
X98965606Y-120452741D01*
X99067339Y-120480000D01*
X99073553Y-120480000D01*
X98394076Y-121159474D01*
X98438650Y-121191859D01*
X98620968Y-121284755D01*
X98815582Y-121347990D01*
X99017683Y-121380000D01*
X99222317Y-121380000D01*
X99316959Y-121365010D01*
X99386252Y-121373964D01*
X99439704Y-121418961D01*
X99460344Y-121485712D01*
X99452239Y-121528035D01*
X99453031Y-121528276D01*
X99451261Y-121534110D01*
X99420500Y-121688753D01*
X99420500Y-121846446D01*
X99451261Y-122001089D01*
X99451264Y-122001101D01*
X99511602Y-122146772D01*
X99511609Y-122146785D01*
X99599210Y-122277888D01*
X99599213Y-122277892D01*
X99710707Y-122389386D01*
X99710711Y-122389389D01*
X99841814Y-122476990D01*
X99841827Y-122476997D01*
X99978633Y-122533663D01*
X99987503Y-122537337D01*
X100104152Y-122560540D01*
X100142153Y-122568099D01*
X100142156Y-122568100D01*
X100142158Y-122568100D01*
X100299844Y-122568100D01*
X100299845Y-122568099D01*
X100454497Y-122537337D01*
X100463367Y-122533662D01*
X100532833Y-122526190D01*
X100595314Y-122557461D01*
X100598505Y-122560540D01*
X108511284Y-130473319D01*
X108544769Y-130534642D01*
X108539785Y-130604334D01*
X108497913Y-130660267D01*
X108432449Y-130684684D01*
X108423603Y-130685000D01*
X108275954Y-130685000D01*
X108066072Y-130718242D01*
X108066069Y-130718242D01*
X107863982Y-130783904D01*
X107674639Y-130880380D01*
X107620482Y-130919727D01*
X107620482Y-130919728D01*
X108252791Y-131552037D01*
X108189207Y-131569075D01*
X108075193Y-131634901D01*
X107982101Y-131727993D01*
X107916275Y-131842007D01*
X107899237Y-131905591D01*
X107266928Y-131273282D01*
X107266927Y-131273282D01*
X107227580Y-131327439D01*
X107131104Y-131516782D01*
X107065442Y-131718869D01*
X107065442Y-131718872D01*
X107032200Y-131928753D01*
X107032200Y-132141246D01*
X107065442Y-132351127D01*
X107065442Y-132351130D01*
X107131104Y-132553217D01*
X107227575Y-132742550D01*
X107266928Y-132796716D01*
X107899237Y-132164408D01*
X107916275Y-132227993D01*
X107982101Y-132342007D01*
X108075193Y-132435099D01*
X108189207Y-132500925D01*
X108252790Y-132517962D01*
X107620482Y-133150269D01*
X107620482Y-133150270D01*
X107674649Y-133189624D01*
X107863982Y-133286095D01*
X108066070Y-133351757D01*
X108275954Y-133385000D01*
X108488446Y-133385000D01*
X108698327Y-133351757D01*
X108698330Y-133351757D01*
X108900417Y-133286095D01*
X109089754Y-133189622D01*
X109143916Y-133150270D01*
X109143917Y-133150270D01*
X108511608Y-132517962D01*
X108575193Y-132500925D01*
X108689207Y-132435099D01*
X108782299Y-132342007D01*
X108848125Y-132227993D01*
X108865162Y-132164408D01*
X109497470Y-132796717D01*
X109497470Y-132796716D01*
X109536822Y-132742555D01*
X109541432Y-132733507D01*
X109589405Y-132682709D01*
X109657225Y-132665912D01*
X109723361Y-132688447D01*
X109762404Y-132733504D01*
X109767149Y-132742817D01*
X109892090Y-132914786D01*
X110042413Y-133065109D01*
X110214379Y-133190048D01*
X110214381Y-133190049D01*
X110214384Y-133190051D01*
X110403788Y-133286557D01*
X110605957Y-133352246D01*
X110815913Y-133385500D01*
X110815914Y-133385500D01*
X111028486Y-133385500D01*
X111028487Y-133385500D01*
X111238443Y-133352246D01*
X111440612Y-133286557D01*
X111630016Y-133190051D01*
X111716338Y-133127335D01*
X111801986Y-133065109D01*
X111801988Y-133065106D01*
X111801992Y-133065104D01*
X111952304Y-132914792D01*
X111952306Y-132914788D01*
X111952309Y-132914786D01*
X112077248Y-132742820D01*
X112077250Y-132742817D01*
X112077251Y-132742816D01*
X112081714Y-132734054D01*
X112129688Y-132683259D01*
X112197508Y-132666463D01*
X112263644Y-132688999D01*
X112302686Y-132734056D01*
X112307151Y-132742820D01*
X112432090Y-132914786D01*
X112582413Y-133065109D01*
X112754379Y-133190048D01*
X112754381Y-133190049D01*
X112754384Y-133190051D01*
X112943788Y-133286557D01*
X113145957Y-133352246D01*
X113355913Y-133385500D01*
X113355914Y-133385500D01*
X113568486Y-133385500D01*
X113568487Y-133385500D01*
X113778443Y-133352246D01*
X113980612Y-133286557D01*
X114170016Y-133190051D01*
X114256338Y-133127335D01*
X114341986Y-133065109D01*
X114341988Y-133065106D01*
X114341992Y-133065104D01*
X114492304Y-132914792D01*
X114492306Y-132914788D01*
X114492309Y-132914786D01*
X114617248Y-132742820D01*
X114617250Y-132742817D01*
X114617251Y-132742816D01*
X114621714Y-132734054D01*
X114669688Y-132683259D01*
X114737508Y-132666463D01*
X114803644Y-132688999D01*
X114842686Y-132734056D01*
X114847151Y-132742820D01*
X114972090Y-132914786D01*
X115122413Y-133065109D01*
X115294379Y-133190048D01*
X115294381Y-133190049D01*
X115294384Y-133190051D01*
X115483788Y-133286557D01*
X115685957Y-133352246D01*
X115895913Y-133385500D01*
X115895914Y-133385500D01*
X116108486Y-133385500D01*
X116108487Y-133385500D01*
X116318443Y-133352246D01*
X116520612Y-133286557D01*
X116710016Y-133190051D01*
X116796338Y-133127335D01*
X116881986Y-133065109D01*
X116881988Y-133065106D01*
X116881992Y-133065104D01*
X117032304Y-132914792D01*
X117032306Y-132914788D01*
X117032309Y-132914786D01*
X117157248Y-132742820D01*
X117157250Y-132742817D01*
X117157251Y-132742816D01*
X117161714Y-132734054D01*
X117209688Y-132683259D01*
X117277508Y-132666463D01*
X117343644Y-132688999D01*
X117382686Y-132734056D01*
X117387151Y-132742820D01*
X117512090Y-132914786D01*
X117662413Y-133065109D01*
X117834379Y-133190048D01*
X117834381Y-133190049D01*
X117834384Y-133190051D01*
X118023788Y-133286557D01*
X118225957Y-133352246D01*
X118435913Y-133385500D01*
X118435914Y-133385500D01*
X118648486Y-133385500D01*
X118648487Y-133385500D01*
X118858443Y-133352246D01*
X119060612Y-133286557D01*
X119250016Y-133190051D01*
X119421992Y-133065104D01*
X119535529Y-132951566D01*
X119596848Y-132918084D01*
X119666540Y-132923068D01*
X119722474Y-132964939D01*
X119739389Y-132995917D01*
X119788402Y-133127328D01*
X119788406Y-133127335D01*
X119874652Y-133242544D01*
X119874655Y-133242547D01*
X119989864Y-133328793D01*
X119989871Y-133328797D01*
X120124717Y-133379091D01*
X120124716Y-133379091D01*
X120131644Y-133379835D01*
X120184327Y-133385500D01*
X121980072Y-133385499D01*
X122039683Y-133379091D01*
X122174531Y-133328796D01*
X122289746Y-133242546D01*
X122375996Y-133127331D01*
X122426291Y-132992483D01*
X122432700Y-132932873D01*
X122432699Y-131393713D01*
X128649500Y-131393713D01*
X128649500Y-131606287D01*
X128682754Y-131816243D01*
X128715066Y-131915690D01*
X128748444Y-132018414D01*
X128844951Y-132207820D01*
X128969890Y-132379786D01*
X129120213Y-132530109D01*
X129292179Y-132655048D01*
X129292181Y-132655049D01*
X129292184Y-132655051D01*
X129481588Y-132751557D01*
X129683757Y-132817246D01*
X129893713Y-132850500D01*
X129893714Y-132850500D01*
X130106286Y-132850500D01*
X130106287Y-132850500D01*
X130316243Y-132817246D01*
X130518412Y-132751557D01*
X130707816Y-132655051D01*
X130806611Y-132583273D01*
X130879786Y-132530109D01*
X130879788Y-132530106D01*
X130879792Y-132530104D01*
X131030104Y-132379792D01*
X131030106Y-132379788D01*
X131030109Y-132379786D01*
X131155048Y-132207820D01*
X131155047Y-132207820D01*
X131155051Y-132207816D01*
X131251557Y-132018412D01*
X131317246Y-131816243D01*
X131350500Y-131606287D01*
X131350500Y-131393713D01*
X131317246Y-131183757D01*
X131251557Y-130981588D01*
X131155051Y-130792184D01*
X131155049Y-130792181D01*
X131155048Y-130792179D01*
X131030109Y-130620213D01*
X130879786Y-130469890D01*
X130707820Y-130344951D01*
X130518414Y-130248444D01*
X130518413Y-130248443D01*
X130518412Y-130248443D01*
X130316243Y-130182754D01*
X130316241Y-130182753D01*
X130316240Y-130182753D01*
X130143569Y-130155405D01*
X130106287Y-130149500D01*
X129893713Y-130149500D01*
X129856431Y-130155405D01*
X129683760Y-130182753D01*
X129481585Y-130248444D01*
X129292179Y-130344951D01*
X129120213Y-130469890D01*
X128969890Y-130620213D01*
X128844951Y-130792179D01*
X128748444Y-130981585D01*
X128682753Y-131183760D01*
X128655861Y-131353554D01*
X128649500Y-131393713D01*
X122432699Y-131393713D01*
X122432699Y-131137128D01*
X122426291Y-131077517D01*
X122425010Y-131074083D01*
X122375997Y-130942671D01*
X122375993Y-130942664D01*
X122289747Y-130827455D01*
X122289744Y-130827452D01*
X122174535Y-130741206D01*
X122174528Y-130741202D01*
X122039682Y-130690908D01*
X122039683Y-130690908D01*
X121980083Y-130684501D01*
X121980081Y-130684500D01*
X121980073Y-130684500D01*
X121980064Y-130684500D01*
X120184329Y-130684500D01*
X120184323Y-130684501D01*
X120124716Y-130690908D01*
X119989871Y-130741202D01*
X119989864Y-130741206D01*
X119874655Y-130827452D01*
X119874652Y-130827455D01*
X119788406Y-130942664D01*
X119788403Y-130942669D01*
X119739389Y-131074083D01*
X119697517Y-131130016D01*
X119632053Y-131154433D01*
X119563780Y-131139581D01*
X119535526Y-131118430D01*
X119421986Y-131004890D01*
X119250020Y-130879951D01*
X119060614Y-130783444D01*
X119060613Y-130783443D01*
X119060612Y-130783443D01*
X118858443Y-130717754D01*
X118858441Y-130717753D01*
X118858440Y-130717753D01*
X118697157Y-130692208D01*
X118648487Y-130684500D01*
X118435913Y-130684500D01*
X118387242Y-130692208D01*
X118225960Y-130717753D01*
X118023785Y-130783444D01*
X117834379Y-130879951D01*
X117662413Y-131004890D01*
X117512090Y-131155213D01*
X117387149Y-131327182D01*
X117382684Y-131335946D01*
X117334709Y-131386742D01*
X117266888Y-131403536D01*
X117200753Y-131380998D01*
X117161716Y-131335946D01*
X117157250Y-131327182D01*
X117032309Y-131155213D01*
X116881986Y-131004890D01*
X116710020Y-130879951D01*
X116520614Y-130783444D01*
X116520613Y-130783443D01*
X116520612Y-130783443D01*
X116318443Y-130717754D01*
X116318441Y-130717753D01*
X116318440Y-130717753D01*
X116157157Y-130692208D01*
X116108487Y-130684500D01*
X115895913Y-130684500D01*
X115847242Y-130692208D01*
X115685960Y-130717753D01*
X115483785Y-130783444D01*
X115294379Y-130879951D01*
X115122413Y-131004890D01*
X114972090Y-131155213D01*
X114847149Y-131327182D01*
X114842684Y-131335946D01*
X114794709Y-131386742D01*
X114726888Y-131403536D01*
X114660753Y-131380998D01*
X114621716Y-131335946D01*
X114617250Y-131327182D01*
X114492309Y-131155213D01*
X114341986Y-131004890D01*
X114170020Y-130879951D01*
X113980614Y-130783444D01*
X113980613Y-130783443D01*
X113980612Y-130783443D01*
X113778443Y-130717754D01*
X113778441Y-130717753D01*
X113778440Y-130717753D01*
X113617157Y-130692208D01*
X113568487Y-130684500D01*
X113355913Y-130684500D01*
X113307242Y-130692208D01*
X113145960Y-130717753D01*
X112943785Y-130783444D01*
X112754379Y-130879951D01*
X112582413Y-131004890D01*
X112432090Y-131155213D01*
X112307149Y-131327182D01*
X112302684Y-131335946D01*
X112254709Y-131386742D01*
X112186888Y-131403536D01*
X112120753Y-131380998D01*
X112081716Y-131335946D01*
X112077250Y-131327182D01*
X111952309Y-131155213D01*
X111801986Y-131004890D01*
X111630020Y-130879951D01*
X111440614Y-130783444D01*
X111440613Y-130783443D01*
X111440612Y-130783443D01*
X111238443Y-130717754D01*
X111238441Y-130717753D01*
X111238440Y-130717753D01*
X111077157Y-130692208D01*
X111028487Y-130684500D01*
X110815913Y-130684500D01*
X110787206Y-130689046D01*
X110605957Y-130717753D01*
X110563673Y-130731492D01*
X110493832Y-130733486D01*
X110437676Y-130701241D01*
X101066190Y-121329755D01*
X101066188Y-121329752D01*
X100947317Y-121210881D01*
X100947316Y-121210880D01*
X100860504Y-121160760D01*
X100810385Y-121131823D01*
X100658385Y-121091094D01*
X100653723Y-121089437D01*
X100648792Y-121085863D01*
X100626363Y-121075701D01*
X100600179Y-121058206D01*
X100600174Y-121058203D01*
X100454501Y-120997864D01*
X100454491Y-120997861D01*
X100299817Y-120967094D01*
X100237906Y-120934709D01*
X100203332Y-120873993D01*
X100207073Y-120804223D01*
X100223695Y-120772587D01*
X100231857Y-120761353D01*
X100324755Y-120579031D01*
X100387990Y-120384417D01*
X100420000Y-120182317D01*
X100420000Y-119977682D01*
X100387990Y-119775582D01*
X100324755Y-119580968D01*
X100231859Y-119398650D01*
X100199474Y-119354077D01*
X100199474Y-119354076D01*
X99520000Y-120033553D01*
X99520000Y-120027339D01*
X99492741Y-119925606D01*
X99440080Y-119834394D01*
X99365606Y-119759920D01*
X99274394Y-119707259D01*
X99172661Y-119680000D01*
X99166446Y-119680000D01*
X99845922Y-119000524D01*
X99845921Y-119000523D01*
X99801359Y-118968147D01*
X99801350Y-118968141D01*
X99708369Y-118920765D01*
X99657573Y-118872790D01*
X99640778Y-118804969D01*
X99663315Y-118738835D01*
X99708370Y-118699795D01*
X99723863Y-118691901D01*
X99801610Y-118652287D01*
X99858378Y-118611043D01*
X99967213Y-118531971D01*
X99967215Y-118531968D01*
X99967219Y-118531966D01*
X100111966Y-118387219D01*
X100111968Y-118387215D01*
X100111971Y-118387213D01*
X100181016Y-118292179D01*
X100232287Y-118221610D01*
X100325220Y-118039219D01*
X100388477Y-117844534D01*
X100420500Y-117642352D01*
X100420500Y-117437648D01*
X100388477Y-117235466D01*
X100366690Y-117168414D01*
X100325218Y-117040776D01*
X100264953Y-116922501D01*
X100232287Y-116858390D01*
X100206284Y-116822600D01*
X100111971Y-116692786D01*
X99967213Y-116548028D01*
X99801614Y-116427715D01*
X99795006Y-116424348D01*
X99708917Y-116380483D01*
X99658123Y-116332511D01*
X99641328Y-116264690D01*
X99663865Y-116198555D01*
X99708917Y-116159516D01*
X99801610Y-116112287D01*
X99876073Y-116058187D01*
X99967213Y-115991971D01*
X99967215Y-115991968D01*
X99967219Y-115991966D01*
X100111966Y-115847219D01*
X100111968Y-115847215D01*
X100111971Y-115847213D01*
X100167917Y-115770208D01*
X100232287Y-115681610D01*
X100325220Y-115499219D01*
X100388477Y-115304534D01*
X100420500Y-115102352D01*
X100420500Y-114897648D01*
X100388477Y-114695466D01*
X100366690Y-114628414D01*
X100347971Y-114570801D01*
X100325220Y-114500781D01*
X100325218Y-114500778D01*
X100325218Y-114500776D01*
X100283002Y-114417924D01*
X100232287Y-114318390D01*
X100207527Y-114284310D01*
X100111971Y-114152786D01*
X99967213Y-114008028D01*
X99801614Y-113887715D01*
X99795006Y-113884348D01*
X99708917Y-113840483D01*
X99658123Y-113792511D01*
X99641328Y-113724690D01*
X99663865Y-113658555D01*
X99708917Y-113619516D01*
X99801610Y-113572287D01*
X99858378Y-113531043D01*
X99967213Y-113451971D01*
X99967215Y-113451968D01*
X99967219Y-113451966D01*
X100111966Y-113307219D01*
X100111968Y-113307215D01*
X100111971Y-113307213D01*
X100175006Y-113220451D01*
X100232287Y-113141610D01*
X100325220Y-112959219D01*
X100388477Y-112764534D01*
X100420500Y-112562352D01*
X100420500Y-112357648D01*
X100407856Y-112277816D01*
X100388477Y-112155465D01*
X100325218Y-111960776D01*
X100264953Y-111842501D01*
X100232287Y-111778390D01*
X100206284Y-111742600D01*
X100111971Y-111612786D01*
X99967213Y-111468028D01*
X99801614Y-111347715D01*
X99795006Y-111344348D01*
X99708917Y-111300483D01*
X99658123Y-111252511D01*
X99641328Y-111184690D01*
X99663865Y-111118555D01*
X99708917Y-111079516D01*
X99801610Y-111032287D01*
X99909148Y-110954157D01*
X99967213Y-110911971D01*
X99967215Y-110911968D01*
X99967219Y-110911966D01*
X100111966Y-110767219D01*
X100111968Y-110767215D01*
X100111971Y-110767213D01*
X100196558Y-110650787D01*
X100232287Y-110601610D01*
X100325220Y-110419219D01*
X100388477Y-110224534D01*
X100420500Y-110022352D01*
X100420500Y-109817648D01*
X100388477Y-109615466D01*
X100366690Y-109548414D01*
X100325218Y-109420776D01*
X100273731Y-109319728D01*
X100232287Y-109238390D01*
X100204038Y-109199508D01*
X100111971Y-109072786D01*
X99967213Y-108928028D01*
X99801611Y-108807713D01*
X99708369Y-108760203D01*
X99657574Y-108712229D01*
X99640779Y-108644407D01*
X99663317Y-108578273D01*
X99708371Y-108539234D01*
X99801346Y-108491861D01*
X99801347Y-108491861D01*
X99845921Y-108459474D01*
X99166447Y-107780000D01*
X99172661Y-107780000D01*
X99274394Y-107752741D01*
X99365606Y-107700080D01*
X99440080Y-107625606D01*
X99492741Y-107534394D01*
X99520000Y-107432661D01*
X99520000Y-107426447D01*
X100199474Y-108105921D01*
X100231859Y-108061349D01*
X100324755Y-107879031D01*
X100387990Y-107684417D01*
X100420000Y-107482317D01*
X100420000Y-107277682D01*
X100387990Y-107075582D01*
X100324755Y-106880968D01*
X100231859Y-106698650D01*
X100199474Y-106654077D01*
X100199474Y-106654076D01*
X99520000Y-107333551D01*
X99520000Y-107327339D01*
X99492741Y-107225606D01*
X99440080Y-107134394D01*
X99365606Y-107059920D01*
X99274394Y-107007259D01*
X99172661Y-106980000D01*
X99166446Y-106980000D01*
X99845922Y-106300524D01*
X99845921Y-106300523D01*
X99801359Y-106268147D01*
X99801350Y-106268141D01*
X99708369Y-106220765D01*
X99657573Y-106172790D01*
X99640778Y-106104969D01*
X99663315Y-106038835D01*
X99708370Y-105999795D01*
X99715157Y-105996337D01*
X99801610Y-105952287D01*
X99851144Y-105916298D01*
X99967213Y-105831971D01*
X99967215Y-105831968D01*
X99967219Y-105831966D01*
X100111966Y-105687219D01*
X100111968Y-105687215D01*
X100111971Y-105687213D01*
X100175334Y-105600000D01*
X100232287Y-105521610D01*
X100325220Y-105339219D01*
X100388477Y-105144534D01*
X100420500Y-104942352D01*
X100420500Y-104737648D01*
X100397450Y-104592116D01*
X100388477Y-104535465D01*
X100325218Y-104340776D01*
X100287239Y-104266239D01*
X100232287Y-104158390D01*
X100206284Y-104122600D01*
X100111971Y-103992786D01*
X99967213Y-103848028D01*
X99801614Y-103727715D01*
X99795006Y-103724348D01*
X99708917Y-103680483D01*
X99658123Y-103632511D01*
X99641328Y-103564690D01*
X99663865Y-103498555D01*
X99708917Y-103459516D01*
X99801610Y-103412287D01*
X99876073Y-103358187D01*
X99967213Y-103291971D01*
X99967215Y-103291968D01*
X99967219Y-103291966D01*
X100111966Y-103147219D01*
X100111968Y-103147215D01*
X100111971Y-103147213D01*
X100167917Y-103070208D01*
X100232287Y-102981610D01*
X100325220Y-102799219D01*
X100388477Y-102604534D01*
X100420500Y-102402352D01*
X100420500Y-102393713D01*
X128649500Y-102393713D01*
X128649500Y-102606287D01*
X128651275Y-102617491D01*
X128680057Y-102799219D01*
X128682754Y-102816243D01*
X128743369Y-103002797D01*
X128748444Y-103018414D01*
X128844951Y-103207820D01*
X128969890Y-103379786D01*
X129120213Y-103530109D01*
X129292179Y-103655048D01*
X129292181Y-103655049D01*
X129292184Y-103655051D01*
X129481588Y-103751557D01*
X129683757Y-103817246D01*
X129893713Y-103850500D01*
X129893714Y-103850500D01*
X130106286Y-103850500D01*
X130106287Y-103850500D01*
X130316243Y-103817246D01*
X130518412Y-103751557D01*
X130707816Y-103655051D01*
X130782901Y-103600499D01*
X130879786Y-103530109D01*
X130879788Y-103530106D01*
X130879792Y-103530104D01*
X131030104Y-103379792D01*
X131030106Y-103379788D01*
X131030109Y-103379786D01*
X131155048Y-103207820D01*
X131155047Y-103207820D01*
X131155051Y-103207816D01*
X131251557Y-103018412D01*
X131317246Y-102816243D01*
X131350500Y-102606287D01*
X131350500Y-102393713D01*
X131317246Y-102183757D01*
X131251557Y-101981588D01*
X131155051Y-101792184D01*
X131155049Y-101792181D01*
X131155048Y-101792179D01*
X131030109Y-101620213D01*
X130879786Y-101469890D01*
X130707820Y-101344951D01*
X130518414Y-101248444D01*
X130518413Y-101248443D01*
X130518412Y-101248443D01*
X130316243Y-101182754D01*
X130316241Y-101182753D01*
X130316240Y-101182753D01*
X130154957Y-101157208D01*
X130106287Y-101149500D01*
X129893713Y-101149500D01*
X129845042Y-101157208D01*
X129683760Y-101182753D01*
X129481585Y-101248444D01*
X129292179Y-101344951D01*
X129120213Y-101469890D01*
X128969890Y-101620213D01*
X128844951Y-101792179D01*
X128748444Y-101981585D01*
X128682753Y-102183760D01*
X128663164Y-102307444D01*
X128649500Y-102393713D01*
X100420500Y-102393713D01*
X100420500Y-102197648D01*
X100397736Y-102053922D01*
X100388477Y-101995465D01*
X100331442Y-101819930D01*
X100325220Y-101800781D01*
X100325218Y-101800778D01*
X100325218Y-101800776D01*
X100273865Y-101699991D01*
X100232287Y-101618390D01*
X100216892Y-101597200D01*
X100111971Y-101452786D01*
X99967213Y-101308028D01*
X99801613Y-101187715D01*
X99801612Y-101187714D01*
X99801610Y-101187713D01*
X99726613Y-101149500D01*
X99619223Y-101094781D01*
X99424534Y-101031522D01*
X99237315Y-101001870D01*
X99222352Y-100999500D01*
X99017648Y-100999500D01*
X99002685Y-101001870D01*
X98815465Y-101031522D01*
X98620776Y-101094781D01*
X98438386Y-101187715D01*
X98272786Y-101308028D01*
X98128028Y-101452786D01*
X98007715Y-101618386D01*
X97914781Y-101800776D01*
X97851522Y-101995465D01*
X97819500Y-102197648D01*
X92800499Y-102197648D01*
X92800499Y-101699992D01*
X92792349Y-101620213D01*
X92789999Y-101597203D01*
X92789998Y-101597200D01*
X92763186Y-101516287D01*
X92734814Y-101430666D01*
X92642712Y-101281344D01*
X92518656Y-101157288D01*
X92412995Y-101092116D01*
X92369336Y-101065187D01*
X92369331Y-101065185D01*
X92331020Y-101052490D01*
X92202797Y-101010001D01*
X92202795Y-101010000D01*
X92100010Y-100999500D01*
X90899998Y-100999500D01*
X90899981Y-100999501D01*
X90797203Y-101010000D01*
X90797200Y-101010001D01*
X90630668Y-101065185D01*
X90630663Y-101065187D01*
X90481342Y-101157289D01*
X90357289Y-101281342D01*
X90265187Y-101430663D01*
X90265185Y-101430668D01*
X90251801Y-101471059D01*
X90210001Y-101597203D01*
X90210001Y-101597204D01*
X90210000Y-101597204D01*
X90199500Y-101699983D01*
X90199500Y-102900001D01*
X90199501Y-102900018D01*
X90210000Y-103002796D01*
X90210001Y-103002799D01*
X90250936Y-103126331D01*
X90265186Y-103169334D01*
X90357288Y-103318656D01*
X90481344Y-103442712D01*
X90630666Y-103534814D01*
X90712570Y-103561954D01*
X90770015Y-103601727D01*
X90796838Y-103666243D01*
X90784523Y-103735018D01*
X90746451Y-103779978D01*
X90652787Y-103848028D01*
X90652782Y-103848032D01*
X90508028Y-103992786D01*
X90387715Y-104158385D01*
X90380883Y-104171795D01*
X90332909Y-104222591D01*
X90270398Y-104239500D01*
X85040097Y-104239500D01*
X84973058Y-104219815D01*
X84952416Y-104203181D01*
X83210066Y-102460831D01*
X83176581Y-102399508D01*
X83175274Y-102353752D01*
X83200500Y-102194486D01*
X83200500Y-102005513D01*
X83170940Y-101818881D01*
X83112545Y-101639163D01*
X83049936Y-101516287D01*
X83026760Y-101470801D01*
X82915690Y-101317927D01*
X82782073Y-101184310D01*
X82629199Y-101073240D01*
X82613390Y-101065185D01*
X82460836Y-100987454D01*
X82281118Y-100929059D01*
X82094486Y-100899500D01*
X82094481Y-100899500D01*
X81905519Y-100899500D01*
X81905514Y-100899500D01*
X81718881Y-100929059D01*
X81539163Y-100987454D01*
X81370800Y-101073240D01*
X81283579Y-101136610D01*
X81217927Y-101184310D01*
X81217925Y-101184312D01*
X81217924Y-101184312D01*
X81084312Y-101317924D01*
X81084312Y-101317925D01*
X81084310Y-101317927D01*
X81064676Y-101344951D01*
X80973240Y-101470800D01*
X80887454Y-101639163D01*
X80829059Y-101818881D01*
X80799500Y-102005513D01*
X78119994Y-102005513D01*
X78090451Y-101818997D01*
X78032085Y-101639362D01*
X77946329Y-101471059D01*
X77927883Y-101445670D01*
X77927882Y-101445669D01*
X77273554Y-102099999D01*
X77270000Y-102099999D01*
X77270000Y-102053922D01*
X77246148Y-101964905D01*
X77200070Y-101885095D01*
X77134905Y-101819930D01*
X77055095Y-101773852D01*
X76966078Y-101750000D01*
X76873922Y-101750000D01*
X76784905Y-101773852D01*
X76705095Y-101819930D01*
X76639930Y-101885095D01*
X76593852Y-101964905D01*
X76570000Y-102053922D01*
X76520369Y-102053922D01*
X75912116Y-101445669D01*
X75912116Y-101445670D01*
X75893669Y-101471060D01*
X75807914Y-101639362D01*
X75749548Y-101818997D01*
X75720000Y-102005552D01*
X63712252Y-102005552D01*
X63751557Y-101928412D01*
X63817246Y-101726243D01*
X63850500Y-101516287D01*
X63850500Y-101303713D01*
X63841746Y-101248443D01*
X63827544Y-101158773D01*
X63817408Y-101094780D01*
X63817246Y-101093757D01*
X63816713Y-101092116D01*
X76265669Y-101092116D01*
X76920000Y-101746446D01*
X76920001Y-101746446D01*
X77574328Y-101092116D01*
X77548933Y-101073666D01*
X77380637Y-100987914D01*
X77201002Y-100929548D01*
X77014447Y-100900000D01*
X76825553Y-100900000D01*
X76638997Y-100929548D01*
X76459362Y-100987914D01*
X76291060Y-101073669D01*
X76265670Y-101092116D01*
X76265669Y-101092116D01*
X63816713Y-101092116D01*
X63751557Y-100891588D01*
X63655051Y-100702184D01*
X63655049Y-100702181D01*
X63655048Y-100702179D01*
X63530109Y-100530213D01*
X63379786Y-100379890D01*
X63207820Y-100254951D01*
X63207115Y-100254591D01*
X63199054Y-100250485D01*
X63148259Y-100202512D01*
X63131463Y-100134692D01*
X63153999Y-100068556D01*
X63199054Y-100029515D01*
X63207816Y-100025051D01*
X63236446Y-100004250D01*
X63379786Y-99900109D01*
X63379788Y-99900106D01*
X63379792Y-99900104D01*
X63530104Y-99749792D01*
X63530106Y-99749788D01*
X63530109Y-99749786D01*
X63655048Y-99577820D01*
X63655047Y-99577820D01*
X63655051Y-99577816D01*
X63751557Y-99388412D01*
X63817246Y-99186243D01*
X63850500Y-98976287D01*
X63850500Y-98763713D01*
X63817246Y-98553757D01*
X63751557Y-98351588D01*
X63655051Y-98162184D01*
X63655049Y-98162181D01*
X63655048Y-98162179D01*
X63530109Y-97990213D01*
X63379786Y-97839890D01*
X63207820Y-97714951D01*
X63207115Y-97714591D01*
X63199054Y-97710485D01*
X63148259Y-97662512D01*
X63131463Y-97594692D01*
X63153999Y-97528556D01*
X63199054Y-97489515D01*
X63207816Y-97485051D01*
X63321165Y-97402699D01*
X63379786Y-97360109D01*
X63379788Y-97360106D01*
X63379792Y-97360104D01*
X63530104Y-97209792D01*
X63530106Y-97209788D01*
X63530109Y-97209786D01*
X63655048Y-97037820D01*
X63655047Y-97037820D01*
X63655051Y-97037816D01*
X63751557Y-96848412D01*
X63817246Y-96646243D01*
X63850500Y-96436287D01*
X63850500Y-96223713D01*
X63817246Y-96013757D01*
X63751557Y-95811588D01*
X63655051Y-95622184D01*
X63655049Y-95622181D01*
X63655048Y-95622179D01*
X63530109Y-95450213D01*
X63379786Y-95299890D01*
X63207820Y-95174951D01*
X63207115Y-95174591D01*
X63199054Y-95170485D01*
X63148259Y-95122512D01*
X63131463Y-95054692D01*
X63153999Y-94988556D01*
X63199054Y-94949515D01*
X63207816Y-94945051D01*
X63229789Y-94929086D01*
X63379786Y-94820109D01*
X63379788Y-94820106D01*
X63379792Y-94820104D01*
X63530104Y-94669792D01*
X63530106Y-94669788D01*
X63530109Y-94669786D01*
X63655048Y-94497820D01*
X63655047Y-94497820D01*
X63655051Y-94497816D01*
X63751557Y-94308412D01*
X63817246Y-94106243D01*
X63850500Y-93896287D01*
X63850500Y-93683713D01*
X63817246Y-93473757D01*
X63751557Y-93271588D01*
X63655051Y-93082184D01*
X63569186Y-92964000D01*
X63541408Y-92925766D01*
X63541406Y-92925764D01*
X63530105Y-92910209D01*
X63379786Y-92759890D01*
X63207817Y-92634949D01*
X63198504Y-92630204D01*
X63147707Y-92582230D01*
X63130912Y-92514409D01*
X63153449Y-92448274D01*
X63198507Y-92409232D01*
X63207555Y-92404622D01*
X63261716Y-92365270D01*
X63261717Y-92365270D01*
X62629408Y-91732962D01*
X62692993Y-91715925D01*
X62807007Y-91650099D01*
X62900099Y-91557007D01*
X62965925Y-91442993D01*
X62982962Y-91379408D01*
X63615270Y-92011717D01*
X63615270Y-92011716D01*
X63654622Y-91957554D01*
X63751095Y-91768217D01*
X63816757Y-91566130D01*
X63816757Y-91566127D01*
X63850000Y-91356246D01*
X63850000Y-91143753D01*
X63816757Y-90933872D01*
X63816757Y-90933869D01*
X63751095Y-90731782D01*
X63654624Y-90542449D01*
X63615270Y-90488282D01*
X63615269Y-90488282D01*
X62982962Y-91120590D01*
X62965925Y-91057007D01*
X62900099Y-90942993D01*
X62807007Y-90849901D01*
X62692993Y-90784075D01*
X62629409Y-90767037D01*
X63299627Y-90096818D01*
X63360950Y-90063333D01*
X63387307Y-90060499D01*
X63397872Y-90060499D01*
X63457483Y-90054091D01*
X63592331Y-90003796D01*
X63707546Y-89917546D01*
X63716951Y-89904982D01*
X72211900Y-89904982D01*
X72211900Y-91705017D01*
X72222400Y-91807796D01*
X72238630Y-91856774D01*
X72277586Y-91974335D01*
X72369688Y-92123656D01*
X72493744Y-92247712D01*
X72643065Y-92339814D01*
X72809602Y-92394999D01*
X72912390Y-92405500D01*
X72912395Y-92405500D01*
X74712405Y-92405500D01*
X74712410Y-92405500D01*
X74815198Y-92394999D01*
X74981735Y-92339814D01*
X75131056Y-92247712D01*
X75255112Y-92123656D01*
X75347214Y-91974335D01*
X75402399Y-91807798D01*
X75412900Y-91705010D01*
X75412900Y-90679038D01*
X82371900Y-90679038D01*
X82371900Y-90930962D01*
X82372361Y-90933872D01*
X82411310Y-91179785D01*
X82489160Y-91419383D01*
X82522867Y-91485535D01*
X82597263Y-91631546D01*
X82603532Y-91643848D01*
X82751601Y-91847649D01*
X82751605Y-91847654D01*
X82929745Y-92025794D01*
X82929750Y-92025798D01*
X83067301Y-92125734D01*
X83133555Y-92173870D01*
X83261064Y-92238839D01*
X83358016Y-92288239D01*
X83358018Y-92288239D01*
X83358021Y-92288241D01*
X83597615Y-92366090D01*
X83846438Y-92405500D01*
X83846439Y-92405500D01*
X84098361Y-92405500D01*
X84098362Y-92405500D01*
X84347185Y-92366090D01*
X84586779Y-92288241D01*
X84811245Y-92173870D01*
X85015056Y-92025793D01*
X85193193Y-91847656D01*
X85341270Y-91643845D01*
X85455641Y-91419379D01*
X85533490Y-91179785D01*
X85572900Y-90930962D01*
X85572900Y-90679038D01*
X85533490Y-90430215D01*
X85455641Y-90190621D01*
X85455639Y-90190618D01*
X85455639Y-90190616D01*
X85404584Y-90090416D01*
X85341270Y-89966155D01*
X85296825Y-89904982D01*
X85193198Y-89762350D01*
X85193194Y-89762345D01*
X85015054Y-89584205D01*
X85015049Y-89584201D01*
X84935127Y-89526135D01*
X120315500Y-89526135D01*
X120315500Y-91321870D01*
X120315501Y-91321876D01*
X120321908Y-91381483D01*
X120372202Y-91516328D01*
X120372206Y-91516335D01*
X120458452Y-91631544D01*
X120458455Y-91631547D01*
X120573664Y-91717793D01*
X120573671Y-91717797D01*
X120605336Y-91729607D01*
X120708517Y-91768091D01*
X120768127Y-91774500D01*
X120778685Y-91774499D01*
X120845723Y-91794179D01*
X120866372Y-91810818D01*
X121536591Y-92481037D01*
X121473007Y-92498075D01*
X121358993Y-92563901D01*
X121265901Y-92656993D01*
X121200075Y-92771007D01*
X121183037Y-92834591D01*
X120550728Y-92202282D01*
X120550727Y-92202282D01*
X120511380Y-92256439D01*
X120414904Y-92445782D01*
X120349242Y-92647869D01*
X120349242Y-92647872D01*
X120316000Y-92857753D01*
X120316000Y-93070246D01*
X120349242Y-93280127D01*
X120349242Y-93280130D01*
X120414904Y-93482217D01*
X120511375Y-93671550D01*
X120550728Y-93725716D01*
X121183037Y-93093408D01*
X121200075Y-93156993D01*
X121265901Y-93271007D01*
X121358993Y-93364099D01*
X121473007Y-93429925D01*
X121536590Y-93446962D01*
X120904282Y-94079269D01*
X120904282Y-94079270D01*
X120958449Y-94118624D01*
X121147782Y-94215095D01*
X121349870Y-94280757D01*
X121559754Y-94314000D01*
X121772246Y-94314000D01*
X121982127Y-94280757D01*
X121982130Y-94280757D01*
X122184217Y-94215095D01*
X122373554Y-94118622D01*
X122427716Y-94079270D01*
X122427717Y-94079270D01*
X121795408Y-93446962D01*
X121858993Y-93429925D01*
X121973007Y-93364099D01*
X122066099Y-93271007D01*
X122131925Y-93156993D01*
X122148962Y-93093409D01*
X122781270Y-93725717D01*
X122781270Y-93725716D01*
X122820622Y-93671554D01*
X122917095Y-93482217D01*
X122982757Y-93280130D01*
X122982757Y-93280127D01*
X123016000Y-93070246D01*
X123016000Y-92857756D01*
X123013422Y-92841481D01*
X123013422Y-92841479D01*
X122982757Y-92647872D01*
X122982757Y-92647869D01*
X122917095Y-92445782D01*
X122820624Y-92256449D01*
X122781270Y-92202282D01*
X122781269Y-92202282D01*
X122148962Y-92834590D01*
X122131925Y-92771007D01*
X122066099Y-92656993D01*
X121973007Y-92563901D01*
X121858993Y-92498075D01*
X121795409Y-92481037D01*
X122465627Y-91810818D01*
X122526950Y-91777333D01*
X122553307Y-91774499D01*
X122563872Y-91774499D01*
X122623483Y-91768091D01*
X122758331Y-91717796D01*
X122873546Y-91631546D01*
X122959796Y-91516331D01*
X123010091Y-91381483D01*
X123016500Y-91321873D01*
X123016499Y-89526128D01*
X123013189Y-89495335D01*
X128214500Y-89495335D01*
X128214500Y-91291070D01*
X128214501Y-91291076D01*
X128220908Y-91350683D01*
X128271202Y-91485528D01*
X128271206Y-91485535D01*
X128357452Y-91600744D01*
X128357455Y-91600747D01*
X128472664Y-91686993D01*
X128472671Y-91686997D01*
X128514205Y-91702488D01*
X128607517Y-91737291D01*
X128667127Y-91743700D01*
X128677685Y-91743699D01*
X128744723Y-91763379D01*
X128765372Y-91780018D01*
X129435591Y-92450237D01*
X129372007Y-92467275D01*
X129257993Y-92533101D01*
X129164901Y-92626193D01*
X129099075Y-92740207D01*
X129082037Y-92803791D01*
X128449728Y-92171482D01*
X128449727Y-92171482D01*
X128410380Y-92225639D01*
X128313904Y-92414982D01*
X128248242Y-92617069D01*
X128248242Y-92617072D01*
X128215000Y-92826953D01*
X128215000Y-93039446D01*
X128248242Y-93249327D01*
X128248242Y-93249330D01*
X128313904Y-93451417D01*
X128410375Y-93640750D01*
X128449728Y-93694916D01*
X129082037Y-93062608D01*
X129099075Y-93126193D01*
X129164901Y-93240207D01*
X129257993Y-93333299D01*
X129372007Y-93399125D01*
X129435590Y-93416162D01*
X128803282Y-94048469D01*
X128803282Y-94048470D01*
X128857449Y-94087824D01*
X129046782Y-94184295D01*
X129248870Y-94249957D01*
X129458754Y-94283200D01*
X129671246Y-94283200D01*
X129881127Y-94249957D01*
X129881130Y-94249957D01*
X130083217Y-94184295D01*
X130272554Y-94087822D01*
X130326716Y-94048470D01*
X130326717Y-94048470D01*
X129694408Y-93416162D01*
X129757993Y-93399125D01*
X129872007Y-93333299D01*
X129965099Y-93240207D01*
X130030925Y-93126193D01*
X130047962Y-93062609D01*
X130680270Y-93694917D01*
X130680270Y-93694916D01*
X130719622Y-93640754D01*
X130816095Y-93451417D01*
X130881757Y-93249330D01*
X130881757Y-93249327D01*
X130915000Y-93039446D01*
X130915000Y-92826953D01*
X130881757Y-92617072D01*
X130881757Y-92617069D01*
X130816095Y-92414982D01*
X130719624Y-92225649D01*
X130680270Y-92171482D01*
X130680269Y-92171482D01*
X130047962Y-92803790D01*
X130030925Y-92740207D01*
X129965099Y-92626193D01*
X129872007Y-92533101D01*
X129757993Y-92467275D01*
X129694409Y-92450237D01*
X130364627Y-91780018D01*
X130425950Y-91746533D01*
X130452307Y-91743699D01*
X130462872Y-91743699D01*
X130522483Y-91737291D01*
X130657331Y-91686996D01*
X130772546Y-91600746D01*
X130858796Y-91485531D01*
X130909091Y-91350683D01*
X130915500Y-91291073D01*
X130915499Y-89495328D01*
X130909091Y-89435717D01*
X130870284Y-89331671D01*
X130858797Y-89300871D01*
X130858793Y-89300864D01*
X130772547Y-89185655D01*
X130772544Y-89185652D01*
X130657335Y-89099406D01*
X130657328Y-89099402D01*
X130522482Y-89049108D01*
X130522483Y-89049108D01*
X130462883Y-89042701D01*
X130462881Y-89042700D01*
X130462873Y-89042700D01*
X130462864Y-89042700D01*
X128667129Y-89042700D01*
X128667123Y-89042701D01*
X128607516Y-89049108D01*
X128472671Y-89099402D01*
X128472664Y-89099406D01*
X128357455Y-89185652D01*
X128357452Y-89185655D01*
X128271206Y-89300864D01*
X128271202Y-89300871D01*
X128220908Y-89435717D01*
X128215192Y-89488887D01*
X128214501Y-89495323D01*
X128214500Y-89495335D01*
X123013189Y-89495335D01*
X123010091Y-89466517D01*
X122959796Y-89331669D01*
X122959795Y-89331668D01*
X122959793Y-89331664D01*
X122873547Y-89216455D01*
X122873544Y-89216452D01*
X122758335Y-89130206D01*
X122758328Y-89130202D01*
X122623482Y-89079908D01*
X122623483Y-89079908D01*
X122563883Y-89073501D01*
X122563881Y-89073500D01*
X122563873Y-89073500D01*
X122563864Y-89073500D01*
X120768129Y-89073500D01*
X120768123Y-89073501D01*
X120708516Y-89079908D01*
X120573671Y-89130202D01*
X120573664Y-89130206D01*
X120458455Y-89216452D01*
X120458452Y-89216455D01*
X120372206Y-89331664D01*
X120372202Y-89331671D01*
X120321908Y-89466517D01*
X120315501Y-89526116D01*
X120315500Y-89526135D01*
X84935127Y-89526135D01*
X84811248Y-89436132D01*
X84811247Y-89436131D01*
X84811245Y-89436130D01*
X84741147Y-89400413D01*
X84586783Y-89321760D01*
X84347185Y-89243910D01*
X84173842Y-89216455D01*
X84098362Y-89204500D01*
X83846438Y-89204500D01*
X83780138Y-89215001D01*
X83597614Y-89243910D01*
X83358016Y-89321760D01*
X83133551Y-89436132D01*
X82929750Y-89584201D01*
X82929745Y-89584205D01*
X82751605Y-89762345D01*
X82751601Y-89762350D01*
X82603532Y-89966151D01*
X82489160Y-90190616D01*
X82411310Y-90430214D01*
X82376928Y-90647292D01*
X82371900Y-90679038D01*
X75412900Y-90679038D01*
X75412900Y-89904990D01*
X75402399Y-89802202D01*
X75347214Y-89635665D01*
X75255112Y-89486344D01*
X75131056Y-89362288D01*
X75031472Y-89300864D01*
X74981737Y-89270187D01*
X74981732Y-89270185D01*
X74980263Y-89269698D01*
X74815198Y-89215001D01*
X74815196Y-89215000D01*
X74712417Y-89204500D01*
X74712410Y-89204500D01*
X72912390Y-89204500D01*
X72912382Y-89204500D01*
X72809603Y-89215000D01*
X72809602Y-89215001D01*
X72727069Y-89242349D01*
X72643067Y-89270185D01*
X72643062Y-89270187D01*
X72493742Y-89362289D01*
X72369689Y-89486342D01*
X72277587Y-89635662D01*
X72277585Y-89635667D01*
X72256652Y-89698839D01*
X72222401Y-89802202D01*
X72222401Y-89802203D01*
X72222400Y-89802203D01*
X72211900Y-89904982D01*
X63716951Y-89904982D01*
X63793796Y-89802331D01*
X63844091Y-89667483D01*
X63850500Y-89607873D01*
X63850499Y-87812128D01*
X63844091Y-87752517D01*
X63841513Y-87745606D01*
X63793797Y-87617671D01*
X63793793Y-87617664D01*
X63707547Y-87502455D01*
X63707544Y-87502452D01*
X63592335Y-87416206D01*
X63592328Y-87416202D01*
X63457482Y-87365908D01*
X63457483Y-87365908D01*
X63397883Y-87359501D01*
X63397881Y-87359500D01*
X63397873Y-87359500D01*
X63397864Y-87359500D01*
X61602129Y-87359500D01*
X61602123Y-87359501D01*
X61542516Y-87365908D01*
X61407671Y-87416202D01*
X61407664Y-87416206D01*
X61292455Y-87502452D01*
X61292452Y-87502455D01*
X61206206Y-87617664D01*
X61206202Y-87617671D01*
X61155908Y-87752517D01*
X61151588Y-87792705D01*
X61149501Y-87812123D01*
X61149500Y-87812135D01*
X61149500Y-89607870D01*
X61149501Y-89607876D01*
X61155908Y-89667483D01*
X61206202Y-89802328D01*
X61206206Y-89802335D01*
X61292452Y-89917544D01*
X61292455Y-89917547D01*
X61407664Y-90003793D01*
X61407671Y-90003797D01*
X61435196Y-90014063D01*
X61542517Y-90054091D01*
X61602127Y-90060500D01*
X61612685Y-90060499D01*
X61679723Y-90080179D01*
X61700372Y-90096818D01*
X62370591Y-90767037D01*
X62307007Y-90784075D01*
X62192993Y-90849901D01*
X62099901Y-90942993D01*
X62034075Y-91057007D01*
X62017037Y-91120591D01*
X61384728Y-90488282D01*
X61384727Y-90488282D01*
X61345380Y-90542439D01*
X61248904Y-90731782D01*
X61183242Y-90933869D01*
X61183242Y-90933872D01*
X61150000Y-91143753D01*
X61150000Y-91356246D01*
X61183242Y-91566127D01*
X61183242Y-91566130D01*
X61248904Y-91768217D01*
X61345375Y-91957550D01*
X61384728Y-92011716D01*
X62017037Y-91379408D01*
X62034075Y-91442993D01*
X62099901Y-91557007D01*
X62192993Y-91650099D01*
X62307007Y-91715925D01*
X62370590Y-91732962D01*
X61738282Y-92365269D01*
X61738282Y-92365270D01*
X61792452Y-92404626D01*
X61792451Y-92404626D01*
X61801495Y-92409234D01*
X61852292Y-92457208D01*
X61869087Y-92525029D01*
X61846550Y-92591164D01*
X61801499Y-92630202D01*
X61792182Y-92634949D01*
X61620213Y-92759890D01*
X61469890Y-92910213D01*
X61344951Y-93082179D01*
X61248444Y-93271585D01*
X61248443Y-93271587D01*
X61248443Y-93271588D01*
X61245668Y-93280130D01*
X61182753Y-93473760D01*
X61149500Y-93683713D01*
X61149500Y-93896286D01*
X61179836Y-94087824D01*
X61182754Y-94106243D01*
X61239457Y-94280757D01*
X61248444Y-94308414D01*
X61344951Y-94497820D01*
X61469890Y-94669786D01*
X61620213Y-94820109D01*
X61792182Y-94945050D01*
X61800946Y-94949516D01*
X61851742Y-94997491D01*
X61868536Y-95065312D01*
X61845998Y-95131447D01*
X61800946Y-95170484D01*
X61792182Y-95174949D01*
X61620213Y-95299890D01*
X61469890Y-95450213D01*
X61344948Y-95622184D01*
X61344947Y-95622185D01*
X61324765Y-95661795D01*
X61276791Y-95712591D01*
X61214281Y-95729500D01*
X57934669Y-95729500D01*
X57934653Y-95729499D01*
X57927057Y-95729499D01*
X57768943Y-95729499D01*
X57661587Y-95758265D01*
X57616210Y-95770424D01*
X57616209Y-95770425D01*
X57566096Y-95799359D01*
X57566095Y-95799360D01*
X57538860Y-95815084D01*
X57479285Y-95849479D01*
X57479282Y-95849481D01*
X50440058Y-102888706D01*
X50378735Y-102922191D01*
X50309043Y-102917207D01*
X50253110Y-102875335D01*
X50230760Y-102825218D01*
X50223537Y-102788903D01*
X50209216Y-102754328D01*
X50163197Y-102643227D01*
X50163190Y-102643214D01*
X50075198Y-102511525D01*
X50054320Y-102444847D01*
X50054300Y-102442634D01*
X50054300Y-97660145D01*
X50054300Y-97660143D01*
X50013377Y-97507416D01*
X50000463Y-97485048D01*
X49934324Y-97370490D01*
X49934321Y-97370486D01*
X49934320Y-97370484D01*
X49822516Y-97258680D01*
X49822515Y-97258679D01*
X49818185Y-97254349D01*
X49818174Y-97254339D01*
X48061781Y-95497946D01*
X48028296Y-95436623D01*
X48033280Y-95366931D01*
X48049137Y-95337390D01*
X48170451Y-95170416D01*
X48266957Y-94981012D01*
X48332646Y-94778843D01*
X48365900Y-94568887D01*
X48365900Y-94356313D01*
X48332646Y-94146357D01*
X48266957Y-93944188D01*
X48170451Y-93754784D01*
X48170449Y-93754781D01*
X48170448Y-93754779D01*
X48045509Y-93582813D01*
X47895186Y-93432490D01*
X47723220Y-93307551D01*
X47722515Y-93307191D01*
X47714454Y-93303085D01*
X47663659Y-93255112D01*
X47646863Y-93187292D01*
X47669399Y-93121156D01*
X47714454Y-93082115D01*
X47723216Y-93077651D01*
X47831435Y-92999026D01*
X47895186Y-92952709D01*
X47895188Y-92952706D01*
X47895192Y-92952704D01*
X48045504Y-92802392D01*
X48045506Y-92802388D01*
X48045509Y-92802386D01*
X48170448Y-92630420D01*
X48170450Y-92630417D01*
X48170451Y-92630416D01*
X48266957Y-92441012D01*
X48332646Y-92238843D01*
X48365900Y-92028887D01*
X48365900Y-91816313D01*
X48332646Y-91606357D01*
X48266957Y-91404188D01*
X48170451Y-91214784D01*
X48170185Y-91214419D01*
X48168259Y-91211766D01*
X48045509Y-91042813D01*
X47895186Y-90892490D01*
X47723220Y-90767551D01*
X47715000Y-90763363D01*
X47714454Y-90763085D01*
X47663659Y-90715112D01*
X47646863Y-90647292D01*
X47669399Y-90581156D01*
X47714454Y-90542115D01*
X47723216Y-90537651D01*
X47791167Y-90488282D01*
X47895186Y-90412709D01*
X47895188Y-90412706D01*
X47895192Y-90412704D01*
X48045504Y-90262392D01*
X48045506Y-90262388D01*
X48045509Y-90262386D01*
X48170448Y-90090420D01*
X48170447Y-90090420D01*
X48170451Y-90090416D01*
X48266957Y-89901012D01*
X48332646Y-89698843D01*
X48365900Y-89488887D01*
X48365900Y-89276313D01*
X48332646Y-89066357D01*
X48266957Y-88864188D01*
X48170451Y-88674784D01*
X48170449Y-88674781D01*
X48170448Y-88674779D01*
X48045509Y-88502813D01*
X47895186Y-88352490D01*
X47723217Y-88227549D01*
X47713904Y-88222804D01*
X47663107Y-88174830D01*
X47646312Y-88107009D01*
X47668849Y-88040874D01*
X47713907Y-88001832D01*
X47722955Y-87997222D01*
X47777116Y-87957870D01*
X47777117Y-87957870D01*
X47715734Y-87896487D01*
X47144808Y-87325562D01*
X47208393Y-87308525D01*
X47322407Y-87242699D01*
X47415499Y-87149607D01*
X47481325Y-87035593D01*
X47498362Y-86972008D01*
X48130670Y-87604317D01*
X48130670Y-87604316D01*
X48170022Y-87550154D01*
X48266495Y-87360817D01*
X48332157Y-87158730D01*
X48332157Y-87158727D01*
X48365400Y-86948846D01*
X48365400Y-86736353D01*
X48332157Y-86526472D01*
X48332157Y-86526469D01*
X48266495Y-86324382D01*
X48170024Y-86135049D01*
X48130670Y-86080882D01*
X48130669Y-86080882D01*
X47498362Y-86713190D01*
X47481325Y-86649607D01*
X47415499Y-86535593D01*
X47322407Y-86442501D01*
X47208393Y-86376675D01*
X47144809Y-86359637D01*
X47777116Y-85727328D01*
X47722947Y-85687973D01*
X47722947Y-85687972D01*
X47713900Y-85683363D01*
X47663106Y-85635388D01*
X47646312Y-85567566D01*
X47668851Y-85501432D01*
X47713908Y-85462393D01*
X47723216Y-85457651D01*
X47802407Y-85400115D01*
X47895186Y-85332709D01*
X47895188Y-85332706D01*
X47895192Y-85332704D01*
X48045504Y-85182392D01*
X48045506Y-85182388D01*
X48045509Y-85182386D01*
X48170448Y-85010420D01*
X48170447Y-85010420D01*
X48170451Y-85010416D01*
X48266957Y-84821012D01*
X48332646Y-84618843D01*
X48365900Y-84408887D01*
X48365900Y-84196313D01*
X48357829Y-84145352D01*
X48335600Y-84005004D01*
X48333054Y-83988935D01*
X88184500Y-83988935D01*
X88184500Y-85784670D01*
X88184501Y-85784676D01*
X88190908Y-85844283D01*
X88241202Y-85979128D01*
X88241206Y-85979135D01*
X88327452Y-86094344D01*
X88327455Y-86094347D01*
X88442664Y-86180593D01*
X88442671Y-86180597D01*
X88481012Y-86194897D01*
X88577517Y-86230891D01*
X88637127Y-86237300D01*
X88647685Y-86237299D01*
X88714723Y-86256979D01*
X88735372Y-86273618D01*
X89405591Y-86943837D01*
X89342007Y-86960875D01*
X89227993Y-87026701D01*
X89134901Y-87119793D01*
X89069075Y-87233807D01*
X89052037Y-87297391D01*
X88419728Y-86665082D01*
X88419727Y-86665082D01*
X88380380Y-86719239D01*
X88283904Y-86908582D01*
X88218242Y-87110669D01*
X88218242Y-87110672D01*
X88185000Y-87320553D01*
X88185000Y-87533046D01*
X88218242Y-87742927D01*
X88218242Y-87742930D01*
X88283904Y-87945017D01*
X88380375Y-88134350D01*
X88419728Y-88188516D01*
X89052037Y-87556208D01*
X89069075Y-87619793D01*
X89134901Y-87733807D01*
X89227993Y-87826899D01*
X89342007Y-87892725D01*
X89405590Y-87909762D01*
X88773282Y-88542069D01*
X88773282Y-88542070D01*
X88827449Y-88581424D01*
X89016782Y-88677895D01*
X89218870Y-88743557D01*
X89428754Y-88776800D01*
X89641246Y-88776800D01*
X89851127Y-88743557D01*
X89851130Y-88743557D01*
X90053217Y-88677895D01*
X90242554Y-88581422D01*
X90296716Y-88542070D01*
X90296716Y-88542069D01*
X89664408Y-87909762D01*
X89727993Y-87892725D01*
X89842007Y-87826899D01*
X89935099Y-87733807D01*
X90000925Y-87619793D01*
X90017962Y-87556209D01*
X90650270Y-88188517D01*
X90650270Y-88188516D01*
X90689622Y-88134354D01*
X90786095Y-87945017D01*
X90851757Y-87742930D01*
X90851757Y-87742927D01*
X90885000Y-87533046D01*
X90885000Y-87320553D01*
X90851757Y-87110672D01*
X90851757Y-87110669D01*
X90786095Y-86908582D01*
X90689624Y-86719249D01*
X90650270Y-86665082D01*
X90650269Y-86665082D01*
X90017962Y-87297390D01*
X90000925Y-87233807D01*
X89935099Y-87119793D01*
X89842007Y-87026701D01*
X89727993Y-86960875D01*
X89664409Y-86943837D01*
X90334627Y-86273618D01*
X90395950Y-86240133D01*
X90422307Y-86237299D01*
X90432872Y-86237299D01*
X90492483Y-86230891D01*
X90627331Y-86180596D01*
X90742546Y-86094346D01*
X90828796Y-85979131D01*
X90879091Y-85844283D01*
X90885500Y-85784673D01*
X90885499Y-83988928D01*
X90879091Y-83929317D01*
X90864604Y-83890476D01*
X90828797Y-83794471D01*
X90828793Y-83794464D01*
X90742547Y-83679255D01*
X90742544Y-83679252D01*
X90627335Y-83593006D01*
X90627328Y-83593002D01*
X90492482Y-83542708D01*
X90492483Y-83542708D01*
X90432883Y-83536301D01*
X90432881Y-83536300D01*
X90432873Y-83536300D01*
X90432864Y-83536300D01*
X88637129Y-83536300D01*
X88637123Y-83536301D01*
X88577516Y-83542708D01*
X88442671Y-83593002D01*
X88442664Y-83593006D01*
X88327455Y-83679252D01*
X88327452Y-83679255D01*
X88241206Y-83794464D01*
X88241202Y-83794471D01*
X88190908Y-83929317D01*
X88184776Y-83986357D01*
X88184501Y-83988923D01*
X88184500Y-83988935D01*
X48333054Y-83988935D01*
X48332646Y-83986358D01*
X48301492Y-83890476D01*
X48266957Y-83784188D01*
X48170451Y-83594784D01*
X48170449Y-83594781D01*
X48170448Y-83594779D01*
X48045509Y-83422813D01*
X47895186Y-83272490D01*
X47723220Y-83147551D01*
X47720329Y-83146078D01*
X47714454Y-83143085D01*
X47663659Y-83095112D01*
X47646863Y-83027292D01*
X47669399Y-82961156D01*
X47714454Y-82922115D01*
X47723216Y-82917651D01*
X47809538Y-82854935D01*
X47895186Y-82792709D01*
X47895188Y-82792706D01*
X47895192Y-82792704D01*
X48045504Y-82642392D01*
X48045506Y-82642388D01*
X48045509Y-82642386D01*
X48170448Y-82470420D01*
X48170447Y-82470420D01*
X48170451Y-82470416D01*
X48266957Y-82281012D01*
X48332646Y-82078843D01*
X48365900Y-81868887D01*
X48365900Y-81656313D01*
X48332646Y-81446357D01*
X48266957Y-81244188D01*
X48170451Y-81054784D01*
X48170449Y-81054781D01*
X48170448Y-81054779D01*
X48045509Y-80882813D01*
X47895186Y-80732490D01*
X47723220Y-80607551D01*
X47533814Y-80511044D01*
X47533813Y-80511043D01*
X47533812Y-80511043D01*
X47331643Y-80445354D01*
X47331641Y-80445353D01*
X47331640Y-80445353D01*
X47170357Y-80419808D01*
X47121687Y-80412100D01*
X46909113Y-80412100D01*
X46860442Y-80419808D01*
X46699160Y-80445353D01*
X46496985Y-80511044D01*
X46307579Y-80607551D01*
X46135615Y-80732489D01*
X46022073Y-80846031D01*
X45960750Y-80879515D01*
X45891058Y-80874531D01*
X45835125Y-80832659D01*
X45818210Y-80801682D01*
X45769197Y-80670271D01*
X45769193Y-80670264D01*
X45682947Y-80555055D01*
X45682944Y-80555052D01*
X45567735Y-80468806D01*
X45567728Y-80468802D01*
X45432882Y-80418508D01*
X45432883Y-80418508D01*
X45373283Y-80412101D01*
X45373281Y-80412100D01*
X45373273Y-80412100D01*
X45373264Y-80412100D01*
X43577529Y-80412100D01*
X43577523Y-80412101D01*
X43517916Y-80418508D01*
X43383071Y-80468802D01*
X43383064Y-80468806D01*
X43267855Y-80555052D01*
X43267852Y-80555055D01*
X43181606Y-80670264D01*
X43181602Y-80670271D01*
X43131308Y-80805117D01*
X43124901Y-80864716D01*
X43124900Y-80864735D01*
X43124900Y-82212502D01*
X43105215Y-82279541D01*
X43088581Y-82300183D01*
X42750281Y-82638482D01*
X42750279Y-82638484D01*
X42737585Y-82660473D01*
X42724772Y-82682666D01*
X42671223Y-82775415D01*
X42630299Y-82928143D01*
X42630299Y-83086257D01*
X42630299Y-83086259D01*
X42630300Y-83096253D01*
X42630300Y-100751330D01*
X42630299Y-100751348D01*
X42630299Y-100917054D01*
X42630298Y-100917054D01*
X40500500Y-100917054D01*
X40500500Y-79082135D01*
X98499500Y-79082135D01*
X98499500Y-80677870D01*
X98499501Y-80677876D01*
X98505908Y-80737483D01*
X98556202Y-80872328D01*
X98556206Y-80872335D01*
X98642452Y-80987544D01*
X98642455Y-80987547D01*
X98757664Y-81073793D01*
X98757671Y-81073797D01*
X98892517Y-81124091D01*
X98892516Y-81124091D01*
X98899444Y-81124835D01*
X98952127Y-81130500D01*
X99015733Y-81130499D01*
X99082770Y-81150183D01*
X99128526Y-81202986D01*
X99138470Y-81272144D01*
X99109446Y-81335700D01*
X99088619Y-81354816D01*
X98935354Y-81466171D01*
X98796174Y-81605351D01*
X98796174Y-81605352D01*
X98796172Y-81605354D01*
X98759148Y-81656313D01*
X98680476Y-81764594D01*
X98591117Y-81939970D01*
X98530290Y-82127173D01*
X98499500Y-82321577D01*
X98499500Y-82518422D01*
X98530290Y-82712826D01*
X98591117Y-82900029D01*
X98668063Y-83051043D01*
X98680476Y-83075405D01*
X98796172Y-83234646D01*
X98935354Y-83373828D01*
X99094595Y-83489524D01*
X99186399Y-83536300D01*
X99271213Y-83579515D01*
X99322009Y-83627489D01*
X99338804Y-83695310D01*
X99316267Y-83761445D01*
X99271213Y-83800485D01*
X99094594Y-83890476D01*
X99041135Y-83929317D01*
X98935354Y-84006172D01*
X98935352Y-84006174D01*
X98935351Y-84006174D01*
X98796174Y-84145351D01*
X98796174Y-84145352D01*
X98796172Y-84145354D01*
X98759148Y-84196313D01*
X98680476Y-84304594D01*
X98591117Y-84479970D01*
X98530290Y-84667173D01*
X98499500Y-84861577D01*
X98499500Y-85058422D01*
X98530290Y-85252826D01*
X98591117Y-85440029D01*
X98680476Y-85615405D01*
X98796172Y-85774646D01*
X98935354Y-85913828D01*
X99025241Y-85979135D01*
X99094596Y-86029525D01*
X99271763Y-86119795D01*
X99322560Y-86167769D01*
X99339355Y-86235590D01*
X99316818Y-86301725D01*
X99271764Y-86340765D01*
X99094859Y-86430902D01*
X99059873Y-86456320D01*
X99059872Y-86456320D01*
X99703554Y-87100000D01*
X99697339Y-87100000D01*
X99595606Y-87127259D01*
X99504394Y-87179920D01*
X99429920Y-87254394D01*
X99377259Y-87345606D01*
X99350000Y-87447339D01*
X99350000Y-87453552D01*
X98706320Y-86809872D01*
X98706320Y-86809873D01*
X98680902Y-86844859D01*
X98680899Y-86844863D01*
X98591582Y-87020161D01*
X98530778Y-87207294D01*
X98500000Y-87401617D01*
X98500000Y-87598382D01*
X98530778Y-87792705D01*
X98591581Y-87979835D01*
X98680905Y-88155145D01*
X98706319Y-88190125D01*
X98706320Y-88190125D01*
X99350000Y-87546445D01*
X99350000Y-87552661D01*
X99377259Y-87654394D01*
X99429920Y-87745606D01*
X99504394Y-87820080D01*
X99595606Y-87872741D01*
X99697339Y-87900000D01*
X99703553Y-87900000D01*
X99059873Y-88543677D01*
X99059873Y-88543678D01*
X99094858Y-88569096D01*
X99270164Y-88658418D01*
X99457294Y-88719221D01*
X99651618Y-88750000D01*
X99848382Y-88750000D01*
X100042705Y-88719221D01*
X100229835Y-88658418D01*
X100405143Y-88569095D01*
X100440125Y-88543678D01*
X100440126Y-88543678D01*
X99796448Y-87900000D01*
X99802661Y-87900000D01*
X99904394Y-87872741D01*
X99995606Y-87820080D01*
X100070080Y-87745606D01*
X100122741Y-87654394D01*
X100150000Y-87552661D01*
X100150000Y-87546447D01*
X100793678Y-88190126D01*
X100793678Y-88190125D01*
X100819095Y-88155143D01*
X100908418Y-87979835D01*
X100969221Y-87792705D01*
X101000000Y-87598382D01*
X101000000Y-87401617D01*
X100969221Y-87207294D01*
X100908418Y-87020164D01*
X100819096Y-86844858D01*
X100793678Y-86809873D01*
X100793677Y-86809873D01*
X100150000Y-87453551D01*
X100150000Y-87447339D01*
X100122741Y-87345606D01*
X100070080Y-87254394D01*
X99995606Y-87179920D01*
X99904394Y-87127259D01*
X99802661Y-87100000D01*
X99796447Y-87100000D01*
X100440125Y-86456320D01*
X100440125Y-86456319D01*
X100405145Y-86430905D01*
X100228235Y-86340765D01*
X100219080Y-86332118D01*
X100207415Y-86327384D01*
X100194162Y-86308585D01*
X100177439Y-86292790D01*
X100174412Y-86280567D01*
X100167158Y-86270277D01*
X100166172Y-86247295D01*
X100160644Y-86224969D01*
X100164705Y-86213051D01*
X100164166Y-86200472D01*
X100175762Y-86180605D01*
X100183182Y-86158834D01*
X100187014Y-86155513D01*
X108969500Y-86155513D01*
X108969500Y-86344486D01*
X108999059Y-86531118D01*
X109057454Y-86710836D01*
X109124591Y-86842599D01*
X109143240Y-86879199D01*
X109254310Y-87032073D01*
X109387927Y-87165690D01*
X109540801Y-87276760D01*
X109603144Y-87308525D01*
X109709163Y-87362545D01*
X109709165Y-87362545D01*
X109709168Y-87362547D01*
X109805497Y-87393846D01*
X109888881Y-87420940D01*
X110075514Y-87450500D01*
X110075519Y-87450500D01*
X110264486Y-87450500D01*
X110451118Y-87420940D01*
X110452623Y-87420451D01*
X110630832Y-87362547D01*
X110799199Y-87276760D01*
X110825182Y-87257882D01*
X114595669Y-87257882D01*
X114595670Y-87257883D01*
X114621059Y-87276329D01*
X114789362Y-87362085D01*
X114968997Y-87420451D01*
X115155553Y-87450000D01*
X115344447Y-87450000D01*
X115531002Y-87420451D01*
X115710637Y-87362085D01*
X115878937Y-87276331D01*
X115904328Y-87257883D01*
X115904328Y-87257882D01*
X115250001Y-86603554D01*
X115250000Y-86603554D01*
X114595669Y-87257882D01*
X110825182Y-87257882D01*
X110952073Y-87165690D01*
X111085690Y-87032073D01*
X111196760Y-86879199D01*
X111282547Y-86710832D01*
X111340940Y-86531118D01*
X111341694Y-86526357D01*
X111370500Y-86344486D01*
X111370500Y-86155552D01*
X114050000Y-86155552D01*
X114050000Y-86344447D01*
X114079548Y-86531002D01*
X114137914Y-86710637D01*
X114223666Y-86878933D01*
X114242116Y-86904328D01*
X114896446Y-86250000D01*
X114896446Y-86249999D01*
X114850369Y-86203922D01*
X114900000Y-86203922D01*
X114900000Y-86296078D01*
X114923852Y-86385095D01*
X114969930Y-86464905D01*
X115035095Y-86530070D01*
X115114905Y-86576148D01*
X115203922Y-86600000D01*
X115296078Y-86600000D01*
X115385095Y-86576148D01*
X115464905Y-86530070D01*
X115530070Y-86464905D01*
X115576148Y-86385095D01*
X115600000Y-86296078D01*
X115600000Y-86249999D01*
X115603554Y-86249999D01*
X115603554Y-86250000D01*
X116257882Y-86904328D01*
X116257883Y-86904328D01*
X116276331Y-86878937D01*
X116362085Y-86710637D01*
X116420451Y-86531002D01*
X116450000Y-86344447D01*
X116450000Y-86155552D01*
X116420451Y-85968997D01*
X116362085Y-85789362D01*
X116276329Y-85621059D01*
X116257883Y-85595670D01*
X116257882Y-85595669D01*
X115603554Y-86249999D01*
X115600000Y-86249999D01*
X115600000Y-86203922D01*
X115576148Y-86114905D01*
X115530070Y-86035095D01*
X115464905Y-85969930D01*
X115385095Y-85923852D01*
X115296078Y-85900000D01*
X115203922Y-85900000D01*
X115114905Y-85923852D01*
X115035095Y-85969930D01*
X114969930Y-86035095D01*
X114923852Y-86114905D01*
X114900000Y-86203922D01*
X114850369Y-86203922D01*
X114242116Y-85595669D01*
X114242116Y-85595670D01*
X114223669Y-85621060D01*
X114137914Y-85789362D01*
X114079548Y-85968997D01*
X114050000Y-86155552D01*
X111370500Y-86155552D01*
X111370500Y-86155513D01*
X111340940Y-85968881D01*
X111300455Y-85844282D01*
X111282547Y-85789168D01*
X111282545Y-85789165D01*
X111282545Y-85789163D01*
X111213217Y-85653100D01*
X111196760Y-85620801D01*
X111085690Y-85467927D01*
X110952073Y-85334310D01*
X110825179Y-85242116D01*
X114595669Y-85242116D01*
X115250000Y-85896446D01*
X115250001Y-85896446D01*
X115904328Y-85242116D01*
X115878933Y-85223666D01*
X115710637Y-85137914D01*
X115531002Y-85079548D01*
X115344447Y-85050000D01*
X115155553Y-85050000D01*
X114968997Y-85079548D01*
X114789362Y-85137914D01*
X114621060Y-85223669D01*
X114595670Y-85242116D01*
X114595669Y-85242116D01*
X110825179Y-85242116D01*
X110799199Y-85223240D01*
X110630836Y-85137454D01*
X110451118Y-85079059D01*
X110264486Y-85049500D01*
X110264481Y-85049500D01*
X110075519Y-85049500D01*
X110075514Y-85049500D01*
X109888881Y-85079059D01*
X109709163Y-85137454D01*
X109540800Y-85223240D01*
X109453579Y-85286610D01*
X109387927Y-85334310D01*
X109387925Y-85334312D01*
X109387924Y-85334312D01*
X109254312Y-85467924D01*
X109254312Y-85467925D01*
X109254310Y-85467927D01*
X109230168Y-85501156D01*
X109143240Y-85620800D01*
X109057454Y-85789163D01*
X108999059Y-85968881D01*
X108969500Y-86155513D01*
X100187014Y-86155513D01*
X100193884Y-86149560D01*
X100199389Y-86140130D01*
X100228236Y-86119795D01*
X100230022Y-86118884D01*
X100230025Y-86118884D01*
X100405405Y-86029524D01*
X100564646Y-85913828D01*
X100703828Y-85774646D01*
X100819524Y-85615405D01*
X100908884Y-85440025D01*
X100969709Y-85252826D01*
X100974327Y-85223669D01*
X101000500Y-85058422D01*
X101000500Y-84861577D01*
X100969709Y-84667173D01*
X100908882Y-84479970D01*
X100819523Y-84304594D01*
X100703828Y-84145354D01*
X100564646Y-84006172D01*
X100458865Y-83929317D01*
X100405403Y-83890474D01*
X100228787Y-83800485D01*
X100177990Y-83752511D01*
X100161195Y-83684690D01*
X100183732Y-83618555D01*
X100228787Y-83579515D01*
X100405403Y-83489525D01*
X100405402Y-83489525D01*
X100405405Y-83489524D01*
X100564646Y-83373828D01*
X100703828Y-83234646D01*
X100819524Y-83075405D01*
X100819524Y-83075403D01*
X100822278Y-83071614D01*
X100877608Y-83028949D01*
X100922596Y-83020500D01*
X101182260Y-83020500D01*
X101249299Y-83040185D01*
X101269936Y-83056814D01*
X101317169Y-83104047D01*
X101359512Y-83146390D01*
X101490614Y-83233990D01*
X101490627Y-83233997D01*
X101636298Y-83294335D01*
X101636303Y-83294337D01*
X101739705Y-83314905D01*
X101790953Y-83325099D01*
X101790956Y-83325100D01*
X101790958Y-83325100D01*
X101948644Y-83325100D01*
X101948645Y-83325099D01*
X102103297Y-83294337D01*
X102248979Y-83233994D01*
X102380089Y-83146389D01*
X102491589Y-83034889D01*
X102511217Y-83005513D01*
X108969500Y-83005513D01*
X108969500Y-83194486D01*
X108999059Y-83381118D01*
X109057454Y-83560836D01*
X109125973Y-83695310D01*
X109143240Y-83729199D01*
X109254310Y-83882073D01*
X109387927Y-84015690D01*
X109540801Y-84126760D01*
X109577290Y-84145352D01*
X109709163Y-84212545D01*
X109709165Y-84212545D01*
X109709168Y-84212547D01*
X109805497Y-84243846D01*
X109888881Y-84270940D01*
X110075514Y-84300500D01*
X110075519Y-84300500D01*
X110264486Y-84300500D01*
X110451118Y-84270940D01*
X110452623Y-84270451D01*
X110630832Y-84212547D01*
X110799199Y-84126760D01*
X110825182Y-84107882D01*
X114595669Y-84107882D01*
X114595670Y-84107883D01*
X114621059Y-84126329D01*
X114789362Y-84212085D01*
X114968997Y-84270451D01*
X115155553Y-84300000D01*
X115344447Y-84300000D01*
X115531002Y-84270451D01*
X115710637Y-84212085D01*
X115878937Y-84126331D01*
X115904328Y-84107883D01*
X115904328Y-84107882D01*
X115250001Y-83453554D01*
X115250000Y-83453554D01*
X114595669Y-84107882D01*
X110825182Y-84107882D01*
X110952073Y-84015690D01*
X111085690Y-83882073D01*
X111196760Y-83729199D01*
X111282547Y-83560832D01*
X111340940Y-83381118D01*
X111349812Y-83325100D01*
X111370500Y-83194486D01*
X111370500Y-83005552D01*
X114050000Y-83005552D01*
X114050000Y-83194447D01*
X114079548Y-83381002D01*
X114137914Y-83560637D01*
X114223666Y-83728933D01*
X114242116Y-83754328D01*
X114896446Y-83100000D01*
X114896446Y-83099999D01*
X114850369Y-83053922D01*
X114900000Y-83053922D01*
X114900000Y-83146078D01*
X114923852Y-83235095D01*
X114969930Y-83314905D01*
X115035095Y-83380070D01*
X115114905Y-83426148D01*
X115203922Y-83450000D01*
X115296078Y-83450000D01*
X115385095Y-83426148D01*
X115464905Y-83380070D01*
X115530070Y-83314905D01*
X115576148Y-83235095D01*
X115600000Y-83146078D01*
X115600000Y-83099999D01*
X115603554Y-83099999D01*
X115603554Y-83100000D01*
X116257882Y-83754328D01*
X116257883Y-83754328D01*
X116276331Y-83728937D01*
X116362085Y-83560637D01*
X116420451Y-83381002D01*
X116450000Y-83194447D01*
X116450000Y-83005552D01*
X116420451Y-82818997D01*
X116362085Y-82639362D01*
X116276329Y-82471059D01*
X116257883Y-82445670D01*
X116257882Y-82445669D01*
X115603554Y-83099999D01*
X115600000Y-83099999D01*
X115600000Y-83053922D01*
X115576148Y-82964905D01*
X115530070Y-82885095D01*
X115464905Y-82819930D01*
X115385095Y-82773852D01*
X115296078Y-82750000D01*
X115203922Y-82750000D01*
X115114905Y-82773852D01*
X115035095Y-82819930D01*
X114969930Y-82885095D01*
X114923852Y-82964905D01*
X114900000Y-83053922D01*
X114850369Y-83053922D01*
X114242116Y-82445669D01*
X114242116Y-82445670D01*
X114223669Y-82471060D01*
X114137914Y-82639362D01*
X114079548Y-82818997D01*
X114050000Y-83005552D01*
X111370500Y-83005552D01*
X111370500Y-83005513D01*
X111340940Y-82818881D01*
X111309954Y-82723517D01*
X111282547Y-82639168D01*
X111282545Y-82639165D01*
X111282545Y-82639163D01*
X111221021Y-82518417D01*
X111196760Y-82470801D01*
X111085690Y-82317927D01*
X110952073Y-82184310D01*
X110825179Y-82092116D01*
X114595669Y-82092116D01*
X115250000Y-82746446D01*
X115250001Y-82746446D01*
X115904328Y-82092116D01*
X115878933Y-82073666D01*
X115710637Y-81987914D01*
X115531002Y-81929548D01*
X115344447Y-81900000D01*
X115155553Y-81900000D01*
X114968997Y-81929548D01*
X114789362Y-81987914D01*
X114621060Y-82073669D01*
X114595670Y-82092116D01*
X114595669Y-82092116D01*
X110825179Y-82092116D01*
X110799199Y-82073240D01*
X110630836Y-81987454D01*
X110451118Y-81929059D01*
X110264486Y-81899500D01*
X110264481Y-81899500D01*
X110075519Y-81899500D01*
X110075514Y-81899500D01*
X109888881Y-81929059D01*
X109709163Y-81987454D01*
X109540800Y-82073240D01*
X109453579Y-82136610D01*
X109387927Y-82184310D01*
X109387925Y-82184312D01*
X109387924Y-82184312D01*
X109254312Y-82317924D01*
X109254312Y-82317925D01*
X109254310Y-82317927D01*
X109251654Y-82321583D01*
X109143240Y-82470800D01*
X109057454Y-82639163D01*
X108999059Y-82818881D01*
X108969500Y-83005513D01*
X102511217Y-83005513D01*
X102540856Y-82961156D01*
X102560501Y-82931756D01*
X102579190Y-82903785D01*
X102579190Y-82903784D01*
X102579194Y-82903779D01*
X102639537Y-82758097D01*
X102670300Y-82603442D01*
X102670300Y-82445758D01*
X102670300Y-82445755D01*
X102670299Y-82445753D01*
X102645600Y-82321583D01*
X102639537Y-82291103D01*
X102595303Y-82184312D01*
X102579197Y-82145427D01*
X102579190Y-82145414D01*
X102491589Y-82014311D01*
X102491586Y-82014307D01*
X102380092Y-81902813D01*
X102380088Y-81902810D01*
X102248985Y-81815209D01*
X102248972Y-81815202D01*
X102103301Y-81754864D01*
X102103289Y-81754861D01*
X101948645Y-81724100D01*
X101948642Y-81724100D01*
X101790958Y-81724100D01*
X101790955Y-81724100D01*
X101636310Y-81754861D01*
X101636298Y-81754864D01*
X101503041Y-81810061D01*
X101455589Y-81819500D01*
X100922596Y-81819500D01*
X100855557Y-81799815D01*
X100822278Y-81768386D01*
X100812453Y-81754863D01*
X100703828Y-81605354D01*
X100564646Y-81466172D01*
X100411377Y-81354815D01*
X100368714Y-81299487D01*
X100362735Y-81229873D01*
X100395341Y-81168078D01*
X100456180Y-81133721D01*
X100484264Y-81130499D01*
X100547872Y-81130499D01*
X100607483Y-81124091D01*
X100742331Y-81073796D01*
X100857546Y-80987546D01*
X100943796Y-80872331D01*
X100994091Y-80737483D01*
X101000500Y-80677873D01*
X101000499Y-79251848D01*
X118611000Y-79251848D01*
X119357448Y-78505400D01*
X119357448Y-78505399D01*
X118611000Y-77758951D01*
X118611000Y-79251848D01*
X101000499Y-79251848D01*
X101000499Y-79082128D01*
X100994091Y-79022517D01*
X100943796Y-78887669D01*
X100943795Y-78887668D01*
X100943793Y-78887664D01*
X100857547Y-78772455D01*
X100857544Y-78772452D01*
X100742335Y-78686206D01*
X100742328Y-78686202D01*
X100607482Y-78635908D01*
X100607483Y-78635908D01*
X100547883Y-78629501D01*
X100547881Y-78629500D01*
X100547873Y-78629500D01*
X100547864Y-78629500D01*
X98952129Y-78629500D01*
X98952123Y-78629501D01*
X98892516Y-78635908D01*
X98757671Y-78686202D01*
X98757664Y-78686206D01*
X98642455Y-78772452D01*
X98642452Y-78772455D01*
X98556206Y-78887664D01*
X98556202Y-78887671D01*
X98505908Y-79022517D01*
X98499501Y-79082116D01*
X98499501Y-79082123D01*
X98499500Y-79082135D01*
X40500500Y-79082135D01*
X40500500Y-77166430D01*
X118725583Y-77166430D01*
X118725583Y-77166432D01*
X119411000Y-77851848D01*
X119411000Y-79158951D01*
X118725583Y-79844366D01*
X118725583Y-79844368D01*
X118770195Y-79931924D01*
X118871967Y-80072002D01*
X118994397Y-80194432D01*
X119134475Y-80296204D01*
X119288742Y-80374808D01*
X119453415Y-80428314D01*
X119624429Y-80455400D01*
X119797571Y-80455400D01*
X119968584Y-80428314D01*
X120133257Y-80374808D01*
X120287524Y-80296204D01*
X120427602Y-80194432D01*
X120550032Y-80072002D01*
X120651805Y-79931921D01*
X120696415Y-79844367D01*
X120011000Y-79158952D01*
X120011000Y-78505399D01*
X120064552Y-78505399D01*
X120064552Y-78505400D01*
X120810999Y-79251848D01*
X131411000Y-79251848D01*
X132157448Y-78505400D01*
X132157448Y-78505399D01*
X131411000Y-77758951D01*
X131411000Y-79251848D01*
X120810999Y-79251848D01*
X120811000Y-79251847D01*
X120811000Y-77758952D01*
X120810999Y-77758951D01*
X120064552Y-78505399D01*
X120011000Y-78505399D01*
X120011000Y-77851848D01*
X120696416Y-77166431D01*
X120696415Y-77166430D01*
X131525583Y-77166430D01*
X131525583Y-77166432D01*
X132211000Y-77851848D01*
X132211000Y-79158951D01*
X131525583Y-79844366D01*
X131525583Y-79844368D01*
X131570195Y-79931924D01*
X131671967Y-80072002D01*
X131794397Y-80194432D01*
X131934475Y-80296204D01*
X132088742Y-80374808D01*
X132253415Y-80428314D01*
X132424429Y-80455400D01*
X132597571Y-80455400D01*
X132768584Y-80428314D01*
X132933257Y-80374808D01*
X133087524Y-80296204D01*
X133227602Y-80194432D01*
X133350032Y-80072002D01*
X133451804Y-79931923D01*
X133496415Y-79844367D01*
X132811000Y-79158952D01*
X132811000Y-78505399D01*
X132864552Y-78505399D01*
X132864552Y-78505400D01*
X133610999Y-79251848D01*
X133611000Y-79251847D01*
X133611000Y-77758952D01*
X133610999Y-77758951D01*
X132864552Y-78505399D01*
X132811000Y-78505399D01*
X132811000Y-77851848D01*
X133496416Y-77166431D01*
X133451804Y-77078875D01*
X133350032Y-76938797D01*
X133227602Y-76816367D01*
X133087524Y-76714595D01*
X132933257Y-76635991D01*
X132768584Y-76582485D01*
X132597571Y-76555400D01*
X132424429Y-76555400D01*
X132253415Y-76582485D01*
X132088742Y-76635991D01*
X131934475Y-76714595D01*
X131794397Y-76816367D01*
X131671967Y-76938797D01*
X131570194Y-77078878D01*
X131525583Y-77166430D01*
X120696415Y-77166430D01*
X120651805Y-77078877D01*
X120550032Y-76938797D01*
X120427602Y-76816367D01*
X120287524Y-76714595D01*
X120133257Y-76635991D01*
X119968584Y-76582485D01*
X119797571Y-76555400D01*
X119624429Y-76555400D01*
X119453415Y-76582485D01*
X119288742Y-76635991D01*
X119134475Y-76714595D01*
X118994397Y-76816367D01*
X118871967Y-76938797D01*
X118770194Y-77078878D01*
X118725583Y-77166430D01*
X40500500Y-77166430D01*
X40500500Y-72893713D01*
X42149500Y-72893713D01*
X42149500Y-73106287D01*
X42182754Y-73316243D01*
X42203402Y-73379792D01*
X42248444Y-73518414D01*
X42344951Y-73707820D01*
X42469890Y-73879786D01*
X42620213Y-74030109D01*
X42792179Y-74155048D01*
X42792181Y-74155049D01*
X42792184Y-74155051D01*
X42981588Y-74251557D01*
X43183757Y-74317246D01*
X43393713Y-74350500D01*
X43393714Y-74350500D01*
X43606286Y-74350500D01*
X43606287Y-74350500D01*
X43816243Y-74317246D01*
X44018412Y-74251557D01*
X44207816Y-74155051D01*
X44229789Y-74139086D01*
X44379786Y-74030109D01*
X44379788Y-74030106D01*
X44379792Y-74030104D01*
X44530104Y-73879792D01*
X44530106Y-73879788D01*
X44530109Y-73879786D01*
X44655048Y-73707820D01*
X44655047Y-73707820D01*
X44655051Y-73707816D01*
X44751557Y-73518412D01*
X44817246Y-73316243D01*
X44850500Y-73106287D01*
X44850500Y-72893713D01*
X44817246Y-72683757D01*
X44751557Y-72481588D01*
X44706783Y-72393713D01*
X80649500Y-72393713D01*
X80649500Y-72606286D01*
X80682753Y-72816239D01*
X80748444Y-73018414D01*
X80844951Y-73207820D01*
X80969890Y-73379786D01*
X81120213Y-73530109D01*
X81292179Y-73655048D01*
X81292181Y-73655049D01*
X81292184Y-73655051D01*
X81481588Y-73751557D01*
X81683757Y-73817246D01*
X81893713Y-73850500D01*
X81893714Y-73850500D01*
X82106286Y-73850500D01*
X82106287Y-73850500D01*
X82316243Y-73817246D01*
X82518412Y-73751557D01*
X82707816Y-73655051D01*
X82729789Y-73639086D01*
X82879786Y-73530109D01*
X82879788Y-73530106D01*
X82879792Y-73530104D01*
X83030104Y-73379792D01*
X83030106Y-73379788D01*
X83030109Y-73379786D01*
X83155048Y-73207820D01*
X83155047Y-73207820D01*
X83155051Y-73207816D01*
X83251557Y-73018412D01*
X83317246Y-72816243D01*
X83350500Y-72606287D01*
X83350500Y-72393713D01*
X114349500Y-72393713D01*
X114349500Y-72606286D01*
X114382753Y-72816239D01*
X114448444Y-73018414D01*
X114544951Y-73207820D01*
X114669890Y-73379786D01*
X114820213Y-73530109D01*
X114992179Y-73655048D01*
X114992181Y-73655049D01*
X114992184Y-73655051D01*
X115181588Y-73751557D01*
X115383757Y-73817246D01*
X115593713Y-73850500D01*
X115593714Y-73850500D01*
X115806286Y-73850500D01*
X115806287Y-73850500D01*
X116016243Y-73817246D01*
X116218412Y-73751557D01*
X116407816Y-73655051D01*
X116429789Y-73639086D01*
X116579786Y-73530109D01*
X116579788Y-73530106D01*
X116579792Y-73530104D01*
X116730104Y-73379792D01*
X116730106Y-73379788D01*
X116730109Y-73379786D01*
X116855048Y-73207820D01*
X116855047Y-73207820D01*
X116855051Y-73207816D01*
X116951557Y-73018412D01*
X117017246Y-72816243D01*
X117050500Y-72606287D01*
X117050500Y-72393713D01*
X117017246Y-72183757D01*
X116951557Y-71981588D01*
X116855051Y-71792184D01*
X116855049Y-71792181D01*
X116855048Y-71792179D01*
X116730109Y-71620213D01*
X116579786Y-71469890D01*
X116407820Y-71344951D01*
X116218414Y-71248444D01*
X116218413Y-71248443D01*
X116218412Y-71248443D01*
X116016243Y-71182754D01*
X116016241Y-71182753D01*
X116016240Y-71182753D01*
X115854957Y-71157208D01*
X115806287Y-71149500D01*
X115593713Y-71149500D01*
X115554202Y-71155757D01*
X115383759Y-71182753D01*
X115383760Y-71182753D01*
X115181585Y-71248444D01*
X114992179Y-71344951D01*
X114820213Y-71469890D01*
X114669890Y-71620213D01*
X114544951Y-71792179D01*
X114448444Y-71981585D01*
X114382753Y-72183760D01*
X114349500Y-72393713D01*
X83350500Y-72393713D01*
X83317246Y-72183757D01*
X83251557Y-71981588D01*
X83155051Y-71792184D01*
X83155049Y-71792181D01*
X83155048Y-71792179D01*
X83030109Y-71620213D01*
X82879786Y-71469890D01*
X82707820Y-71344951D01*
X82518414Y-71248444D01*
X82518413Y-71248443D01*
X82518412Y-71248443D01*
X82316243Y-71182754D01*
X82106287Y-71149500D01*
X81893713Y-71149500D01*
X81854202Y-71155757D01*
X81683759Y-71182753D01*
X81683760Y-71182753D01*
X81481585Y-71248444D01*
X81292179Y-71344951D01*
X81120213Y-71469890D01*
X80969890Y-71620213D01*
X80844951Y-71792179D01*
X80748444Y-71981585D01*
X80682753Y-72183760D01*
X80649500Y-72393713D01*
X44706783Y-72393713D01*
X44655051Y-72292184D01*
X44647023Y-72281134D01*
X44530109Y-72120213D01*
X44379786Y-71969890D01*
X44207820Y-71844951D01*
X44018414Y-71748444D01*
X44018413Y-71748443D01*
X44018412Y-71748443D01*
X43816243Y-71682754D01*
X43816241Y-71682753D01*
X43816240Y-71682753D01*
X43654957Y-71657208D01*
X43606287Y-71649500D01*
X43393713Y-71649500D01*
X43345042Y-71657208D01*
X43183760Y-71682753D01*
X42981585Y-71748444D01*
X42792179Y-71844951D01*
X42620213Y-71969890D01*
X42469890Y-72120213D01*
X42344951Y-72292179D01*
X42248444Y-72481585D01*
X42182753Y-72683760D01*
X42161771Y-72816239D01*
X42149500Y-72893713D01*
X40500500Y-72893713D01*
X40500500Y-69624500D01*
X40520185Y-69557461D01*
X40572989Y-69511706D01*
X40624500Y-69500500D01*
X104421727Y-69500500D01*
X104488766Y-69520185D01*
G37*
%TD.AperFunction*%
%TD*%
M02*
