%TF.GenerationSoftware,KiCad,Pcbnew,9.0.2*%
%TF.CreationDate,2025-06-18T17:26:39+12:00*%
%TF.ProjectId,smartclockpi,736d6172-7463-46c6-9f63-6b70692e6b69,rev?*%
%TF.SameCoordinates,Original*%
%TF.FileFunction,Copper,L2,Bot*%
%TF.FilePolarity,Positive*%
%FSLAX46Y46*%
G04 Gerber Fmt 4.6, Leading zero omitted, Abs format (unit mm)*
G04 Created by KiCad (PCBNEW 9.0.2) date 2025-06-18 17:26:39*
%MOMM*%
%LPD*%
G01*
G04 APERTURE LIST*
G04 Aperture macros list*
%AMRoundRect*
0 Rectangle with rounded corners*
0 $1 Rounding radius*
0 $2 $3 $4 $5 $6 $7 $8 $9 X,Y pos of 4 corners*
0 Add a 4 corners polygon primitive as box body*
4,1,4,$2,$3,$4,$5,$6,$7,$8,$9,$2,$3,0*
0 Add four circle primitives for the rounded corners*
1,1,$1+$1,$2,$3*
1,1,$1+$1,$4,$5*
1,1,$1+$1,$6,$7*
1,1,$1+$1,$8,$9*
0 Add four rect primitives between the rounded corners*
20,1,$1+$1,$2,$3,$4,$5,0*
20,1,$1+$1,$4,$5,$6,$7,0*
20,1,$1+$1,$6,$7,$8,$9,0*
20,1,$1+$1,$8,$9,$2,$3,0*%
G04 Aperture macros list end*
%TA.AperFunction,ComponentPad*%
%ADD10R,1.700000X1.700000*%
%TD*%
%TA.AperFunction,ComponentPad*%
%ADD11C,1.700000*%
%TD*%
%TA.AperFunction,ComponentPad*%
%ADD12C,1.400000*%
%TD*%
%TA.AperFunction,ComponentPad*%
%ADD13RoundRect,0.249999X-0.850001X-0.850001X0.850001X-0.850001X0.850001X0.850001X-0.850001X0.850001X0*%
%TD*%
%TA.AperFunction,ComponentPad*%
%ADD14C,2.200000*%
%TD*%
%TA.AperFunction,ComponentPad*%
%ADD15C,1.500000*%
%TD*%
%TA.AperFunction,ComponentPad*%
%ADD16RoundRect,0.250000X-0.550000X-0.550000X0.550000X-0.550000X0.550000X0.550000X-0.550000X0.550000X0*%
%TD*%
%TA.AperFunction,ComponentPad*%
%ADD17C,1.600000*%
%TD*%
%TA.AperFunction,HeatsinkPad*%
%ADD18O,1.200000X2.900000*%
%TD*%
%TA.AperFunction,HeatsinkPad*%
%ADD19O,0.900000X1.600000*%
%TD*%
%TA.AperFunction,ComponentPad*%
%ADD20R,1.500000X1.500000*%
%TD*%
%TA.AperFunction,ViaPad*%
%ADD21C,0.600000*%
%TD*%
%TA.AperFunction,Conductor*%
%ADD22C,0.200000*%
%TD*%
G04 APERTURE END LIST*
D10*
%TO.P,J3,1,VCC*%
%TO.N,+3.3V*%
X62500000Y-88710000D03*
D11*
%TO.P,J3,2,GND*%
%TO.N,GND*%
X62500000Y-91250000D03*
%TO.P,J3,3,CS*%
%TO.N,Net-(J1-~{CE0}{slash}GPIO8)*%
X62500000Y-93790000D03*
%TO.P,J3,4,RESET*%
%TO.N,Net-(J1-GPIO25)*%
X62500000Y-96330000D03*
%TO.P,J3,5,DC/RS*%
%TO.N,Net-(J1-GPIO24)*%
X62500000Y-98870000D03*
%TO.P,J3,6,MOSI*%
%TO.N,Net-(J1-MOSI0{slash}GPIO10)*%
X62500000Y-101410000D03*
%TO.P,J3,7,SCK*%
%TO.N,Net-(J1-SCLK0{slash}GPIO11)*%
X62500000Y-103950000D03*
%TO.P,J3,8,LED*%
%TO.N,Net-(J1-PWM1{slash}GPIO13)*%
X62500000Y-106490000D03*
%TO.P,J3,9,MISO*%
%TO.N,Net-(J1-MISO0{slash}GPIO9)*%
X62500000Y-109030000D03*
%TO.P,J3,10,T_CLK*%
%TO.N,Net-(J1-GCLK2{slash}GPIO6)*%
X62500000Y-111570000D03*
%TO.P,J3,11,T_CS*%
%TO.N,Net-(J1-GCLK1{slash}GPIO5)*%
X62500000Y-114110000D03*
%TO.P,J3,12,T_DIN*%
%TO.N,Net-(J1-PWM0{slash}GPIO12)*%
X62500000Y-116650000D03*
%TO.P,J3,13,T_DO*%
%TO.N,Net-(J1-GPIO23)*%
X62500000Y-119190000D03*
%TO.P,J3,14,T_IRQ*%
%TO.N,Net-(J1-GPIO16)*%
X62500000Y-121730000D03*
%TD*%
D12*
%TO.P,R9,1*%
%TO.N,GND*%
X77010000Y-121500000D03*
%TO.P,R9,2*%
%TO.N,Net-(U2-CH7)*%
X82090000Y-121500000D03*
%TD*%
D10*
%TO.P,J2,1,32K*%
%TO.N,Net-(J2-32K)*%
X121082200Y-132035000D03*
D11*
%TO.P,J2,2,SQW*%
%TO.N,Net-(J2-SQW)*%
X118542200Y-132035000D03*
%TO.P,J2,3,SCL*%
%TO.N,Net-(J1-SCL{slash}GPIO3)*%
X116002200Y-132035000D03*
%TO.P,J2,4,SDA*%
%TO.N,Net-(J1-SDA{slash}GPIO2)*%
X113462200Y-132035000D03*
%TO.P,J2,5,VCC*%
%TO.N,+3.3V*%
X110922200Y-132035000D03*
%TO.P,J2,6,GND*%
%TO.N,GND*%
X108382200Y-132035000D03*
%TD*%
D13*
%TO.P,D1,1,K*%
%TO.N,+5V*%
X73812400Y-90805000D03*
D14*
%TO.P,D1,2,A*%
%TO.N,Net-(D1-A)*%
X83972400Y-90805000D03*
%TD*%
D15*
%TO.P,R1,1*%
%TO.N,+3.3V*%
X54000000Y-129500000D03*
%TO.P,R1,2*%
%TO.N,Net-(U2-CH0)*%
X57400000Y-129500000D03*
%TD*%
D12*
%TO.P,R4,1*%
%TO.N,GND*%
X77010000Y-105600000D03*
%TO.P,R4,2*%
%TO.N,Net-(U2-CH2)*%
X82090000Y-105600000D03*
%TD*%
D10*
%TO.P,J9,1,Pin_1*%
%TO.N,Net-(D1-A)*%
X89535000Y-84886800D03*
D11*
%TO.P,J9,2,Pin_2*%
%TO.N,GND*%
X89535000Y-87426800D03*
%TD*%
D16*
%TO.P,U2,1,CH0*%
%TO.N,Net-(U2-CH0)*%
X91500000Y-102300000D03*
D17*
%TO.P,U2,2,CH1*%
%TO.N,Net-(U2-CH1)*%
X91500000Y-104840000D03*
%TO.P,U2,3,CH2*%
%TO.N,Net-(U2-CH2)*%
X91500000Y-107380000D03*
%TO.P,U2,4,CH3*%
%TO.N,Net-(U2-CH3)*%
X91500000Y-109920000D03*
%TO.P,U2,5,CH4*%
%TO.N,Net-(U2-CH4)*%
X91500000Y-112460000D03*
%TO.P,U2,6,CH5*%
%TO.N,Net-(U2-CH5)*%
X91500000Y-115000000D03*
%TO.P,U2,7,CH6*%
%TO.N,Net-(U2-CH6)*%
X91500000Y-117540000D03*
%TO.P,U2,8,CH7*%
%TO.N,Net-(U2-CH7)*%
X91500000Y-120080000D03*
%TO.P,U2,9,DGND*%
%TO.N,GND*%
X99120000Y-120080000D03*
%TO.P,U2,10,~{CS}/SHDN*%
%TO.N,Net-(J1-GCLK0{slash}GPIO4)*%
X99120000Y-117540000D03*
%TO.P,U2,11,Din*%
%TO.N,Net-(J1-MOSI0{slash}GPIO10)*%
X99120000Y-115000000D03*
%TO.P,U2,12,Dout*%
%TO.N,Net-(J1-MISO0{slash}GPIO9)*%
X99120000Y-112460000D03*
%TO.P,U2,13,CLK*%
%TO.N,Net-(J1-SCLK0{slash}GPIO11)*%
X99120000Y-109920000D03*
%TO.P,U2,14,AGND*%
%TO.N,GND*%
X99120000Y-107380000D03*
%TO.P,U2,15,Vref*%
%TO.N,+3.3V*%
X99120000Y-104840000D03*
%TO.P,U2,16,Vdd*%
X99120000Y-102300000D03*
%TD*%
D10*
%TO.P,J1,1,3V3*%
%TO.N,+3.3V*%
X47040000Y-81840000D03*
D11*
%TO.P,J1,2,5V*%
%TO.N,+5V*%
X44500000Y-81840000D03*
%TO.P,J1,3,SDA/GPIO2*%
%TO.N,Net-(J1-SDA{slash}GPIO2)*%
X47040000Y-84380000D03*
%TO.P,J1,4,5V*%
%TO.N,+5V*%
X44500000Y-84380000D03*
%TO.P,J1,5,SCL/GPIO3*%
%TO.N,Net-(J1-SCL{slash}GPIO3)*%
X47040000Y-86920000D03*
%TO.P,J1,6,GND*%
%TO.N,GND*%
X44500000Y-86920000D03*
%TO.P,J1,7,GCLK0/GPIO4*%
%TO.N,Net-(J1-GCLK0{slash}GPIO4)*%
X47040000Y-89460000D03*
%TO.P,J1,8,GPIO14/TXD*%
%TO.N,unconnected-(J1-GPIO14{slash}TXD-Pad8)*%
X44500000Y-89460000D03*
%TO.P,J1,9,GND*%
%TO.N,GND*%
X47040000Y-92000000D03*
%TO.P,J1,10,GPIO15/RXD*%
%TO.N,unconnected-(J1-GPIO15{slash}RXD-Pad10)*%
X44500000Y-92000000D03*
%TO.P,J1,11,GPIO17*%
%TO.N,unconnected-(J1-GPIO17-Pad11)*%
X47040000Y-94540000D03*
%TO.P,J1,12,GPIO18/PWM0*%
%TO.N,Net-(J1-GPIO18{slash}PWM0)*%
X44500000Y-94540000D03*
%TO.P,J1,13,GPIO27*%
%TO.N,unconnected-(J1-GPIO27-Pad13)*%
X47040000Y-97080000D03*
%TO.P,J1,14,GND*%
%TO.N,GND*%
X44500000Y-97080000D03*
%TO.P,J1,15,GPIO22*%
%TO.N,unconnected-(J1-GPIO22-Pad15)*%
X47040000Y-99620000D03*
%TO.P,J1,16,GPIO23*%
%TO.N,Net-(J1-GPIO23)*%
X44500000Y-99620000D03*
%TO.P,J1,17,3V3*%
%TO.N,+3.3V*%
X47040000Y-102160000D03*
%TO.P,J1,18,GPIO24*%
%TO.N,Net-(J1-GPIO24)*%
X44500000Y-102160000D03*
%TO.P,J1,19,MOSI0/GPIO10*%
%TO.N,Net-(J1-MOSI0{slash}GPIO10)*%
X47040000Y-104700000D03*
%TO.P,J1,20,GND*%
%TO.N,GND*%
X44500000Y-104700000D03*
%TO.P,J1,21,MISO0/GPIO9*%
%TO.N,Net-(J1-MISO0{slash}GPIO9)*%
X47040000Y-107240000D03*
%TO.P,J1,22,GPIO25*%
%TO.N,Net-(J1-GPIO25)*%
X44500000Y-107240000D03*
%TO.P,J1,23,SCLK0/GPIO11*%
%TO.N,Net-(J1-SCLK0{slash}GPIO11)*%
X47040000Y-109780000D03*
%TO.P,J1,24,~{CE0}/GPIO8*%
%TO.N,Net-(J1-~{CE0}{slash}GPIO8)*%
X44500000Y-109780000D03*
%TO.P,J1,25,GND*%
%TO.N,GND*%
X47040000Y-112320000D03*
%TO.P,J1,26,~{CE1}/GPIO7*%
%TO.N,Net-(J1-~{CE1}{slash}GPIO7)*%
X44500000Y-112320000D03*
%TO.P,J1,27,ID_SD/GPIO0*%
%TO.N,unconnected-(J1-ID_SD{slash}GPIO0-Pad27)*%
X47040000Y-114860000D03*
%TO.P,J1,28,ID_SC/GPIO1*%
%TO.N,unconnected-(J1-ID_SC{slash}GPIO1-Pad28)*%
X44500000Y-114860000D03*
%TO.P,J1,29,GCLK1/GPIO5*%
%TO.N,Net-(J1-GCLK1{slash}GPIO5)*%
X47040000Y-117400000D03*
%TO.P,J1,30,GND*%
%TO.N,GND*%
X44500000Y-117400000D03*
%TO.P,J1,31,GCLK2/GPIO6*%
%TO.N,Net-(J1-GCLK2{slash}GPIO6)*%
X47040000Y-119940000D03*
%TO.P,J1,32,PWM0/GPIO12*%
%TO.N,Net-(J1-PWM0{slash}GPIO12)*%
X44500000Y-119940000D03*
%TO.P,J1,33,PWM1/GPIO13*%
%TO.N,Net-(J1-PWM1{slash}GPIO13)*%
X47040000Y-122480000D03*
%TO.P,J1,34,GND*%
%TO.N,GND*%
X44500000Y-122480000D03*
%TO.P,J1,35,GPIO19/MISO1*%
%TO.N,Net-(J1-GPIO19{slash}MISO1)*%
X47040000Y-125020000D03*
%TO.P,J1,36,GPIO16*%
%TO.N,Net-(J1-GPIO16)*%
X44500000Y-125020000D03*
%TO.P,J1,37,GPIO26*%
%TO.N,unconnected-(J1-GPIO26-Pad37)*%
X47040000Y-127560000D03*
%TO.P,J1,38,GPIO20/MOSI1*%
%TO.N,unconnected-(J1-GPIO20{slash}MOSI1-Pad38)*%
X44500000Y-127560000D03*
%TO.P,J1,39,GND*%
%TO.N,GND*%
X47040000Y-130100000D03*
%TO.P,J1,40,GPIO21/SCLK1*%
%TO.N,Net-(J1-GPIO21{slash}SCLK1)*%
X44500000Y-130100000D03*
%TD*%
D10*
%TO.P,J4,1,SCK*%
%TO.N,unconnected-(J4-SCK-Pad1)*%
X70380000Y-83500000D03*
D11*
%TO.P,J4,2,BCK*%
%TO.N,Net-(J1-GPIO18{slash}PWM0)*%
X72920000Y-83500000D03*
%TO.P,J4,3,DIN*%
%TO.N,Net-(J1-GPIO21{slash}SCLK1)*%
X75460000Y-83500000D03*
%TO.P,J4,4,LCK*%
%TO.N,Net-(J1-GPIO19{slash}MISO1)*%
X78000000Y-83500000D03*
%TO.P,J4,5,GND*%
%TO.N,GND*%
X80540000Y-83500000D03*
%TO.P,J4,6,VIN*%
%TO.N,+5V*%
X83080000Y-83500000D03*
%TD*%
D18*
%TO.P,J6,5,Shield*%
%TO.N,GND*%
X132511000Y-78505400D03*
X119711000Y-78505400D03*
%TD*%
D19*
%TO.P,J5,6,Shield*%
%TO.N,GND*%
X112392600Y-70879800D03*
X105792600Y-70879800D03*
%TD*%
D12*
%TO.P,R6,1*%
%TO.N,GND*%
X77010000Y-112050000D03*
%TO.P,R6,2*%
%TO.N,Net-(U2-CH4)*%
X82090000Y-112050000D03*
%TD*%
%TO.P,R8,1*%
%TO.N,GND*%
X77010000Y-118350000D03*
%TO.P,R8,2*%
%TO.N,Net-(U2-CH6)*%
X82090000Y-118350000D03*
%TD*%
%TO.P,R5,1*%
%TO.N,GND*%
X77010000Y-108900000D03*
%TO.P,R5,2*%
%TO.N,Net-(U2-CH3)*%
X82090000Y-108900000D03*
%TD*%
D10*
%TO.P,J8,1,Pin_1*%
%TO.N,Net-(J6-VBUS)*%
X129565000Y-90393200D03*
D11*
%TO.P,J8,2,Pin_2*%
%TO.N,GND*%
X129565000Y-92933200D03*
%TD*%
D12*
%TO.P,R3,1*%
%TO.N,GND*%
X76920000Y-102100000D03*
%TO.P,R3,2*%
%TO.N,Net-(U2-CH1)*%
X82000000Y-102100000D03*
%TD*%
%TO.P,R7,1*%
%TO.N,GND*%
X77010000Y-115200000D03*
%TO.P,R7,2*%
%TO.N,Net-(U2-CH5)*%
X82090000Y-115200000D03*
%TD*%
D20*
%TO.P,U3,1,VDD*%
%TO.N,+3.3V*%
X99750000Y-79880000D03*
D15*
%TO.P,U3,2,DATA*%
%TO.N,Net-(J1-~{CE1}{slash}GPIO7)*%
X99750000Y-82420000D03*
%TO.P,U3,3,NC*%
%TO.N,unconnected-(U3-NC-Pad3)*%
X99750000Y-84960000D03*
%TO.P,U3,4,GND*%
%TO.N,GND*%
X99750000Y-87500000D03*
%TD*%
D10*
%TO.P,J7,1,Pin_1*%
%TO.N,Net-(J5-VBUS)*%
X121666000Y-90424000D03*
D11*
%TO.P,J7,2,Pin_2*%
%TO.N,GND*%
X121666000Y-92964000D03*
%TD*%
D12*
%TO.P,R2,1*%
%TO.N,Net-(U2-CH0)*%
X61920000Y-131000000D03*
%TO.P,R2,2*%
%TO.N,GND*%
X67000000Y-131000000D03*
%TD*%
%TO.P,R12,1*%
%TO.N,Net-(J2-32K)*%
X110170000Y-83100000D03*
%TO.P,R12,2*%
%TO.N,GND*%
X115250000Y-83100000D03*
%TD*%
%TO.P,R13,1*%
%TO.N,Net-(J2-SQW)*%
X110170000Y-86250000D03*
%TO.P,R13,2*%
%TO.N,GND*%
X115250000Y-86250000D03*
%TD*%
D21*
%TO.N,GND*%
X43998622Y-93253446D03*
%TO.N,Net-(J1-PWM0{slash}GPIO12)*%
X54600000Y-123000000D03*
%TO.N,+3.3V*%
X49500000Y-100250000D03*
X100221000Y-121767600D03*
%TO.N,Net-(J1-GPIO18{slash}PWM0)*%
X50750000Y-90000000D03*
%TO.N,Net-(J1-GCLK1{slash}GPIO5)*%
X49750000Y-112500000D03*
%TO.N,Net-(J1-GPIO23)*%
X52803265Y-114396735D03*
%TO.N,Net-(J1-GPIO21{slash}SCLK1)*%
X49460900Y-125250000D03*
%TO.N,Net-(J1-GPIO19{slash}MISO1)*%
X67250000Y-91471000D03*
X60329000Y-102561000D03*
X65750000Y-103750000D03*
%TO.N,Net-(J1-GCLK2{slash}GPIO6)*%
X52203265Y-113796735D03*
%TD*%
D22*
%TO.N,GND*%
X94535735Y-87535735D02*
X94571470Y-87500000D01*
X45651000Y-113709000D02*
X47040000Y-112320000D01*
X44500000Y-117400000D02*
X43349000Y-118551000D01*
X44996554Y-93253446D02*
X46250000Y-92000000D01*
X43349000Y-118551000D02*
X43349000Y-121329000D01*
X44500000Y-117400000D02*
X45651000Y-116249000D01*
X45651000Y-116249000D02*
X45651000Y-113709000D01*
X46250000Y-92000000D02*
X47040000Y-92000000D01*
X43349000Y-121329000D02*
X44500000Y-122480000D01*
X43998622Y-93253446D02*
X44996554Y-93253446D01*
%TO.N,Net-(J1-SCLK0{slash}GPIO11)*%
X62500000Y-103950000D02*
X56670000Y-109780000D01*
X56670000Y-109780000D02*
X47040000Y-109780000D01*
%TO.N,Net-(J1-PWM0{slash}GPIO12)*%
X54600000Y-123000000D02*
X53969000Y-123631000D01*
X53969000Y-123631000D02*
X46563240Y-123631000D01*
X46563240Y-123631000D02*
X45750000Y-122817760D01*
X45750000Y-121190000D02*
X44500000Y-119940000D01*
X45750000Y-122817760D02*
X45750000Y-121190000D01*
%TO.N,Net-(J1-GPIO16)*%
X45889000Y-126409000D02*
X44500000Y-125020000D01*
X57821000Y-126409000D02*
X45889000Y-126409000D01*
X62500000Y-121730000D02*
X57821000Y-126409000D01*
%TO.N,+5V*%
X45651000Y-83229000D02*
X44500000Y-84380000D01*
X81929000Y-82349000D02*
X50698760Y-82349000D01*
X44500000Y-81840000D02*
X45651000Y-82991000D01*
X50698760Y-82349000D02*
X49818760Y-83229000D01*
X45651000Y-82991000D02*
X45651000Y-83229000D01*
X49818760Y-83229000D02*
X45651000Y-83229000D01*
X83080000Y-83500000D02*
X81929000Y-82349000D01*
%TO.N,Net-(J1-GPIO24)*%
X45651000Y-101009000D02*
X44500000Y-102160000D01*
X64052000Y-91174240D02*
X62976760Y-90099000D01*
X47516760Y-101009000D02*
X45651000Y-101009000D01*
X62500000Y-98870000D02*
X64052000Y-97318000D01*
X58426760Y-90099000D02*
X47516760Y-101009000D01*
X64052000Y-97318000D02*
X64052000Y-91174240D01*
X62976760Y-90099000D02*
X58426760Y-90099000D01*
%TO.N,+3.3V*%
X49500000Y-100250000D02*
X48950000Y-100250000D01*
X110922200Y-132035000D02*
X100578600Y-121691400D01*
X48950000Y-100250000D02*
X47040000Y-102160000D01*
X100578600Y-121691400D02*
X100221000Y-121691400D01*
%TO.N,Net-(J1-~{CE0}{slash}GPIO8)*%
X47371000Y-108629000D02*
X45651000Y-108629000D01*
X62210000Y-93790000D02*
X47371000Y-108629000D01*
X62500000Y-93790000D02*
X62210000Y-93790000D01*
X45651000Y-108629000D02*
X44500000Y-109780000D01*
%TO.N,Net-(J1-GPIO18{slash}PWM0)*%
X50750000Y-90000000D02*
X47500000Y-93250000D01*
X47500000Y-93250000D02*
X45790000Y-93250000D01*
X45790000Y-93250000D02*
X44500000Y-94540000D01*
%TO.N,Net-(J1-GCLK1{slash}GPIO5)*%
X49750000Y-114690000D02*
X47040000Y-117400000D01*
X49750000Y-112500000D02*
X49750000Y-114690000D01*
%TO.N,Net-(J1-GPIO23)*%
X42948000Y-101172000D02*
X44500000Y-99620000D01*
X52803265Y-113546792D02*
X50187473Y-110931000D01*
X44023240Y-110931000D02*
X42948000Y-109855760D01*
X52803265Y-114396735D02*
X52803265Y-113546792D01*
X42948000Y-109855760D02*
X42948000Y-101172000D01*
X50187473Y-110931000D02*
X44023240Y-110931000D01*
%TO.N,Net-(J1-GPIO21{slash}SCLK1)*%
X55201000Y-123248943D02*
X53199943Y-125250000D01*
X55201000Y-114463240D02*
X55201000Y-123248943D01*
X62976760Y-107641000D02*
X62023240Y-107641000D01*
X75460000Y-83500000D02*
X75460000Y-95157760D01*
X62023240Y-107641000D02*
X55201000Y-114463240D01*
X75460000Y-95157760D02*
X62976760Y-107641000D01*
X53199943Y-125250000D02*
X49460900Y-125250000D01*
%TO.N,Net-(J1-GPIO19{slash}MISO1)*%
X42547000Y-122154760D02*
X44023240Y-123631000D01*
X45651000Y-123631000D02*
X47040000Y-125020000D01*
X67250000Y-102250000D02*
X65750000Y-103750000D01*
X45889000Y-96603240D02*
X45889000Y-97556760D01*
X64854000Y-88194900D02*
X63817100Y-87158000D01*
X63817100Y-87158000D02*
X56287760Y-87158000D01*
X45889000Y-97556760D02*
X44976760Y-98469000D01*
X46563240Y-95929000D02*
X45889000Y-96603240D01*
X62976760Y-102561000D02*
X64854000Y-100683760D01*
X47516760Y-95929000D02*
X46563240Y-95929000D01*
X60329000Y-102561000D02*
X62976760Y-102561000D01*
X44023240Y-98469000D02*
X42547000Y-99945240D01*
X56287760Y-87158000D02*
X47516760Y-95929000D01*
X67250000Y-91471000D02*
X67250000Y-102250000D01*
X64854000Y-100683760D02*
X64854000Y-88194900D01*
X44023240Y-123631000D02*
X45651000Y-123631000D01*
X42547000Y-99945240D02*
X42547000Y-122154760D01*
X44976760Y-98469000D02*
X44023240Y-98469000D01*
%TO.N,Net-(J1-GCLK2{slash}GPIO6)*%
X52203265Y-113796735D02*
X52203265Y-114776735D01*
X52203265Y-114776735D02*
X47040000Y-119940000D01*
%TO.N,Net-(J1-PWM1{slash}GPIO13)*%
X47040000Y-121950000D02*
X47040000Y-122480000D01*
X62500000Y-106490000D02*
X47040000Y-121950000D01*
%TO.N,Net-(J1-GPIO25)*%
X58426760Y-92639000D02*
X47516760Y-103549000D01*
X63651000Y-95179000D02*
X63651000Y-93313240D01*
X63651000Y-93313240D02*
X62976760Y-92639000D01*
X46563240Y-103549000D02*
X45750000Y-104362240D01*
X47516760Y-103549000D02*
X46563240Y-103549000D01*
X62976760Y-92639000D02*
X58426760Y-92639000D01*
X45750000Y-105990000D02*
X44500000Y-107240000D01*
X62500000Y-96330000D02*
X63651000Y-95179000D01*
X45750000Y-104362240D02*
X45750000Y-105990000D01*
%TO.N,Net-(J1-MOSI0{slash}GPIO10)*%
X45889000Y-107823900D02*
X45889000Y-106763240D01*
X64453000Y-99457000D02*
X64453000Y-88361000D01*
X63651000Y-87559000D02*
X58426760Y-87559000D01*
X44023240Y-101009000D02*
X43349000Y-101683240D01*
X47516760Y-98469000D02*
X46563240Y-98469000D01*
X62500000Y-101410000D02*
X64453000Y-99457000D01*
X58426760Y-87559000D02*
X47516760Y-98469000D01*
X44238690Y-108606450D02*
X45106450Y-108606450D01*
X47040000Y-105612240D02*
X47040000Y-104700000D01*
X45106450Y-108606450D02*
X45889000Y-107823900D01*
X43349000Y-101683240D02*
X43349000Y-107716760D01*
X45889000Y-106763240D02*
X47040000Y-105612240D01*
X46563240Y-98469000D02*
X45889000Y-99143240D01*
X45889000Y-100096760D02*
X44976760Y-101009000D01*
X45889000Y-99143240D02*
X45889000Y-100096760D01*
X64453000Y-88361000D02*
X63651000Y-87559000D01*
X44976760Y-101009000D02*
X44023240Y-101009000D01*
X43349000Y-107716760D02*
X44238690Y-108606450D01*
%TO.N,Net-(U2-CH1)*%
X91500000Y-104840000D02*
X84740000Y-104840000D01*
X84740000Y-104840000D02*
X82000000Y-102100000D01*
%TO.N,Net-(U2-CH2)*%
X91500000Y-107380000D02*
X83870000Y-107380000D01*
X83870000Y-107380000D02*
X82090000Y-105600000D01*
%TO.N,Net-(U2-CH3)*%
X91500000Y-109920000D02*
X83110000Y-109920000D01*
X83110000Y-109920000D02*
X82090000Y-108900000D01*
%TD*%
%TA.AperFunction,Conductor*%
%TO.N,GND*%
G36*
X45841444Y-128213999D02*
G01*
X45880486Y-128259056D01*
X45884951Y-128267820D01*
X46009890Y-128439786D01*
X46160213Y-128590109D01*
X46332179Y-128715048D01*
X46332181Y-128715049D01*
X46332184Y-128715051D01*
X46341493Y-128719794D01*
X46392290Y-128767766D01*
X46409087Y-128835587D01*
X46386552Y-128901722D01*
X46341505Y-128940760D01*
X46332446Y-128945376D01*
X46332440Y-128945380D01*
X46278282Y-128984727D01*
X46278282Y-128984728D01*
X46910591Y-129617037D01*
X46847007Y-129634075D01*
X46732993Y-129699901D01*
X46639901Y-129792993D01*
X46574075Y-129907007D01*
X46557037Y-129970591D01*
X45924728Y-129338282D01*
X45924727Y-129338282D01*
X45885380Y-129392440D01*
X45885376Y-129392446D01*
X45880760Y-129401505D01*
X45832781Y-129452297D01*
X45764959Y-129469087D01*
X45698826Y-129446543D01*
X45659794Y-129401493D01*
X45655051Y-129392184D01*
X45655049Y-129392181D01*
X45655048Y-129392179D01*
X45530109Y-129220213D01*
X45379786Y-129069890D01*
X45207820Y-128944951D01*
X45199600Y-128940763D01*
X45199054Y-128940485D01*
X45148259Y-128892512D01*
X45131463Y-128824692D01*
X45153999Y-128758556D01*
X45199054Y-128719515D01*
X45207816Y-128715051D01*
X45248691Y-128685354D01*
X45379786Y-128590109D01*
X45379788Y-128590106D01*
X45379792Y-128590104D01*
X45530104Y-128439792D01*
X45530106Y-128439788D01*
X45530109Y-128439786D01*
X45655048Y-128267820D01*
X45655047Y-128267820D01*
X45655051Y-128267816D01*
X45659514Y-128259054D01*
X45707488Y-128208259D01*
X45775308Y-128191463D01*
X45841444Y-128213999D01*
G37*
%TD.AperFunction*%
%TA.AperFunction,Conductor*%
G36*
X43352703Y-120663971D02*
G01*
X43371816Y-120684796D01*
X43424772Y-120757684D01*
X43469896Y-120819792D01*
X43620213Y-120970109D01*
X43792179Y-121095048D01*
X43792181Y-121095049D01*
X43792184Y-121095051D01*
X43801493Y-121099794D01*
X43852290Y-121147766D01*
X43869087Y-121215587D01*
X43846552Y-121281722D01*
X43801505Y-121320760D01*
X43792446Y-121325376D01*
X43792440Y-121325380D01*
X43738282Y-121364727D01*
X43738282Y-121364728D01*
X44370591Y-121997037D01*
X44307007Y-122014075D01*
X44192993Y-122079901D01*
X44099901Y-122172993D01*
X44034075Y-122287007D01*
X44017037Y-122350591D01*
X43384728Y-121718282D01*
X43384727Y-121718282D01*
X43371819Y-121736050D01*
X43316489Y-121778716D01*
X43246876Y-121784695D01*
X43185080Y-121752090D01*
X43150723Y-121691251D01*
X43147500Y-121663165D01*
X43147500Y-120757684D01*
X43167185Y-120690645D01*
X43219989Y-120644890D01*
X43289147Y-120634946D01*
X43352703Y-120663971D01*
G37*
%TD.AperFunction*%
%TA.AperFunction,Conductor*%
G36*
X45615270Y-118161717D02*
G01*
X45615270Y-118161716D01*
X45654622Y-118107555D01*
X45659232Y-118098507D01*
X45707205Y-118047709D01*
X45775025Y-118030912D01*
X45841161Y-118053447D01*
X45880204Y-118098504D01*
X45884949Y-118107817D01*
X46009890Y-118279786D01*
X46160213Y-118430109D01*
X46332182Y-118555050D01*
X46340946Y-118559516D01*
X46391742Y-118607491D01*
X46408536Y-118675312D01*
X46385998Y-118741447D01*
X46340946Y-118780484D01*
X46332182Y-118784949D01*
X46160213Y-118909890D01*
X46009890Y-119060213D01*
X45884949Y-119232182D01*
X45880484Y-119240946D01*
X45832509Y-119291742D01*
X45764688Y-119308536D01*
X45698553Y-119285998D01*
X45659516Y-119240946D01*
X45655050Y-119232182D01*
X45530109Y-119060213D01*
X45379786Y-118909890D01*
X45207817Y-118784949D01*
X45198504Y-118780204D01*
X45147707Y-118732230D01*
X45130912Y-118664409D01*
X45153449Y-118598274D01*
X45198507Y-118559232D01*
X45207555Y-118554622D01*
X45261716Y-118515270D01*
X45261717Y-118515270D01*
X44629408Y-117882962D01*
X44692993Y-117865925D01*
X44807007Y-117800099D01*
X44900099Y-117707007D01*
X44965925Y-117592993D01*
X44982962Y-117529409D01*
X45615270Y-118161717D01*
G37*
%TD.AperFunction*%
%TA.AperFunction,Conductor*%
G36*
X44034075Y-117592993D02*
G01*
X44099901Y-117707007D01*
X44192993Y-117800099D01*
X44307007Y-117865925D01*
X44370590Y-117882962D01*
X43738282Y-118515269D01*
X43738282Y-118515270D01*
X43792452Y-118554626D01*
X43792451Y-118554626D01*
X43801495Y-118559234D01*
X43852292Y-118607208D01*
X43869087Y-118675029D01*
X43846550Y-118741164D01*
X43801499Y-118780202D01*
X43792182Y-118784949D01*
X43620213Y-118909890D01*
X43469894Y-119060209D01*
X43469890Y-119060214D01*
X43371818Y-119195200D01*
X43316488Y-119237866D01*
X43246875Y-119243845D01*
X43185080Y-119211240D01*
X43150723Y-119150401D01*
X43147500Y-119122315D01*
X43147500Y-118216832D01*
X43167185Y-118149793D01*
X43219989Y-118104038D01*
X43289147Y-118094094D01*
X43352703Y-118123119D01*
X43371819Y-118143948D01*
X43384728Y-118161716D01*
X44017037Y-117529408D01*
X44034075Y-117592993D01*
G37*
%TD.AperFunction*%
%TA.AperFunction,Conductor*%
G36*
X43352703Y-115583971D02*
G01*
X43371819Y-115604799D01*
X43469896Y-115739792D01*
X43620213Y-115890109D01*
X43792179Y-116015048D01*
X43792181Y-116015049D01*
X43792184Y-116015051D01*
X43801493Y-116019794D01*
X43852290Y-116067766D01*
X43869087Y-116135587D01*
X43846552Y-116201722D01*
X43801505Y-116240760D01*
X43792446Y-116245376D01*
X43792440Y-116245380D01*
X43738282Y-116284727D01*
X43738282Y-116284728D01*
X44370591Y-116917037D01*
X44307007Y-116934075D01*
X44192993Y-116999901D01*
X44099901Y-117092993D01*
X44034075Y-117207007D01*
X44017037Y-117270591D01*
X43384728Y-116638282D01*
X43384727Y-116638282D01*
X43371819Y-116656050D01*
X43316489Y-116698716D01*
X43246876Y-116704695D01*
X43185080Y-116672090D01*
X43150723Y-116611251D01*
X43147500Y-116583165D01*
X43147500Y-115677684D01*
X43167185Y-115610645D01*
X43219989Y-115564890D01*
X43289147Y-115554946D01*
X43352703Y-115583971D01*
G37*
%TD.AperFunction*%
%TA.AperFunction,Conductor*%
G36*
X45787226Y-115495524D02*
G01*
X45799810Y-115494985D01*
X45819674Y-115506581D01*
X45841444Y-115513999D01*
X45850719Y-115524703D01*
X45860151Y-115530209D01*
X45880486Y-115559056D01*
X45884951Y-115567820D01*
X46009890Y-115739786D01*
X46160213Y-115890109D01*
X46332182Y-116015050D01*
X46340946Y-116019516D01*
X46391742Y-116067491D01*
X46408536Y-116135312D01*
X46385998Y-116201447D01*
X46340946Y-116240484D01*
X46332182Y-116244949D01*
X46160213Y-116369890D01*
X46009890Y-116520213D01*
X45884949Y-116692182D01*
X45880202Y-116701499D01*
X45832227Y-116752293D01*
X45764405Y-116769087D01*
X45698271Y-116746548D01*
X45659234Y-116701495D01*
X45654626Y-116692452D01*
X45615270Y-116638282D01*
X45615269Y-116638282D01*
X44982962Y-117270590D01*
X44965925Y-117207007D01*
X44900099Y-117092993D01*
X44807007Y-116999901D01*
X44692993Y-116934075D01*
X44629409Y-116917037D01*
X45261716Y-116284728D01*
X45207547Y-116245373D01*
X45207547Y-116245372D01*
X45198500Y-116240763D01*
X45147706Y-116192788D01*
X45130912Y-116124966D01*
X45153451Y-116058832D01*
X45198508Y-116019793D01*
X45207816Y-116015051D01*
X45308110Y-115942184D01*
X45379786Y-115890109D01*
X45379788Y-115890106D01*
X45379792Y-115890104D01*
X45530104Y-115739792D01*
X45530106Y-115739788D01*
X45530109Y-115739786D01*
X45655048Y-115567820D01*
X45655047Y-115567820D01*
X45655051Y-115567816D01*
X45659514Y-115559054D01*
X45668160Y-115549900D01*
X45672897Y-115538232D01*
X45691696Y-115524979D01*
X45707488Y-115508259D01*
X45719710Y-115505231D01*
X45730004Y-115497976D01*
X45752985Y-115496991D01*
X45775308Y-115491463D01*
X45787226Y-115495524D01*
G37*
%TD.AperFunction*%
%TA.AperFunction,Conductor*%
G36*
X49440007Y-111551185D02*
G01*
X49485762Y-111603989D01*
X49495706Y-111673147D01*
X49466681Y-111736703D01*
X49420420Y-111770061D01*
X49370827Y-111790602D01*
X49370814Y-111790609D01*
X49239711Y-111878210D01*
X49239707Y-111878213D01*
X49128213Y-111989707D01*
X49128210Y-111989711D01*
X49040609Y-112120814D01*
X49040602Y-112120827D01*
X48980264Y-112266498D01*
X48980261Y-112266510D01*
X48949500Y-112421153D01*
X48949500Y-112578846D01*
X48980261Y-112733489D01*
X48980264Y-112733501D01*
X49040602Y-112879172D01*
X49040609Y-112879185D01*
X49128602Y-113010874D01*
X49149480Y-113077551D01*
X49149500Y-113079765D01*
X49149500Y-114389901D01*
X49129815Y-114456940D01*
X49113181Y-114477582D01*
X48602181Y-114988582D01*
X48540858Y-115022067D01*
X48471166Y-115017083D01*
X48415233Y-114975211D01*
X48390816Y-114909747D01*
X48390500Y-114900901D01*
X48390500Y-114753713D01*
X48381406Y-114696297D01*
X48357246Y-114543757D01*
X48291557Y-114341588D01*
X48195051Y-114152184D01*
X48195049Y-114152181D01*
X48195048Y-114152179D01*
X48070109Y-113980213D01*
X47919786Y-113829890D01*
X47747817Y-113704949D01*
X47738504Y-113700204D01*
X47687707Y-113652230D01*
X47670912Y-113584409D01*
X47693449Y-113518274D01*
X47738507Y-113479232D01*
X47747555Y-113474622D01*
X47801716Y-113435270D01*
X47801717Y-113435270D01*
X47169408Y-112802962D01*
X47232993Y-112785925D01*
X47347007Y-112720099D01*
X47440099Y-112627007D01*
X47505925Y-112512993D01*
X47522962Y-112449409D01*
X48155270Y-113081717D01*
X48155270Y-113081716D01*
X48194622Y-113027554D01*
X48291095Y-112838217D01*
X48356757Y-112636130D01*
X48356757Y-112636127D01*
X48390000Y-112426246D01*
X48390000Y-112213753D01*
X48356757Y-112003872D01*
X48356757Y-112003869D01*
X48291095Y-111801782D01*
X48245244Y-111711795D01*
X48232348Y-111643126D01*
X48258624Y-111578386D01*
X48315730Y-111538128D01*
X48355729Y-111531500D01*
X49372968Y-111531500D01*
X49440007Y-111551185D01*
G37*
%TD.AperFunction*%
%TA.AperFunction,Conductor*%
G36*
X46574075Y-112512993D02*
G01*
X46639901Y-112627007D01*
X46732993Y-112720099D01*
X46847007Y-112785925D01*
X46910590Y-112802962D01*
X46278282Y-113435269D01*
X46278282Y-113435270D01*
X46332452Y-113474626D01*
X46332451Y-113474626D01*
X46341495Y-113479234D01*
X46392292Y-113527208D01*
X46409087Y-113595029D01*
X46386550Y-113661164D01*
X46341499Y-113700202D01*
X46332182Y-113704949D01*
X46160213Y-113829890D01*
X46009890Y-113980213D01*
X45884949Y-114152182D01*
X45880484Y-114160946D01*
X45832509Y-114211742D01*
X45764688Y-114228536D01*
X45698553Y-114205998D01*
X45659516Y-114160946D01*
X45655050Y-114152182D01*
X45530109Y-113980213D01*
X45379786Y-113829890D01*
X45207820Y-113704951D01*
X45207115Y-113704591D01*
X45199054Y-113700485D01*
X45148259Y-113652512D01*
X45131463Y-113584692D01*
X45153999Y-113518556D01*
X45199054Y-113479515D01*
X45207816Y-113475051D01*
X45262572Y-113435269D01*
X45379786Y-113350109D01*
X45379788Y-113350106D01*
X45379792Y-113350104D01*
X45530104Y-113199792D01*
X45530106Y-113199788D01*
X45530109Y-113199786D01*
X45615890Y-113081717D01*
X45655051Y-113027816D01*
X45659793Y-113018508D01*
X45707763Y-112967711D01*
X45775583Y-112950911D01*
X45841719Y-112973445D01*
X45880763Y-113018500D01*
X45885373Y-113027547D01*
X45924728Y-113081716D01*
X46557036Y-112449407D01*
X46574075Y-112512993D01*
G37*
%TD.AperFunction*%
%TA.AperFunction,Conductor*%
G36*
X68972539Y-82969185D02*
G01*
X69018294Y-83021989D01*
X69029500Y-83073500D01*
X69029500Y-84397870D01*
X69029501Y-84397876D01*
X69035908Y-84457483D01*
X69086202Y-84592328D01*
X69086206Y-84592335D01*
X69172452Y-84707544D01*
X69172455Y-84707547D01*
X69287664Y-84793793D01*
X69287671Y-84793797D01*
X69422517Y-84844091D01*
X69422516Y-84844091D01*
X69429444Y-84844835D01*
X69482127Y-84850500D01*
X71277872Y-84850499D01*
X71337483Y-84844091D01*
X71472331Y-84793796D01*
X71587546Y-84707546D01*
X71673796Y-84592331D01*
X71722810Y-84460916D01*
X71764681Y-84404984D01*
X71830145Y-84380566D01*
X71898418Y-84395417D01*
X71926673Y-84416569D01*
X72040213Y-84530109D01*
X72212179Y-84655048D01*
X72212181Y-84655049D01*
X72212184Y-84655051D01*
X72401588Y-84751557D01*
X72603757Y-84817246D01*
X72813713Y-84850500D01*
X72813714Y-84850500D01*
X73026286Y-84850500D01*
X73026287Y-84850500D01*
X73236243Y-84817246D01*
X73438412Y-84751557D01*
X73627816Y-84655051D01*
X73714138Y-84592335D01*
X73799786Y-84530109D01*
X73799788Y-84530106D01*
X73799792Y-84530104D01*
X73950104Y-84379792D01*
X73950106Y-84379788D01*
X73950109Y-84379786D01*
X74075048Y-84207820D01*
X74075047Y-84207820D01*
X74075051Y-84207816D01*
X74079514Y-84199054D01*
X74127488Y-84148259D01*
X74195308Y-84131463D01*
X74261444Y-84153999D01*
X74300486Y-84199056D01*
X74304951Y-84207820D01*
X74429890Y-84379786D01*
X74580213Y-84530109D01*
X74752184Y-84655051D01*
X74752184Y-84655052D01*
X74791793Y-84675233D01*
X74842590Y-84723206D01*
X74859500Y-84785718D01*
X74859500Y-89082213D01*
X74839815Y-89149252D01*
X74787011Y-89195007D01*
X74722900Y-89205571D01*
X74712424Y-89204501D01*
X74712415Y-89204500D01*
X74712410Y-89204500D01*
X72912390Y-89204500D01*
X72912382Y-89204500D01*
X72809603Y-89215000D01*
X72809602Y-89215001D01*
X72727069Y-89242349D01*
X72643067Y-89270185D01*
X72643062Y-89270187D01*
X72493742Y-89362289D01*
X72369689Y-89486342D01*
X72277587Y-89635662D01*
X72277585Y-89635667D01*
X72249749Y-89719669D01*
X72222401Y-89802202D01*
X72222401Y-89802203D01*
X72222400Y-89802203D01*
X72211900Y-89904982D01*
X72211900Y-91705017D01*
X72222400Y-91807796D01*
X72239104Y-91858205D01*
X72277586Y-91974335D01*
X72369688Y-92123656D01*
X72493744Y-92247712D01*
X72643065Y-92339814D01*
X72809602Y-92394999D01*
X72912390Y-92405500D01*
X72912395Y-92405500D01*
X74712405Y-92405500D01*
X74712410Y-92405500D01*
X74712417Y-92405499D01*
X74712421Y-92405499D01*
X74715955Y-92405137D01*
X74722891Y-92404429D01*
X74791585Y-92417194D01*
X74842472Y-92465072D01*
X74859500Y-92527786D01*
X74859500Y-94857663D01*
X74839815Y-94924702D01*
X74823181Y-94945344D01*
X68062181Y-101706344D01*
X68000858Y-101739829D01*
X67931166Y-101734845D01*
X67875233Y-101692973D01*
X67850816Y-101627509D01*
X67850500Y-101618663D01*
X67850500Y-92050765D01*
X67870185Y-91983726D01*
X67871398Y-91981874D01*
X67876436Y-91974335D01*
X67959394Y-91850179D01*
X68019737Y-91704497D01*
X68050500Y-91549842D01*
X68050500Y-91392158D01*
X68050500Y-91392155D01*
X68050499Y-91392153D01*
X68042250Y-91350682D01*
X68019737Y-91237503D01*
X67980905Y-91143753D01*
X67959397Y-91091827D01*
X67959390Y-91091814D01*
X67871789Y-90960711D01*
X67871786Y-90960707D01*
X67760292Y-90849213D01*
X67760288Y-90849210D01*
X67629185Y-90761609D01*
X67629172Y-90761602D01*
X67483501Y-90701264D01*
X67483489Y-90701261D01*
X67328845Y-90670500D01*
X67328842Y-90670500D01*
X67171158Y-90670500D01*
X67171155Y-90670500D01*
X67016510Y-90701261D01*
X67016498Y-90701264D01*
X66870827Y-90761602D01*
X66870814Y-90761609D01*
X66739711Y-90849210D01*
X66739707Y-90849213D01*
X66628213Y-90960707D01*
X66628210Y-90960711D01*
X66540609Y-91091814D01*
X66540602Y-91091827D01*
X66480264Y-91237498D01*
X66480261Y-91237510D01*
X66449500Y-91392153D01*
X66449500Y-91549846D01*
X66480261Y-91704489D01*
X66480264Y-91704501D01*
X66540602Y-91850172D01*
X66540609Y-91850185D01*
X66619595Y-91968395D01*
X66623564Y-91974335D01*
X66628602Y-91981874D01*
X66649480Y-92048551D01*
X66649500Y-92050765D01*
X66649500Y-101949903D01*
X66629815Y-102016942D01*
X66613181Y-102037584D01*
X65735339Y-102915425D01*
X65674016Y-102948910D01*
X65671850Y-102949361D01*
X65516508Y-102980261D01*
X65516498Y-102980264D01*
X65370827Y-103040602D01*
X65370814Y-103040609D01*
X65239711Y-103128210D01*
X65239707Y-103128213D01*
X65128213Y-103239707D01*
X65128210Y-103239711D01*
X65040609Y-103370814D01*
X65040602Y-103370827D01*
X64980264Y-103516498D01*
X64980261Y-103516510D01*
X64949500Y-103671153D01*
X64949500Y-103828846D01*
X64980261Y-103983489D01*
X64980264Y-103983501D01*
X65040602Y-104129172D01*
X65040609Y-104129185D01*
X65128210Y-104260288D01*
X65128213Y-104260292D01*
X65230541Y-104362620D01*
X65264026Y-104423943D01*
X65259042Y-104493635D01*
X65230541Y-104537982D01*
X63887557Y-105880966D01*
X63826234Y-105914451D01*
X63756542Y-105909467D01*
X63700609Y-105867595D01*
X63689391Y-105849580D01*
X63671723Y-105814905D01*
X63655051Y-105782184D01*
X63617213Y-105730104D01*
X63530109Y-105610213D01*
X63379786Y-105459890D01*
X63207820Y-105334951D01*
X63207115Y-105334591D01*
X63199054Y-105330485D01*
X63148259Y-105282512D01*
X63131463Y-105214692D01*
X63153999Y-105148556D01*
X63199054Y-105109515D01*
X63207816Y-105105051D01*
X63330051Y-105016243D01*
X63379786Y-104980109D01*
X63379788Y-104980106D01*
X63379792Y-104980104D01*
X63530104Y-104829792D01*
X63530106Y-104829788D01*
X63530109Y-104829786D01*
X63655048Y-104657820D01*
X63655047Y-104657820D01*
X63655051Y-104657816D01*
X63751557Y-104468412D01*
X63817246Y-104266243D01*
X63850500Y-104056287D01*
X63850500Y-103843713D01*
X63817246Y-103633757D01*
X63751557Y-103431588D01*
X63655051Y-103242184D01*
X63655049Y-103242181D01*
X63655048Y-103242179D01*
X63530109Y-103070213D01*
X63511126Y-103051230D01*
X63477641Y-102989907D01*
X63482625Y-102920215D01*
X63511126Y-102875868D01*
X64349410Y-102037584D01*
X65212506Y-101174488D01*
X65212511Y-101174484D01*
X65222714Y-101164280D01*
X65222716Y-101164280D01*
X65334520Y-101052476D01*
X65399333Y-100940216D01*
X65413577Y-100915545D01*
X65454500Y-100762818D01*
X65454500Y-100604703D01*
X65454500Y-88283959D01*
X65454501Y-88283946D01*
X65454501Y-88115845D01*
X65454501Y-88115843D01*
X65413577Y-87963115D01*
X65384639Y-87912995D01*
X65334520Y-87826184D01*
X65222716Y-87714380D01*
X65222715Y-87714379D01*
X65218385Y-87710049D01*
X65218374Y-87710039D01*
X64304690Y-86796355D01*
X64304688Y-86796352D01*
X64185817Y-86677481D01*
X64185816Y-86677480D01*
X64099004Y-86627360D01*
X64099004Y-86627359D01*
X64099000Y-86627358D01*
X64048885Y-86598423D01*
X63896157Y-86557499D01*
X63738043Y-86557499D01*
X63730447Y-86557499D01*
X63730431Y-86557500D01*
X56366817Y-86557500D01*
X56208703Y-86557500D01*
X56055975Y-86598423D01*
X56055974Y-86598423D01*
X56055972Y-86598424D01*
X56055969Y-86598425D01*
X56005856Y-86627359D01*
X56005855Y-86627360D01*
X55962449Y-86652420D01*
X55919045Y-86677479D01*
X55919042Y-86677481D01*
X55807238Y-86789286D01*
X48504134Y-94092389D01*
X48442811Y-94125874D01*
X48373119Y-94120890D01*
X48317186Y-94079018D01*
X48298522Y-94043025D01*
X48291557Y-94021588D01*
X48195051Y-93832184D01*
X48117698Y-93725716D01*
X48077195Y-93669967D01*
X48053715Y-93604161D01*
X48069541Y-93536107D01*
X48089828Y-93509405D01*
X50764662Y-90834572D01*
X50825983Y-90801089D01*
X50828150Y-90800638D01*
X50911415Y-90784075D01*
X50983497Y-90769737D01*
X51129179Y-90709394D01*
X51260289Y-90621789D01*
X51371789Y-90510289D01*
X51459394Y-90379179D01*
X51519737Y-90233497D01*
X51550500Y-90078842D01*
X51550500Y-89921158D01*
X51550500Y-89921155D01*
X51550499Y-89921153D01*
X51547282Y-89904982D01*
X51519737Y-89766503D01*
X51478722Y-89667483D01*
X51459397Y-89620827D01*
X51459390Y-89620814D01*
X51371789Y-89489711D01*
X51371786Y-89489707D01*
X51260292Y-89378213D01*
X51260288Y-89378210D01*
X51129185Y-89290609D01*
X51129172Y-89290602D01*
X50983501Y-89230264D01*
X50983489Y-89230261D01*
X50828845Y-89199500D01*
X50828842Y-89199500D01*
X50671158Y-89199500D01*
X50671155Y-89199500D01*
X50516510Y-89230261D01*
X50516498Y-89230264D01*
X50370827Y-89290602D01*
X50370814Y-89290609D01*
X50239711Y-89378210D01*
X50239707Y-89378213D01*
X50128213Y-89489707D01*
X50128210Y-89489711D01*
X50040609Y-89620814D01*
X50040602Y-89620827D01*
X49980264Y-89766498D01*
X49980261Y-89766508D01*
X49949361Y-89921850D01*
X49916976Y-89983761D01*
X49915425Y-89985339D01*
X48454944Y-91445819D01*
X48393621Y-91479304D01*
X48323929Y-91474320D01*
X48267996Y-91432448D01*
X48256778Y-91414433D01*
X48194624Y-91292449D01*
X48155270Y-91238282D01*
X48155269Y-91238282D01*
X47522962Y-91870589D01*
X47505925Y-91807007D01*
X47440099Y-91692993D01*
X47347007Y-91599901D01*
X47232993Y-91534075D01*
X47169409Y-91517037D01*
X47801716Y-90884728D01*
X47747547Y-90845373D01*
X47747547Y-90845372D01*
X47738500Y-90840763D01*
X47687706Y-90792788D01*
X47670912Y-90724966D01*
X47693451Y-90658832D01*
X47738508Y-90619793D01*
X47747816Y-90615051D01*
X47827007Y-90557515D01*
X47919786Y-90490109D01*
X47919788Y-90490106D01*
X47919792Y-90490104D01*
X48070104Y-90339792D01*
X48070106Y-90339788D01*
X48070109Y-90339786D01*
X48195048Y-90167820D01*
X48195047Y-90167820D01*
X48195051Y-90167816D01*
X48291557Y-89978412D01*
X48357246Y-89776243D01*
X48390500Y-89566287D01*
X48390500Y-89353713D01*
X48357246Y-89143757D01*
X48291557Y-88941588D01*
X48195051Y-88752184D01*
X48195049Y-88752181D01*
X48195048Y-88752179D01*
X48070109Y-88580213D01*
X47919786Y-88429890D01*
X47747820Y-88304951D01*
X47747115Y-88304591D01*
X47739054Y-88300485D01*
X47688259Y-88252512D01*
X47671463Y-88184692D01*
X47693999Y-88118556D01*
X47739054Y-88079515D01*
X47747816Y-88075051D01*
X47878871Y-87979835D01*
X47919786Y-87950109D01*
X47919788Y-87950106D01*
X47919792Y-87950104D01*
X48070104Y-87799792D01*
X48070106Y-87799788D01*
X48070109Y-87799786D01*
X48195048Y-87627820D01*
X48195050Y-87627817D01*
X48195051Y-87627816D01*
X48291557Y-87438412D01*
X48357246Y-87236243D01*
X48390500Y-87026287D01*
X48390500Y-86813713D01*
X48357246Y-86603757D01*
X48291557Y-86401588D01*
X48195051Y-86212184D01*
X48195049Y-86212181D01*
X48195048Y-86212179D01*
X48070109Y-86040213D01*
X47919786Y-85889890D01*
X47747820Y-85764951D01*
X47739600Y-85760763D01*
X47739054Y-85760485D01*
X47688259Y-85712512D01*
X47671463Y-85644692D01*
X47693999Y-85578556D01*
X47739054Y-85539515D01*
X47747816Y-85535051D01*
X47840209Y-85467924D01*
X47919786Y-85410109D01*
X47919788Y-85410106D01*
X47919792Y-85410104D01*
X48070104Y-85259792D01*
X48070106Y-85259788D01*
X48070109Y-85259786D01*
X48195048Y-85087820D01*
X48195047Y-85087820D01*
X48195051Y-85087816D01*
X48291557Y-84898412D01*
X48357246Y-84696243D01*
X48390500Y-84486287D01*
X48390500Y-84273713D01*
X48357246Y-84063757D01*
X48333870Y-83991816D01*
X48331876Y-83921977D01*
X48367956Y-83862144D01*
X48430657Y-83831316D01*
X48451802Y-83829500D01*
X49732091Y-83829500D01*
X49732107Y-83829501D01*
X49739703Y-83829501D01*
X49897814Y-83829501D01*
X49897817Y-83829501D01*
X50050545Y-83788577D01*
X50100664Y-83759639D01*
X50187476Y-83709520D01*
X50299280Y-83597716D01*
X50299280Y-83597714D01*
X50309488Y-83587507D01*
X50309489Y-83587504D01*
X50911176Y-82985819D01*
X50972499Y-82952334D01*
X50998857Y-82949500D01*
X68905500Y-82949500D01*
X68972539Y-82969185D01*
G37*
%TD.AperFunction*%
%TA.AperFunction,Conductor*%
G36*
X45841444Y-102813999D02*
G01*
X45880486Y-102859056D01*
X45884951Y-102867820D01*
X46009890Y-103039786D01*
X46028873Y-103058769D01*
X46062358Y-103120092D01*
X46057374Y-103189784D01*
X46028873Y-103234131D01*
X45269481Y-103993522D01*
X45269480Y-103993524D01*
X45233244Y-104056287D01*
X45190423Y-104130455D01*
X45149499Y-104283183D01*
X45149499Y-104283185D01*
X45149499Y-104352693D01*
X45129814Y-104419732D01*
X45113180Y-104440374D01*
X44982962Y-104570591D01*
X44965925Y-104507007D01*
X44900099Y-104392993D01*
X44807007Y-104299901D01*
X44692993Y-104234075D01*
X44629407Y-104217036D01*
X45261716Y-103584728D01*
X45207547Y-103545373D01*
X45207547Y-103545372D01*
X45198500Y-103540763D01*
X45147706Y-103492788D01*
X45130912Y-103424966D01*
X45153451Y-103358832D01*
X45198508Y-103319793D01*
X45207816Y-103315051D01*
X45308110Y-103242184D01*
X45379786Y-103190109D01*
X45379788Y-103190106D01*
X45379792Y-103190104D01*
X45530104Y-103039792D01*
X45530106Y-103039788D01*
X45530109Y-103039786D01*
X45655048Y-102867820D01*
X45655047Y-102867820D01*
X45655051Y-102867816D01*
X45659514Y-102859054D01*
X45707488Y-102808259D01*
X45775308Y-102791463D01*
X45841444Y-102813999D01*
G37*
%TD.AperFunction*%
%TA.AperFunction,Conductor*%
G36*
X45841444Y-95193999D02*
G01*
X45880486Y-95239056D01*
X45884951Y-95247820D01*
X46009890Y-95419786D01*
X46028873Y-95438769D01*
X46062358Y-95500092D01*
X46057374Y-95569784D01*
X46028873Y-95614131D01*
X45408481Y-96234522D01*
X45408480Y-96234524D01*
X45369026Y-96302861D01*
X45329423Y-96371455D01*
X45288499Y-96524183D01*
X45288499Y-96524185D01*
X45288499Y-96593693D01*
X45268814Y-96660732D01*
X45252180Y-96681374D01*
X44982962Y-96950591D01*
X44965925Y-96887007D01*
X44900099Y-96772993D01*
X44807007Y-96679901D01*
X44692993Y-96614075D01*
X44629409Y-96597037D01*
X45261716Y-95964728D01*
X45207547Y-95925373D01*
X45207547Y-95925372D01*
X45198500Y-95920763D01*
X45147706Y-95872788D01*
X45130912Y-95804966D01*
X45153451Y-95738832D01*
X45198508Y-95699793D01*
X45207816Y-95695051D01*
X45319194Y-95614131D01*
X45379786Y-95570109D01*
X45379788Y-95570106D01*
X45379792Y-95570104D01*
X45530104Y-95419792D01*
X45530106Y-95419788D01*
X45530109Y-95419786D01*
X45655048Y-95247820D01*
X45655047Y-95247820D01*
X45655051Y-95247816D01*
X45659514Y-95239054D01*
X45707488Y-95188259D01*
X45775308Y-95171463D01*
X45841444Y-95193999D01*
G37*
%TD.AperFunction*%
%TA.AperFunction,Conductor*%
G36*
X45841444Y-90113999D02*
G01*
X45880486Y-90159056D01*
X45884951Y-90167820D01*
X46009890Y-90339786D01*
X46160213Y-90490109D01*
X46332179Y-90615048D01*
X46332181Y-90615049D01*
X46332184Y-90615051D01*
X46341493Y-90619794D01*
X46392290Y-90667766D01*
X46409087Y-90735587D01*
X46386552Y-90801722D01*
X46341505Y-90840760D01*
X46332446Y-90845376D01*
X46332440Y-90845380D01*
X46278282Y-90884727D01*
X46278282Y-90884728D01*
X46910591Y-91517037D01*
X46847007Y-91534075D01*
X46732993Y-91599901D01*
X46639901Y-91692993D01*
X46574075Y-91807007D01*
X46557037Y-91870591D01*
X45924728Y-91238282D01*
X45924727Y-91238282D01*
X45885380Y-91292440D01*
X45885376Y-91292446D01*
X45880760Y-91301505D01*
X45832781Y-91352297D01*
X45764959Y-91369087D01*
X45698826Y-91346543D01*
X45659794Y-91301493D01*
X45655051Y-91292184D01*
X45655049Y-91292181D01*
X45655048Y-91292179D01*
X45530109Y-91120213D01*
X45379786Y-90969890D01*
X45207820Y-90844951D01*
X45207115Y-90844591D01*
X45199054Y-90840485D01*
X45148259Y-90792512D01*
X45131463Y-90724692D01*
X45153999Y-90658556D01*
X45199054Y-90619515D01*
X45207816Y-90615051D01*
X45229789Y-90599086D01*
X45379786Y-90490109D01*
X45379788Y-90490106D01*
X45379792Y-90490104D01*
X45530104Y-90339792D01*
X45530106Y-90339788D01*
X45530109Y-90339786D01*
X45655048Y-90167820D01*
X45655047Y-90167820D01*
X45655051Y-90167816D01*
X45659514Y-90159054D01*
X45707488Y-90108259D01*
X45775308Y-90091463D01*
X45841444Y-90113999D01*
G37*
%TD.AperFunction*%
%TA.AperFunction,Conductor*%
G36*
X45615270Y-87681717D02*
G01*
X45615270Y-87681716D01*
X45654622Y-87627555D01*
X45659232Y-87618507D01*
X45707205Y-87567709D01*
X45775025Y-87550912D01*
X45841161Y-87573447D01*
X45880204Y-87618504D01*
X45884949Y-87627817D01*
X46009890Y-87799786D01*
X46160213Y-87950109D01*
X46332182Y-88075050D01*
X46340946Y-88079516D01*
X46391742Y-88127491D01*
X46408536Y-88195312D01*
X46385998Y-88261447D01*
X46340946Y-88300484D01*
X46332182Y-88304949D01*
X46160213Y-88429890D01*
X46009890Y-88580213D01*
X45884949Y-88752182D01*
X45880484Y-88760946D01*
X45832509Y-88811742D01*
X45764688Y-88828536D01*
X45698553Y-88805998D01*
X45659516Y-88760946D01*
X45655050Y-88752182D01*
X45530109Y-88580213D01*
X45379786Y-88429890D01*
X45207817Y-88304949D01*
X45198504Y-88300204D01*
X45147707Y-88252230D01*
X45130912Y-88184409D01*
X45153449Y-88118274D01*
X45198507Y-88079232D01*
X45207555Y-88074622D01*
X45261716Y-88035270D01*
X45261717Y-88035270D01*
X44629408Y-87402962D01*
X44692993Y-87385925D01*
X44807007Y-87320099D01*
X44900099Y-87227007D01*
X44965925Y-87112993D01*
X44982962Y-87049409D01*
X45615270Y-87681717D01*
G37*
%TD.AperFunction*%
%TA.AperFunction,Conductor*%
G36*
X45841444Y-85033999D02*
G01*
X45880484Y-85079054D01*
X45884591Y-85087115D01*
X45884951Y-85087820D01*
X46009890Y-85259786D01*
X46160213Y-85410109D01*
X46332182Y-85535050D01*
X46340946Y-85539516D01*
X46391742Y-85587491D01*
X46408536Y-85655312D01*
X46385998Y-85721447D01*
X46340946Y-85760484D01*
X46332182Y-85764949D01*
X46160213Y-85889890D01*
X46009890Y-86040213D01*
X45884949Y-86212182D01*
X45880202Y-86221499D01*
X45832227Y-86272293D01*
X45764405Y-86289087D01*
X45698271Y-86266548D01*
X45659234Y-86221495D01*
X45654626Y-86212452D01*
X45615270Y-86158282D01*
X45615269Y-86158282D01*
X44982962Y-86790590D01*
X44965925Y-86727007D01*
X44900099Y-86612993D01*
X44807007Y-86519901D01*
X44692993Y-86454075D01*
X44629409Y-86437037D01*
X45261716Y-85804728D01*
X45207547Y-85765373D01*
X45207547Y-85765372D01*
X45198500Y-85760763D01*
X45147706Y-85712788D01*
X45130912Y-85644966D01*
X45153451Y-85578832D01*
X45198508Y-85539793D01*
X45207816Y-85535051D01*
X45300209Y-85467924D01*
X45379786Y-85410109D01*
X45379788Y-85410106D01*
X45379792Y-85410104D01*
X45530104Y-85259792D01*
X45530106Y-85259788D01*
X45530109Y-85259786D01*
X45655048Y-85087820D01*
X45655047Y-85087820D01*
X45655051Y-85087816D01*
X45659514Y-85079054D01*
X45707488Y-85028259D01*
X45775308Y-85011463D01*
X45841444Y-85033999D01*
G37*
%TD.AperFunction*%
%TA.AperFunction,Conductor*%
G36*
X105246815Y-69510039D02*
G01*
X105279493Y-69519004D01*
X105280262Y-69519861D01*
X105281366Y-69520185D01*
X105303523Y-69545756D01*
X105326184Y-69570983D01*
X105326368Y-69572120D01*
X105327121Y-69572989D01*
X105331941Y-69606511D01*
X105337360Y-69639953D01*
X105336901Y-69641007D01*
X105337065Y-69642147D01*
X105322991Y-69672964D01*
X105309475Y-69704017D01*
X105308347Y-69705029D01*
X105308040Y-69705703D01*
X105283218Y-69727602D01*
X105187010Y-69791886D01*
X105187006Y-69791889D01*
X105054689Y-69924206D01*
X105054686Y-69924210D01*
X104950724Y-70079799D01*
X104950719Y-70079808D01*
X104879108Y-70252694D01*
X104879106Y-70252702D01*
X104842600Y-70436228D01*
X104842600Y-70629800D01*
X105542600Y-70629800D01*
X105542600Y-71129800D01*
X104842600Y-71129800D01*
X104842600Y-71323371D01*
X104879106Y-71506897D01*
X104879108Y-71506905D01*
X104950719Y-71679791D01*
X104950724Y-71679800D01*
X105054686Y-71835389D01*
X105054689Y-71835393D01*
X105187006Y-71967710D01*
X105187010Y-71967713D01*
X105342599Y-72071675D01*
X105342612Y-72071682D01*
X105515489Y-72143289D01*
X105515496Y-72143291D01*
X105542600Y-72148682D01*
X105542600Y-71279528D01*
X105580660Y-71371414D01*
X105650986Y-71441740D01*
X105742872Y-71479800D01*
X105842328Y-71479800D01*
X105934214Y-71441740D01*
X106004540Y-71371414D01*
X106042600Y-71279528D01*
X106042600Y-72148681D01*
X106069703Y-72143291D01*
X106069710Y-72143289D01*
X106242587Y-72071682D01*
X106242600Y-72071675D01*
X106398189Y-71967713D01*
X106398193Y-71967710D01*
X106530510Y-71835393D01*
X106530513Y-71835389D01*
X106634475Y-71679800D01*
X106634480Y-71679791D01*
X106706091Y-71506905D01*
X106706093Y-71506897D01*
X106742599Y-71323371D01*
X106742600Y-71323369D01*
X106742600Y-71129800D01*
X106042600Y-71129800D01*
X106042600Y-70629800D01*
X106742600Y-70629800D01*
X106742600Y-70436230D01*
X106742599Y-70436228D01*
X106706093Y-70252702D01*
X106706091Y-70252694D01*
X106634480Y-70079808D01*
X106634475Y-70079799D01*
X106530513Y-69924210D01*
X106530510Y-69924206D01*
X106398193Y-69791889D01*
X106398189Y-69791886D01*
X106301982Y-69727602D01*
X106257177Y-69673990D01*
X106248470Y-69604665D01*
X106278625Y-69541637D01*
X106338068Y-69504918D01*
X106370873Y-69500500D01*
X111814327Y-69500500D01*
X111881366Y-69520185D01*
X111927121Y-69572989D01*
X111937065Y-69642147D01*
X111908040Y-69705703D01*
X111883218Y-69727602D01*
X111787010Y-69791886D01*
X111787006Y-69791889D01*
X111654689Y-69924206D01*
X111654686Y-69924210D01*
X111550724Y-70079799D01*
X111550719Y-70079808D01*
X111479108Y-70252694D01*
X111479106Y-70252702D01*
X111442600Y-70436228D01*
X111442600Y-70629800D01*
X112142600Y-70629800D01*
X112142600Y-71129800D01*
X111442600Y-71129800D01*
X111442600Y-71323371D01*
X111479106Y-71506897D01*
X111479108Y-71506905D01*
X111550719Y-71679791D01*
X111550724Y-71679800D01*
X111654686Y-71835389D01*
X111654689Y-71835393D01*
X111787006Y-71967710D01*
X111787010Y-71967713D01*
X111942599Y-72071675D01*
X111942612Y-72071682D01*
X112115489Y-72143289D01*
X112115496Y-72143291D01*
X112142600Y-72148682D01*
X112142600Y-71279528D01*
X112180660Y-71371414D01*
X112250986Y-71441740D01*
X112342872Y-71479800D01*
X112442328Y-71479800D01*
X112534214Y-71441740D01*
X112604540Y-71371414D01*
X112642600Y-71279528D01*
X112642600Y-72148681D01*
X112669703Y-72143291D01*
X112669710Y-72143289D01*
X112842587Y-72071682D01*
X112842600Y-72071675D01*
X112998189Y-71967713D01*
X112998193Y-71967710D01*
X113130510Y-71835393D01*
X113130513Y-71835389D01*
X113234475Y-71679800D01*
X113234480Y-71679791D01*
X113306091Y-71506905D01*
X113306093Y-71506897D01*
X113342599Y-71323371D01*
X113342600Y-71323369D01*
X113342600Y-71129800D01*
X112642600Y-71129800D01*
X112642600Y-70629800D01*
X113342600Y-70629800D01*
X113342600Y-70436230D01*
X113342599Y-70436228D01*
X113306093Y-70252702D01*
X113306091Y-70252694D01*
X113234480Y-70079808D01*
X113234475Y-70079799D01*
X113130513Y-69924210D01*
X113130510Y-69924206D01*
X112998193Y-69791889D01*
X112998189Y-69791886D01*
X112901982Y-69727602D01*
X112857177Y-69673990D01*
X112848470Y-69604665D01*
X112878625Y-69541637D01*
X112938068Y-69504918D01*
X112970873Y-69500500D01*
X133856300Y-69500500D01*
X133923339Y-69520185D01*
X133969094Y-69572989D01*
X133980300Y-69624500D01*
X133980300Y-135489300D01*
X133960615Y-135556339D01*
X133907811Y-135602094D01*
X133856300Y-135613300D01*
X40624500Y-135613300D01*
X40557461Y-135593615D01*
X40511706Y-135540811D01*
X40500500Y-135489300D01*
X40500500Y-122233814D01*
X41946498Y-122233814D01*
X41946499Y-122233817D01*
X41985190Y-122378213D01*
X41987423Y-122386544D01*
X41987424Y-122386548D01*
X42012811Y-122430520D01*
X42012812Y-122430520D01*
X42066477Y-122523472D01*
X42066481Y-122523477D01*
X42185349Y-122642345D01*
X42185355Y-122642350D01*
X43488872Y-123945867D01*
X43522357Y-124007190D01*
X43517373Y-124076882D01*
X43488876Y-124121225D01*
X43469899Y-124140202D01*
X43469892Y-124140211D01*
X43344951Y-124312179D01*
X43248444Y-124501585D01*
X43182753Y-124703760D01*
X43149500Y-124913713D01*
X43149500Y-125126286D01*
X43181581Y-125328842D01*
X43182754Y-125336243D01*
X43230601Y-125483501D01*
X43248444Y-125538414D01*
X43344951Y-125727820D01*
X43469890Y-125899786D01*
X43620213Y-126050109D01*
X43792182Y-126175050D01*
X43800946Y-126179516D01*
X43851742Y-126227491D01*
X43868536Y-126295312D01*
X43845998Y-126361447D01*
X43800946Y-126400484D01*
X43792182Y-126404949D01*
X43620213Y-126529890D01*
X43469890Y-126680213D01*
X43344951Y-126852179D01*
X43248444Y-127041585D01*
X43182753Y-127243760D01*
X43149500Y-127453713D01*
X43149500Y-127666286D01*
X43182753Y-127876239D01*
X43248444Y-128078414D01*
X43344951Y-128267820D01*
X43469890Y-128439786D01*
X43620213Y-128590109D01*
X43792182Y-128715050D01*
X43800946Y-128719516D01*
X43851742Y-128767491D01*
X43868536Y-128835312D01*
X43845998Y-128901447D01*
X43800946Y-128940484D01*
X43792182Y-128944949D01*
X43620213Y-129069890D01*
X43469890Y-129220213D01*
X43344951Y-129392179D01*
X43248444Y-129581585D01*
X43182753Y-129783760D01*
X43149500Y-129993713D01*
X43149500Y-130206286D01*
X43182735Y-130416127D01*
X43182754Y-130416243D01*
X43232558Y-130569524D01*
X43248444Y-130618414D01*
X43344951Y-130807820D01*
X43469890Y-130979786D01*
X43620213Y-131130109D01*
X43792179Y-131255048D01*
X43792181Y-131255049D01*
X43792184Y-131255051D01*
X43981588Y-131351557D01*
X44183757Y-131417246D01*
X44393713Y-131450500D01*
X44393714Y-131450500D01*
X44606286Y-131450500D01*
X44606287Y-131450500D01*
X44816243Y-131417246D01*
X45018412Y-131351557D01*
X45207816Y-131255051D01*
X45263073Y-131214905D01*
X45379786Y-131130109D01*
X45379788Y-131130106D01*
X45379792Y-131130104D01*
X45530104Y-130979792D01*
X45530106Y-130979788D01*
X45530109Y-130979786D01*
X45597515Y-130887007D01*
X45655051Y-130807816D01*
X45659793Y-130798508D01*
X45707763Y-130747711D01*
X45775583Y-130730911D01*
X45841719Y-130753445D01*
X45880763Y-130798500D01*
X45885373Y-130807547D01*
X45924728Y-130861716D01*
X46557037Y-130229408D01*
X46574075Y-130292993D01*
X46639901Y-130407007D01*
X46732993Y-130500099D01*
X46847007Y-130565925D01*
X46910590Y-130582962D01*
X46278282Y-131215269D01*
X46278282Y-131215270D01*
X46332449Y-131254624D01*
X46521782Y-131351095D01*
X46723870Y-131416757D01*
X46933754Y-131450000D01*
X47146246Y-131450000D01*
X47356127Y-131416757D01*
X47356130Y-131416757D01*
X47558217Y-131351095D01*
X47747554Y-131254622D01*
X47801716Y-131215270D01*
X47801717Y-131215270D01*
X47491960Y-130905513D01*
X60719500Y-130905513D01*
X60719500Y-131094486D01*
X60749059Y-131281118D01*
X60807454Y-131460836D01*
X60845243Y-131535000D01*
X60893240Y-131629199D01*
X61004310Y-131782073D01*
X61137927Y-131915690D01*
X61290801Y-132026760D01*
X61370347Y-132067290D01*
X61459163Y-132112545D01*
X61459165Y-132112545D01*
X61459168Y-132112547D01*
X61547494Y-132141246D01*
X61638881Y-132170940D01*
X61825514Y-132200500D01*
X61825519Y-132200500D01*
X62014486Y-132200500D01*
X62201118Y-132170940D01*
X62202623Y-132170451D01*
X62380832Y-132112547D01*
X62549199Y-132026760D01*
X62575182Y-132007882D01*
X66345669Y-132007882D01*
X66345670Y-132007883D01*
X66371059Y-132026329D01*
X66539362Y-132112085D01*
X66718997Y-132170451D01*
X66905553Y-132200000D01*
X67094447Y-132200000D01*
X67281002Y-132170451D01*
X67460637Y-132112085D01*
X67628937Y-132026331D01*
X67654328Y-132007883D01*
X67654328Y-132007882D01*
X67000001Y-131353554D01*
X67000000Y-131353554D01*
X66345669Y-132007882D01*
X62575182Y-132007882D01*
X62702073Y-131915690D01*
X62835690Y-131782073D01*
X62946760Y-131629199D01*
X63032547Y-131460832D01*
X63090940Y-131281118D01*
X63095136Y-131254624D01*
X63120500Y-131094486D01*
X63120500Y-130905552D01*
X65800000Y-130905552D01*
X65800000Y-131094447D01*
X65829548Y-131281002D01*
X65887914Y-131460637D01*
X65973666Y-131628933D01*
X65992116Y-131654328D01*
X66646446Y-131000000D01*
X66646446Y-130999999D01*
X66600369Y-130953922D01*
X66650000Y-130953922D01*
X66650000Y-131046078D01*
X66673852Y-131135095D01*
X66719930Y-131214905D01*
X66785095Y-131280070D01*
X66864905Y-131326148D01*
X66953922Y-131350000D01*
X67046078Y-131350000D01*
X67135095Y-131326148D01*
X67214905Y-131280070D01*
X67280070Y-131214905D01*
X67326148Y-131135095D01*
X67350000Y-131046078D01*
X67350000Y-130999999D01*
X67353554Y-130999999D01*
X67353554Y-131000000D01*
X68007882Y-131654328D01*
X68007883Y-131654328D01*
X68026331Y-131628937D01*
X68112085Y-131460637D01*
X68170451Y-131281002D01*
X68200000Y-131094447D01*
X68200000Y-130905552D01*
X68170451Y-130718997D01*
X68112085Y-130539362D01*
X68026329Y-130371059D01*
X68007883Y-130345670D01*
X68007882Y-130345669D01*
X67353554Y-130999999D01*
X67350000Y-130999999D01*
X67350000Y-130953922D01*
X67326148Y-130864905D01*
X67280070Y-130785095D01*
X67214905Y-130719930D01*
X67135095Y-130673852D01*
X67046078Y-130650000D01*
X66953922Y-130650000D01*
X66864905Y-130673852D01*
X66785095Y-130719930D01*
X66719930Y-130785095D01*
X66673852Y-130864905D01*
X66650000Y-130953922D01*
X66600369Y-130953922D01*
X65992116Y-130345669D01*
X65992116Y-130345670D01*
X65973669Y-130371060D01*
X65887914Y-130539362D01*
X65829548Y-130718997D01*
X65800000Y-130905552D01*
X63120500Y-130905552D01*
X63120500Y-130905513D01*
X63090940Y-130718881D01*
X63032545Y-130539163D01*
X62969856Y-130416130D01*
X62946760Y-130370801D01*
X62835690Y-130217927D01*
X62702073Y-130084310D01*
X62575179Y-129992116D01*
X66345669Y-129992116D01*
X67000000Y-130646446D01*
X67000001Y-130646446D01*
X67654328Y-129992116D01*
X67628933Y-129973666D01*
X67460637Y-129887914D01*
X67281002Y-129829548D01*
X67094447Y-129800000D01*
X66905553Y-129800000D01*
X66718997Y-129829548D01*
X66539362Y-129887914D01*
X66371060Y-129973669D01*
X66345670Y-129992116D01*
X66345669Y-129992116D01*
X62575179Y-129992116D01*
X62549199Y-129973240D01*
X62380836Y-129887454D01*
X62201118Y-129829059D01*
X62014486Y-129799500D01*
X62014481Y-129799500D01*
X61825519Y-129799500D01*
X61825514Y-129799500D01*
X61638881Y-129829059D01*
X61459163Y-129887454D01*
X61290800Y-129973240D01*
X61262622Y-129993713D01*
X61137927Y-130084310D01*
X61137925Y-130084312D01*
X61137924Y-130084312D01*
X61004312Y-130217924D01*
X61004312Y-130217925D01*
X61004310Y-130217927D01*
X60956610Y-130283579D01*
X60893240Y-130370800D01*
X60807454Y-130539163D01*
X60749059Y-130718881D01*
X60719500Y-130905513D01*
X47491960Y-130905513D01*
X47169408Y-130582962D01*
X47232993Y-130565925D01*
X47347007Y-130500099D01*
X47440099Y-130407007D01*
X47505925Y-130292993D01*
X47522962Y-130229408D01*
X48155270Y-130861717D01*
X48155272Y-130861716D01*
X48179939Y-130827765D01*
X48179941Y-130827762D01*
X48194623Y-130807553D01*
X48291095Y-130618217D01*
X48356757Y-130416130D01*
X48356757Y-130416127D01*
X48390000Y-130206246D01*
X48390000Y-129993753D01*
X48356757Y-129783872D01*
X48356757Y-129783869D01*
X48291095Y-129581782D01*
X48225480Y-129453006D01*
X48199275Y-129401577D01*
X52749500Y-129401577D01*
X52749500Y-129598422D01*
X52780290Y-129792826D01*
X52841117Y-129980029D01*
X52902245Y-130099999D01*
X52930476Y-130155405D01*
X53046172Y-130314646D01*
X53185354Y-130453828D01*
X53344595Y-130569524D01*
X53404408Y-130600000D01*
X53519970Y-130658882D01*
X53519972Y-130658882D01*
X53519975Y-130658884D01*
X53618534Y-130690908D01*
X53707173Y-130719709D01*
X53901578Y-130750500D01*
X53901583Y-130750500D01*
X54098422Y-130750500D01*
X54292826Y-130719709D01*
X54349664Y-130701241D01*
X54480025Y-130658884D01*
X54655405Y-130569524D01*
X54814646Y-130453828D01*
X54953828Y-130314646D01*
X55069524Y-130155405D01*
X55158884Y-129980025D01*
X55219709Y-129792826D01*
X55234427Y-129699901D01*
X55250500Y-129598422D01*
X55250500Y-129401577D01*
X56149500Y-129401577D01*
X56149500Y-129598422D01*
X56180290Y-129792826D01*
X56241117Y-129980029D01*
X56302245Y-130099999D01*
X56330476Y-130155405D01*
X56446172Y-130314646D01*
X56585354Y-130453828D01*
X56744595Y-130569524D01*
X56804408Y-130600000D01*
X56919970Y-130658882D01*
X56919972Y-130658882D01*
X56919975Y-130658884D01*
X57018534Y-130690908D01*
X57107173Y-130719709D01*
X57301578Y-130750500D01*
X57301583Y-130750500D01*
X57498422Y-130750500D01*
X57692826Y-130719709D01*
X57749664Y-130701241D01*
X57880025Y-130658884D01*
X58055405Y-130569524D01*
X58214646Y-130453828D01*
X58353828Y-130314646D01*
X58469524Y-130155405D01*
X58558884Y-129980025D01*
X58619709Y-129792826D01*
X58634427Y-129699901D01*
X58650500Y-129598422D01*
X58650500Y-129401577D01*
X58619709Y-129207173D01*
X58558882Y-129019970D01*
X58486160Y-128877246D01*
X58469524Y-128844595D01*
X58353828Y-128685354D01*
X58214646Y-128546172D01*
X58055405Y-128430476D01*
X57880029Y-128341117D01*
X57692826Y-128280290D01*
X57498422Y-128249500D01*
X57498417Y-128249500D01*
X57301583Y-128249500D01*
X57301578Y-128249500D01*
X57107173Y-128280290D01*
X56919970Y-128341117D01*
X56744594Y-128430476D01*
X56653741Y-128496485D01*
X56585354Y-128546172D01*
X56585352Y-128546174D01*
X56585351Y-128546174D01*
X56446174Y-128685351D01*
X56446174Y-128685352D01*
X56446172Y-128685354D01*
X56396485Y-128753741D01*
X56330476Y-128844594D01*
X56241117Y-129019970D01*
X56180290Y-129207173D01*
X56149500Y-129401577D01*
X55250500Y-129401577D01*
X55219709Y-129207173D01*
X55158882Y-129019970D01*
X55086160Y-128877246D01*
X55069524Y-128844595D01*
X54953828Y-128685354D01*
X54814646Y-128546172D01*
X54655405Y-128430476D01*
X54480029Y-128341117D01*
X54292826Y-128280290D01*
X54098422Y-128249500D01*
X54098417Y-128249500D01*
X53901583Y-128249500D01*
X53901578Y-128249500D01*
X53707173Y-128280290D01*
X53519970Y-128341117D01*
X53344594Y-128430476D01*
X53253741Y-128496485D01*
X53185354Y-128546172D01*
X53185352Y-128546174D01*
X53185351Y-128546174D01*
X53046174Y-128685351D01*
X53046174Y-128685352D01*
X53046172Y-128685354D01*
X52996485Y-128753741D01*
X52930476Y-128844594D01*
X52841117Y-129019970D01*
X52780290Y-129207173D01*
X52749500Y-129401577D01*
X48199275Y-129401577D01*
X48194624Y-129392449D01*
X48155270Y-129338282D01*
X48155269Y-129338282D01*
X47522962Y-129970590D01*
X47505925Y-129907007D01*
X47440099Y-129792993D01*
X47347007Y-129699901D01*
X47232993Y-129634075D01*
X47169409Y-129617037D01*
X47801716Y-128984728D01*
X47747547Y-128945373D01*
X47747547Y-128945372D01*
X47738500Y-128940763D01*
X47687706Y-128892788D01*
X47670912Y-128824966D01*
X47693451Y-128758832D01*
X47738508Y-128719793D01*
X47747816Y-128715051D01*
X47827007Y-128657515D01*
X47919786Y-128590109D01*
X47919788Y-128590106D01*
X47919792Y-128590104D01*
X48070104Y-128439792D01*
X48070106Y-128439788D01*
X48070109Y-128439786D01*
X48195048Y-128267820D01*
X48195047Y-128267820D01*
X48195051Y-128267816D01*
X48291557Y-128078412D01*
X48357246Y-127876243D01*
X48390500Y-127666287D01*
X48390500Y-127453713D01*
X48357246Y-127243757D01*
X48333870Y-127171816D01*
X48331876Y-127101977D01*
X48367956Y-127042144D01*
X48430657Y-127011316D01*
X48451802Y-127009500D01*
X57734331Y-127009500D01*
X57734347Y-127009501D01*
X57741943Y-127009501D01*
X57900054Y-127009501D01*
X57900057Y-127009501D01*
X58052785Y-126968577D01*
X58102904Y-126939639D01*
X58189716Y-126889520D01*
X58301520Y-126777716D01*
X58301520Y-126777714D01*
X58311728Y-126767507D01*
X58311730Y-126767504D01*
X62015478Y-123063755D01*
X62076799Y-123030272D01*
X62141473Y-123033506D01*
X62183757Y-123047246D01*
X62393713Y-123080500D01*
X62393714Y-123080500D01*
X62606286Y-123080500D01*
X62606287Y-123080500D01*
X62816243Y-123047246D01*
X63018412Y-122981557D01*
X63207816Y-122885051D01*
X63330051Y-122796243D01*
X63379786Y-122760109D01*
X63379788Y-122760106D01*
X63379792Y-122760104D01*
X63530104Y-122609792D01*
X63530106Y-122609788D01*
X63530109Y-122609786D01*
X63590431Y-122526759D01*
X63604146Y-122507882D01*
X76355669Y-122507882D01*
X76355670Y-122507883D01*
X76381059Y-122526329D01*
X76549362Y-122612085D01*
X76728997Y-122670451D01*
X76915553Y-122700000D01*
X77104447Y-122700000D01*
X77291002Y-122670451D01*
X77470637Y-122612085D01*
X77638937Y-122526331D01*
X77664328Y-122507883D01*
X77664328Y-122507882D01*
X77010001Y-121853554D01*
X77010000Y-121853554D01*
X76355669Y-122507882D01*
X63604146Y-122507882D01*
X63655051Y-122437816D01*
X63751557Y-122248412D01*
X63817246Y-122046243D01*
X63850500Y-121836287D01*
X63850500Y-121623713D01*
X63817246Y-121413757D01*
X63814580Y-121405552D01*
X75810000Y-121405552D01*
X75810000Y-121594447D01*
X75839548Y-121781002D01*
X75897914Y-121960637D01*
X75983666Y-122128933D01*
X76002116Y-122154328D01*
X76656446Y-121500000D01*
X76656446Y-121499999D01*
X76610369Y-121453922D01*
X76660000Y-121453922D01*
X76660000Y-121546078D01*
X76683852Y-121635095D01*
X76729930Y-121714905D01*
X76795095Y-121780070D01*
X76874905Y-121826148D01*
X76963922Y-121850000D01*
X77056078Y-121850000D01*
X77145095Y-121826148D01*
X77224905Y-121780070D01*
X77290070Y-121714905D01*
X77336148Y-121635095D01*
X77360000Y-121546078D01*
X77360000Y-121499999D01*
X77363554Y-121499999D01*
X77363554Y-121500000D01*
X78017882Y-122154328D01*
X78017883Y-122154328D01*
X78036331Y-122128937D01*
X78122085Y-121960637D01*
X78180451Y-121781002D01*
X78210000Y-121594447D01*
X78210000Y-121405552D01*
X78209994Y-121405513D01*
X80889500Y-121405513D01*
X80889500Y-121594486D01*
X80919059Y-121781118D01*
X80977454Y-121960836D01*
X81063104Y-122128933D01*
X81063240Y-122129199D01*
X81174310Y-122282073D01*
X81307927Y-122415690D01*
X81460801Y-122526760D01*
X81527098Y-122560540D01*
X81629163Y-122612545D01*
X81629165Y-122612545D01*
X81629168Y-122612547D01*
X81699133Y-122635280D01*
X81808881Y-122670940D01*
X81995514Y-122700500D01*
X81995519Y-122700500D01*
X82184486Y-122700500D01*
X82371118Y-122670940D01*
X82372623Y-122670451D01*
X82550832Y-122612547D01*
X82719199Y-122526760D01*
X82872073Y-122415690D01*
X83005690Y-122282073D01*
X83116760Y-122129199D01*
X83202547Y-121960832D01*
X83260940Y-121781118D01*
X83274097Y-121698047D01*
X83290500Y-121594486D01*
X83290500Y-121405513D01*
X83260940Y-121218881D01*
X83222245Y-121099793D01*
X83202547Y-121039168D01*
X83202545Y-121039165D01*
X83202545Y-121039163D01*
X83118386Y-120873993D01*
X83116760Y-120870801D01*
X83005690Y-120717927D01*
X82872073Y-120584310D01*
X82719199Y-120473240D01*
X82550836Y-120387454D01*
X82371118Y-120329059D01*
X82184486Y-120299500D01*
X82184481Y-120299500D01*
X81995519Y-120299500D01*
X81995514Y-120299500D01*
X81808881Y-120329059D01*
X81629163Y-120387454D01*
X81460800Y-120473240D01*
X81404438Y-120514190D01*
X81307927Y-120584310D01*
X81307925Y-120584312D01*
X81307924Y-120584312D01*
X81174312Y-120717924D01*
X81174312Y-120717925D01*
X81174310Y-120717927D01*
X81145425Y-120757684D01*
X81063240Y-120870800D01*
X80977454Y-121039163D01*
X80919059Y-121218881D01*
X80889500Y-121405513D01*
X78209994Y-121405513D01*
X78180451Y-121218997D01*
X78122085Y-121039362D01*
X78036329Y-120871059D01*
X78017883Y-120845670D01*
X78017882Y-120845669D01*
X77363554Y-121499999D01*
X77360000Y-121499999D01*
X77360000Y-121453922D01*
X77336148Y-121364905D01*
X77290070Y-121285095D01*
X77224905Y-121219930D01*
X77145095Y-121173852D01*
X77056078Y-121150000D01*
X76963922Y-121150000D01*
X76874905Y-121173852D01*
X76795095Y-121219930D01*
X76729930Y-121285095D01*
X76683852Y-121364905D01*
X76660000Y-121453922D01*
X76610369Y-121453922D01*
X76002116Y-120845669D01*
X76002116Y-120845670D01*
X75983669Y-120871060D01*
X75897914Y-121039362D01*
X75839548Y-121218997D01*
X75810000Y-121405552D01*
X63814580Y-121405552D01*
X63751557Y-121211588D01*
X63655051Y-121022184D01*
X63655049Y-121022181D01*
X63655048Y-121022179D01*
X63530109Y-120850213D01*
X63379792Y-120699896D01*
X63367059Y-120690645D01*
X63207816Y-120574949D01*
X63191579Y-120566676D01*
X63184689Y-120561898D01*
X63167806Y-120540973D01*
X63148259Y-120522512D01*
X63146198Y-120514190D01*
X63140816Y-120507520D01*
X63139151Y-120492116D01*
X76355669Y-120492116D01*
X77010000Y-121146446D01*
X77010001Y-121146446D01*
X77664328Y-120492116D01*
X77638933Y-120473666D01*
X77470637Y-120387914D01*
X77291002Y-120329548D01*
X77104447Y-120300000D01*
X76915553Y-120300000D01*
X76728997Y-120329548D01*
X76549362Y-120387914D01*
X76381060Y-120473669D01*
X76355670Y-120492116D01*
X76355669Y-120492116D01*
X63139151Y-120492116D01*
X63137926Y-120480788D01*
X63131463Y-120454692D01*
X63134227Y-120446578D01*
X63133306Y-120438055D01*
X63145327Y-120414003D01*
X63153999Y-120388556D01*
X63161139Y-120382368D01*
X63164544Y-120375558D01*
X63178718Y-120367136D01*
X63199054Y-120349515D01*
X63207816Y-120345051D01*
X63330051Y-120256243D01*
X63379786Y-120220109D01*
X63379788Y-120220106D01*
X63379792Y-120220104D01*
X63530104Y-120069792D01*
X63530106Y-120069788D01*
X63530109Y-120069786D01*
X63655048Y-119897820D01*
X63655047Y-119897820D01*
X63655051Y-119897816D01*
X63751557Y-119708412D01*
X63817246Y-119506243D01*
X63840744Y-119357882D01*
X76355669Y-119357882D01*
X76355670Y-119357883D01*
X76381059Y-119376329D01*
X76549362Y-119462085D01*
X76728997Y-119520451D01*
X76915553Y-119550000D01*
X77104447Y-119550000D01*
X77291002Y-119520451D01*
X77470637Y-119462085D01*
X77638937Y-119376331D01*
X77664328Y-119357883D01*
X77664328Y-119357882D01*
X77010001Y-118703554D01*
X77010000Y-118703554D01*
X76355669Y-119357882D01*
X63840744Y-119357882D01*
X63850500Y-119296287D01*
X63850500Y-119083713D01*
X63817246Y-118873757D01*
X63751557Y-118671588D01*
X63655051Y-118482184D01*
X63592492Y-118396078D01*
X63539813Y-118323571D01*
X63539812Y-118323570D01*
X63530105Y-118310209D01*
X63475448Y-118255552D01*
X75810000Y-118255552D01*
X75810000Y-118444447D01*
X75839548Y-118631002D01*
X75897914Y-118810637D01*
X75983666Y-118978933D01*
X76002116Y-119004328D01*
X76656446Y-118350000D01*
X76656446Y-118349999D01*
X76610369Y-118303922D01*
X76660000Y-118303922D01*
X76660000Y-118396078D01*
X76683852Y-118485095D01*
X76729930Y-118564905D01*
X76795095Y-118630070D01*
X76874905Y-118676148D01*
X76963922Y-118700000D01*
X77056078Y-118700000D01*
X77145095Y-118676148D01*
X77224905Y-118630070D01*
X77290070Y-118564905D01*
X77336148Y-118485095D01*
X77360000Y-118396078D01*
X77360000Y-118349999D01*
X77363554Y-118349999D01*
X77363554Y-118350000D01*
X78017882Y-119004328D01*
X78017883Y-119004328D01*
X78036331Y-118978937D01*
X78122085Y-118810637D01*
X78180451Y-118631002D01*
X78210000Y-118444447D01*
X78210000Y-118255552D01*
X78209994Y-118255513D01*
X80889500Y-118255513D01*
X80889500Y-118444486D01*
X80919059Y-118631118D01*
X80977454Y-118810836D01*
X81033466Y-118920765D01*
X81063240Y-118979199D01*
X81174310Y-119132073D01*
X81307927Y-119265690D01*
X81460801Y-119376760D01*
X81503751Y-119398644D01*
X81629163Y-119462545D01*
X81629165Y-119462545D01*
X81629168Y-119462547D01*
X81725497Y-119493846D01*
X81808881Y-119520940D01*
X81995514Y-119550500D01*
X81995519Y-119550500D01*
X82184486Y-119550500D01*
X82371118Y-119520940D01*
X82416350Y-119506243D01*
X82550832Y-119462547D01*
X82719199Y-119376760D01*
X82872073Y-119265690D01*
X83005690Y-119132073D01*
X83116760Y-118979199D01*
X83202547Y-118810832D01*
X83260940Y-118631118D01*
X83271427Y-118564905D01*
X83290500Y-118444486D01*
X83290500Y-118255513D01*
X83260940Y-118068881D01*
X83233846Y-117985497D01*
X83202547Y-117889168D01*
X83202545Y-117889165D01*
X83202545Y-117889163D01*
X83133448Y-117753554D01*
X83116760Y-117720801D01*
X83005690Y-117567927D01*
X82872073Y-117434310D01*
X82719199Y-117323240D01*
X82550836Y-117237454D01*
X82371118Y-117179059D01*
X82184486Y-117149500D01*
X82184481Y-117149500D01*
X81995519Y-117149500D01*
X81995514Y-117149500D01*
X81808881Y-117179059D01*
X81629163Y-117237454D01*
X81460800Y-117323240D01*
X81373579Y-117386610D01*
X81307927Y-117434310D01*
X81307925Y-117434312D01*
X81307924Y-117434312D01*
X81174312Y-117567924D01*
X81174312Y-117567925D01*
X81174310Y-117567927D01*
X81126610Y-117633579D01*
X81063240Y-117720800D01*
X80977454Y-117889163D01*
X80919059Y-118068881D01*
X80889500Y-118255513D01*
X78209994Y-118255513D01*
X78180451Y-118068997D01*
X78122085Y-117889362D01*
X78036329Y-117721059D01*
X78017883Y-117695670D01*
X78017882Y-117695669D01*
X77363554Y-118349999D01*
X77360000Y-118349999D01*
X77360000Y-118303922D01*
X77336148Y-118214905D01*
X77290070Y-118135095D01*
X77224905Y-118069930D01*
X77145095Y-118023852D01*
X77056078Y-118000000D01*
X76963922Y-118000000D01*
X76874905Y-118023852D01*
X76795095Y-118069930D01*
X76729930Y-118135095D01*
X76683852Y-118214905D01*
X76660000Y-118303922D01*
X76610369Y-118303922D01*
X76002116Y-117695669D01*
X76002116Y-117695670D01*
X75983669Y-117721060D01*
X75897914Y-117889362D01*
X75839548Y-118068997D01*
X75810000Y-118255552D01*
X63475448Y-118255552D01*
X63379786Y-118159890D01*
X63207820Y-118034951D01*
X63207115Y-118034591D01*
X63199054Y-118030485D01*
X63148259Y-117982512D01*
X63131463Y-117914692D01*
X63153999Y-117848556D01*
X63199054Y-117809515D01*
X63207816Y-117805051D01*
X63323422Y-117721059D01*
X63379786Y-117680109D01*
X63379788Y-117680106D01*
X63379792Y-117680104D01*
X63530104Y-117529792D01*
X63530106Y-117529788D01*
X63530109Y-117529786D01*
X63655048Y-117357820D01*
X63655047Y-117357820D01*
X63655051Y-117357816D01*
X63663051Y-117342116D01*
X76355669Y-117342116D01*
X77010000Y-117996446D01*
X77010001Y-117996446D01*
X77664328Y-117342116D01*
X77638933Y-117323666D01*
X77470637Y-117237914D01*
X77291002Y-117179548D01*
X77104447Y-117150000D01*
X76915553Y-117150000D01*
X76728997Y-117179548D01*
X76549362Y-117237914D01*
X76381060Y-117323669D01*
X76355670Y-117342116D01*
X76355669Y-117342116D01*
X63663051Y-117342116D01*
X63751557Y-117168412D01*
X63817246Y-116966243D01*
X63850500Y-116756287D01*
X63850500Y-116543713D01*
X63817246Y-116333757D01*
X63776347Y-116207882D01*
X76355669Y-116207882D01*
X76355670Y-116207883D01*
X76381059Y-116226329D01*
X76549362Y-116312085D01*
X76728997Y-116370451D01*
X76915553Y-116400000D01*
X77104447Y-116400000D01*
X77291002Y-116370451D01*
X77470637Y-116312085D01*
X77638937Y-116226331D01*
X77664328Y-116207883D01*
X77664328Y-116207882D01*
X77010001Y-115553554D01*
X77010000Y-115553554D01*
X76355669Y-116207882D01*
X63776347Y-116207882D01*
X63751557Y-116131588D01*
X63655051Y-115942184D01*
X63655049Y-115942181D01*
X63655048Y-115942179D01*
X63530109Y-115770213D01*
X63379786Y-115619890D01*
X63207820Y-115494951D01*
X63200974Y-115491463D01*
X63199054Y-115490485D01*
X63148259Y-115442512D01*
X63131463Y-115374692D01*
X63153999Y-115308556D01*
X63199054Y-115269515D01*
X63207816Y-115265051D01*
X63297353Y-115199999D01*
X63379786Y-115140109D01*
X63379788Y-115140106D01*
X63379792Y-115140104D01*
X63414344Y-115105552D01*
X75810000Y-115105552D01*
X75810000Y-115294447D01*
X75839548Y-115481002D01*
X75897914Y-115660637D01*
X75983666Y-115828933D01*
X76002116Y-115854328D01*
X76656446Y-115200000D01*
X76656446Y-115199999D01*
X76610369Y-115153922D01*
X76660000Y-115153922D01*
X76660000Y-115246078D01*
X76683852Y-115335095D01*
X76729930Y-115414905D01*
X76795095Y-115480070D01*
X76874905Y-115526148D01*
X76963922Y-115550000D01*
X77056078Y-115550000D01*
X77145095Y-115526148D01*
X77224905Y-115480070D01*
X77290070Y-115414905D01*
X77336148Y-115335095D01*
X77360000Y-115246078D01*
X77360000Y-115199999D01*
X77363554Y-115199999D01*
X77363554Y-115200000D01*
X78017882Y-115854328D01*
X78017883Y-115854328D01*
X78036331Y-115828937D01*
X78122085Y-115660637D01*
X78180451Y-115481002D01*
X78210000Y-115294447D01*
X78210000Y-115105552D01*
X78209994Y-115105513D01*
X80889500Y-115105513D01*
X80889500Y-115294486D01*
X80919059Y-115481118D01*
X80977454Y-115660836D01*
X81033185Y-115770213D01*
X81063240Y-115829199D01*
X81174310Y-115982073D01*
X81307927Y-116115690D01*
X81460801Y-116226760D01*
X81497345Y-116245380D01*
X81629163Y-116312545D01*
X81629165Y-116312545D01*
X81629168Y-116312547D01*
X81697594Y-116334780D01*
X81808881Y-116370940D01*
X81995514Y-116400500D01*
X81995519Y-116400500D01*
X82184486Y-116400500D01*
X82371118Y-116370940D01*
X82374350Y-116369890D01*
X82550832Y-116312547D01*
X82719199Y-116226760D01*
X82872073Y-116115690D01*
X83005690Y-115982073D01*
X83116760Y-115829199D01*
X83202547Y-115660832D01*
X83260940Y-115481118D01*
X83270317Y-115421914D01*
X83290500Y-115294486D01*
X83290500Y-115105513D01*
X83260940Y-114918881D01*
X83228101Y-114817816D01*
X83202547Y-114739168D01*
X83202545Y-114739165D01*
X83202545Y-114739163D01*
X83133334Y-114603329D01*
X83116760Y-114570801D01*
X83005690Y-114417927D01*
X82872073Y-114284310D01*
X82719199Y-114173240D01*
X82679046Y-114152781D01*
X82550836Y-114087454D01*
X82371118Y-114029059D01*
X82184486Y-113999500D01*
X82184481Y-113999500D01*
X81995519Y-113999500D01*
X81995514Y-113999500D01*
X81808881Y-114029059D01*
X81629163Y-114087454D01*
X81460800Y-114173240D01*
X81396473Y-114219977D01*
X81307927Y-114284310D01*
X81307925Y-114284312D01*
X81307924Y-114284312D01*
X81174312Y-114417924D01*
X81174312Y-114417925D01*
X81174310Y-114417927D01*
X81130968Y-114477582D01*
X81063240Y-114570800D01*
X80977454Y-114739163D01*
X80919059Y-114918881D01*
X80889500Y-115105513D01*
X78209994Y-115105513D01*
X78180451Y-114918997D01*
X78122085Y-114739362D01*
X78036329Y-114571059D01*
X78017883Y-114545670D01*
X78017882Y-114545669D01*
X77363554Y-115199999D01*
X77360000Y-115199999D01*
X77360000Y-115153922D01*
X77336148Y-115064905D01*
X77290070Y-114985095D01*
X77224905Y-114919930D01*
X77145095Y-114873852D01*
X77056078Y-114850000D01*
X76963922Y-114850000D01*
X76874905Y-114873852D01*
X76795095Y-114919930D01*
X76729930Y-114985095D01*
X76683852Y-115064905D01*
X76660000Y-115153922D01*
X76610369Y-115153922D01*
X76002116Y-114545669D01*
X76002116Y-114545670D01*
X75983669Y-114571060D01*
X75897914Y-114739362D01*
X75839548Y-114918997D01*
X75810000Y-115105552D01*
X63414344Y-115105552D01*
X63530104Y-114989792D01*
X63530106Y-114989788D01*
X63530109Y-114989786D01*
X63655048Y-114817820D01*
X63655047Y-114817820D01*
X63655051Y-114817816D01*
X63751557Y-114628412D01*
X63817246Y-114426243D01*
X63850500Y-114216287D01*
X63850500Y-114192116D01*
X76355669Y-114192116D01*
X77010000Y-114846446D01*
X77010001Y-114846446D01*
X77664328Y-114192116D01*
X77638933Y-114173666D01*
X77470637Y-114087914D01*
X77291002Y-114029548D01*
X77104447Y-114000000D01*
X76915553Y-114000000D01*
X76728997Y-114029548D01*
X76549362Y-114087914D01*
X76381060Y-114173669D01*
X76355670Y-114192116D01*
X76355669Y-114192116D01*
X63850500Y-114192116D01*
X63850500Y-114003713D01*
X63817246Y-113793757D01*
X63751557Y-113591588D01*
X63655051Y-113402184D01*
X63655049Y-113402181D01*
X63655048Y-113402179D01*
X63530109Y-113230213D01*
X63379786Y-113079890D01*
X63349494Y-113057882D01*
X76355669Y-113057882D01*
X76355670Y-113057883D01*
X76381059Y-113076329D01*
X76549362Y-113162085D01*
X76728997Y-113220451D01*
X76915553Y-113250000D01*
X77104447Y-113250000D01*
X77291002Y-113220451D01*
X77470637Y-113162085D01*
X77638937Y-113076331D01*
X77664328Y-113057883D01*
X77664328Y-113057882D01*
X77010001Y-112403554D01*
X77010000Y-112403554D01*
X76355669Y-113057882D01*
X63349494Y-113057882D01*
X63207820Y-112954951D01*
X63207115Y-112954591D01*
X63199054Y-112950485D01*
X63148259Y-112902512D01*
X63131463Y-112834692D01*
X63153999Y-112768556D01*
X63199054Y-112729515D01*
X63207816Y-112725051D01*
X63236339Y-112704328D01*
X63379786Y-112600109D01*
X63379788Y-112600106D01*
X63379792Y-112600104D01*
X63530104Y-112449792D01*
X63530106Y-112449788D01*
X63530109Y-112449786D01*
X63655048Y-112277820D01*
X63655047Y-112277820D01*
X63655051Y-112277816D01*
X63751557Y-112088412D01*
X63794726Y-111955552D01*
X75810000Y-111955552D01*
X75810000Y-112144447D01*
X75839548Y-112331002D01*
X75897914Y-112510637D01*
X75983666Y-112678933D01*
X76002116Y-112704328D01*
X76656446Y-112050000D01*
X76656446Y-112049999D01*
X76610369Y-112003922D01*
X76660000Y-112003922D01*
X76660000Y-112096078D01*
X76683852Y-112185095D01*
X76729930Y-112264905D01*
X76795095Y-112330070D01*
X76874905Y-112376148D01*
X76963922Y-112400000D01*
X77056078Y-112400000D01*
X77145095Y-112376148D01*
X77224905Y-112330070D01*
X77290070Y-112264905D01*
X77336148Y-112185095D01*
X77360000Y-112096078D01*
X77360000Y-112049999D01*
X77363554Y-112049999D01*
X77363554Y-112050000D01*
X78017882Y-112704328D01*
X78017883Y-112704328D01*
X78036331Y-112678937D01*
X78122085Y-112510637D01*
X78180451Y-112331002D01*
X78210000Y-112144447D01*
X78210000Y-111955552D01*
X78209994Y-111955513D01*
X80889500Y-111955513D01*
X80889500Y-112144486D01*
X80919059Y-112331118D01*
X80977454Y-112510836D01*
X81036647Y-112627007D01*
X81063240Y-112679199D01*
X81174310Y-112832073D01*
X81307927Y-112965690D01*
X81460801Y-113076760D01*
X81540347Y-113117290D01*
X81629163Y-113162545D01*
X81629165Y-113162545D01*
X81629168Y-113162547D01*
X81676980Y-113178082D01*
X81808881Y-113220940D01*
X81995514Y-113250500D01*
X81995519Y-113250500D01*
X82184486Y-113250500D01*
X82371118Y-113220940D01*
X82436204Y-113199792D01*
X82550832Y-113162547D01*
X82719199Y-113076760D01*
X82872073Y-112965690D01*
X83005690Y-112832073D01*
X83116760Y-112679199D01*
X83202547Y-112510832D01*
X83260940Y-112331118D01*
X83262719Y-112319886D01*
X83290500Y-112144486D01*
X83290500Y-111955513D01*
X83260940Y-111768881D01*
X83212251Y-111619034D01*
X83202547Y-111589168D01*
X83202545Y-111589165D01*
X83202545Y-111589163D01*
X83140823Y-111468028D01*
X83116760Y-111420801D01*
X83005690Y-111267927D01*
X82872073Y-111134310D01*
X82719199Y-111023240D01*
X82550836Y-110937454D01*
X82371118Y-110879059D01*
X82184486Y-110849500D01*
X82184481Y-110849500D01*
X81995519Y-110849500D01*
X81995514Y-110849500D01*
X81808881Y-110879059D01*
X81629163Y-110937454D01*
X81460800Y-111023240D01*
X81383345Y-111079515D01*
X81307927Y-111134310D01*
X81307925Y-111134312D01*
X81307924Y-111134312D01*
X81174312Y-111267924D01*
X81174312Y-111267925D01*
X81174310Y-111267927D01*
X81167563Y-111277214D01*
X81063240Y-111420800D01*
X80977454Y-111589163D01*
X80919059Y-111768881D01*
X80889500Y-111955513D01*
X78209994Y-111955513D01*
X78180451Y-111768997D01*
X78122085Y-111589362D01*
X78036329Y-111421059D01*
X78017883Y-111395670D01*
X78017882Y-111395669D01*
X77363554Y-112049999D01*
X77360000Y-112049999D01*
X77360000Y-112003922D01*
X77336148Y-111914905D01*
X77290070Y-111835095D01*
X77224905Y-111769930D01*
X77145095Y-111723852D01*
X77056078Y-111700000D01*
X76963922Y-111700000D01*
X76874905Y-111723852D01*
X76795095Y-111769930D01*
X76729930Y-111835095D01*
X76683852Y-111914905D01*
X76660000Y-112003922D01*
X76610369Y-112003922D01*
X76002116Y-111395669D01*
X76002116Y-111395670D01*
X75983669Y-111421060D01*
X75897914Y-111589362D01*
X75839548Y-111768997D01*
X75810000Y-111955552D01*
X63794726Y-111955552D01*
X63817246Y-111886243D01*
X63850500Y-111676287D01*
X63850500Y-111463713D01*
X63817246Y-111253757D01*
X63751557Y-111051588D01*
X63751555Y-111051585D01*
X63751555Y-111051583D01*
X63746731Y-111042116D01*
X76355669Y-111042116D01*
X77010000Y-111696446D01*
X77010001Y-111696446D01*
X77664328Y-111042116D01*
X77638933Y-111023666D01*
X77470637Y-110937914D01*
X77291002Y-110879548D01*
X77104447Y-110850000D01*
X76915553Y-110850000D01*
X76728997Y-110879548D01*
X76549362Y-110937914D01*
X76381060Y-111023669D01*
X76355670Y-111042116D01*
X76355669Y-111042116D01*
X63746731Y-111042116D01*
X63663898Y-110879548D01*
X63655051Y-110862184D01*
X63655049Y-110862181D01*
X63655048Y-110862179D01*
X63530109Y-110690213D01*
X63379786Y-110539890D01*
X63207820Y-110414951D01*
X63207115Y-110414591D01*
X63199054Y-110410485D01*
X63148259Y-110362512D01*
X63131463Y-110294692D01*
X63153999Y-110228556D01*
X63199054Y-110189515D01*
X63207816Y-110185051D01*
X63311025Y-110110066D01*
X63379786Y-110060109D01*
X63379788Y-110060106D01*
X63379792Y-110060104D01*
X63530104Y-109909792D01*
X63531491Y-109907882D01*
X76355669Y-109907882D01*
X76355670Y-109907883D01*
X76381059Y-109926329D01*
X76549362Y-110012085D01*
X76728997Y-110070451D01*
X76915553Y-110100000D01*
X77104447Y-110100000D01*
X77291002Y-110070451D01*
X77470637Y-110012085D01*
X77638937Y-109926331D01*
X77664328Y-109907883D01*
X77664328Y-109907882D01*
X77010001Y-109253554D01*
X77010000Y-109253554D01*
X76355669Y-109907882D01*
X63531491Y-109907882D01*
X63536017Y-109901652D01*
X63618782Y-109787738D01*
X63655048Y-109737820D01*
X63655051Y-109737816D01*
X63751557Y-109548412D01*
X63817246Y-109346243D01*
X63850500Y-109136287D01*
X63850500Y-108923713D01*
X63839446Y-108853922D01*
X63834087Y-108820083D01*
X63831785Y-108805552D01*
X75810000Y-108805552D01*
X75810000Y-108994447D01*
X75839548Y-109181002D01*
X75897914Y-109360637D01*
X75983666Y-109528933D01*
X76002116Y-109554328D01*
X76656446Y-108900000D01*
X76656446Y-108899999D01*
X76610369Y-108853922D01*
X76660000Y-108853922D01*
X76660000Y-108946078D01*
X76683852Y-109035095D01*
X76729930Y-109114905D01*
X76795095Y-109180070D01*
X76874905Y-109226148D01*
X76963922Y-109250000D01*
X77056078Y-109250000D01*
X77145095Y-109226148D01*
X77224905Y-109180070D01*
X77290070Y-109114905D01*
X77336148Y-109035095D01*
X77360000Y-108946078D01*
X77360000Y-108899999D01*
X77363554Y-108899999D01*
X77363554Y-108900000D01*
X78017882Y-109554328D01*
X78017883Y-109554328D01*
X78036331Y-109528937D01*
X78122085Y-109360637D01*
X78180451Y-109181002D01*
X78210000Y-108994447D01*
X78210000Y-108805552D01*
X78180451Y-108618997D01*
X78122085Y-108439362D01*
X78036329Y-108271059D01*
X78017883Y-108245670D01*
X78017882Y-108245669D01*
X77363554Y-108899999D01*
X77360000Y-108899999D01*
X77360000Y-108853922D01*
X77336148Y-108764905D01*
X77290070Y-108685095D01*
X77224905Y-108619930D01*
X77145095Y-108573852D01*
X77056078Y-108550000D01*
X76963922Y-108550000D01*
X76874905Y-108573852D01*
X76795095Y-108619930D01*
X76729930Y-108685095D01*
X76683852Y-108764905D01*
X76660000Y-108853922D01*
X76610369Y-108853922D01*
X76002116Y-108245669D01*
X76002116Y-108245670D01*
X75983669Y-108271060D01*
X75897914Y-108439362D01*
X75839548Y-108618997D01*
X75810000Y-108805552D01*
X63831785Y-108805552D01*
X63823809Y-108755193D01*
X63817246Y-108713757D01*
X63751557Y-108511588D01*
X63655051Y-108322184D01*
X63655049Y-108322181D01*
X63655048Y-108322179D01*
X63530109Y-108150213D01*
X63511126Y-108131230D01*
X63506787Y-108123284D01*
X63499540Y-108117859D01*
X63490305Y-108093099D01*
X63477641Y-108069907D01*
X63478286Y-108060877D01*
X63475123Y-108052395D01*
X63480739Y-108026574D01*
X63482625Y-108000215D01*
X63488443Y-107991161D01*
X63489975Y-107984122D01*
X63511126Y-107955868D01*
X63574878Y-107892116D01*
X76355669Y-107892116D01*
X77010000Y-108546446D01*
X77010001Y-108546446D01*
X77664328Y-107892116D01*
X77638933Y-107873666D01*
X77470637Y-107787914D01*
X77291002Y-107729548D01*
X77104447Y-107700000D01*
X76915553Y-107700000D01*
X76728997Y-107729548D01*
X76549362Y-107787914D01*
X76381060Y-107873669D01*
X76355670Y-107892116D01*
X76355669Y-107892116D01*
X63574878Y-107892116D01*
X64859112Y-106607882D01*
X76355669Y-106607882D01*
X76355670Y-106607883D01*
X76381059Y-106626329D01*
X76549362Y-106712085D01*
X76728997Y-106770451D01*
X76915553Y-106800000D01*
X77104447Y-106800000D01*
X77291002Y-106770451D01*
X77470637Y-106712085D01*
X77638937Y-106626331D01*
X77664328Y-106607883D01*
X77664328Y-106607882D01*
X77010001Y-105953554D01*
X77010000Y-105953554D01*
X76355669Y-106607882D01*
X64859112Y-106607882D01*
X65961442Y-105505552D01*
X75810000Y-105505552D01*
X75810000Y-105694447D01*
X75839548Y-105881002D01*
X75897914Y-106060637D01*
X75983666Y-106228933D01*
X76002116Y-106254328D01*
X76656446Y-105600000D01*
X76656446Y-105599999D01*
X76610369Y-105553922D01*
X76660000Y-105553922D01*
X76660000Y-105646078D01*
X76683852Y-105735095D01*
X76729930Y-105814905D01*
X76795095Y-105880070D01*
X76874905Y-105926148D01*
X76963922Y-105950000D01*
X77056078Y-105950000D01*
X77145095Y-105926148D01*
X77224905Y-105880070D01*
X77290070Y-105814905D01*
X77336148Y-105735095D01*
X77360000Y-105646078D01*
X77360000Y-105599999D01*
X77363554Y-105599999D01*
X77363554Y-105600000D01*
X78017882Y-106254328D01*
X78017883Y-106254328D01*
X78036331Y-106228937D01*
X78122085Y-106060637D01*
X78180451Y-105881002D01*
X78210000Y-105694447D01*
X78210000Y-105505552D01*
X78180451Y-105318997D01*
X78122085Y-105139362D01*
X78036329Y-104971059D01*
X78017883Y-104945670D01*
X78017882Y-104945669D01*
X77363554Y-105599999D01*
X77360000Y-105599999D01*
X77360000Y-105553922D01*
X77336148Y-105464905D01*
X77290070Y-105385095D01*
X77224905Y-105319930D01*
X77145095Y-105273852D01*
X77056078Y-105250000D01*
X76963922Y-105250000D01*
X76874905Y-105273852D01*
X76795095Y-105319930D01*
X76729930Y-105385095D01*
X76683852Y-105464905D01*
X76660000Y-105553922D01*
X76610369Y-105553922D01*
X76002116Y-104945669D01*
X76002116Y-104945670D01*
X75983669Y-104971060D01*
X75897914Y-105139362D01*
X75839548Y-105318997D01*
X75810000Y-105505552D01*
X65961442Y-105505552D01*
X66874878Y-104592116D01*
X76355669Y-104592116D01*
X77010000Y-105246446D01*
X77010001Y-105246446D01*
X77664328Y-104592116D01*
X77638933Y-104573666D01*
X77470637Y-104487914D01*
X77291002Y-104429548D01*
X77104447Y-104400000D01*
X76915553Y-104400000D01*
X76728997Y-104429548D01*
X76549362Y-104487914D01*
X76381060Y-104573669D01*
X76355670Y-104592116D01*
X76355669Y-104592116D01*
X66874878Y-104592116D01*
X68359112Y-103107882D01*
X76265669Y-103107882D01*
X76265670Y-103107883D01*
X76291059Y-103126329D01*
X76459362Y-103212085D01*
X76638997Y-103270451D01*
X76825553Y-103300000D01*
X77014447Y-103300000D01*
X77201002Y-103270451D01*
X77380637Y-103212085D01*
X77548937Y-103126331D01*
X77574328Y-103107883D01*
X77574328Y-103107882D01*
X76920001Y-102453554D01*
X76920000Y-102453554D01*
X76265669Y-103107882D01*
X68359112Y-103107882D01*
X69461442Y-102005552D01*
X75720000Y-102005552D01*
X75720000Y-102194447D01*
X75749548Y-102381002D01*
X75807914Y-102560637D01*
X75893666Y-102728933D01*
X75912116Y-102754328D01*
X76566446Y-102100000D01*
X76566446Y-102099999D01*
X76520369Y-102053922D01*
X76570000Y-102053922D01*
X76570000Y-102146078D01*
X76593852Y-102235095D01*
X76639930Y-102314905D01*
X76705095Y-102380070D01*
X76784905Y-102426148D01*
X76873922Y-102450000D01*
X76966078Y-102450000D01*
X77055095Y-102426148D01*
X77134905Y-102380070D01*
X77200070Y-102314905D01*
X77246148Y-102235095D01*
X77270000Y-102146078D01*
X77270000Y-102099999D01*
X77273554Y-102099999D01*
X77273554Y-102100000D01*
X77927882Y-102754328D01*
X77927883Y-102754328D01*
X77946331Y-102728937D01*
X78032085Y-102560637D01*
X78090451Y-102381002D01*
X78120000Y-102194447D01*
X78120000Y-102005552D01*
X78119994Y-102005513D01*
X80799500Y-102005513D01*
X80799500Y-102194486D01*
X80829059Y-102381118D01*
X80887454Y-102560836D01*
X80973104Y-102728933D01*
X80973240Y-102729199D01*
X81084310Y-102882073D01*
X81217927Y-103015690D01*
X81370801Y-103126760D01*
X81438982Y-103161500D01*
X81539163Y-103212545D01*
X81539165Y-103212545D01*
X81539168Y-103212547D01*
X81622757Y-103239707D01*
X81718881Y-103270940D01*
X81905514Y-103300500D01*
X81905519Y-103300500D01*
X82094486Y-103300500D01*
X82211017Y-103282042D01*
X82253753Y-103275274D01*
X82323045Y-103284228D01*
X82360831Y-103310066D01*
X84255139Y-105204374D01*
X84255149Y-105204385D01*
X84259479Y-105208715D01*
X84259480Y-105208716D01*
X84371284Y-105320520D01*
X84453895Y-105368215D01*
X84453896Y-105368216D01*
X84508209Y-105399574D01*
X84508210Y-105399574D01*
X84508215Y-105399577D01*
X84660943Y-105440500D01*
X84819057Y-105440500D01*
X90270398Y-105440500D01*
X90337437Y-105460185D01*
X90380883Y-105508205D01*
X90387715Y-105521614D01*
X90508028Y-105687213D01*
X90652786Y-105831971D01*
X90777741Y-105922754D01*
X90818390Y-105952287D01*
X90889350Y-105988443D01*
X90911080Y-105999515D01*
X90961876Y-106047490D01*
X90978671Y-106115311D01*
X90956134Y-106181446D01*
X90911080Y-106220485D01*
X90818386Y-106267715D01*
X90652786Y-106388028D01*
X90508028Y-106532786D01*
X90387715Y-106698385D01*
X90380883Y-106711795D01*
X90332909Y-106762591D01*
X90270398Y-106779500D01*
X84170097Y-106779500D01*
X84103058Y-106759815D01*
X84082416Y-106743181D01*
X83300066Y-105960831D01*
X83266581Y-105899508D01*
X83265274Y-105853752D01*
X83290500Y-105694486D01*
X83290500Y-105505513D01*
X83260940Y-105318881D01*
X83223734Y-105204374D01*
X83202547Y-105139168D01*
X83202545Y-105139165D01*
X83202545Y-105139163D01*
X83135208Y-105007007D01*
X83116760Y-104970801D01*
X83005690Y-104817927D01*
X82872073Y-104684310D01*
X82719199Y-104573240D01*
X82550836Y-104487454D01*
X82371118Y-104429059D01*
X82184486Y-104399500D01*
X82184481Y-104399500D01*
X81995519Y-104399500D01*
X81995514Y-104399500D01*
X81808881Y-104429059D01*
X81629163Y-104487454D01*
X81460800Y-104573240D01*
X81376933Y-104634174D01*
X81307927Y-104684310D01*
X81307925Y-104684312D01*
X81307924Y-104684312D01*
X81174312Y-104817924D01*
X81174312Y-104817925D01*
X81174310Y-104817927D01*
X81170929Y-104822581D01*
X81063240Y-104970800D01*
X80977454Y-105139163D01*
X80919059Y-105318881D01*
X80889500Y-105505513D01*
X80889500Y-105694486D01*
X80919059Y-105881118D01*
X80977454Y-106060836D01*
X81053405Y-106209896D01*
X81063240Y-106229199D01*
X81174310Y-106382073D01*
X81307927Y-106515690D01*
X81460801Y-106626760D01*
X81514412Y-106654076D01*
X81629163Y-106712545D01*
X81629165Y-106712545D01*
X81629168Y-106712547D01*
X81723449Y-106743181D01*
X81808881Y-106770940D01*
X81995514Y-106800500D01*
X81995519Y-106800500D01*
X82184486Y-106800500D01*
X82301017Y-106782042D01*
X82343753Y-106775274D01*
X82413045Y-106784228D01*
X82450831Y-106810066D01*
X83385139Y-107744374D01*
X83385149Y-107744385D01*
X83389479Y-107748715D01*
X83389480Y-107748716D01*
X83501284Y-107860520D01*
X83574788Y-107902957D01*
X83574789Y-107902958D01*
X83613605Y-107925368D01*
X83638215Y-107939577D01*
X83790943Y-107980500D01*
X83949057Y-107980500D01*
X90270398Y-107980500D01*
X90337437Y-108000185D01*
X90380883Y-108048205D01*
X90387715Y-108061614D01*
X90508028Y-108227213D01*
X90652786Y-108371971D01*
X90745270Y-108439163D01*
X90818390Y-108492287D01*
X90909840Y-108538883D01*
X90911080Y-108539515D01*
X90961876Y-108587490D01*
X90978671Y-108655311D01*
X90956134Y-108721446D01*
X90911080Y-108760485D01*
X90818386Y-108807715D01*
X90652786Y-108928028D01*
X90508028Y-109072786D01*
X90387715Y-109238385D01*
X90380883Y-109251795D01*
X90332909Y-109302591D01*
X90270398Y-109319500D01*
X83410097Y-109319500D01*
X83380656Y-109310855D01*
X83350670Y-109304332D01*
X83345654Y-109300577D01*
X83343058Y-109299815D01*
X83322416Y-109283181D01*
X83300066Y-109260831D01*
X83266581Y-109199508D01*
X83265274Y-109153752D01*
X83266949Y-109143181D01*
X83278193Y-109072184D01*
X83290500Y-108994486D01*
X83290500Y-108805513D01*
X83260940Y-108618881D01*
X83226077Y-108511585D01*
X83202547Y-108439168D01*
X83202545Y-108439165D01*
X83202545Y-108439163D01*
X83142938Y-108322179D01*
X83116760Y-108270801D01*
X83005690Y-108117927D01*
X82872073Y-107984310D01*
X82719199Y-107873240D01*
X82694235Y-107860520D01*
X82550836Y-107787454D01*
X82371118Y-107729059D01*
X82184486Y-107699500D01*
X82184481Y-107699500D01*
X81995519Y-107699500D01*
X81995514Y-107699500D01*
X81808881Y-107729059D01*
X81629163Y-107787454D01*
X81460800Y-107873240D01*
X81373579Y-107936610D01*
X81307927Y-107984310D01*
X81307925Y-107984312D01*
X81307924Y-107984312D01*
X81174312Y-108117924D01*
X81174312Y-108117925D01*
X81174310Y-108117927D01*
X81150853Y-108150213D01*
X81063240Y-108270800D01*
X80977454Y-108439163D01*
X80919059Y-108618881D01*
X80889500Y-108805513D01*
X80889500Y-108994486D01*
X80919059Y-109181118D01*
X80977454Y-109360836D01*
X81045349Y-109494086D01*
X81063240Y-109529199D01*
X81174310Y-109682073D01*
X81307927Y-109815690D01*
X81460801Y-109926760D01*
X81540347Y-109967290D01*
X81629163Y-110012545D01*
X81629165Y-110012545D01*
X81629168Y-110012547D01*
X81725497Y-110043846D01*
X81808881Y-110070940D01*
X81995514Y-110100500D01*
X81995519Y-110100500D01*
X82184486Y-110100500D01*
X82301017Y-110082042D01*
X82343753Y-110075274D01*
X82349177Y-110075975D01*
X82354304Y-110074063D01*
X82383454Y-110080404D01*
X82413045Y-110084228D01*
X82418650Y-110088060D01*
X82422577Y-110088915D01*
X82450831Y-110110066D01*
X82625139Y-110284374D01*
X82625149Y-110284385D01*
X82629479Y-110288715D01*
X82629480Y-110288716D01*
X82741284Y-110400520D01*
X82827818Y-110450480D01*
X82827819Y-110450481D01*
X82878209Y-110479574D01*
X82878210Y-110479575D01*
X82878212Y-110479575D01*
X82878215Y-110479577D01*
X83030943Y-110520501D01*
X83030946Y-110520501D01*
X83196653Y-110520501D01*
X83196669Y-110520500D01*
X90270398Y-110520500D01*
X90337437Y-110540185D01*
X90380883Y-110588205D01*
X90387715Y-110601614D01*
X90508028Y-110767213D01*
X90652786Y-110911971D01*
X90805938Y-111023240D01*
X90818390Y-111032287D01*
X90909840Y-111078883D01*
X90911080Y-111079515D01*
X90961876Y-111127490D01*
X90978671Y-111195311D01*
X90956134Y-111261446D01*
X90911080Y-111300485D01*
X90818386Y-111347715D01*
X90652786Y-111468028D01*
X90508028Y-111612786D01*
X90387715Y-111778386D01*
X90294781Y-111960776D01*
X90231522Y-112155465D01*
X90199500Y-112357648D01*
X90199500Y-112562351D01*
X90231522Y-112764534D01*
X90294781Y-112959223D01*
X90387715Y-113141613D01*
X90508028Y-113307213D01*
X90652786Y-113451971D01*
X90777741Y-113542754D01*
X90818390Y-113572287D01*
X90889350Y-113608443D01*
X90911080Y-113619515D01*
X90961876Y-113667490D01*
X90978671Y-113735311D01*
X90956134Y-113801446D01*
X90911080Y-113840485D01*
X90818386Y-113887715D01*
X90652786Y-114008028D01*
X90508028Y-114152786D01*
X90387715Y-114318386D01*
X90294781Y-114500776D01*
X90231522Y-114695465D01*
X90199500Y-114897648D01*
X90199500Y-115102351D01*
X90231522Y-115304534D01*
X90294781Y-115499223D01*
X90387715Y-115681613D01*
X90508028Y-115847213D01*
X90652786Y-115991971D01*
X90807749Y-116104556D01*
X90818390Y-116112287D01*
X90889350Y-116148443D01*
X90911080Y-116159515D01*
X90961876Y-116207490D01*
X90978671Y-116275311D01*
X90956134Y-116341446D01*
X90911080Y-116380485D01*
X90818386Y-116427715D01*
X90652786Y-116548028D01*
X90508028Y-116692786D01*
X90387715Y-116858386D01*
X90294781Y-117040776D01*
X90231522Y-117235465D01*
X90199500Y-117437648D01*
X90199500Y-117642351D01*
X90231522Y-117844534D01*
X90294781Y-118039223D01*
X90329599Y-118107555D01*
X90385278Y-118216832D01*
X90387715Y-118221613D01*
X90508028Y-118387213D01*
X90652786Y-118531971D01*
X90789093Y-118631002D01*
X90818390Y-118652287D01*
X90889350Y-118688443D01*
X90911080Y-118699515D01*
X90961876Y-118747490D01*
X90978671Y-118815311D01*
X90956134Y-118881446D01*
X90911080Y-118920485D01*
X90818386Y-118967715D01*
X90652786Y-119088028D01*
X90508028Y-119232786D01*
X90387715Y-119398386D01*
X90294781Y-119580776D01*
X90231522Y-119775465D01*
X90199500Y-119977648D01*
X90199500Y-120182351D01*
X90231522Y-120384534D01*
X90294781Y-120579223D01*
X90323174Y-120634946D01*
X90387585Y-120761359D01*
X90387715Y-120761613D01*
X90508028Y-120927213D01*
X90652786Y-121071971D01*
X90760186Y-121150000D01*
X90818390Y-121192287D01*
X90934607Y-121251503D01*
X91000776Y-121285218D01*
X91000778Y-121285218D01*
X91000781Y-121285220D01*
X91094330Y-121315616D01*
X91195465Y-121348477D01*
X91296557Y-121364488D01*
X91397648Y-121380500D01*
X91397649Y-121380500D01*
X91602351Y-121380500D01*
X91602352Y-121380500D01*
X91804534Y-121348477D01*
X91999219Y-121285220D01*
X92181610Y-121192287D01*
X92274590Y-121124732D01*
X92347213Y-121071971D01*
X92347215Y-121071968D01*
X92347219Y-121071966D01*
X92491966Y-120927219D01*
X92491968Y-120927215D01*
X92491971Y-120927213D01*
X92551215Y-120845669D01*
X92612287Y-120761610D01*
X92705220Y-120579219D01*
X92768477Y-120384534D01*
X92800500Y-120182352D01*
X92800500Y-119977648D01*
X92787856Y-119897816D01*
X92768477Y-119775465D01*
X92719184Y-119623757D01*
X92705220Y-119580781D01*
X92705218Y-119580778D01*
X92705218Y-119580776D01*
X92653028Y-119478349D01*
X92612287Y-119398390D01*
X92582857Y-119357883D01*
X92491971Y-119232786D01*
X92347213Y-119088028D01*
X92181614Y-118967715D01*
X92175006Y-118964348D01*
X92088917Y-118920483D01*
X92038123Y-118872511D01*
X92021328Y-118804690D01*
X92043865Y-118738555D01*
X92088917Y-118699516D01*
X92181610Y-118652287D01*
X92243267Y-118607491D01*
X92347213Y-118531971D01*
X92347215Y-118531968D01*
X92347219Y-118531966D01*
X92491966Y-118387219D01*
X92491968Y-118387215D01*
X92491971Y-118387213D01*
X92552484Y-118303922D01*
X92612287Y-118221610D01*
X92705220Y-118039219D01*
X92768477Y-117844534D01*
X92800500Y-117642352D01*
X92800500Y-117437648D01*
X92768477Y-117235466D01*
X92746690Y-117168414D01*
X92719184Y-117083757D01*
X92705220Y-117040781D01*
X92705218Y-117040778D01*
X92705218Y-117040776D01*
X92650850Y-116934075D01*
X92612287Y-116858390D01*
X92604556Y-116847749D01*
X92491971Y-116692786D01*
X92347213Y-116548028D01*
X92181614Y-116427715D01*
X92175006Y-116424348D01*
X92088917Y-116380483D01*
X92038123Y-116332511D01*
X92021328Y-116264690D01*
X92043865Y-116198555D01*
X92088917Y-116159516D01*
X92181610Y-116112287D01*
X92202770Y-116096913D01*
X92347213Y-115991971D01*
X92347215Y-115991968D01*
X92347219Y-115991966D01*
X92491966Y-115847219D01*
X92491968Y-115847215D01*
X92491971Y-115847213D01*
X92547917Y-115770208D01*
X92612287Y-115681610D01*
X92705220Y-115499219D01*
X92768477Y-115304534D01*
X92800500Y-115102352D01*
X92800500Y-114897648D01*
X92768477Y-114695466D01*
X92746690Y-114628414D01*
X92727971Y-114570801D01*
X92705220Y-114500781D01*
X92705218Y-114500778D01*
X92705218Y-114500776D01*
X92653028Y-114398349D01*
X92612287Y-114318390D01*
X92547005Y-114228536D01*
X92491971Y-114152786D01*
X92347213Y-114008028D01*
X92181614Y-113887715D01*
X92175006Y-113884348D01*
X92088917Y-113840483D01*
X92038123Y-113792511D01*
X92021328Y-113724690D01*
X92043865Y-113658555D01*
X92088917Y-113619516D01*
X92181610Y-113572287D01*
X92243267Y-113527491D01*
X92347213Y-113451971D01*
X92347215Y-113451968D01*
X92347219Y-113451966D01*
X92491966Y-113307219D01*
X92491968Y-113307215D01*
X92491971Y-113307213D01*
X92563655Y-113208547D01*
X92612287Y-113141610D01*
X92705220Y-112959219D01*
X92768477Y-112764534D01*
X92800500Y-112562352D01*
X92800500Y-112357648D01*
X92768477Y-112155466D01*
X92764909Y-112144486D01*
X92714620Y-111989711D01*
X92705220Y-111960781D01*
X92705218Y-111960778D01*
X92705218Y-111960776D01*
X92650850Y-111854075D01*
X92612287Y-111778390D01*
X92577321Y-111730263D01*
X92491971Y-111612786D01*
X92347213Y-111468028D01*
X92181614Y-111347715D01*
X92171940Y-111342786D01*
X92088917Y-111300483D01*
X92038123Y-111252511D01*
X92021328Y-111184690D01*
X92043865Y-111118555D01*
X92088917Y-111079516D01*
X92181610Y-111032287D01*
X92202770Y-111016913D01*
X92347213Y-110911971D01*
X92347215Y-110911968D01*
X92347219Y-110911966D01*
X92491966Y-110767219D01*
X92491968Y-110767215D01*
X92491971Y-110767213D01*
X92547917Y-110690208D01*
X92612287Y-110601610D01*
X92705220Y-110419219D01*
X92768477Y-110224534D01*
X92800500Y-110022352D01*
X92800500Y-109817648D01*
X92768477Y-109615466D01*
X92746690Y-109548414D01*
X92728029Y-109490980D01*
X92705220Y-109420781D01*
X92705218Y-109420778D01*
X92705218Y-109420776D01*
X92660413Y-109332843D01*
X92612287Y-109238390D01*
X92570593Y-109181002D01*
X92491971Y-109072786D01*
X92347213Y-108928028D01*
X92181614Y-108807715D01*
X92175006Y-108804348D01*
X92088917Y-108760483D01*
X92038123Y-108712511D01*
X92021328Y-108644690D01*
X92043865Y-108578555D01*
X92088917Y-108539516D01*
X92181610Y-108492287D01*
X92254730Y-108439163D01*
X92347213Y-108371971D01*
X92347215Y-108371968D01*
X92347219Y-108371966D01*
X92491966Y-108227219D01*
X92491968Y-108227215D01*
X92491971Y-108227213D01*
X92547917Y-108150208D01*
X92612287Y-108061610D01*
X92705220Y-107879219D01*
X92768477Y-107684534D01*
X92800500Y-107482352D01*
X92800500Y-107277648D01*
X92792257Y-107225606D01*
X92768477Y-107075465D01*
X92735678Y-106974521D01*
X92705220Y-106880781D01*
X92705218Y-106880778D01*
X92705218Y-106880776D01*
X92664060Y-106800000D01*
X92612287Y-106698390D01*
X92580092Y-106654077D01*
X92491971Y-106532786D01*
X92347213Y-106388028D01*
X92181614Y-106267715D01*
X92155340Y-106254328D01*
X92088917Y-106220483D01*
X92038123Y-106172511D01*
X92021328Y-106104690D01*
X92043865Y-106038555D01*
X92088917Y-105999516D01*
X92181610Y-105952287D01*
X92233687Y-105914451D01*
X92347213Y-105831971D01*
X92347215Y-105831968D01*
X92347219Y-105831966D01*
X92491966Y-105687219D01*
X92491968Y-105687215D01*
X92491971Y-105687213D01*
X92555334Y-105600000D01*
X92612287Y-105521610D01*
X92705220Y-105339219D01*
X92768477Y-105144534D01*
X92800500Y-104942352D01*
X92800500Y-104737648D01*
X92774528Y-104573669D01*
X92768477Y-104535465D01*
X92705218Y-104340776D01*
X92664207Y-104260288D01*
X92612287Y-104158390D01*
X92591990Y-104130453D01*
X92491971Y-103992786D01*
X92347219Y-103848034D01*
X92320803Y-103828842D01*
X92253547Y-103779978D01*
X92210882Y-103724649D01*
X92204903Y-103655036D01*
X92237508Y-103593240D01*
X92287426Y-103561955D01*
X92369334Y-103534814D01*
X92518656Y-103442712D01*
X92642712Y-103318656D01*
X92734814Y-103169334D01*
X92789999Y-103002797D01*
X92800500Y-102900009D01*
X92800499Y-102197648D01*
X97819500Y-102197648D01*
X97819500Y-102402351D01*
X97851522Y-102604534D01*
X97914781Y-102799223D01*
X97966135Y-102900009D01*
X98007027Y-102980264D01*
X98007715Y-102981613D01*
X98128028Y-103147213D01*
X98272786Y-103291971D01*
X98414881Y-103395207D01*
X98438390Y-103412287D01*
X98529840Y-103458883D01*
X98531080Y-103459515D01*
X98581876Y-103507490D01*
X98598671Y-103575311D01*
X98576134Y-103641446D01*
X98531080Y-103680485D01*
X98438386Y-103727715D01*
X98272786Y-103848028D01*
X98128028Y-103992786D01*
X98007715Y-104158386D01*
X97914781Y-104340776D01*
X97851522Y-104535465D01*
X97819500Y-104737648D01*
X97819500Y-104942352D01*
X97820026Y-104945670D01*
X97851522Y-105144534D01*
X97914781Y-105339223D01*
X97949732Y-105407816D01*
X97999514Y-105505519D01*
X98007715Y-105521613D01*
X98128028Y-105687213D01*
X98272786Y-105831971D01*
X98438385Y-105952284D01*
X98438387Y-105952285D01*
X98438390Y-105952287D01*
X98531080Y-105999515D01*
X98531630Y-105999795D01*
X98582426Y-106047770D01*
X98599221Y-106115591D01*
X98576684Y-106181725D01*
X98531630Y-106220765D01*
X98438644Y-106268143D01*
X98394077Y-106300523D01*
X98394077Y-106300524D01*
X99073554Y-106980000D01*
X99067339Y-106980000D01*
X98965606Y-107007259D01*
X98874394Y-107059920D01*
X98799920Y-107134394D01*
X98747259Y-107225606D01*
X98720000Y-107327339D01*
X98720000Y-107333553D01*
X98040524Y-106654077D01*
X98040523Y-106654077D01*
X98008143Y-106698644D01*
X97915244Y-106880968D01*
X97852009Y-107075582D01*
X97820000Y-107277682D01*
X97820000Y-107482317D01*
X97852009Y-107684417D01*
X97915244Y-107879031D01*
X98008141Y-108061350D01*
X98008147Y-108061359D01*
X98040523Y-108105921D01*
X98040524Y-108105922D01*
X98720000Y-107426446D01*
X98720000Y-107432661D01*
X98747259Y-107534394D01*
X98799920Y-107625606D01*
X98874394Y-107700080D01*
X98965606Y-107752741D01*
X99067339Y-107780000D01*
X99073553Y-107780000D01*
X98394076Y-108459474D01*
X98438652Y-108491861D01*
X98531628Y-108539234D01*
X98582425Y-108587208D01*
X98599220Y-108655029D01*
X98576683Y-108721164D01*
X98531630Y-108760203D01*
X98438388Y-108807713D01*
X98272786Y-108928028D01*
X98128028Y-109072786D01*
X98007715Y-109238386D01*
X97914781Y-109420776D01*
X97851522Y-109615465D01*
X97819500Y-109817648D01*
X97819500Y-110022351D01*
X97851522Y-110224534D01*
X97914781Y-110419223D01*
X97966385Y-110520500D01*
X97987676Y-110562286D01*
X98007715Y-110601613D01*
X98128028Y-110767213D01*
X98272786Y-110911971D01*
X98425938Y-111023240D01*
X98438390Y-111032287D01*
X98529840Y-111078883D01*
X98531080Y-111079515D01*
X98581876Y-111127490D01*
X98598671Y-111195311D01*
X98576134Y-111261446D01*
X98531080Y-111300485D01*
X98438386Y-111347715D01*
X98272786Y-111468028D01*
X98128028Y-111612786D01*
X98007715Y-111778386D01*
X97914781Y-111960776D01*
X97851522Y-112155465D01*
X97819500Y-112357648D01*
X97819500Y-112562351D01*
X97851522Y-112764534D01*
X97914781Y-112959223D01*
X98007715Y-113141613D01*
X98128028Y-113307213D01*
X98272786Y-113451971D01*
X98397741Y-113542754D01*
X98438390Y-113572287D01*
X98509350Y-113608443D01*
X98531080Y-113619515D01*
X98581876Y-113667490D01*
X98598671Y-113735311D01*
X98576134Y-113801446D01*
X98531080Y-113840485D01*
X98438386Y-113887715D01*
X98272786Y-114008028D01*
X98128028Y-114152786D01*
X98007715Y-114318386D01*
X97914781Y-114500776D01*
X97851522Y-114695465D01*
X97819500Y-114897648D01*
X97819500Y-115102351D01*
X97851522Y-115304534D01*
X97914781Y-115499223D01*
X98007715Y-115681613D01*
X98128028Y-115847213D01*
X98272786Y-115991971D01*
X98427749Y-116104556D01*
X98438390Y-116112287D01*
X98509350Y-116148443D01*
X98531080Y-116159515D01*
X98581876Y-116207490D01*
X98598671Y-116275311D01*
X98576134Y-116341446D01*
X98531080Y-116380485D01*
X98438386Y-116427715D01*
X98272786Y-116548028D01*
X98128028Y-116692786D01*
X98007715Y-116858386D01*
X97914781Y-117040776D01*
X97851522Y-117235465D01*
X97819500Y-117437648D01*
X97819500Y-117642351D01*
X97851522Y-117844534D01*
X97914781Y-118039223D01*
X97949599Y-118107555D01*
X98005278Y-118216832D01*
X98007715Y-118221613D01*
X98128028Y-118387213D01*
X98272786Y-118531971D01*
X98438385Y-118652284D01*
X98438387Y-118652285D01*
X98438390Y-118652287D01*
X98531080Y-118699515D01*
X98531630Y-118699795D01*
X98582426Y-118747770D01*
X98599221Y-118815591D01*
X98576684Y-118881725D01*
X98531630Y-118920765D01*
X98438644Y-118968143D01*
X98394077Y-119000523D01*
X98394077Y-119000524D01*
X99073554Y-119680000D01*
X99067339Y-119680000D01*
X98965606Y-119707259D01*
X98874394Y-119759920D01*
X98799920Y-119834394D01*
X98747259Y-119925606D01*
X98720000Y-120027339D01*
X98720000Y-120033553D01*
X98040524Y-119354077D01*
X98040523Y-119354077D01*
X98008143Y-119398644D01*
X97915244Y-119580968D01*
X97852009Y-119775582D01*
X97820000Y-119977682D01*
X97820000Y-120182317D01*
X97852009Y-120384417D01*
X97915244Y-120579031D01*
X98008141Y-120761350D01*
X98008147Y-120761359D01*
X98040523Y-120805921D01*
X98040524Y-120805922D01*
X98720000Y-120126446D01*
X98720000Y-120132661D01*
X98747259Y-120234394D01*
X98799920Y-120325606D01*
X98874394Y-120400080D01*
X98965606Y-120452741D01*
X99067339Y-120480000D01*
X99073553Y-120480000D01*
X98394076Y-121159474D01*
X98438650Y-121191859D01*
X98620968Y-121284755D01*
X98815582Y-121347990D01*
X99017683Y-121380000D01*
X99222317Y-121380000D01*
X99316959Y-121365010D01*
X99386252Y-121373964D01*
X99439704Y-121418961D01*
X99460344Y-121485712D01*
X99452239Y-121528035D01*
X99453031Y-121528276D01*
X99451261Y-121534110D01*
X99420500Y-121688753D01*
X99420500Y-121846446D01*
X99451261Y-122001089D01*
X99451264Y-122001101D01*
X99511602Y-122146772D01*
X99511609Y-122146785D01*
X99599210Y-122277888D01*
X99599213Y-122277892D01*
X99710707Y-122389386D01*
X99710711Y-122389389D01*
X99841814Y-122476990D01*
X99841827Y-122476997D01*
X99978633Y-122533663D01*
X99987503Y-122537337D01*
X100104152Y-122560540D01*
X100142153Y-122568099D01*
X100142156Y-122568100D01*
X100142158Y-122568100D01*
X100299844Y-122568100D01*
X100299845Y-122568099D01*
X100454497Y-122537337D01*
X100463367Y-122533662D01*
X100532833Y-122526190D01*
X100595314Y-122557461D01*
X100598505Y-122560540D01*
X108511284Y-130473319D01*
X108544769Y-130534642D01*
X108539785Y-130604334D01*
X108497913Y-130660267D01*
X108432449Y-130684684D01*
X108423603Y-130685000D01*
X108275954Y-130685000D01*
X108066072Y-130718242D01*
X108066069Y-130718242D01*
X107863982Y-130783904D01*
X107674639Y-130880380D01*
X107620482Y-130919727D01*
X107620482Y-130919728D01*
X108252791Y-131552037D01*
X108189207Y-131569075D01*
X108075193Y-131634901D01*
X107982101Y-131727993D01*
X107916275Y-131842007D01*
X107899237Y-131905591D01*
X107266928Y-131273282D01*
X107266927Y-131273282D01*
X107227580Y-131327439D01*
X107131104Y-131516782D01*
X107065442Y-131718869D01*
X107065442Y-131718872D01*
X107032200Y-131928753D01*
X107032200Y-132141246D01*
X107065442Y-132351127D01*
X107065442Y-132351130D01*
X107131104Y-132553217D01*
X107227575Y-132742550D01*
X107266928Y-132796716D01*
X107899237Y-132164408D01*
X107916275Y-132227993D01*
X107982101Y-132342007D01*
X108075193Y-132435099D01*
X108189207Y-132500925D01*
X108252790Y-132517962D01*
X107620482Y-133150269D01*
X107620482Y-133150270D01*
X107674649Y-133189624D01*
X107863982Y-133286095D01*
X108066070Y-133351757D01*
X108275954Y-133385000D01*
X108488446Y-133385000D01*
X108698327Y-133351757D01*
X108698330Y-133351757D01*
X108900417Y-133286095D01*
X109089754Y-133189622D01*
X109143916Y-133150270D01*
X109143917Y-133150270D01*
X108511608Y-132517962D01*
X108575193Y-132500925D01*
X108689207Y-132435099D01*
X108782299Y-132342007D01*
X108848125Y-132227993D01*
X108865162Y-132164408D01*
X109497470Y-132796717D01*
X109497470Y-132796716D01*
X109536822Y-132742555D01*
X109541432Y-132733507D01*
X109589405Y-132682709D01*
X109657225Y-132665912D01*
X109723361Y-132688447D01*
X109762404Y-132733504D01*
X109767149Y-132742817D01*
X109892090Y-132914786D01*
X110042413Y-133065109D01*
X110214379Y-133190048D01*
X110214381Y-133190049D01*
X110214384Y-133190051D01*
X110403788Y-133286557D01*
X110605957Y-133352246D01*
X110815913Y-133385500D01*
X110815914Y-133385500D01*
X111028486Y-133385500D01*
X111028487Y-133385500D01*
X111238443Y-133352246D01*
X111440612Y-133286557D01*
X111630016Y-133190051D01*
X111716338Y-133127335D01*
X111801986Y-133065109D01*
X111801988Y-133065106D01*
X111801992Y-133065104D01*
X111952304Y-132914792D01*
X111952306Y-132914788D01*
X111952309Y-132914786D01*
X112077248Y-132742820D01*
X112077250Y-132742817D01*
X112077251Y-132742816D01*
X112081714Y-132734054D01*
X112129688Y-132683259D01*
X112197508Y-132666463D01*
X112263644Y-132688999D01*
X112302686Y-132734056D01*
X112307151Y-132742820D01*
X112432090Y-132914786D01*
X112582413Y-133065109D01*
X112754379Y-133190048D01*
X112754381Y-133190049D01*
X112754384Y-133190051D01*
X112943788Y-133286557D01*
X113145957Y-133352246D01*
X113355913Y-133385500D01*
X113355914Y-133385500D01*
X113568486Y-133385500D01*
X113568487Y-133385500D01*
X113778443Y-133352246D01*
X113980612Y-133286557D01*
X114170016Y-133190051D01*
X114256338Y-133127335D01*
X114341986Y-133065109D01*
X114341988Y-133065106D01*
X114341992Y-133065104D01*
X114492304Y-132914792D01*
X114492306Y-132914788D01*
X114492309Y-132914786D01*
X114617248Y-132742820D01*
X114617250Y-132742817D01*
X114617251Y-132742816D01*
X114621714Y-132734054D01*
X114669688Y-132683259D01*
X114737508Y-132666463D01*
X114803644Y-132688999D01*
X114842686Y-132734056D01*
X114847151Y-132742820D01*
X114972090Y-132914786D01*
X115122413Y-133065109D01*
X115294379Y-133190048D01*
X115294381Y-133190049D01*
X115294384Y-133190051D01*
X115483788Y-133286557D01*
X115685957Y-133352246D01*
X115895913Y-133385500D01*
X115895914Y-133385500D01*
X116108486Y-133385500D01*
X116108487Y-133385500D01*
X116318443Y-133352246D01*
X116520612Y-133286557D01*
X116710016Y-133190051D01*
X116796338Y-133127335D01*
X116881986Y-133065109D01*
X116881988Y-133065106D01*
X116881992Y-133065104D01*
X117032304Y-132914792D01*
X117032306Y-132914788D01*
X117032309Y-132914786D01*
X117157248Y-132742820D01*
X117157250Y-132742817D01*
X117157251Y-132742816D01*
X117161714Y-132734054D01*
X117209688Y-132683259D01*
X117277508Y-132666463D01*
X117343644Y-132688999D01*
X117382686Y-132734056D01*
X117387151Y-132742820D01*
X117512090Y-132914786D01*
X117662413Y-133065109D01*
X117834379Y-133190048D01*
X117834381Y-133190049D01*
X117834384Y-133190051D01*
X118023788Y-133286557D01*
X118225957Y-133352246D01*
X118435913Y-133385500D01*
X118435914Y-133385500D01*
X118648486Y-133385500D01*
X118648487Y-133385500D01*
X118858443Y-133352246D01*
X119060612Y-133286557D01*
X119250016Y-133190051D01*
X119421992Y-133065104D01*
X119535529Y-132951566D01*
X119596848Y-132918084D01*
X119666540Y-132923068D01*
X119722474Y-132964939D01*
X119739389Y-132995917D01*
X119788402Y-133127328D01*
X119788406Y-133127335D01*
X119874652Y-133242544D01*
X119874655Y-133242547D01*
X119989864Y-133328793D01*
X119989871Y-133328797D01*
X120124717Y-133379091D01*
X120124716Y-133379091D01*
X120131644Y-133379835D01*
X120184327Y-133385500D01*
X121980072Y-133385499D01*
X122039683Y-133379091D01*
X122174531Y-133328796D01*
X122289746Y-133242546D01*
X122375996Y-133127331D01*
X122426291Y-132992483D01*
X122432700Y-132932873D01*
X122432699Y-131137128D01*
X122426291Y-131077517D01*
X122425010Y-131074083D01*
X122375997Y-130942671D01*
X122375993Y-130942664D01*
X122289747Y-130827455D01*
X122289744Y-130827452D01*
X122174535Y-130741206D01*
X122174528Y-130741202D01*
X122039682Y-130690908D01*
X122039683Y-130690908D01*
X121980083Y-130684501D01*
X121980081Y-130684500D01*
X121980073Y-130684500D01*
X121980064Y-130684500D01*
X120184329Y-130684500D01*
X120184323Y-130684501D01*
X120124716Y-130690908D01*
X119989871Y-130741202D01*
X119989864Y-130741206D01*
X119874655Y-130827452D01*
X119874652Y-130827455D01*
X119788406Y-130942664D01*
X119788403Y-130942669D01*
X119739389Y-131074083D01*
X119697517Y-131130016D01*
X119632053Y-131154433D01*
X119563780Y-131139581D01*
X119535526Y-131118430D01*
X119421986Y-131004890D01*
X119250020Y-130879951D01*
X119060614Y-130783444D01*
X119060613Y-130783443D01*
X119060612Y-130783443D01*
X118858443Y-130717754D01*
X118858441Y-130717753D01*
X118858440Y-130717753D01*
X118697157Y-130692208D01*
X118648487Y-130684500D01*
X118435913Y-130684500D01*
X118387242Y-130692208D01*
X118225960Y-130717753D01*
X118023785Y-130783444D01*
X117834379Y-130879951D01*
X117662413Y-131004890D01*
X117512090Y-131155213D01*
X117387149Y-131327182D01*
X117382684Y-131335946D01*
X117334709Y-131386742D01*
X117266888Y-131403536D01*
X117200753Y-131380998D01*
X117161716Y-131335946D01*
X117157250Y-131327182D01*
X117032309Y-131155213D01*
X116881986Y-131004890D01*
X116710020Y-130879951D01*
X116520614Y-130783444D01*
X116520613Y-130783443D01*
X116520612Y-130783443D01*
X116318443Y-130717754D01*
X116318441Y-130717753D01*
X116318440Y-130717753D01*
X116157157Y-130692208D01*
X116108487Y-130684500D01*
X115895913Y-130684500D01*
X115847242Y-130692208D01*
X115685960Y-130717753D01*
X115483785Y-130783444D01*
X115294379Y-130879951D01*
X115122413Y-131004890D01*
X114972090Y-131155213D01*
X114847149Y-131327182D01*
X114842684Y-131335946D01*
X114794709Y-131386742D01*
X114726888Y-131403536D01*
X114660753Y-131380998D01*
X114621716Y-131335946D01*
X114617250Y-131327182D01*
X114492309Y-131155213D01*
X114341986Y-131004890D01*
X114170020Y-130879951D01*
X113980614Y-130783444D01*
X113980613Y-130783443D01*
X113980612Y-130783443D01*
X113778443Y-130717754D01*
X113778441Y-130717753D01*
X113778440Y-130717753D01*
X113617157Y-130692208D01*
X113568487Y-130684500D01*
X113355913Y-130684500D01*
X113307242Y-130692208D01*
X113145960Y-130717753D01*
X112943785Y-130783444D01*
X112754379Y-130879951D01*
X112582413Y-131004890D01*
X112432090Y-131155213D01*
X112307149Y-131327182D01*
X112302684Y-131335946D01*
X112254709Y-131386742D01*
X112186888Y-131403536D01*
X112120753Y-131380998D01*
X112081716Y-131335946D01*
X112077250Y-131327182D01*
X111952309Y-131155213D01*
X111801986Y-131004890D01*
X111630020Y-130879951D01*
X111440614Y-130783444D01*
X111440613Y-130783443D01*
X111440612Y-130783443D01*
X111238443Y-130717754D01*
X111238441Y-130717753D01*
X111238440Y-130717753D01*
X111077157Y-130692208D01*
X111028487Y-130684500D01*
X110815913Y-130684500D01*
X110787206Y-130689046D01*
X110605957Y-130717753D01*
X110563673Y-130731492D01*
X110493832Y-130733486D01*
X110437676Y-130701241D01*
X101066190Y-121329755D01*
X101066188Y-121329752D01*
X100947317Y-121210881D01*
X100947316Y-121210880D01*
X100860504Y-121160760D01*
X100810385Y-121131823D01*
X100658385Y-121091094D01*
X100653723Y-121089437D01*
X100648792Y-121085863D01*
X100626363Y-121075701D01*
X100600179Y-121058206D01*
X100600174Y-121058203D01*
X100454501Y-120997864D01*
X100454491Y-120997861D01*
X100299817Y-120967094D01*
X100237906Y-120934709D01*
X100203332Y-120873993D01*
X100207073Y-120804223D01*
X100223695Y-120772587D01*
X100231857Y-120761353D01*
X100324755Y-120579031D01*
X100387990Y-120384417D01*
X100420000Y-120182317D01*
X100420000Y-119977682D01*
X100387990Y-119775582D01*
X100324755Y-119580968D01*
X100231859Y-119398650D01*
X100199474Y-119354077D01*
X100199474Y-119354076D01*
X99520000Y-120033553D01*
X99520000Y-120027339D01*
X99492741Y-119925606D01*
X99440080Y-119834394D01*
X99365606Y-119759920D01*
X99274394Y-119707259D01*
X99172661Y-119680000D01*
X99166446Y-119680000D01*
X99845922Y-119000524D01*
X99845921Y-119000523D01*
X99801359Y-118968147D01*
X99801350Y-118968141D01*
X99708369Y-118920765D01*
X99657573Y-118872790D01*
X99640778Y-118804969D01*
X99663315Y-118738835D01*
X99708370Y-118699795D01*
X99708920Y-118699515D01*
X99801610Y-118652287D01*
X99863267Y-118607491D01*
X99967213Y-118531971D01*
X99967215Y-118531968D01*
X99967219Y-118531966D01*
X100111966Y-118387219D01*
X100111968Y-118387215D01*
X100111971Y-118387213D01*
X100172484Y-118303922D01*
X100232287Y-118221610D01*
X100325220Y-118039219D01*
X100388477Y-117844534D01*
X100420500Y-117642352D01*
X100420500Y-117437648D01*
X100388477Y-117235466D01*
X100366690Y-117168414D01*
X100339184Y-117083757D01*
X100325220Y-117040781D01*
X100325218Y-117040778D01*
X100325218Y-117040776D01*
X100270850Y-116934075D01*
X100232287Y-116858390D01*
X100224556Y-116847749D01*
X100111971Y-116692786D01*
X99967213Y-116548028D01*
X99801614Y-116427715D01*
X99795006Y-116424348D01*
X99708917Y-116380483D01*
X99658123Y-116332511D01*
X99641328Y-116264690D01*
X99663865Y-116198555D01*
X99708917Y-116159516D01*
X99801610Y-116112287D01*
X99822770Y-116096913D01*
X99967213Y-115991971D01*
X99967215Y-115991968D01*
X99967219Y-115991966D01*
X100111966Y-115847219D01*
X100111968Y-115847215D01*
X100111971Y-115847213D01*
X100167917Y-115770208D01*
X100232287Y-115681610D01*
X100325220Y-115499219D01*
X100388477Y-115304534D01*
X100420500Y-115102352D01*
X100420500Y-114897648D01*
X100388477Y-114695466D01*
X100366690Y-114628414D01*
X100347971Y-114570801D01*
X100325220Y-114500781D01*
X100325218Y-114500778D01*
X100325218Y-114500776D01*
X100273028Y-114398349D01*
X100232287Y-114318390D01*
X100167005Y-114228536D01*
X100111971Y-114152786D01*
X99967213Y-114008028D01*
X99801614Y-113887715D01*
X99795006Y-113884348D01*
X99708917Y-113840483D01*
X99658123Y-113792511D01*
X99641328Y-113724690D01*
X99663865Y-113658555D01*
X99708917Y-113619516D01*
X99801610Y-113572287D01*
X99863267Y-113527491D01*
X99967213Y-113451971D01*
X99967215Y-113451968D01*
X99967219Y-113451966D01*
X100111966Y-113307219D01*
X100111968Y-113307215D01*
X100111971Y-113307213D01*
X100183655Y-113208547D01*
X100232287Y-113141610D01*
X100325220Y-112959219D01*
X100388477Y-112764534D01*
X100420500Y-112562352D01*
X100420500Y-112357648D01*
X100388477Y-112155466D01*
X100384909Y-112144486D01*
X100334620Y-111989711D01*
X100325220Y-111960781D01*
X100325218Y-111960778D01*
X100325218Y-111960776D01*
X100270850Y-111854075D01*
X100232287Y-111778390D01*
X100197321Y-111730263D01*
X100111971Y-111612786D01*
X99967213Y-111468028D01*
X99801614Y-111347715D01*
X99791940Y-111342786D01*
X99708917Y-111300483D01*
X99658123Y-111252511D01*
X99641328Y-111184690D01*
X99663865Y-111118555D01*
X99708917Y-111079516D01*
X99801610Y-111032287D01*
X99822770Y-111016913D01*
X99967213Y-110911971D01*
X99967215Y-110911968D01*
X99967219Y-110911966D01*
X100111966Y-110767219D01*
X100111968Y-110767215D01*
X100111971Y-110767213D01*
X100167917Y-110690208D01*
X100232287Y-110601610D01*
X100325220Y-110419219D01*
X100388477Y-110224534D01*
X100420500Y-110022352D01*
X100420500Y-109817648D01*
X100388477Y-109615466D01*
X100366690Y-109548414D01*
X100348029Y-109490980D01*
X100325220Y-109420781D01*
X100325218Y-109420778D01*
X100325218Y-109420776D01*
X100280413Y-109332843D01*
X100232287Y-109238390D01*
X100190593Y-109181002D01*
X100111971Y-109072786D01*
X99967213Y-108928028D01*
X99801611Y-108807713D01*
X99708369Y-108760203D01*
X99657574Y-108712229D01*
X99640779Y-108644407D01*
X99663317Y-108578273D01*
X99708371Y-108539234D01*
X99801346Y-108491861D01*
X99801347Y-108491861D01*
X99845921Y-108459474D01*
X99166447Y-107780000D01*
X99172661Y-107780000D01*
X99274394Y-107752741D01*
X99365606Y-107700080D01*
X99440080Y-107625606D01*
X99492741Y-107534394D01*
X99520000Y-107432661D01*
X99520000Y-107426447D01*
X100199474Y-108105921D01*
X100231859Y-108061349D01*
X100324755Y-107879031D01*
X100387990Y-107684417D01*
X100420000Y-107482317D01*
X100420000Y-107277682D01*
X100387990Y-107075582D01*
X100324755Y-106880968D01*
X100231859Y-106698650D01*
X100199474Y-106654077D01*
X100199474Y-106654076D01*
X99520000Y-107333551D01*
X99520000Y-107327339D01*
X99492741Y-107225606D01*
X99440080Y-107134394D01*
X99365606Y-107059920D01*
X99274394Y-107007259D01*
X99172661Y-106980000D01*
X99166446Y-106980000D01*
X99845922Y-106300524D01*
X99845921Y-106300523D01*
X99801359Y-106268147D01*
X99801350Y-106268141D01*
X99708369Y-106220765D01*
X99657573Y-106172790D01*
X99640778Y-106104969D01*
X99663315Y-106038835D01*
X99708370Y-105999795D01*
X99708920Y-105999515D01*
X99801610Y-105952287D01*
X99853687Y-105914451D01*
X99967213Y-105831971D01*
X99967215Y-105831968D01*
X99967219Y-105831966D01*
X100111966Y-105687219D01*
X100111968Y-105687215D01*
X100111971Y-105687213D01*
X100175334Y-105600000D01*
X100232287Y-105521610D01*
X100325220Y-105339219D01*
X100388477Y-105144534D01*
X100420500Y-104942352D01*
X100420500Y-104737648D01*
X100394528Y-104573669D01*
X100388477Y-104535465D01*
X100325218Y-104340776D01*
X100284207Y-104260288D01*
X100232287Y-104158390D01*
X100211990Y-104130453D01*
X100111971Y-103992786D01*
X99967213Y-103848028D01*
X99801614Y-103727715D01*
X99795006Y-103724348D01*
X99708917Y-103680483D01*
X99658123Y-103632511D01*
X99641328Y-103564690D01*
X99663865Y-103498555D01*
X99708917Y-103459516D01*
X99801610Y-103412287D01*
X99871513Y-103361500D01*
X99967213Y-103291971D01*
X99967215Y-103291968D01*
X99967219Y-103291966D01*
X100111966Y-103147219D01*
X100111968Y-103147215D01*
X100111971Y-103147213D01*
X100176228Y-103058769D01*
X100232287Y-102981610D01*
X100325220Y-102799219D01*
X100388477Y-102604534D01*
X100420500Y-102402352D01*
X100420500Y-102197648D01*
X100397227Y-102050711D01*
X100388477Y-101995465D01*
X100343537Y-101857156D01*
X100325220Y-101800781D01*
X100325218Y-101800778D01*
X100325218Y-101800776D01*
X100273865Y-101699991D01*
X100232287Y-101618390D01*
X100216892Y-101597200D01*
X100111971Y-101452786D01*
X99967213Y-101308028D01*
X99801613Y-101187715D01*
X99801612Y-101187714D01*
X99801610Y-101187713D01*
X99741898Y-101157288D01*
X99619223Y-101094781D01*
X99424534Y-101031522D01*
X99249995Y-101003878D01*
X99222352Y-100999500D01*
X99017648Y-100999500D01*
X98993329Y-101003351D01*
X98815465Y-101031522D01*
X98620776Y-101094781D01*
X98438386Y-101187715D01*
X98272786Y-101308028D01*
X98128028Y-101452786D01*
X98007715Y-101618386D01*
X97914781Y-101800776D01*
X97851522Y-101995465D01*
X97819500Y-102197648D01*
X92800499Y-102197648D01*
X92800499Y-101699992D01*
X92789999Y-101597203D01*
X92734814Y-101430666D01*
X92642712Y-101281344D01*
X92518656Y-101157288D01*
X92412995Y-101092116D01*
X92369336Y-101065187D01*
X92369331Y-101065185D01*
X92367862Y-101064698D01*
X92202797Y-101010001D01*
X92202795Y-101010000D01*
X92100010Y-100999500D01*
X90899998Y-100999500D01*
X90899981Y-100999501D01*
X90797203Y-101010000D01*
X90797200Y-101010001D01*
X90630668Y-101065185D01*
X90630663Y-101065187D01*
X90481342Y-101157289D01*
X90357289Y-101281342D01*
X90265187Y-101430663D01*
X90265185Y-101430668D01*
X90251801Y-101471059D01*
X90210001Y-101597203D01*
X90210001Y-101597204D01*
X90210000Y-101597204D01*
X90199500Y-101699983D01*
X90199500Y-102900001D01*
X90199501Y-102900018D01*
X90210000Y-103002796D01*
X90210001Y-103002799D01*
X90265185Y-103169331D01*
X90265187Y-103169336D01*
X90277997Y-103190104D01*
X90357288Y-103318656D01*
X90481344Y-103442712D01*
X90630666Y-103534814D01*
X90712570Y-103561954D01*
X90770015Y-103601727D01*
X90796838Y-103666243D01*
X90784523Y-103735018D01*
X90746451Y-103779978D01*
X90652787Y-103848028D01*
X90652782Y-103848032D01*
X90508028Y-103992786D01*
X90387715Y-104158385D01*
X90380883Y-104171795D01*
X90332909Y-104222591D01*
X90270398Y-104239500D01*
X85040097Y-104239500D01*
X84973058Y-104219815D01*
X84952416Y-104203181D01*
X83210066Y-102460831D01*
X83176581Y-102399508D01*
X83175274Y-102353752D01*
X83179431Y-102327510D01*
X83182042Y-102311017D01*
X83200500Y-102194486D01*
X83200500Y-102005513D01*
X83170940Y-101818881D01*
X83112545Y-101639163D01*
X83049936Y-101516287D01*
X83026760Y-101470801D01*
X82915690Y-101317927D01*
X82782073Y-101184310D01*
X82629199Y-101073240D01*
X82613390Y-101065185D01*
X82460836Y-100987454D01*
X82281118Y-100929059D01*
X82094486Y-100899500D01*
X82094481Y-100899500D01*
X81905519Y-100899500D01*
X81905514Y-100899500D01*
X81718881Y-100929059D01*
X81539163Y-100987454D01*
X81370800Y-101073240D01*
X81283579Y-101136610D01*
X81217927Y-101184310D01*
X81217925Y-101184312D01*
X81217924Y-101184312D01*
X81084312Y-101317924D01*
X81084312Y-101317925D01*
X81084310Y-101317927D01*
X81036610Y-101383579D01*
X80973240Y-101470800D01*
X80887454Y-101639163D01*
X80829059Y-101818881D01*
X80799500Y-102005513D01*
X78119994Y-102005513D01*
X78090451Y-101818997D01*
X78032085Y-101639362D01*
X77946329Y-101471059D01*
X77927883Y-101445670D01*
X77927882Y-101445669D01*
X77273554Y-102099999D01*
X77270000Y-102099999D01*
X77270000Y-102053922D01*
X77246148Y-101964905D01*
X77200070Y-101885095D01*
X77134905Y-101819930D01*
X77055095Y-101773852D01*
X76966078Y-101750000D01*
X76873922Y-101750000D01*
X76784905Y-101773852D01*
X76705095Y-101819930D01*
X76639930Y-101885095D01*
X76593852Y-101964905D01*
X76570000Y-102053922D01*
X76520369Y-102053922D01*
X75912116Y-101445669D01*
X75912116Y-101445670D01*
X75893669Y-101471060D01*
X75807914Y-101639362D01*
X75749548Y-101818997D01*
X75720000Y-102005552D01*
X69461442Y-102005552D01*
X70374878Y-101092116D01*
X76265669Y-101092116D01*
X76920000Y-101746446D01*
X76920001Y-101746446D01*
X77574328Y-101092116D01*
X77548933Y-101073666D01*
X77380637Y-100987914D01*
X77201002Y-100929548D01*
X77014447Y-100900000D01*
X76825553Y-100900000D01*
X76638997Y-100929548D01*
X76459362Y-100987914D01*
X76291060Y-101073669D01*
X76265670Y-101092116D01*
X76265669Y-101092116D01*
X70374878Y-101092116D01*
X70415300Y-101051694D01*
X73115409Y-98351585D01*
X75828713Y-95638281D01*
X75828716Y-95638280D01*
X75940520Y-95526476D01*
X75990639Y-95439664D01*
X76019577Y-95389545D01*
X76060500Y-95236818D01*
X76060500Y-95078703D01*
X76060500Y-90679038D01*
X82371900Y-90679038D01*
X82371900Y-90930962D01*
X82372361Y-90933872D01*
X82411310Y-91179785D01*
X82489160Y-91419383D01*
X82522867Y-91485535D01*
X82597263Y-91631546D01*
X82603532Y-91643848D01*
X82751601Y-91847649D01*
X82751605Y-91847654D01*
X82929745Y-92025794D01*
X82929750Y-92025798D01*
X83107517Y-92154952D01*
X83133555Y-92173870D01*
X83276584Y-92246747D01*
X83358016Y-92288239D01*
X83358018Y-92288239D01*
X83358021Y-92288241D01*
X83597615Y-92366090D01*
X83846438Y-92405500D01*
X83846439Y-92405500D01*
X84098361Y-92405500D01*
X84098362Y-92405500D01*
X84347185Y-92366090D01*
X84586779Y-92288241D01*
X84811245Y-92173870D01*
X85015056Y-92025793D01*
X85193193Y-91847656D01*
X85341270Y-91643845D01*
X85455641Y-91419379D01*
X85533490Y-91179785D01*
X85572900Y-90930962D01*
X85572900Y-90679038D01*
X85533490Y-90430215D01*
X85455641Y-90190621D01*
X85455639Y-90190618D01*
X85455639Y-90190616D01*
X85413676Y-90108259D01*
X85341270Y-89966155D01*
X85296825Y-89904982D01*
X85193198Y-89762350D01*
X85193194Y-89762345D01*
X85015054Y-89584205D01*
X85015049Y-89584201D01*
X84935127Y-89526135D01*
X120315500Y-89526135D01*
X120315500Y-91321870D01*
X120315501Y-91321876D01*
X120321908Y-91381483D01*
X120372202Y-91516328D01*
X120372206Y-91516335D01*
X120458452Y-91631544D01*
X120458455Y-91631547D01*
X120573664Y-91717793D01*
X120573671Y-91717797D01*
X120618618Y-91734561D01*
X120708517Y-91768091D01*
X120768127Y-91774500D01*
X120778685Y-91774499D01*
X120845723Y-91794179D01*
X120866372Y-91810818D01*
X121536591Y-92481037D01*
X121473007Y-92498075D01*
X121358993Y-92563901D01*
X121265901Y-92656993D01*
X121200075Y-92771007D01*
X121183037Y-92834591D01*
X120550728Y-92202282D01*
X120550727Y-92202282D01*
X120511380Y-92256439D01*
X120414904Y-92445782D01*
X120349242Y-92647869D01*
X120349242Y-92647872D01*
X120316000Y-92857753D01*
X120316000Y-93070246D01*
X120349242Y-93280127D01*
X120349242Y-93280130D01*
X120414904Y-93482217D01*
X120511375Y-93671550D01*
X120550728Y-93725716D01*
X121183037Y-93093408D01*
X121200075Y-93156993D01*
X121265901Y-93271007D01*
X121358993Y-93364099D01*
X121473007Y-93429925D01*
X121536590Y-93446962D01*
X120904282Y-94079269D01*
X120904282Y-94079270D01*
X120958449Y-94118624D01*
X121147782Y-94215095D01*
X121349870Y-94280757D01*
X121559754Y-94314000D01*
X121772246Y-94314000D01*
X121982127Y-94280757D01*
X121982130Y-94280757D01*
X122184217Y-94215095D01*
X122373554Y-94118622D01*
X122427716Y-94079270D01*
X122427717Y-94079270D01*
X121795408Y-93446962D01*
X121858993Y-93429925D01*
X121973007Y-93364099D01*
X122066099Y-93271007D01*
X122131925Y-93156993D01*
X122148962Y-93093409D01*
X122781270Y-93725717D01*
X122781270Y-93725716D01*
X122820622Y-93671554D01*
X122917095Y-93482217D01*
X122982757Y-93280130D01*
X122982757Y-93280127D01*
X123016000Y-93070246D01*
X123016000Y-92857756D01*
X123013422Y-92841481D01*
X123013422Y-92841479D01*
X122982757Y-92647872D01*
X122982757Y-92647869D01*
X122917095Y-92445782D01*
X122820624Y-92256449D01*
X122781270Y-92202282D01*
X122781269Y-92202282D01*
X122148962Y-92834590D01*
X122131925Y-92771007D01*
X122066099Y-92656993D01*
X121973007Y-92563901D01*
X121858993Y-92498075D01*
X121795409Y-92481037D01*
X122465627Y-91810818D01*
X122526950Y-91777333D01*
X122553307Y-91774499D01*
X122563872Y-91774499D01*
X122623483Y-91768091D01*
X122758331Y-91717796D01*
X122873546Y-91631546D01*
X122959796Y-91516331D01*
X123010091Y-91381483D01*
X123016500Y-91321873D01*
X123016499Y-89526128D01*
X123013189Y-89495335D01*
X128214500Y-89495335D01*
X128214500Y-91291070D01*
X128214501Y-91291076D01*
X128220908Y-91350683D01*
X128271202Y-91485528D01*
X128271206Y-91485535D01*
X128357452Y-91600744D01*
X128357455Y-91600747D01*
X128472664Y-91686993D01*
X128472671Y-91686997D01*
X128517618Y-91703761D01*
X128607517Y-91737291D01*
X128667127Y-91743700D01*
X128677685Y-91743699D01*
X128744723Y-91763379D01*
X128765372Y-91780018D01*
X129435591Y-92450237D01*
X129372007Y-92467275D01*
X129257993Y-92533101D01*
X129164901Y-92626193D01*
X129099075Y-92740207D01*
X129082037Y-92803791D01*
X128449728Y-92171482D01*
X128449727Y-92171482D01*
X128410380Y-92225639D01*
X128313904Y-92414982D01*
X128248242Y-92617069D01*
X128248242Y-92617072D01*
X128215000Y-92826953D01*
X128215000Y-93039446D01*
X128248242Y-93249327D01*
X128248242Y-93249330D01*
X128313904Y-93451417D01*
X128410375Y-93640750D01*
X128449728Y-93694916D01*
X129082037Y-93062608D01*
X129099075Y-93126193D01*
X129164901Y-93240207D01*
X129257993Y-93333299D01*
X129372007Y-93399125D01*
X129435590Y-93416162D01*
X128803282Y-94048469D01*
X128803282Y-94048470D01*
X128857449Y-94087824D01*
X129046782Y-94184295D01*
X129248870Y-94249957D01*
X129458754Y-94283200D01*
X129671246Y-94283200D01*
X129881127Y-94249957D01*
X129881130Y-94249957D01*
X130083217Y-94184295D01*
X130272554Y-94087822D01*
X130326716Y-94048470D01*
X130326717Y-94048470D01*
X129694408Y-93416162D01*
X129757993Y-93399125D01*
X129872007Y-93333299D01*
X129965099Y-93240207D01*
X130030925Y-93126193D01*
X130047962Y-93062609D01*
X130680270Y-93694917D01*
X130680270Y-93694916D01*
X130719622Y-93640754D01*
X130816095Y-93451417D01*
X130881757Y-93249330D01*
X130881757Y-93249327D01*
X130915000Y-93039446D01*
X130915000Y-92826953D01*
X130881757Y-92617072D01*
X130881757Y-92617069D01*
X130816095Y-92414982D01*
X130719624Y-92225649D01*
X130680270Y-92171482D01*
X130680269Y-92171482D01*
X130047962Y-92803790D01*
X130030925Y-92740207D01*
X129965099Y-92626193D01*
X129872007Y-92533101D01*
X129757993Y-92467275D01*
X129694409Y-92450237D01*
X130364627Y-91780018D01*
X130425950Y-91746533D01*
X130452307Y-91743699D01*
X130462872Y-91743699D01*
X130522483Y-91737291D01*
X130657331Y-91686996D01*
X130772546Y-91600746D01*
X130858796Y-91485531D01*
X130909091Y-91350683D01*
X130915500Y-91291073D01*
X130915499Y-89495328D01*
X130909091Y-89435717D01*
X130887643Y-89378213D01*
X130858797Y-89300871D01*
X130858793Y-89300864D01*
X130772547Y-89185655D01*
X130772544Y-89185652D01*
X130657335Y-89099406D01*
X130657328Y-89099402D01*
X130522482Y-89049108D01*
X130522483Y-89049108D01*
X130462883Y-89042701D01*
X130462881Y-89042700D01*
X130462873Y-89042700D01*
X130462864Y-89042700D01*
X128667129Y-89042700D01*
X128667123Y-89042701D01*
X128607516Y-89049108D01*
X128472671Y-89099402D01*
X128472664Y-89099406D01*
X128357455Y-89185652D01*
X128357452Y-89185655D01*
X128271206Y-89300864D01*
X128271202Y-89300871D01*
X128220908Y-89435717D01*
X128215104Y-89489707D01*
X128214501Y-89495323D01*
X128214500Y-89495335D01*
X123013189Y-89495335D01*
X123010091Y-89466517D01*
X122959796Y-89331669D01*
X122959795Y-89331668D01*
X122959793Y-89331664D01*
X122873547Y-89216455D01*
X122873544Y-89216452D01*
X122758335Y-89130206D01*
X122758328Y-89130202D01*
X122623482Y-89079908D01*
X122623483Y-89079908D01*
X122563883Y-89073501D01*
X122563881Y-89073500D01*
X122563873Y-89073500D01*
X122563864Y-89073500D01*
X120768129Y-89073500D01*
X120768123Y-89073501D01*
X120708516Y-89079908D01*
X120573671Y-89130202D01*
X120573664Y-89130206D01*
X120458455Y-89216452D01*
X120458452Y-89216455D01*
X120372206Y-89331664D01*
X120372202Y-89331671D01*
X120321908Y-89466517D01*
X120315501Y-89526116D01*
X120315500Y-89526135D01*
X84935127Y-89526135D01*
X84811248Y-89436132D01*
X84811247Y-89436131D01*
X84811245Y-89436130D01*
X84741147Y-89400413D01*
X84586783Y-89321760D01*
X84347185Y-89243910D01*
X84173842Y-89216455D01*
X84098362Y-89204500D01*
X83846438Y-89204500D01*
X83780138Y-89215001D01*
X83597614Y-89243910D01*
X83358016Y-89321760D01*
X83133551Y-89436132D01*
X82929750Y-89584201D01*
X82929745Y-89584205D01*
X82751605Y-89762345D01*
X82751601Y-89762350D01*
X82603532Y-89966151D01*
X82489160Y-90190616D01*
X82411310Y-90430214D01*
X82398627Y-90510289D01*
X82371900Y-90679038D01*
X76060500Y-90679038D01*
X76060500Y-84785718D01*
X76080185Y-84718679D01*
X76128207Y-84675233D01*
X76167815Y-84655052D01*
X76167815Y-84655051D01*
X76167816Y-84655051D01*
X76259193Y-84588661D01*
X76339786Y-84530109D01*
X76339788Y-84530106D01*
X76339792Y-84530104D01*
X76490104Y-84379792D01*
X76490106Y-84379788D01*
X76490109Y-84379786D01*
X76615048Y-84207820D01*
X76615047Y-84207820D01*
X76615051Y-84207816D01*
X76619514Y-84199054D01*
X76667488Y-84148259D01*
X76735308Y-84131463D01*
X76801444Y-84153999D01*
X76840486Y-84199056D01*
X76844951Y-84207820D01*
X76969890Y-84379786D01*
X77120213Y-84530109D01*
X77292179Y-84655048D01*
X77292181Y-84655049D01*
X77292184Y-84655051D01*
X77481588Y-84751557D01*
X77683757Y-84817246D01*
X77893713Y-84850500D01*
X77893714Y-84850500D01*
X78106286Y-84850500D01*
X78106287Y-84850500D01*
X78316243Y-84817246D01*
X78518412Y-84751557D01*
X78707816Y-84655051D01*
X78794138Y-84592335D01*
X78879786Y-84530109D01*
X78879788Y-84530106D01*
X78879792Y-84530104D01*
X79030104Y-84379792D01*
X79030106Y-84379788D01*
X79030109Y-84379786D01*
X79115890Y-84261717D01*
X79155051Y-84207816D01*
X79159793Y-84198508D01*
X79207763Y-84147711D01*
X79275583Y-84130911D01*
X79341719Y-84153445D01*
X79380763Y-84198500D01*
X79385373Y-84207547D01*
X79424728Y-84261716D01*
X80057036Y-83629407D01*
X80074075Y-83692993D01*
X80139901Y-83807007D01*
X80232993Y-83900099D01*
X80347007Y-83965925D01*
X80410590Y-83982962D01*
X79778282Y-84615269D01*
X79778282Y-84615270D01*
X79832449Y-84654624D01*
X80021782Y-84751095D01*
X80223870Y-84816757D01*
X80433754Y-84850000D01*
X80646246Y-84850000D01*
X80856127Y-84816757D01*
X80856130Y-84816757D01*
X81058217Y-84751095D01*
X81247554Y-84654622D01*
X81301716Y-84615270D01*
X81301717Y-84615270D01*
X80669408Y-83982962D01*
X80732993Y-83965925D01*
X80847007Y-83900099D01*
X80940099Y-83807007D01*
X81005925Y-83692993D01*
X81022962Y-83629409D01*
X81655270Y-84261717D01*
X81655270Y-84261716D01*
X81694622Y-84207555D01*
X81699232Y-84198507D01*
X81747205Y-84147709D01*
X81815025Y-84130912D01*
X81881161Y-84153447D01*
X81920204Y-84198504D01*
X81924949Y-84207817D01*
X82049890Y-84379786D01*
X82200213Y-84530109D01*
X82372179Y-84655048D01*
X82372181Y-84655049D01*
X82372184Y-84655051D01*
X82561588Y-84751557D01*
X82763757Y-84817246D01*
X82973713Y-84850500D01*
X82973714Y-84850500D01*
X83186286Y-84850500D01*
X83186287Y-84850500D01*
X83396243Y-84817246D01*
X83598412Y-84751557D01*
X83787816Y-84655051D01*
X83874138Y-84592335D01*
X83959786Y-84530109D01*
X83959788Y-84530106D01*
X83959792Y-84530104D01*
X84110104Y-84379792D01*
X84110106Y-84379788D01*
X84110109Y-84379786D01*
X84235048Y-84207820D01*
X84235047Y-84207820D01*
X84235051Y-84207816D01*
X84331557Y-84018412D01*
X84341135Y-83988935D01*
X88184500Y-83988935D01*
X88184500Y-85784670D01*
X88184501Y-85784676D01*
X88190908Y-85844283D01*
X88241202Y-85979128D01*
X88241206Y-85979135D01*
X88327452Y-86094344D01*
X88327455Y-86094347D01*
X88442664Y-86180593D01*
X88442671Y-86180597D01*
X88487618Y-86197361D01*
X88577517Y-86230891D01*
X88637127Y-86237300D01*
X88647685Y-86237299D01*
X88714723Y-86256979D01*
X88735372Y-86273618D01*
X89405591Y-86943837D01*
X89342007Y-86960875D01*
X89227993Y-87026701D01*
X89134901Y-87119793D01*
X89069075Y-87233807D01*
X89052037Y-87297391D01*
X88419728Y-86665082D01*
X88419727Y-86665082D01*
X88380380Y-86719239D01*
X88283904Y-86908582D01*
X88218242Y-87110669D01*
X88218242Y-87110672D01*
X88185000Y-87320553D01*
X88185000Y-87533046D01*
X88218242Y-87742927D01*
X88218242Y-87742930D01*
X88283904Y-87945017D01*
X88380375Y-88134350D01*
X88419728Y-88188516D01*
X89052037Y-87556208D01*
X89069075Y-87619793D01*
X89134901Y-87733807D01*
X89227993Y-87826899D01*
X89342007Y-87892725D01*
X89405590Y-87909762D01*
X88773282Y-88542069D01*
X88773282Y-88542070D01*
X88827449Y-88581424D01*
X89016782Y-88677895D01*
X89218870Y-88743557D01*
X89428754Y-88776800D01*
X89641246Y-88776800D01*
X89851127Y-88743557D01*
X89851130Y-88743557D01*
X90053217Y-88677895D01*
X90242554Y-88581422D01*
X90296716Y-88542070D01*
X90296716Y-88542069D01*
X89664408Y-87909762D01*
X89727993Y-87892725D01*
X89842007Y-87826899D01*
X89935099Y-87733807D01*
X90000925Y-87619793D01*
X90017962Y-87556209D01*
X90650270Y-88188517D01*
X90650270Y-88188516D01*
X90689622Y-88134354D01*
X90786095Y-87945017D01*
X90851757Y-87742930D01*
X90851757Y-87742927D01*
X90885000Y-87533046D01*
X90885000Y-87320553D01*
X90851757Y-87110672D01*
X90851757Y-87110669D01*
X90786095Y-86908582D01*
X90689624Y-86719249D01*
X90650270Y-86665082D01*
X90650269Y-86665082D01*
X90017962Y-87297390D01*
X90000925Y-87233807D01*
X89935099Y-87119793D01*
X89842007Y-87026701D01*
X89727993Y-86960875D01*
X89664409Y-86943837D01*
X90334627Y-86273618D01*
X90395950Y-86240133D01*
X90422307Y-86237299D01*
X90432872Y-86237299D01*
X90492483Y-86230891D01*
X90627331Y-86180596D01*
X90742546Y-86094346D01*
X90828796Y-85979131D01*
X90879091Y-85844283D01*
X90885500Y-85784673D01*
X90885499Y-83988928D01*
X90879091Y-83929317D01*
X90876353Y-83921977D01*
X90828797Y-83794471D01*
X90828793Y-83794464D01*
X90742547Y-83679255D01*
X90742544Y-83679252D01*
X90627335Y-83593006D01*
X90627328Y-83593002D01*
X90492482Y-83542708D01*
X90492483Y-83542708D01*
X90432883Y-83536301D01*
X90432881Y-83536300D01*
X90432873Y-83536300D01*
X90432864Y-83536300D01*
X88637129Y-83536300D01*
X88637123Y-83536301D01*
X88577516Y-83542708D01*
X88442671Y-83593002D01*
X88442664Y-83593006D01*
X88327455Y-83679252D01*
X88327452Y-83679255D01*
X88241206Y-83794464D01*
X88241202Y-83794471D01*
X88190908Y-83929317D01*
X88184501Y-83988916D01*
X88184501Y-83988923D01*
X88184500Y-83988935D01*
X84341135Y-83988935D01*
X84397246Y-83816243D01*
X84430500Y-83606287D01*
X84430500Y-83393713D01*
X84397246Y-83183757D01*
X84331557Y-82981588D01*
X84235051Y-82792184D01*
X84235049Y-82792181D01*
X84235048Y-82792179D01*
X84110109Y-82620213D01*
X83959786Y-82469890D01*
X83787820Y-82344951D01*
X83598414Y-82248444D01*
X83598413Y-82248443D01*
X83598412Y-82248443D01*
X83396243Y-82182754D01*
X83396241Y-82182753D01*
X83396240Y-82182753D01*
X83228835Y-82156239D01*
X83186287Y-82149500D01*
X82973713Y-82149500D01*
X82945006Y-82154046D01*
X82763757Y-82182753D01*
X82721473Y-82196492D01*
X82651632Y-82198486D01*
X82595476Y-82166241D01*
X82416590Y-81987355D01*
X82416588Y-81987352D01*
X82297717Y-81868481D01*
X82297716Y-81868480D01*
X82210904Y-81818360D01*
X82210904Y-81818359D01*
X82210900Y-81818358D01*
X82160785Y-81789423D01*
X82008057Y-81748499D01*
X81849943Y-81748499D01*
X81842347Y-81748499D01*
X81842331Y-81748500D01*
X50785429Y-81748500D01*
X50785413Y-81748499D01*
X50777817Y-81748499D01*
X50619703Y-81748499D01*
X50512347Y-81777265D01*
X50466970Y-81789424D01*
X50466969Y-81789425D01*
X50416856Y-81818359D01*
X50416855Y-81818360D01*
X50373449Y-81843420D01*
X50330045Y-81868479D01*
X50330042Y-81868481D01*
X50218238Y-81980286D01*
X49606344Y-82592181D01*
X49545021Y-82625666D01*
X49518663Y-82628500D01*
X48514500Y-82628500D01*
X48447461Y-82608815D01*
X48401706Y-82556011D01*
X48390500Y-82504500D01*
X48390499Y-80942129D01*
X48390498Y-80942123D01*
X48384091Y-80882516D01*
X48333797Y-80747671D01*
X48333793Y-80747664D01*
X48247547Y-80632455D01*
X48247544Y-80632452D01*
X48132335Y-80546206D01*
X48132328Y-80546202D01*
X47997482Y-80495908D01*
X47997483Y-80495908D01*
X47937883Y-80489501D01*
X47937881Y-80489500D01*
X47937873Y-80489500D01*
X47937864Y-80489500D01*
X46142129Y-80489500D01*
X46142123Y-80489501D01*
X46082516Y-80495908D01*
X45947671Y-80546202D01*
X45947664Y-80546206D01*
X45832455Y-80632452D01*
X45832452Y-80632455D01*
X45746206Y-80747664D01*
X45746203Y-80747669D01*
X45697189Y-80879083D01*
X45655317Y-80935016D01*
X45589853Y-80959433D01*
X45521580Y-80944581D01*
X45493326Y-80923430D01*
X45379786Y-80809890D01*
X45207820Y-80684951D01*
X45018414Y-80588444D01*
X45018413Y-80588443D01*
X45018412Y-80588443D01*
X44816243Y-80522754D01*
X44816241Y-80522753D01*
X44816240Y-80522753D01*
X44654957Y-80497208D01*
X44606287Y-80489500D01*
X44393713Y-80489500D01*
X44345042Y-80497208D01*
X44183760Y-80522753D01*
X43981585Y-80588444D01*
X43792179Y-80684951D01*
X43620213Y-80809890D01*
X43469890Y-80960213D01*
X43344951Y-81132179D01*
X43248444Y-81321585D01*
X43182753Y-81523760D01*
X43149500Y-81733713D01*
X43149500Y-81946286D01*
X43178149Y-82127173D01*
X43182754Y-82156243D01*
X43244069Y-82344951D01*
X43248444Y-82358414D01*
X43344951Y-82547820D01*
X43469890Y-82719786D01*
X43620213Y-82870109D01*
X43792182Y-82995050D01*
X43800946Y-82999516D01*
X43851742Y-83047491D01*
X43868536Y-83115312D01*
X43845998Y-83181447D01*
X43800946Y-83220484D01*
X43792182Y-83224949D01*
X43620213Y-83349890D01*
X43469890Y-83500213D01*
X43344951Y-83672179D01*
X43248444Y-83861585D01*
X43182753Y-84063760D01*
X43149500Y-84273713D01*
X43149500Y-84486286D01*
X43178149Y-84667173D01*
X43182754Y-84696243D01*
X43236476Y-84861583D01*
X43248444Y-84898414D01*
X43344951Y-85087820D01*
X43469890Y-85259786D01*
X43620213Y-85410109D01*
X43792179Y-85535048D01*
X43792181Y-85535049D01*
X43792184Y-85535051D01*
X43801493Y-85539794D01*
X43852290Y-85587766D01*
X43869087Y-85655587D01*
X43846552Y-85721722D01*
X43801505Y-85760760D01*
X43792446Y-85765376D01*
X43792440Y-85765380D01*
X43738282Y-85804727D01*
X43738282Y-85804728D01*
X44370591Y-86437037D01*
X44307007Y-86454075D01*
X44192993Y-86519901D01*
X44099901Y-86612993D01*
X44034075Y-86727007D01*
X44017037Y-86790591D01*
X43384728Y-86158282D01*
X43384727Y-86158282D01*
X43345380Y-86212439D01*
X43248904Y-86401782D01*
X43183242Y-86603869D01*
X43183242Y-86603872D01*
X43150000Y-86813753D01*
X43150000Y-87026246D01*
X43183242Y-87236127D01*
X43183242Y-87236130D01*
X43248904Y-87438217D01*
X43345375Y-87627550D01*
X43384728Y-87681716D01*
X44017037Y-87049408D01*
X44034075Y-87112993D01*
X44099901Y-87227007D01*
X44192993Y-87320099D01*
X44307007Y-87385925D01*
X44370590Y-87402962D01*
X43738282Y-88035269D01*
X43738282Y-88035270D01*
X43792452Y-88074626D01*
X43792451Y-88074626D01*
X43801495Y-88079234D01*
X43852292Y-88127208D01*
X43869087Y-88195029D01*
X43846550Y-88261164D01*
X43801499Y-88300202D01*
X43792182Y-88304949D01*
X43620213Y-88429890D01*
X43469890Y-88580213D01*
X43344951Y-88752179D01*
X43248444Y-88941585D01*
X43182753Y-89143760D01*
X43149500Y-89353713D01*
X43149500Y-89566286D01*
X43181210Y-89766498D01*
X43182754Y-89776243D01*
X43244460Y-89966155D01*
X43248444Y-89978414D01*
X43344951Y-90167820D01*
X43469890Y-90339786D01*
X43620213Y-90490109D01*
X43792182Y-90615050D01*
X43800946Y-90619516D01*
X43851742Y-90667491D01*
X43868536Y-90735312D01*
X43845998Y-90801447D01*
X43800946Y-90840484D01*
X43792182Y-90844949D01*
X43620213Y-90969890D01*
X43469890Y-91120213D01*
X43344951Y-91292179D01*
X43248444Y-91481585D01*
X43182753Y-91683760D01*
X43149500Y-91893713D01*
X43149500Y-92106286D01*
X43178318Y-92288239D01*
X43182754Y-92316243D01*
X43230763Y-92464000D01*
X43248444Y-92518414D01*
X43344951Y-92707820D01*
X43469890Y-92879786D01*
X43620213Y-93030109D01*
X43792182Y-93155050D01*
X43800946Y-93159516D01*
X43851742Y-93207491D01*
X43868536Y-93275312D01*
X43845998Y-93341447D01*
X43800946Y-93380484D01*
X43792182Y-93384949D01*
X43620213Y-93509890D01*
X43469890Y-93660213D01*
X43344951Y-93832179D01*
X43248444Y-94021585D01*
X43182753Y-94223760D01*
X43178604Y-94249957D01*
X43149500Y-94433713D01*
X43149500Y-94646287D01*
X43182754Y-94856243D01*
X43242966Y-95041557D01*
X43248444Y-95058414D01*
X43344951Y-95247820D01*
X43469890Y-95419786D01*
X43620213Y-95570109D01*
X43792179Y-95695048D01*
X43792181Y-95695049D01*
X43792184Y-95695051D01*
X43801493Y-95699794D01*
X43852290Y-95747766D01*
X43869087Y-95815587D01*
X43846552Y-95881722D01*
X43801505Y-95920760D01*
X43792446Y-95925376D01*
X43792440Y-95925380D01*
X43738282Y-95964727D01*
X43738282Y-95964728D01*
X44370591Y-96597037D01*
X44307007Y-96614075D01*
X44192993Y-96679901D01*
X44099901Y-96772993D01*
X44034075Y-96887007D01*
X44017037Y-96950591D01*
X43384728Y-96318282D01*
X43384727Y-96318282D01*
X43345380Y-96372439D01*
X43248904Y-96561782D01*
X43183242Y-96763869D01*
X43183242Y-96763872D01*
X43150000Y-96973753D01*
X43150000Y-97186246D01*
X43183242Y-97396127D01*
X43183242Y-97396130D01*
X43248904Y-97598217D01*
X43345375Y-97787550D01*
X43384728Y-97841716D01*
X44017037Y-97209408D01*
X44034075Y-97272993D01*
X44099901Y-97387007D01*
X44192993Y-97480099D01*
X44307007Y-97545925D01*
X44370591Y-97562962D01*
X44101374Y-97832180D01*
X44040051Y-97865665D01*
X44013693Y-97868499D01*
X43944183Y-97868499D01*
X43867819Y-97888961D01*
X43791454Y-97909423D01*
X43791449Y-97909426D01*
X43654530Y-97988475D01*
X43654522Y-97988481D01*
X42066479Y-99576524D01*
X42049111Y-99606608D01*
X42038782Y-99624499D01*
X41987423Y-99713455D01*
X41946499Y-99866183D01*
X41946499Y-100024297D01*
X41946499Y-100024299D01*
X41946500Y-100034293D01*
X41946500Y-122068090D01*
X41946499Y-122068108D01*
X41946499Y-122233814D01*
X41946498Y-122233814D01*
X40500500Y-122233814D01*
X40500500Y-79082135D01*
X98499500Y-79082135D01*
X98499500Y-80677870D01*
X98499501Y-80677876D01*
X98505908Y-80737483D01*
X98556202Y-80872328D01*
X98556206Y-80872335D01*
X98642452Y-80987544D01*
X98642455Y-80987547D01*
X98757664Y-81073793D01*
X98757671Y-81073797D01*
X98892517Y-81124091D01*
X98892516Y-81124091D01*
X98899444Y-81124835D01*
X98952127Y-81130500D01*
X99015733Y-81130499D01*
X99082770Y-81150183D01*
X99128526Y-81202986D01*
X99138470Y-81272144D01*
X99109446Y-81335700D01*
X99088619Y-81354816D01*
X98935354Y-81466171D01*
X98796174Y-81605351D01*
X98796174Y-81605352D01*
X98796172Y-81605354D01*
X98746485Y-81673741D01*
X98680476Y-81764594D01*
X98591117Y-81939970D01*
X98530290Y-82127173D01*
X98499500Y-82321577D01*
X98499500Y-82518422D01*
X98530290Y-82712826D01*
X98591117Y-82900029D01*
X98644884Y-83005552D01*
X98680476Y-83075405D01*
X98796172Y-83234646D01*
X98935354Y-83373828D01*
X99094595Y-83489524D01*
X99186399Y-83536300D01*
X99271213Y-83579515D01*
X99322009Y-83627489D01*
X99338804Y-83695310D01*
X99316267Y-83761445D01*
X99271213Y-83800485D01*
X99094594Y-83890476D01*
X99041135Y-83929317D01*
X98935354Y-84006172D01*
X98935352Y-84006174D01*
X98935351Y-84006174D01*
X98796174Y-84145351D01*
X98796174Y-84145352D01*
X98796172Y-84145354D01*
X98789891Y-84153999D01*
X98680476Y-84304594D01*
X98591117Y-84479970D01*
X98530290Y-84667173D01*
X98499500Y-84861577D01*
X98499500Y-85058422D01*
X98530290Y-85252826D01*
X98591117Y-85440029D01*
X98680476Y-85615405D01*
X98796172Y-85774646D01*
X98935354Y-85913828D01*
X99025241Y-85979135D01*
X99094596Y-86029525D01*
X99271763Y-86119795D01*
X99322560Y-86167769D01*
X99339355Y-86235590D01*
X99316818Y-86301725D01*
X99271764Y-86340765D01*
X99094859Y-86430902D01*
X99059873Y-86456320D01*
X99059872Y-86456320D01*
X99703554Y-87100000D01*
X99697339Y-87100000D01*
X99595606Y-87127259D01*
X99504394Y-87179920D01*
X99429920Y-87254394D01*
X99377259Y-87345606D01*
X99350000Y-87447339D01*
X99350000Y-87453552D01*
X98706320Y-86809872D01*
X98706320Y-86809873D01*
X98680902Y-86844859D01*
X98680899Y-86844863D01*
X98591582Y-87020161D01*
X98530778Y-87207294D01*
X98500000Y-87401617D01*
X98500000Y-87598382D01*
X98530778Y-87792705D01*
X98591581Y-87979835D01*
X98680905Y-88155145D01*
X98706319Y-88190125D01*
X98706320Y-88190125D01*
X99350000Y-87546445D01*
X99350000Y-87552661D01*
X99377259Y-87654394D01*
X99429920Y-87745606D01*
X99504394Y-87820080D01*
X99595606Y-87872741D01*
X99697339Y-87900000D01*
X99703553Y-87900000D01*
X99059873Y-88543677D01*
X99059873Y-88543678D01*
X99094858Y-88569096D01*
X99270164Y-88658418D01*
X99457294Y-88719221D01*
X99651618Y-88750000D01*
X99848382Y-88750000D01*
X100042705Y-88719221D01*
X100229835Y-88658418D01*
X100405143Y-88569095D01*
X100440125Y-88543678D01*
X100440126Y-88543678D01*
X99796448Y-87900000D01*
X99802661Y-87900000D01*
X99904394Y-87872741D01*
X99995606Y-87820080D01*
X100070080Y-87745606D01*
X100122741Y-87654394D01*
X100150000Y-87552661D01*
X100150000Y-87546447D01*
X100793678Y-88190126D01*
X100793678Y-88190125D01*
X100819095Y-88155143D01*
X100908418Y-87979835D01*
X100969221Y-87792705D01*
X101000000Y-87598382D01*
X101000000Y-87401617D01*
X100969221Y-87207294D01*
X100908418Y-87020164D01*
X100819096Y-86844858D01*
X100793678Y-86809873D01*
X100793677Y-86809873D01*
X100150000Y-87453551D01*
X100150000Y-87447339D01*
X100122741Y-87345606D01*
X100070080Y-87254394D01*
X99995606Y-87179920D01*
X99904394Y-87127259D01*
X99802661Y-87100000D01*
X99796447Y-87100000D01*
X100440125Y-86456320D01*
X100440125Y-86456319D01*
X100405145Y-86430905D01*
X100228235Y-86340765D01*
X100219080Y-86332118D01*
X100207415Y-86327384D01*
X100194162Y-86308585D01*
X100177439Y-86292790D01*
X100174412Y-86280567D01*
X100167158Y-86270277D01*
X100166172Y-86247295D01*
X100160644Y-86224969D01*
X100164705Y-86213051D01*
X100164166Y-86200472D01*
X100175762Y-86180605D01*
X100183182Y-86158834D01*
X100187014Y-86155513D01*
X108969500Y-86155513D01*
X108969500Y-86344486D01*
X108999059Y-86531118D01*
X109057454Y-86710836D01*
X109125742Y-86844858D01*
X109143240Y-86879199D01*
X109254310Y-87032073D01*
X109387927Y-87165690D01*
X109540801Y-87276760D01*
X109620347Y-87317290D01*
X109709163Y-87362545D01*
X109709165Y-87362545D01*
X109709168Y-87362547D01*
X109781118Y-87385925D01*
X109888881Y-87420940D01*
X110075514Y-87450500D01*
X110075519Y-87450500D01*
X110264486Y-87450500D01*
X110451118Y-87420940D01*
X110454011Y-87420000D01*
X110630832Y-87362547D01*
X110799199Y-87276760D01*
X110825182Y-87257882D01*
X114595669Y-87257882D01*
X114595670Y-87257883D01*
X114621059Y-87276329D01*
X114789362Y-87362085D01*
X114968997Y-87420451D01*
X115155553Y-87450000D01*
X115344447Y-87450000D01*
X115531002Y-87420451D01*
X115710637Y-87362085D01*
X115878937Y-87276331D01*
X115904328Y-87257883D01*
X115904328Y-87257882D01*
X115250001Y-86603554D01*
X115250000Y-86603554D01*
X114595669Y-87257882D01*
X110825182Y-87257882D01*
X110952073Y-87165690D01*
X111085690Y-87032073D01*
X111196760Y-86879199D01*
X111282547Y-86710832D01*
X111340940Y-86531118D01*
X111352787Y-86456319D01*
X111370500Y-86344486D01*
X111370500Y-86155552D01*
X114050000Y-86155552D01*
X114050000Y-86344447D01*
X114079548Y-86531002D01*
X114137914Y-86710637D01*
X114223666Y-86878933D01*
X114242116Y-86904328D01*
X114896446Y-86250000D01*
X114896446Y-86249999D01*
X114850369Y-86203922D01*
X114900000Y-86203922D01*
X114900000Y-86296078D01*
X114923852Y-86385095D01*
X114969930Y-86464905D01*
X115035095Y-86530070D01*
X115114905Y-86576148D01*
X115203922Y-86600000D01*
X115296078Y-86600000D01*
X115385095Y-86576148D01*
X115464905Y-86530070D01*
X115530070Y-86464905D01*
X115576148Y-86385095D01*
X115600000Y-86296078D01*
X115600000Y-86249999D01*
X115603554Y-86249999D01*
X115603554Y-86250000D01*
X116257882Y-86904328D01*
X116257883Y-86904328D01*
X116276331Y-86878937D01*
X116362085Y-86710637D01*
X116420451Y-86531002D01*
X116450000Y-86344447D01*
X116450000Y-86155552D01*
X116420451Y-85968997D01*
X116362085Y-85789362D01*
X116276329Y-85621059D01*
X116257883Y-85595670D01*
X116257882Y-85595669D01*
X115603554Y-86249999D01*
X115600000Y-86249999D01*
X115600000Y-86203922D01*
X115576148Y-86114905D01*
X115530070Y-86035095D01*
X115464905Y-85969930D01*
X115385095Y-85923852D01*
X115296078Y-85900000D01*
X115203922Y-85900000D01*
X115114905Y-85923852D01*
X115035095Y-85969930D01*
X114969930Y-86035095D01*
X114923852Y-86114905D01*
X114900000Y-86203922D01*
X114850369Y-86203922D01*
X114242116Y-85595669D01*
X114242116Y-85595670D01*
X114223669Y-85621060D01*
X114137914Y-85789362D01*
X114079548Y-85968997D01*
X114050000Y-86155552D01*
X111370500Y-86155552D01*
X111370500Y-86155513D01*
X111340940Y-85968881D01*
X111300455Y-85844282D01*
X111282547Y-85789168D01*
X111282545Y-85789165D01*
X111282545Y-85789163D01*
X111214344Y-85655312D01*
X111196760Y-85620801D01*
X111085690Y-85467927D01*
X110952073Y-85334310D01*
X110825179Y-85242116D01*
X114595669Y-85242116D01*
X115250000Y-85896446D01*
X115250001Y-85896446D01*
X115904328Y-85242116D01*
X115878933Y-85223666D01*
X115710637Y-85137914D01*
X115531002Y-85079548D01*
X115344447Y-85050000D01*
X115155553Y-85050000D01*
X114968997Y-85079548D01*
X114789362Y-85137914D01*
X114621060Y-85223669D01*
X114595670Y-85242116D01*
X114595669Y-85242116D01*
X110825179Y-85242116D01*
X110799199Y-85223240D01*
X110630836Y-85137454D01*
X110451118Y-85079059D01*
X110264486Y-85049500D01*
X110264481Y-85049500D01*
X110075519Y-85049500D01*
X110075514Y-85049500D01*
X109888881Y-85079059D01*
X109709163Y-85137454D01*
X109540800Y-85223240D01*
X109453579Y-85286610D01*
X109387927Y-85334310D01*
X109387925Y-85334312D01*
X109387924Y-85334312D01*
X109254312Y-85467924D01*
X109254312Y-85467925D01*
X109254310Y-85467927D01*
X109206610Y-85533579D01*
X109143240Y-85620800D01*
X109057454Y-85789163D01*
X108999059Y-85968881D01*
X108969500Y-86155513D01*
X100187014Y-86155513D01*
X100193884Y-86149560D01*
X100199389Y-86140130D01*
X100228236Y-86119795D01*
X100230022Y-86118884D01*
X100230025Y-86118884D01*
X100384427Y-86040213D01*
X100384527Y-86040162D01*
X100405403Y-86029525D01*
X100405402Y-86029525D01*
X100405405Y-86029524D01*
X100564646Y-85913828D01*
X100703828Y-85774646D01*
X100819524Y-85615405D01*
X100908884Y-85440025D01*
X100969709Y-85252826D01*
X100974327Y-85223669D01*
X101000500Y-85058422D01*
X101000500Y-84861577D01*
X100969709Y-84667173D01*
X100941487Y-84580317D01*
X100908884Y-84479975D01*
X100908882Y-84479972D01*
X100908882Y-84479970D01*
X100858233Y-84380566D01*
X100819524Y-84304595D01*
X100703828Y-84145354D01*
X100564646Y-84006172D01*
X100458865Y-83929317D01*
X100405403Y-83890474D01*
X100228787Y-83800485D01*
X100177990Y-83752511D01*
X100161195Y-83684690D01*
X100183732Y-83618555D01*
X100228787Y-83579515D01*
X100405403Y-83489525D01*
X100405402Y-83489525D01*
X100405405Y-83489524D01*
X100564646Y-83373828D01*
X100703828Y-83234646D01*
X100819524Y-83075405D01*
X100855116Y-83005552D01*
X100855136Y-83005513D01*
X108969500Y-83005513D01*
X108969500Y-83194486D01*
X108999059Y-83381118D01*
X109057454Y-83560836D01*
X109133213Y-83709520D01*
X109143240Y-83729199D01*
X109254310Y-83882073D01*
X109387927Y-84015690D01*
X109540801Y-84126760D01*
X109594261Y-84153999D01*
X109709163Y-84212545D01*
X109709165Y-84212545D01*
X109709168Y-84212547D01*
X109805497Y-84243846D01*
X109888881Y-84270940D01*
X110075514Y-84300500D01*
X110075519Y-84300500D01*
X110264486Y-84300500D01*
X110451118Y-84270940D01*
X110479506Y-84261716D01*
X110630832Y-84212547D01*
X110799199Y-84126760D01*
X110825182Y-84107882D01*
X114595669Y-84107882D01*
X114595670Y-84107883D01*
X114621059Y-84126329D01*
X114789362Y-84212085D01*
X114968997Y-84270451D01*
X115155553Y-84300000D01*
X115344447Y-84300000D01*
X115531002Y-84270451D01*
X115710637Y-84212085D01*
X115878937Y-84126331D01*
X115904328Y-84107883D01*
X115904328Y-84107882D01*
X115250001Y-83453554D01*
X115250000Y-83453554D01*
X114595669Y-84107882D01*
X110825182Y-84107882D01*
X110952073Y-84015690D01*
X111085690Y-83882073D01*
X111196760Y-83729199D01*
X111282547Y-83560832D01*
X111340940Y-83381118D01*
X111352678Y-83307007D01*
X111370500Y-83194486D01*
X111370500Y-83005552D01*
X114050000Y-83005552D01*
X114050000Y-83194447D01*
X114079548Y-83381002D01*
X114137914Y-83560637D01*
X114223666Y-83728933D01*
X114242116Y-83754328D01*
X114896446Y-83100000D01*
X114896446Y-83099999D01*
X114850369Y-83053922D01*
X114900000Y-83053922D01*
X114900000Y-83146078D01*
X114923852Y-83235095D01*
X114969930Y-83314905D01*
X115035095Y-83380070D01*
X115114905Y-83426148D01*
X115203922Y-83450000D01*
X115296078Y-83450000D01*
X115385095Y-83426148D01*
X115464905Y-83380070D01*
X115530070Y-83314905D01*
X115576148Y-83235095D01*
X115600000Y-83146078D01*
X115600000Y-83099999D01*
X115603554Y-83099999D01*
X115603554Y-83100000D01*
X116257882Y-83754328D01*
X116257883Y-83754328D01*
X116276331Y-83728937D01*
X116362085Y-83560637D01*
X116420451Y-83381002D01*
X116450000Y-83194447D01*
X116450000Y-83005552D01*
X116420451Y-82818997D01*
X116362085Y-82639362D01*
X116276329Y-82471059D01*
X116257883Y-82445670D01*
X116257882Y-82445669D01*
X115603554Y-83099999D01*
X115600000Y-83099999D01*
X115600000Y-83053922D01*
X115576148Y-82964905D01*
X115530070Y-82885095D01*
X115464905Y-82819930D01*
X115385095Y-82773852D01*
X115296078Y-82750000D01*
X115203922Y-82750000D01*
X115114905Y-82773852D01*
X115035095Y-82819930D01*
X114969930Y-82885095D01*
X114923852Y-82964905D01*
X114900000Y-83053922D01*
X114850369Y-83053922D01*
X114242116Y-82445669D01*
X114242116Y-82445670D01*
X114223669Y-82471060D01*
X114137914Y-82639362D01*
X114079548Y-82818997D01*
X114050000Y-83005552D01*
X111370500Y-83005552D01*
X111370500Y-83005513D01*
X111340940Y-82818881D01*
X111308743Y-82719792D01*
X111282547Y-82639168D01*
X111282545Y-82639165D01*
X111282545Y-82639163D01*
X111213930Y-82504500D01*
X111196760Y-82470801D01*
X111085690Y-82317927D01*
X110952073Y-82184310D01*
X110825179Y-82092116D01*
X114595669Y-82092116D01*
X115250000Y-82746446D01*
X115250001Y-82746446D01*
X115904328Y-82092116D01*
X115878933Y-82073666D01*
X115710637Y-81987914D01*
X115531002Y-81929548D01*
X115344447Y-81900000D01*
X115155553Y-81900000D01*
X114968997Y-81929548D01*
X114789362Y-81987914D01*
X114621060Y-82073669D01*
X114595670Y-82092116D01*
X114595669Y-82092116D01*
X110825179Y-82092116D01*
X110799199Y-82073240D01*
X110630836Y-81987454D01*
X110451118Y-81929059D01*
X110264486Y-81899500D01*
X110264481Y-81899500D01*
X110075519Y-81899500D01*
X110075514Y-81899500D01*
X109888881Y-81929059D01*
X109709163Y-81987454D01*
X109540800Y-82073240D01*
X109453579Y-82136610D01*
X109387927Y-82184310D01*
X109387925Y-82184312D01*
X109387924Y-82184312D01*
X109254312Y-82317924D01*
X109254312Y-82317925D01*
X109254310Y-82317927D01*
X109206610Y-82383579D01*
X109143240Y-82470800D01*
X109057454Y-82639163D01*
X108999059Y-82818881D01*
X108969500Y-83005513D01*
X100855136Y-83005513D01*
X100886298Y-82944353D01*
X100886298Y-82944352D01*
X100886299Y-82944351D01*
X100908881Y-82900031D01*
X100908882Y-82900029D01*
X100908884Y-82900025D01*
X100969709Y-82712826D01*
X101000500Y-82518422D01*
X101000500Y-82321577D01*
X100969709Y-82127173D01*
X100924311Y-81987454D01*
X100908884Y-81939975D01*
X100908882Y-81939972D01*
X100908882Y-81939970D01*
X100819523Y-81764594D01*
X100807830Y-81748500D01*
X100703828Y-81605354D01*
X100564646Y-81466172D01*
X100411377Y-81354815D01*
X100368714Y-81299487D01*
X100362735Y-81229873D01*
X100395341Y-81168078D01*
X100456180Y-81133721D01*
X100484264Y-81130499D01*
X100547872Y-81130499D01*
X100607483Y-81124091D01*
X100742331Y-81073796D01*
X100857546Y-80987546D01*
X100943796Y-80872331D01*
X100994091Y-80737483D01*
X101000500Y-80677873D01*
X101000499Y-79251848D01*
X118611000Y-79251848D01*
X119357448Y-78505400D01*
X119357448Y-78505399D01*
X118611000Y-77758951D01*
X118611000Y-79251848D01*
X101000499Y-79251848D01*
X101000499Y-79082128D01*
X100994091Y-79022517D01*
X100943796Y-78887669D01*
X100943795Y-78887668D01*
X100943793Y-78887664D01*
X100857547Y-78772455D01*
X100857544Y-78772452D01*
X100742335Y-78686206D01*
X100742328Y-78686202D01*
X100607482Y-78635908D01*
X100607483Y-78635908D01*
X100547883Y-78629501D01*
X100547881Y-78629500D01*
X100547873Y-78629500D01*
X100547864Y-78629500D01*
X98952129Y-78629500D01*
X98952123Y-78629501D01*
X98892516Y-78635908D01*
X98757671Y-78686202D01*
X98757664Y-78686206D01*
X98642455Y-78772452D01*
X98642452Y-78772455D01*
X98556206Y-78887664D01*
X98556202Y-78887671D01*
X98505908Y-79022517D01*
X98499501Y-79082116D01*
X98499501Y-79082123D01*
X98499500Y-79082135D01*
X40500500Y-79082135D01*
X40500500Y-77166430D01*
X118725583Y-77166430D01*
X118725583Y-77166432D01*
X119411000Y-77851848D01*
X119411000Y-79158951D01*
X118725583Y-79844366D01*
X118725583Y-79844368D01*
X118770195Y-79931924D01*
X118871967Y-80072002D01*
X118994397Y-80194432D01*
X119134475Y-80296204D01*
X119288742Y-80374808D01*
X119453415Y-80428314D01*
X119624429Y-80455400D01*
X119797571Y-80455400D01*
X119968584Y-80428314D01*
X120133257Y-80374808D01*
X120287524Y-80296204D01*
X120427602Y-80194432D01*
X120550032Y-80072002D01*
X120651805Y-79931921D01*
X120696415Y-79844367D01*
X120011000Y-79158952D01*
X120011000Y-78505399D01*
X120064552Y-78505399D01*
X120064552Y-78505400D01*
X120810999Y-79251848D01*
X131411000Y-79251848D01*
X132157448Y-78505400D01*
X132157448Y-78505399D01*
X131411000Y-77758951D01*
X131411000Y-79251848D01*
X120810999Y-79251848D01*
X120811000Y-79251847D01*
X120811000Y-77758952D01*
X120810999Y-77758951D01*
X120064552Y-78505399D01*
X120011000Y-78505399D01*
X120011000Y-77851848D01*
X120696416Y-77166431D01*
X120696415Y-77166430D01*
X131525583Y-77166430D01*
X131525583Y-77166432D01*
X132211000Y-77851848D01*
X132211000Y-79158951D01*
X131525583Y-79844366D01*
X131525583Y-79844368D01*
X131570195Y-79931924D01*
X131671967Y-80072002D01*
X131794397Y-80194432D01*
X131934475Y-80296204D01*
X132088742Y-80374808D01*
X132253415Y-80428314D01*
X132424429Y-80455400D01*
X132597571Y-80455400D01*
X132768584Y-80428314D01*
X132933257Y-80374808D01*
X133087524Y-80296204D01*
X133227602Y-80194432D01*
X133350032Y-80072002D01*
X133451804Y-79931923D01*
X133496415Y-79844367D01*
X132811000Y-79158952D01*
X132811000Y-78505399D01*
X132864552Y-78505399D01*
X132864552Y-78505400D01*
X133610999Y-79251848D01*
X133611000Y-79251847D01*
X133611000Y-77758952D01*
X133610999Y-77758951D01*
X132864552Y-78505399D01*
X132811000Y-78505399D01*
X132811000Y-77851848D01*
X133496416Y-77166431D01*
X133451804Y-77078875D01*
X133350032Y-76938797D01*
X133227602Y-76816367D01*
X133087524Y-76714595D01*
X132933257Y-76635991D01*
X132768584Y-76582485D01*
X132597571Y-76555400D01*
X132424429Y-76555400D01*
X132253415Y-76582485D01*
X132088742Y-76635991D01*
X131934475Y-76714595D01*
X131794397Y-76816367D01*
X131671967Y-76938797D01*
X131570194Y-77078878D01*
X131525583Y-77166430D01*
X120696415Y-77166430D01*
X120651805Y-77078877D01*
X120550032Y-76938797D01*
X120427602Y-76816367D01*
X120287524Y-76714595D01*
X120133257Y-76635991D01*
X119968584Y-76582485D01*
X119797571Y-76555400D01*
X119624429Y-76555400D01*
X119453415Y-76582485D01*
X119288742Y-76635991D01*
X119134475Y-76714595D01*
X118994397Y-76816367D01*
X118871967Y-76938797D01*
X118770194Y-77078878D01*
X118725583Y-77166430D01*
X40500500Y-77166430D01*
X40500500Y-69624500D01*
X40520185Y-69557461D01*
X40572989Y-69511706D01*
X40624500Y-69500500D01*
X105214327Y-69500500D01*
X105246815Y-69510039D01*
G37*
%TD.AperFunction*%
%TD*%
M02*
